M48
; DRILL file {KiCad (6.0.11-0)} date Sunday, 19 February 2023 at 09:30:23 pm
; FORMAT={-:-/ absolute / metric / decimal}
; #@! TF.CreationDate,2023-02-19T21:30:23+08:00
; #@! TF.GenerationSoftware,Kicad,Pcbnew,(6.0.11-0)
; #@! TF.FileFunction,Plated,1,4,PTH
FMAT,2
METRIC
; #@! TA.AperFunction,Plated,PTH,ViaDrill
T1C0.250
; #@! TA.AperFunction,Plated,PTH,ViaDrill
T2C0.500
; #@! TA.AperFunction,Plated,PTH,ComponentDrill
T3C0.600
%
G90
G05
T1
X26.52Y-107.666
X26.52Y-110.166
X26.52Y-112.666
X26.52Y-115.166
X26.52Y-117.666
X26.52Y-120.166
X26.52Y-122.666
X26.522Y-22.876
X26.522Y-35.496
X26.542Y-20.376
X26.557Y-125.166
X27.042Y-17.926
X27.194Y-127.582
X28.162Y-33.826
X28.602Y-49.256
X28.602Y-111.056
X28.602Y-113.556
X28.727Y-35.093
X28.782Y-16.126
X28.852Y-36.631
X29.082Y-129.216
X29.409Y-15.615
X29.922Y-68.806
X30.282Y-107.096
X30.312Y-88.036
X30.852Y-37.581
X31.002Y-30.686
X31.122Y-16.176
X31.192Y-27.346
X31.252Y-44.686
X31.384Y-112.6
X31.544Y-129.636
X32.038Y-15.322
X32.452Y-35.536
X32.522Y-33.286
X32.824Y-37.683
X33.463Y-104.58
X33.632Y-16.022
X33.637Y-29.997
X34.044Y-129.651
X34.212Y-55.486
X34.217Y-109.849
X34.452Y-78.156
X34.538Y-15.322
X35.762Y-52.104
X35.802Y-78.756
X36.132Y-16.022
X36.206Y-35.993
X36.544Y-129.651
X37.038Y-15.322
X37.25Y-58.526
X38.632Y-16.022
X39.044Y-129.651
X39.352Y-81.656
X39.538Y-15.322
X40.252Y-80.756
X40.322Y-61.696
X40.772Y-32.666
X40.802Y-127.916
X41.132Y-16.022
X41.462Y-59.796
X41.544Y-129.651
X42.038Y-15.322
X43.642Y-16.022
X43.832Y-28.516
X44.044Y-129.651
X44.412Y-96.7
X44.548Y-15.322
X45.544Y-78.506
X45.612Y-65.166
X45.852Y-21.856
X45.861Y-80.805
X46.042Y-63.416
X46.142Y-16.022
X46.3Y-101.919
X46.544Y-129.651
X46.552Y-20.356
X46.802Y-23.856
X47.048Y-15.322
X47.102Y-26.266
X47.277Y-74.801
X47.334Y-94.329
X47.852Y-20.708
X48.222Y-16.506
X48.552Y-24.806
X49.044Y-129.651
X49.09Y-26.474
X49.102Y-94.556
X49.102Y-96.256
X49.392Y-83.246
X50.21Y-66.226
X50.762Y-31.336
X50.802Y-94.856
X50.802Y-96.556
X51.332Y-86.456
X51.544Y-129.651
X52.595Y-21.653
X52.752Y-101.626
X52.822Y-100.216
X52.972Y-101.026
X53.838Y-104.801
X54.044Y-129.651
X54.179Y-100.709
X54.189Y-21.761
X54.422Y-101.576
X54.764Y-100.314
X55.265Y-21.806
X55.604Y-70.202
X56.544Y-129.651
X57.395Y-21.653
X57.88Y-97.281
X58.192Y-77.386
X58.195Y-21.653
X58.652Y-76.716
X59.026Y-71.478
X59.044Y-129.651
X59.172Y-99.226
X59.52Y-96.752
X59.523Y-115.541
X59.627Y-97.488
X59.862Y-23.226
X60.0Y-56.742
X60.602Y-99.226
X60.842Y-94.816
X60.887Y-120.053
X60.902Y-123.476
X61.162Y-96.576
X61.442Y-15.356
X61.502Y-99.186
X61.544Y-124.756
X61.544Y-127.151
X61.544Y-129.651
X61.832Y-22.236
X62.012Y-16.716
X62.122Y-66.606
X62.234Y-95.297
X62.332Y-96.856
X62.457Y-97.982
X62.732Y-27.366
X62.831Y-116.934
X62.951Y-16.022
X62.969Y-95.914
X63.042Y-64.076
X63.552Y-100.396
X63.858Y-15.322
X63.953Y-96.881
X64.557Y-96.006
X64.572Y-80.906
X64.672Y-99.826
X64.708Y-53.063
X64.792Y-94.306
X64.859Y-20.596
X65.002Y-121.856
X65.232Y-95.472
X65.232Y-97.076
X65.451Y-16.022
X65.859Y-21.546
X65.935Y-95.027
X66.202Y-18.456
X66.232Y-100.536
X66.242Y-19.836
X66.358Y-15.322
X66.921Y-102.231
X66.921Y-103.531
X66.999Y-100.221
X67.261Y-96.228
X67.329Y-24.16
X67.502Y-121.856
X67.682Y-104.656
X67.683Y-51.254
X67.825Y-48.065
X67.902Y-18.456
X67.951Y-16.022
X67.962Y-90.996
X68.042Y-96.884
X68.222Y-100.506
X68.346Y-98.137
X68.532Y-91.476
X68.612Y-90.686
X68.858Y-15.322
X69.002Y-97.356
X69.042Y-66.766
X69.445Y-83.239
X69.492Y-27.416
X69.542Y-101.846
X69.542Y-100.817
X69.561Y-103.649
X69.602Y-99.456
X69.722Y-90.608
X69.754Y-97.992
X70.002Y-121.856
X70.143Y-93.023
X70.222Y-101.076
X70.262Y-98.586
X70.295Y-102.066
X70.397Y-39.395
X70.451Y-16.022
X70.502Y-68.356
X70.582Y-104.856
X70.732Y-101.626
X70.76Y-92.288
X70.852Y-94.826
X70.888Y-100.425
X71.023Y-93.439
X71.092Y-102.826
X71.252Y-101.276
X71.358Y-15.322
X71.467Y-99.644
X71.662Y-36.866
X71.682Y-108.756
X71.698Y-92.689
X71.781Y-94.122
X71.836Y-90.243
X71.872Y-82.934
X71.912Y-104.652
X72.069Y-109.24
X72.342Y-95.966
X72.362Y-82.35
X72.397Y-102.592
X72.456Y-93.372
X72.502Y-121.856
X72.932Y-98.696
X72.932Y-99.343
X72.932Y-99.962
X72.932Y-100.582
X72.932Y-101.201
X72.932Y-101.821
X72.951Y-16.022
X73.006Y-80.397
X73.071Y-105.356
X73.202Y-109.356
X73.252Y-95.975
X73.362Y-63.496
X73.387Y-103.783
X73.474Y-81.376
X73.492Y-97.876
X73.858Y-15.322
X73.919Y-95.724
X74.066Y-80.163
X74.462Y-97.846
X74.538Y-95.758
X74.696Y-102.215
X74.822Y-104.996
X74.83Y-80.535
X74.891Y-79.439
X74.902Y-109.356
X74.929Y-96.237
X75.002Y-121.856
X75.022Y-32.176
X75.372Y-102.686
X75.451Y-16.022
X75.491Y-104.016
X75.582Y-96.256
X75.627Y-41.187
X75.659Y-92.426
X75.712Y-97.876
X76.012Y-93.956
X76.201Y-96.256
X76.358Y-15.322
X76.402Y-99.045
X76.402Y-100.045
X76.402Y-101.045
X76.562Y-105.006
X76.662Y-97.876
X76.762Y-104.328
X77.012Y-75.946
X77.271Y-98.99
X77.271Y-99.609
X77.271Y-100.229
X77.271Y-100.848
X77.271Y-101.546
X77.272Y-78.966
X77.306Y-77.56
X77.452Y-105.016
X77.712Y-89.416
X77.822Y-102.756
X77.951Y-16.022
X78.165Y-78.994
X78.242Y-105.036
X78.858Y-15.322
X79.167Y-98.556
X79.172Y-96.856
X79.222Y-101.356
X79.222Y-102.206
X79.252Y-121.856
X79.332Y-103.2
X79.69Y-61.943
X79.69Y-80.993
X80.132Y-96.856
X80.302Y-95.026
X80.302Y-95.986
X80.451Y-16.022
X81.358Y-15.322
X81.527Y-121.866
X81.542Y-104.796
X81.741Y-43.993
X81.782Y-22.536
X81.92Y-17.358
X82.822Y-64.016
X82.951Y-16.022
X83.452Y-73.306
X83.452Y-75.806
X83.452Y-90.056
X83.452Y-92.556
X83.452Y-107.206
X83.452Y-109.706
X83.702Y-70.806
X83.858Y-15.322
X84.831Y-22.247
X85.102Y-68.706
X85.451Y-16.022
X85.452Y-60.776
X86.358Y-15.322
X87.452Y-67.806
X87.717Y-24.473
X87.951Y-16.022
X88.858Y-15.322
X88.972Y-64.406
X89.95Y-67.737
X90.451Y-16.022
X90.912Y-67.746
X91.358Y-15.322
X92.427Y-66.219
X92.45Y-67.737
X92.951Y-16.022
X93.172Y-26.486
X93.858Y-15.322
X94.95Y-67.737
X95.451Y-16.022
X96.358Y-15.322
X97.45Y-67.737
X97.902Y-37.406
X97.952Y-16.286
X98.523Y-52.94
X98.742Y-15.446
X99.852Y-58.346
X99.914Y-67.314
X99.972Y-49.278
X100.142Y-16.706
X100.302Y-21.456
X101.821Y-65.695
X101.912Y-18.536
X102.472Y-63.284
X102.512Y-60.784
X102.516Y-58.615
X104.67Y-22.233
X104.67Y-24.733
X104.67Y-58.533
X104.67Y-61.033
X104.729Y-63.528
X104.74Y-19.733
X105.471Y-65.909
X105.49Y-17.353
X106.799Y-15.978
X106.99Y-21.563
X107.461Y-67.419
X108.494Y-16.199
X108.5Y-35.673
X109.287Y-15.32
X109.35Y-48.223
X109.933Y-67.784
X110.46Y-59.963
X110.866Y-16.02
X111.6Y-59.473
X111.772Y-15.32
X111.904Y-21.097
X112.433Y-67.784
X113.366Y-16.02
X114.18Y-65.973
X114.272Y-15.32
X114.933Y-67.784
X115.242Y-19.928
X115.866Y-16.02
X116.772Y-15.32
X117.433Y-67.784
X117.667Y-66.863
X117.85Y-56.313
X118.366Y-16.02
X119.272Y-15.32
X119.933Y-67.866
X120.429Y-50.561
X120.866Y-16.02
X121.07Y-19.883
X121.772Y-15.32
X122.237Y-68.842
X123.366Y-16.02
X123.52Y-70.985
X123.719Y-73.477
X123.719Y-75.898
X123.72Y-89.903
X123.72Y-92.403
X123.72Y-107.072
X123.72Y-109.572
X123.72Y-123.733
X123.747Y-48.841
X123.905Y-126.226
X124.272Y-15.32
X125.031Y-128.457
X125.688Y-51.329
X125.866Y-16.02
X126.6Y-82.433
X126.64Y-110.443
X126.772Y-15.32
X126.89Y-17.463
X127.287Y-129.531
X127.33Y-121.363
X127.35Y-118.753
X127.48Y-88.083
X127.56Y-107.103
X128.366Y-16.02
X128.58Y-44.533
X129.012Y-107.972
X129.272Y-15.32
X129.492Y-19.627
X129.782Y-129.7
X129.84Y-111.52
X130.291Y-107.987
X130.866Y-16.02
X131.4Y-126.713
X131.45Y-85.313
X131.53Y-55.243
X131.772Y-15.32
X131.905Y-74.83
X132.282Y-129.7
X132.33Y-68.753
X132.48Y-49.693
X132.715Y-78.413
X132.97Y-73.583
X133.366Y-16.02
X133.638Y-20.638
X134.272Y-15.32
X134.782Y-129.7
X134.877Y-54.673
X134.95Y-30.873
X135.24Y-127.363
X135.37Y-19.553
X135.682Y-46.538
X135.866Y-16.02
X136.772Y-15.32
X137.282Y-129.7
X137.63Y-35.553
X138.02Y-32.493
X138.366Y-16.02
X139.01Y-49.663
X139.11Y-68.773
X139.272Y-15.32
X139.782Y-129.7
X140.43Y-47.413
X140.52Y-115.683
X140.866Y-16.02
X140.87Y-25.253
X140.92Y-84.053
X140.981Y-27.873
X141.18Y-22.663
X141.23Y-24.523
X141.772Y-15.32
X142.032Y-23.613
X142.18Y-19.283
X142.282Y-129.7
X142.745Y-85.543
X143.061Y-49.542
X143.366Y-16.02
X144.272Y-15.32
X144.301Y-51.45
X144.307Y-22.663
X144.307Y-24.563
X144.38Y-19.633
X144.54Y-85.453
X144.592Y-83.349
X144.62Y-32.573
X144.782Y-129.7
X144.826Y-27.951
X145.43Y-16.643
X145.69Y-82.623
X146.105Y-83.199
X146.32Y-66.943
X146.34Y-24.273
X146.59Y-117.973
X146.705Y-54.871
X147.282Y-129.7
X147.287Y-115.354
X147.52Y-27.173
X148.11Y-93.103
X149.165Y-89.547
X149.782Y-129.7
X149.838Y-21.652
X150.34Y-45.163
X150.36Y-95.293
X150.63Y-41.793
X150.74Y-59.903
X150.76Y-63.62
X151.52Y-22.013
X151.713Y-110.887
X151.832Y-76.958
X152.27Y-79.458
X152.282Y-129.7
X152.34Y-49.953
X152.37Y-87.283
X152.5Y-22.013
X152.62Y-80.683
X153.07Y-85.283
X153.145Y-81.403
X153.234Y-67.139
X153.42Y-22.173
X154.045Y-79.833
X154.29Y-48.893
X154.428Y-125.703
X154.638Y-21.453
X154.757Y-76.958
X154.782Y-129.7
X154.807Y-27.056
X154.874Y-112.312
X155.86Y-78.283
X157.282Y-129.7
X157.84Y-88.973
X158.664Y-15.32
X158.78Y-91.183
X158.94Y-123.703
X158.94Y-125.703
X158.94Y-127.703
X158.94Y-129.703
X159.315Y-89.128
X159.887Y-88.625
X159.91Y-121.953
X159.94Y-48.643
X159.98Y-26.733
X160.185Y-16.02
X160.92Y-88.613
X161.091Y-15.32
X161.35Y-84.173
X161.57Y-19.223
X161.57Y-20.143
X161.57Y-21.043
X161.91Y-121.953
X162.208Y-93.624
X162.24Y-90.403
X162.4Y-84.213
X162.555Y-92.913
X162.685Y-16.02
X162.781Y-69.468
X163.005Y-86.703
X163.07Y-41.343
X163.29Y-91.693
X163.591Y-15.32
X163.6Y-49.513
X163.91Y-121.953
X163.97Y-87.558
X164.31Y-98.613
X164.395Y-83.758
X164.627Y-89.443
X164.86Y-45.923
X164.95Y-91.713
X165.01Y-70.242
X165.11Y-101.433
X165.185Y-16.02
X165.367Y-88.823
X165.43Y-21.813
X165.69Y-102.033
X165.87Y-97.483
X165.89Y-96.573
X165.91Y-121.953
X165.97Y-50.212
X165.98Y-100.833
X166.091Y-15.32
X166.17Y-102.803
X166.321Y-83.537
X166.35Y-23.553
X166.65Y-96.313
X167.41Y-102.293
X167.685Y-16.02
X167.803Y-27.533
X167.91Y-121.953
X168.156Y-99.006
X168.591Y-15.32
X168.6Y-92.939
X168.628Y-90.22
X169.13Y-102.813
X169.17Y-100.058
X169.19Y-102.053
X169.251Y-92.392
X169.28Y-95.293
X169.468Y-93.973
X169.625Y-96.637
X169.91Y-121.953
X170.07Y-104.643
X170.185Y-16.02
X170.38Y-95.953
X170.39Y-109.363
X170.545Y-102.583
X170.82Y-104.633
X170.871Y-101.738
X171.009Y-99.895
X171.009Y-100.515
X171.009Y-101.134
X171.091Y-15.32
X171.245Y-102.233
X171.27Y-95.953
X171.425Y-103.803
X171.673Y-97.231
X171.91Y-121.953
X171.99Y-17.193
X172.057Y-92.793
X172.09Y-109.363
X172.314Y-95.862
X172.42Y-91.303
X172.53Y-90.493
X172.6Y-97.703
X172.685Y-16.02
X172.958Y-96.143
X173.09Y-91.943
X173.09Y-92.963
X173.495Y-102.558
X173.535Y-95.915
X173.567Y-97.724
X173.57Y-60.063
X173.591Y-15.32
X173.695Y-103.933
X173.87Y-17.173
X173.93Y-19.523
X174.02Y-79.483
X174.195Y-97.758
X174.32Y-99.943
X174.34Y-100.802
X174.34Y-98.903
X174.386Y-96.284
X174.46Y-75.645
X174.68Y-30.003
X174.75Y-59.423
X175.04Y-103.833
X175.05Y-27.513
X175.185Y-16.02
X175.348Y-99.349
X175.348Y-98.727
X175.348Y-100.588
X175.348Y-99.969
X175.509Y-101.478
X175.55Y-121.953
X175.92Y-102.673
X176.13Y-44.033
X176.242Y-15.368
X176.53Y-97.993
X176.67Y-77.503
X176.865Y-28.703
X176.866Y-29.743
X176.94Y-49.263
X177.16Y-54.493
X177.27Y-96.823
X177.287Y-101.554
X177.55Y-121.953
X177.703Y-16.21
X177.79Y-45.985
X179.11Y-100.893
X179.2Y-96.353
X179.52Y-47.263
X179.55Y-121.953
X179.71Y-50.983
X180.17Y-49.283
X180.76Y-106.353
X180.76Y-108.353
X180.76Y-110.353
X180.76Y-112.353
X180.76Y-114.353
X180.76Y-116.353
X180.76Y-118.353
X180.76Y-120.353
T2
X38.452Y-76.016
X39.562Y-108.196
X39.582Y-94.716
X43.536Y-43.493
X44.012Y-60.006
X61.334Y-81.053
X61.972Y-73.956
X61.982Y-113.066
X62.482Y-48.846
X66.822Y-29.806
X71.002Y-53.336
X72.302Y-18.456
X82.742Y-27.786
X83.102Y-20.556
X83.112Y-17.186
X85.282Y-20.396
X85.762Y-46.766
X93.942Y-19.656
X93.942Y-21.146
X97.478Y-21.512
X98.042Y-43.646
X118.995Y-29.883
X119.145Y-45.683
X122.02Y-64.408
X131.995Y-33.083
X136.289Y-107.009
X137.416Y-56.174
X138.27Y-79.883
X139.12Y-126.158
X143.76Y-92.093
X153.12Y-105.458
X157.195Y-60.858
X158.695Y-42.083
X169.045Y-75.258
X171.82Y-43.683
T3
X49.42Y-20.353G85X49.42Y-19.553
G05
X49.42Y-16.753G85X49.42Y-15.553
G05
X60.571Y-16.753G85X60.571Y-15.553
G05
X60.571Y-20.353G85X60.571Y-19.553
G05
X146.663Y-20.352G85X146.663Y-19.552
G05
X146.663Y-16.752G85X146.663Y-15.552
G05
X157.814Y-16.752G85X157.814Y-15.552
G05
X157.814Y-20.352G85X157.814Y-19.552
G05
T0
M30
