M48
; DRILL file {KiCad (6.0.11-0)} date Sunday, 19 February 2023 at 09:30:23 pm
; FORMAT={-:-/ absolute / metric / decimal}
; #@! TF.CreationDate,2023-02-19T21:30:23+08:00
; #@! TF.GenerationSoftware,Kicad,Pcbnew,(6.0.11-0)
; #@! TF.FileFunction,NonPlated,1,4,NPTH
FMAT,2
METRIC
; #@! TA.AperFunction,NonPlated,NPTH,ComponentDrill
T1C0.500
; #@! TA.AperFunction,NonPlated,NPTH,ComponentDrill
T2C3.050
; #@! TA.AperFunction,NonPlated,NPTH,ComponentDrill
T3C5.100
%
G90
G05
T1
X101.115Y-49.664
X101.115Y-50.414
X101.115Y-51.164
X101.115Y-51.914
X101.115Y-52.664
X101.115Y-53.414
X101.115Y-54.164
X106.115Y-49.664
X106.115Y-50.414
X106.115Y-51.164
X106.115Y-51.914
X106.115Y-52.664
X106.115Y-53.414
X106.115Y-54.164
T2
X30.19Y-65.681
X30.19Y-84.731
X30.19Y-103.781
X31.24Y-58.681
X31.24Y-77.731
X31.24Y-96.781
X31.54Y-48.731
X38.54Y-49.781
X40.64Y-29.381
X40.64Y-124.631
X41.69Y-22.381
X41.69Y-117.631
X49.24Y-79.968
X49.24Y-99.018
X50.29Y-72.968
X50.29Y-92.018
X50.59Y-63.018
X50.59Y-122.549
X52.39Y-26.374
X57.59Y-64.068
X57.59Y-123.599
X59.39Y-27.424
X68.29Y-115.687
X69.34Y-108.687
X71.44Y-21.612
X71.44Y-43.043
X78.44Y-22.662
X78.44Y-44.093
X78.74Y-72.243
X78.74Y-91.293
X79.79Y-65.243
X79.79Y-84.293
X88.69Y-60.637
X95.69Y-61.687
X97.79Y-34.143
X98.84Y-27.143
X108.39Y-32.344
X108.39Y-58.538
X109.44Y-25.344
X109.44Y-51.538
X127.44Y-84.731
X127.44Y-103.781
X128.49Y-77.731
X128.49Y-96.781
X128.79Y-48.731
X128.79Y-67.781
X130.59Y-114.481
X135.79Y-49.781
X135.79Y-68.831
X137.59Y-115.531
X137.89Y-29.381
X138.94Y-22.381
X149.64Y-23.994
X149.64Y-47.806
X149.64Y-85.906
X149.64Y-66.856
X156.64Y-25.044
X156.64Y-48.856
X156.64Y-86.956
X156.64Y-67.906
X156.94Y-119.869
X157.99Y-112.869
X165.54Y-115.688
X166.59Y-108.688
X166.89Y-53.494
X168.69Y-21.613
X173.89Y-54.544
X175.69Y-22.663
X175.99Y-72.244
X175.99Y-91.294
X177.04Y-65.244
X177.04Y-84.294
T3
X35.94Y-24.981
X35.94Y-44.031
X35.94Y-63.081
X35.94Y-82.131
X35.94Y-101.181
X35.94Y-120.231
X54.99Y-32.124
X54.99Y-58.318
X54.99Y-77.368
X54.99Y-96.418
X54.99Y-117.849
X74.04Y-27.362
X74.04Y-48.793
X74.04Y-67.843
X74.04Y-86.893
X74.04Y-113.087
X93.09Y-29.743
X93.09Y-55.937
X114.14Y-29.744
X114.14Y-55.938
X133.19Y-24.981
X133.19Y-44.031
X133.19Y-63.081
X133.19Y-82.131
X133.19Y-101.181
X133.19Y-120.231
X152.24Y-29.744
X152.24Y-53.556
X152.24Y-91.656
X152.24Y-72.606
X152.24Y-115.469
X171.29Y-48.794
X171.29Y-67.844
X171.29Y-86.894
X171.29Y-113.088
X171.29Y-27.363
T0
M30
