%TF.GenerationSoftware,KiCad,Pcbnew,(6.0.11-0)*%
%TF.CreationDate,2023-02-19T21:30:22+08:00*%
%TF.ProjectId,Combined,436f6d62-696e-4656-942e-6b696361645f,rev?*%
%TF.SameCoordinates,Original*%
%TF.FileFunction,Drillmap*%
%TF.FilePolarity,Positive*%
%FSLAX45Y45*%
G04 Gerber Fmt 4.5, Leading zero omitted, Abs format (unit mm)*
G04 Created by KiCad (PCBNEW (6.0.11-0)) date 2023-02-19 21:30:22*
%MOMM*%
%LPD*%
G01*
G04 APERTURE LIST*
%ADD10C,0.030000*%
%ADD11C,0.038100*%
%ADD12C,0.000100*%
%ADD13C,0.010000*%
%ADD14C,0.200000*%
%ADD15C,0.025000*%
%ADD16C,0.050000*%
%ADD17C,0.060000*%
G04 APERTURE END LIST*
D10*
X10880009Y-1502550D02*
X10869600Y-1503815D01*
X11011527Y-6834324D02*
X10933311Y-6832109D01*
X10173777Y-6684055D02*
X10167528Y-6690323D01*
D11*
X8507518Y-6953332D02*
X8516527Y-6944324D01*
X8649491Y-6863001D02*
X8674491Y-6855324D01*
D10*
X17870528Y-1557578D02*
X17918091Y-1584237D01*
D11*
X12299494Y-7118230D02*
X12304527Y-7140324D01*
D10*
X8344528Y-12764574D02*
X8317869Y-12812138D01*
D11*
X2741527Y-4432979D02*
X2766527Y-4432978D01*
D10*
X9863862Y-1505078D02*
X9923683Y-1516010D01*
D11*
X11921527Y-6835324D02*
X11888527Y-6834324D01*
D10*
X10411527Y-4581424D02*
X10611527Y-4581424D01*
D12*
X10076527Y-1870578D02*
G75*
G03*
X10076527Y-1870578I-140000J0D01*
G01*
D10*
X8249990Y-12894075D02*
X8256259Y-12887823D01*
X10413741Y-2017363D02*
X10418496Y-1964063D01*
D11*
X12010527Y-6846324D02*
X11989317Y-6842373D01*
D10*
X8193092Y-12936915D02*
X8236762Y-12905885D01*
X7884745Y-13023357D02*
X7938044Y-13018602D01*
D11*
X2591527Y-2418979D02*
X2741527Y-2418979D01*
D10*
X10276597Y-6503520D02*
X10273549Y-6512535D01*
X2680185Y-1709014D02*
X2711215Y-1665344D01*
X2852527Y-12963574D02*
X2804962Y-12936916D01*
X17683862Y-1505077D02*
X17743683Y-1516008D01*
D11*
X2591527Y-4682979D02*
X2741527Y-4682979D01*
D10*
X17809737Y-1533555D02*
X17818753Y-1536602D01*
D11*
X18131527Y-3382978D02*
X17981527Y-3382978D01*
D10*
X10466098Y-6556537D02*
X10473527Y-6573324D01*
D11*
X12197527Y-6935324D02*
X12188049Y-6926767D01*
X8834527Y-6834324D02*
X8846527Y-6834324D01*
D10*
X10050526Y-1557578D02*
X10098092Y-1584237D01*
X18096597Y-12694770D02*
X18093549Y-12703784D01*
X7958863Y-13016075D02*
X8018684Y-13005142D01*
X12316527Y-8862174D02*
X12516527Y-8862174D01*
X10273549Y-6512535D02*
X10270501Y-6521549D01*
X2599762Y-1953653D02*
X2601026Y-1943244D01*
X10309311Y-6312541D02*
X10304556Y-6365841D01*
D11*
X17981527Y-4432979D02*
X17956527Y-4432979D01*
D10*
X3039192Y-1505078D02*
X2979371Y-1516010D01*
X10452550Y-1808353D02*
X10466098Y-1773367D01*
X18069527Y-12764574D02*
X18042868Y-12812138D01*
X8406527Y-12317774D02*
X8206527Y-12317774D01*
D11*
X8599700Y-6883993D02*
X8611742Y-6878282D01*
D10*
X12442121Y-12862422D02*
X12448026Y-12869037D01*
X12764192Y-13016076D02*
X12704370Y-13005144D01*
D12*
X17896525Y-12650573D02*
G75*
G03*
X17896525Y-12650573I-140000J0D01*
G01*
D10*
X9711526Y-6834323D02*
X9789745Y-6832107D01*
D11*
X12287850Y-7077288D02*
X12295527Y-7102288D01*
D10*
X10624963Y-6745665D02*
X10581292Y-6714635D01*
D11*
X8206527Y-10589974D02*
X8206527Y-9369974D01*
D10*
X8351956Y-12747786D02*
X8344528Y-12764574D01*
X3039192Y-13016074D02*
X2979371Y-13005142D01*
D11*
X8516527Y-6944324D02*
X8525535Y-6935315D01*
D10*
X17981258Y-12887823D02*
X17987527Y-12881573D01*
X10418498Y-6365841D02*
X10419763Y-6376251D01*
D11*
X8456196Y-7027497D02*
X8464527Y-7012324D01*
X11876527Y-6834324D02*
X11888527Y-6834324D01*
D10*
X8406527Y-9369974D02*
X8206527Y-9369974D01*
D11*
X12299494Y-7118230D02*
X12295527Y-7102324D01*
X8636638Y-6867786D02*
X8649491Y-6863001D01*
D10*
X10256955Y-6556536D02*
X10249527Y-6573323D01*
D11*
X8407793Y-7223968D02*
X8409061Y-7207968D01*
D10*
X18093549Y-1817366D02*
X18090500Y-1808352D01*
D11*
X2741527Y-3382979D02*
X2741527Y-3132979D01*
D10*
X3060010Y-1502550D02*
X3049601Y-1503814D01*
D12*
X3106527Y-12650574D02*
G75*
G03*
X3106527Y-12650574I-140000J0D01*
G01*
D10*
X10304555Y-1964062D02*
X10303292Y-1953653D01*
X2626457Y-12694771D02*
X2629505Y-12703785D01*
D11*
X17981527Y-3132978D02*
X17956527Y-3132979D01*
X8206527Y-12317774D02*
X8206527Y-11097774D01*
D10*
X9980724Y-1530508D02*
X9989738Y-1533557D01*
X18122028Y-1943242D02*
X18111095Y-1883421D01*
X10309310Y-2017362D02*
X10304555Y-1964062D01*
X12316527Y-10589974D02*
X12516527Y-10589974D01*
X8397028Y-12577909D02*
X8386096Y-12637730D01*
X10419761Y-1953653D02*
X10421024Y-1943244D01*
X12916527Y-13025574D02*
X17531527Y-13025574D01*
X18131526Y-12425573D02*
X18129312Y-12503790D01*
X8398292Y-12567499D02*
X8397028Y-12577909D01*
X18005933Y-1658730D02*
X18000028Y-1652115D01*
X17531527Y-1495579D02*
X15681227Y-1495579D01*
X10418496Y-1964063D02*
X10419761Y-1953653D01*
D11*
X8406527Y-11097774D02*
X8406527Y-10589974D01*
D10*
X10869600Y-1503815D02*
X10859190Y-1505077D01*
D11*
X8584527Y-6892324D02*
X8571527Y-6900324D01*
D10*
X2729276Y-1645848D02*
X2735527Y-1639579D01*
X2748065Y-1627078D02*
X2741796Y-1633328D01*
D11*
X2741527Y-3132979D02*
X2766527Y-3132978D01*
D10*
X2632553Y-12712799D02*
X2646098Y-12747787D01*
X10742328Y-1530508D02*
X10733314Y-1533556D01*
D12*
X10926528Y-6459323D02*
G75*
G03*
X10926528Y-6459323I-140000J0D01*
G01*
D10*
X18096598Y-1826380D02*
X18093549Y-1817366D01*
X9853453Y-6826088D02*
X9863862Y-6824824D01*
X10799370Y-6813894D02*
X10742329Y-6799396D01*
X11011527Y-1495579D02*
X14766827Y-1495579D01*
X10419763Y-6376251D02*
X10421025Y-6386661D01*
X17968375Y-1621171D02*
X17974989Y-1627077D01*
X18111095Y-1883421D02*
X18096598Y-1826380D01*
D11*
X18131527Y-4682979D02*
X17981527Y-4682979D01*
X12237527Y-6980324D02*
X12246894Y-6993865D01*
X17981527Y-2668979D02*
X17956527Y-2668979D01*
X8409061Y-7207968D02*
X8412452Y-7176750D01*
X8498970Y-6962801D02*
X8485527Y-6980324D01*
D10*
X17800724Y-1530507D02*
X17809737Y-1533555D01*
X10446455Y-1826381D02*
X10449503Y-1817368D01*
D11*
X10111527Y-5800624D02*
X10111527Y-5493879D01*
D10*
X18076956Y-1773364D02*
X18069526Y-1756577D01*
X10561794Y-1633329D02*
X10555526Y-1639578D01*
X8406527Y-7642173D02*
X8206527Y-7642173D01*
D11*
X15224027Y-2045301D02*
X14766827Y-2045301D01*
X2591527Y-3718978D02*
X2741527Y-3718978D01*
X8476159Y-6993865D02*
X8485527Y-6980324D01*
X17981527Y-2418979D02*
X17981527Y-2668979D01*
X10611527Y-2528524D02*
X10611527Y-3748524D01*
D10*
X3060010Y-13018603D02*
X3049601Y-13017339D01*
D11*
X12206527Y-6944324D02*
X12215535Y-6953332D01*
D10*
X10222869Y-6620888D02*
X10191839Y-6664558D01*
X2748065Y-12894075D02*
X2741796Y-12887824D01*
X10933308Y-1497795D02*
X10880009Y-1502550D01*
X8268777Y-12875304D02*
X8262527Y-12881573D01*
X10154989Y-1627078D02*
X10161258Y-1633328D01*
D11*
X8748953Y-6840249D02*
X8733736Y-6842373D01*
D10*
X17968375Y-12899980D02*
X17974990Y-12894075D01*
X12316526Y-12425575D02*
X12318743Y-12503792D01*
X9789744Y-1497795D02*
X9843043Y-1502550D01*
X12318743Y-12503792D02*
X12323498Y-12557091D01*
X18042868Y-1709013D02*
X18011839Y-1665343D01*
X10421025Y-6386661D02*
X10431960Y-6446482D01*
X10185933Y-1658730D02*
X10180027Y-1652117D01*
D11*
X12310601Y-7176750D02*
X12308477Y-7161533D01*
D10*
X2761292Y-1615267D02*
X2754678Y-1621173D01*
X10880011Y-6827355D02*
X10869601Y-6826089D01*
D11*
X17981527Y-3718978D02*
X17981527Y-3968978D01*
D10*
X2629505Y-12703785D02*
X2632553Y-12712799D01*
D11*
X12010527Y-6846324D02*
X12032620Y-6851356D01*
X8427527Y-7102288D02*
X8435204Y-7077288D01*
D10*
X2626456Y-1826382D02*
X2629504Y-1817367D01*
X8280934Y-12862422D02*
X8275028Y-12869036D01*
X18000028Y-12869035D02*
X17993777Y-12875304D01*
X10733314Y-1533556D02*
X10724299Y-1536605D01*
X10466098Y-1773367D02*
X10473526Y-1756578D01*
X18090502Y-12712799D02*
X18076955Y-12747786D01*
D13*
X10111536Y-4888524D02*
G75*
G03*
X10161527Y-4938524I49994J-6D01*
G01*
D10*
X8075724Y-12990644D02*
X8084739Y-12987596D01*
X18076955Y-12747786D02*
X18069527Y-12764574D01*
X18129311Y-2017360D02*
X18124555Y-1964061D01*
D11*
X10611527Y-4581424D02*
X10611527Y-4888524D01*
D10*
X17531527Y-13025574D02*
X17609745Y-13023357D01*
X10291095Y-1883423D02*
X10276597Y-1826381D01*
X9843043Y-1502550D02*
X9853452Y-1503814D01*
X10191839Y-6664558D02*
X10185933Y-6671172D01*
X10413743Y-6312542D02*
X10418498Y-6365841D01*
X3049601Y-13017339D02*
X3039192Y-13016074D01*
D11*
X12516527Y-9369974D02*
X12516527Y-10589974D01*
D10*
X17974990Y-12894075D02*
X17981258Y-12887823D01*
X10449504Y-6512536D02*
X10452554Y-6521551D01*
X12323498Y-12557091D02*
X12324763Y-12567501D01*
X8018684Y-13005142D02*
X8075724Y-12990644D01*
X18090500Y-1808352D02*
X18076956Y-1773364D01*
X12647329Y-12990646D02*
X12638316Y-12987598D01*
X2723026Y-12869036D02*
X2729277Y-12875305D01*
D11*
X10311527Y-2095579D02*
X10311527Y-2528524D01*
X10611527Y-5800624D02*
X10611527Y-5493879D01*
X5041827Y-1495579D02*
X5041827Y-2045301D01*
D10*
X2804962Y-1584237D02*
X2761292Y-1615267D01*
X12594315Y-12971003D02*
X12577526Y-12963574D01*
X18129312Y-12503790D02*
X18124556Y-12557090D01*
D12*
X10926527Y-1870579D02*
G75*
G03*
X10926527Y-1870579I-140000J0D01*
G01*
D11*
X12316527Y-8862174D02*
X12316527Y-9369974D01*
X8406527Y-9369974D02*
X8406527Y-8862174D01*
X10411527Y-3748524D02*
X10411527Y-4581424D01*
D10*
X10574678Y-1621173D02*
X10568063Y-1627077D01*
D11*
X10111527Y-4888524D02*
X10111527Y-4581424D01*
X8418527Y-7140324D02*
X8414576Y-7161533D01*
D13*
X10561527Y-4938517D02*
G75*
G03*
X10611527Y-4888524I13J49987D01*
G01*
D10*
X12357554Y-12712801D02*
X12371098Y-12747787D01*
D11*
X12313992Y-7207968D02*
X12315261Y-7223968D01*
D10*
X12785011Y-13018605D02*
X12774601Y-13017339D01*
X2601026Y-12577909D02*
X2611959Y-12637730D01*
D11*
X12151527Y-6900324D02*
X12156985Y-6903956D01*
D10*
X8236762Y-12905885D02*
X8243375Y-12899980D01*
X10500186Y-6620889D02*
X10531215Y-6664560D01*
D11*
X8733736Y-6842373D02*
X8712527Y-6846324D01*
D10*
X2979371Y-1516010D02*
X2922330Y-1530508D01*
X17993776Y-1645846D02*
X17987527Y-1639577D01*
X2723026Y-1652117D02*
X2729276Y-1645848D01*
X12436215Y-12855810D02*
X12442121Y-12862422D01*
X8084739Y-12987596D02*
X8093753Y-12984547D01*
X10724301Y-6793300D02*
X10689315Y-6779753D01*
X10270500Y-1808354D02*
X10256956Y-1773366D01*
X10311527Y-5801424D02*
X10111527Y-5801424D01*
X10291095Y-6446479D02*
X10276597Y-6503520D01*
X18069526Y-1756577D02*
X18042868Y-1709013D01*
X10302027Y-1943243D02*
X10291095Y-1883423D01*
X9998752Y-1536604D02*
X10033740Y-1550150D01*
D11*
X15681227Y-2045301D02*
X15224027Y-2045301D01*
X11989317Y-6842373D02*
X11974100Y-6840249D01*
X8450486Y-7039539D02*
X8456196Y-7027497D01*
D10*
X2680185Y-12812139D02*
X2711216Y-12855808D01*
D11*
X8439989Y-7064435D02*
X8450486Y-7039539D01*
D10*
X18011839Y-1665343D02*
X18005933Y-1658730D01*
X10537121Y-6671172D02*
X10543026Y-6677787D01*
X10273549Y-1817368D02*
X10270500Y-1808354D01*
X10180028Y-6677785D02*
X10173777Y-6684055D01*
X2904301Y-12984548D02*
X2869314Y-12971003D01*
D11*
X8407527Y-7229324D02*
X8406527Y-7262324D01*
D10*
X17531527Y-1495579D02*
X17609743Y-1497793D01*
X10537119Y-1658731D02*
X10543025Y-1652117D01*
X9843043Y-6827352D02*
X9853453Y-6826088D01*
X12486292Y-12905885D02*
X12479679Y-12899982D01*
D11*
X5956227Y-1495579D02*
X5956227Y-2045301D01*
X12224083Y-6962801D02*
X12215527Y-6953324D01*
X12197518Y-6935315D02*
X12206527Y-6944324D01*
D13*
X10611521Y-5493879D02*
G75*
G03*
X10561527Y-5443879I-50001J-1D01*
G01*
D10*
X8399556Y-12557090D02*
X8398292Y-12567499D01*
X8365502Y-12712800D02*
X8351956Y-12747786D01*
X12316527Y-9369974D02*
X12516527Y-9369974D01*
D11*
X2741527Y-4682979D02*
X2741527Y-4432979D01*
D10*
X9998752Y-6793298D02*
X10033740Y-6779752D01*
X17663044Y-13018602D02*
X17673453Y-13017338D01*
X9923683Y-1516010D02*
X9980724Y-1530508D01*
X18131527Y-2095578D02*
X18129311Y-2017360D01*
D11*
X2741527Y-3968978D02*
X2741527Y-3718978D01*
D10*
X9853452Y-1503814D02*
X9863862Y-1505078D01*
X17800725Y-12990644D02*
X17809739Y-12987596D01*
X12577526Y-12963574D02*
X12529962Y-12936915D01*
X17918091Y-1584237D02*
X17961762Y-1615267D01*
D11*
X12283064Y-7064435D02*
X12287850Y-7077288D01*
D10*
X18122027Y-12577908D02*
X18111096Y-12637730D01*
X10543025Y-1652117D02*
X10549276Y-1645847D01*
X2754679Y-12899980D02*
X2748065Y-12894075D01*
D11*
X2741527Y-2668979D02*
X2766527Y-2668979D01*
X8507527Y-6953324D02*
X8498970Y-6962801D01*
X3191527Y-13025574D02*
X7806527Y-13025574D01*
D10*
X2632553Y-1808353D02*
X2646098Y-1773366D01*
X2611959Y-12637730D02*
X2626457Y-12694771D01*
X12351455Y-12694772D02*
X12354504Y-12703786D01*
D11*
X12310601Y-7176750D02*
X12313992Y-7207968D01*
D10*
X8386096Y-12637730D02*
X8371598Y-12694770D01*
X12324763Y-12567501D02*
X12326025Y-12577911D01*
X10446456Y-6503522D02*
X10449504Y-6512536D01*
X10531215Y-6664560D02*
X10537121Y-6671172D01*
X10568063Y-1627077D02*
X10561794Y-1633329D01*
D11*
X8407527Y-7229324D02*
X8407793Y-7223968D01*
D10*
X10742329Y-6799396D02*
X10733316Y-6796348D01*
X12354504Y-12703786D02*
X12357554Y-12712801D01*
X10733316Y-6796348D02*
X10724301Y-6793300D01*
X18131527Y-3382978D02*
X18131527Y-3718978D01*
D11*
X8780171Y-6836858D02*
X8796171Y-6835590D01*
D10*
X9863862Y-6824824D02*
X9923683Y-6813891D01*
D11*
X8435204Y-7077288D02*
X8439989Y-7064435D01*
D10*
X10311527Y-2528524D02*
X10111527Y-2528524D01*
D11*
X14766827Y-2045301D02*
X14766827Y-1495579D01*
D10*
X8368550Y-12703784D02*
X8365502Y-12712800D01*
D11*
X12048562Y-6855324D02*
X12073562Y-6863001D01*
D10*
X8256259Y-12887823D02*
X8262527Y-12881573D01*
X9989738Y-1533557D02*
X9998752Y-1536604D01*
X12466795Y-12887825D02*
X12460525Y-12881575D01*
D11*
X8690434Y-6851356D02*
X8712527Y-6846324D01*
X8584527Y-6892324D02*
X8599700Y-6883993D01*
D10*
X12316527Y-12317774D02*
X12316527Y-12425574D01*
X9989738Y-6796346D02*
X9998752Y-6793298D01*
X10033740Y-1550150D02*
X10050526Y-1557578D01*
X10222868Y-1709014D02*
X10191838Y-1665345D01*
X10276597Y-1826381D02*
X10273549Y-1817368D01*
D11*
X12258527Y-7012324D02*
X12250527Y-6999324D01*
D10*
X12838311Y-13023359D02*
X12785011Y-13018605D01*
D11*
X12516527Y-11097774D02*
X12516527Y-12317774D01*
D10*
X10473527Y-6573324D02*
X10500186Y-6620889D01*
D12*
X12831527Y-12650573D02*
G75*
G03*
X12831527Y-12650573I-140000J0D01*
G01*
D10*
X10304556Y-6365841D02*
X10303292Y-6376249D01*
X2869314Y-12971003D02*
X2852527Y-12963574D01*
X10098092Y-6745665D02*
X10141761Y-6714634D01*
X2717121Y-1658730D02*
X2723026Y-1652117D01*
X3191527Y-1495579D02*
X3113309Y-1497795D01*
D11*
X2591527Y-3382979D02*
X2741527Y-3382979D01*
D10*
X12371098Y-12747787D02*
X12378527Y-12764574D01*
D11*
X9711527Y-1495579D02*
X5956227Y-1495579D01*
D10*
X12916527Y-13025574D02*
X12838311Y-13023359D01*
X2741796Y-1633328D02*
X2735527Y-1639579D01*
D12*
X10076527Y-6459324D02*
G75*
G03*
X10076527Y-6459324I-140000J0D01*
G01*
D10*
X17673452Y-1503813D02*
X17683862Y-1505077D01*
X2599762Y-12567500D02*
X2601026Y-12577909D01*
D11*
X12516527Y-7642173D02*
X12516527Y-8862174D01*
D10*
X10531215Y-1665344D02*
X10537119Y-1658731D01*
X18000028Y-1652115D02*
X17993776Y-1645846D01*
D11*
X8566068Y-6903956D02*
X8571527Y-6900324D01*
D10*
X9711527Y-1495579D02*
X9789744Y-1497795D01*
D11*
X12316527Y-7262324D02*
X12315527Y-7229324D01*
D10*
X7948453Y-13017338D02*
X7958863Y-13016075D01*
X11876527Y-6834324D02*
X11011527Y-6834324D01*
X10154988Y-6702824D02*
X10161259Y-6696573D01*
X10500185Y-1709014D02*
X10531215Y-1665344D01*
X2804962Y-12936916D02*
X2761293Y-12905885D01*
X2653527Y-1756579D02*
X2680185Y-1709014D01*
X3049601Y-1503814D02*
X3039192Y-1505078D01*
X10311527Y-4581424D02*
X10111527Y-4581424D01*
D11*
X12308477Y-7161533D02*
X12304527Y-7140324D01*
D10*
X9789745Y-6832107D02*
X9843043Y-6827352D01*
X2979371Y-13005142D02*
X2922330Y-12990644D01*
D12*
X17896526Y-1870579D02*
G75*
G03*
X17896526Y-1870579I-140000J0D01*
G01*
D10*
X10574679Y-6708732D02*
X10568064Y-6702826D01*
X10141761Y-6714634D02*
X10148376Y-6708729D01*
X12704370Y-13005144D02*
X12647329Y-12990646D01*
D11*
X12246894Y-6993865D02*
X12250527Y-6999324D01*
D10*
X10672526Y-1557579D02*
X10624961Y-1584237D01*
X12326025Y-12577911D02*
X12336959Y-12637732D01*
X8406527Y-8862173D02*
X8206527Y-8862173D01*
D11*
X8611742Y-6878282D02*
X8636638Y-6867786D01*
D10*
X9980725Y-6799393D02*
X9989738Y-6796346D01*
X17853740Y-12971003D02*
X17870527Y-12963573D01*
D11*
X2741527Y-3968978D02*
X2766527Y-3968978D01*
D10*
X8371598Y-12694770D02*
X8368550Y-12703784D01*
X12638316Y-12987598D02*
X12629301Y-12984550D01*
D11*
X11942883Y-6836858D02*
X11974100Y-6840249D01*
D10*
X12774601Y-13017339D02*
X12764192Y-13016076D01*
X10185933Y-6671172D02*
X10180028Y-6677785D01*
X10303292Y-6376249D02*
X10302027Y-6386658D01*
D13*
X10161527Y-5443877D02*
G75*
G03*
X10111527Y-5493879I13J-50013D01*
G01*
D10*
X10431960Y-6446482D02*
X10446456Y-6503522D01*
X10256956Y-1773366D02*
X10249527Y-1756578D01*
D11*
X17981527Y-3968978D02*
X17956527Y-3968979D01*
X12151527Y-6900324D02*
X12138527Y-6892324D01*
D10*
X10411526Y-6234325D02*
X10413743Y-6312542D01*
X10191838Y-1665345D02*
X10185933Y-1658730D01*
X18042868Y-12812138D02*
X18011838Y-12855809D01*
X12405185Y-12812139D02*
X12436215Y-12855810D01*
X2717121Y-12862422D02*
X2723026Y-12869036D01*
X17809739Y-12987596D02*
X17818752Y-12984547D01*
X10568064Y-6702826D02*
X10561795Y-6696575D01*
D11*
X18131527Y-3718978D02*
X17981527Y-3718978D01*
X12123354Y-6883993D02*
X12138527Y-6892324D01*
D10*
X12316527Y-11097774D02*
X12516527Y-11097774D01*
X18011838Y-12855809D02*
X18005934Y-12862422D01*
X17853739Y-1550150D02*
X17870528Y-1557578D01*
X2593743Y-12503791D02*
X2598498Y-12557090D01*
D11*
X5956227Y-2045301D02*
X5041827Y-2045301D01*
D10*
X8145528Y-12963573D02*
X8193092Y-12936915D01*
X12316527Y-7642173D02*
X12516527Y-7642173D01*
D11*
X8796171Y-6835590D02*
X8801527Y-6835324D01*
X3191527Y-1495579D02*
X5041827Y-1495579D01*
X8472527Y-6999324D02*
X8476159Y-6993865D01*
D10*
X2913315Y-12987596D02*
X2904301Y-12984548D01*
X10933311Y-6832109D02*
X10880011Y-6827355D01*
D11*
X8406527Y-12425574D02*
X8406527Y-12317774D01*
X12272568Y-7039539D02*
X12283064Y-7064435D01*
X2591527Y-4682979D02*
X2591527Y-12425574D01*
D10*
X17743683Y-1516008D02*
X17800724Y-1530507D01*
D11*
X17981527Y-4432979D02*
X17981527Y-4682979D01*
D10*
X8093753Y-12984547D02*
X8128740Y-12971002D01*
X17981258Y-1633328D02*
X17987527Y-1639577D01*
X17918092Y-12936916D02*
X17961762Y-12905885D01*
X2852527Y-1557579D02*
X2804962Y-1584237D01*
X12479679Y-12899982D02*
X12473064Y-12894076D01*
X2646098Y-12747787D02*
X2653527Y-12764574D01*
X17818753Y-1536602D02*
X17853739Y-1550150D01*
X8406527Y-11097774D02*
X8206527Y-11097774D01*
X2598498Y-1964062D02*
X2599762Y-1953653D01*
X17993777Y-12875304D02*
X17987527Y-12881573D01*
X10543026Y-6677787D02*
X10549277Y-6684056D01*
X10452554Y-6521551D02*
X10466098Y-6556537D01*
X2611958Y-1883423D02*
X2626456Y-1826382D01*
X10148376Y-6708729D02*
X10154988Y-6702824D01*
X2729277Y-12875305D02*
X2735527Y-12881574D01*
X10303292Y-1953653D02*
X10302027Y-1943243D01*
X18131527Y-4682979D02*
X18131527Y-12425574D01*
X18124555Y-1964061D02*
X18123291Y-1953652D01*
X17961762Y-12905885D02*
X17968375Y-12899980D01*
D11*
X8690434Y-6851356D02*
X8674527Y-6855324D01*
X8406527Y-7274324D02*
X8406527Y-7642173D01*
D10*
X18124556Y-12557090D02*
X18123291Y-12567499D01*
D11*
X12316527Y-7262324D02*
X12316527Y-7274324D01*
D10*
X10724299Y-1536605D02*
X10689313Y-1550149D01*
X8317869Y-12812138D02*
X8286838Y-12855808D01*
X17961762Y-1615267D02*
X17968375Y-1621171D01*
X8406527Y-10589974D02*
X8206527Y-10589974D01*
X12336959Y-12637732D02*
X12351455Y-12694772D01*
X2591527Y-2095579D02*
X2593743Y-2017361D01*
X10311527Y-2095579D02*
X10309310Y-2017362D01*
X10421024Y-1943244D02*
X10431956Y-1883422D01*
D11*
X8834527Y-6834324D02*
X8801527Y-6835324D01*
D10*
X2904301Y-1536605D02*
X2869314Y-1550150D01*
X12473064Y-12894076D02*
X12466795Y-12887825D01*
D11*
X10111527Y-3748524D02*
X10111527Y-2528524D01*
D10*
X18131527Y-2418979D02*
X18131527Y-2095579D01*
D11*
X10561527Y-5443879D02*
X10161527Y-5443879D01*
X12156985Y-6903956D02*
X12170527Y-6913324D01*
D10*
X2601026Y-1943244D02*
X2611958Y-1883423D01*
X10869601Y-6826089D02*
X10859192Y-6824826D01*
X10473526Y-1756578D02*
X10500185Y-1709014D01*
X10411527Y-3748524D02*
X10611527Y-3748524D01*
D11*
X17981527Y-3132978D02*
X17981527Y-3382978D01*
X2741527Y-2668979D02*
X2741527Y-2418979D01*
X10311527Y-5801424D02*
X10311527Y-6234324D01*
D10*
X17673453Y-13017338D02*
X17683863Y-13016075D01*
X10050526Y-6772323D02*
X10098092Y-6745665D01*
X17683863Y-13016075D02*
X17743684Y-13005142D01*
D11*
X8552527Y-6913324D02*
X8535004Y-6926767D01*
D10*
X17663043Y-1502549D02*
X17673452Y-1503813D01*
X10799368Y-1516011D02*
X10742328Y-1530508D01*
X9923683Y-6813891D02*
X9980725Y-6799393D01*
D11*
X15681227Y-2045301D02*
X15681227Y-1495579D01*
D10*
X10302027Y-6386658D02*
X10291095Y-6446479D01*
X2629504Y-1817367D02*
X2632553Y-1808353D01*
X17974989Y-1627077D02*
X17981258Y-1633328D01*
D11*
X12188049Y-6926767D02*
X12170527Y-6913324D01*
D10*
X12448026Y-12869037D02*
X12454277Y-12875306D01*
X11011526Y-1495578D02*
X10933308Y-1497795D01*
X10411527Y-2528524D02*
X10411527Y-2095579D01*
X2711215Y-1665344D02*
X2717121Y-1658730D01*
X10431956Y-1883422D02*
X10446455Y-1826381D01*
D11*
X11926883Y-6835590D02*
X11942883Y-6836858D01*
D10*
X2754678Y-1621173D02*
X2748065Y-1627078D01*
X10689313Y-1550149D02*
X10672526Y-1557579D01*
X2646098Y-1773366D02*
X2653527Y-1756579D01*
D11*
X8406527Y-7274324D02*
X8406527Y-7262324D01*
D10*
X2869314Y-1550150D02*
X2852527Y-1557579D01*
D11*
X12316527Y-7642173D02*
X12316527Y-7274324D01*
D10*
X18111096Y-12637730D02*
X18096597Y-12694770D01*
X10411527Y-2095579D02*
X10413741Y-2017363D01*
D11*
X12237527Y-6980324D02*
X12224083Y-6962801D01*
X10161527Y-4938524D02*
X10561527Y-4938524D01*
D10*
X17818752Y-12984547D02*
X17853740Y-12971003D01*
X10311527Y-6234324D02*
X10309311Y-6312541D01*
X10270501Y-6521549D02*
X10256955Y-6556536D01*
X17870527Y-12963573D02*
X17918092Y-12936916D01*
X2741796Y-12887824D02*
X2735527Y-12881574D01*
X10249527Y-6573323D02*
X10222869Y-6620888D01*
X8286838Y-12855808D02*
X8280934Y-12862422D01*
D11*
X8418527Y-7140324D02*
X8423559Y-7118230D01*
X8206527Y-8862173D02*
X8206527Y-7642173D01*
D10*
X10581292Y-6714635D02*
X10574679Y-6708732D01*
X2591527Y-2095579D02*
X2591527Y-2418979D01*
D11*
X18131527Y-2418979D02*
X17981527Y-2418979D01*
D10*
X10411527Y-6234324D02*
X10411527Y-5801424D01*
X10449503Y-1817368D02*
X10452550Y-1808353D01*
X10689315Y-6779753D02*
X10672526Y-6772324D01*
X2591527Y-3382979D02*
X2591527Y-3718978D01*
X12629301Y-12984550D02*
X12594315Y-12971003D01*
X10141761Y-1615267D02*
X10148375Y-1621173D01*
X18123291Y-1953652D02*
X18122028Y-1943242D01*
X3113309Y-1497795D02*
X3060010Y-1502550D01*
X10624961Y-1584237D02*
X10581290Y-1615267D01*
X2711216Y-12855808D02*
X2717121Y-12862422D01*
X8275028Y-12869036D02*
X8268777Y-12875304D01*
D11*
X8472527Y-6999324D02*
X8464527Y-7012324D01*
D10*
X10859190Y-1505077D02*
X10799368Y-1516011D01*
X2593743Y-2017361D02*
X2598498Y-1964062D01*
X10549276Y-1645847D02*
X10555526Y-1639578D01*
X17743684Y-13005142D02*
X17800725Y-12990644D01*
X10180027Y-1652117D02*
X10173777Y-1645848D01*
D11*
X12266857Y-7027497D02*
X12272568Y-7039539D01*
X12258527Y-7012324D02*
X12266857Y-7027497D01*
D10*
X18005934Y-12862422D02*
X18000028Y-12869035D01*
X10561795Y-6696575D02*
X10555525Y-6690325D01*
X10311527Y-3748524D02*
X10111527Y-3748524D01*
X2922330Y-1530508D02*
X2913315Y-1533556D01*
X18123291Y-12567499D02*
X18122027Y-12577908D01*
D11*
X8552527Y-6913324D02*
X8566068Y-6903956D01*
X8748953Y-6840249D02*
X8780171Y-6836858D01*
D10*
X10549277Y-6684056D02*
X10555525Y-6690325D01*
X8128740Y-12971002D02*
X8145528Y-12963573D01*
X12316527Y-12317774D02*
X12516527Y-12317774D01*
X3191527Y-13025574D02*
X3113310Y-13023358D01*
X8406527Y-12425574D02*
X8404312Y-12503790D01*
X18093549Y-12703784D02*
X18090502Y-12712799D01*
X2922330Y-12990644D02*
X2913315Y-12987596D01*
D11*
X11921527Y-6835324D02*
X11926883Y-6835590D01*
D10*
X10672526Y-6772324D02*
X10624963Y-6745665D01*
X10581290Y-1615267D02*
X10574678Y-1621173D01*
D11*
X12316527Y-10589974D02*
X12316527Y-11097774D01*
D10*
X10859192Y-6824826D02*
X10799370Y-6813894D01*
X2598498Y-12557090D02*
X2599762Y-12567500D01*
X12454277Y-12875306D02*
X12460525Y-12881575D01*
X10161259Y-6696573D02*
X10167528Y-6690323D01*
X10411527Y-5801424D02*
X10611527Y-5801424D01*
X17609743Y-1497793D02*
X17663043Y-1502549D01*
X3113310Y-13023358D02*
X3060010Y-13018603D01*
X12378527Y-12764574D02*
X12405185Y-12812139D01*
X10033740Y-6779752D02*
X10050526Y-6772323D01*
X10148375Y-1621173D02*
X10154989Y-1627078D01*
X10173777Y-1645848D02*
X10167527Y-1639578D01*
X10249527Y-1756578D02*
X10222868Y-1709014D01*
D11*
X8427527Y-7102324D02*
X8423559Y-7118230D01*
D10*
X10161258Y-1633328D02*
X10167527Y-1639578D01*
D11*
X12073562Y-6863001D02*
X12086415Y-6867786D01*
D10*
X2761293Y-12905885D02*
X2754679Y-12899980D01*
D11*
X8414576Y-7161533D02*
X8412452Y-7176750D01*
D10*
X7938044Y-13018602D02*
X7948453Y-13017338D01*
X2591527Y-12425573D02*
X2593743Y-12503791D01*
X12529962Y-12936915D02*
X12486292Y-12905885D01*
X2653527Y-12764574D02*
X2680185Y-12812139D01*
X2913315Y-1533556D02*
X2904301Y-1536605D01*
X8404312Y-12503790D02*
X8399556Y-12557090D01*
D11*
X12048527Y-6855324D02*
X12032620Y-6851356D01*
X12315261Y-7223968D02*
X12315527Y-7229324D01*
X12111311Y-6878282D02*
X12123354Y-6883993D01*
D12*
X3106526Y-1870579D02*
G75*
G03*
X3106526Y-1870579I-140000J0D01*
G01*
D10*
X7806527Y-13025574D02*
X7884745Y-13023357D01*
D11*
X9711527Y-6834324D02*
X8846527Y-6834324D01*
X8535004Y-6926767D02*
X8525527Y-6935324D01*
X10311527Y-4581424D02*
X10311527Y-3748524D01*
X12086415Y-6867786D02*
X12111311Y-6878282D01*
D10*
X10411527Y-2528524D02*
X10611527Y-2528524D01*
X10098092Y-1584237D02*
X10141761Y-1615267D01*
D12*
X8171527Y-12650574D02*
G75*
G03*
X8171527Y-12650574I-140000J0D01*
G01*
D10*
X17609745Y-13023357D02*
X17663044Y-13018602D01*
X8243375Y-12899980D02*
X8249990Y-12894075D01*
D14*
D15*
X2639468Y-10754055D02*
X2664468Y-10779055D01*
X2664468Y-10754055D02*
X2639468Y-10779055D01*
X2639468Y-11004055D02*
X2664468Y-11029055D01*
X2664468Y-11004055D02*
X2639468Y-11029055D01*
X2639468Y-11254055D02*
X2664468Y-11279055D01*
X2664468Y-11254055D02*
X2639468Y-11279055D01*
X2639468Y-11504055D02*
X2664468Y-11529055D01*
X2664468Y-11504055D02*
X2639468Y-11529055D01*
X2639468Y-11754055D02*
X2664468Y-11779055D01*
X2664468Y-11754055D02*
X2639468Y-11779055D01*
X2639468Y-12004055D02*
X2664468Y-12029055D01*
X2664468Y-12004055D02*
X2639468Y-12029055D01*
X2639468Y-12254055D02*
X2664468Y-12279055D01*
X2664468Y-12254055D02*
X2639468Y-12279055D01*
X2639674Y-2275074D02*
X2664674Y-2300074D01*
X2664674Y-2275074D02*
X2639674Y-2300074D01*
X2639674Y-3537074D02*
X2664674Y-3562074D01*
X2664674Y-3537074D02*
X2639674Y-3562074D01*
X2641674Y-2025074D02*
X2666674Y-2050074D01*
X2666674Y-2025074D02*
X2641674Y-2050074D01*
X2643151Y-12504055D02*
X2668151Y-12529055D01*
X2668151Y-12504055D02*
X2643151Y-12529055D01*
X2691674Y-1780074D02*
X2716674Y-1805074D01*
X2716674Y-1780074D02*
X2691674Y-1805074D01*
X2706927Y-12745658D02*
X2731927Y-12770658D01*
X2731927Y-12745658D02*
X2706927Y-12770658D01*
X2803674Y-3370074D02*
X2828674Y-3395074D01*
X2828674Y-3370074D02*
X2803674Y-3395074D01*
X2847674Y-4913074D02*
X2872674Y-4938074D01*
X2872674Y-4913074D02*
X2847674Y-4938074D01*
X2847674Y-11093074D02*
X2872674Y-11118074D01*
X2872674Y-11093074D02*
X2847674Y-11118074D01*
X2847674Y-11343074D02*
X2872674Y-11368074D01*
X2872674Y-11343074D02*
X2847674Y-11368074D01*
X2860174Y-3496824D02*
X2885174Y-3521824D01*
X2885174Y-3496824D02*
X2860174Y-3521824D01*
X2865674Y-1600074D02*
X2890674Y-1625074D01*
X2890674Y-1600074D02*
X2865674Y-1625074D01*
X2872674Y-3650574D02*
X2897674Y-3675574D01*
X2897674Y-3650574D02*
X2872674Y-3675574D01*
X2895674Y-12909074D02*
X2920674Y-12934074D01*
X2920674Y-12909074D02*
X2895674Y-12934074D01*
X2928418Y-1548973D02*
X2953418Y-1573973D01*
X2953418Y-1548973D02*
X2928418Y-1573973D01*
X2979674Y-6868074D02*
X3004674Y-6893074D01*
X3004674Y-6868074D02*
X2979674Y-6893074D01*
X3015674Y-10697074D02*
X3040674Y-10722074D01*
X3040674Y-10697074D02*
X3015674Y-10722074D01*
X3018674Y-8791074D02*
X3043674Y-8816074D01*
X3043674Y-8791074D02*
X3018674Y-8816074D01*
X3072674Y-3745574D02*
X3097674Y-3770574D01*
X3097674Y-3745574D02*
X3072674Y-3770574D01*
X3087674Y-3056074D02*
X3112674Y-3081074D01*
X3112674Y-3056074D02*
X3087674Y-3081074D01*
X3099674Y-1605074D02*
X3124674Y-1630074D01*
X3124674Y-1605074D02*
X3099674Y-1630074D01*
X3106674Y-2722074D02*
X3131674Y-2747074D01*
X3131674Y-2722074D02*
X3106674Y-2747074D01*
X3112674Y-4456074D02*
X3137674Y-4481074D01*
X3137674Y-4456074D02*
X3112674Y-4481074D01*
X3125861Y-11247479D02*
X3150861Y-11272479D01*
X3150861Y-11247479D02*
X3125861Y-11272479D01*
X3141859Y-12951074D02*
X3166859Y-12976074D01*
X3166859Y-12951074D02*
X3141859Y-12976074D01*
X3191338Y-1519663D02*
X3216338Y-1544663D01*
X3216338Y-1519663D02*
X3191338Y-1544663D01*
X3232674Y-3541074D02*
X3257674Y-3566074D01*
X3257674Y-3541074D02*
X3232674Y-3566074D01*
X3239674Y-3316074D02*
X3264674Y-3341074D01*
X3264674Y-3316074D02*
X3239674Y-3341074D01*
X3269857Y-3755754D02*
X3294857Y-3780754D01*
X3294857Y-3755754D02*
X3269857Y-3780754D01*
X3333789Y-10445470D02*
X3358789Y-10470470D01*
X3358789Y-10445470D02*
X3333789Y-10470470D01*
X3350711Y-1589664D02*
X3375711Y-1614664D01*
X3375711Y-1589664D02*
X3350711Y-1614664D01*
X3351171Y-2987171D02*
X3376171Y-3012171D01*
X3376171Y-2987171D02*
X3351171Y-3012171D01*
X3391859Y-12952644D02*
X3416859Y-12977644D01*
X3416859Y-12952644D02*
X3391859Y-12977644D01*
X3408674Y-5536074D02*
X3433674Y-5561074D01*
X3433674Y-5536074D02*
X3408674Y-5561074D01*
X3409159Y-10972412D02*
X3434159Y-10997412D01*
X3434159Y-10972412D02*
X3409159Y-10997412D01*
X3432674Y-7803074D02*
X3457674Y-7828074D01*
X3457674Y-7803074D02*
X3432674Y-7828074D01*
X3441338Y-1519663D02*
X3466338Y-1544663D01*
X3466338Y-1519663D02*
X3441338Y-1544663D01*
X3563740Y-5197946D02*
X3588740Y-5222946D01*
X3588740Y-5197946D02*
X3563740Y-5222946D01*
X3567674Y-7863074D02*
X3592674Y-7888074D01*
X3592674Y-7863074D02*
X3567674Y-7888074D01*
X3600711Y-1589664D02*
X3625711Y-1614664D01*
X3625711Y-1589664D02*
X3600711Y-1614664D01*
X3608102Y-3586760D02*
X3633102Y-3611760D01*
X3633102Y-3586760D02*
X3608102Y-3611760D01*
X3641859Y-12952644D02*
X3666859Y-12977644D01*
X3666859Y-12952644D02*
X3641859Y-12977644D01*
X3691338Y-1519663D02*
X3716338Y-1544663D01*
X3716338Y-1519663D02*
X3691338Y-1544663D01*
X3712454Y-5840105D02*
X3737454Y-5865105D01*
X3737454Y-5840105D02*
X3712454Y-5865105D01*
X3850711Y-1589664D02*
X3875711Y-1614664D01*
X3875711Y-1589664D02*
X3850711Y-1614664D01*
X3891859Y-12952644D02*
X3916859Y-12977644D01*
X3916859Y-12952644D02*
X3891859Y-12977644D01*
X3922674Y-8153074D02*
X3947674Y-8178074D01*
X3947674Y-8153074D02*
X3922674Y-8178074D01*
X3941338Y-1519663D02*
X3966338Y-1544663D01*
X3966338Y-1519663D02*
X3941338Y-1544663D01*
X4012674Y-8063074D02*
X4037674Y-8088074D01*
X4037674Y-8063074D02*
X4012674Y-8088074D01*
X4019674Y-6157074D02*
X4044674Y-6182074D01*
X4044674Y-6157074D02*
X4019674Y-6182074D01*
X4064674Y-3254074D02*
X4089674Y-3279074D01*
X4089674Y-3254074D02*
X4064674Y-3279074D01*
X4067674Y-12779074D02*
X4092674Y-12804074D01*
X4092674Y-12779074D02*
X4067674Y-12804074D01*
X4100711Y-1589664D02*
X4125711Y-1614664D01*
X4125711Y-1589664D02*
X4100711Y-1614664D01*
X4133674Y-5967074D02*
X4158674Y-5992074D01*
X4158674Y-5967074D02*
X4133674Y-5992074D01*
X4141859Y-12952644D02*
X4166859Y-12977644D01*
X4166859Y-12952644D02*
X4141859Y-12977644D01*
X4191338Y-1519663D02*
X4216338Y-1544663D01*
X4216338Y-1519663D02*
X4191338Y-1544663D01*
X4351671Y-1589664D02*
X4376671Y-1614664D01*
X4376671Y-1589664D02*
X4351671Y-1614664D01*
X4370674Y-2839074D02*
X4395674Y-2864074D01*
X4395674Y-2839074D02*
X4370674Y-2864074D01*
X4391859Y-12952644D02*
X4416859Y-12977644D01*
X4416859Y-12952644D02*
X4391859Y-12977644D01*
X4428697Y-9657504D02*
X4453697Y-9682504D01*
X4453697Y-9657504D02*
X4428697Y-9682504D01*
X4442298Y-1519663D02*
X4467298Y-1544663D01*
X4467298Y-1519663D02*
X4442298Y-1544663D01*
X4541934Y-7838051D02*
X4566934Y-7863051D01*
X4566934Y-7838051D02*
X4541934Y-7863051D01*
X4548674Y-6504074D02*
X4573674Y-6529074D01*
X4573674Y-6504074D02*
X4548674Y-6529074D01*
X4572674Y-2173074D02*
X4597674Y-2198074D01*
X4597674Y-2173074D02*
X4572674Y-2198074D01*
X4573617Y-8068043D02*
X4598617Y-8093043D01*
X4598617Y-8068043D02*
X4573617Y-8093043D01*
X4591674Y-6329074D02*
X4616674Y-6354074D01*
X4616674Y-6329074D02*
X4591674Y-6354074D01*
X4601671Y-1589664D02*
X4626671Y-1614664D01*
X4626671Y-1589664D02*
X4601671Y-1614664D01*
X4617513Y-10179431D02*
X4642513Y-10204431D01*
X4642513Y-10179431D02*
X4617513Y-10204431D01*
X4641859Y-12952644D02*
X4666859Y-12977644D01*
X4666859Y-12952644D02*
X4641859Y-12977644D01*
X4642674Y-2023074D02*
X4667674Y-2048074D01*
X4667674Y-2023074D02*
X4642674Y-2048074D01*
X4667674Y-2373074D02*
X4692674Y-2398074D01*
X4692674Y-2373074D02*
X4667674Y-2398074D01*
X4692298Y-1519663D02*
X4717298Y-1544663D01*
X4717298Y-1519663D02*
X4692298Y-1544663D01*
X4697674Y-2614074D02*
X4722674Y-2639074D01*
X4722674Y-2614074D02*
X4697674Y-2639074D01*
X4715248Y-7467561D02*
X4740248Y-7492561D01*
X4740248Y-7467561D02*
X4715248Y-7492561D01*
X4720875Y-9420437D02*
X4745875Y-9445437D01*
X4745875Y-9420437D02*
X4720875Y-9445437D01*
X4772674Y-2058324D02*
X4797674Y-2083324D01*
X4797674Y-2058324D02*
X4772674Y-2083324D01*
X4809674Y-1638074D02*
X4834674Y-1663074D01*
X4834674Y-1638074D02*
X4809674Y-1663074D01*
X4842674Y-2468074D02*
X4867674Y-2493074D01*
X4867674Y-2468074D02*
X4842674Y-2493074D01*
X4891859Y-12952644D02*
X4916859Y-12977644D01*
X4916859Y-12952644D02*
X4891859Y-12977644D01*
X4896470Y-2634949D02*
X4921470Y-2659949D01*
X4921470Y-2634949D02*
X4896470Y-2659949D01*
X4897674Y-9443074D02*
X4922674Y-9468074D01*
X4922674Y-9443074D02*
X4897674Y-9468074D01*
X4897674Y-9613074D02*
X4922674Y-9638074D01*
X4922674Y-9613074D02*
X4897674Y-9638074D01*
X4926674Y-8312074D02*
X4951674Y-8337074D01*
X4951674Y-8312074D02*
X4926674Y-8337074D01*
X5008454Y-6610105D02*
X5033454Y-6635105D01*
X5033454Y-6610105D02*
X5008454Y-6635105D01*
X5063674Y-3121074D02*
X5088674Y-3146074D01*
X5088674Y-3121074D02*
X5063674Y-3146074D01*
X5067674Y-9473074D02*
X5092674Y-9498074D01*
X5092674Y-9473074D02*
X5067674Y-9498074D01*
X5067674Y-9643074D02*
X5092674Y-9668074D01*
X5092674Y-9643074D02*
X5067674Y-9668074D01*
X5120674Y-8633074D02*
X5145674Y-8658074D01*
X5145674Y-8633074D02*
X5120674Y-8658074D01*
X5141859Y-12952644D02*
X5166859Y-12977644D01*
X5166859Y-12952644D02*
X5141859Y-12977644D01*
X5247024Y-2152804D02*
X5272024Y-2177804D01*
X5272024Y-2152804D02*
X5247024Y-2177804D01*
X5262674Y-10150074D02*
X5287674Y-10175074D01*
X5287674Y-10150074D02*
X5262674Y-10175074D01*
X5269674Y-10009074D02*
X5294674Y-10034074D01*
X5294674Y-10009074D02*
X5269674Y-10034074D01*
X5284693Y-10090055D02*
X5309693Y-10115055D01*
X5309693Y-10090055D02*
X5284693Y-10115055D01*
X5371280Y-10467559D02*
X5396280Y-10492559D01*
X5396280Y-10467559D02*
X5371280Y-10492559D01*
X5391859Y-12952644D02*
X5416859Y-12977644D01*
X5416859Y-12952644D02*
X5391859Y-12977644D01*
X5405371Y-10058427D02*
X5430371Y-10083427D01*
X5430371Y-10058427D02*
X5405371Y-10083427D01*
X5406379Y-2163608D02*
X5431379Y-2188608D01*
X5431379Y-2163608D02*
X5406379Y-2188608D01*
X5429674Y-10145074D02*
X5454674Y-10170074D01*
X5454674Y-10145074D02*
X5429674Y-10170074D01*
X5463924Y-10018879D02*
X5488924Y-10043879D01*
X5488924Y-10018879D02*
X5463924Y-10043879D01*
X5513974Y-2168124D02*
X5538974Y-2193124D01*
X5538974Y-2168124D02*
X5513974Y-2193124D01*
X5547931Y-7007664D02*
X5572931Y-7032664D01*
X5572931Y-7007664D02*
X5547931Y-7032664D01*
X5641859Y-12952644D02*
X5666859Y-12977644D01*
X5666859Y-12952644D02*
X5641859Y-12977644D01*
X5727024Y-2152804D02*
X5752024Y-2177804D01*
X5752024Y-2152804D02*
X5727024Y-2177804D01*
X5775524Y-9715574D02*
X5800524Y-9740574D01*
X5800524Y-9715574D02*
X5775524Y-9740574D01*
X5806674Y-7726074D02*
X5831674Y-7751074D01*
X5831674Y-7726074D02*
X5806674Y-7751074D01*
X5807024Y-2152804D02*
X5832024Y-2177804D01*
X5832024Y-2152804D02*
X5807024Y-2177804D01*
X5852674Y-7659074D02*
X5877674Y-7684074D01*
X5877674Y-7659074D02*
X5852674Y-7684074D01*
X5890063Y-7135270D02*
X5915063Y-7160270D01*
X5915063Y-7135270D02*
X5890063Y-7160270D01*
X5891859Y-12952644D02*
X5916859Y-12977644D01*
X5916859Y-12952644D02*
X5891859Y-12977644D01*
X5904674Y-9910074D02*
X5929674Y-9935074D01*
X5929674Y-9910074D02*
X5904674Y-9935074D01*
X5939487Y-9662748D02*
X5964487Y-9687748D01*
X5964487Y-9662748D02*
X5939487Y-9687748D01*
X5939848Y-11541573D02*
X5964848Y-11566573D01*
X5964848Y-11541573D02*
X5939848Y-11566573D01*
X5950185Y-9736309D02*
X5975185Y-9761309D01*
X5975185Y-9736309D02*
X5950185Y-9761309D01*
X5973674Y-2310074D02*
X5998674Y-2335074D01*
X5998674Y-2310074D02*
X5973674Y-2335074D01*
X5987486Y-5661675D02*
X6012486Y-5686675D01*
X6012486Y-5661675D02*
X5987486Y-5686675D01*
X6047674Y-9910074D02*
X6072674Y-9935074D01*
X6072674Y-9910074D02*
X6047674Y-9935074D01*
X6071674Y-9469074D02*
X6096674Y-9494074D01*
X6096674Y-9469074D02*
X6071674Y-9494074D01*
X6076155Y-11992793D02*
X6101155Y-12017793D01*
X6101155Y-11992793D02*
X6076155Y-12017793D01*
X6077674Y-12335074D02*
X6102674Y-12360074D01*
X6102674Y-12335074D02*
X6077674Y-12360074D01*
X6103674Y-9645074D02*
X6128674Y-9670074D01*
X6128674Y-9645074D02*
X6103674Y-9670074D01*
X6131674Y-1523074D02*
X6156674Y-1548074D01*
X6156674Y-1523074D02*
X6131674Y-1548074D01*
X6137674Y-9906074D02*
X6162674Y-9931074D01*
X6162674Y-9906074D02*
X6137674Y-9931074D01*
X6141859Y-12463074D02*
X6166859Y-12488074D01*
X6166859Y-12463074D02*
X6141859Y-12488074D01*
X6141859Y-12702644D02*
X6166859Y-12727644D01*
X6166859Y-12702644D02*
X6141859Y-12727644D01*
X6141859Y-12952644D02*
X6166859Y-12977644D01*
X6166859Y-12952644D02*
X6141859Y-12977644D01*
X6170674Y-2211074D02*
X6195674Y-2236074D01*
X6195674Y-2211074D02*
X6170674Y-2236074D01*
X6188674Y-1659074D02*
X6213674Y-1684074D01*
X6213674Y-1659074D02*
X6188674Y-1684074D01*
X6199674Y-6648074D02*
X6224674Y-6673074D01*
X6224674Y-6648074D02*
X6199674Y-6673074D01*
X6210904Y-9517220D02*
X6235904Y-9542220D01*
X6235904Y-9517220D02*
X6210904Y-9542220D01*
X6220723Y-9673094D02*
X6245723Y-9698094D01*
X6245723Y-9673094D02*
X6220723Y-9698094D01*
X6233189Y-9785736D02*
X6258189Y-9810736D01*
X6258189Y-9785736D02*
X6233189Y-9810736D01*
X6260674Y-2724074D02*
X6285674Y-2749074D01*
X6285674Y-2724074D02*
X6260674Y-2749074D01*
X6270550Y-11680948D02*
X6295550Y-11705948D01*
X6295550Y-11680948D02*
X6270550Y-11705948D01*
X6282631Y-1589664D02*
X6307631Y-1614664D01*
X6307631Y-1589664D02*
X6282631Y-1614664D01*
X6284444Y-9578928D02*
X6309444Y-9603928D01*
X6309444Y-9578928D02*
X6284444Y-9603928D01*
X6291674Y-6395074D02*
X6316674Y-6420074D01*
X6316674Y-6395074D02*
X6291674Y-6420074D01*
X6342674Y-10027074D02*
X6367674Y-10052074D01*
X6367674Y-10027074D02*
X6342674Y-10052074D01*
X6373258Y-1519663D02*
X6398258Y-1544663D01*
X6398258Y-1519663D02*
X6373258Y-1544663D01*
X6382796Y-9675574D02*
X6407796Y-9700574D01*
X6407796Y-9675574D02*
X6382796Y-9700574D01*
X6443224Y-9588074D02*
X6468224Y-9613074D01*
X6468224Y-9588074D02*
X6443224Y-9613074D01*
X6444674Y-8078074D02*
X6469674Y-8103074D01*
X6469674Y-8078074D02*
X6444674Y-8103074D01*
X6454746Y-9970148D02*
X6479746Y-9995148D01*
X6479746Y-9970148D02*
X6454746Y-9995148D01*
X6458343Y-5293812D02*
X6483343Y-5318812D01*
X6483343Y-5293812D02*
X6458343Y-5318812D01*
X6466674Y-9418074D02*
X6491674Y-9443074D01*
X6491674Y-9418074D02*
X6466674Y-9443074D01*
X6473424Y-2047074D02*
X6498424Y-2072074D01*
X6498424Y-2047074D02*
X6473424Y-2072074D01*
X6487674Y-12173074D02*
X6512674Y-12198074D01*
X6512674Y-12173074D02*
X6487674Y-12198074D01*
X6510674Y-9534683D02*
X6535674Y-9559683D01*
X6535674Y-9534683D02*
X6510674Y-9559683D01*
X6510674Y-9695124D02*
X6535674Y-9720124D01*
X6535674Y-9695124D02*
X6510674Y-9720124D01*
X6532631Y-1589664D02*
X6557631Y-1614664D01*
X6557631Y-1589664D02*
X6532631Y-1614664D01*
X6573424Y-2142074D02*
X6598424Y-2167074D01*
X6598424Y-2142074D02*
X6573424Y-2167074D01*
X6581023Y-9490233D02*
X6606023Y-9515233D01*
X6606023Y-9490233D02*
X6581023Y-9515233D01*
X6607674Y-1833074D02*
X6632674Y-1858074D01*
X6632674Y-1833074D02*
X6607674Y-1858074D01*
X6610674Y-10041074D02*
X6635674Y-10066074D01*
X6635674Y-10041074D02*
X6610674Y-10066074D01*
X6611674Y-1971074D02*
X6636674Y-1996074D01*
X6636674Y-1971074D02*
X6611674Y-1996074D01*
X6623258Y-1519663D02*
X6648258Y-1544663D01*
X6648258Y-1519663D02*
X6623258Y-1544663D01*
X6679594Y-10210574D02*
X6704594Y-10235574D01*
X6704594Y-10210574D02*
X6679594Y-10235574D01*
X6679594Y-10340574D02*
X6704594Y-10365574D01*
X6704594Y-10340574D02*
X6679594Y-10365574D01*
X6687392Y-10009642D02*
X6712392Y-10034642D01*
X6712392Y-10009642D02*
X6687392Y-10034642D01*
X6713606Y-9610292D02*
X6738606Y-9635292D01*
X6738606Y-9610292D02*
X6713606Y-9635292D01*
X6720418Y-2403483D02*
X6745418Y-2428483D01*
X6745418Y-2403483D02*
X6720418Y-2428483D01*
X6737674Y-12173074D02*
X6762674Y-12198074D01*
X6762674Y-12173074D02*
X6737674Y-12198074D01*
X6755674Y-10453074D02*
X6780674Y-10478074D01*
X6780674Y-10453074D02*
X6755674Y-10478074D01*
X6755798Y-5112903D02*
X6780798Y-5137903D01*
X6780798Y-5112903D02*
X6755798Y-5137903D01*
X6769980Y-4793953D02*
X6794980Y-4818953D01*
X6794980Y-4793953D02*
X6769980Y-4818953D01*
X6777674Y-1833074D02*
X6802674Y-1858074D01*
X6802674Y-1833074D02*
X6777674Y-1858074D01*
X6782631Y-1589664D02*
X6807631Y-1614664D01*
X6807631Y-1589664D02*
X6782631Y-1614664D01*
X6783674Y-9087074D02*
X6808674Y-9112074D01*
X6808674Y-9087074D02*
X6783674Y-9112074D01*
X6791743Y-9675856D02*
X6816743Y-9700856D01*
X6816743Y-9675856D02*
X6791743Y-9700856D01*
X6809674Y-10038074D02*
X6834674Y-10063074D01*
X6834674Y-10038074D02*
X6809674Y-10063074D01*
X6822112Y-9801212D02*
X6847112Y-9826212D01*
X6847112Y-9801212D02*
X6822112Y-9826212D01*
X6840674Y-9135074D02*
X6865674Y-9160074D01*
X6865674Y-9135074D02*
X6840674Y-9160074D01*
X6848674Y-9056074D02*
X6873674Y-9081074D01*
X6873674Y-9056074D02*
X6848674Y-9081074D01*
X6873258Y-1519663D02*
X6898258Y-1544663D01*
X6898258Y-1519663D02*
X6873258Y-1544663D01*
X6887674Y-9723074D02*
X6912674Y-9748074D01*
X6912674Y-9723074D02*
X6887674Y-9748074D01*
X6891674Y-6664074D02*
X6916674Y-6689074D01*
X6916674Y-6664074D02*
X6891674Y-6689074D01*
X6932005Y-8311353D02*
X6957005Y-8336353D01*
X6957005Y-8311353D02*
X6932005Y-8336353D01*
X6936674Y-2729074D02*
X6961674Y-2754074D01*
X6961674Y-2729074D02*
X6936674Y-2754074D01*
X6941674Y-10172074D02*
X6966674Y-10197074D01*
X6966674Y-10172074D02*
X6941674Y-10197074D01*
X6941724Y-10069224D02*
X6966724Y-10094224D01*
X6966724Y-10069224D02*
X6941724Y-10094224D01*
X6943624Y-10352384D02*
X6968624Y-10377384D01*
X6968624Y-10352384D02*
X6943624Y-10377384D01*
X6947674Y-9933074D02*
X6972674Y-9958074D01*
X6972674Y-9933074D02*
X6947674Y-9958074D01*
X6959651Y-9048258D02*
X6984651Y-9073258D01*
X6984651Y-9048258D02*
X6959651Y-9073258D01*
X6962930Y-9786680D02*
X6987930Y-9811680D01*
X6987930Y-9786680D02*
X6962930Y-9811680D01*
X6987674Y-12173074D02*
X7012674Y-12198074D01*
X7012674Y-12173074D02*
X6987674Y-12198074D01*
X7001820Y-9289844D02*
X7026820Y-9314844D01*
X7026820Y-9289844D02*
X7001820Y-9314844D01*
X7009674Y-10095074D02*
X7034674Y-10120074D01*
X7034674Y-10095074D02*
X7009674Y-10120074D01*
X7013674Y-9846074D02*
X7038674Y-9871074D01*
X7038674Y-9846074D02*
X7013674Y-9871074D01*
X7017039Y-10194070D02*
X7042039Y-10219070D01*
X7042039Y-10194070D02*
X7017039Y-10219070D01*
X7027231Y-3926998D02*
X7052231Y-3951998D01*
X7052231Y-3926998D02*
X7027231Y-3951998D01*
X7032631Y-1589664D02*
X7057631Y-1614664D01*
X7057631Y-1589664D02*
X7032631Y-1614664D01*
X7037674Y-6823074D02*
X7062674Y-6848074D01*
X7062674Y-6823074D02*
X7037674Y-6848074D01*
X7045674Y-10473074D02*
X7070674Y-10498074D01*
X7070674Y-10473074D02*
X7045674Y-10498074D01*
X7060650Y-10150071D02*
X7085650Y-10175071D01*
X7085650Y-10150071D02*
X7060650Y-10175071D01*
X7063528Y-9216304D02*
X7088528Y-9241304D01*
X7088528Y-9216304D02*
X7063528Y-9241304D01*
X7072674Y-9470074D02*
X7097674Y-9495074D01*
X7097674Y-9470074D02*
X7072674Y-9495074D01*
X7076300Y-10029963D02*
X7101300Y-10054963D01*
X7101300Y-10029963D02*
X7076300Y-10054963D01*
X7089774Y-9331448D02*
X7114774Y-9356448D01*
X7114774Y-9331448D02*
X7089774Y-9356448D01*
X7096674Y-10270075D02*
X7121674Y-10295075D01*
X7121674Y-10270075D02*
X7096674Y-10295075D01*
X7112674Y-10115074D02*
X7137674Y-10140074D01*
X7137674Y-10115074D02*
X7112674Y-10140074D01*
X7123258Y-1519663D02*
X7148258Y-1544663D01*
X7148258Y-1519663D02*
X7123258Y-1544663D01*
X7134212Y-9951918D02*
X7159212Y-9976918D01*
X7159212Y-9951918D02*
X7134212Y-9976918D01*
X7153674Y-3674074D02*
X7178674Y-3699074D01*
X7178674Y-3674074D02*
X7153674Y-3699074D01*
X7155724Y-10863074D02*
X7180724Y-10888074D01*
X7180724Y-10863074D02*
X7155724Y-10888074D01*
X7157274Y-9256448D02*
X7182274Y-9281448D01*
X7182274Y-9256448D02*
X7157274Y-9281448D01*
X7165575Y-9399699D02*
X7190575Y-9424699D01*
X7190575Y-9399699D02*
X7165575Y-9424699D01*
X7171102Y-9011760D02*
X7196102Y-9036760D01*
X7196102Y-9011760D02*
X7171102Y-9036760D01*
X7174674Y-8280875D02*
X7199674Y-8305875D01*
X7199674Y-8280875D02*
X7174674Y-8305875D01*
X7178726Y-10452671D02*
X7203726Y-10477671D01*
X7203726Y-10452671D02*
X7178726Y-10477671D01*
X7194387Y-10911478D02*
X7219387Y-10936478D01*
X7219387Y-10911478D02*
X7194387Y-10936478D01*
X7221674Y-9584074D02*
X7246674Y-9609074D01*
X7246674Y-9584074D02*
X7221674Y-9609074D01*
X7223674Y-8222538D02*
X7248674Y-8247538D01*
X7248674Y-8222538D02*
X7223674Y-8247538D01*
X7227181Y-10246662D02*
X7252181Y-10271662D01*
X7252181Y-10246662D02*
X7227181Y-10271662D01*
X7233075Y-9324699D02*
X7258075Y-9349699D01*
X7258075Y-9324699D02*
X7233075Y-9349699D01*
X7237674Y-12173074D02*
X7262674Y-12198074D01*
X7262674Y-12173074D02*
X7237674Y-12198074D01*
X7280724Y-9857074D02*
X7305724Y-9882074D01*
X7305724Y-9857074D02*
X7280724Y-9882074D01*
X7280724Y-9921767D02*
X7305724Y-9946767D01*
X7305724Y-9921767D02*
X7280724Y-9946767D01*
X7280724Y-9983718D02*
X7305724Y-10008718D01*
X7305724Y-9983718D02*
X7280724Y-10008718D01*
X7280724Y-10045668D02*
X7305724Y-10070668D01*
X7305724Y-10045668D02*
X7280724Y-10070668D01*
X7280724Y-10107618D02*
X7305724Y-10132618D01*
X7305724Y-10107618D02*
X7280724Y-10132618D01*
X7280724Y-10169568D02*
X7305724Y-10194568D01*
X7305724Y-10169568D02*
X7280724Y-10194568D01*
X7282631Y-1589664D02*
X7307631Y-1614664D01*
X7307631Y-1589664D02*
X7282631Y-1614664D01*
X7288078Y-8027181D02*
X7313078Y-8052181D01*
X7313078Y-8027181D02*
X7288078Y-8052181D01*
X7294578Y-10523074D02*
X7319578Y-10548074D01*
X7319578Y-10523074D02*
X7294578Y-10548074D01*
X7307674Y-10923074D02*
X7332674Y-10948074D01*
X7332674Y-10923074D02*
X7307674Y-10948074D01*
X7312674Y-9585024D02*
X7337674Y-9610024D01*
X7337674Y-9585024D02*
X7312674Y-9610024D01*
X7323674Y-6337074D02*
X7348674Y-6362074D01*
X7348674Y-6337074D02*
X7323674Y-6362074D01*
X7326201Y-10365783D02*
X7351201Y-10390783D01*
X7351201Y-10365783D02*
X7326201Y-10390783D01*
X7334885Y-8125111D02*
X7359885Y-8150111D01*
X7359885Y-8125111D02*
X7334885Y-8150111D01*
X7336674Y-9775074D02*
X7361674Y-9800074D01*
X7361674Y-9775074D02*
X7336674Y-9800074D01*
X7373258Y-1519663D02*
X7398258Y-1544663D01*
X7398258Y-1519663D02*
X7373258Y-1544663D01*
X7379398Y-9559912D02*
X7404398Y-9584912D01*
X7404398Y-9559912D02*
X7379398Y-9584912D01*
X7394066Y-8003774D02*
X7419066Y-8028774D01*
X7419066Y-8003774D02*
X7394066Y-8028774D01*
X7433674Y-9772074D02*
X7458674Y-9797074D01*
X7458674Y-9772074D02*
X7433674Y-9797074D01*
X7441257Y-9563268D02*
X7466257Y-9588268D01*
X7466257Y-9563268D02*
X7441257Y-9588268D01*
X7457076Y-10209024D02*
X7482076Y-10234024D01*
X7482076Y-10209024D02*
X7457076Y-10234024D01*
X7469674Y-10487074D02*
X7494674Y-10512074D01*
X7494674Y-10487074D02*
X7469674Y-10512074D01*
X7470463Y-8041036D02*
X7495463Y-8066036D01*
X7495463Y-8041036D02*
X7470463Y-8066036D01*
X7476649Y-7931402D02*
X7501649Y-7956402D01*
X7501649Y-7931402D02*
X7476649Y-7956402D01*
X7477674Y-10923074D02*
X7502674Y-10948074D01*
X7502674Y-10923074D02*
X7477674Y-10948074D01*
X7480449Y-9611246D02*
X7505449Y-9636246D01*
X7505449Y-9611246D02*
X7480449Y-9636246D01*
X7487674Y-12173074D02*
X7512674Y-12198074D01*
X7512674Y-12173074D02*
X7487674Y-12198074D01*
X7489674Y-3205074D02*
X7514674Y-3230074D01*
X7514674Y-3205074D02*
X7489674Y-3230074D01*
X7524674Y-10256074D02*
X7549674Y-10281074D01*
X7549674Y-10256074D02*
X7524674Y-10281074D01*
X7532631Y-1589664D02*
X7557631Y-1614664D01*
X7557631Y-1589664D02*
X7532631Y-1614664D01*
X7536624Y-10389074D02*
X7561624Y-10414074D01*
X7561624Y-10389074D02*
X7536624Y-10414074D01*
X7545674Y-9613074D02*
X7570674Y-9638074D01*
X7570674Y-9613074D02*
X7545674Y-9638074D01*
X7550178Y-4106172D02*
X7575178Y-4131172D01*
X7575178Y-4106172D02*
X7550178Y-4131172D01*
X7553424Y-9230074D02*
X7578424Y-9255074D01*
X7578424Y-9230074D02*
X7553424Y-9255074D01*
X7558674Y-9775074D02*
X7583674Y-9800074D01*
X7583674Y-9775074D02*
X7558674Y-9800074D01*
X7588674Y-9383074D02*
X7613674Y-9408074D01*
X7613674Y-9383074D02*
X7588674Y-9408074D01*
X7607625Y-9613074D02*
X7632625Y-9638074D01*
X7632625Y-9613074D02*
X7607625Y-9638074D01*
X7623258Y-1519663D02*
X7648258Y-1544663D01*
X7648258Y-1519663D02*
X7623258Y-1544663D01*
X7627674Y-9892024D02*
X7652674Y-9917024D01*
X7652674Y-9892024D02*
X7627674Y-9917024D01*
X7627674Y-9992024D02*
X7652674Y-10017024D01*
X7652674Y-9992024D02*
X7627674Y-10017024D01*
X7627674Y-10092024D02*
X7652674Y-10117024D01*
X7652674Y-10092024D02*
X7627674Y-10117024D01*
X7643674Y-10488074D02*
X7668674Y-10513074D01*
X7668674Y-10488074D02*
X7643674Y-10513074D01*
X7653674Y-9775074D02*
X7678674Y-9800074D01*
X7678674Y-9775074D02*
X7653674Y-9800074D01*
X7663658Y-10420255D02*
X7688658Y-10445255D01*
X7688658Y-10420255D02*
X7663658Y-10445255D01*
X7688674Y-7582074D02*
X7713674Y-7607074D01*
X7713674Y-7582074D02*
X7688674Y-7607074D01*
X7714624Y-9886474D02*
X7739624Y-9911474D01*
X7739624Y-9886474D02*
X7714624Y-9911474D01*
X7714624Y-9948424D02*
X7739624Y-9973424D01*
X7739624Y-9948424D02*
X7714624Y-9973424D01*
X7714624Y-10010374D02*
X7739624Y-10035374D01*
X7739624Y-10010374D02*
X7714624Y-10035374D01*
X7714624Y-10072325D02*
X7739624Y-10097325D01*
X7739624Y-10072325D02*
X7714624Y-10097325D01*
X7714624Y-10142074D02*
X7739624Y-10167074D01*
X7739624Y-10142074D02*
X7714624Y-10167074D01*
X7714674Y-7884074D02*
X7739674Y-7909074D01*
X7739674Y-7884074D02*
X7714674Y-7909074D01*
X7718069Y-7743468D02*
X7743069Y-7768468D01*
X7743069Y-7743468D02*
X7718069Y-7768468D01*
X7732674Y-10489074D02*
X7757674Y-10514074D01*
X7757674Y-10489074D02*
X7732674Y-10514074D01*
X7758674Y-8929074D02*
X7783674Y-8954074D01*
X7783674Y-8929074D02*
X7758674Y-8954074D01*
X7769674Y-10263074D02*
X7794674Y-10288074D01*
X7794674Y-10263074D02*
X7769674Y-10288074D01*
X7782631Y-1589664D02*
X7807631Y-1614664D01*
X7807631Y-1589664D02*
X7782631Y-1614664D01*
X7803993Y-7886893D02*
X7828993Y-7911893D01*
X7828993Y-7886893D02*
X7803993Y-7911893D01*
X7811674Y-10491074D02*
X7836674Y-10516074D01*
X7836674Y-10491074D02*
X7811674Y-10516074D01*
X7873258Y-1519663D02*
X7898258Y-1544663D01*
X7898258Y-1519663D02*
X7873258Y-1544663D01*
X7904174Y-9843074D02*
X7929174Y-9868074D01*
X7929174Y-9843074D02*
X7904174Y-9868074D01*
X7904674Y-9673074D02*
X7929674Y-9698074D01*
X7929674Y-9673074D02*
X7904674Y-9698074D01*
X7909674Y-10123074D02*
X7934674Y-10148074D01*
X7934674Y-10123074D02*
X7909674Y-10148074D01*
X7909674Y-10208074D02*
X7934674Y-10233074D01*
X7934674Y-10208074D02*
X7909674Y-10233074D01*
X7912674Y-12173074D02*
X7937674Y-12198074D01*
X7937674Y-12173074D02*
X7912674Y-12198074D01*
X7920674Y-10307524D02*
X7945674Y-10332524D01*
X7945674Y-10307524D02*
X7920674Y-10332524D01*
X7956524Y-6181770D02*
X7981524Y-6206770D01*
X7981524Y-6181770D02*
X7956524Y-6206770D01*
X7956524Y-8086770D02*
X7981524Y-8111770D01*
X7981524Y-8086770D02*
X7956524Y-8111770D01*
X8000674Y-9673074D02*
X8025674Y-9698074D01*
X8025674Y-9673074D02*
X8000674Y-9698074D01*
X8017674Y-9490074D02*
X8042674Y-9515074D01*
X8042674Y-9490074D02*
X8017674Y-9515074D01*
X8017674Y-9586074D02*
X8042674Y-9611074D01*
X8042674Y-9586074D02*
X8017674Y-9611074D01*
X8032631Y-1589664D02*
X8057631Y-1614664D01*
X8057631Y-1589664D02*
X8032631Y-1614664D01*
X8123258Y-1519663D02*
X8148258Y-1544663D01*
X8148258Y-1519663D02*
X8123258Y-1544663D01*
X8140174Y-12174074D02*
X8165174Y-12199074D01*
X8165174Y-12174074D02*
X8140174Y-12199074D01*
X8141674Y-10467074D02*
X8166674Y-10492074D01*
X8166674Y-10467074D02*
X8141674Y-10492074D01*
X8161578Y-4386824D02*
X8186578Y-4411824D01*
X8186578Y-4386824D02*
X8161578Y-4411824D01*
X8165674Y-2241074D02*
X8190674Y-2266074D01*
X8190674Y-2241074D02*
X8165674Y-2266074D01*
X8179471Y-1723288D02*
X8204471Y-1748288D01*
X8204471Y-1723288D02*
X8179471Y-1748288D01*
X8269674Y-6389074D02*
X8294674Y-6414074D01*
X8294674Y-6389074D02*
X8269674Y-6414074D01*
X8282631Y-1589664D02*
X8307631Y-1614664D01*
X8307631Y-1589664D02*
X8282631Y-1614664D01*
X8332674Y-7318074D02*
X8357674Y-7343074D01*
X8357674Y-7318074D02*
X8332674Y-7343074D01*
X8332674Y-7568074D02*
X8357674Y-7593074D01*
X8357674Y-7568074D02*
X8332674Y-7593074D01*
X8332674Y-8993074D02*
X8357674Y-9018074D01*
X8357674Y-8993074D02*
X8332674Y-9018074D01*
X8332674Y-9243074D02*
X8357674Y-9268074D01*
X8357674Y-9243074D02*
X8332674Y-9268074D01*
X8332674Y-10708074D02*
X8357674Y-10733074D01*
X8357674Y-10708074D02*
X8332674Y-10733074D01*
X8332674Y-10958074D02*
X8357674Y-10983074D01*
X8357674Y-10958074D02*
X8332674Y-10983074D01*
X8357674Y-7068074D02*
X8382674Y-7093074D01*
X8382674Y-7068074D02*
X8357674Y-7093074D01*
X8373258Y-1519663D02*
X8398258Y-1544663D01*
X8398258Y-1519663D02*
X8373258Y-1544663D01*
X8470551Y-2212231D02*
X8495551Y-2237231D01*
X8495551Y-2212231D02*
X8470551Y-2237231D01*
X8497674Y-6858074D02*
X8522674Y-6883074D01*
X8522674Y-6858074D02*
X8497674Y-6883074D01*
X8532631Y-1589664D02*
X8557631Y-1614664D01*
X8557631Y-1589664D02*
X8532631Y-1614664D01*
X8532674Y-6065074D02*
X8557674Y-6090074D01*
X8557674Y-6065074D02*
X8532674Y-6090074D01*
X8623258Y-1519663D02*
X8648258Y-1544663D01*
X8648258Y-1519663D02*
X8623258Y-1544663D01*
X8732674Y-6768074D02*
X8757674Y-6793074D01*
X8757674Y-6768074D02*
X8732674Y-6793074D01*
X8759193Y-2434793D02*
X8784193Y-2459793D01*
X8784193Y-2434793D02*
X8759193Y-2459793D01*
X8782631Y-1589664D02*
X8807631Y-1614664D01*
X8807631Y-1589664D02*
X8782631Y-1614664D01*
X8873258Y-1519663D02*
X8898258Y-1544663D01*
X8898258Y-1519663D02*
X8873258Y-1544663D01*
X8884674Y-6428074D02*
X8909674Y-6453074D01*
X8909674Y-6428074D02*
X8884674Y-6453074D01*
X8982548Y-6761228D02*
X9007548Y-6786228D01*
X9007548Y-6761228D02*
X8982548Y-6786228D01*
X9032631Y-1589664D02*
X9057631Y-1614664D01*
X9057631Y-1589664D02*
X9032631Y-1614664D01*
X9078674Y-6762074D02*
X9103674Y-6787074D01*
X9103674Y-6762074D02*
X9078674Y-6787074D01*
X9123258Y-1519663D02*
X9148258Y-1544663D01*
X9148258Y-1519663D02*
X9123258Y-1544663D01*
X9230201Y-6609384D02*
X9255201Y-6634384D01*
X9255201Y-6609384D02*
X9230201Y-6634384D01*
X9232548Y-6761228D02*
X9257548Y-6786228D01*
X9257548Y-6761228D02*
X9232548Y-6786228D01*
X9282631Y-1589664D02*
X9307631Y-1614664D01*
X9307631Y-1589664D02*
X9282631Y-1614664D01*
X9304674Y-2636074D02*
X9329674Y-2661074D01*
X9329674Y-2636074D02*
X9304674Y-2661074D01*
X9373258Y-1519663D02*
X9398258Y-1544663D01*
X9398258Y-1519663D02*
X9373258Y-1544663D01*
X9482548Y-6761228D02*
X9507548Y-6786228D01*
X9507548Y-6761228D02*
X9482548Y-6786228D01*
X9532631Y-1589664D02*
X9557631Y-1614664D01*
X9557631Y-1589664D02*
X9532631Y-1614664D01*
X9623258Y-1519663D02*
X9648258Y-1544663D01*
X9648258Y-1519663D02*
X9623258Y-1544663D01*
X9732548Y-6761228D02*
X9757548Y-6786228D01*
X9757548Y-6761228D02*
X9732548Y-6786228D01*
X9777674Y-3728074D02*
X9802674Y-3753074D01*
X9802674Y-3728074D02*
X9777674Y-3753074D01*
X9782674Y-1616074D02*
X9807674Y-1641074D01*
X9807674Y-1616074D02*
X9782674Y-1641074D01*
X9839789Y-5281485D02*
X9864789Y-5306485D01*
X9864789Y-5281485D02*
X9839789Y-5306485D01*
X9861674Y-1532074D02*
X9886674Y-1557074D01*
X9886674Y-1532074D02*
X9861674Y-1557074D01*
X9972674Y-5822089D02*
X9997674Y-5847089D01*
X9997674Y-5822089D02*
X9972674Y-5847089D01*
X9978868Y-6718881D02*
X10003868Y-6743881D01*
X10003868Y-6718881D02*
X9978868Y-6743881D01*
X9984674Y-4915339D02*
X10009674Y-4940339D01*
X10009674Y-4915339D02*
X9984674Y-4940339D01*
X10001674Y-1658074D02*
X10026674Y-1683074D01*
X10026674Y-1658074D02*
X10001674Y-1683074D01*
X10017674Y-2133074D02*
X10042674Y-2158074D01*
X10042674Y-2133074D02*
X10017674Y-2158074D01*
X10169647Y-6557048D02*
X10194647Y-6582048D01*
X10194647Y-6557048D02*
X10169647Y-6582048D01*
X10178674Y-1841074D02*
X10203674Y-1866074D01*
X10203674Y-1841074D02*
X10178674Y-1866074D01*
X10234739Y-6315883D02*
X10259739Y-6340883D01*
X10259739Y-6315883D02*
X10234739Y-6340883D01*
X10238659Y-6065883D02*
X10263659Y-6090883D01*
X10263659Y-6065883D02*
X10238659Y-6090883D01*
X10239061Y-5849034D02*
X10264061Y-5874034D01*
X10264061Y-5849034D02*
X10239061Y-5874034D01*
X10454456Y-2210758D02*
X10479456Y-2235758D01*
X10479456Y-2210758D02*
X10454456Y-2235758D01*
X10454456Y-2460758D02*
X10479456Y-2485758D01*
X10479456Y-2460758D02*
X10454456Y-2485758D01*
X10454456Y-5840758D02*
X10479456Y-5865758D01*
X10479456Y-5840758D02*
X10454456Y-5865758D01*
X10454456Y-6090758D02*
X10479456Y-6115758D01*
X10479456Y-6090758D02*
X10454456Y-6115758D01*
X10460450Y-6340346D02*
X10485450Y-6365346D01*
X10485450Y-6340346D02*
X10460450Y-6365346D01*
X10461456Y-1960758D02*
X10486456Y-1985758D01*
X10486456Y-1960758D02*
X10461456Y-1985758D01*
X10534593Y-6578359D02*
X10559593Y-6603359D01*
X10559593Y-6578359D02*
X10534593Y-6603359D01*
X10536456Y-1722758D02*
X10561456Y-1747758D01*
X10561456Y-1722758D02*
X10536456Y-1747758D01*
X10667370Y-1585292D02*
X10692370Y-1610292D01*
X10692370Y-1585292D02*
X10667370Y-1610292D01*
X10686456Y-2143758D02*
X10711456Y-2168758D01*
X10711456Y-2143758D02*
X10686456Y-2168758D01*
X10733585Y-6729443D02*
X10758585Y-6754443D01*
X10758585Y-6729443D02*
X10733585Y-6754443D01*
X10836874Y-1607358D02*
X10861874Y-1632358D01*
X10861874Y-1607358D02*
X10836874Y-1632358D01*
X10837456Y-3554758D02*
X10862456Y-3579758D01*
X10862456Y-3554758D02*
X10837456Y-3579758D01*
X10916243Y-1519536D02*
X10941243Y-1544536D01*
X10941243Y-1519536D02*
X10916243Y-1544536D01*
X10922456Y-4809758D02*
X10947456Y-4834758D01*
X10947456Y-4809758D02*
X10922456Y-4834758D01*
X10980834Y-6765865D02*
X11005834Y-6790865D01*
X11005834Y-6765865D02*
X10980834Y-6790865D01*
X11033456Y-5983758D02*
X11058456Y-6008758D01*
X11058456Y-5983758D02*
X11033456Y-6008758D01*
X11074102Y-1589537D02*
X11099102Y-1614537D01*
X11099102Y-1589537D02*
X11074102Y-1614537D01*
X11147456Y-5934758D02*
X11172456Y-5959758D01*
X11172456Y-5934758D02*
X11147456Y-5959758D01*
X11164728Y-1519536D02*
X11189728Y-1544536D01*
X11189728Y-1519536D02*
X11164728Y-1544536D01*
X11177900Y-2097237D02*
X11202900Y-2122237D01*
X11202900Y-2097237D02*
X11177900Y-2122237D01*
X11230833Y-6765865D02*
X11255833Y-6790865D01*
X11255833Y-6765865D02*
X11230833Y-6790865D01*
X11324101Y-1589537D02*
X11349101Y-1614537D01*
X11349101Y-1589537D02*
X11324101Y-1614537D01*
X11405455Y-6584758D02*
X11430455Y-6609758D01*
X11430455Y-6584758D02*
X11405455Y-6609758D01*
X11414728Y-1519536D02*
X11439728Y-1544536D01*
X11439728Y-1519536D02*
X11414728Y-1544536D01*
X11480833Y-6765865D02*
X11505833Y-6790865D01*
X11505833Y-6765865D02*
X11480833Y-6790865D01*
X11511696Y-1980254D02*
X11536696Y-2005254D01*
X11536696Y-1980254D02*
X11511696Y-2005254D01*
X11574101Y-1589537D02*
X11599101Y-1614537D01*
X11599101Y-1589537D02*
X11574101Y-1614537D01*
X11664728Y-1519536D02*
X11689728Y-1544536D01*
X11689728Y-1519536D02*
X11664728Y-1544536D01*
X11730833Y-6765865D02*
X11755833Y-6790865D01*
X11755833Y-6765865D02*
X11730833Y-6790865D01*
X11754206Y-6673758D02*
X11779206Y-6698758D01*
X11779206Y-6673758D02*
X11754206Y-6698758D01*
X11772456Y-5618758D02*
X11797456Y-5643758D01*
X11797456Y-5618758D02*
X11772456Y-5643758D01*
X11824101Y-1589537D02*
X11849101Y-1614537D01*
X11849101Y-1589537D02*
X11824101Y-1614537D01*
X11914728Y-1519536D02*
X11939728Y-1544536D01*
X11939728Y-1519536D02*
X11914728Y-1544536D01*
X11980776Y-6774139D02*
X12005776Y-6799139D01*
X12005776Y-6774139D02*
X11980776Y-6799139D01*
X12030447Y-5043559D02*
X12055447Y-5068559D01*
X12055447Y-5043559D02*
X12030447Y-5068559D01*
X12074101Y-1589537D02*
X12099101Y-1614537D01*
X12099101Y-1589537D02*
X12074101Y-1614537D01*
X12094456Y-1975758D02*
X12119456Y-2000758D01*
X12119456Y-1975758D02*
X12094456Y-2000758D01*
X12164728Y-1519536D02*
X12189728Y-1544536D01*
X12189728Y-1519536D02*
X12164728Y-1544536D01*
X12211228Y-6871681D02*
X12236228Y-6896681D01*
X12236228Y-6871681D02*
X12211228Y-6896681D01*
X12324101Y-1589537D02*
X12349101Y-1614537D01*
X12349101Y-1589537D02*
X12324101Y-1614537D01*
X12339505Y-7086044D02*
X12364505Y-7111044D01*
X12364505Y-7086044D02*
X12339505Y-7111044D01*
X12359450Y-7335218D02*
X12384450Y-7360218D01*
X12384450Y-7335218D02*
X12359450Y-7360218D01*
X12359450Y-7577348D02*
X12384450Y-7602348D01*
X12384450Y-7577348D02*
X12359450Y-7602348D01*
X12359456Y-8977758D02*
X12384456Y-9002758D01*
X12384456Y-8977758D02*
X12359456Y-9002758D01*
X12359456Y-9227758D02*
X12384456Y-9252758D01*
X12384456Y-9227758D02*
X12359456Y-9252758D01*
X12359456Y-10694683D02*
X12384456Y-10719683D01*
X12384456Y-10694683D02*
X12359456Y-10719683D01*
X12359456Y-10944683D02*
X12384456Y-10969683D01*
X12384456Y-10944683D02*
X12359456Y-10969683D01*
X12359456Y-12360758D02*
X12384456Y-12385758D01*
X12384456Y-12360758D02*
X12359456Y-12385758D01*
X12362239Y-4871612D02*
X12387239Y-4896612D01*
X12387239Y-4871612D02*
X12362239Y-4896612D01*
X12377998Y-12610063D02*
X12402998Y-12635063D01*
X12402998Y-12610063D02*
X12377998Y-12635063D01*
X12414728Y-1519536D02*
X12439728Y-1544536D01*
X12439728Y-1519536D02*
X12414728Y-1544536D01*
X12490650Y-12833231D02*
X12515650Y-12858231D01*
X12515650Y-12833231D02*
X12490650Y-12858231D01*
X12556268Y-5120359D02*
X12581268Y-5145359D01*
X12581268Y-5120359D02*
X12556268Y-5145359D01*
X12574101Y-1589537D02*
X12599101Y-1614537D01*
X12599101Y-1589537D02*
X12574101Y-1614537D01*
X12647456Y-8230758D02*
X12672456Y-8255758D01*
X12672456Y-8230758D02*
X12647456Y-8255758D01*
X12651456Y-11031758D02*
X12676456Y-11056758D01*
X12676456Y-11031758D02*
X12651456Y-11056758D01*
X12664728Y-1519536D02*
X12689728Y-1544536D01*
X12689728Y-1519536D02*
X12664728Y-1544536D01*
X12676455Y-1733758D02*
X12701455Y-1758758D01*
X12701455Y-1733758D02*
X12676455Y-1758758D01*
X12716224Y-12940639D02*
X12741224Y-12965639D01*
X12741224Y-12940639D02*
X12716224Y-12965639D01*
X12720456Y-12123758D02*
X12745456Y-12148758D01*
X12745456Y-12123758D02*
X12720456Y-12148758D01*
X12722456Y-11862758D02*
X12747456Y-11887758D01*
X12747456Y-11862758D02*
X12722456Y-11887758D01*
X12735456Y-8795758D02*
X12760456Y-8820758D01*
X12760456Y-8795758D02*
X12735456Y-8820758D01*
X12743456Y-10697758D02*
X12768456Y-10722758D01*
X12768456Y-10697758D02*
X12743456Y-10722758D01*
X12824101Y-1589537D02*
X12849101Y-1614537D01*
X12849101Y-1589537D02*
X12824101Y-1614537D01*
X12845456Y-4440758D02*
X12870456Y-4465758D01*
X12870456Y-4440758D02*
X12845456Y-4465758D01*
X12888676Y-10784727D02*
X12913676Y-10809727D01*
X12913676Y-10784727D02*
X12888676Y-10809727D01*
X12914728Y-1519536D02*
X12939728Y-1544536D01*
X12939728Y-1519536D02*
X12914728Y-1544536D01*
X12936741Y-1950191D02*
X12961741Y-1975191D01*
X12961741Y-1950191D02*
X12936741Y-1975191D01*
X12965686Y-12957534D02*
X12990686Y-12982534D01*
X12990686Y-12957534D02*
X12965686Y-12982534D01*
X12971456Y-11139508D02*
X12996456Y-11164508D01*
X12996456Y-11139508D02*
X12971456Y-11164508D01*
X13016571Y-10786154D02*
X13041571Y-10811154D01*
X13041571Y-10786154D02*
X13016571Y-10811154D01*
X13074101Y-1589537D02*
X13099101Y-1614537D01*
X13099101Y-1589537D02*
X13074101Y-1614537D01*
X13127456Y-12658758D02*
X13152456Y-12683758D01*
X13152456Y-12658758D02*
X13127456Y-12683758D01*
X13132456Y-8518758D02*
X13157456Y-8543758D01*
X13157456Y-8518758D02*
X13132456Y-8543758D01*
X13140456Y-5511758D02*
X13165456Y-5536758D01*
X13165456Y-5511758D02*
X13140456Y-5536758D01*
X13164728Y-1519536D02*
X13189728Y-1544536D01*
X13189728Y-1519536D02*
X13164728Y-1544536D01*
X13177960Y-7470518D02*
X13202960Y-7495518D01*
X13202960Y-7470518D02*
X13177960Y-7495518D01*
X13215686Y-12957534D02*
X13240686Y-12982534D01*
X13240686Y-12957534D02*
X13215686Y-12982534D01*
X13220456Y-6862758D02*
X13245456Y-6887758D01*
X13245456Y-6862758D02*
X13220456Y-6887758D01*
X13235456Y-4956758D02*
X13260456Y-4981758D01*
X13260456Y-4956758D02*
X13235456Y-4981758D01*
X13258978Y-7828793D02*
X13283978Y-7853793D01*
X13283978Y-7828793D02*
X13258978Y-7853793D01*
X13284456Y-7345758D02*
X13309456Y-7370758D01*
X13309456Y-7345758D02*
X13284456Y-7370758D01*
X13324101Y-1589537D02*
X13349101Y-1614537D01*
X13349101Y-1589537D02*
X13324101Y-1614537D01*
X13351330Y-2051321D02*
X13376330Y-2076321D01*
X13376330Y-2051321D02*
X13351330Y-2076321D01*
X13414728Y-1519536D02*
X13439728Y-1544536D01*
X13439728Y-1519536D02*
X13414728Y-1544536D01*
X13465686Y-12957534D02*
X13490686Y-12982534D01*
X13490686Y-12957534D02*
X13465686Y-12982534D01*
X13475206Y-5454758D02*
X13500206Y-5479758D01*
X13500206Y-5454758D02*
X13475206Y-5479758D01*
X13482456Y-3074758D02*
X13507456Y-3099758D01*
X13507456Y-3074758D02*
X13482456Y-3099758D01*
X13511456Y-12723758D02*
X13536456Y-12748758D01*
X13536456Y-12723758D02*
X13511456Y-12748758D01*
X13524456Y-1942758D02*
X13549456Y-1967758D01*
X13549456Y-1942758D02*
X13524456Y-1967758D01*
X13555712Y-4641349D02*
X13580712Y-4666349D01*
X13580712Y-4641349D02*
X13555712Y-4666349D01*
X13574101Y-1589537D02*
X13599101Y-1614537D01*
X13599101Y-1589537D02*
X13574101Y-1614537D01*
X13664728Y-1519536D02*
X13689728Y-1544536D01*
X13689728Y-1519536D02*
X13664728Y-1544536D01*
X13715686Y-12957534D02*
X13740686Y-12982534D01*
X13740686Y-12957534D02*
X13715686Y-12982534D01*
X13750456Y-3542758D02*
X13775456Y-3567758D01*
X13775456Y-3542758D02*
X13750456Y-3567758D01*
X13789456Y-3236758D02*
X13814456Y-3261758D01*
X13814456Y-3236758D02*
X13789456Y-3261758D01*
X13824101Y-1589537D02*
X13849101Y-1614537D01*
X13849101Y-1589537D02*
X13824101Y-1614537D01*
X13888456Y-4953758D02*
X13913456Y-4978758D01*
X13913456Y-4953758D02*
X13888456Y-4978758D01*
X13898456Y-6864758D02*
X13923456Y-6889758D01*
X13923456Y-6864758D02*
X13898456Y-6889758D01*
X13914728Y-1519536D02*
X13939728Y-1544536D01*
X13939728Y-1519536D02*
X13914728Y-1544536D01*
X13965686Y-12957534D02*
X13990686Y-12982534D01*
X13990686Y-12957534D02*
X13965686Y-12982534D01*
X14030512Y-4728788D02*
X14055512Y-4753788D01*
X14055512Y-4728788D02*
X14030512Y-4753788D01*
X14039456Y-11555758D02*
X14064456Y-11580758D01*
X14064456Y-11555758D02*
X14039456Y-11580758D01*
X14074101Y-1589537D02*
X14099101Y-1614537D01*
X14099101Y-1589537D02*
X14074101Y-1614537D01*
X14074456Y-2512758D02*
X14099456Y-2537758D01*
X14099456Y-2512758D02*
X14074456Y-2537758D01*
X14079456Y-8392758D02*
X14104456Y-8417758D01*
X14104456Y-8392758D02*
X14079456Y-8417758D01*
X14085565Y-2774831D02*
X14110565Y-2799830D01*
X14110565Y-2774831D02*
X14085565Y-2799830D01*
X14105456Y-2253758D02*
X14130456Y-2278758D01*
X14130456Y-2253758D02*
X14105456Y-2278758D01*
X14110456Y-2439758D02*
X14135456Y-2464758D01*
X14135456Y-2439758D02*
X14110456Y-2464758D01*
X14164728Y-1519536D02*
X14189728Y-1544536D01*
X14189728Y-1519536D02*
X14164728Y-1544536D01*
X14190706Y-2348758D02*
X14215706Y-2373758D01*
X14215706Y-2348758D02*
X14190706Y-2373758D01*
X14205456Y-1915758D02*
X14230456Y-1940758D01*
X14230456Y-1915758D02*
X14205456Y-1940758D01*
X14215686Y-12957534D02*
X14240686Y-12982534D01*
X14240686Y-12957534D02*
X14215686Y-12982534D01*
X14262006Y-8541758D02*
X14287006Y-8566758D01*
X14287006Y-8541758D02*
X14262006Y-8566758D01*
X14293604Y-4941650D02*
X14318604Y-4966650D01*
X14318604Y-4941650D02*
X14293604Y-4966650D01*
X14324101Y-1589537D02*
X14349101Y-1614537D01*
X14349101Y-1589537D02*
X14324101Y-1614537D01*
X14414728Y-1519536D02*
X14439728Y-1544536D01*
X14439728Y-1519536D02*
X14414728Y-1544536D01*
X14417648Y-5132472D02*
X14442648Y-5157472D01*
X14442648Y-5132472D02*
X14417648Y-5157472D01*
X14418206Y-2253758D02*
X14443206Y-2278758D01*
X14443206Y-2253758D02*
X14418206Y-2278758D01*
X14418206Y-2443758D02*
X14443206Y-2468758D01*
X14443206Y-2443758D02*
X14418206Y-2468758D01*
X14425456Y-1950758D02*
X14450456Y-1975758D01*
X14450456Y-1950758D02*
X14425456Y-1975758D01*
X14441456Y-8532758D02*
X14466456Y-8557758D01*
X14466456Y-8532758D02*
X14441456Y-8557758D01*
X14446710Y-8322394D02*
X14471710Y-8347394D01*
X14471710Y-8322394D02*
X14446710Y-8347394D01*
X14449456Y-3244758D02*
X14474456Y-3269758D01*
X14474456Y-3244758D02*
X14449456Y-3269758D01*
X14465686Y-12957534D02*
X14490686Y-12982534D01*
X14490686Y-12957534D02*
X14465686Y-12982534D01*
X14470099Y-2782596D02*
X14495099Y-2807596D01*
X14495099Y-2782596D02*
X14470099Y-2807596D01*
X14530456Y-1651758D02*
X14555456Y-1676758D01*
X14555456Y-1651758D02*
X14530456Y-1676758D01*
X14556456Y-8249758D02*
X14581456Y-8274758D01*
X14581456Y-8249758D02*
X14556456Y-8274758D01*
X14597998Y-8307447D02*
X14622998Y-8332447D01*
X14622998Y-8307447D02*
X14597998Y-8332447D01*
X14619456Y-6681758D02*
X14644456Y-6706758D01*
X14644456Y-6681758D02*
X14619456Y-6706758D01*
X14621456Y-2414758D02*
X14646456Y-2439758D01*
X14646456Y-2414758D02*
X14621456Y-2439758D01*
X14646456Y-11784758D02*
X14671456Y-11809758D01*
X14671456Y-11784758D02*
X14646456Y-11809758D01*
X14657956Y-5474591D02*
X14682956Y-5499591D01*
X14682956Y-5474591D02*
X14657956Y-5499591D01*
X14715686Y-12957534D02*
X14740686Y-12982534D01*
X14740686Y-12957534D02*
X14715686Y-12982534D01*
X14716231Y-11522902D02*
X14741231Y-11547902D01*
X14741231Y-11522902D02*
X14716231Y-11547902D01*
X14739456Y-2704758D02*
X14764456Y-2729758D01*
X14764456Y-2704758D02*
X14739456Y-2729758D01*
X14798456Y-9297758D02*
X14823456Y-9322758D01*
X14823456Y-9297758D02*
X14798456Y-9322758D01*
X14904030Y-8942245D02*
X14929030Y-8967245D01*
X14929030Y-8942245D02*
X14904030Y-8967245D01*
X14965686Y-12957534D02*
X14990686Y-12982534D01*
X14990686Y-12957534D02*
X14965686Y-12982534D01*
X14971335Y-2152676D02*
X14996335Y-2177676D01*
X14996335Y-2152676D02*
X14971335Y-2177676D01*
X15021456Y-4503758D02*
X15046456Y-4528758D01*
X15046456Y-4503758D02*
X15021456Y-4528758D01*
X15023456Y-9516758D02*
X15048456Y-9541758D01*
X15048456Y-9516758D02*
X15023456Y-9541758D01*
X15050456Y-4166758D02*
X15075456Y-4191758D01*
X15075456Y-4166758D02*
X15050456Y-4191758D01*
X15061456Y-5977758D02*
X15086456Y-6002758D01*
X15086456Y-5977758D02*
X15061456Y-6002758D01*
X15063456Y-6349508D02*
X15088456Y-6374508D01*
X15088456Y-6349508D02*
X15063456Y-6374508D01*
X15139456Y-2188758D02*
X15164456Y-2213758D01*
X15164456Y-2188758D02*
X15139456Y-2213758D01*
X15158793Y-11076243D02*
X15183793Y-11101243D01*
X15183793Y-11076243D02*
X15158793Y-11101243D01*
X15170706Y-7683258D02*
X15195706Y-7708258D01*
X15195706Y-7683258D02*
X15170706Y-7708258D01*
X15214456Y-7933258D02*
X15239456Y-7958258D01*
X15239456Y-7933258D02*
X15214456Y-7958258D01*
X15215686Y-12957534D02*
X15240686Y-12982534D01*
X15240686Y-12957534D02*
X15215686Y-12982534D01*
X15221456Y-4982758D02*
X15246456Y-5007758D01*
X15246456Y-4982758D02*
X15221456Y-5007758D01*
X15224456Y-8715758D02*
X15249456Y-8740758D01*
X15249456Y-8715758D02*
X15224456Y-8740758D01*
X15237456Y-2188758D02*
X15262456Y-2213758D01*
X15262456Y-2188758D02*
X15237456Y-2213758D01*
X15249456Y-8055758D02*
X15274456Y-8080758D01*
X15274456Y-8055758D02*
X15249456Y-8080758D01*
X15294456Y-8515758D02*
X15319456Y-8540758D01*
X15319456Y-8515758D02*
X15294456Y-8540758D01*
X15301956Y-8127758D02*
X15326956Y-8152758D01*
X15326956Y-8127758D02*
X15301956Y-8152758D01*
X15310906Y-6701419D02*
X15335906Y-6726419D01*
X15335906Y-6701419D02*
X15310906Y-6726419D01*
X15329456Y-2204758D02*
X15354456Y-2229758D01*
X15354456Y-2204758D02*
X15329456Y-2229758D01*
X15391956Y-7970758D02*
X15416956Y-7995758D01*
X15416956Y-7970758D02*
X15391956Y-7995758D01*
X15416456Y-4876758D02*
X15441456Y-4901758D01*
X15441456Y-4876758D02*
X15416456Y-4901758D01*
X15430318Y-12557772D02*
X15455318Y-12582772D01*
X15455318Y-12557772D02*
X15430318Y-12582772D01*
X15451335Y-2132758D02*
X15476335Y-2157758D01*
X15476335Y-2132758D02*
X15451335Y-2157758D01*
X15463206Y-7683258D02*
X15488206Y-7708258D01*
X15488206Y-7683258D02*
X15463206Y-7708258D01*
X15465686Y-12957534D02*
X15490686Y-12982534D01*
X15490686Y-12957534D02*
X15465686Y-12982534D01*
X15468151Y-2693063D02*
X15493151Y-2718063D01*
X15493151Y-2693063D02*
X15468151Y-2718063D01*
X15474877Y-11218664D02*
X15499877Y-11243664D01*
X15499877Y-11218664D02*
X15474877Y-11243664D01*
X15573456Y-7815758D02*
X15598456Y-7840758D01*
X15598456Y-7815758D02*
X15573456Y-7840758D01*
X15715686Y-12957534D02*
X15740686Y-12982534D01*
X15740686Y-12957534D02*
X15715686Y-12982534D01*
X15771456Y-8884758D02*
X15796456Y-8909758D01*
X15796456Y-8884758D02*
X15771456Y-8909758D01*
X15853858Y-1519536D02*
X15878858Y-1544536D01*
X15878858Y-1519536D02*
X15853858Y-1544536D01*
X15865456Y-9105758D02*
X15890456Y-9130758D01*
X15890456Y-9105758D02*
X15865456Y-9130758D01*
X15881456Y-12357758D02*
X15906456Y-12382758D01*
X15906456Y-12357758D02*
X15881456Y-12382758D01*
X15881456Y-12557758D02*
X15906456Y-12582758D01*
X15906456Y-12557758D02*
X15881456Y-12582758D01*
X15881456Y-12757758D02*
X15906456Y-12782758D01*
X15906456Y-12757758D02*
X15881456Y-12782758D01*
X15881456Y-12957758D02*
X15906456Y-12982758D01*
X15906456Y-12957758D02*
X15881456Y-12982758D01*
X15919006Y-8900349D02*
X15944006Y-8925349D01*
X15944006Y-8900349D02*
X15919006Y-8925349D01*
X15976206Y-8850008D02*
X16001206Y-8875008D01*
X16001206Y-8850008D02*
X15976206Y-8875008D01*
X15978456Y-12182758D02*
X16003456Y-12207758D01*
X16003456Y-12182758D02*
X15978456Y-12207758D01*
X15981456Y-4851758D02*
X16006456Y-4876758D01*
X16006456Y-4851758D02*
X15981456Y-4876758D01*
X15985456Y-2660758D02*
X16010456Y-2685758D01*
X16010456Y-2660758D02*
X15985456Y-2685758D01*
X16006021Y-1589537D02*
X16031021Y-1614537D01*
X16031021Y-1589537D02*
X16006021Y-1614537D01*
X16079456Y-8848758D02*
X16104456Y-8873758D01*
X16104456Y-8848758D02*
X16079456Y-8873758D01*
X16096648Y-1519536D02*
X16121648Y-1544536D01*
X16121648Y-1519536D02*
X16096648Y-1544536D01*
X16122456Y-8404758D02*
X16147456Y-8429758D01*
X16147456Y-8404758D02*
X16122456Y-8429758D01*
X16144456Y-1909758D02*
X16169456Y-1934758D01*
X16169456Y-1909758D02*
X16144456Y-1934758D01*
X16144456Y-2001758D02*
X16169456Y-2026758D01*
X16169456Y-2001758D02*
X16144456Y-2026758D01*
X16144456Y-2091754D02*
X16169456Y-2116754D01*
X16169456Y-2091754D02*
X16144456Y-2116754D01*
X16178456Y-12182758D02*
X16203456Y-12207758D01*
X16203456Y-12182758D02*
X16178456Y-12207758D01*
X16208293Y-9349888D02*
X16233293Y-9374888D01*
X16233293Y-9349888D02*
X16208293Y-9374888D01*
X16211455Y-9027758D02*
X16236455Y-9052758D01*
X16236455Y-9027758D02*
X16211455Y-9052758D01*
X16227456Y-8408758D02*
X16252456Y-8433758D01*
X16252456Y-8408758D02*
X16227456Y-8433758D01*
X16243006Y-9278781D02*
X16268006Y-9303781D01*
X16268006Y-9278781D02*
X16243006Y-9303781D01*
X16256021Y-1589537D02*
X16281021Y-1614537D01*
X16281021Y-1589537D02*
X16256021Y-1614537D01*
X16265553Y-6934321D02*
X16290553Y-6959321D01*
X16290553Y-6934321D02*
X16265553Y-6959321D01*
X16287956Y-8657758D02*
X16312956Y-8682758D01*
X16312956Y-8657758D02*
X16287956Y-8682758D01*
X16294456Y-4121758D02*
X16319456Y-4146758D01*
X16319456Y-4121758D02*
X16294456Y-4146758D01*
X16316456Y-9156758D02*
X16341456Y-9181758D01*
X16341456Y-9156758D02*
X16316456Y-9181758D01*
X16346648Y-1519536D02*
X16371648Y-1544536D01*
X16371648Y-1519536D02*
X16346648Y-1544536D01*
X16347456Y-4938758D02*
X16372456Y-4963758D01*
X16372456Y-4938758D02*
X16347456Y-4963758D01*
X16378456Y-12182758D02*
X16403456Y-12207758D01*
X16403456Y-12182758D02*
X16378456Y-12207758D01*
X16384456Y-8743258D02*
X16409456Y-8768258D01*
X16409456Y-8743258D02*
X16384456Y-8768258D01*
X16418456Y-9848758D02*
X16443456Y-9873758D01*
X16443456Y-9848758D02*
X16418456Y-9873758D01*
X16426956Y-8363258D02*
X16451956Y-8388258D01*
X16451956Y-8363258D02*
X16426956Y-8388258D01*
X16450238Y-8931826D02*
X16475238Y-8956826D01*
X16475238Y-8931826D02*
X16450238Y-8956826D01*
X16473456Y-4579758D02*
X16498456Y-4604758D01*
X16498456Y-4579758D02*
X16473456Y-4604758D01*
X16482455Y-9158758D02*
X16507455Y-9183758D01*
X16507455Y-9158758D02*
X16482455Y-9183758D01*
X16488504Y-7011698D02*
X16513504Y-7036698D01*
X16513504Y-7011698D02*
X16488504Y-7036698D01*
X16498456Y-10130758D02*
X16523456Y-10155758D01*
X16523456Y-10130758D02*
X16498456Y-10155758D01*
X16506021Y-1589537D02*
X16531021Y-1614537D01*
X16531021Y-1589537D02*
X16506021Y-1614537D01*
X16524238Y-8869826D02*
X16549238Y-8894826D01*
X16549238Y-8869826D02*
X16524238Y-8894826D01*
X16530456Y-2168758D02*
X16555456Y-2193758D01*
X16555456Y-2168758D02*
X16530456Y-2193758D01*
X16556456Y-10190758D02*
X16581456Y-10215758D01*
X16581456Y-10190758D02*
X16556456Y-10215758D01*
X16574456Y-9735758D02*
X16599456Y-9760758D01*
X16599456Y-9735758D02*
X16574456Y-9760758D01*
X16576455Y-9644758D02*
X16601455Y-9669758D01*
X16601455Y-9644758D02*
X16576455Y-9669758D01*
X16578456Y-12182758D02*
X16603456Y-12207758D01*
X16603456Y-12182758D02*
X16578456Y-12207758D01*
X16584456Y-5008683D02*
X16609456Y-5033683D01*
X16609456Y-5008683D02*
X16584456Y-5033683D01*
X16585455Y-10070758D02*
X16610455Y-10095758D01*
X16610455Y-10070758D02*
X16585455Y-10095758D01*
X16596648Y-1519536D02*
X16621648Y-1544536D01*
X16621648Y-1519536D02*
X16596648Y-1544536D01*
X16604456Y-10267758D02*
X16629456Y-10292758D01*
X16629456Y-10267758D02*
X16604456Y-10292758D01*
X16619580Y-8341200D02*
X16644580Y-8366200D01*
X16644580Y-8341200D02*
X16619580Y-8366200D01*
X16622456Y-2342758D02*
X16647456Y-2367758D01*
X16647456Y-2342758D02*
X16622456Y-2367758D01*
X16652455Y-9618758D02*
X16677455Y-9643758D01*
X16677455Y-9618758D02*
X16652455Y-9643758D01*
X16728455Y-10216758D02*
X16753455Y-10241758D01*
X16753455Y-10216758D02*
X16728455Y-10241758D01*
X16756021Y-1589537D02*
X16781022Y-1614537D01*
X16781022Y-1589537D02*
X16756021Y-1614537D01*
X16767824Y-2740815D02*
X16792824Y-2765815D01*
X16792824Y-2740815D02*
X16767824Y-2765815D01*
X16778456Y-12182758D02*
X16803456Y-12207758D01*
X16803456Y-12182758D02*
X16778456Y-12207758D01*
X16803139Y-9888075D02*
X16828139Y-9913075D01*
X16828139Y-9888075D02*
X16803139Y-9913075D01*
X16846648Y-1519536D02*
X16871648Y-1544536D01*
X16871648Y-1519536D02*
X16846648Y-1544536D01*
X16847511Y-9281368D02*
X16872511Y-9306368D01*
X16872511Y-9281368D02*
X16847511Y-9306368D01*
X16850310Y-9009528D02*
X16875310Y-9034528D01*
X16875310Y-9009528D02*
X16850310Y-9034528D01*
X16900456Y-10268758D02*
X16925456Y-10293758D01*
X16925456Y-10268758D02*
X16900456Y-10293758D01*
X16904456Y-9993258D02*
X16929456Y-10018258D01*
X16929456Y-9993258D02*
X16904456Y-10018258D01*
X16906456Y-10192758D02*
X16931456Y-10217758D01*
X16931456Y-10192758D02*
X16906456Y-10217758D01*
X16912625Y-9226731D02*
X16937625Y-9251731D01*
X16937625Y-9226731D02*
X16912625Y-9251731D01*
X16915456Y-9516758D02*
X16940456Y-9541758D01*
X16940456Y-9516758D02*
X16915456Y-9541758D01*
X16934287Y-9384784D02*
X16959287Y-9409784D01*
X16959287Y-9384784D02*
X16934287Y-9409784D01*
X16950048Y-9651213D02*
X16975048Y-9676213D01*
X16975048Y-9651213D02*
X16950048Y-9676213D01*
X16978456Y-12182758D02*
X17003456Y-12207758D01*
X17003456Y-12182758D02*
X16978456Y-12207758D01*
X16994456Y-10451758D02*
X17019456Y-10476758D01*
X17019456Y-10451758D02*
X16994456Y-10476758D01*
X17006022Y-1589537D02*
X17031022Y-1614537D01*
X17031022Y-1589537D02*
X17006022Y-1614537D01*
X17025456Y-9582758D02*
X17050456Y-9607758D01*
X17050456Y-9582758D02*
X17025456Y-9607758D01*
X17026456Y-10923758D02*
X17051456Y-10948758D01*
X17051456Y-10923758D02*
X17026456Y-10948758D01*
X17041956Y-10245758D02*
X17066956Y-10270758D01*
X17066956Y-10245758D02*
X17041956Y-10270758D01*
X17069456Y-10450758D02*
X17094456Y-10475758D01*
X17094456Y-10450758D02*
X17069456Y-10475758D01*
X17074617Y-10161325D02*
X17099617Y-10186325D01*
X17099617Y-10161325D02*
X17074617Y-10186325D01*
X17088417Y-9977030D02*
X17113417Y-10002030D01*
X17113417Y-9977030D02*
X17088417Y-10002030D01*
X17088417Y-10038981D02*
X17113417Y-10063981D01*
X17113417Y-10038981D02*
X17088417Y-10063981D01*
X17088417Y-10100931D02*
X17113417Y-10125931D01*
X17113417Y-10100931D02*
X17088417Y-10125931D01*
X17096648Y-1519536D02*
X17121648Y-1544536D01*
X17121648Y-1519536D02*
X17096648Y-1544536D01*
X17111956Y-10210758D02*
X17136956Y-10235758D01*
X17136956Y-10210758D02*
X17111956Y-10235758D01*
X17114456Y-9582758D02*
X17139456Y-9607758D01*
X17139456Y-9582758D02*
X17114456Y-9607758D01*
X17130006Y-10367758D02*
X17155006Y-10392758D01*
X17155006Y-10367758D02*
X17130006Y-10392758D01*
X17154803Y-9710569D02*
X17179803Y-9735569D01*
X17179803Y-9710569D02*
X17154803Y-9735569D01*
X17178456Y-12182758D02*
X17203456Y-12207758D01*
X17203456Y-12182758D02*
X17178456Y-12207758D01*
X17186456Y-1706758D02*
X17211456Y-1731758D01*
X17211456Y-1706758D02*
X17186456Y-1731758D01*
X17193238Y-9266826D02*
X17218238Y-9291826D01*
X17218238Y-9266826D02*
X17193238Y-9291826D01*
X17196456Y-10923758D02*
X17221456Y-10948758D01*
X17221456Y-10923758D02*
X17196456Y-10948758D01*
X17218906Y-9573708D02*
X17243906Y-9598708D01*
X17243906Y-9573708D02*
X17218906Y-9598708D01*
X17229456Y-9117758D02*
X17254456Y-9142758D01*
X17254456Y-9117758D02*
X17229456Y-9142758D01*
X17240456Y-9036758D02*
X17265456Y-9061758D01*
X17265456Y-9036758D02*
X17240456Y-9061758D01*
X17247456Y-9757758D02*
X17272456Y-9782758D01*
X17272456Y-9757758D02*
X17247456Y-9782758D01*
X17256022Y-1589537D02*
X17281022Y-1614537D01*
X17281022Y-1589537D02*
X17256022Y-1614537D01*
X17283346Y-9601779D02*
X17308346Y-9626779D01*
X17308346Y-9601779D02*
X17283346Y-9626779D01*
X17296456Y-9181758D02*
X17321456Y-9206758D01*
X17321456Y-9181758D02*
X17296456Y-9206758D01*
X17296456Y-9283758D02*
X17321456Y-9308758D01*
X17321456Y-9283758D02*
X17296456Y-9308758D01*
X17336956Y-10243258D02*
X17361956Y-10268258D01*
X17361956Y-10243258D02*
X17336956Y-10268258D01*
X17340954Y-9578994D02*
X17365954Y-9603994D01*
X17365954Y-9578994D02*
X17340954Y-9603994D01*
X17344195Y-9759929D02*
X17369195Y-9784929D01*
X17369195Y-9759929D02*
X17344195Y-9784929D01*
X17344456Y-5993758D02*
X17369456Y-6018758D01*
X17369456Y-5993758D02*
X17344456Y-6018758D01*
X17346648Y-1519536D02*
X17371648Y-1544536D01*
X17371648Y-1519536D02*
X17346648Y-1544536D01*
X17356956Y-10380758D02*
X17381956Y-10405758D01*
X17381956Y-10380758D02*
X17356956Y-10405758D01*
X17374456Y-1704758D02*
X17399456Y-1729758D01*
X17399456Y-1704758D02*
X17374456Y-1729758D01*
X17380456Y-1939758D02*
X17405456Y-1964758D01*
X17405456Y-1939758D02*
X17380456Y-1964758D01*
X17389456Y-7935758D02*
X17414456Y-7960758D01*
X17414456Y-7935758D02*
X17389456Y-7960758D01*
X17406956Y-9763258D02*
X17431956Y-9788258D01*
X17431956Y-9763258D02*
X17406956Y-9788258D01*
X17419544Y-9981758D02*
X17444544Y-10006758D01*
X17444544Y-9981758D02*
X17419544Y-10006758D01*
X17421455Y-10067680D02*
X17446455Y-10092680D01*
X17446455Y-10067680D02*
X17421455Y-10092680D01*
X17421456Y-9877758D02*
X17446456Y-9902758D01*
X17446456Y-9877758D02*
X17421456Y-9902758D01*
X17426054Y-9615914D02*
X17451054Y-9640914D01*
X17451054Y-9615914D02*
X17426054Y-9640914D01*
X17433456Y-7552008D02*
X17458456Y-7577008D01*
X17458456Y-7552008D02*
X17433456Y-7577008D01*
X17455456Y-2987758D02*
X17480456Y-3012758D01*
X17480456Y-2987758D02*
X17455456Y-3012758D01*
X17462456Y-5929758D02*
X17487456Y-5954758D01*
X17487456Y-5929758D02*
X17462456Y-5954758D01*
X17491456Y-10370758D02*
X17516456Y-10395758D01*
X17516456Y-10370758D02*
X17491456Y-10395758D01*
X17492456Y-2738758D02*
X17517456Y-2763758D01*
X17517456Y-2738758D02*
X17492456Y-2763758D01*
X17506022Y-1589537D02*
X17531022Y-1614537D01*
X17531022Y-1589537D02*
X17506022Y-1614537D01*
X17522317Y-9922407D02*
X17547317Y-9947407D01*
X17547317Y-9922407D02*
X17522317Y-9947407D01*
X17522318Y-9860208D02*
X17547318Y-9885208D01*
X17547318Y-9860208D02*
X17522318Y-9885208D01*
X17522318Y-10046308D02*
X17547318Y-10071308D01*
X17547318Y-10046308D02*
X17522318Y-10071308D01*
X17522318Y-9984358D02*
X17547318Y-10009358D01*
X17547318Y-9984358D02*
X17522318Y-10009358D01*
X17538387Y-10135258D02*
X17563387Y-10160258D01*
X17563387Y-10135258D02*
X17538387Y-10160258D01*
X17542456Y-12182758D02*
X17567456Y-12207758D01*
X17567456Y-12182758D02*
X17542456Y-12207758D01*
X17579456Y-10254758D02*
X17604456Y-10279758D01*
X17604456Y-10254758D02*
X17579456Y-10279758D01*
X17600456Y-4390758D02*
X17625456Y-4415758D01*
X17625456Y-4390758D02*
X17600456Y-4415758D01*
X17611717Y-1524283D02*
X17636717Y-1549283D01*
X17636717Y-1524283D02*
X17611717Y-1549283D01*
X17640456Y-9786758D02*
X17665456Y-9811758D01*
X17665456Y-9786758D02*
X17640456Y-9811758D01*
X17654456Y-7737758D02*
X17679456Y-7762758D01*
X17679456Y-7737758D02*
X17654456Y-7762758D01*
X17674027Y-2857758D02*
X17699027Y-2882758D01*
X17699027Y-2857758D02*
X17674027Y-2882758D01*
X17674077Y-2961758D02*
X17699077Y-2986758D01*
X17699077Y-2961758D02*
X17674077Y-2986758D01*
X17681456Y-4913758D02*
X17706456Y-4938758D01*
X17706456Y-4913758D02*
X17681456Y-4938758D01*
X17703456Y-5436758D02*
X17728456Y-5461758D01*
X17728456Y-5436758D02*
X17703456Y-5461758D01*
X17714456Y-9669758D02*
X17739456Y-9694758D01*
X17739456Y-9669758D02*
X17714456Y-9694758D01*
X17716230Y-10142898D02*
X17741230Y-10167898D01*
X17741230Y-10142898D02*
X17716230Y-10167898D01*
X17742456Y-12182758D02*
X17767456Y-12207758D01*
X17767456Y-12182758D02*
X17742456Y-12207758D01*
X17757762Y-1608493D02*
X17782762Y-1633493D01*
X17782762Y-1608493D02*
X17757762Y-1633493D01*
X17766456Y-4586007D02*
X17791456Y-4611007D01*
X17791456Y-4586007D02*
X17766456Y-4611007D01*
X17898456Y-10076758D02*
X17923456Y-10101758D01*
X17923456Y-10076758D02*
X17898456Y-10101758D01*
X17907456Y-9622758D02*
X17932456Y-9647758D01*
X17932456Y-9622758D02*
X17907456Y-9647758D01*
X17939456Y-4713758D02*
X17964456Y-4738758D01*
X17964456Y-4713758D02*
X17939456Y-4738758D01*
X17942456Y-12182758D02*
X17967456Y-12207758D01*
X17967456Y-12182758D02*
X17942456Y-12207758D01*
X17958456Y-5085758D02*
X17983456Y-5110758D01*
X17983456Y-5085758D02*
X17958456Y-5110758D01*
X18004456Y-4915758D02*
X18029456Y-4940758D01*
X18029456Y-4915758D02*
X18004456Y-4940758D01*
X18063456Y-10622758D02*
X18088456Y-10647758D01*
X18088456Y-10622758D02*
X18063456Y-10647758D01*
X18063456Y-10822758D02*
X18088456Y-10847758D01*
X18088456Y-10822758D02*
X18063456Y-10847758D01*
X18063456Y-11022758D02*
X18088456Y-11047758D01*
X18088456Y-11022758D02*
X18063456Y-11047758D01*
X18063456Y-11222758D02*
X18088456Y-11247758D01*
X18088456Y-11222758D02*
X18063456Y-11247758D01*
X18063456Y-11422758D02*
X18088456Y-11447758D01*
X18088456Y-11422758D02*
X18063456Y-11447758D01*
X18063456Y-11622758D02*
X18088456Y-11647758D01*
X18088456Y-11622758D02*
X18063456Y-11647758D01*
X18063456Y-11822758D02*
X18088456Y-11847758D01*
X18088456Y-11822758D02*
X18063456Y-11847758D01*
X18063456Y-12022758D02*
X18088456Y-12047758D01*
X18088456Y-12022758D02*
X18063456Y-12047758D01*
D16*
X3870174Y-7601574D02*
G75*
G03*
X3870174Y-7601574I-25000J0D01*
G01*
X3981174Y-10819574D02*
G75*
G03*
X3981174Y-10819574I-25000J0D01*
G01*
X3983174Y-9471574D02*
G75*
G03*
X3983174Y-9471574I-25000J0D01*
G01*
X4378604Y-4349325D02*
G75*
G03*
X4378604Y-4349325I-25000J0D01*
G01*
X4426174Y-6000574D02*
G75*
G03*
X4426174Y-6000574I-25000J0D01*
G01*
X6158442Y-8105304D02*
G75*
G03*
X6158442Y-8105304I-25000J0D01*
G01*
X6222174Y-7395574D02*
G75*
G03*
X6222174Y-7395574I-25000J0D01*
G01*
X6223174Y-11306574D02*
G75*
G03*
X6223174Y-11306574I-25000J0D01*
G01*
X6273174Y-4884574D02*
G75*
G03*
X6273174Y-4884574I-25000J0D01*
G01*
X6707174Y-2980574D02*
G75*
G03*
X6707174Y-2980574I-25000J0D01*
G01*
X7125174Y-5333574D02*
G75*
G03*
X7125174Y-5333574I-25000J0D01*
G01*
X7255174Y-1845574D02*
G75*
G03*
X7255174Y-1845574I-25000J0D01*
G01*
X8299174Y-2778574D02*
G75*
G03*
X8299174Y-2778574I-25000J0D01*
G01*
X8335174Y-2055574D02*
G75*
G03*
X8335174Y-2055574I-25000J0D01*
G01*
X8336174Y-1718574D02*
G75*
G03*
X8336174Y-1718574I-25000J0D01*
G01*
X8553174Y-2039574D02*
G75*
G03*
X8553174Y-2039574I-25000J0D01*
G01*
X8601174Y-4676574D02*
G75*
G03*
X8601174Y-4676574I-25000J0D01*
G01*
X9419174Y-1965574D02*
G75*
G03*
X9419174Y-1965574I-25000J0D01*
G01*
X9419174Y-2114574D02*
G75*
G03*
X9419174Y-2114574I-25000J0D01*
G01*
X9772783Y-2151176D02*
G75*
G03*
X9772783Y-2151176I-25000J0D01*
G01*
X9829174Y-4364574D02*
G75*
G03*
X9829174Y-4364574I-25000J0D01*
G01*
X11924456Y-2988258D02*
G75*
G03*
X11924456Y-2988258I-25000J0D01*
G01*
X11939456Y-4568258D02*
G75*
G03*
X11939456Y-4568258I-25000J0D01*
G01*
X12226956Y-6440758D02*
G75*
G03*
X12226956Y-6440758I-25000J0D01*
G01*
X13224456Y-3308258D02*
G75*
G03*
X13224456Y-3308258I-25000J0D01*
G01*
X13653926Y-10700902D02*
G75*
G03*
X13653926Y-10700902I-25000J0D01*
G01*
X13766617Y-5617415D02*
G75*
G03*
X13766617Y-5617415I-25000J0D01*
G01*
X13851956Y-7988258D02*
G75*
G03*
X13851956Y-7988258I-25000J0D01*
G01*
X13936956Y-12615758D02*
G75*
G03*
X13936956Y-12615758I-25000J0D01*
G01*
X14400956Y-9209258D02*
G75*
G03*
X14400956Y-9209258I-25000J0D01*
G01*
X15336956Y-10545758D02*
G75*
G03*
X15336956Y-10545758I-25000J0D01*
G01*
X15744456Y-6085758D02*
G75*
G03*
X15744456Y-6085758I-25000J0D01*
G01*
X15894456Y-4208258D02*
G75*
G03*
X15894456Y-4208258I-25000J0D01*
G01*
X16929456Y-7525758D02*
G75*
G03*
X16929456Y-7525758I-25000J0D01*
G01*
X17206956Y-4368258D02*
G75*
G03*
X17206956Y-4368258I-25000J0D01*
G01*
D17*
X4941964Y-1965304D02*
X4941964Y-2025304D01*
X4911964Y-1995304D02*
X4971964Y-1995304D01*
D14*
X4971964Y-2035304D02*
X4971964Y-1955304D01*
X4911964Y-2035304D02*
X4911964Y-1955304D01*
X4971964Y-1955304D02*
G75*
G03*
X4911964Y-1955304I-30000J0D01*
G01*
X4911964Y-2035304D02*
G75*
G03*
X4971964Y-2035304I30000J0D01*
G01*
D17*
X4941994Y-1585304D02*
X4941994Y-1645304D01*
X4911994Y-1615304D02*
X4971994Y-1615304D01*
D14*
X4971994Y-1675304D02*
X4971994Y-1555304D01*
X4911994Y-1675304D02*
X4911994Y-1555304D01*
X4971994Y-1555304D02*
G75*
G03*
X4911994Y-1555304I-30000J0D01*
G01*
X4911994Y-1675304D02*
G75*
G03*
X4971994Y-1675304I30000J0D01*
G01*
D17*
X6057054Y-1585304D02*
X6057054Y-1645304D01*
X6027054Y-1615304D02*
X6087054Y-1615304D01*
D14*
X6087054Y-1675304D02*
X6087054Y-1555304D01*
X6027054Y-1675304D02*
X6027054Y-1555304D01*
X6087054Y-1555304D02*
G75*
G03*
X6027054Y-1555304I-30000J0D01*
G01*
X6027054Y-1675304D02*
G75*
G03*
X6087054Y-1675304I30000J0D01*
G01*
D17*
X6057054Y-1965304D02*
X6057054Y-2025304D01*
X6027054Y-1995304D02*
X6087054Y-1995304D01*
D14*
X6087054Y-2035304D02*
X6087054Y-1955304D01*
X6027054Y-2035304D02*
X6027054Y-1955304D01*
X6087054Y-1955304D02*
G75*
G03*
X6027054Y-1955304I-30000J0D01*
G01*
X6027054Y-2035304D02*
G75*
G03*
X6087054Y-2035304I30000J0D01*
G01*
D17*
X14666275Y-1965176D02*
X14666275Y-2025176D01*
X14636275Y-1995176D02*
X14696275Y-1995176D01*
D14*
X14696275Y-2035176D02*
X14696275Y-1955176D01*
X14636275Y-2035176D02*
X14636275Y-1955176D01*
X14696275Y-1955176D02*
G75*
G03*
X14636275Y-1955176I-30000J0D01*
G01*
X14636275Y-2035176D02*
G75*
G03*
X14696275Y-2035176I30000J0D01*
G01*
D17*
X14666305Y-1585176D02*
X14666305Y-1645176D01*
X14636305Y-1615176D02*
X14696305Y-1615176D01*
D14*
X14696305Y-1675176D02*
X14696305Y-1555176D01*
X14636305Y-1675176D02*
X14636305Y-1555176D01*
X14696305Y-1555176D02*
G75*
G03*
X14636305Y-1555176I-30000J0D01*
G01*
X14636305Y-1675176D02*
G75*
G03*
X14696305Y-1675176I30000J0D01*
G01*
D17*
X15781365Y-1585176D02*
X15781365Y-1645176D01*
X15751365Y-1615176D02*
X15811365Y-1615176D01*
D14*
X15811365Y-1675176D02*
X15811365Y-1555176D01*
X15751365Y-1675176D02*
X15751365Y-1555176D01*
X15811365Y-1555176D02*
G75*
G03*
X15751365Y-1555176I-30000J0D01*
G01*
X15751365Y-1675176D02*
G75*
G03*
X15811365Y-1675176I30000J0D01*
G01*
D17*
X15781365Y-1965176D02*
X15781365Y-2025176D01*
X15751365Y-1995176D02*
X15811365Y-1995176D01*
D14*
X15811365Y-2035176D02*
X15811365Y-1955176D01*
X15751365Y-2035176D02*
X15751365Y-1955176D01*
X15811365Y-1955176D02*
G75*
G03*
X15751365Y-1955176I-30000J0D01*
G01*
X15751365Y-2035176D02*
G75*
G03*
X15811365Y-2035176I30000J0D01*
G01*
X2847240Y-13337955D02*
X2847240Y-13137955D01*
X2894859Y-13137955D01*
X2923431Y-13147479D01*
X2942479Y-13166526D01*
X2952002Y-13185574D01*
X2961526Y-13223669D01*
X2961526Y-13252241D01*
X2952002Y-13290336D01*
X2942479Y-13309383D01*
X2923431Y-13328431D01*
X2894859Y-13337955D01*
X2847240Y-13337955D01*
X3047240Y-13337955D02*
X3047240Y-13204621D01*
X3047240Y-13242717D02*
X3056764Y-13223669D01*
X3066288Y-13214145D01*
X3085336Y-13204621D01*
X3104383Y-13204621D01*
X3171050Y-13337955D02*
X3171050Y-13204621D01*
X3171050Y-13137955D02*
X3161526Y-13147479D01*
X3171050Y-13157002D01*
X3180574Y-13147479D01*
X3171050Y-13137955D01*
X3171050Y-13157002D01*
X3294859Y-13337955D02*
X3275812Y-13328431D01*
X3266288Y-13309383D01*
X3266288Y-13137955D01*
X3399621Y-13337955D02*
X3380574Y-13328431D01*
X3371050Y-13309383D01*
X3371050Y-13137955D01*
X3628193Y-13337955D02*
X3628193Y-13137955D01*
X3694859Y-13280812D01*
X3761526Y-13137955D01*
X3761526Y-13337955D01*
X3942479Y-13337955D02*
X3942479Y-13233193D01*
X3932955Y-13214145D01*
X3913907Y-13204621D01*
X3875812Y-13204621D01*
X3856764Y-13214145D01*
X3942479Y-13328431D02*
X3923431Y-13337955D01*
X3875812Y-13337955D01*
X3856764Y-13328431D01*
X3847240Y-13309383D01*
X3847240Y-13290336D01*
X3856764Y-13271288D01*
X3875812Y-13261764D01*
X3923431Y-13261764D01*
X3942479Y-13252241D01*
X4037717Y-13204621D02*
X4037717Y-13404621D01*
X4037717Y-13214145D02*
X4056764Y-13204621D01*
X4094859Y-13204621D01*
X4113907Y-13214145D01*
X4123431Y-13223669D01*
X4132955Y-13242717D01*
X4132955Y-13299860D01*
X4123431Y-13318907D01*
X4113907Y-13328431D01*
X4094859Y-13337955D01*
X4056764Y-13337955D01*
X4037717Y-13328431D01*
X4218669Y-13318907D02*
X4228193Y-13328431D01*
X4218669Y-13337955D01*
X4209145Y-13328431D01*
X4218669Y-13318907D01*
X4218669Y-13337955D01*
X4218669Y-13214145D02*
X4228193Y-13223669D01*
X4218669Y-13233193D01*
X4209145Y-13223669D01*
X4218669Y-13214145D01*
X4218669Y-13233193D01*
D15*
X2564622Y-13654979D02*
X2589622Y-13679979D01*
X2589622Y-13654979D02*
X2564622Y-13679979D01*
D14*
X2885336Y-13557955D02*
X2904383Y-13557955D01*
X2923431Y-13567479D01*
X2932955Y-13577002D01*
X2942479Y-13596050D01*
X2952002Y-13634145D01*
X2952002Y-13681764D01*
X2942479Y-13719860D01*
X2932955Y-13738907D01*
X2923431Y-13748431D01*
X2904383Y-13757955D01*
X2885336Y-13757955D01*
X2866288Y-13748431D01*
X2856764Y-13738907D01*
X2847240Y-13719860D01*
X2837717Y-13681764D01*
X2837717Y-13634145D01*
X2847240Y-13596050D01*
X2856764Y-13577002D01*
X2866288Y-13567479D01*
X2885336Y-13557955D01*
X3037717Y-13738907D02*
X3047240Y-13748431D01*
X3037717Y-13757955D01*
X3028193Y-13748431D01*
X3037717Y-13738907D01*
X3037717Y-13757955D01*
X3123431Y-13577002D02*
X3132955Y-13567479D01*
X3152002Y-13557955D01*
X3199621Y-13557955D01*
X3218669Y-13567479D01*
X3228193Y-13577002D01*
X3237717Y-13596050D01*
X3237717Y-13615098D01*
X3228193Y-13643669D01*
X3113907Y-13757955D01*
X3237717Y-13757955D01*
X3418669Y-13557955D02*
X3323431Y-13557955D01*
X3313907Y-13653193D01*
X3323431Y-13643669D01*
X3342479Y-13634145D01*
X3390098Y-13634145D01*
X3409145Y-13643669D01*
X3418669Y-13653193D01*
X3428193Y-13672241D01*
X3428193Y-13719860D01*
X3418669Y-13738907D01*
X3409145Y-13748431D01*
X3390098Y-13757955D01*
X3342479Y-13757955D01*
X3323431Y-13748431D01*
X3313907Y-13738907D01*
X3552002Y-13557955D02*
X3571050Y-13557955D01*
X3590098Y-13567479D01*
X3599621Y-13577002D01*
X3609145Y-13596050D01*
X3618669Y-13634145D01*
X3618669Y-13681764D01*
X3609145Y-13719860D01*
X3599621Y-13738907D01*
X3590098Y-13748431D01*
X3571050Y-13757955D01*
X3552002Y-13757955D01*
X3532955Y-13748431D01*
X3523431Y-13738907D01*
X3513907Y-13719860D01*
X3504383Y-13681764D01*
X3504383Y-13634145D01*
X3513907Y-13596050D01*
X3523431Y-13577002D01*
X3532955Y-13567479D01*
X3552002Y-13557955D01*
X3704383Y-13757955D02*
X3704383Y-13624621D01*
X3704383Y-13643669D02*
X3713907Y-13634145D01*
X3732955Y-13624621D01*
X3761526Y-13624621D01*
X3780574Y-13634145D01*
X3790098Y-13653193D01*
X3790098Y-13757955D01*
X3790098Y-13653193D02*
X3799621Y-13634145D01*
X3818669Y-13624621D01*
X3847240Y-13624621D01*
X3866288Y-13634145D01*
X3875812Y-13653193D01*
X3875812Y-13757955D01*
X3971050Y-13757955D02*
X3971050Y-13624621D01*
X3971050Y-13643669D02*
X3980574Y-13634145D01*
X3999621Y-13624621D01*
X4028193Y-13624621D01*
X4047240Y-13634145D01*
X4056764Y-13653193D01*
X4056764Y-13757955D01*
X4056764Y-13653193D02*
X4066288Y-13634145D01*
X4085336Y-13624621D01*
X4113907Y-13624621D01*
X4132955Y-13634145D01*
X4142479Y-13653193D01*
X4142479Y-13757955D01*
X4532955Y-13548431D02*
X4361526Y-13805574D01*
X4790098Y-13557955D02*
X4809145Y-13557955D01*
X4828193Y-13567479D01*
X4837717Y-13577002D01*
X4847241Y-13596050D01*
X4856764Y-13634145D01*
X4856764Y-13681764D01*
X4847241Y-13719860D01*
X4837717Y-13738907D01*
X4828193Y-13748431D01*
X4809145Y-13757955D01*
X4790098Y-13757955D01*
X4771050Y-13748431D01*
X4761526Y-13738907D01*
X4752002Y-13719860D01*
X4742479Y-13681764D01*
X4742479Y-13634145D01*
X4752002Y-13596050D01*
X4761526Y-13577002D01*
X4771050Y-13567479D01*
X4790098Y-13557955D01*
X4942479Y-13738907D02*
X4952002Y-13748431D01*
X4942479Y-13757955D01*
X4932955Y-13748431D01*
X4942479Y-13738907D01*
X4942479Y-13757955D01*
X5075812Y-13557955D02*
X5094860Y-13557955D01*
X5113907Y-13567479D01*
X5123431Y-13577002D01*
X5132955Y-13596050D01*
X5142479Y-13634145D01*
X5142479Y-13681764D01*
X5132955Y-13719860D01*
X5123431Y-13738907D01*
X5113907Y-13748431D01*
X5094860Y-13757955D01*
X5075812Y-13757955D01*
X5056764Y-13748431D01*
X5047241Y-13738907D01*
X5037717Y-13719860D01*
X5028193Y-13681764D01*
X5028193Y-13634145D01*
X5037717Y-13596050D01*
X5047241Y-13577002D01*
X5056764Y-13567479D01*
X5075812Y-13557955D01*
X5266288Y-13557955D02*
X5285336Y-13557955D01*
X5304383Y-13567479D01*
X5313907Y-13577002D01*
X5323431Y-13596050D01*
X5332955Y-13634145D01*
X5332955Y-13681764D01*
X5323431Y-13719860D01*
X5313907Y-13738907D01*
X5304383Y-13748431D01*
X5285336Y-13757955D01*
X5266288Y-13757955D01*
X5247241Y-13748431D01*
X5237717Y-13738907D01*
X5228193Y-13719860D01*
X5218669Y-13681764D01*
X5218669Y-13634145D01*
X5228193Y-13596050D01*
X5237717Y-13577002D01*
X5247241Y-13567479D01*
X5266288Y-13557955D01*
X5428193Y-13757955D02*
X5466288Y-13757955D01*
X5485336Y-13748431D01*
X5494860Y-13738907D01*
X5513907Y-13710336D01*
X5523431Y-13672241D01*
X5523431Y-13596050D01*
X5513907Y-13577002D01*
X5504383Y-13567479D01*
X5485336Y-13557955D01*
X5447241Y-13557955D01*
X5428193Y-13567479D01*
X5418669Y-13577002D01*
X5409145Y-13596050D01*
X5409145Y-13643669D01*
X5418669Y-13662717D01*
X5428193Y-13672241D01*
X5447241Y-13681764D01*
X5485336Y-13681764D01*
X5504383Y-13672241D01*
X5513907Y-13662717D01*
X5523431Y-13643669D01*
X5637717Y-13643669D02*
X5618669Y-13634145D01*
X5609145Y-13624621D01*
X5599621Y-13605574D01*
X5599621Y-13596050D01*
X5609145Y-13577002D01*
X5618669Y-13567479D01*
X5637717Y-13557955D01*
X5675812Y-13557955D01*
X5694859Y-13567479D01*
X5704383Y-13577002D01*
X5713907Y-13596050D01*
X5713907Y-13605574D01*
X5704383Y-13624621D01*
X5694859Y-13634145D01*
X5675812Y-13643669D01*
X5637717Y-13643669D01*
X5618669Y-13653193D01*
X5609145Y-13662717D01*
X5599621Y-13681764D01*
X5599621Y-13719860D01*
X5609145Y-13738907D01*
X5618669Y-13748431D01*
X5637717Y-13757955D01*
X5675812Y-13757955D01*
X5694859Y-13748431D01*
X5704383Y-13738907D01*
X5713907Y-13719860D01*
X5713907Y-13681764D01*
X5704383Y-13662717D01*
X5694859Y-13653193D01*
X5675812Y-13643669D01*
X5790098Y-13557955D02*
X5790098Y-13596050D01*
X5866288Y-13557955D02*
X5866288Y-13596050D01*
X6161526Y-13834145D02*
X6152002Y-13824621D01*
X6132955Y-13796050D01*
X6123431Y-13777002D01*
X6113907Y-13748431D01*
X6104383Y-13700812D01*
X6104383Y-13662717D01*
X6113907Y-13615098D01*
X6123431Y-13586526D01*
X6132955Y-13567479D01*
X6152002Y-13538907D01*
X6161526Y-13529383D01*
X6323431Y-13557955D02*
X6285336Y-13557955D01*
X6266288Y-13567479D01*
X6256764Y-13577002D01*
X6237717Y-13605574D01*
X6228193Y-13643669D01*
X6228193Y-13719860D01*
X6237717Y-13738907D01*
X6247240Y-13748431D01*
X6266288Y-13757955D01*
X6304383Y-13757955D01*
X6323431Y-13748431D01*
X6332955Y-13738907D01*
X6342479Y-13719860D01*
X6342479Y-13672241D01*
X6332955Y-13653193D01*
X6323431Y-13643669D01*
X6304383Y-13634145D01*
X6266288Y-13634145D01*
X6247240Y-13643669D01*
X6237717Y-13653193D01*
X6228193Y-13672241D01*
X6513907Y-13557955D02*
X6475812Y-13557955D01*
X6456764Y-13567479D01*
X6447240Y-13577002D01*
X6428193Y-13605574D01*
X6418669Y-13643669D01*
X6418669Y-13719860D01*
X6428193Y-13738907D01*
X6437717Y-13748431D01*
X6456764Y-13757955D01*
X6494859Y-13757955D01*
X6513907Y-13748431D01*
X6523431Y-13738907D01*
X6532955Y-13719860D01*
X6532955Y-13672241D01*
X6523431Y-13653193D01*
X6513907Y-13643669D01*
X6494859Y-13634145D01*
X6456764Y-13634145D01*
X6437717Y-13643669D01*
X6428193Y-13653193D01*
X6418669Y-13672241D01*
X6713907Y-13557955D02*
X6618669Y-13557955D01*
X6609145Y-13653193D01*
X6618669Y-13643669D01*
X6637717Y-13634145D01*
X6685336Y-13634145D01*
X6704383Y-13643669D01*
X6713907Y-13653193D01*
X6723431Y-13672241D01*
X6723431Y-13719860D01*
X6713907Y-13738907D01*
X6704383Y-13748431D01*
X6685336Y-13757955D01*
X6637717Y-13757955D01*
X6618669Y-13748431D01*
X6609145Y-13738907D01*
X6961526Y-13757955D02*
X6961526Y-13557955D01*
X7047240Y-13757955D02*
X7047240Y-13653193D01*
X7037717Y-13634145D01*
X7018669Y-13624621D01*
X6990098Y-13624621D01*
X6971050Y-13634145D01*
X6961526Y-13643669D01*
X7171050Y-13757955D02*
X7152002Y-13748431D01*
X7142479Y-13738907D01*
X7132955Y-13719860D01*
X7132955Y-13662717D01*
X7142479Y-13643669D01*
X7152002Y-13634145D01*
X7171050Y-13624621D01*
X7199621Y-13624621D01*
X7218669Y-13634145D01*
X7228193Y-13643669D01*
X7237717Y-13662717D01*
X7237717Y-13719860D01*
X7228193Y-13738907D01*
X7218669Y-13748431D01*
X7199621Y-13757955D01*
X7171050Y-13757955D01*
X7352002Y-13757955D02*
X7332955Y-13748431D01*
X7323431Y-13729383D01*
X7323431Y-13557955D01*
X7504383Y-13748431D02*
X7485336Y-13757955D01*
X7447240Y-13757955D01*
X7428193Y-13748431D01*
X7418669Y-13729383D01*
X7418669Y-13653193D01*
X7428193Y-13634145D01*
X7447240Y-13624621D01*
X7485336Y-13624621D01*
X7504383Y-13634145D01*
X7513907Y-13653193D01*
X7513907Y-13672241D01*
X7418669Y-13691288D01*
X7590098Y-13748431D02*
X7609145Y-13757955D01*
X7647240Y-13757955D01*
X7666288Y-13748431D01*
X7675812Y-13729383D01*
X7675812Y-13719860D01*
X7666288Y-13700812D01*
X7647240Y-13691288D01*
X7618669Y-13691288D01*
X7599621Y-13681764D01*
X7590098Y-13662717D01*
X7590098Y-13653193D01*
X7599621Y-13634145D01*
X7618669Y-13624621D01*
X7647240Y-13624621D01*
X7666288Y-13634145D01*
X7742479Y-13834145D02*
X7752002Y-13824621D01*
X7771050Y-13796050D01*
X7780574Y-13777002D01*
X7790098Y-13748431D01*
X7799621Y-13700812D01*
X7799621Y-13662717D01*
X7790098Y-13615098D01*
X7780574Y-13586526D01*
X7771050Y-13567479D01*
X7752002Y-13538907D01*
X7742479Y-13529383D01*
D16*
X2589622Y-13931479D02*
G75*
G03*
X2589622Y-13931479I-25000J0D01*
G01*
D14*
X2885336Y-13821955D02*
X2904383Y-13821955D01*
X2923431Y-13831479D01*
X2932955Y-13841002D01*
X2942479Y-13860050D01*
X2952002Y-13898145D01*
X2952002Y-13945764D01*
X2942479Y-13983860D01*
X2932955Y-14002907D01*
X2923431Y-14012431D01*
X2904383Y-14021955D01*
X2885336Y-14021955D01*
X2866288Y-14012431D01*
X2856764Y-14002907D01*
X2847240Y-13983860D01*
X2837717Y-13945764D01*
X2837717Y-13898145D01*
X2847240Y-13860050D01*
X2856764Y-13841002D01*
X2866288Y-13831479D01*
X2885336Y-13821955D01*
X3037717Y-14002907D02*
X3047240Y-14012431D01*
X3037717Y-14021955D01*
X3028193Y-14012431D01*
X3037717Y-14002907D01*
X3037717Y-14021955D01*
X3228193Y-13821955D02*
X3132955Y-13821955D01*
X3123431Y-13917193D01*
X3132955Y-13907669D01*
X3152002Y-13898145D01*
X3199621Y-13898145D01*
X3218669Y-13907669D01*
X3228193Y-13917193D01*
X3237717Y-13936241D01*
X3237717Y-13983860D01*
X3228193Y-14002907D01*
X3218669Y-14012431D01*
X3199621Y-14021955D01*
X3152002Y-14021955D01*
X3132955Y-14012431D01*
X3123431Y-14002907D01*
X3361526Y-13821955D02*
X3380574Y-13821955D01*
X3399621Y-13831479D01*
X3409145Y-13841002D01*
X3418669Y-13860050D01*
X3428193Y-13898145D01*
X3428193Y-13945764D01*
X3418669Y-13983860D01*
X3409145Y-14002907D01*
X3399621Y-14012431D01*
X3380574Y-14021955D01*
X3361526Y-14021955D01*
X3342479Y-14012431D01*
X3332955Y-14002907D01*
X3323431Y-13983860D01*
X3313907Y-13945764D01*
X3313907Y-13898145D01*
X3323431Y-13860050D01*
X3332955Y-13841002D01*
X3342479Y-13831479D01*
X3361526Y-13821955D01*
X3552002Y-13821955D02*
X3571050Y-13821955D01*
X3590098Y-13831479D01*
X3599621Y-13841002D01*
X3609145Y-13860050D01*
X3618669Y-13898145D01*
X3618669Y-13945764D01*
X3609145Y-13983860D01*
X3599621Y-14002907D01*
X3590098Y-14012431D01*
X3571050Y-14021955D01*
X3552002Y-14021955D01*
X3532955Y-14012431D01*
X3523431Y-14002907D01*
X3513907Y-13983860D01*
X3504383Y-13945764D01*
X3504383Y-13898145D01*
X3513907Y-13860050D01*
X3523431Y-13841002D01*
X3532955Y-13831479D01*
X3552002Y-13821955D01*
X3704383Y-14021955D02*
X3704383Y-13888621D01*
X3704383Y-13907669D02*
X3713907Y-13898145D01*
X3732955Y-13888621D01*
X3761526Y-13888621D01*
X3780574Y-13898145D01*
X3790098Y-13917193D01*
X3790098Y-14021955D01*
X3790098Y-13917193D02*
X3799621Y-13898145D01*
X3818669Y-13888621D01*
X3847240Y-13888621D01*
X3866288Y-13898145D01*
X3875812Y-13917193D01*
X3875812Y-14021955D01*
X3971050Y-14021955D02*
X3971050Y-13888621D01*
X3971050Y-13907669D02*
X3980574Y-13898145D01*
X3999621Y-13888621D01*
X4028193Y-13888621D01*
X4047240Y-13898145D01*
X4056764Y-13917193D01*
X4056764Y-14021955D01*
X4056764Y-13917193D02*
X4066288Y-13898145D01*
X4085336Y-13888621D01*
X4113907Y-13888621D01*
X4132955Y-13898145D01*
X4142479Y-13917193D01*
X4142479Y-14021955D01*
X4532955Y-13812431D02*
X4361526Y-14069574D01*
X4790098Y-13821955D02*
X4809145Y-13821955D01*
X4828193Y-13831479D01*
X4837717Y-13841002D01*
X4847241Y-13860050D01*
X4856764Y-13898145D01*
X4856764Y-13945764D01*
X4847241Y-13983860D01*
X4837717Y-14002907D01*
X4828193Y-14012431D01*
X4809145Y-14021955D01*
X4790098Y-14021955D01*
X4771050Y-14012431D01*
X4761526Y-14002907D01*
X4752002Y-13983860D01*
X4742479Y-13945764D01*
X4742479Y-13898145D01*
X4752002Y-13860050D01*
X4761526Y-13841002D01*
X4771050Y-13831479D01*
X4790098Y-13821955D01*
X4942479Y-14002907D02*
X4952002Y-14012431D01*
X4942479Y-14021955D01*
X4932955Y-14012431D01*
X4942479Y-14002907D01*
X4942479Y-14021955D01*
X5075812Y-13821955D02*
X5094860Y-13821955D01*
X5113907Y-13831479D01*
X5123431Y-13841002D01*
X5132955Y-13860050D01*
X5142479Y-13898145D01*
X5142479Y-13945764D01*
X5132955Y-13983860D01*
X5123431Y-14002907D01*
X5113907Y-14012431D01*
X5094860Y-14021955D01*
X5075812Y-14021955D01*
X5056764Y-14012431D01*
X5047241Y-14002907D01*
X5037717Y-13983860D01*
X5028193Y-13945764D01*
X5028193Y-13898145D01*
X5037717Y-13860050D01*
X5047241Y-13841002D01*
X5056764Y-13831479D01*
X5075812Y-13821955D01*
X5332955Y-14021955D02*
X5218669Y-14021955D01*
X5275812Y-14021955D02*
X5275812Y-13821955D01*
X5256764Y-13850526D01*
X5237717Y-13869574D01*
X5218669Y-13879098D01*
X5428193Y-14021955D02*
X5466288Y-14021955D01*
X5485336Y-14012431D01*
X5494860Y-14002907D01*
X5513907Y-13974336D01*
X5523431Y-13936241D01*
X5523431Y-13860050D01*
X5513907Y-13841002D01*
X5504383Y-13831479D01*
X5485336Y-13821955D01*
X5447241Y-13821955D01*
X5428193Y-13831479D01*
X5418669Y-13841002D01*
X5409145Y-13860050D01*
X5409145Y-13907669D01*
X5418669Y-13926717D01*
X5428193Y-13936241D01*
X5447241Y-13945764D01*
X5485336Y-13945764D01*
X5504383Y-13936241D01*
X5513907Y-13926717D01*
X5523431Y-13907669D01*
X5590098Y-13821955D02*
X5723431Y-13821955D01*
X5637717Y-14021955D01*
X5790098Y-13821955D02*
X5790098Y-13860050D01*
X5866288Y-13821955D02*
X5866288Y-13860050D01*
X6161526Y-14098145D02*
X6152002Y-14088621D01*
X6132955Y-14060050D01*
X6123431Y-14041002D01*
X6113907Y-14012431D01*
X6104383Y-13964812D01*
X6104383Y-13926717D01*
X6113907Y-13879098D01*
X6123431Y-13850526D01*
X6132955Y-13831479D01*
X6152002Y-13802907D01*
X6161526Y-13793383D01*
X6218669Y-13821955D02*
X6342479Y-13821955D01*
X6275812Y-13898145D01*
X6304383Y-13898145D01*
X6323431Y-13907669D01*
X6332955Y-13917193D01*
X6342479Y-13936241D01*
X6342479Y-13983860D01*
X6332955Y-14002907D01*
X6323431Y-14012431D01*
X6304383Y-14021955D01*
X6247240Y-14021955D01*
X6228193Y-14012431D01*
X6218669Y-14002907D01*
X6523431Y-13821955D02*
X6428193Y-13821955D01*
X6418669Y-13917193D01*
X6428193Y-13907669D01*
X6447240Y-13898145D01*
X6494859Y-13898145D01*
X6513907Y-13907669D01*
X6523431Y-13917193D01*
X6532955Y-13936241D01*
X6532955Y-13983860D01*
X6523431Y-14002907D01*
X6513907Y-14012431D01*
X6494859Y-14021955D01*
X6447240Y-14021955D01*
X6428193Y-14012431D01*
X6418669Y-14002907D01*
X6771050Y-14021955D02*
X6771050Y-13821955D01*
X6856764Y-14021955D02*
X6856764Y-13917193D01*
X6847240Y-13898145D01*
X6828193Y-13888621D01*
X6799621Y-13888621D01*
X6780574Y-13898145D01*
X6771050Y-13907669D01*
X6980574Y-14021955D02*
X6961526Y-14012431D01*
X6952002Y-14002907D01*
X6942479Y-13983860D01*
X6942479Y-13926717D01*
X6952002Y-13907669D01*
X6961526Y-13898145D01*
X6980574Y-13888621D01*
X7009145Y-13888621D01*
X7028193Y-13898145D01*
X7037717Y-13907669D01*
X7047240Y-13926717D01*
X7047240Y-13983860D01*
X7037717Y-14002907D01*
X7028193Y-14012431D01*
X7009145Y-14021955D01*
X6980574Y-14021955D01*
X7161526Y-14021955D02*
X7142479Y-14012431D01*
X7132955Y-13993383D01*
X7132955Y-13821955D01*
X7313907Y-14012431D02*
X7294859Y-14021955D01*
X7256764Y-14021955D01*
X7237717Y-14012431D01*
X7228193Y-13993383D01*
X7228193Y-13917193D01*
X7237717Y-13898145D01*
X7256764Y-13888621D01*
X7294859Y-13888621D01*
X7313907Y-13898145D01*
X7323431Y-13917193D01*
X7323431Y-13936241D01*
X7228193Y-13955288D01*
X7399621Y-14012431D02*
X7418669Y-14021955D01*
X7456764Y-14021955D01*
X7475812Y-14012431D01*
X7485336Y-13993383D01*
X7485336Y-13983860D01*
X7475812Y-13964812D01*
X7456764Y-13955288D01*
X7428193Y-13955288D01*
X7409145Y-13945764D01*
X7399621Y-13926717D01*
X7399621Y-13917193D01*
X7409145Y-13898145D01*
X7428193Y-13888621D01*
X7456764Y-13888621D01*
X7475812Y-13898145D01*
X7552002Y-14098145D02*
X7561526Y-14088621D01*
X7580574Y-14060050D01*
X7590098Y-14041002D01*
X7599621Y-14012431D01*
X7609145Y-13964812D01*
X7609145Y-13926717D01*
X7599621Y-13879098D01*
X7590098Y-13850526D01*
X7580574Y-13831479D01*
X7561526Y-13802907D01*
X7552002Y-13793383D01*
D17*
X2559622Y-14165479D02*
X2559622Y-14225479D01*
X2529622Y-14195479D02*
X2589622Y-14195479D01*
D14*
X2885336Y-14085955D02*
X2904383Y-14085955D01*
X2923431Y-14095479D01*
X2932955Y-14105002D01*
X2942479Y-14124050D01*
X2952002Y-14162145D01*
X2952002Y-14209764D01*
X2942479Y-14247860D01*
X2932955Y-14266907D01*
X2923431Y-14276431D01*
X2904383Y-14285955D01*
X2885336Y-14285955D01*
X2866288Y-14276431D01*
X2856764Y-14266907D01*
X2847240Y-14247860D01*
X2837717Y-14209764D01*
X2837717Y-14162145D01*
X2847240Y-14124050D01*
X2856764Y-14105002D01*
X2866288Y-14095479D01*
X2885336Y-14085955D01*
X3037717Y-14266907D02*
X3047240Y-14276431D01*
X3037717Y-14285955D01*
X3028193Y-14276431D01*
X3037717Y-14266907D01*
X3037717Y-14285955D01*
X3218669Y-14085955D02*
X3180574Y-14085955D01*
X3161526Y-14095479D01*
X3152002Y-14105002D01*
X3132955Y-14133574D01*
X3123431Y-14171669D01*
X3123431Y-14247860D01*
X3132955Y-14266907D01*
X3142479Y-14276431D01*
X3161526Y-14285955D01*
X3199621Y-14285955D01*
X3218669Y-14276431D01*
X3228193Y-14266907D01*
X3237717Y-14247860D01*
X3237717Y-14200241D01*
X3228193Y-14181193D01*
X3218669Y-14171669D01*
X3199621Y-14162145D01*
X3161526Y-14162145D01*
X3142479Y-14171669D01*
X3132955Y-14181193D01*
X3123431Y-14200241D01*
X3361526Y-14085955D02*
X3380574Y-14085955D01*
X3399621Y-14095479D01*
X3409145Y-14105002D01*
X3418669Y-14124050D01*
X3428193Y-14162145D01*
X3428193Y-14209764D01*
X3418669Y-14247860D01*
X3409145Y-14266907D01*
X3399621Y-14276431D01*
X3380574Y-14285955D01*
X3361526Y-14285955D01*
X3342479Y-14276431D01*
X3332955Y-14266907D01*
X3323431Y-14247860D01*
X3313907Y-14209764D01*
X3313907Y-14162145D01*
X3323431Y-14124050D01*
X3332955Y-14105002D01*
X3342479Y-14095479D01*
X3361526Y-14085955D01*
X3552002Y-14085955D02*
X3571050Y-14085955D01*
X3590098Y-14095479D01*
X3599621Y-14105002D01*
X3609145Y-14124050D01*
X3618669Y-14162145D01*
X3618669Y-14209764D01*
X3609145Y-14247860D01*
X3599621Y-14266907D01*
X3590098Y-14276431D01*
X3571050Y-14285955D01*
X3552002Y-14285955D01*
X3532955Y-14276431D01*
X3523431Y-14266907D01*
X3513907Y-14247860D01*
X3504383Y-14209764D01*
X3504383Y-14162145D01*
X3513907Y-14124050D01*
X3523431Y-14105002D01*
X3532955Y-14095479D01*
X3552002Y-14085955D01*
X3704383Y-14285955D02*
X3704383Y-14152621D01*
X3704383Y-14171669D02*
X3713907Y-14162145D01*
X3732955Y-14152621D01*
X3761526Y-14152621D01*
X3780574Y-14162145D01*
X3790098Y-14181193D01*
X3790098Y-14285955D01*
X3790098Y-14181193D02*
X3799621Y-14162145D01*
X3818669Y-14152621D01*
X3847240Y-14152621D01*
X3866288Y-14162145D01*
X3875812Y-14181193D01*
X3875812Y-14285955D01*
X3971050Y-14285955D02*
X3971050Y-14152621D01*
X3971050Y-14171669D02*
X3980574Y-14162145D01*
X3999621Y-14152621D01*
X4028193Y-14152621D01*
X4047240Y-14162145D01*
X4056764Y-14181193D01*
X4056764Y-14285955D01*
X4056764Y-14181193D02*
X4066288Y-14162145D01*
X4085336Y-14152621D01*
X4113907Y-14152621D01*
X4132955Y-14162145D01*
X4142479Y-14181193D01*
X4142479Y-14285955D01*
X4532955Y-14076431D02*
X4361526Y-14333574D01*
X4790098Y-14085955D02*
X4809145Y-14085955D01*
X4828193Y-14095479D01*
X4837717Y-14105002D01*
X4847241Y-14124050D01*
X4856764Y-14162145D01*
X4856764Y-14209764D01*
X4847241Y-14247860D01*
X4837717Y-14266907D01*
X4828193Y-14276431D01*
X4809145Y-14285955D01*
X4790098Y-14285955D01*
X4771050Y-14276431D01*
X4761526Y-14266907D01*
X4752002Y-14247860D01*
X4742479Y-14209764D01*
X4742479Y-14162145D01*
X4752002Y-14124050D01*
X4761526Y-14105002D01*
X4771050Y-14095479D01*
X4790098Y-14085955D01*
X4942479Y-14266907D02*
X4952002Y-14276431D01*
X4942479Y-14285955D01*
X4932955Y-14276431D01*
X4942479Y-14266907D01*
X4942479Y-14285955D01*
X5075812Y-14085955D02*
X5094860Y-14085955D01*
X5113907Y-14095479D01*
X5123431Y-14105002D01*
X5132955Y-14124050D01*
X5142479Y-14162145D01*
X5142479Y-14209764D01*
X5132955Y-14247860D01*
X5123431Y-14266907D01*
X5113907Y-14276431D01*
X5094860Y-14285955D01*
X5075812Y-14285955D01*
X5056764Y-14276431D01*
X5047241Y-14266907D01*
X5037717Y-14247860D01*
X5028193Y-14209764D01*
X5028193Y-14162145D01*
X5037717Y-14124050D01*
X5047241Y-14105002D01*
X5056764Y-14095479D01*
X5075812Y-14085955D01*
X5218669Y-14105002D02*
X5228193Y-14095479D01*
X5247241Y-14085955D01*
X5294860Y-14085955D01*
X5313907Y-14095479D01*
X5323431Y-14105002D01*
X5332955Y-14124050D01*
X5332955Y-14143098D01*
X5323431Y-14171669D01*
X5209145Y-14285955D01*
X5332955Y-14285955D01*
X5399621Y-14085955D02*
X5523431Y-14085955D01*
X5456764Y-14162145D01*
X5485336Y-14162145D01*
X5504383Y-14171669D01*
X5513907Y-14181193D01*
X5523431Y-14200241D01*
X5523431Y-14247860D01*
X5513907Y-14266907D01*
X5504383Y-14276431D01*
X5485336Y-14285955D01*
X5428193Y-14285955D01*
X5409145Y-14276431D01*
X5399621Y-14266907D01*
X5694859Y-14085955D02*
X5656764Y-14085955D01*
X5637717Y-14095479D01*
X5628193Y-14105002D01*
X5609145Y-14133574D01*
X5599621Y-14171669D01*
X5599621Y-14247860D01*
X5609145Y-14266907D01*
X5618669Y-14276431D01*
X5637717Y-14285955D01*
X5675812Y-14285955D01*
X5694859Y-14276431D01*
X5704383Y-14266907D01*
X5713907Y-14247860D01*
X5713907Y-14200241D01*
X5704383Y-14181193D01*
X5694859Y-14171669D01*
X5675812Y-14162145D01*
X5637717Y-14162145D01*
X5618669Y-14171669D01*
X5609145Y-14181193D01*
X5599621Y-14200241D01*
X5790098Y-14085955D02*
X5790098Y-14124050D01*
X5866288Y-14085955D02*
X5866288Y-14124050D01*
X6161526Y-14362145D02*
X6152002Y-14352621D01*
X6132955Y-14324050D01*
X6123431Y-14305002D01*
X6113907Y-14276431D01*
X6104383Y-14228812D01*
X6104383Y-14190717D01*
X6113907Y-14143098D01*
X6123431Y-14114526D01*
X6132955Y-14095479D01*
X6152002Y-14066907D01*
X6161526Y-14057383D01*
X6275812Y-14085955D02*
X6294859Y-14085955D01*
X6313907Y-14095479D01*
X6323431Y-14105002D01*
X6332955Y-14124050D01*
X6342479Y-14162145D01*
X6342479Y-14209764D01*
X6332955Y-14247860D01*
X6323431Y-14266907D01*
X6313907Y-14276431D01*
X6294859Y-14285955D01*
X6275812Y-14285955D01*
X6256764Y-14276431D01*
X6247240Y-14266907D01*
X6237717Y-14247860D01*
X6228193Y-14209764D01*
X6228193Y-14162145D01*
X6237717Y-14124050D01*
X6247240Y-14105002D01*
X6256764Y-14095479D01*
X6275812Y-14085955D01*
X6580574Y-14285955D02*
X6580574Y-14085955D01*
X6666288Y-14285955D02*
X6666288Y-14181193D01*
X6656764Y-14162145D01*
X6637717Y-14152621D01*
X6609145Y-14152621D01*
X6590098Y-14162145D01*
X6580574Y-14171669D01*
X6790098Y-14285955D02*
X6771050Y-14276431D01*
X6761526Y-14266907D01*
X6752002Y-14247860D01*
X6752002Y-14190717D01*
X6761526Y-14171669D01*
X6771050Y-14162145D01*
X6790098Y-14152621D01*
X6818669Y-14152621D01*
X6837717Y-14162145D01*
X6847240Y-14171669D01*
X6856764Y-14190717D01*
X6856764Y-14247860D01*
X6847240Y-14266907D01*
X6837717Y-14276431D01*
X6818669Y-14285955D01*
X6790098Y-14285955D01*
X6971050Y-14285955D02*
X6952002Y-14276431D01*
X6942479Y-14257383D01*
X6942479Y-14085955D01*
X7123431Y-14276431D02*
X7104383Y-14285955D01*
X7066288Y-14285955D01*
X7047240Y-14276431D01*
X7037717Y-14257383D01*
X7037717Y-14181193D01*
X7047240Y-14162145D01*
X7066288Y-14152621D01*
X7104383Y-14152621D01*
X7123431Y-14162145D01*
X7132955Y-14181193D01*
X7132955Y-14200241D01*
X7037717Y-14219288D01*
X7209145Y-14276431D02*
X7228193Y-14285955D01*
X7266288Y-14285955D01*
X7285336Y-14276431D01*
X7294859Y-14257383D01*
X7294859Y-14247860D01*
X7285336Y-14228812D01*
X7266288Y-14219288D01*
X7237717Y-14219288D01*
X7218669Y-14209764D01*
X7209145Y-14190717D01*
X7209145Y-14181193D01*
X7218669Y-14162145D01*
X7237717Y-14152621D01*
X7266288Y-14152621D01*
X7285336Y-14162145D01*
X7532955Y-14209764D02*
X7685336Y-14209764D01*
X7609145Y-14285955D02*
X7609145Y-14133574D01*
X7961526Y-14171669D02*
X7942479Y-14162145D01*
X7932955Y-14152621D01*
X7923431Y-14133574D01*
X7923431Y-14124050D01*
X7932955Y-14105002D01*
X7942479Y-14095479D01*
X7961526Y-14085955D01*
X7999621Y-14085955D01*
X8018669Y-14095479D01*
X8028193Y-14105002D01*
X8037717Y-14124050D01*
X8037717Y-14133574D01*
X8028193Y-14152621D01*
X8018669Y-14162145D01*
X7999621Y-14171669D01*
X7961526Y-14171669D01*
X7942479Y-14181193D01*
X7932955Y-14190717D01*
X7923431Y-14209764D01*
X7923431Y-14247860D01*
X7932955Y-14266907D01*
X7942479Y-14276431D01*
X7961526Y-14285955D01*
X7999621Y-14285955D01*
X8018669Y-14276431D01*
X8028193Y-14266907D01*
X8037717Y-14247860D01*
X8037717Y-14209764D01*
X8028193Y-14190717D01*
X8018669Y-14181193D01*
X7999621Y-14171669D01*
X8266288Y-14276431D02*
X8285336Y-14285955D01*
X8323431Y-14285955D01*
X8342479Y-14276431D01*
X8352002Y-14257383D01*
X8352002Y-14247860D01*
X8342479Y-14228812D01*
X8323431Y-14219288D01*
X8294859Y-14219288D01*
X8275812Y-14209764D01*
X8266288Y-14190717D01*
X8266288Y-14181193D01*
X8275812Y-14162145D01*
X8294859Y-14152621D01*
X8323431Y-14152621D01*
X8342479Y-14162145D01*
X8466288Y-14285955D02*
X8447241Y-14276431D01*
X8437717Y-14257383D01*
X8437717Y-14085955D01*
X8571050Y-14285955D02*
X8552002Y-14276431D01*
X8542479Y-14266907D01*
X8532955Y-14247860D01*
X8532955Y-14190717D01*
X8542479Y-14171669D01*
X8552002Y-14162145D01*
X8571050Y-14152621D01*
X8599621Y-14152621D01*
X8618669Y-14162145D01*
X8628193Y-14171669D01*
X8637717Y-14190717D01*
X8637717Y-14247860D01*
X8628193Y-14266907D01*
X8618669Y-14276431D01*
X8599621Y-14285955D01*
X8571050Y-14285955D01*
X8694860Y-14152621D02*
X8771050Y-14152621D01*
X8723431Y-14085955D02*
X8723431Y-14257383D01*
X8732955Y-14276431D01*
X8752002Y-14285955D01*
X8771050Y-14285955D01*
X8828193Y-14276431D02*
X8847241Y-14285955D01*
X8885336Y-14285955D01*
X8904383Y-14276431D01*
X8913907Y-14257383D01*
X8913907Y-14247860D01*
X8904383Y-14228812D01*
X8885336Y-14219288D01*
X8856764Y-14219288D01*
X8837717Y-14209764D01*
X8828193Y-14190717D01*
X8828193Y-14181193D01*
X8837717Y-14162145D01*
X8856764Y-14152621D01*
X8885336Y-14152621D01*
X8904383Y-14162145D01*
X8980574Y-14362145D02*
X8990098Y-14352621D01*
X9009145Y-14324050D01*
X9018669Y-14305002D01*
X9028193Y-14276431D01*
X9037717Y-14228812D01*
X9037717Y-14190717D01*
X9028193Y-14143098D01*
X9018669Y-14114526D01*
X9009145Y-14095479D01*
X8990098Y-14066907D01*
X8980574Y-14057383D01*
M02*
