G04 #@! TF.GenerationSoftware,KiCad,Pcbnew,(6.0.11-0)*
G04 #@! TF.CreationDate,2023-02-19T21:32:45+08:00*
G04 #@! TF.ProjectId,3.1HeatingElement,332e3148-6561-4746-996e-67456c656d65,rev?*
G04 #@! TF.SameCoordinates,Original*
G04 #@! TF.FileFunction,Profile,NP*
%FSLAX46Y46*%
G04 Gerber Fmt 4.6, Leading zero omitted, Abs format (unit mm)*
G04 Created by KiCad (PCBNEW (6.0.11-0)) date 2023-02-19 21:32:45*
%MOMM*%
%LPD*%
G01*
G04 APERTURE LIST*
G04 #@! TA.AperFunction,Profile*
%ADD10C,0.050000*%
G04 #@! TD*
G04 #@! TA.AperFunction,Profile*
%ADD11C,0.100000*%
G04 #@! TD*
G04 #@! TA.AperFunction,Profile*
%ADD12C,0.000100*%
G04 #@! TD*
G04 APERTURE END LIST*
D10*
X168092719Y-95976476D02*
X163142719Y-95976476D01*
X159352719Y-82000000D02*
X160142719Y-82000000D01*
X147000000Y-109800000D02*
G75*
G03*
X149000000Y-109800000I1000000J0D01*
G01*
X147000000Y-66800000D02*
G75*
G03*
X149000000Y-66800000I1000000J0D01*
G01*
X35263235Y-63529389D02*
X40433235Y-63529389D01*
X40433235Y-63529389D02*
X40433235Y-66719389D01*
X40433235Y-66719389D02*
X35263235Y-66719389D01*
X35263235Y-66719389D02*
X35263235Y-63529389D01*
D11*
X141000000Y-149000000D02*
G75*
G03*
X147000000Y-143000000I0J6000000D01*
G01*
D10*
X27516941Y-66203455D02*
X30176941Y-66203455D01*
X30176941Y-66203455D02*
X30176941Y-69078455D01*
X30176941Y-69078455D02*
X27516941Y-69078455D01*
X27516941Y-69078455D02*
X27516941Y-66203455D01*
X255552719Y-111096476D02*
X260722719Y-111096476D01*
X260722719Y-111096476D02*
X260722719Y-114286476D01*
X260722719Y-114286476D02*
X255552719Y-114286476D01*
X255552719Y-114286476D02*
X255552719Y-111096476D01*
D12*
X86219781Y-133300002D02*
G75*
G03*
X86219781Y-133300002I-700000J0D01*
G01*
D10*
X160142719Y-134836476D02*
X163142719Y-134836476D01*
X282000000Y-149000000D02*
X155000000Y-149000000D01*
X240737719Y-96896476D02*
X245667719Y-96896476D01*
X245667719Y-96896476D02*
X245667719Y-100086476D01*
X245667719Y-100086476D02*
X240737719Y-100086476D01*
X240737719Y-100086476D02*
X240737719Y-96896476D01*
D11*
X147000000Y-53000000D02*
G75*
G03*
X141000000Y-47000000I-6000000J0D01*
G01*
D12*
X273092719Y-114250002D02*
G75*
G03*
X273092719Y-114250002I-700000J0D01*
G01*
D10*
X132865331Y-95976462D02*
X127915331Y-95976462D01*
X159352719Y-82000000D02*
X159352719Y-95976476D01*
X168092719Y-82000000D02*
X168092719Y-95976476D01*
X163142719Y-62836476D02*
X163142719Y-82000000D01*
X149000000Y-129200000D02*
G75*
G03*
X147000000Y-129200000I-1000000J0D01*
G01*
X184552719Y-59846476D02*
X191292719Y-59846476D01*
X191292719Y-59846476D02*
X191292719Y-64866476D01*
X191292719Y-64866476D02*
X184552719Y-64866476D01*
X184552719Y-64866476D02*
X184552719Y-59846476D01*
X149000000Y-85850000D02*
X149000000Y-109800000D01*
X160142719Y-62836476D02*
X163142719Y-62836476D01*
X288000000Y-53000000D02*
X288000000Y-143000000D01*
X147000000Y-129200000D02*
X147000000Y-143000000D01*
X132865331Y-82000000D02*
X132865331Y-62836462D01*
D11*
X155000000Y-47000000D02*
G75*
G03*
X149000000Y-53000000I0J-6000000D01*
G01*
D10*
X132865331Y-82000000D02*
X127915331Y-82000000D01*
D12*
X165292769Y-63599990D02*
G75*
G03*
X165292769Y-63599990I-700000J0D01*
G01*
D10*
X135865331Y-62836462D02*
X135865331Y-82000000D01*
X8000000Y-53000000D02*
X8000000Y-143000000D01*
D11*
X149000000Y-143000000D02*
G75*
G03*
X155000000Y-149000000I6000000J0D01*
G01*
D10*
X132865331Y-62836462D02*
X135865331Y-62836462D01*
D11*
X14000000Y-47000000D02*
G75*
G03*
X8000000Y-53000000I0J-6000000D01*
G01*
D10*
X160142719Y-134836476D02*
X160142719Y-95976476D01*
X171512719Y-59836476D02*
X178252719Y-59836476D01*
X178252719Y-59836476D02*
X178252719Y-64856476D01*
X178252719Y-64856476D02*
X171512719Y-64856476D01*
X171512719Y-64856476D02*
X171512719Y-59836476D01*
D12*
X165292762Y-133300001D02*
G75*
G03*
X165292762Y-133300001I-700000J0D01*
G01*
D10*
X147000000Y-66800000D02*
X147000000Y-53000000D01*
D12*
X24307281Y-63600000D02*
G75*
G03*
X24307281Y-63600000I-700000J0D01*
G01*
D10*
X14000000Y-47000000D02*
X141000000Y-47000000D01*
X14000000Y-149000000D02*
X141000000Y-149000000D01*
D12*
X273092719Y-63600000D02*
G75*
G03*
X273092719Y-63600000I-700000J0D01*
G01*
D10*
X163142719Y-95976476D02*
X163142719Y-134836476D01*
D12*
X132107238Y-133300001D02*
G75*
G03*
X132107238Y-133300001I-700000J0D01*
G01*
D10*
X62828029Y-96868934D02*
X67758029Y-96868934D01*
X67758029Y-96868934D02*
X67758029Y-100058934D01*
X67758029Y-100058934D02*
X62828029Y-100058934D01*
X62828029Y-100058934D02*
X62828029Y-96868934D01*
D11*
X288000000Y-53000000D02*
G75*
G03*
X282000000Y-47000000I-6000000J0D01*
G01*
D10*
X132865331Y-134836462D02*
X132865331Y-95976462D01*
X56032901Y-73690000D02*
X44122901Y-73690000D01*
X44122901Y-73690000D02*
X44122901Y-60160000D01*
X44122901Y-60160000D02*
X56032901Y-60160000D01*
X56032901Y-60160000D02*
X56032901Y-73690000D01*
X149000000Y-53000000D02*
X149000000Y-66800000D01*
X135865331Y-134836462D02*
X135865331Y-95976462D01*
X132865331Y-134836462D02*
X135865331Y-134836462D01*
X266022719Y-109058976D02*
X268682719Y-109058976D01*
X268682719Y-109058976D02*
X268682719Y-111933976D01*
X268682719Y-111933976D02*
X266022719Y-111933976D01*
X266022719Y-111933976D02*
X266022719Y-109058976D01*
X135865331Y-95976462D02*
X136655331Y-95976462D01*
D11*
X8000000Y-143000000D02*
G75*
G03*
X14000000Y-149000000I6000000J0D01*
G01*
D10*
X135865331Y-82000000D02*
X136655331Y-82000000D01*
X159352719Y-95976476D02*
X160142719Y-95976476D01*
D12*
X132107231Y-63599990D02*
G75*
G03*
X132107231Y-63599990I-700000J0D01*
G01*
D11*
X282000000Y-149000000D02*
G75*
G03*
X288000000Y-143000000I0J6000000D01*
G01*
D12*
X24307281Y-114250002D02*
G75*
G03*
X24307281Y-114250002I-700000J0D01*
G01*
D10*
X136655331Y-95976462D02*
X136655331Y-82000000D01*
X168092719Y-82000000D02*
X163142719Y-82000000D01*
X149000000Y-129200000D02*
X149000000Y-143000000D01*
X160142719Y-82000000D02*
X160142719Y-62836476D01*
X117755331Y-59836462D02*
X124495331Y-59836462D01*
X124495331Y-59836462D02*
X124495331Y-64856462D01*
X124495331Y-64856462D02*
X117755331Y-64856462D01*
X117755331Y-64856462D02*
X117755331Y-59836462D01*
X149000000Y-85850000D02*
G75*
G03*
X147000000Y-85850000I-1000000J0D01*
G01*
X239762719Y-102786476D02*
X251672719Y-102786476D01*
X251672719Y-102786476D02*
X251672719Y-116316476D01*
X251672719Y-116316476D02*
X239762719Y-116316476D01*
X239762719Y-116316476D02*
X239762719Y-102786476D01*
D12*
X211180219Y-133300002D02*
G75*
G03*
X211180219Y-133300002I-700000J0D01*
G01*
D10*
X147000000Y-85850000D02*
X147000000Y-109800000D01*
X282000000Y-47000000D02*
X155000000Y-47000000D01*
X104715331Y-59846462D02*
X111455331Y-59846462D01*
X111455331Y-59846462D02*
X111455331Y-64866462D01*
X111455331Y-64866462D02*
X104715331Y-64866462D01*
X104715331Y-64866462D02*
X104715331Y-59846462D01*
X127915331Y-95976462D02*
X127915331Y-82000000D01*
M02*
