G04 #@! TF.GenerationSoftware,KiCad,Pcbnew,(6.0.11-0)*
G04 #@! TF.CreationDate,2023-02-19T21:32:45+08:00*
G04 #@! TF.ProjectId,3.1HeatingElement,332e3148-6561-4746-996e-67456c656d65,rev?*
G04 #@! TF.SameCoordinates,Original*
G04 #@! TF.FileFunction,Soldermask,Top*
G04 #@! TF.FilePolarity,Negative*
%FSLAX46Y46*%
G04 Gerber Fmt 4.6, Leading zero omitted, Abs format (unit mm)*
G04 Created by KiCad (PCBNEW (6.0.11-0)) date 2023-02-19 21:32:45*
%MOMM*%
%LPD*%
G01*
G04 APERTURE LIST*
G04 Aperture macros list*
%AMRoundRect*
0 Rectangle with rounded corners*
0 $1 Rounding radius*
0 $2 $3 $4 $5 $6 $7 $8 $9 X,Y pos of 4 corners*
0 Add a 4 corners polygon primitive as box body*
4,1,4,$2,$3,$4,$5,$6,$7,$8,$9,$2,$3,0*
0 Add four circle primitives for the rounded corners*
1,1,$1+$1,$2,$3*
1,1,$1+$1,$4,$5*
1,1,$1+$1,$6,$7*
1,1,$1+$1,$8,$9*
0 Add four rect primitives between the rounded corners*
20,1,$1+$1,$2,$3,$4,$5,0*
20,1,$1+$1,$4,$5,$6,$7,0*
20,1,$1+$1,$6,$7,$8,$9,0*
20,1,$1+$1,$8,$9,$2,$3,0*%
G04 Aperture macros list end*
%ADD10C,0.500000*%
%ADD11RoundRect,0.600000X-3.900000X2.400000X-3.900000X-2.400000X3.900000X-2.400000X3.900000X2.400000X0*%
%ADD12C,3.000000*%
G04 APERTURE END LIST*
D10*
X147025000Y-79000000D03*
X148975000Y-77400000D03*
X147025000Y-112000000D03*
X147025000Y-113600000D03*
X148975000Y-80600000D03*
X148975000Y-126350000D03*
D11*
X128200000Y-54400000D03*
D10*
X148975000Y-114400000D03*
X147025000Y-111200000D03*
X148975000Y-127150000D03*
D12*
X14000000Y-143000000D03*
X141000000Y-53000000D03*
D10*
X147025000Y-127950000D03*
X147025000Y-127150000D03*
X148975000Y-115200000D03*
X148975000Y-74200000D03*
X147025000Y-114400000D03*
X147025000Y-73400000D03*
X148975000Y-127950000D03*
X148975000Y-68650000D03*
X148975000Y-123950000D03*
X148975000Y-78200000D03*
X147025000Y-118350000D03*
X148975000Y-115950000D03*
X147025000Y-81400000D03*
X147025000Y-78200000D03*
X148975000Y-73400000D03*
D11*
X167800000Y-54400000D03*
D10*
X147025000Y-83000000D03*
X147025000Y-79800000D03*
X147025000Y-70250000D03*
X147025000Y-71050000D03*
X147025000Y-122350000D03*
X147025000Y-120750000D03*
D12*
X14000000Y-53000000D03*
D10*
X147025000Y-115950000D03*
X147025000Y-119950000D03*
X147025000Y-124750000D03*
X148975000Y-75800000D03*
X147025000Y-83800000D03*
X148975000Y-119950000D03*
X148975000Y-67850000D03*
X148975000Y-112800000D03*
D12*
X155000000Y-143000000D03*
D10*
X147025000Y-75800000D03*
X148975000Y-76600000D03*
X147025000Y-71850000D03*
X148975000Y-118350000D03*
X147025000Y-80600000D03*
X147025000Y-74200000D03*
X147025000Y-68650000D03*
X147025000Y-115200000D03*
X148975000Y-75000000D03*
X147025000Y-69450000D03*
X148975000Y-84600000D03*
X147025000Y-121550000D03*
X148975000Y-111200000D03*
X148975000Y-121550000D03*
X148975000Y-117550000D03*
X148975000Y-119150000D03*
X148975000Y-116750000D03*
X148975000Y-120750000D03*
X147025000Y-117550000D03*
X148975000Y-83800000D03*
X147025000Y-116750000D03*
D12*
X141000000Y-143000000D03*
D10*
X148975000Y-113600000D03*
X147025000Y-72600000D03*
X148975000Y-124750000D03*
X147025000Y-76600000D03*
X147025000Y-67850000D03*
X147025000Y-126350000D03*
X148975000Y-122350000D03*
X148975000Y-125550000D03*
D12*
X282000000Y-143000000D03*
D10*
X148975000Y-82200000D03*
X148975000Y-72600000D03*
D11*
X26800000Y-54400000D03*
D10*
X147025000Y-123950000D03*
X147025000Y-84600000D03*
X148975000Y-83000000D03*
X147025000Y-112800000D03*
X147025000Y-75000000D03*
X148975000Y-69450000D03*
X147025000Y-77400000D03*
X148975000Y-79800000D03*
D11*
X269200000Y-54400000D03*
D10*
X148975000Y-70250000D03*
X147025000Y-119150000D03*
X147025000Y-82200000D03*
D12*
X282000000Y-53000000D03*
D10*
X147025000Y-123150000D03*
D12*
X155000000Y-53000000D03*
D10*
X147025000Y-125550000D03*
X148975000Y-81400000D03*
X148975000Y-112000000D03*
X148975000Y-79000000D03*
X148975000Y-123150000D03*
X148975000Y-71050000D03*
X148975000Y-71850000D03*
M02*
