G04 #@! TF.GenerationSoftware,KiCad,Pcbnew,(6.0.11-0)*
G04 #@! TF.CreationDate,2023-02-19T21:32:45+08:00*
G04 #@! TF.ProjectId,3.1HeatingElement,332e3148-6561-4746-996e-67456c656d65,rev?*
G04 #@! TF.SameCoordinates,Original*
G04 #@! TF.FileFunction,Soldermask,Bot*
G04 #@! TF.FilePolarity,Negative*
%FSLAX46Y46*%
G04 Gerber Fmt 4.6, Leading zero omitted, Abs format (unit mm)*
G04 Created by KiCad (PCBNEW (6.0.11-0)) date 2023-02-19 21:32:45*
%MOMM*%
%LPD*%
G01*
G04 APERTURE LIST*
%ADD10C,0.500000*%
%ADD11C,3.000000*%
G04 APERTURE END LIST*
D10*
X147025000Y-79000000D03*
X148975000Y-77400000D03*
X147025000Y-112000000D03*
X147025000Y-113600000D03*
X148975000Y-80600000D03*
X148975000Y-126350000D03*
X148975000Y-114400000D03*
X147025000Y-111200000D03*
X148975000Y-127150000D03*
D11*
X14000000Y-143000000D03*
X141000000Y-53000000D03*
D10*
X147025000Y-127950000D03*
X147025000Y-127150000D03*
X148975000Y-115200000D03*
X148975000Y-74200000D03*
X147025000Y-114400000D03*
X147025000Y-73400000D03*
X148975000Y-127950000D03*
X148975000Y-68650000D03*
X148975000Y-123950000D03*
X148975000Y-78200000D03*
X147025000Y-118350000D03*
X148975000Y-115950000D03*
X147025000Y-81400000D03*
X147025000Y-78200000D03*
X148975000Y-73400000D03*
X147025000Y-83000000D03*
X147025000Y-79800000D03*
X147025000Y-70250000D03*
X147025000Y-71050000D03*
X147025000Y-122350000D03*
X147025000Y-120750000D03*
D11*
X14000000Y-53000000D03*
D10*
X147025000Y-115950000D03*
X147025000Y-119950000D03*
X147025000Y-124750000D03*
X148975000Y-75800000D03*
X147025000Y-83800000D03*
X148975000Y-119950000D03*
X148975000Y-67850000D03*
X148975000Y-112800000D03*
D11*
X155000000Y-143000000D03*
D10*
X147025000Y-75800000D03*
X148975000Y-76600000D03*
X147025000Y-71850000D03*
X148975000Y-118350000D03*
X147025000Y-80600000D03*
X147025000Y-74200000D03*
X147025000Y-68650000D03*
X147025000Y-115200000D03*
X148975000Y-75000000D03*
X147025000Y-69450000D03*
X148975000Y-84600000D03*
X147025000Y-121550000D03*
X148975000Y-111200000D03*
X148975000Y-121550000D03*
X148975000Y-117550000D03*
X148975000Y-119150000D03*
X148975000Y-116750000D03*
X148975000Y-120750000D03*
X147025000Y-117550000D03*
X148975000Y-83800000D03*
X147025000Y-116750000D03*
D11*
X141000000Y-143000000D03*
D10*
X148975000Y-113600000D03*
X147025000Y-72600000D03*
X148975000Y-124750000D03*
X147025000Y-76600000D03*
X147025000Y-67850000D03*
X147025000Y-126350000D03*
X148975000Y-122350000D03*
X148975000Y-125550000D03*
D11*
X282000000Y-143000000D03*
D10*
X148975000Y-82200000D03*
X148975000Y-72600000D03*
X147025000Y-123950000D03*
X147025000Y-84600000D03*
X148975000Y-83000000D03*
X147025000Y-112800000D03*
X147025000Y-75000000D03*
X148975000Y-69450000D03*
X147025000Y-77400000D03*
X148975000Y-79800000D03*
X148975000Y-70250000D03*
X147025000Y-119150000D03*
X147025000Y-82200000D03*
D11*
X282000000Y-53000000D03*
D10*
X147025000Y-123150000D03*
D11*
X155000000Y-53000000D03*
D10*
X147025000Y-125550000D03*
X148975000Y-81400000D03*
X148975000Y-112000000D03*
X148975000Y-79000000D03*
X148975000Y-123150000D03*
X148975000Y-71050000D03*
X148975000Y-71850000D03*
M02*
