M48
; DRILL file {KiCad (6.0.11-0)} date Sunday, 19 February 2023 at 09:32:53 pm
; FORMAT={-:-/ absolute / metric / decimal}
; #@! TF.CreationDate,2023-02-19T21:32:53+08:00
; #@! TF.GenerationSoftware,Kicad,Pcbnew,(6.0.11-0)
; #@! TF.FileFunction,NonPlated,1,2,NPTH
FMAT,2
METRIC
; #@! TA.AperFunction,NonPlated,NPTH,ComponentDrill
T1C0.500
; #@! TA.AperFunction,NonPlated,NPTH,ComponentDrill
T2C3.000
%
G90
G05
T1
X147.025Y-67.85
X147.025Y-68.65
X147.025Y-69.45
X147.025Y-70.25
X147.025Y-71.05
X147.025Y-71.85
X147.025Y-72.6
X147.025Y-73.4
X147.025Y-74.2
X147.025Y-75.0
X147.025Y-75.8
X147.025Y-76.6
X147.025Y-77.4
X147.025Y-78.2
X147.025Y-79.0
X147.025Y-79.8
X147.025Y-80.6
X147.025Y-81.4
X147.025Y-82.2
X147.025Y-83.0
X147.025Y-83.8
X147.025Y-84.6
X147.025Y-111.2
X147.025Y-112.0
X147.025Y-112.8
X147.025Y-113.6
X147.025Y-114.4
X147.025Y-115.2
X147.025Y-115.95
X147.025Y-116.75
X147.025Y-117.55
X147.025Y-118.35
X147.025Y-119.15
X147.025Y-119.95
X147.025Y-120.75
X147.025Y-121.55
X147.025Y-122.35
X147.025Y-123.15
X147.025Y-123.95
X147.025Y-124.75
X147.025Y-125.55
X147.025Y-126.35
X147.025Y-127.15
X147.025Y-127.95
X148.975Y-67.85
X148.975Y-68.65
X148.975Y-69.45
X148.975Y-70.25
X148.975Y-71.05
X148.975Y-71.85
X148.975Y-72.6
X148.975Y-73.4
X148.975Y-74.2
X148.975Y-75.0
X148.975Y-75.8
X148.975Y-76.6
X148.975Y-77.4
X148.975Y-78.2
X148.975Y-79.0
X148.975Y-79.8
X148.975Y-80.6
X148.975Y-81.4
X148.975Y-82.2
X148.975Y-83.0
X148.975Y-83.8
X148.975Y-84.6
X148.975Y-111.2
X148.975Y-112.0
X148.975Y-112.8
X148.975Y-113.6
X148.975Y-114.4
X148.975Y-115.2
X148.975Y-115.95
X148.975Y-116.75
X148.975Y-117.55
X148.975Y-118.35
X148.975Y-119.15
X148.975Y-119.95
X148.975Y-120.75
X148.975Y-121.55
X148.975Y-122.35
X148.975Y-123.15
X148.975Y-123.95
X148.975Y-124.75
X148.975Y-125.55
X148.975Y-126.35
X148.975Y-127.15
X148.975Y-127.95
T2
X14.0Y-53.0
X14.0Y-143.0
X141.0Y-53.0
X141.0Y-143.0
X155.0Y-53.0
X155.0Y-143.0
X282.0Y-53.0
X282.0Y-143.0
T0
M30
