G04 #@! TF.GenerationSoftware,KiCad,Pcbnew,(6.0.11-0)*
G04 #@! TF.CreationDate,2023-02-19T21:32:44+08:00*
G04 #@! TF.ProjectId,3.1HeatingElement,332e3148-6561-4746-996e-67456c656d65,rev?*
G04 #@! TF.SameCoordinates,Original*
G04 #@! TF.FileFunction,Legend,Top*
G04 #@! TF.FilePolarity,Positive*
%FSLAX46Y46*%
G04 Gerber Fmt 4.6, Leading zero omitted, Abs format (unit mm)*
G04 Created by KiCad (PCBNEW (6.0.11-0)) date 2023-02-19 21:32:44*
%MOMM*%
%LPD*%
G01*
G04 APERTURE LIST*
G04 Aperture macros list*
%AMRoundRect*
0 Rectangle with rounded corners*
0 $1 Rounding radius*
0 $2 $3 $4 $5 $6 $7 $8 $9 X,Y pos of 4 corners*
0 Add a 4 corners polygon primitive as box body*
4,1,4,$2,$3,$4,$5,$6,$7,$8,$9,$2,$3,0*
0 Add four circle primitives for the rounded corners*
1,1,$1+$1,$2,$3*
1,1,$1+$1,$4,$5*
1,1,$1+$1,$6,$7*
1,1,$1+$1,$8,$9*
0 Add four rect primitives between the rounded corners*
20,1,$1+$1,$2,$3,$4,$5,0*
20,1,$1+$1,$4,$5,$6,$7,0*
20,1,$1+$1,$6,$7,$8,$9,0*
20,1,$1+$1,$8,$9,$2,$3,0*%
G04 Aperture macros list end*
%ADD10C,1.200000*%
%ADD11C,0.038100*%
%ADD12C,1.000000*%
%ADD13C,0.030000*%
%ADD14C,0.150000*%
%ADD15C,0.500000*%
%ADD16RoundRect,0.600000X-3.900000X2.400000X-3.900000X-2.400000X3.900000X-2.400000X3.900000X2.400000X0*%
%ADD17C,3.000000*%
G04 APERTURE END LIST*
D10*
X162237053Y-62305711D02*
X162000000Y-62728671D01*
D11*
X217069287Y-118170326D02*
X217029899Y-118180106D01*
X216990718Y-118190120D01*
X216951745Y-118200369D01*
X216912980Y-118210853D01*
X216874423Y-118221572D01*
X216836074Y-118232526D01*
X216797933Y-118243716D01*
X216760000Y-118255142D01*
X216722275Y-118266805D01*
X216684759Y-118278704D01*
X216659864Y-118286769D01*
D10*
X131833002Y-136075510D02*
X132157579Y-135949856D01*
X81623244Y-119326457D02*
X81716620Y-119478193D01*
X211222508Y-135949869D02*
X211351550Y-135892768D01*
X161531224Y-132483181D02*
X161633635Y-133043586D01*
X274748438Y-62305712D02*
X274476057Y-61922386D01*
X77377831Y-117399986D02*
X77506920Y-117399986D01*
X81886006Y-119806932D02*
X82001040Y-120079774D01*
X274165386Y-116248473D02*
X274216382Y-116197622D01*
D12*
X211380219Y-133300002D02*
G75*
G03*
X211380219Y-133300002I-900000J0D01*
G01*
D10*
X134487301Y-132396903D02*
X134498793Y-132302299D01*
X163298485Y-135655721D02*
X163721432Y-135892771D01*
X213563721Y-132302336D02*
X213608811Y-131796987D01*
X78602189Y-117488125D02*
X78839446Y-117532319D01*
X274070348Y-61516678D02*
X273687008Y-61244285D01*
X212199081Y-135346512D02*
X212252901Y-135298451D01*
X216310007Y-117776791D02*
X216467070Y-117718313D01*
X273687008Y-61244285D02*
X273264048Y-61007232D01*
X86430936Y-136372016D02*
X86525504Y-136383503D01*
X21667721Y-61776306D02*
X21616882Y-61827299D01*
X133362892Y-135123661D02*
X133413719Y-135072686D01*
X161442770Y-65858498D02*
X161442769Y-84353000D01*
X83172118Y-134594275D02*
X83444517Y-134977621D01*
X161790929Y-133639901D02*
X161817253Y-133717766D01*
X275351853Y-113993589D02*
X275454269Y-113433193D01*
X23871751Y-117209129D02*
X24432156Y-117311540D01*
X82377831Y-122270897D02*
X82377831Y-122399986D01*
X82935065Y-134171310D02*
X83172118Y-134594275D01*
X133362892Y-61776312D02*
X133301015Y-61714251D01*
X161942893Y-134042291D02*
X161999994Y-134171327D01*
X162594320Y-61827314D02*
X162546275Y-61881124D01*
X82245498Y-120938371D02*
X82289692Y-121175628D01*
X164321040Y-136124896D02*
X164849192Y-136259137D01*
X133413730Y-61827300D02*
X133362892Y-61776312D01*
G36*
X208238266Y-137050000D02*
G01*
X203909267Y-137050000D01*
X203909267Y-135850000D01*
X208238266Y-135850000D01*
X208238266Y-137050000D01*
G37*
G36*
X61491286Y-116799986D02*
G01*
X56413285Y-116799986D01*
X56413285Y-117999986D01*
X61491286Y-117999986D01*
X61491286Y-116799986D01*
G37*
G36*
X103283236Y-59849986D02*
G01*
X25857284Y-59849986D01*
X25857284Y-61049986D01*
X103283236Y-61049986D01*
X103283236Y-59849986D01*
G37*
X275168241Y-63182262D02*
X275042594Y-62857713D01*
X162873898Y-61553502D02*
X162820084Y-61601550D01*
X213552237Y-132396937D02*
X213563721Y-132302336D01*
X162237048Y-134594289D02*
X162509415Y-134977594D01*
X213630219Y-131041501D02*
X213630219Y-122400000D01*
X24613000Y-60516480D02*
X24518389Y-60527968D01*
X82877962Y-134042274D02*
X82935065Y-134171310D01*
X82349923Y-121680309D02*
X82363992Y-121857830D01*
X275521316Y-65103015D02*
X275476234Y-64597675D01*
X165409603Y-136361548D02*
X165495836Y-136372023D01*
X275454269Y-64416841D02*
X275351853Y-63856421D01*
X131158858Y-136259123D02*
X131687010Y-136124882D01*
X214192408Y-119658567D02*
X214291430Y-119478207D01*
X22743981Y-116842759D02*
X22873041Y-116899860D01*
X20656197Y-113993575D02*
X20790429Y-114521712D01*
X82377831Y-131041487D02*
X82399239Y-131796973D01*
X210751942Y-136124897D02*
X210820123Y-136101845D01*
D12*
X273292719Y-63600000D02*
G75*
G03*
X273292719Y-63600000I-900000J0D01*
G01*
D10*
X163850482Y-60950126D02*
X163721441Y-61007230D01*
X273264069Y-116842773D02*
X273686999Y-116605724D01*
X208221721Y-136450000D02*
X208977204Y-136428596D01*
X213948573Y-120236739D02*
X214007010Y-120079788D01*
X132709569Y-61244269D02*
X132286609Y-61007216D01*
X164849192Y-136259137D02*
X165409603Y-136361548D01*
X24518389Y-60527968D02*
X24432160Y-60538439D01*
X272732647Y-117051842D02*
X272810483Y-117025528D01*
X21616877Y-116022682D02*
X21667703Y-116073648D01*
X79970885Y-117891811D02*
X80119264Y-117962175D01*
X213630219Y-122400000D02*
X213630219Y-122270911D01*
X133498615Y-61922371D02*
X133461775Y-61881110D01*
X131686999Y-60775087D02*
X131158859Y-60640852D01*
X24518411Y-117322015D02*
X24613013Y-117333504D01*
X215130728Y-118463005D02*
X215336721Y-118304967D01*
G36*
X183084814Y-61050000D02*
G01*
X179724814Y-61050000D01*
X179724814Y-59850002D01*
X183084814Y-59850002D01*
X183084814Y-61050000D01*
G37*
X77919987Y-117413825D02*
X78097508Y-117427894D01*
X23275403Y-117051828D02*
X23343618Y-117074895D01*
G36*
X222316763Y-118000000D02*
G01*
X218687764Y-118000000D01*
X218687764Y-116800000D01*
X222316763Y-116800000D01*
X222316763Y-118000000D01*
G37*
X20965459Y-114992280D02*
X21022566Y-115121325D01*
G36*
X270050767Y-118000000D02*
G01*
X269072766Y-118000000D01*
X269072766Y-116800000D01*
X270050767Y-116800000D01*
X270050767Y-118000000D01*
G37*
X274439224Y-61881132D02*
X274391168Y-61827313D01*
X275476224Y-113252345D02*
X275521313Y-112746990D01*
X134217121Y-133639887D02*
X134240194Y-133571677D01*
X20553781Y-113433179D02*
X20656197Y-113993575D01*
G36*
X26935284Y-116799986D02*
G01*
X25957283Y-116799986D01*
X25957283Y-117999986D01*
X26935284Y-117999986D01*
X26935284Y-116799986D01*
G37*
X271575894Y-117311554D02*
X272136299Y-117209143D01*
X134498789Y-64597659D02*
X134487301Y-64503054D01*
X24432156Y-117311540D02*
X24518411Y-117322015D01*
X134543876Y-65103002D02*
X134498789Y-64597659D01*
X166095792Y-136428593D02*
X166851268Y-136450000D01*
X166851268Y-60450000D02*
X166095786Y-60471404D01*
X133301015Y-61714251D02*
X133238958Y-61652377D01*
G36*
X170084814Y-61050000D02*
G01*
X166850816Y-61050000D01*
X166850816Y-59850002D01*
X170084814Y-59850002D01*
X170084814Y-61050000D01*
G37*
X21937707Y-116333320D02*
X22321051Y-116605710D01*
X24613013Y-117333504D02*
X25118352Y-117378594D01*
X25873829Y-60449986D02*
X25118345Y-60471392D01*
D13*
X270223718Y-98449026D02*
G75*
G03*
X268973726Y-99699002I-18J-1249974D01*
G01*
D10*
X133770997Y-62305697D02*
X133498615Y-61922371D01*
X214007010Y-120079788D02*
X214122044Y-119806946D01*
X86344686Y-136361536D02*
X86430936Y-136372016D01*
X164252874Y-136101849D02*
X164321040Y-136124896D01*
X272810483Y-117025528D02*
X273135009Y-116899874D01*
X21937702Y-61516664D02*
X21896447Y-61553494D01*
X20839808Y-114667720D02*
X20965459Y-114992280D01*
X164175019Y-60824480D02*
X163850482Y-60950126D01*
X164252851Y-60798162D02*
X164175019Y-60824480D01*
X162769087Y-135247603D02*
X162820093Y-135298456D01*
X215006778Y-118574913D02*
X215130728Y-118463005D01*
X129912264Y-60471390D02*
X129156782Y-60449986D01*
X21022566Y-115121325D02*
X21259613Y-115544284D01*
X134565281Y-93496986D02*
X134565281Y-84352986D01*
X274216397Y-61652391D02*
X274165398Y-61601543D01*
X162546275Y-61881124D02*
X162509435Y-61922385D01*
X214535186Y-119106502D02*
X214693215Y-118900520D01*
X22873041Y-116899860D02*
X23197567Y-117025514D01*
X134476829Y-64416812D02*
X134374414Y-63856407D01*
X20839809Y-63182248D02*
X20813488Y-63260076D01*
X273135009Y-116899874D02*
X273264069Y-116842773D01*
X212427810Y-135123697D02*
X212478674Y-135072678D01*
X82001040Y-120079774D02*
X82059477Y-120236725D01*
D12*
X132307231Y-63599990D02*
G75*
G03*
X132307231Y-63599990I-900000J0D01*
G01*
D10*
X21791668Y-116197608D02*
X21842664Y-116248459D01*
X212365943Y-135185750D02*
X212427810Y-135123697D01*
X78427450Y-117463739D02*
X78602189Y-117488125D01*
X82191191Y-120699962D02*
X82245498Y-120938371D01*
X209482546Y-136383517D02*
X209577114Y-136372030D01*
X161999994Y-134171327D02*
X162237048Y-134594289D01*
X217910542Y-117427908D02*
X218088063Y-117413839D01*
X20656197Y-63856407D02*
X20553781Y-64416827D01*
X21022560Y-62728659D02*
X20965456Y-62857699D01*
X82752313Y-133717734D02*
X82877962Y-134042274D01*
X217168604Y-117532333D02*
X217405861Y-117488139D01*
X81102095Y-118675722D02*
X81203012Y-118776639D01*
X20486737Y-112746976D02*
X20531826Y-113252331D01*
X218088063Y-117413839D02*
X218156243Y-117410451D01*
X163721441Y-61007230D02*
X163298481Y-61244283D01*
X21616882Y-61827299D02*
X21568826Y-61881118D01*
X274985484Y-115121339D02*
X275042591Y-114992294D01*
G36*
X116283236Y-59849988D02*
G01*
X112923236Y-59849988D01*
X112923236Y-61049986D01*
X116283236Y-61049986D01*
X116283236Y-59849988D01*
G37*
X83529376Y-135072664D02*
X83580240Y-135123683D01*
X133134152Y-61553488D02*
X133092895Y-61516651D01*
X213282052Y-133639928D02*
X213305111Y-133571733D01*
X209577114Y-136372030D02*
X209663364Y-136361550D01*
X21667703Y-116073648D02*
X21729589Y-116135716D01*
X161633636Y-63856421D02*
X161531221Y-64416826D01*
X275454269Y-113433193D02*
X275464738Y-113346952D01*
X23871751Y-60640856D02*
X23343600Y-60775093D01*
X82146157Y-120519001D02*
X82191191Y-120699962D01*
X20543304Y-64503080D02*
X20531816Y-64597661D01*
X22321051Y-116605710D02*
X22743981Y-116842759D01*
X215336721Y-118304967D02*
X215488731Y-118199809D01*
X23197582Y-60824467D02*
X22873041Y-60950115D01*
X213072985Y-134171324D02*
X213130088Y-134042288D01*
X275168242Y-114667734D02*
X275194567Y-114589902D01*
X210223797Y-136259131D02*
X210751942Y-136124897D01*
X162915155Y-61516665D02*
X162873898Y-61553502D01*
X162707030Y-135185734D02*
X162769087Y-135247603D01*
X83755149Y-135298437D02*
X83808969Y-135346498D01*
X133771002Y-134594275D02*
X134008056Y-134171313D01*
X214805038Y-118776653D02*
X214905955Y-118675736D01*
X134374414Y-63856407D02*
X134240179Y-63328267D01*
X133461775Y-61881110D02*
X133413730Y-61827300D01*
G36*
X77320286Y-116799986D02*
G01*
X73691287Y-116799986D01*
X73691287Y-117999986D01*
X77320286Y-117999986D01*
X77320286Y-116799986D01*
G37*
X131687010Y-136124882D02*
X131755176Y-136101835D01*
G36*
X92098783Y-135849986D02*
G01*
X87769784Y-135849986D01*
X87769784Y-137049986D01*
X92098783Y-137049986D01*
X92098783Y-135849986D01*
G37*
X80119264Y-117962175D02*
X80299624Y-118061197D01*
X214430028Y-119258512D02*
X214535186Y-119106502D01*
X82314078Y-121350367D02*
X82349923Y-121680309D01*
X82725998Y-133639914D02*
X82752313Y-133717734D01*
X79540980Y-117718299D02*
X79698043Y-117776777D01*
G36*
X171180267Y-137050000D02*
G01*
X166851268Y-137050000D01*
X166851268Y-135850000D01*
X171180267Y-135850000D01*
X171180267Y-137050000D01*
G37*
X162707035Y-61714265D02*
X162645158Y-61776326D01*
X77506920Y-117399986D02*
X77851807Y-117410437D01*
X214693215Y-118900520D02*
X214805038Y-118776653D01*
X161817250Y-63182249D02*
X161790932Y-63260081D01*
X275042594Y-62857713D02*
X274985490Y-62728673D01*
X272136299Y-117209143D02*
X272664432Y-117074909D01*
X131755199Y-60798148D02*
X131686999Y-60775087D01*
X165590443Y-60516491D02*
X165495838Y-60527979D01*
X164321051Y-60775101D02*
X164252851Y-60798162D01*
X132286609Y-61007216D02*
X132157568Y-60950112D01*
X213630219Y-122270911D02*
X213640670Y-121926024D01*
D13*
X268973726Y-99699002D02*
X268973724Y-111524999D01*
D10*
X210820123Y-136101845D02*
X210897942Y-136075524D01*
X134543873Y-131796969D02*
X134565281Y-131041487D01*
X271395037Y-117333518D02*
X271489639Y-117322029D01*
X134565281Y-131041487D02*
X134565281Y-93496986D01*
X273135009Y-60950129D02*
X272810468Y-60824481D01*
X20486734Y-65103001D02*
X20465331Y-65858483D01*
X25118345Y-60471392D02*
X24613000Y-60516480D01*
X78097508Y-117427894D02*
X78427450Y-117463739D01*
X130512214Y-136372009D02*
X130598447Y-136361534D01*
X274278465Y-61714274D02*
X274216397Y-61652391D01*
X81001272Y-118574899D02*
X81102095Y-118675722D01*
X213255737Y-133717748D02*
X213282052Y-133639928D01*
D13*
X27049184Y-66325017D02*
G75*
G03*
X25799233Y-65075016I-1250084J-83D01*
G01*
G36*
X129149184Y-59850002D02*
G01*
X125915186Y-59850002D01*
X125915186Y-61050000D01*
X129149184Y-61050000D01*
X129149184Y-59850002D01*
G37*
D10*
X132157568Y-60950112D02*
X131833031Y-60824466D01*
X82289692Y-121175628D02*
X82314078Y-121350367D01*
X21842664Y-116248459D02*
X21896461Y-116296495D01*
X82367380Y-121926010D02*
X82377831Y-122270897D01*
X165409596Y-60538451D02*
X164849191Y-60640866D01*
D13*
X268973800Y-111524999D02*
G75*
G03*
X270223727Y-112775000I1250100J99D01*
G01*
X270223727Y-112775000D02*
X273892718Y-112774999D01*
D10*
X134487301Y-64503054D02*
X134476829Y-64416812D01*
D13*
X25799242Y-79401014D02*
G75*
G03*
X27049234Y-78151014I8J1249984D01*
G01*
D10*
X211351550Y-135892768D02*
X211774507Y-135655718D01*
X215708426Y-118061211D02*
X215888786Y-117962189D01*
X215488731Y-118199809D02*
X215556690Y-118154587D01*
X214384806Y-119326471D02*
X214430028Y-119258512D01*
X21842652Y-61601529D02*
X21791653Y-61652377D01*
X23275407Y-60798150D02*
X23197582Y-60824467D01*
X21568850Y-115968881D02*
X21616877Y-116022682D01*
X272136299Y-60640870D02*
X271575890Y-60538453D01*
X161520749Y-132396917D02*
X161531224Y-132483181D01*
X81472864Y-119106488D02*
X81578022Y-119258498D01*
D12*
X165492762Y-133300001D02*
G75*
G03*
X165492762Y-133300001I-900000J0D01*
G01*
D10*
X20790429Y-114521712D02*
X20813483Y-114589888D01*
X133238963Y-135247589D02*
X133301020Y-135185720D01*
X82455813Y-132396923D02*
X82466286Y-132483145D01*
X274070343Y-116333334D02*
X274111589Y-116296509D01*
X77851807Y-117410437D02*
X77919987Y-117413825D01*
X213658127Y-121680323D02*
X213693972Y-121350381D01*
X161442769Y-84353000D02*
X161442769Y-93497000D01*
X133461776Y-135018855D02*
X133498635Y-134977580D01*
D13*
X20880237Y-66325019D02*
X20880235Y-78151014D01*
D10*
X270134226Y-117400000D02*
X270889698Y-117378608D01*
X79078008Y-117586661D02*
X79258495Y-117631677D01*
X161633635Y-133043586D02*
X161767856Y-133571691D01*
X20465331Y-111991488D02*
X20486737Y-112746976D01*
G36*
X256872765Y-118000000D02*
G01*
X251794764Y-118000000D01*
X251794764Y-116800000D01*
X256872765Y-116800000D01*
X256872765Y-118000000D01*
G37*
X134240179Y-63328267D02*
X134217118Y-63260067D01*
X83580240Y-135123683D02*
X83642107Y-135185736D01*
X161531221Y-64416826D02*
X161520749Y-64503068D01*
X274748437Y-115544298D02*
X274985484Y-115121339D01*
X21568826Y-61881118D02*
X21531993Y-61922372D01*
X274985490Y-62728673D02*
X274748438Y-62305712D01*
X78839446Y-117532319D02*
X79078008Y-117586661D01*
X274340347Y-116073662D02*
X274391173Y-116022696D01*
X275217618Y-63328279D02*
X275194562Y-63260090D01*
X81314835Y-118900506D02*
X81472864Y-119106488D01*
X21729589Y-116135716D02*
X21791668Y-116197608D01*
X132286618Y-135892757D02*
X132709565Y-135655707D01*
X133134157Y-135346483D02*
X133187957Y-135298442D01*
X162873893Y-135346497D02*
X162915142Y-135383322D01*
X161767871Y-63328281D02*
X161633636Y-63856421D01*
X133301020Y-135185720D02*
X133362892Y-135123661D01*
X83850215Y-135383323D02*
X84233543Y-135655704D01*
X213305111Y-133571733D02*
X213439345Y-133043580D01*
X130598454Y-60538437D02*
X130512212Y-60527965D01*
X83704140Y-135247587D02*
X83755149Y-135298437D01*
X270889698Y-117378608D02*
X271395037Y-117333518D01*
X273686999Y-116605724D02*
X274070343Y-116333334D01*
X82702939Y-133571719D02*
X82725998Y-133639914D01*
X22873041Y-60950115D02*
X22744002Y-61007218D01*
G36*
X112627782Y-135849986D02*
G01*
X104298783Y-135849986D01*
X104298783Y-137049986D01*
X112627782Y-137049986D01*
X112627782Y-135849986D01*
G37*
X80519319Y-118199795D02*
X80671329Y-118304953D01*
D12*
X86419781Y-133300002D02*
G75*
G03*
X86419781Y-133300002I-900000J0D01*
G01*
D10*
X164175048Y-136075524D02*
X164252874Y-136101849D01*
X23343600Y-60775093D02*
X23275407Y-60798150D01*
X213861893Y-120519015D02*
X213948573Y-120236739D01*
X162820093Y-135298456D02*
X162873893Y-135346497D01*
X275351853Y-63856421D02*
X275217618Y-63328279D01*
X134065157Y-134042277D02*
X134190797Y-133717752D01*
X217405861Y-117488139D02*
X217580600Y-117463753D01*
X21259612Y-62305698D02*
X21022560Y-62728659D01*
X214905955Y-118675736D02*
X215006778Y-118574913D01*
X161790932Y-63260081D02*
X161767871Y-63328281D01*
X129156782Y-136449986D02*
X129912258Y-136428579D01*
X134217118Y-63260067D02*
X134190800Y-63182235D01*
X163298481Y-61244283D02*
X162915155Y-61516665D01*
X131158859Y-60640852D02*
X130598454Y-60538437D01*
X130598447Y-136361534D02*
X131158858Y-136259123D01*
X132709565Y-135655707D02*
X133092908Y-135383308D01*
D12*
X24507281Y-114250002D02*
G75*
G03*
X24507281Y-114250002I-900000J0D01*
G01*
D10*
X275194562Y-63260090D02*
X275168241Y-63182262D01*
X212563533Y-134977635D02*
X212835932Y-134594289D01*
X79258495Y-117631677D02*
X79540980Y-117718299D01*
X20531826Y-113252331D02*
X20543312Y-113346938D01*
X161464177Y-131796983D02*
X161509257Y-132302313D01*
X162915142Y-135383322D02*
X163298485Y-135655721D01*
D13*
X22130240Y-79401015D02*
X25799242Y-79401013D01*
D10*
X274391168Y-61827313D02*
X274340329Y-61776320D01*
X272664450Y-60775107D02*
X272136299Y-60640870D01*
X134565281Y-84352986D02*
X134565280Y-65858484D01*
X21531994Y-115927605D02*
X21568850Y-115968881D01*
D13*
X27049234Y-78151014D02*
X27049236Y-66325017D01*
D10*
X274340329Y-61776320D02*
X274278465Y-61714274D01*
X133498635Y-134977580D02*
X133771002Y-134594275D01*
X162594331Y-135072700D02*
X162645158Y-135123675D01*
X212303910Y-135247601D02*
X212365943Y-135185750D01*
X134065154Y-62857698D02*
X134008050Y-62728657D01*
X85784253Y-136259117D02*
X86344686Y-136361536D01*
D12*
X24507281Y-63600000D02*
G75*
G03*
X24507281Y-63600000I-900000J0D01*
G01*
D10*
X82363992Y-121857830D02*
X82367380Y-121926010D01*
X130512212Y-60527965D02*
X130417607Y-60516477D01*
X274391173Y-116022696D02*
X274439200Y-115968895D01*
X274216382Y-116197622D02*
X274278461Y-116135730D01*
X134190800Y-63182235D02*
X134065154Y-62857698D01*
X161767856Y-133571691D02*
X161790929Y-133639901D01*
X216037165Y-117891825D02*
X216310007Y-117776791D01*
X20543312Y-113346938D02*
X20553781Y-113433179D01*
X216930042Y-117586675D02*
X217168604Y-117532333D01*
X87030846Y-136428582D02*
X87786329Y-136449986D01*
X272810468Y-60824481D02*
X272732643Y-60798164D01*
X271575890Y-60538453D02*
X271489661Y-60527982D01*
X275464738Y-113346952D02*
X275476224Y-113252345D01*
D12*
X132307238Y-133300001D02*
G75*
G03*
X132307238Y-133300001I-900000J0D01*
G01*
D10*
X162509435Y-61922385D02*
X162237053Y-62305711D01*
X274476057Y-61922386D02*
X274439224Y-61881132D01*
X213718358Y-121175642D02*
X213762552Y-120938385D01*
X21259613Y-115544284D02*
X21531994Y-115927605D01*
X82399239Y-131796973D02*
X82444329Y-132302322D01*
X211774507Y-135655718D02*
X212157835Y-135383337D01*
G36*
X270150766Y-61050000D02*
G01*
X192724814Y-61050000D01*
X192724814Y-59850000D01*
X270150766Y-59850000D01*
X270150766Y-61050000D01*
G37*
X20553781Y-64416827D02*
X20543304Y-64503080D01*
X84785542Y-135949855D02*
X85110108Y-136075510D01*
X214291430Y-119478207D02*
X214384806Y-119326471D01*
X162645158Y-135123675D02*
X162707030Y-135185734D01*
X134008050Y-62728657D02*
X133770997Y-62305697D01*
X81815642Y-119658553D02*
X81886006Y-119806932D01*
X133238958Y-61652377D02*
X133187966Y-61601536D01*
X20965456Y-62857699D02*
X20839809Y-63182248D01*
X131755176Y-136101835D02*
X131833002Y-136075510D01*
X213541764Y-132483159D02*
X213552237Y-132396937D01*
X161509261Y-64597673D02*
X161464174Y-65103016D01*
X161520749Y-64503068D02*
X161509261Y-64597673D01*
X274111589Y-116296509D02*
X274165386Y-116248473D01*
X161442769Y-131041501D02*
X161464177Y-131796983D01*
X274111603Y-61553508D02*
X274070348Y-61516678D01*
X215556690Y-118154587D02*
X215708426Y-118061211D01*
X275042591Y-114992294D02*
X275168242Y-114667734D01*
X162769092Y-61652391D02*
X162707035Y-61714265D01*
X275542719Y-65858497D02*
X275521316Y-65103015D01*
X275217621Y-114521726D02*
X275351853Y-113993589D01*
X161464174Y-65103016D02*
X161442770Y-65858498D01*
X80671329Y-118304953D02*
X80877322Y-118462991D01*
X216467070Y-117718313D02*
X216749555Y-117631691D01*
X161942896Y-62857712D02*
X161817250Y-63182249D01*
X80877322Y-118462991D02*
X81001272Y-118574899D01*
X275476234Y-64597675D02*
X275464746Y-64503094D01*
X21896447Y-61553494D02*
X21842652Y-61601529D01*
X208977204Y-136428596D02*
X209482546Y-136383517D01*
X161817253Y-133717766D02*
X161942893Y-134042291D01*
X162645158Y-61776326D02*
X162594320Y-61827314D01*
X134565280Y-65858484D02*
X134543876Y-65103002D01*
X212478674Y-135072678D02*
X212526708Y-135018886D01*
X82377831Y-122399986D02*
X82377831Y-131041487D01*
D13*
X273892718Y-112775023D02*
G75*
G03*
X275142723Y-111524997I-18J1250023D01*
G01*
D10*
X134476826Y-132483167D02*
X134487301Y-132396903D01*
X23343618Y-117074895D02*
X23871751Y-117209129D01*
D13*
X275142723Y-111524997D02*
X275142725Y-99699002D01*
D10*
X274278461Y-116135730D02*
X274340347Y-116073662D01*
X21531993Y-61922372D02*
X21259612Y-62305698D01*
X162546274Y-135018869D02*
X162594331Y-135072700D01*
X213130088Y-134042288D02*
X213255737Y-133717748D01*
X165495836Y-136372023D02*
X165590425Y-136383503D01*
X80451360Y-118154573D02*
X80519319Y-118199795D01*
X134240194Y-133571677D02*
X134374415Y-133043572D01*
X134008056Y-134171313D02*
X134065157Y-134042277D01*
X275464746Y-64503094D02*
X275454269Y-64416841D01*
X85256108Y-136124883D02*
X85784253Y-136259117D01*
X22744002Y-61007218D02*
X22321042Y-61244271D01*
X82466286Y-132483145D02*
X82568705Y-133043566D01*
X81578022Y-119258498D02*
X81623244Y-119326457D01*
X82568705Y-133043566D02*
X82702939Y-133571719D01*
X25118352Y-117378594D02*
X25873824Y-117399986D01*
X165590425Y-136383503D02*
X166095792Y-136428593D01*
X164849191Y-60640866D02*
X164321051Y-60775101D01*
X21896461Y-116296495D02*
X21937707Y-116333320D01*
X86525504Y-136383503D02*
X87030846Y-136428582D01*
X272732643Y-60798164D02*
X272664450Y-60775107D01*
X212252901Y-135298451D02*
X212303910Y-135247601D01*
X23197567Y-117025514D02*
X23275403Y-117051828D01*
X271489639Y-117322029D02*
X271575894Y-117311554D01*
X163721432Y-135892771D02*
X163850471Y-135949870D01*
X210897942Y-136075524D02*
X211222508Y-135949869D01*
X20531816Y-64597661D02*
X20486734Y-65103001D01*
X161509257Y-132302313D02*
X161520749Y-132396917D01*
X133092895Y-61516651D02*
X132709569Y-61244269D01*
X213762552Y-120938385D02*
X213816859Y-120699976D01*
X218156243Y-117410451D02*
X218501130Y-117400000D01*
X134374415Y-133043572D02*
X134476826Y-132483167D01*
X134190797Y-133717752D02*
X134217121Y-133639887D01*
X212157835Y-135383337D02*
X212199081Y-135346512D01*
X163850471Y-135949870D02*
X164175048Y-136075524D01*
X24432160Y-60538439D02*
X23871751Y-60640856D01*
X133413719Y-135072686D02*
X133461776Y-135018855D01*
D13*
X273892720Y-98449001D02*
X270223718Y-98449003D01*
D10*
X270889705Y-60471406D02*
X270134221Y-60450000D01*
X20813483Y-114589888D02*
X20839808Y-114667720D01*
X271489661Y-60527982D02*
X271395050Y-60516494D01*
X162820084Y-61601550D02*
X162769092Y-61652391D01*
D12*
X165492769Y-63599990D02*
G75*
G03*
X165492769Y-63599990I-900000J0D01*
G01*
D10*
X133187966Y-61601536D02*
X133134152Y-61553488D01*
X80299624Y-118061197D02*
X80451360Y-118154573D01*
X81203012Y-118776639D02*
X81314835Y-118900506D01*
X20790432Y-63328265D02*
X20656197Y-63856407D01*
X209663364Y-136361550D02*
X210223797Y-136259131D01*
G36*
X191709267Y-137050000D02*
G01*
X183380268Y-137050000D01*
X183380268Y-135850000D01*
X191709267Y-135850000D01*
X191709267Y-137050000D01*
G37*
X275194567Y-114589902D02*
X275217621Y-114521726D01*
X85110108Y-136075510D02*
X85187927Y-136101831D01*
X213644058Y-121857844D02*
X213658127Y-121680323D01*
X22321042Y-61244271D02*
X21937702Y-61516664D01*
D13*
X275142699Y-99699002D02*
G75*
G03*
X273892720Y-98449001I-1249899J102D01*
G01*
D10*
X21729585Y-61714260D02*
X21667721Y-61776306D01*
D12*
X273292719Y-114250002D02*
G75*
G03*
X273292719Y-114250002I-900000J0D01*
G01*
G36*
X44213286Y-116799986D02*
G01*
X39135285Y-116799986D01*
X39135285Y-117999986D01*
X44213286Y-117999986D01*
X44213286Y-116799986D01*
G37*
D10*
X133187957Y-135298442D02*
X133238963Y-135247589D01*
X274476056Y-115927619D02*
X274748437Y-115544298D01*
X84233543Y-135655704D02*
X84656500Y-135892754D01*
X134498793Y-132302299D02*
X134543873Y-131796969D01*
X83444517Y-134977621D02*
X83481342Y-135018872D01*
X213693972Y-121350381D02*
X213718358Y-121175642D01*
X213439345Y-133043580D02*
X213541764Y-132483159D01*
X213608811Y-131796987D02*
X213630219Y-131041501D01*
D13*
X25799233Y-65075016D02*
X22130242Y-65075017D01*
D11*
X78938763Y-118170312D02*
X78978150Y-118180092D01*
X79017331Y-118190106D01*
X79056304Y-118200355D01*
X79095069Y-118210839D01*
X79133626Y-118221558D01*
X79171975Y-118232512D01*
X79210116Y-118243702D01*
X79248049Y-118255128D01*
X79285774Y-118266791D01*
X79323290Y-118278690D01*
X79348186Y-118286755D01*
D10*
X79698043Y-117776777D02*
X79970885Y-117891811D01*
X275542719Y-111991502D02*
X275542719Y-65858497D01*
X165495838Y-60527979D02*
X165409596Y-60538451D01*
X274439200Y-115968895D02*
X274476056Y-115927619D01*
X162509415Y-134977594D02*
X162546274Y-135018869D01*
X162000000Y-62728671D02*
X161942896Y-62857712D01*
X132157579Y-135949856D02*
X132286618Y-135892757D01*
X275521313Y-112746990D02*
X275542719Y-111991502D01*
X213640670Y-121926024D02*
X213644058Y-121857844D01*
D13*
X22130242Y-65075017D02*
G75*
G03*
X20880237Y-66325019I8J-1250013D01*
G01*
D10*
X83642107Y-135185736D02*
X83704140Y-135247587D01*
D13*
X20880185Y-78151014D02*
G75*
G03*
X22130240Y-79401015I1249915J-86D01*
G01*
D10*
X218501130Y-117400000D02*
X218630219Y-117400000D01*
X161442769Y-93497000D02*
X161442769Y-131041501D01*
X131833031Y-60824466D02*
X131755199Y-60798148D01*
G36*
X239594765Y-118000000D02*
G01*
X234516764Y-118000000D01*
X234516764Y-116800000D01*
X239594765Y-116800000D01*
X239594765Y-118000000D01*
G37*
X83481342Y-135018872D02*
X83529376Y-135072664D01*
X129912258Y-136428579D02*
X130417625Y-136383489D01*
X216749555Y-117631691D02*
X216930042Y-117586675D01*
X130417625Y-136383489D02*
X130512214Y-136372009D01*
X273264048Y-61007232D02*
X273135009Y-60950129D01*
G36*
X129156782Y-135849986D02*
G01*
X124827783Y-135849986D01*
X124827783Y-137049986D01*
X129156782Y-137049986D01*
X129156782Y-135849986D01*
G37*
X212835932Y-134594289D02*
X213072985Y-134171324D01*
X133092908Y-135383308D02*
X133134157Y-135346483D01*
X81716620Y-119478193D02*
X81815642Y-119658553D01*
X217580600Y-117463753D02*
X217910542Y-117427908D01*
X82444329Y-132302322D02*
X82455813Y-132396923D01*
X212526708Y-135018886D02*
X212563533Y-134977635D01*
X272664432Y-117074909D02*
X272732647Y-117051842D01*
X83808969Y-135346498D02*
X83850215Y-135383323D01*
X271395050Y-60516494D02*
X270889705Y-60471406D01*
X213816859Y-120699976D02*
X213861893Y-120519015D01*
X274165398Y-61601543D02*
X274111603Y-61553508D01*
X20813488Y-63260076D02*
X20790432Y-63328265D01*
X166095786Y-60471404D02*
X165590443Y-60516491D01*
X85187927Y-136101831D02*
X85256108Y-136124883D01*
X20465331Y-65858483D02*
X20465331Y-111991488D01*
X214122044Y-119806946D02*
X214192408Y-119658567D01*
X21791653Y-61652377D02*
X21729585Y-61714260D01*
X130417607Y-60516477D02*
X129912264Y-60471390D01*
X215888786Y-117962189D02*
X216037165Y-117891825D01*
X82059477Y-120236725D02*
X82146157Y-120519001D01*
X84656500Y-135892754D02*
X84785542Y-135949855D01*
D14*
%LPC*%
D15*
X147025000Y-79000000D03*
X148975000Y-77400000D03*
X147025000Y-112000000D03*
X147025000Y-113600000D03*
X148975000Y-80600000D03*
X148975000Y-126350000D03*
D16*
X128200000Y-54400000D03*
D15*
X148975000Y-114400000D03*
X147025000Y-111200000D03*
X148975000Y-127150000D03*
D17*
X14000000Y-143000000D03*
X141000000Y-53000000D03*
D15*
X147025000Y-127950000D03*
X147025000Y-127150000D03*
X148975000Y-115200000D03*
X148975000Y-74200000D03*
X147025000Y-114400000D03*
X147025000Y-73400000D03*
X148975000Y-127950000D03*
X148975000Y-68650000D03*
X148975000Y-123950000D03*
X148975000Y-78200000D03*
X147025000Y-118350000D03*
X148975000Y-115950000D03*
X147025000Y-81400000D03*
X147025000Y-78200000D03*
X148975000Y-73400000D03*
D16*
X167800000Y-54400000D03*
D15*
X147025000Y-83000000D03*
X147025000Y-79800000D03*
X147025000Y-70250000D03*
X147025000Y-71050000D03*
X147025000Y-122350000D03*
X147025000Y-120750000D03*
D17*
X14000000Y-53000000D03*
D15*
X147025000Y-115950000D03*
X147025000Y-119950000D03*
X147025000Y-124750000D03*
X148975000Y-75800000D03*
X147025000Y-83800000D03*
X148975000Y-119950000D03*
X148975000Y-67850000D03*
X148975000Y-112800000D03*
D17*
X155000000Y-143000000D03*
D15*
X147025000Y-75800000D03*
X148975000Y-76600000D03*
X147025000Y-71850000D03*
X148975000Y-118350000D03*
X147025000Y-80600000D03*
X147025000Y-74200000D03*
X147025000Y-68650000D03*
X147025000Y-115200000D03*
X148975000Y-75000000D03*
X147025000Y-69450000D03*
X148975000Y-84600000D03*
X147025000Y-121550000D03*
X148975000Y-111200000D03*
X148975000Y-121550000D03*
X148975000Y-117550000D03*
X148975000Y-119150000D03*
X148975000Y-116750000D03*
X148975000Y-120750000D03*
X147025000Y-117550000D03*
X148975000Y-83800000D03*
X147025000Y-116750000D03*
D17*
X141000000Y-143000000D03*
D15*
X148975000Y-113600000D03*
X147025000Y-72600000D03*
X148975000Y-124750000D03*
X147025000Y-76600000D03*
X147025000Y-67850000D03*
X147025000Y-126350000D03*
X148975000Y-122350000D03*
X148975000Y-125550000D03*
D17*
X282000000Y-143000000D03*
D15*
X148975000Y-82200000D03*
X148975000Y-72600000D03*
D16*
X26800000Y-54400000D03*
D15*
X147025000Y-123950000D03*
X147025000Y-84600000D03*
X148975000Y-83000000D03*
X147025000Y-112800000D03*
X147025000Y-75000000D03*
X148975000Y-69450000D03*
X147025000Y-77400000D03*
X148975000Y-79800000D03*
D16*
X269200000Y-54400000D03*
D15*
X148975000Y-70250000D03*
X147025000Y-119150000D03*
X147025000Y-82200000D03*
D17*
X282000000Y-53000000D03*
D15*
X147025000Y-123150000D03*
D17*
X155000000Y-53000000D03*
D15*
X147025000Y-125550000D03*
X148975000Y-81400000D03*
X148975000Y-112000000D03*
X148975000Y-79000000D03*
X148975000Y-123150000D03*
X148975000Y-71050000D03*
X148975000Y-71850000D03*
M02*
