G04 #@! TF.GenerationSoftware,KiCad,Pcbnew,(6.0.11-0)*
G04 #@! TF.CreationDate,2023-02-19T21:29:59+08:00*
G04 #@! TF.ProjectId,Combined,436f6d62-696e-4656-942e-6b696361645f,rev?*
G04 #@! TF.SameCoordinates,Original*
G04 #@! TF.FileFunction,Paste,Top*
G04 #@! TF.FilePolarity,Positive*
%FSLAX46Y46*%
G04 Gerber Fmt 4.6, Leading zero omitted, Abs format (unit mm)*
G04 Created by KiCad (PCBNEW (6.0.11-0)) date 2023-02-19 21:29:59*
%MOMM*%
%LPD*%
G01*
G04 APERTURE LIST*
G04 Aperture macros list*
%AMRoundRect*
0 Rectangle with rounded corners*
0 $1 Rounding radius*
0 $2 $3 $4 $5 $6 $7 $8 $9 X,Y pos of 4 corners*
0 Add a 4 corners polygon primitive as box body*
4,1,4,$2,$3,$4,$5,$6,$7,$8,$9,$2,$3,0*
0 Add four circle primitives for the rounded corners*
1,1,$1+$1,$2,$3*
1,1,$1+$1,$4,$5*
1,1,$1+$1,$6,$7*
1,1,$1+$1,$8,$9*
0 Add four rect primitives between the rounded corners*
20,1,$1+$1,$2,$3,$4,$5,0*
20,1,$1+$1,$4,$5,$6,$7,0*
20,1,$1+$1,$6,$7,$8,$9,0*
20,1,$1+$1,$8,$9,$2,$3,0*%
%AMFreePoly0*
4,1,13,-0.250000,0.375000,-0.240485,0.422835,-0.213388,0.463388,-0.172835,0.490485,-0.125000,0.500000,0.250000,0.500000,0.250000,-0.500000,-0.125000,-0.500000,-0.172835,-0.490485,-0.213388,-0.463388,-0.240485,-0.422835,-0.250000,-0.375000,-0.250000,0.375000,-0.250000,0.375000,$1*%
%AMFreePoly1*
4,1,13,-0.300000,0.150000,-0.288582,0.207403,-0.256066,0.256066,-0.207403,0.288582,-0.150000,0.300000,0.300000,0.300000,0.300000,-0.300000,-0.150000,-0.300000,-0.207403,-0.288582,-0.256066,-0.256066,-0.288582,-0.207403,-0.300000,-0.150000,-0.300000,0.150000,-0.300000,0.150000,$1*%
G04 Aperture macros list end*
%ADD10RoundRect,0.140000X0.170000X-0.140000X0.170000X0.140000X-0.170000X0.140000X-0.170000X-0.140000X0*%
%ADD11RoundRect,0.087500X0.087500X-0.087500X0.087500X0.087500X-0.087500X0.087500X-0.087500X-0.087500X0*%
%ADD12RoundRect,0.140000X-0.170000X0.140000X-0.170000X-0.140000X0.170000X-0.140000X0.170000X0.140000X0*%
%ADD13RoundRect,0.086250X0.201250X-0.201250X0.201250X0.201250X-0.201250X0.201250X-0.201250X-0.201250X0*%
%ADD14C,0.250000*%
%ADD15RoundRect,0.087500X-0.087500X0.087500X-0.087500X-0.087500X0.087500X-0.087500X0.087500X0.087500X0*%
%ADD16RoundRect,0.140000X0.140000X0.170000X-0.140000X0.170000X-0.140000X-0.170000X0.140000X-0.170000X0*%
%ADD17RoundRect,0.140000X-0.140000X-0.170000X0.140000X-0.170000X0.140000X0.170000X-0.140000X0.170000X0*%
%ADD18RoundRect,0.147500X0.147500X0.172500X-0.147500X0.172500X-0.147500X-0.172500X0.147500X-0.172500X0*%
%ADD19RoundRect,0.147500X-0.212545X0.079606X-0.111649X-0.197603X0.212545X-0.079606X0.111649X0.197603X0*%
%ADD20FreePoly0,270.000000*%
%ADD21FreePoly1,180.000000*%
%ADD22FreePoly0,90.000000*%
%ADD23RoundRect,0.150000X0.300000X-0.350000X0.300000X0.350000X-0.300000X0.350000X-0.300000X-0.350000X0*%
%ADD24RoundRect,0.147500X-0.172500X0.147500X-0.172500X-0.147500X0.172500X-0.147500X0.172500X0.147500X0*%
%ADD25R,0.600000X1.100000*%
%ADD26RoundRect,0.150000X-0.350000X-0.300000X0.350000X-0.300000X0.350000X0.300000X-0.350000X0.300000X0*%
%ADD27RoundRect,0.147500X-0.215194X0.072140X-0.104685X-0.201379X0.215194X-0.072140X0.104685X0.201379X0*%
%ADD28FreePoly1,0.000000*%
%ADD29RoundRect,0.090000X-0.210000X-0.270000X0.210000X-0.270000X0.210000X0.270000X-0.210000X0.270000X0*%
%ADD30RoundRect,0.090000X0.210000X0.270000X-0.210000X0.270000X-0.210000X-0.270000X0.210000X-0.270000X0*%
%ADD31RoundRect,0.087500X0.056178X-0.110256X0.110256X0.056178X-0.056178X0.110256X-0.110256X-0.056178X0*%
%ADD32RoundRect,0.135000X-0.146845X0.175745X-0.212164X-0.086234X0.146845X-0.175745X0.212164X0.086234X0*%
%ADD33RoundRect,0.135000X-0.120957X0.194472X-0.222101X-0.055868X0.120957X-0.194472X0.222101X0.055868X0*%
%ADD34RoundRect,0.147500X-0.147500X-0.172500X0.147500X-0.172500X0.147500X0.172500X-0.147500X0.172500X0*%
%ADD35RoundRect,0.087500X-0.110256X0.056178X-0.056178X-0.110256X0.110256X-0.056178X0.056178X0.110256X0*%
%ADD36RoundRect,0.087500X0.101365X-0.070976X0.070976X0.101365X-0.101365X0.070976X-0.070976X-0.101365X0*%
%ADD37RoundRect,0.087500X-0.070976X0.101365X-0.101365X-0.070976X0.070976X-0.101365X0.101365X0.070976X0*%
G04 APERTURE END LIST*
D10*
X74811743Y-105005737D03*
X74811743Y-104045737D03*
D11*
X44994843Y-16021637D03*
X44994843Y-15321637D03*
X45694843Y-16021637D03*
X45694843Y-15321637D03*
D12*
X175869561Y-104142578D03*
X175869561Y-105102578D03*
D13*
X171678673Y-101492578D03*
X171678673Y-99492578D03*
X174678673Y-98492578D03*
X173678673Y-100492578D03*
X172678673Y-98492578D03*
X171678673Y-100492578D03*
X173678673Y-99492578D03*
X172678673Y-100492578D03*
X172678673Y-101492578D03*
X174678673Y-99492578D03*
X173678673Y-98492578D03*
X172678673Y-99492578D03*
X171678673Y-98492578D03*
X173678673Y-101492578D03*
X174678673Y-100492578D03*
X174678673Y-101492578D03*
D14*
X176428673Y-98742578D03*
X176428673Y-99242578D03*
X176428673Y-99742578D03*
X176428673Y-100242578D03*
X176428673Y-100742578D03*
X176428673Y-101242578D03*
X176428673Y-101742578D03*
X176428673Y-102242578D03*
X176428673Y-102742578D03*
X170928673Y-103242578D03*
X170678673Y-97242578D03*
X170428673Y-97992578D03*
X170428673Y-98992578D03*
X170428673Y-99492578D03*
X170428673Y-99992578D03*
X170428673Y-100492578D03*
X170428673Y-100992578D03*
X170428673Y-101492578D03*
X170428673Y-101992578D03*
X170428673Y-103242578D03*
X169928673Y-97242578D03*
X169928673Y-97742578D03*
X169928673Y-98242578D03*
X169928673Y-98742578D03*
X169928673Y-99242578D03*
X169928673Y-99742578D03*
X169928673Y-100242578D03*
X169928673Y-100742578D03*
X169928673Y-101242578D03*
X169928673Y-101742578D03*
X169928673Y-102242578D03*
X169928673Y-102742578D03*
X175928673Y-96742578D03*
X175928673Y-97492578D03*
X175928673Y-97992578D03*
X175928673Y-98492578D03*
X175928673Y-98992578D03*
X175928673Y-99492578D03*
X175928673Y-99992578D03*
X175928673Y-100492578D03*
X175928673Y-100992578D03*
X175928673Y-101492578D03*
X175928673Y-103242578D03*
X175428673Y-96742578D03*
X175178673Y-97242578D03*
X175178673Y-102742578D03*
X174928673Y-103242578D03*
X174678673Y-97242578D03*
X174678673Y-102742578D03*
X174428673Y-96742578D03*
X174178673Y-97242578D03*
X174178673Y-102742578D03*
X173928673Y-96742578D03*
X173928673Y-103242578D03*
X173678673Y-97242578D03*
X173428673Y-96742578D03*
X173428673Y-103242578D03*
X173178673Y-97242578D03*
X172928673Y-96742578D03*
X172928673Y-103242578D03*
X172678673Y-97242578D03*
X172678673Y-102742578D03*
X172428673Y-96742578D03*
X172428673Y-103242578D03*
X172178673Y-97242578D03*
X172178673Y-102742578D03*
X171928673Y-96742578D03*
X171928673Y-103242578D03*
X171678673Y-102742578D03*
X171428673Y-96742578D03*
X171428673Y-103242578D03*
X171178673Y-97242578D03*
X171178673Y-102742578D03*
D15*
X167238350Y-15320362D03*
X167238350Y-16020362D03*
X166538350Y-15320362D03*
X166538350Y-16020362D03*
X132919150Y-15320362D03*
X132919150Y-16020362D03*
X132219150Y-15320362D03*
X132219150Y-16020362D03*
D16*
X178247304Y-101553980D03*
X177287304Y-101553980D03*
D17*
X176559561Y-95042578D03*
X177519561Y-95042578D03*
D18*
X178239561Y-97702578D03*
X177269561Y-97702578D03*
D15*
X135419150Y-15320362D03*
X135419150Y-16020362D03*
X134719150Y-15320362D03*
X134719150Y-16020362D03*
D11*
X37485243Y-16021637D03*
X37485243Y-15321637D03*
X38185243Y-16021637D03*
X38185243Y-15321637D03*
D12*
X180087304Y-104153980D03*
X180087304Y-105113980D03*
D19*
X78885863Y-110449986D03*
X79217623Y-111361488D03*
D16*
X174999561Y-105082578D03*
X174039561Y-105082578D03*
D11*
X61804443Y-16021637D03*
X61804443Y-15321637D03*
X62504443Y-16021637D03*
X62504443Y-15321637D03*
D20*
X28165243Y-39439737D03*
D21*
X30215243Y-43684737D03*
X30215243Y-40334737D03*
D22*
X28165243Y-44579737D03*
D11*
X71804443Y-16021637D03*
X71804443Y-15321637D03*
X72504443Y-16021637D03*
X72504443Y-15321637D03*
D15*
X125419150Y-15320362D03*
X125419150Y-16020362D03*
X124719150Y-15320362D03*
X124719150Y-16020362D03*
X142919150Y-15320362D03*
X142919150Y-16020362D03*
X142219150Y-15320362D03*
X142219150Y-16020362D03*
D23*
X179029561Y-104812578D03*
X179029561Y-102612578D03*
X177429561Y-102612578D03*
X177429561Y-104812578D03*
D24*
X179099561Y-96777578D03*
X179099561Y-97747578D03*
D11*
X32485243Y-16021637D03*
X32485243Y-15321637D03*
X33185243Y-16021637D03*
X33185243Y-15321637D03*
D25*
X77551743Y-95330737D03*
X76151743Y-95330737D03*
D17*
X78521743Y-95055737D03*
X79481743Y-95055737D03*
D10*
X78271743Y-105015737D03*
X78271743Y-104055737D03*
D26*
X79351743Y-104795737D03*
X81551743Y-104795737D03*
X81551743Y-103195737D03*
X79351743Y-103195737D03*
D13*
X73601743Y-98545237D03*
X75601743Y-101545237D03*
X74601743Y-101545237D03*
X76601743Y-101545237D03*
X75601743Y-98545237D03*
X73601743Y-99545237D03*
X75601743Y-100545237D03*
X74601743Y-100545237D03*
X76601743Y-98545237D03*
X73601743Y-100545237D03*
X73601743Y-101545237D03*
X76601743Y-99545237D03*
X76601743Y-100545237D03*
X75601743Y-99545237D03*
X74601743Y-98545237D03*
X74601743Y-99545237D03*
D14*
X78351743Y-98795237D03*
X78351743Y-99295237D03*
X78351743Y-99795237D03*
X78351743Y-100295237D03*
X78351743Y-100795237D03*
X78351743Y-101295237D03*
X78351743Y-101795237D03*
X78351743Y-102295237D03*
X78351743Y-102795237D03*
X72851743Y-103295237D03*
X72601743Y-97295237D03*
X72351743Y-98045237D03*
X72351743Y-99045237D03*
X72351743Y-99545237D03*
X72351743Y-100045237D03*
X72351743Y-100545237D03*
X72351743Y-101045237D03*
X72351743Y-101545237D03*
X72351743Y-102045237D03*
X72351743Y-103295237D03*
X71851743Y-97295237D03*
X71851743Y-97795237D03*
X71851743Y-98295237D03*
X71851743Y-98795237D03*
X71851743Y-99295237D03*
X71851743Y-99795237D03*
X71851743Y-100295237D03*
X71851743Y-100795237D03*
X71851743Y-101295237D03*
X71851743Y-101795237D03*
X71851743Y-102295237D03*
X71851743Y-102795237D03*
X77851743Y-96795237D03*
X77851743Y-97545237D03*
X77851743Y-98045237D03*
X77851743Y-98545237D03*
X77851743Y-99045237D03*
X77851743Y-99545237D03*
X77851743Y-100045237D03*
X77851743Y-100545237D03*
X77851743Y-101045237D03*
X77851743Y-101545237D03*
X77851743Y-103295237D03*
X77351743Y-96795237D03*
X77101743Y-97295237D03*
X77101743Y-102795237D03*
X76851743Y-103295237D03*
X76601743Y-97295237D03*
X76601743Y-102795237D03*
X76351743Y-96795237D03*
X76101743Y-97295237D03*
X76101743Y-102795237D03*
X75851743Y-96795237D03*
X75851743Y-103295237D03*
X75601743Y-97295237D03*
X75351743Y-96795237D03*
X75351743Y-103295237D03*
X75101743Y-97295237D03*
X74851743Y-96795237D03*
X74851743Y-103295237D03*
X74601743Y-97295237D03*
X74601743Y-102795237D03*
X74351743Y-96795237D03*
X74351743Y-103295237D03*
X74101743Y-97295237D03*
X74101743Y-102795237D03*
X73851743Y-96795237D03*
X73851743Y-103295237D03*
X73601743Y-102795237D03*
X73351743Y-96795237D03*
X73351743Y-103295237D03*
X73101743Y-97295237D03*
X73101743Y-102795237D03*
D27*
X175250136Y-110372019D03*
X175613504Y-111271387D03*
D12*
X73251743Y-95015237D03*
X73251743Y-95975237D03*
D10*
X172909561Y-104982578D03*
X172909561Y-104022578D03*
D12*
X180087304Y-102353980D03*
X180087304Y-103313980D03*
D16*
X179299561Y-95042578D03*
X178339561Y-95042578D03*
D11*
X81804443Y-16021637D03*
X81804443Y-15321637D03*
X82504443Y-16021637D03*
X82504443Y-15321637D03*
D22*
X179065265Y-44579786D03*
D28*
X177015265Y-40334786D03*
X177015265Y-43684786D03*
D20*
X179065265Y-39439786D03*
D15*
X172238350Y-15320362D03*
X172238350Y-16020362D03*
X171538350Y-15320362D03*
X171538350Y-16020362D03*
D11*
X84304443Y-16021637D03*
X84304443Y-15321637D03*
X85004443Y-16021637D03*
X85004443Y-15321637D03*
D15*
X115419150Y-15320362D03*
X115419150Y-16020362D03*
X114719150Y-15320362D03*
X114719150Y-16020362D03*
D16*
X76551743Y-105005737D03*
X75591743Y-105005737D03*
D15*
X137919150Y-15320362D03*
X137919150Y-16020362D03*
X137219150Y-15320362D03*
X137219150Y-16020362D03*
D16*
X173369561Y-95182578D03*
X172409561Y-95182578D03*
X80181743Y-102205737D03*
X79221743Y-102205737D03*
D15*
X127919150Y-15320362D03*
X127919150Y-16020362D03*
X127219150Y-15320362D03*
X127219150Y-16020362D03*
D11*
X89304443Y-16021637D03*
X89304443Y-15321637D03*
X90004443Y-16021637D03*
X90004443Y-15321637D03*
D29*
X65226743Y-95865737D03*
X65226743Y-96835737D03*
X65226743Y-97805737D03*
X65226743Y-98775737D03*
X63826743Y-98775737D03*
X63826743Y-97805737D03*
X63826743Y-96835737D03*
X63826743Y-95865737D03*
D12*
X170379561Y-94992578D03*
X170379561Y-95952578D03*
D10*
X169129561Y-103772578D03*
X169129561Y-102812578D03*
D11*
X34985243Y-16021637D03*
X34985243Y-15321637D03*
X35685243Y-16021637D03*
X35685243Y-15321637D03*
D16*
X176781820Y-112241703D03*
X175821820Y-112241703D03*
D30*
X142014559Y-86286334D03*
X142014559Y-85316334D03*
X142014559Y-84346334D03*
X142014559Y-83376334D03*
X143414559Y-83376334D03*
X143414559Y-84346334D03*
X143414559Y-85316334D03*
X143414559Y-86286334D03*
D11*
X74304443Y-16021637D03*
X74304443Y-15321637D03*
X75004443Y-16021637D03*
X75004443Y-15321637D03*
D31*
X99176717Y-16199851D03*
X99393029Y-15534111D03*
X99842457Y-16416163D03*
X100058769Y-15750423D03*
D32*
X79245123Y-112960886D03*
X78998363Y-113950588D03*
D11*
X64304443Y-16021637D03*
X64304443Y-15321637D03*
X65004443Y-16021637D03*
X65004443Y-15321637D03*
D15*
X140419150Y-15320362D03*
X140419150Y-16020362D03*
X139719150Y-15320362D03*
X139719150Y-16020362D03*
D11*
X42494843Y-16021637D03*
X42494843Y-15321637D03*
X43194843Y-16021637D03*
X43194843Y-15321637D03*
X86804443Y-16021637D03*
X86804443Y-15321637D03*
X87504443Y-16021637D03*
X87504443Y-15321637D03*
D16*
X80131743Y-96855737D03*
X79171743Y-96855737D03*
D15*
X169738350Y-15320362D03*
X169738350Y-16020362D03*
X169038350Y-15320362D03*
X169038350Y-16020362D03*
D25*
X175599561Y-95307578D03*
X174199561Y-95307578D03*
D33*
X175612869Y-113218839D03*
X175230771Y-114164567D03*
D34*
X79166743Y-98555737D03*
X80136743Y-98555737D03*
D11*
X91804443Y-16021637D03*
X91804443Y-15321637D03*
X92504443Y-16021637D03*
X92504443Y-15321637D03*
D15*
X145419150Y-15320362D03*
X145419150Y-16020362D03*
X144719150Y-15320362D03*
X144719150Y-16020362D03*
X174738350Y-15320362D03*
X174738350Y-16020362D03*
X174038350Y-15320362D03*
X174038350Y-16020362D03*
D16*
X179299561Y-95912578D03*
X178339561Y-95912578D03*
D15*
X159738350Y-15320362D03*
X159738350Y-16020362D03*
X159038350Y-15320362D03*
X159038350Y-16020362D03*
D12*
X77451743Y-104065737D03*
X77451743Y-105025737D03*
D10*
X71051743Y-103785737D03*
X71051743Y-102825737D03*
D15*
X117919150Y-15320362D03*
X117919150Y-16020362D03*
X117219150Y-15320362D03*
X117219150Y-16020362D03*
D12*
X169489561Y-94992578D03*
X169489561Y-95952578D03*
X171269561Y-94992578D03*
X171269561Y-95952578D03*
D35*
X107830564Y-15532836D03*
X108046876Y-16198576D03*
X107164824Y-15749148D03*
X107381136Y-16414888D03*
D11*
X66804443Y-16021637D03*
X66804443Y-15321637D03*
X67504443Y-16021637D03*
X67504443Y-15321637D03*
D16*
X75181743Y-95045237D03*
X74221743Y-95045237D03*
D11*
X47485243Y-16021637D03*
X47485243Y-15321637D03*
X48185243Y-16021637D03*
X48185243Y-15321637D03*
X69304443Y-16021637D03*
X69304443Y-15321637D03*
X70004443Y-16021637D03*
X70004443Y-15321637D03*
X39985243Y-16021637D03*
X39985243Y-15321637D03*
X40685243Y-16021637D03*
X40685243Y-15321637D03*
D17*
X70231743Y-100305737D03*
X71191743Y-100305737D03*
D36*
X29967837Y-16211197D03*
X29846283Y-15521831D03*
X30657203Y-16089643D03*
X30535649Y-15400277D03*
D15*
X112919150Y-15320362D03*
X112919150Y-16020362D03*
X112219150Y-15320362D03*
X112219150Y-16020362D03*
D10*
X80301743Y-95985737D03*
X80301743Y-95025737D03*
D12*
X80981743Y-101295737D03*
X80981743Y-102255737D03*
D15*
X164738350Y-15320362D03*
X164738350Y-16020362D03*
X164038350Y-15320362D03*
X164038350Y-16020362D03*
D12*
X71451743Y-95015237D03*
X71451743Y-95975237D03*
D18*
X80136743Y-97705737D03*
X79166743Y-97705737D03*
D16*
X173999561Y-121262580D03*
X173039561Y-121262580D03*
D15*
X130419150Y-15320362D03*
X130419150Y-16020362D03*
X129719150Y-15320362D03*
X129719150Y-16020362D03*
D17*
X168214561Y-100057578D03*
X169174561Y-100057578D03*
D22*
X179065265Y-31579786D03*
D28*
X177015265Y-27334786D03*
X177015265Y-30684786D03*
D20*
X179065265Y-26439786D03*
D15*
X162238350Y-15320362D03*
X162238350Y-16020362D03*
X161538350Y-15320362D03*
X161538350Y-16020362D03*
D11*
X76804443Y-16021637D03*
X76804443Y-15321637D03*
X77504443Y-16021637D03*
X77504443Y-15321637D03*
D37*
X177377310Y-15520556D03*
X177255756Y-16209922D03*
X176687944Y-15399002D03*
X176566390Y-16088368D03*
D11*
X94304443Y-16021637D03*
X94304443Y-15321637D03*
X95004443Y-16021637D03*
X95004443Y-15321637D03*
X96804443Y-16021637D03*
X96804443Y-15321637D03*
X97504443Y-16021637D03*
X97504443Y-15321637D03*
D15*
X110419150Y-15320362D03*
X110419150Y-16020362D03*
X109719150Y-15320362D03*
X109719150Y-16020362D03*
D16*
X79481743Y-95955737D03*
X78521743Y-95955737D03*
D20*
X28165243Y-26439737D03*
D21*
X30215243Y-30684737D03*
X30215243Y-27334737D03*
D22*
X28165243Y-31579737D03*
D16*
X178229561Y-96822578D03*
X177269561Y-96822578D03*
X177519561Y-95912578D03*
X176559561Y-95912578D03*
D17*
X78391743Y-112155737D03*
X79351743Y-112155737D03*
D16*
X76994743Y-121555737D03*
X76034743Y-121555737D03*
D15*
X122919150Y-15320362D03*
X122919150Y-16020362D03*
X122219150Y-15320362D03*
X122219150Y-16020362D03*
D17*
X79221743Y-101355737D03*
X80181743Y-101355737D03*
D11*
X79304443Y-16021637D03*
X79304443Y-15321637D03*
X80004443Y-16021637D03*
X80004443Y-15321637D03*
D15*
X120419150Y-15320362D03*
X120419150Y-16020362D03*
X119719150Y-15320362D03*
X119719150Y-16020362D03*
D12*
X72351743Y-95015237D03*
X72351743Y-95975237D03*
M02*
