%TF.GenerationSoftware,KiCad,Pcbnew,(6.0.11-0)*%
%TF.CreationDate,2023-02-19T21:30:22+08:00*%
%TF.ProjectId,Combined,436f6d62-696e-4656-942e-6b696361645f,rev?*%
%TF.SameCoordinates,Original*%
%TF.FileFunction,Drillmap*%
%TF.FilePolarity,Positive*%
%FSLAX45Y45*%
G04 Gerber Fmt 4.5, Leading zero omitted, Abs format (unit mm)*
G04 Created by KiCad (PCBNEW (6.0.11-0)) date 2023-02-19 21:30:22*
%MOMM*%
%LPD*%
G01*
G04 APERTURE LIST*
%ADD10C,0.030000*%
%ADD11C,0.038100*%
%ADD12C,0.000100*%
%ADD13C,0.010000*%
%ADD14C,0.200000*%
%ADD15C,0.050000*%
%ADD16C,0.305000*%
%ADD17C,0.510000*%
G04 APERTURE END LIST*
D10*
X10880009Y-1502550D02*
X10869600Y-1503815D01*
X11011527Y-6834324D02*
X10933311Y-6832109D01*
X10173777Y-6684055D02*
X10167528Y-6690323D01*
D11*
X8507518Y-6953332D02*
X8516527Y-6944324D01*
X8649491Y-6863001D02*
X8674491Y-6855324D01*
D10*
X17870528Y-1557578D02*
X17918091Y-1584237D01*
D11*
X12299494Y-7118230D02*
X12304527Y-7140324D01*
D10*
X8344528Y-12764574D02*
X8317869Y-12812138D01*
D11*
X2741527Y-4432979D02*
X2766527Y-4432978D01*
D10*
X9863862Y-1505078D02*
X9923683Y-1516010D01*
D11*
X11921527Y-6835324D02*
X11888527Y-6834324D01*
D10*
X10411527Y-4581424D02*
X10611527Y-4581424D01*
D12*
X10076527Y-1870578D02*
G75*
G03*
X10076527Y-1870578I-140000J0D01*
G01*
D10*
X8249990Y-12894075D02*
X8256259Y-12887823D01*
X10413741Y-2017363D02*
X10418496Y-1964063D01*
D11*
X12010527Y-6846324D02*
X11989317Y-6842373D01*
D10*
X8193092Y-12936915D02*
X8236762Y-12905885D01*
X7884745Y-13023357D02*
X7938044Y-13018602D01*
D11*
X2591527Y-2418979D02*
X2741527Y-2418979D01*
D10*
X10276597Y-6503520D02*
X10273549Y-6512535D01*
X2680185Y-1709014D02*
X2711215Y-1665344D01*
X2852527Y-12963574D02*
X2804962Y-12936916D01*
X17683862Y-1505077D02*
X17743683Y-1516008D01*
D11*
X2591527Y-4682979D02*
X2741527Y-4682979D01*
D10*
X17809737Y-1533555D02*
X17818753Y-1536602D01*
D11*
X18131527Y-3382978D02*
X17981527Y-3382978D01*
D10*
X10466098Y-6556537D02*
X10473527Y-6573324D01*
D11*
X12197527Y-6935324D02*
X12188049Y-6926767D01*
X8834527Y-6834324D02*
X8846527Y-6834324D01*
D10*
X10050526Y-1557578D02*
X10098092Y-1584237D01*
X18096597Y-12694770D02*
X18093549Y-12703784D01*
X7958863Y-13016075D02*
X8018684Y-13005142D01*
X12316527Y-8862174D02*
X12516527Y-8862174D01*
X10273549Y-6512535D02*
X10270501Y-6521549D01*
X2599762Y-1953653D02*
X2601026Y-1943244D01*
X10309311Y-6312541D02*
X10304556Y-6365841D01*
D11*
X17981527Y-4432979D02*
X17956527Y-4432979D01*
D10*
X3039192Y-1505078D02*
X2979371Y-1516010D01*
X10452550Y-1808353D02*
X10466098Y-1773367D01*
X18069527Y-12764574D02*
X18042868Y-12812138D01*
X8406527Y-12317774D02*
X8206527Y-12317774D01*
D11*
X8599700Y-6883993D02*
X8611742Y-6878282D01*
D10*
X12442121Y-12862422D02*
X12448026Y-12869037D01*
X12764192Y-13016076D02*
X12704370Y-13005144D01*
D12*
X17896525Y-12650573D02*
G75*
G03*
X17896525Y-12650573I-140000J0D01*
G01*
D10*
X9711526Y-6834323D02*
X9789745Y-6832107D01*
D11*
X12287850Y-7077288D02*
X12295527Y-7102288D01*
D10*
X10624963Y-6745665D02*
X10581292Y-6714635D01*
D11*
X8206527Y-10589974D02*
X8206527Y-9369974D01*
D10*
X8351956Y-12747786D02*
X8344528Y-12764574D01*
X3039192Y-13016074D02*
X2979371Y-13005142D01*
D11*
X8516527Y-6944324D02*
X8525535Y-6935315D01*
D10*
X17981258Y-12887823D02*
X17987527Y-12881573D01*
X10418498Y-6365841D02*
X10419763Y-6376251D01*
D11*
X8456196Y-7027497D02*
X8464527Y-7012324D01*
X11876527Y-6834324D02*
X11888527Y-6834324D01*
D10*
X8406527Y-9369974D02*
X8206527Y-9369974D01*
D11*
X12299494Y-7118230D02*
X12295527Y-7102324D01*
X8636638Y-6867786D02*
X8649491Y-6863001D01*
D10*
X10256955Y-6556536D02*
X10249527Y-6573323D01*
D11*
X8407793Y-7223968D02*
X8409061Y-7207968D01*
D10*
X18093549Y-1817366D02*
X18090500Y-1808352D01*
D11*
X2741527Y-3382979D02*
X2741527Y-3132979D01*
D10*
X3060010Y-1502550D02*
X3049601Y-1503814D01*
D12*
X3106527Y-12650574D02*
G75*
G03*
X3106527Y-12650574I-140000J0D01*
G01*
D10*
X10304555Y-1964062D02*
X10303292Y-1953653D01*
X2626457Y-12694771D02*
X2629505Y-12703785D01*
D11*
X17981527Y-3132978D02*
X17956527Y-3132979D01*
X8206527Y-12317774D02*
X8206527Y-11097774D01*
D10*
X9980724Y-1530508D02*
X9989738Y-1533557D01*
X18122028Y-1943242D02*
X18111095Y-1883421D01*
X10309310Y-2017362D02*
X10304555Y-1964062D01*
X12316527Y-10589974D02*
X12516527Y-10589974D01*
X8397028Y-12577909D02*
X8386096Y-12637730D01*
X10419761Y-1953653D02*
X10421024Y-1943244D01*
X12916527Y-13025574D02*
X17531527Y-13025574D01*
X18131526Y-12425573D02*
X18129312Y-12503790D01*
X8398292Y-12567499D02*
X8397028Y-12577909D01*
X18005933Y-1658730D02*
X18000028Y-1652115D01*
X17531527Y-1495579D02*
X15681227Y-1495579D01*
X10418496Y-1964063D02*
X10419761Y-1953653D01*
D11*
X8406527Y-11097774D02*
X8406527Y-10589974D01*
D10*
X10869600Y-1503815D02*
X10859190Y-1505077D01*
D11*
X8584527Y-6892324D02*
X8571527Y-6900324D01*
D10*
X2729276Y-1645848D02*
X2735527Y-1639579D01*
X2748065Y-1627078D02*
X2741796Y-1633328D01*
D11*
X2741527Y-3132979D02*
X2766527Y-3132978D01*
D10*
X2632553Y-12712799D02*
X2646098Y-12747787D01*
X10742328Y-1530508D02*
X10733314Y-1533556D01*
D12*
X10926528Y-6459323D02*
G75*
G03*
X10926528Y-6459323I-140000J0D01*
G01*
D10*
X18096598Y-1826380D02*
X18093549Y-1817366D01*
X9853453Y-6826088D02*
X9863862Y-6824824D01*
X10799370Y-6813894D02*
X10742329Y-6799396D01*
X11011527Y-1495579D02*
X14766827Y-1495579D01*
X10419763Y-6376251D02*
X10421025Y-6386661D01*
X17968375Y-1621171D02*
X17974989Y-1627077D01*
X18111095Y-1883421D02*
X18096598Y-1826380D01*
D11*
X18131527Y-4682979D02*
X17981527Y-4682979D01*
X12237527Y-6980324D02*
X12246894Y-6993865D01*
X17981527Y-2668979D02*
X17956527Y-2668979D01*
X8409061Y-7207968D02*
X8412452Y-7176750D01*
X8498970Y-6962801D02*
X8485527Y-6980324D01*
D10*
X17800724Y-1530507D02*
X17809737Y-1533555D01*
X10446455Y-1826381D02*
X10449503Y-1817368D01*
D11*
X10111527Y-5800624D02*
X10111527Y-5493879D01*
D10*
X18076956Y-1773364D02*
X18069526Y-1756577D01*
X10561794Y-1633329D02*
X10555526Y-1639578D01*
X8406527Y-7642173D02*
X8206527Y-7642173D01*
D11*
X15224027Y-2045301D02*
X14766827Y-2045301D01*
X2591527Y-3718978D02*
X2741527Y-3718978D01*
X8476159Y-6993865D02*
X8485527Y-6980324D01*
X17981527Y-2418979D02*
X17981527Y-2668979D01*
X10611527Y-2528524D02*
X10611527Y-3748524D01*
D10*
X3060010Y-13018603D02*
X3049601Y-13017339D01*
D11*
X12206527Y-6944324D02*
X12215535Y-6953332D01*
D10*
X10222869Y-6620888D02*
X10191839Y-6664558D01*
X2748065Y-12894075D02*
X2741796Y-12887824D01*
X10933308Y-1497795D02*
X10880009Y-1502550D01*
X8268777Y-12875304D02*
X8262527Y-12881573D01*
X10154989Y-1627078D02*
X10161258Y-1633328D01*
D11*
X8748953Y-6840249D02*
X8733736Y-6842373D01*
D10*
X17968375Y-12899980D02*
X17974990Y-12894075D01*
X12316526Y-12425575D02*
X12318743Y-12503792D01*
X9789744Y-1497795D02*
X9843043Y-1502550D01*
X12318743Y-12503792D02*
X12323498Y-12557091D01*
X18042868Y-1709013D02*
X18011839Y-1665343D01*
X10421025Y-6386661D02*
X10431960Y-6446482D01*
X10185933Y-1658730D02*
X10180027Y-1652117D01*
D11*
X12310601Y-7176750D02*
X12308477Y-7161533D01*
D10*
X2761292Y-1615267D02*
X2754678Y-1621173D01*
X10880011Y-6827355D02*
X10869601Y-6826089D01*
D11*
X17981527Y-3718978D02*
X17981527Y-3968978D01*
D10*
X2629505Y-12703785D02*
X2632553Y-12712799D01*
D11*
X12010527Y-6846324D02*
X12032620Y-6851356D01*
X8427527Y-7102288D02*
X8435204Y-7077288D01*
D10*
X2626456Y-1826382D02*
X2629504Y-1817367D01*
X8280934Y-12862422D02*
X8275028Y-12869036D01*
X18000028Y-12869035D02*
X17993777Y-12875304D01*
X10733314Y-1533556D02*
X10724299Y-1536605D01*
X10466098Y-1773367D02*
X10473526Y-1756578D01*
X18090502Y-12712799D02*
X18076955Y-12747786D01*
D13*
X10111536Y-4888524D02*
G75*
G03*
X10161527Y-4938524I49994J-6D01*
G01*
D10*
X8075724Y-12990644D02*
X8084739Y-12987596D01*
X18076955Y-12747786D02*
X18069527Y-12764574D01*
X18129311Y-2017360D02*
X18124555Y-1964061D01*
D11*
X10611527Y-4581424D02*
X10611527Y-4888524D01*
D10*
X17531527Y-13025574D02*
X17609745Y-13023357D01*
X10291095Y-1883423D02*
X10276597Y-1826381D01*
X9843043Y-1502550D02*
X9853452Y-1503814D01*
X10191839Y-6664558D02*
X10185933Y-6671172D01*
X10413743Y-6312542D02*
X10418498Y-6365841D01*
X3049601Y-13017339D02*
X3039192Y-13016074D01*
D11*
X12516527Y-9369974D02*
X12516527Y-10589974D01*
D10*
X17974990Y-12894075D02*
X17981258Y-12887823D01*
X10449504Y-6512536D02*
X10452554Y-6521551D01*
X12323498Y-12557091D02*
X12324763Y-12567501D01*
X8018684Y-13005142D02*
X8075724Y-12990644D01*
X18090500Y-1808352D02*
X18076956Y-1773364D01*
X12647329Y-12990646D02*
X12638316Y-12987598D01*
X2723026Y-12869036D02*
X2729277Y-12875305D01*
D11*
X10311527Y-2095579D02*
X10311527Y-2528524D01*
X10611527Y-5800624D02*
X10611527Y-5493879D01*
X5041827Y-1495579D02*
X5041827Y-2045301D01*
D10*
X2804962Y-1584237D02*
X2761292Y-1615267D01*
X12594315Y-12971003D02*
X12577526Y-12963574D01*
X18129312Y-12503790D02*
X18124556Y-12557090D01*
D12*
X10926527Y-1870579D02*
G75*
G03*
X10926527Y-1870579I-140000J0D01*
G01*
D11*
X12316527Y-8862174D02*
X12316527Y-9369974D01*
X8406527Y-9369974D02*
X8406527Y-8862174D01*
X10411527Y-3748524D02*
X10411527Y-4581424D01*
D10*
X10574678Y-1621173D02*
X10568063Y-1627077D01*
D11*
X10111527Y-4888524D02*
X10111527Y-4581424D01*
X8418527Y-7140324D02*
X8414576Y-7161533D01*
D13*
X10561527Y-4938517D02*
G75*
G03*
X10611527Y-4888524I13J49987D01*
G01*
D10*
X12357554Y-12712801D02*
X12371098Y-12747787D01*
D11*
X12313992Y-7207968D02*
X12315261Y-7223968D01*
D10*
X12785011Y-13018605D02*
X12774601Y-13017339D01*
X2601026Y-12577909D02*
X2611959Y-12637730D01*
D11*
X12151527Y-6900324D02*
X12156985Y-6903956D01*
D10*
X8236762Y-12905885D02*
X8243375Y-12899980D01*
X10500186Y-6620889D02*
X10531215Y-6664560D01*
D11*
X8733736Y-6842373D02*
X8712527Y-6846324D01*
D10*
X2979371Y-1516010D02*
X2922330Y-1530508D01*
X17993776Y-1645846D02*
X17987527Y-1639577D01*
X2723026Y-1652117D02*
X2729276Y-1645848D01*
X12436215Y-12855810D02*
X12442121Y-12862422D01*
X8084739Y-12987596D02*
X8093753Y-12984547D01*
X10724301Y-6793300D02*
X10689315Y-6779753D01*
X10270500Y-1808354D02*
X10256956Y-1773366D01*
X10311527Y-5801424D02*
X10111527Y-5801424D01*
X10291095Y-6446479D02*
X10276597Y-6503520D01*
X18069526Y-1756577D02*
X18042868Y-1709013D01*
X10302027Y-1943243D02*
X10291095Y-1883423D01*
X9998752Y-1536604D02*
X10033740Y-1550150D01*
D11*
X15681227Y-2045301D02*
X15224027Y-2045301D01*
X11989317Y-6842373D02*
X11974100Y-6840249D01*
X8450486Y-7039539D02*
X8456196Y-7027497D01*
D10*
X2680185Y-12812139D02*
X2711216Y-12855808D01*
D11*
X8439989Y-7064435D02*
X8450486Y-7039539D01*
D10*
X18011839Y-1665343D02*
X18005933Y-1658730D01*
X10537121Y-6671172D02*
X10543026Y-6677787D01*
X10273549Y-1817368D02*
X10270500Y-1808354D01*
X10180028Y-6677785D02*
X10173777Y-6684055D01*
X2904301Y-12984548D02*
X2869314Y-12971003D01*
D11*
X8407527Y-7229324D02*
X8406527Y-7262324D01*
D10*
X17531527Y-1495579D02*
X17609743Y-1497793D01*
X10537119Y-1658731D02*
X10543025Y-1652117D01*
X9843043Y-6827352D02*
X9853453Y-6826088D01*
X12486292Y-12905885D02*
X12479679Y-12899982D01*
D11*
X5956227Y-1495579D02*
X5956227Y-2045301D01*
X12224083Y-6962801D02*
X12215527Y-6953324D01*
X12197518Y-6935315D02*
X12206527Y-6944324D01*
D13*
X10611521Y-5493879D02*
G75*
G03*
X10561527Y-5443879I-50001J-1D01*
G01*
D10*
X8399556Y-12557090D02*
X8398292Y-12567499D01*
X8365502Y-12712800D02*
X8351956Y-12747786D01*
X12316527Y-9369974D02*
X12516527Y-9369974D01*
D11*
X2741527Y-4682979D02*
X2741527Y-4432979D01*
D10*
X9998752Y-6793298D02*
X10033740Y-6779752D01*
X17663044Y-13018602D02*
X17673453Y-13017338D01*
X9923683Y-1516010D02*
X9980724Y-1530508D01*
X18131527Y-2095578D02*
X18129311Y-2017360D01*
D11*
X2741527Y-3968978D02*
X2741527Y-3718978D01*
D10*
X9853452Y-1503814D02*
X9863862Y-1505078D01*
X17800725Y-12990644D02*
X17809739Y-12987596D01*
X12577526Y-12963574D02*
X12529962Y-12936915D01*
X17918091Y-1584237D02*
X17961762Y-1615267D01*
D11*
X12283064Y-7064435D02*
X12287850Y-7077288D01*
D10*
X18122027Y-12577908D02*
X18111096Y-12637730D01*
X10543025Y-1652117D02*
X10549276Y-1645847D01*
X2754679Y-12899980D02*
X2748065Y-12894075D01*
D11*
X2741527Y-2668979D02*
X2766527Y-2668979D01*
X8507527Y-6953324D02*
X8498970Y-6962801D01*
X3191527Y-13025574D02*
X7806527Y-13025574D01*
D10*
X2632553Y-1808353D02*
X2646098Y-1773366D01*
X2611959Y-12637730D02*
X2626457Y-12694771D01*
X12351455Y-12694772D02*
X12354504Y-12703786D01*
D11*
X12310601Y-7176750D02*
X12313992Y-7207968D01*
D10*
X8386096Y-12637730D02*
X8371598Y-12694770D01*
X12324763Y-12567501D02*
X12326025Y-12577911D01*
X10446456Y-6503522D02*
X10449504Y-6512536D01*
X10531215Y-6664560D02*
X10537121Y-6671172D01*
X10568063Y-1627077D02*
X10561794Y-1633329D01*
D11*
X8407527Y-7229324D02*
X8407793Y-7223968D01*
D10*
X10742329Y-6799396D02*
X10733316Y-6796348D01*
X12354504Y-12703786D02*
X12357554Y-12712801D01*
X10733316Y-6796348D02*
X10724301Y-6793300D01*
X18131527Y-3382978D02*
X18131527Y-3718978D01*
D11*
X8780171Y-6836858D02*
X8796171Y-6835590D01*
D10*
X9863862Y-6824824D02*
X9923683Y-6813891D01*
D11*
X8435204Y-7077288D02*
X8439989Y-7064435D01*
D10*
X10311527Y-2528524D02*
X10111527Y-2528524D01*
D11*
X14766827Y-2045301D02*
X14766827Y-1495579D01*
D10*
X8368550Y-12703784D02*
X8365502Y-12712800D01*
D11*
X12048562Y-6855324D02*
X12073562Y-6863001D01*
D10*
X8256259Y-12887823D02*
X8262527Y-12881573D01*
X9989738Y-1533557D02*
X9998752Y-1536604D01*
X12466795Y-12887825D02*
X12460525Y-12881575D01*
D11*
X8690434Y-6851356D02*
X8712527Y-6846324D01*
X8584527Y-6892324D02*
X8599700Y-6883993D01*
D10*
X12316527Y-12317774D02*
X12316527Y-12425574D01*
X9989738Y-6796346D02*
X9998752Y-6793298D01*
X10033740Y-1550150D02*
X10050526Y-1557578D01*
X10222868Y-1709014D02*
X10191838Y-1665345D01*
X10276597Y-1826381D02*
X10273549Y-1817368D01*
D11*
X12258527Y-7012324D02*
X12250527Y-6999324D01*
D10*
X12838311Y-13023359D02*
X12785011Y-13018605D01*
D11*
X12516527Y-11097774D02*
X12516527Y-12317774D01*
D10*
X10473527Y-6573324D02*
X10500186Y-6620889D01*
D12*
X12831527Y-12650573D02*
G75*
G03*
X12831527Y-12650573I-140000J0D01*
G01*
D10*
X10304556Y-6365841D02*
X10303292Y-6376249D01*
X2869314Y-12971003D02*
X2852527Y-12963574D01*
X10098092Y-6745665D02*
X10141761Y-6714634D01*
X2717121Y-1658730D02*
X2723026Y-1652117D01*
X3191527Y-1495579D02*
X3113309Y-1497795D01*
D11*
X2591527Y-3382979D02*
X2741527Y-3382979D01*
D10*
X12371098Y-12747787D02*
X12378527Y-12764574D01*
D11*
X9711527Y-1495579D02*
X5956227Y-1495579D01*
D10*
X12916527Y-13025574D02*
X12838311Y-13023359D01*
X2741796Y-1633328D02*
X2735527Y-1639579D01*
D12*
X10076527Y-6459324D02*
G75*
G03*
X10076527Y-6459324I-140000J0D01*
G01*
D10*
X17673452Y-1503813D02*
X17683862Y-1505077D01*
X2599762Y-12567500D02*
X2601026Y-12577909D01*
D11*
X12516527Y-7642173D02*
X12516527Y-8862174D01*
D10*
X10531215Y-1665344D02*
X10537119Y-1658731D01*
X18000028Y-1652115D02*
X17993776Y-1645846D01*
D11*
X8566068Y-6903956D02*
X8571527Y-6900324D01*
D10*
X9711527Y-1495579D02*
X9789744Y-1497795D01*
D11*
X12316527Y-7262324D02*
X12315527Y-7229324D01*
D10*
X7948453Y-13017338D02*
X7958863Y-13016075D01*
X11876527Y-6834324D02*
X11011527Y-6834324D01*
X10154988Y-6702824D02*
X10161259Y-6696573D01*
X10500185Y-1709014D02*
X10531215Y-1665344D01*
X2804962Y-12936916D02*
X2761293Y-12905885D01*
X2653527Y-1756579D02*
X2680185Y-1709014D01*
X3049601Y-1503814D02*
X3039192Y-1505078D01*
X10311527Y-4581424D02*
X10111527Y-4581424D01*
D11*
X12308477Y-7161533D02*
X12304527Y-7140324D01*
D10*
X9789745Y-6832107D02*
X9843043Y-6827352D01*
X2979371Y-13005142D02*
X2922330Y-12990644D01*
D12*
X17896526Y-1870579D02*
G75*
G03*
X17896526Y-1870579I-140000J0D01*
G01*
D10*
X10574679Y-6708732D02*
X10568064Y-6702826D01*
X10141761Y-6714634D02*
X10148376Y-6708729D01*
X12704370Y-13005144D02*
X12647329Y-12990646D01*
D11*
X12246894Y-6993865D02*
X12250527Y-6999324D01*
D10*
X10672526Y-1557579D02*
X10624961Y-1584237D01*
X12326025Y-12577911D02*
X12336959Y-12637732D01*
X8406527Y-8862173D02*
X8206527Y-8862173D01*
D11*
X8611742Y-6878282D02*
X8636638Y-6867786D01*
D10*
X9980725Y-6799393D02*
X9989738Y-6796346D01*
X17853740Y-12971003D02*
X17870527Y-12963573D01*
D11*
X2741527Y-3968978D02*
X2766527Y-3968978D01*
D10*
X8371598Y-12694770D02*
X8368550Y-12703784D01*
X12638316Y-12987598D02*
X12629301Y-12984550D01*
D11*
X11942883Y-6836858D02*
X11974100Y-6840249D01*
D10*
X12774601Y-13017339D02*
X12764192Y-13016076D01*
X10185933Y-6671172D02*
X10180028Y-6677785D01*
X10303292Y-6376249D02*
X10302027Y-6386658D01*
D13*
X10161527Y-5443877D02*
G75*
G03*
X10111527Y-5493879I13J-50013D01*
G01*
D10*
X10431960Y-6446482D02*
X10446456Y-6503522D01*
X10256956Y-1773366D02*
X10249527Y-1756578D01*
D11*
X17981527Y-3968978D02*
X17956527Y-3968979D01*
X12151527Y-6900324D02*
X12138527Y-6892324D01*
D10*
X10411526Y-6234325D02*
X10413743Y-6312542D01*
X10191838Y-1665345D02*
X10185933Y-1658730D01*
X18042868Y-12812138D02*
X18011838Y-12855809D01*
X12405185Y-12812139D02*
X12436215Y-12855810D01*
X2717121Y-12862422D02*
X2723026Y-12869036D01*
X17809739Y-12987596D02*
X17818752Y-12984547D01*
X10568064Y-6702826D02*
X10561795Y-6696575D01*
D11*
X18131527Y-3718978D02*
X17981527Y-3718978D01*
X12123354Y-6883993D02*
X12138527Y-6892324D01*
D10*
X12316527Y-11097774D02*
X12516527Y-11097774D01*
X18011838Y-12855809D02*
X18005934Y-12862422D01*
X17853739Y-1550150D02*
X17870528Y-1557578D01*
X2593743Y-12503791D02*
X2598498Y-12557090D01*
D11*
X5956227Y-2045301D02*
X5041827Y-2045301D01*
D10*
X8145528Y-12963573D02*
X8193092Y-12936915D01*
X12316527Y-7642173D02*
X12516527Y-7642173D01*
D11*
X8796171Y-6835590D02*
X8801527Y-6835324D01*
X3191527Y-1495579D02*
X5041827Y-1495579D01*
X8472527Y-6999324D02*
X8476159Y-6993865D01*
D10*
X2913315Y-12987596D02*
X2904301Y-12984548D01*
X10933311Y-6832109D02*
X10880011Y-6827355D01*
D11*
X8406527Y-12425574D02*
X8406527Y-12317774D01*
X12272568Y-7039539D02*
X12283064Y-7064435D01*
X2591527Y-4682979D02*
X2591527Y-12425574D01*
D10*
X17743683Y-1516008D02*
X17800724Y-1530507D01*
D11*
X17981527Y-4432979D02*
X17981527Y-4682979D01*
D10*
X8093753Y-12984547D02*
X8128740Y-12971002D01*
X17981258Y-1633328D02*
X17987527Y-1639577D01*
X17918092Y-12936916D02*
X17961762Y-12905885D01*
X2852527Y-1557579D02*
X2804962Y-1584237D01*
X12479679Y-12899982D02*
X12473064Y-12894076D01*
X2646098Y-12747787D02*
X2653527Y-12764574D01*
X17818753Y-1536602D02*
X17853739Y-1550150D01*
X8406527Y-11097774D02*
X8206527Y-11097774D01*
X2598498Y-1964062D02*
X2599762Y-1953653D01*
X17993777Y-12875304D02*
X17987527Y-12881573D01*
X10543026Y-6677787D02*
X10549277Y-6684056D01*
X10452554Y-6521551D02*
X10466098Y-6556537D01*
X2611958Y-1883423D02*
X2626456Y-1826382D01*
X10148376Y-6708729D02*
X10154988Y-6702824D01*
X2729277Y-12875305D02*
X2735527Y-12881574D01*
X10303292Y-1953653D02*
X10302027Y-1943243D01*
X18131527Y-4682979D02*
X18131527Y-12425574D01*
X18124555Y-1964061D02*
X18123291Y-1953652D01*
X17961762Y-12905885D02*
X17968375Y-12899980D01*
D11*
X8690434Y-6851356D02*
X8674527Y-6855324D01*
X8406527Y-7274324D02*
X8406527Y-7642173D01*
D10*
X18124556Y-12557090D02*
X18123291Y-12567499D01*
D11*
X12316527Y-7262324D02*
X12316527Y-7274324D01*
D10*
X10724299Y-1536605D02*
X10689313Y-1550149D01*
X8317869Y-12812138D02*
X8286838Y-12855808D01*
X17961762Y-1615267D02*
X17968375Y-1621171D01*
X8406527Y-10589974D02*
X8206527Y-10589974D01*
X12336959Y-12637732D02*
X12351455Y-12694772D01*
X2591527Y-2095579D02*
X2593743Y-2017361D01*
X10311527Y-2095579D02*
X10309310Y-2017362D01*
X10421024Y-1943244D02*
X10431956Y-1883422D01*
D11*
X8834527Y-6834324D02*
X8801527Y-6835324D01*
D10*
X2904301Y-1536605D02*
X2869314Y-1550150D01*
X12473064Y-12894076D02*
X12466795Y-12887825D01*
D11*
X10111527Y-3748524D02*
X10111527Y-2528524D01*
D10*
X18131527Y-2418979D02*
X18131527Y-2095579D01*
D11*
X10561527Y-5443879D02*
X10161527Y-5443879D01*
X12156985Y-6903956D02*
X12170527Y-6913324D01*
D10*
X2601026Y-1943244D02*
X2611958Y-1883423D01*
X10869601Y-6826089D02*
X10859192Y-6824826D01*
X10473526Y-1756578D02*
X10500185Y-1709014D01*
X10411527Y-3748524D02*
X10611527Y-3748524D01*
D11*
X17981527Y-3132978D02*
X17981527Y-3382978D01*
X2741527Y-2668979D02*
X2741527Y-2418979D01*
X10311527Y-5801424D02*
X10311527Y-6234324D01*
D10*
X17673453Y-13017338D02*
X17683863Y-13016075D01*
X10050526Y-6772323D02*
X10098092Y-6745665D01*
X17683863Y-13016075D02*
X17743684Y-13005142D01*
D11*
X8552527Y-6913324D02*
X8535004Y-6926767D01*
D10*
X17663043Y-1502549D02*
X17673452Y-1503813D01*
X10799368Y-1516011D02*
X10742328Y-1530508D01*
X9923683Y-6813891D02*
X9980725Y-6799393D01*
D11*
X15681227Y-2045301D02*
X15681227Y-1495579D01*
D10*
X10302027Y-6386658D02*
X10291095Y-6446479D01*
X2629504Y-1817367D02*
X2632553Y-1808353D01*
X17974989Y-1627077D02*
X17981258Y-1633328D01*
D11*
X12188049Y-6926767D02*
X12170527Y-6913324D01*
D10*
X12448026Y-12869037D02*
X12454277Y-12875306D01*
X11011526Y-1495578D02*
X10933308Y-1497795D01*
X10411527Y-2528524D02*
X10411527Y-2095579D01*
X2711215Y-1665344D02*
X2717121Y-1658730D01*
X10431956Y-1883422D02*
X10446455Y-1826381D01*
D11*
X11926883Y-6835590D02*
X11942883Y-6836858D01*
D10*
X2754678Y-1621173D02*
X2748065Y-1627078D01*
X10689313Y-1550149D02*
X10672526Y-1557579D01*
X2646098Y-1773366D02*
X2653527Y-1756579D01*
D11*
X8406527Y-7274324D02*
X8406527Y-7262324D01*
D10*
X2869314Y-1550150D02*
X2852527Y-1557579D01*
D11*
X12316527Y-7642173D02*
X12316527Y-7274324D01*
D10*
X18111096Y-12637730D02*
X18096597Y-12694770D01*
X10411527Y-2095579D02*
X10413741Y-2017363D01*
D11*
X12237527Y-6980324D02*
X12224083Y-6962801D01*
X10161527Y-4938524D02*
X10561527Y-4938524D01*
D10*
X17818752Y-12984547D02*
X17853740Y-12971003D01*
X10311527Y-6234324D02*
X10309311Y-6312541D01*
X10270501Y-6521549D02*
X10256955Y-6556536D01*
X17870527Y-12963573D02*
X17918092Y-12936916D01*
X2741796Y-12887824D02*
X2735527Y-12881574D01*
X10249527Y-6573323D02*
X10222869Y-6620888D01*
X8286838Y-12855808D02*
X8280934Y-12862422D01*
D11*
X8418527Y-7140324D02*
X8423559Y-7118230D01*
X8206527Y-8862173D02*
X8206527Y-7642173D01*
D10*
X10581292Y-6714635D02*
X10574679Y-6708732D01*
X2591527Y-2095579D02*
X2591527Y-2418979D01*
D11*
X18131527Y-2418979D02*
X17981527Y-2418979D01*
D10*
X10411527Y-6234324D02*
X10411527Y-5801424D01*
X10449503Y-1817368D02*
X10452550Y-1808353D01*
X10689315Y-6779753D02*
X10672526Y-6772324D01*
X2591527Y-3382979D02*
X2591527Y-3718978D01*
X12629301Y-12984550D02*
X12594315Y-12971003D01*
X10141761Y-1615267D02*
X10148375Y-1621173D01*
X18123291Y-1953652D02*
X18122028Y-1943242D01*
X3113309Y-1497795D02*
X3060010Y-1502550D01*
X10624961Y-1584237D02*
X10581290Y-1615267D01*
X2711216Y-12855808D02*
X2717121Y-12862422D01*
X8275028Y-12869036D02*
X8268777Y-12875304D01*
D11*
X8472527Y-6999324D02*
X8464527Y-7012324D01*
D10*
X10859190Y-1505077D02*
X10799368Y-1516011D01*
X2593743Y-2017361D02*
X2598498Y-1964062D01*
X10549276Y-1645847D02*
X10555526Y-1639578D01*
X17743684Y-13005142D02*
X17800725Y-12990644D01*
X10180027Y-1652117D02*
X10173777Y-1645848D01*
D11*
X12266857Y-7027497D02*
X12272568Y-7039539D01*
X12258527Y-7012324D02*
X12266857Y-7027497D01*
D10*
X18005934Y-12862422D02*
X18000028Y-12869035D01*
X10561795Y-6696575D02*
X10555525Y-6690325D01*
X10311527Y-3748524D02*
X10111527Y-3748524D01*
X2922330Y-1530508D02*
X2913315Y-1533556D01*
X18123291Y-12567499D02*
X18122027Y-12577908D01*
D11*
X8552527Y-6913324D02*
X8566068Y-6903956D01*
X8748953Y-6840249D02*
X8780171Y-6836858D01*
D10*
X10549277Y-6684056D02*
X10555525Y-6690325D01*
X8128740Y-12971002D02*
X8145528Y-12963573D01*
X12316527Y-12317774D02*
X12516527Y-12317774D01*
X3191527Y-13025574D02*
X3113310Y-13023358D01*
X8406527Y-12425574D02*
X8404312Y-12503790D01*
X18093549Y-12703784D02*
X18090502Y-12712799D01*
X2922330Y-12990644D02*
X2913315Y-12987596D01*
D11*
X11921527Y-6835324D02*
X11926883Y-6835590D01*
D10*
X10672526Y-6772324D02*
X10624963Y-6745665D01*
X10581290Y-1615267D02*
X10574678Y-1621173D01*
D11*
X12316527Y-10589974D02*
X12316527Y-11097774D01*
D10*
X10859192Y-6824826D02*
X10799370Y-6813894D01*
X2598498Y-12557090D02*
X2599762Y-12567500D01*
X12454277Y-12875306D02*
X12460525Y-12881575D01*
X10161259Y-6696573D02*
X10167528Y-6690323D01*
X10411527Y-5801424D02*
X10611527Y-5801424D01*
X17609743Y-1497793D02*
X17663043Y-1502549D01*
X3113310Y-13023358D02*
X3060010Y-13018603D01*
X12378527Y-12764574D02*
X12405185Y-12812139D01*
X10033740Y-6779752D02*
X10050526Y-6772323D01*
X10148375Y-1621173D02*
X10154989Y-1627078D01*
X10173777Y-1645848D02*
X10167527Y-1639578D01*
X10249527Y-1756578D02*
X10222868Y-1709014D01*
D11*
X8427527Y-7102324D02*
X8423559Y-7118230D01*
D10*
X10161258Y-1633328D02*
X10167527Y-1639578D01*
D11*
X12073562Y-6863001D02*
X12086415Y-6867786D01*
D10*
X2761293Y-12905885D02*
X2754679Y-12899980D01*
D11*
X8414576Y-7161533D02*
X8412452Y-7176750D01*
D10*
X7938044Y-13018602D02*
X7948453Y-13017338D01*
X2591527Y-12425573D02*
X2593743Y-12503791D01*
X12529962Y-12936915D02*
X12486292Y-12905885D01*
X2653527Y-12764574D02*
X2680185Y-12812139D01*
X2913315Y-1533556D02*
X2904301Y-1536605D01*
X8404312Y-12503790D02*
X8399556Y-12557090D01*
D11*
X12048527Y-6855324D02*
X12032620Y-6851356D01*
X12315261Y-7223968D02*
X12315527Y-7229324D01*
X12111311Y-6878282D02*
X12123354Y-6883993D01*
D12*
X3106526Y-1870579D02*
G75*
G03*
X3106526Y-1870579I-140000J0D01*
G01*
D10*
X7806527Y-13025574D02*
X7884745Y-13023357D01*
D11*
X9711527Y-6834324D02*
X8846527Y-6834324D01*
X8535004Y-6926767D02*
X8525527Y-6935324D01*
X10311527Y-4581424D02*
X10311527Y-3748524D01*
X12086415Y-6867786D02*
X12111311Y-6878282D01*
D10*
X10411527Y-2528524D02*
X10611527Y-2528524D01*
X10098092Y-1584237D02*
X10141761Y-1615267D01*
D12*
X8171527Y-12650574D02*
G75*
G03*
X8171527Y-12650574I-140000J0D01*
G01*
D10*
X17609745Y-13023357D02*
X17663044Y-13018602D01*
X8243375Y-12899980D02*
X8249990Y-12894075D01*
D14*
D15*
X10086527Y-4941424D02*
X10136527Y-4991424D01*
X10136527Y-4941424D02*
X10086527Y-4991424D01*
X10086527Y-5016424D02*
X10136527Y-5066424D01*
X10136527Y-5016424D02*
X10086527Y-5066424D01*
X10086527Y-5091424D02*
X10136527Y-5141424D01*
X10136527Y-5091424D02*
X10086527Y-5141424D01*
X10086527Y-5166424D02*
X10136527Y-5216424D01*
X10136527Y-5166424D02*
X10086527Y-5216424D01*
X10086527Y-5241424D02*
X10136527Y-5291424D01*
X10136527Y-5241424D02*
X10086527Y-5291424D01*
X10086527Y-5316424D02*
X10136527Y-5366424D01*
X10136527Y-5316424D02*
X10086527Y-5366424D01*
X10086527Y-5391424D02*
X10136527Y-5441424D01*
X10136527Y-5391424D02*
X10086527Y-5441424D01*
X10586527Y-4941424D02*
X10636527Y-4991424D01*
X10636527Y-4941424D02*
X10586527Y-4991424D01*
X10586527Y-5016424D02*
X10636527Y-5066424D01*
X10636527Y-5016424D02*
X10586527Y-5066424D01*
X10586527Y-5091424D02*
X10636527Y-5141424D01*
X10636527Y-5091424D02*
X10586527Y-5141424D01*
X10586527Y-5166424D02*
X10636527Y-5216424D01*
X10636527Y-5166424D02*
X10586527Y-5216424D01*
X10586527Y-5241424D02*
X10636527Y-5291424D01*
X10636527Y-5241424D02*
X10586527Y-5291424D01*
X10586527Y-5316424D02*
X10636527Y-5366424D01*
X10636527Y-5316424D02*
X10586527Y-5366424D01*
X10586527Y-5391424D02*
X10636527Y-5441424D01*
X10636527Y-5391424D02*
X10586527Y-5441424D01*
D16*
X3171524Y-6568074D02*
G75*
G03*
X3171524Y-6568074I-152500J0D01*
G01*
X3171524Y-8473074D02*
G75*
G03*
X3171524Y-8473074I-152500J0D01*
G01*
X3171524Y-10378074D02*
G75*
G03*
X3171524Y-10378074I-152500J0D01*
G01*
X3276524Y-5868074D02*
G75*
G03*
X3276524Y-5868074I-152500J0D01*
G01*
X3276524Y-7773074D02*
G75*
G03*
X3276524Y-7773074I-152500J0D01*
G01*
X3276524Y-9678074D02*
G75*
G03*
X3276524Y-9678074I-152500J0D01*
G01*
X3306524Y-4873074D02*
G75*
G03*
X3306524Y-4873074I-152500J0D01*
G01*
X4006524Y-4978074D02*
G75*
G03*
X4006524Y-4978074I-152500J0D01*
G01*
X4216524Y-2938074D02*
G75*
G03*
X4216524Y-2938074I-152500J0D01*
G01*
X4216524Y-12463074D02*
G75*
G03*
X4216524Y-12463074I-152500J0D01*
G01*
X4321524Y-2238074D02*
G75*
G03*
X4321524Y-2238074I-152500J0D01*
G01*
X4321524Y-11763074D02*
G75*
G03*
X4321524Y-11763074I-152500J0D01*
G01*
X5076524Y-7996824D02*
G75*
G03*
X5076524Y-7996824I-152500J0D01*
G01*
X5076524Y-9901824D02*
G75*
G03*
X5076524Y-9901824I-152500J0D01*
G01*
X5181524Y-7296824D02*
G75*
G03*
X5181524Y-7296824I-152500J0D01*
G01*
X5181524Y-9201824D02*
G75*
G03*
X5181524Y-9201824I-152500J0D01*
G01*
X5211524Y-6301824D02*
G75*
G03*
X5211524Y-6301824I-152500J0D01*
G01*
X5211524Y-12254944D02*
G75*
G03*
X5211524Y-12254944I-152500J0D01*
G01*
X5391524Y-2637449D02*
G75*
G03*
X5391524Y-2637449I-152500J0D01*
G01*
X5911524Y-6406824D02*
G75*
G03*
X5911524Y-6406824I-152500J0D01*
G01*
X5911524Y-12359944D02*
G75*
G03*
X5911524Y-12359944I-152500J0D01*
G01*
X6091524Y-2742449D02*
G75*
G03*
X6091524Y-2742449I-152500J0D01*
G01*
X6981524Y-11568699D02*
G75*
G03*
X6981524Y-11568699I-152500J0D01*
G01*
X7086524Y-10868699D02*
G75*
G03*
X7086524Y-10868699I-152500J0D01*
G01*
X7296524Y-2161199D02*
G75*
G03*
X7296524Y-2161199I-152500J0D01*
G01*
X7296524Y-4304324D02*
G75*
G03*
X7296524Y-4304324I-152500J0D01*
G01*
X7996524Y-2266199D02*
G75*
G03*
X7996524Y-2266199I-152500J0D01*
G01*
X7996524Y-4409324D02*
G75*
G03*
X7996524Y-4409324I-152500J0D01*
G01*
X8026524Y-7224324D02*
G75*
G03*
X8026524Y-7224324I-152500J0D01*
G01*
X8026524Y-9129324D02*
G75*
G03*
X8026524Y-9129324I-152500J0D01*
G01*
X8131524Y-6524324D02*
G75*
G03*
X8131524Y-6524324I-152500J0D01*
G01*
X8131524Y-8429324D02*
G75*
G03*
X8131524Y-8429324I-152500J0D01*
G01*
X9021524Y-6063699D02*
G75*
G03*
X9021524Y-6063699I-152500J0D01*
G01*
X9721524Y-6168699D02*
G75*
G03*
X9721524Y-6168699I-152500J0D01*
G01*
X9931524Y-3414324D02*
G75*
G03*
X9931524Y-3414324I-152500J0D01*
G01*
X10036524Y-2714324D02*
G75*
G03*
X10036524Y-2714324I-152500J0D01*
G01*
X10991456Y-3234383D02*
G75*
G03*
X10991456Y-3234383I-152500J0D01*
G01*
X10991456Y-5853758D02*
G75*
G03*
X10991456Y-5853758I-152500J0D01*
G01*
X11096456Y-2534383D02*
G75*
G03*
X11096456Y-2534383I-152500J0D01*
G01*
X11096456Y-5153758D02*
G75*
G03*
X11096456Y-5153758I-152500J0D01*
G01*
X12896455Y-8473133D02*
G75*
G03*
X12896455Y-8473133I-152500J0D01*
G01*
X12896455Y-10378133D02*
G75*
G03*
X12896455Y-10378133I-152500J0D01*
G01*
X13001455Y-7773133D02*
G75*
G03*
X13001455Y-7773133I-152500J0D01*
G01*
X13001455Y-9678133D02*
G75*
G03*
X13001455Y-9678133I-152500J0D01*
G01*
X13031455Y-4873133D02*
G75*
G03*
X13031455Y-4873133I-152500J0D01*
G01*
X13031455Y-6778133D02*
G75*
G03*
X13031455Y-6778133I-152500J0D01*
G01*
X13211455Y-11448133D02*
G75*
G03*
X13211455Y-11448133I-152500J0D01*
G01*
X13731455Y-4978133D02*
G75*
G03*
X13731455Y-4978133I-152500J0D01*
G01*
X13731455Y-6883133D02*
G75*
G03*
X13731455Y-6883133I-152500J0D01*
G01*
X13911455Y-11553133D02*
G75*
G03*
X13911455Y-11553133I-152500J0D01*
G01*
X13941455Y-2938133D02*
G75*
G03*
X13941455Y-2938133I-152500J0D01*
G01*
X14046455Y-2238133D02*
G75*
G03*
X14046455Y-2238133I-152500J0D01*
G01*
X15116455Y-2399383D02*
G75*
G03*
X15116455Y-2399383I-152500J0D01*
G01*
X15116455Y-4780633D02*
G75*
G03*
X15116455Y-4780633I-152500J0D01*
G01*
X15116455Y-8590633D02*
G75*
G03*
X15116455Y-8590633I-152500J0D01*
G01*
X15116456Y-6685633D02*
G75*
G03*
X15116456Y-6685633I-152500J0D01*
G01*
X15816455Y-2504383D02*
G75*
G03*
X15816455Y-2504383I-152500J0D01*
G01*
X15816455Y-4885633D02*
G75*
G03*
X15816455Y-4885633I-152500J0D01*
G01*
X15816455Y-8695633D02*
G75*
G03*
X15816455Y-8695633I-152500J0D01*
G01*
X15816456Y-6790633D02*
G75*
G03*
X15816456Y-6790633I-152500J0D01*
G01*
X15846456Y-11986883D02*
G75*
G03*
X15846456Y-11986883I-152500J0D01*
G01*
X15951456Y-11286883D02*
G75*
G03*
X15951456Y-11286883I-152500J0D01*
G01*
X16706455Y-11568758D02*
G75*
G03*
X16706455Y-11568758I-152500J0D01*
G01*
X16811456Y-10868758D02*
G75*
G03*
X16811456Y-10868758I-152500J0D01*
G01*
X16841456Y-5349383D02*
G75*
G03*
X16841456Y-5349383I-152500J0D01*
G01*
X17021456Y-2161258D02*
G75*
G03*
X17021456Y-2161258I-152500J0D01*
G01*
X17541456Y-5454383D02*
G75*
G03*
X17541456Y-5454383I-152500J0D01*
G01*
X17721456Y-2266258D02*
G75*
G03*
X17721456Y-2266258I-152500J0D01*
G01*
X17751456Y-7224383D02*
G75*
G03*
X17751456Y-7224383I-152500J0D01*
G01*
X17751456Y-9129383D02*
G75*
G03*
X17751456Y-9129383I-152500J0D01*
G01*
X17856456Y-6524383D02*
G75*
G03*
X17856456Y-6524383I-152500J0D01*
G01*
X17856456Y-8429383D02*
G75*
G03*
X17856456Y-8429383I-152500J0D01*
G01*
D17*
X3594024Y-2243074D02*
X3594024Y-2753074D01*
X3339024Y-2498074D02*
X3849024Y-2498074D01*
X3594024Y-4148074D02*
X3594024Y-4658074D01*
X3339024Y-4403074D02*
X3849024Y-4403074D01*
X3594024Y-6053074D02*
X3594024Y-6563074D01*
X3339024Y-6308074D02*
X3849024Y-6308074D01*
X3594024Y-7958074D02*
X3594024Y-8468074D01*
X3339024Y-8213074D02*
X3849024Y-8213074D01*
X3594024Y-9863074D02*
X3594024Y-10373074D01*
X3339024Y-10118074D02*
X3849024Y-10118074D01*
X3594024Y-11768074D02*
X3594024Y-12278074D01*
X3339024Y-12023074D02*
X3849024Y-12023074D01*
X5499024Y-2957449D02*
X5499024Y-3467449D01*
X5244024Y-3212449D02*
X5754024Y-3212449D01*
X5499024Y-5576824D02*
X5499024Y-6086824D01*
X5244024Y-5831824D02*
X5754024Y-5831824D01*
X5499024Y-7481824D02*
X5499024Y-7991824D01*
X5244024Y-7736824D02*
X5754024Y-7736824D01*
X5499024Y-9386824D02*
X5499024Y-9896824D01*
X5244024Y-9641824D02*
X5754024Y-9641824D01*
X5499024Y-11529944D02*
X5499024Y-12039944D01*
X5244024Y-11784944D02*
X5754024Y-11784944D01*
X7404024Y-2481199D02*
X7404024Y-2991199D01*
X7149024Y-2736199D02*
X7659024Y-2736199D01*
X7404024Y-4624324D02*
X7404024Y-5134324D01*
X7149024Y-4879324D02*
X7659024Y-4879324D01*
X7404024Y-6529324D02*
X7404024Y-7039324D01*
X7149024Y-6784324D02*
X7659024Y-6784324D01*
X7404024Y-8434324D02*
X7404024Y-8944324D01*
X7149024Y-8689324D02*
X7659024Y-8689324D01*
X7404024Y-11053699D02*
X7404024Y-11563699D01*
X7149024Y-11308699D02*
X7659024Y-11308699D01*
X9309024Y-2719324D02*
X9309024Y-3229324D01*
X9054024Y-2974324D02*
X9564024Y-2974324D01*
X9309024Y-5338699D02*
X9309024Y-5848699D01*
X9054024Y-5593699D02*
X9564024Y-5593699D01*
X11413956Y-2719383D02*
X11413956Y-3229383D01*
X11158956Y-2974383D02*
X11668956Y-2974383D01*
X11413956Y-5338758D02*
X11413956Y-5848758D01*
X11158956Y-5593758D02*
X11668956Y-5593758D01*
X13318955Y-2243133D02*
X13318955Y-2753133D01*
X13063955Y-2498133D02*
X13573955Y-2498133D01*
X13318955Y-4148133D02*
X13318955Y-4658133D01*
X13063955Y-4403133D02*
X13573955Y-4403133D01*
X13318955Y-6053133D02*
X13318955Y-6563133D01*
X13063955Y-6308133D02*
X13573955Y-6308133D01*
X13318955Y-7958133D02*
X13318955Y-8468133D01*
X13063955Y-8213133D02*
X13573955Y-8213133D01*
X13318955Y-9863133D02*
X13318955Y-10373133D01*
X13063955Y-10118133D02*
X13573955Y-10118133D01*
X13318955Y-11768133D02*
X13318955Y-12278133D01*
X13063955Y-12023133D02*
X13573955Y-12023133D01*
X15223955Y-2719383D02*
X15223955Y-3229383D01*
X14968955Y-2974383D02*
X15478955Y-2974383D01*
X15223955Y-5100633D02*
X15223955Y-5610633D01*
X14968955Y-5355633D02*
X15478955Y-5355633D01*
X15223955Y-8910633D02*
X15223955Y-9420633D01*
X14968955Y-9165633D02*
X15478955Y-9165633D01*
X15223956Y-7005633D02*
X15223956Y-7515633D01*
X14968956Y-7260633D02*
X15478956Y-7260633D01*
X15223956Y-11291883D02*
X15223956Y-11801883D01*
X14968956Y-11546883D02*
X15478956Y-11546883D01*
X17128956Y-4624383D02*
X17128956Y-5134383D01*
X16873956Y-4879383D02*
X17383956Y-4879383D01*
X17128956Y-6529383D02*
X17128956Y-7039383D01*
X16873956Y-6784383D02*
X17383956Y-6784383D01*
X17128956Y-8434383D02*
X17128956Y-8944383D01*
X16873956Y-8689383D02*
X17383956Y-8689383D01*
X17128956Y-11053758D02*
X17128956Y-11563758D01*
X16873956Y-11308758D02*
X17383956Y-11308758D01*
X17128956Y-2481258D02*
X17128956Y-2991258D01*
X16873956Y-2736258D02*
X17383956Y-2736258D01*
D14*
X2847240Y-13337955D02*
X2847240Y-13137955D01*
X2894859Y-13137955D01*
X2923431Y-13147479D01*
X2942479Y-13166526D01*
X2952002Y-13185574D01*
X2961526Y-13223669D01*
X2961526Y-13252241D01*
X2952002Y-13290336D01*
X2942479Y-13309383D01*
X2923431Y-13328431D01*
X2894859Y-13337955D01*
X2847240Y-13337955D01*
X3047240Y-13337955D02*
X3047240Y-13204621D01*
X3047240Y-13242717D02*
X3056764Y-13223669D01*
X3066288Y-13214145D01*
X3085336Y-13204621D01*
X3104383Y-13204621D01*
X3171050Y-13337955D02*
X3171050Y-13204621D01*
X3171050Y-13137955D02*
X3161526Y-13147479D01*
X3171050Y-13157002D01*
X3180574Y-13147479D01*
X3171050Y-13137955D01*
X3171050Y-13157002D01*
X3294859Y-13337955D02*
X3275812Y-13328431D01*
X3266288Y-13309383D01*
X3266288Y-13137955D01*
X3399621Y-13337955D02*
X3380574Y-13328431D01*
X3371050Y-13309383D01*
X3371050Y-13137955D01*
X3628193Y-13337955D02*
X3628193Y-13137955D01*
X3694859Y-13280812D01*
X3761526Y-13137955D01*
X3761526Y-13337955D01*
X3942479Y-13337955D02*
X3942479Y-13233193D01*
X3932955Y-13214145D01*
X3913907Y-13204621D01*
X3875812Y-13204621D01*
X3856764Y-13214145D01*
X3942479Y-13328431D02*
X3923431Y-13337955D01*
X3875812Y-13337955D01*
X3856764Y-13328431D01*
X3847240Y-13309383D01*
X3847240Y-13290336D01*
X3856764Y-13271288D01*
X3875812Y-13261764D01*
X3923431Y-13261764D01*
X3942479Y-13252241D01*
X4037717Y-13204621D02*
X4037717Y-13404621D01*
X4037717Y-13214145D02*
X4056764Y-13204621D01*
X4094859Y-13204621D01*
X4113907Y-13214145D01*
X4123431Y-13223669D01*
X4132955Y-13242717D01*
X4132955Y-13299860D01*
X4123431Y-13318907D01*
X4113907Y-13328431D01*
X4094859Y-13337955D01*
X4056764Y-13337955D01*
X4037717Y-13328431D01*
X4218669Y-13318907D02*
X4228193Y-13328431D01*
X4218669Y-13337955D01*
X4209145Y-13328431D01*
X4218669Y-13318907D01*
X4218669Y-13337955D01*
X4218669Y-13214145D02*
X4228193Y-13223669D01*
X4218669Y-13233193D01*
X4209145Y-13223669D01*
X4218669Y-13214145D01*
X4218669Y-13233193D01*
D15*
X2539622Y-13642479D02*
X2589622Y-13692479D01*
X2589622Y-13642479D02*
X2539622Y-13692479D01*
D14*
X2885336Y-13557955D02*
X2904383Y-13557955D01*
X2923431Y-13567479D01*
X2932955Y-13577002D01*
X2942479Y-13596050D01*
X2952002Y-13634145D01*
X2952002Y-13681764D01*
X2942479Y-13719860D01*
X2932955Y-13738907D01*
X2923431Y-13748431D01*
X2904383Y-13757955D01*
X2885336Y-13757955D01*
X2866288Y-13748431D01*
X2856764Y-13738907D01*
X2847240Y-13719860D01*
X2837717Y-13681764D01*
X2837717Y-13634145D01*
X2847240Y-13596050D01*
X2856764Y-13577002D01*
X2866288Y-13567479D01*
X2885336Y-13557955D01*
X3037717Y-13738907D02*
X3047240Y-13748431D01*
X3037717Y-13757955D01*
X3028193Y-13748431D01*
X3037717Y-13738907D01*
X3037717Y-13757955D01*
X3228193Y-13557955D02*
X3132955Y-13557955D01*
X3123431Y-13653193D01*
X3132955Y-13643669D01*
X3152002Y-13634145D01*
X3199621Y-13634145D01*
X3218669Y-13643669D01*
X3228193Y-13653193D01*
X3237717Y-13672241D01*
X3237717Y-13719860D01*
X3228193Y-13738907D01*
X3218669Y-13748431D01*
X3199621Y-13757955D01*
X3152002Y-13757955D01*
X3132955Y-13748431D01*
X3123431Y-13738907D01*
X3361526Y-13557955D02*
X3380574Y-13557955D01*
X3399621Y-13567479D01*
X3409145Y-13577002D01*
X3418669Y-13596050D01*
X3428193Y-13634145D01*
X3428193Y-13681764D01*
X3418669Y-13719860D01*
X3409145Y-13738907D01*
X3399621Y-13748431D01*
X3380574Y-13757955D01*
X3361526Y-13757955D01*
X3342479Y-13748431D01*
X3332955Y-13738907D01*
X3323431Y-13719860D01*
X3313907Y-13681764D01*
X3313907Y-13634145D01*
X3323431Y-13596050D01*
X3332955Y-13577002D01*
X3342479Y-13567479D01*
X3361526Y-13557955D01*
X3552002Y-13557955D02*
X3571050Y-13557955D01*
X3590098Y-13567479D01*
X3599621Y-13577002D01*
X3609145Y-13596050D01*
X3618669Y-13634145D01*
X3618669Y-13681764D01*
X3609145Y-13719860D01*
X3599621Y-13738907D01*
X3590098Y-13748431D01*
X3571050Y-13757955D01*
X3552002Y-13757955D01*
X3532955Y-13748431D01*
X3523431Y-13738907D01*
X3513907Y-13719860D01*
X3504383Y-13681764D01*
X3504383Y-13634145D01*
X3513907Y-13596050D01*
X3523431Y-13577002D01*
X3532955Y-13567479D01*
X3552002Y-13557955D01*
X3704383Y-13757955D02*
X3704383Y-13624621D01*
X3704383Y-13643669D02*
X3713907Y-13634145D01*
X3732955Y-13624621D01*
X3761526Y-13624621D01*
X3780574Y-13634145D01*
X3790098Y-13653193D01*
X3790098Y-13757955D01*
X3790098Y-13653193D02*
X3799621Y-13634145D01*
X3818669Y-13624621D01*
X3847240Y-13624621D01*
X3866288Y-13634145D01*
X3875812Y-13653193D01*
X3875812Y-13757955D01*
X3971050Y-13757955D02*
X3971050Y-13624621D01*
X3971050Y-13643669D02*
X3980574Y-13634145D01*
X3999621Y-13624621D01*
X4028193Y-13624621D01*
X4047240Y-13634145D01*
X4056764Y-13653193D01*
X4056764Y-13757955D01*
X4056764Y-13653193D02*
X4066288Y-13634145D01*
X4085336Y-13624621D01*
X4113907Y-13624621D01*
X4132955Y-13634145D01*
X4142479Y-13653193D01*
X4142479Y-13757955D01*
X4532955Y-13548431D02*
X4361526Y-13805574D01*
X4790098Y-13557955D02*
X4809145Y-13557955D01*
X4828193Y-13567479D01*
X4837717Y-13577002D01*
X4847241Y-13596050D01*
X4856764Y-13634145D01*
X4856764Y-13681764D01*
X4847241Y-13719860D01*
X4837717Y-13738907D01*
X4828193Y-13748431D01*
X4809145Y-13757955D01*
X4790098Y-13757955D01*
X4771050Y-13748431D01*
X4761526Y-13738907D01*
X4752002Y-13719860D01*
X4742479Y-13681764D01*
X4742479Y-13634145D01*
X4752002Y-13596050D01*
X4761526Y-13577002D01*
X4771050Y-13567479D01*
X4790098Y-13557955D01*
X4942479Y-13738907D02*
X4952002Y-13748431D01*
X4942479Y-13757955D01*
X4932955Y-13748431D01*
X4942479Y-13738907D01*
X4942479Y-13757955D01*
X5075812Y-13557955D02*
X5094860Y-13557955D01*
X5113907Y-13567479D01*
X5123431Y-13577002D01*
X5132955Y-13596050D01*
X5142479Y-13634145D01*
X5142479Y-13681764D01*
X5132955Y-13719860D01*
X5123431Y-13738907D01*
X5113907Y-13748431D01*
X5094860Y-13757955D01*
X5075812Y-13757955D01*
X5056764Y-13748431D01*
X5047241Y-13738907D01*
X5037717Y-13719860D01*
X5028193Y-13681764D01*
X5028193Y-13634145D01*
X5037717Y-13596050D01*
X5047241Y-13577002D01*
X5056764Y-13567479D01*
X5075812Y-13557955D01*
X5332955Y-13757955D02*
X5218669Y-13757955D01*
X5275812Y-13757955D02*
X5275812Y-13557955D01*
X5256764Y-13586526D01*
X5237717Y-13605574D01*
X5218669Y-13615098D01*
X5428193Y-13757955D02*
X5466288Y-13757955D01*
X5485336Y-13748431D01*
X5494860Y-13738907D01*
X5513907Y-13710336D01*
X5523431Y-13672241D01*
X5523431Y-13596050D01*
X5513907Y-13577002D01*
X5504383Y-13567479D01*
X5485336Y-13557955D01*
X5447241Y-13557955D01*
X5428193Y-13567479D01*
X5418669Y-13577002D01*
X5409145Y-13596050D01*
X5409145Y-13643669D01*
X5418669Y-13662717D01*
X5428193Y-13672241D01*
X5447241Y-13681764D01*
X5485336Y-13681764D01*
X5504383Y-13672241D01*
X5513907Y-13662717D01*
X5523431Y-13643669D01*
X5590098Y-13557955D02*
X5723431Y-13557955D01*
X5637717Y-13757955D01*
X5790098Y-13557955D02*
X5790098Y-13596050D01*
X5866288Y-13557955D02*
X5866288Y-13596050D01*
X6161526Y-13834145D02*
X6152002Y-13824621D01*
X6132955Y-13796050D01*
X6123431Y-13777002D01*
X6113907Y-13748431D01*
X6104383Y-13700812D01*
X6104383Y-13662717D01*
X6113907Y-13615098D01*
X6123431Y-13586526D01*
X6132955Y-13567479D01*
X6152002Y-13538907D01*
X6161526Y-13529383D01*
X6342479Y-13757955D02*
X6228193Y-13757955D01*
X6285336Y-13757955D02*
X6285336Y-13557955D01*
X6266288Y-13586526D01*
X6247240Y-13605574D01*
X6228193Y-13615098D01*
X6513907Y-13624621D02*
X6513907Y-13757955D01*
X6466288Y-13548431D02*
X6418669Y-13691288D01*
X6542479Y-13691288D01*
X6771050Y-13757955D02*
X6771050Y-13557955D01*
X6856764Y-13757955D02*
X6856764Y-13653193D01*
X6847240Y-13634145D01*
X6828193Y-13624621D01*
X6799621Y-13624621D01*
X6780574Y-13634145D01*
X6771050Y-13643669D01*
X6980574Y-13757955D02*
X6961526Y-13748431D01*
X6952002Y-13738907D01*
X6942479Y-13719860D01*
X6942479Y-13662717D01*
X6952002Y-13643669D01*
X6961526Y-13634145D01*
X6980574Y-13624621D01*
X7009145Y-13624621D01*
X7028193Y-13634145D01*
X7037717Y-13643669D01*
X7047240Y-13662717D01*
X7047240Y-13719860D01*
X7037717Y-13738907D01*
X7028193Y-13748431D01*
X7009145Y-13757955D01*
X6980574Y-13757955D01*
X7161526Y-13757955D02*
X7142479Y-13748431D01*
X7132955Y-13729383D01*
X7132955Y-13557955D01*
X7313907Y-13748431D02*
X7294859Y-13757955D01*
X7256764Y-13757955D01*
X7237717Y-13748431D01*
X7228193Y-13729383D01*
X7228193Y-13653193D01*
X7237717Y-13634145D01*
X7256764Y-13624621D01*
X7294859Y-13624621D01*
X7313907Y-13634145D01*
X7323431Y-13653193D01*
X7323431Y-13672241D01*
X7228193Y-13691288D01*
X7399621Y-13748431D02*
X7418669Y-13757955D01*
X7456764Y-13757955D01*
X7475812Y-13748431D01*
X7485336Y-13729383D01*
X7485336Y-13719860D01*
X7475812Y-13700812D01*
X7456764Y-13691288D01*
X7428193Y-13691288D01*
X7409145Y-13681764D01*
X7399621Y-13662717D01*
X7399621Y-13653193D01*
X7409145Y-13634145D01*
X7428193Y-13624621D01*
X7456764Y-13624621D01*
X7475812Y-13634145D01*
X7552002Y-13834145D02*
X7561526Y-13824621D01*
X7580574Y-13796050D01*
X7590098Y-13777002D01*
X7599621Y-13748431D01*
X7609145Y-13700812D01*
X7609145Y-13662717D01*
X7599621Y-13615098D01*
X7590098Y-13586526D01*
X7580574Y-13567479D01*
X7561526Y-13538907D01*
X7552002Y-13529383D01*
X7913907Y-13834145D02*
X7904383Y-13824621D01*
X7885336Y-13796050D01*
X7875812Y-13777002D01*
X7866288Y-13748431D01*
X7856764Y-13700812D01*
X7856764Y-13662717D01*
X7866288Y-13615098D01*
X7875812Y-13586526D01*
X7885336Y-13567479D01*
X7904383Y-13538907D01*
X7913907Y-13529383D01*
X7990098Y-13624621D02*
X7990098Y-13757955D01*
X7990098Y-13643669D02*
X7999621Y-13634145D01*
X8018669Y-13624621D01*
X8047240Y-13624621D01*
X8066288Y-13634145D01*
X8075812Y-13653193D01*
X8075812Y-13757955D01*
X8199621Y-13757955D02*
X8180574Y-13748431D01*
X8171050Y-13738907D01*
X8161526Y-13719860D01*
X8161526Y-13662717D01*
X8171050Y-13643669D01*
X8180574Y-13634145D01*
X8199621Y-13624621D01*
X8228193Y-13624621D01*
X8247240Y-13634145D01*
X8256764Y-13643669D01*
X8266288Y-13662717D01*
X8266288Y-13719860D01*
X8256764Y-13738907D01*
X8247240Y-13748431D01*
X8228193Y-13757955D01*
X8199621Y-13757955D01*
X8323431Y-13624621D02*
X8399621Y-13624621D01*
X8352002Y-13557955D02*
X8352002Y-13729383D01*
X8361526Y-13748431D01*
X8380574Y-13757955D01*
X8399621Y-13757955D01*
X8618669Y-13624621D02*
X8618669Y-13824621D01*
X8618669Y-13634145D02*
X8637717Y-13624621D01*
X8675812Y-13624621D01*
X8694860Y-13634145D01*
X8704383Y-13643669D01*
X8713907Y-13662717D01*
X8713907Y-13719860D01*
X8704383Y-13738907D01*
X8694860Y-13748431D01*
X8675812Y-13757955D01*
X8637717Y-13757955D01*
X8618669Y-13748431D01*
X8828193Y-13757955D02*
X8809145Y-13748431D01*
X8799621Y-13729383D01*
X8799621Y-13557955D01*
X8990098Y-13757955D02*
X8990098Y-13653193D01*
X8980574Y-13634145D01*
X8961526Y-13624621D01*
X8923431Y-13624621D01*
X8904383Y-13634145D01*
X8990098Y-13748431D02*
X8971050Y-13757955D01*
X8923431Y-13757955D01*
X8904383Y-13748431D01*
X8894860Y-13729383D01*
X8894860Y-13710336D01*
X8904383Y-13691288D01*
X8923431Y-13681764D01*
X8971050Y-13681764D01*
X8990098Y-13672241D01*
X9056764Y-13624621D02*
X9132955Y-13624621D01*
X9085336Y-13557955D02*
X9085336Y-13729383D01*
X9094860Y-13748431D01*
X9113907Y-13757955D01*
X9132955Y-13757955D01*
X9275812Y-13748431D02*
X9256764Y-13757955D01*
X9218669Y-13757955D01*
X9199621Y-13748431D01*
X9190098Y-13729383D01*
X9190098Y-13653193D01*
X9199621Y-13634145D01*
X9218669Y-13624621D01*
X9256764Y-13624621D01*
X9275812Y-13634145D01*
X9285336Y-13653193D01*
X9285336Y-13672241D01*
X9190098Y-13691288D01*
X9456764Y-13757955D02*
X9456764Y-13557955D01*
X9456764Y-13748431D02*
X9437717Y-13757955D01*
X9399621Y-13757955D01*
X9380574Y-13748431D01*
X9371050Y-13738907D01*
X9361526Y-13719860D01*
X9361526Y-13662717D01*
X9371050Y-13643669D01*
X9380574Y-13634145D01*
X9399621Y-13624621D01*
X9437717Y-13624621D01*
X9456764Y-13634145D01*
X9532955Y-13834145D02*
X9542479Y-13824621D01*
X9561526Y-13796050D01*
X9571050Y-13777002D01*
X9580574Y-13748431D01*
X9590098Y-13700812D01*
X9590098Y-13662717D01*
X9580574Y-13615098D01*
X9571050Y-13586526D01*
X9561526Y-13567479D01*
X9542479Y-13538907D01*
X9532955Y-13529383D01*
X2589622Y-13931479D02*
G75*
G03*
X2589622Y-13931479I-100000J0D01*
G01*
X2828193Y-13821955D02*
X2952002Y-13821955D01*
X2885336Y-13898145D01*
X2913907Y-13898145D01*
X2932955Y-13907669D01*
X2942479Y-13917193D01*
X2952002Y-13936241D01*
X2952002Y-13983860D01*
X2942479Y-14002907D01*
X2932955Y-14012431D01*
X2913907Y-14021955D01*
X2856764Y-14021955D01*
X2837717Y-14012431D01*
X2828193Y-14002907D01*
X3037717Y-14002907D02*
X3047240Y-14012431D01*
X3037717Y-14021955D01*
X3028193Y-14012431D01*
X3037717Y-14002907D01*
X3037717Y-14021955D01*
X3171050Y-13821955D02*
X3190098Y-13821955D01*
X3209145Y-13831479D01*
X3218669Y-13841002D01*
X3228193Y-13860050D01*
X3237717Y-13898145D01*
X3237717Y-13945764D01*
X3228193Y-13983860D01*
X3218669Y-14002907D01*
X3209145Y-14012431D01*
X3190098Y-14021955D01*
X3171050Y-14021955D01*
X3152002Y-14012431D01*
X3142479Y-14002907D01*
X3132955Y-13983860D01*
X3123431Y-13945764D01*
X3123431Y-13898145D01*
X3132955Y-13860050D01*
X3142479Y-13841002D01*
X3152002Y-13831479D01*
X3171050Y-13821955D01*
X3418669Y-13821955D02*
X3323431Y-13821955D01*
X3313907Y-13917193D01*
X3323431Y-13907669D01*
X3342479Y-13898145D01*
X3390098Y-13898145D01*
X3409145Y-13907669D01*
X3418669Y-13917193D01*
X3428193Y-13936241D01*
X3428193Y-13983860D01*
X3418669Y-14002907D01*
X3409145Y-14012431D01*
X3390098Y-14021955D01*
X3342479Y-14021955D01*
X3323431Y-14012431D01*
X3313907Y-14002907D01*
X3552002Y-13821955D02*
X3571050Y-13821955D01*
X3590098Y-13831479D01*
X3599621Y-13841002D01*
X3609145Y-13860050D01*
X3618669Y-13898145D01*
X3618669Y-13945764D01*
X3609145Y-13983860D01*
X3599621Y-14002907D01*
X3590098Y-14012431D01*
X3571050Y-14021955D01*
X3552002Y-14021955D01*
X3532955Y-14012431D01*
X3523431Y-14002907D01*
X3513907Y-13983860D01*
X3504383Y-13945764D01*
X3504383Y-13898145D01*
X3513907Y-13860050D01*
X3523431Y-13841002D01*
X3532955Y-13831479D01*
X3552002Y-13821955D01*
X3704383Y-14021955D02*
X3704383Y-13888621D01*
X3704383Y-13907669D02*
X3713907Y-13898145D01*
X3732955Y-13888621D01*
X3761526Y-13888621D01*
X3780574Y-13898145D01*
X3790098Y-13917193D01*
X3790098Y-14021955D01*
X3790098Y-13917193D02*
X3799621Y-13898145D01*
X3818669Y-13888621D01*
X3847240Y-13888621D01*
X3866288Y-13898145D01*
X3875812Y-13917193D01*
X3875812Y-14021955D01*
X3971050Y-14021955D02*
X3971050Y-13888621D01*
X3971050Y-13907669D02*
X3980574Y-13898145D01*
X3999621Y-13888621D01*
X4028193Y-13888621D01*
X4047240Y-13898145D01*
X4056764Y-13917193D01*
X4056764Y-14021955D01*
X4056764Y-13917193D02*
X4066288Y-13898145D01*
X4085336Y-13888621D01*
X4113907Y-13888621D01*
X4132955Y-13898145D01*
X4142479Y-13917193D01*
X4142479Y-14021955D01*
X4532955Y-13812431D02*
X4361526Y-14069574D01*
X4790098Y-13821955D02*
X4809145Y-13821955D01*
X4828193Y-13831479D01*
X4837717Y-13841002D01*
X4847241Y-13860050D01*
X4856764Y-13898145D01*
X4856764Y-13945764D01*
X4847241Y-13983860D01*
X4837717Y-14002907D01*
X4828193Y-14012431D01*
X4809145Y-14021955D01*
X4790098Y-14021955D01*
X4771050Y-14012431D01*
X4761526Y-14002907D01*
X4752002Y-13983860D01*
X4742479Y-13945764D01*
X4742479Y-13898145D01*
X4752002Y-13860050D01*
X4761526Y-13841002D01*
X4771050Y-13831479D01*
X4790098Y-13821955D01*
X4942479Y-14002907D02*
X4952002Y-14012431D01*
X4942479Y-14021955D01*
X4932955Y-14012431D01*
X4942479Y-14002907D01*
X4942479Y-14021955D01*
X5142479Y-14021955D02*
X5028193Y-14021955D01*
X5085336Y-14021955D02*
X5085336Y-13821955D01*
X5066288Y-13850526D01*
X5047241Y-13869574D01*
X5028193Y-13879098D01*
X5218669Y-13841002D02*
X5228193Y-13831479D01*
X5247241Y-13821955D01*
X5294860Y-13821955D01*
X5313907Y-13831479D01*
X5323431Y-13841002D01*
X5332955Y-13860050D01*
X5332955Y-13879098D01*
X5323431Y-13907669D01*
X5209145Y-14021955D01*
X5332955Y-14021955D01*
X5456764Y-13821955D02*
X5475812Y-13821955D01*
X5494860Y-13831479D01*
X5504383Y-13841002D01*
X5513907Y-13860050D01*
X5523431Y-13898145D01*
X5523431Y-13945764D01*
X5513907Y-13983860D01*
X5504383Y-14002907D01*
X5494860Y-14012431D01*
X5475812Y-14021955D01*
X5456764Y-14021955D01*
X5437717Y-14012431D01*
X5428193Y-14002907D01*
X5418669Y-13983860D01*
X5409145Y-13945764D01*
X5409145Y-13898145D01*
X5418669Y-13860050D01*
X5428193Y-13841002D01*
X5437717Y-13831479D01*
X5456764Y-13821955D01*
X5713907Y-14021955D02*
X5599621Y-14021955D01*
X5656764Y-14021955D02*
X5656764Y-13821955D01*
X5637717Y-13850526D01*
X5618669Y-13869574D01*
X5599621Y-13879098D01*
X5790098Y-13821955D02*
X5790098Y-13860050D01*
X5866288Y-13821955D02*
X5866288Y-13860050D01*
X6161526Y-14098145D02*
X6152002Y-14088621D01*
X6132955Y-14060050D01*
X6123431Y-14041002D01*
X6113907Y-14012431D01*
X6104383Y-13964812D01*
X6104383Y-13926717D01*
X6113907Y-13879098D01*
X6123431Y-13850526D01*
X6132955Y-13831479D01*
X6152002Y-13802907D01*
X6161526Y-13793383D01*
X6218669Y-13821955D02*
X6352002Y-13821955D01*
X6266288Y-14021955D01*
X6418669Y-13841002D02*
X6428193Y-13831479D01*
X6447240Y-13821955D01*
X6494859Y-13821955D01*
X6513907Y-13831479D01*
X6523431Y-13841002D01*
X6532955Y-13860050D01*
X6532955Y-13879098D01*
X6523431Y-13907669D01*
X6409145Y-14021955D01*
X6532955Y-14021955D01*
X6771050Y-14021955D02*
X6771050Y-13821955D01*
X6856764Y-14021955D02*
X6856764Y-13917193D01*
X6847240Y-13898145D01*
X6828193Y-13888621D01*
X6799621Y-13888621D01*
X6780574Y-13898145D01*
X6771050Y-13907669D01*
X6980574Y-14021955D02*
X6961526Y-14012431D01*
X6952002Y-14002907D01*
X6942479Y-13983860D01*
X6942479Y-13926717D01*
X6952002Y-13907669D01*
X6961526Y-13898145D01*
X6980574Y-13888621D01*
X7009145Y-13888621D01*
X7028193Y-13898145D01*
X7037717Y-13907669D01*
X7047240Y-13926717D01*
X7047240Y-13983860D01*
X7037717Y-14002907D01*
X7028193Y-14012431D01*
X7009145Y-14021955D01*
X6980574Y-14021955D01*
X7161526Y-14021955D02*
X7142479Y-14012431D01*
X7132955Y-13993383D01*
X7132955Y-13821955D01*
X7313907Y-14012431D02*
X7294859Y-14021955D01*
X7256764Y-14021955D01*
X7237717Y-14012431D01*
X7228193Y-13993383D01*
X7228193Y-13917193D01*
X7237717Y-13898145D01*
X7256764Y-13888621D01*
X7294859Y-13888621D01*
X7313907Y-13898145D01*
X7323431Y-13917193D01*
X7323431Y-13936241D01*
X7228193Y-13955288D01*
X7399621Y-14012431D02*
X7418669Y-14021955D01*
X7456764Y-14021955D01*
X7475812Y-14012431D01*
X7485336Y-13993383D01*
X7485336Y-13983860D01*
X7475812Y-13964812D01*
X7456764Y-13955288D01*
X7428193Y-13955288D01*
X7409145Y-13945764D01*
X7399621Y-13926717D01*
X7399621Y-13917193D01*
X7409145Y-13898145D01*
X7428193Y-13888621D01*
X7456764Y-13888621D01*
X7475812Y-13898145D01*
X7552002Y-14098145D02*
X7561526Y-14088621D01*
X7580574Y-14060050D01*
X7590098Y-14041002D01*
X7599621Y-14012431D01*
X7609145Y-13964812D01*
X7609145Y-13926717D01*
X7599621Y-13879098D01*
X7590098Y-13850526D01*
X7580574Y-13831479D01*
X7561526Y-13802907D01*
X7552002Y-13793383D01*
X7913907Y-14098145D02*
X7904383Y-14088621D01*
X7885336Y-14060050D01*
X7875812Y-14041002D01*
X7866288Y-14012431D01*
X7856764Y-13964812D01*
X7856764Y-13926717D01*
X7866288Y-13879098D01*
X7875812Y-13850526D01*
X7885336Y-13831479D01*
X7904383Y-13802907D01*
X7913907Y-13793383D01*
X7990098Y-13888621D02*
X7990098Y-14021955D01*
X7990098Y-13907669D02*
X7999621Y-13898145D01*
X8018669Y-13888621D01*
X8047240Y-13888621D01*
X8066288Y-13898145D01*
X8075812Y-13917193D01*
X8075812Y-14021955D01*
X8199621Y-14021955D02*
X8180574Y-14012431D01*
X8171050Y-14002907D01*
X8161526Y-13983860D01*
X8161526Y-13926717D01*
X8171050Y-13907669D01*
X8180574Y-13898145D01*
X8199621Y-13888621D01*
X8228193Y-13888621D01*
X8247240Y-13898145D01*
X8256764Y-13907669D01*
X8266288Y-13926717D01*
X8266288Y-13983860D01*
X8256764Y-14002907D01*
X8247240Y-14012431D01*
X8228193Y-14021955D01*
X8199621Y-14021955D01*
X8323431Y-13888621D02*
X8399621Y-13888621D01*
X8352002Y-13821955D02*
X8352002Y-13993383D01*
X8361526Y-14012431D01*
X8380574Y-14021955D01*
X8399621Y-14021955D01*
X8618669Y-13888621D02*
X8618669Y-14088621D01*
X8618669Y-13898145D02*
X8637717Y-13888621D01*
X8675812Y-13888621D01*
X8694860Y-13898145D01*
X8704383Y-13907669D01*
X8713907Y-13926717D01*
X8713907Y-13983860D01*
X8704383Y-14002907D01*
X8694860Y-14012431D01*
X8675812Y-14021955D01*
X8637717Y-14021955D01*
X8618669Y-14012431D01*
X8828193Y-14021955D02*
X8809145Y-14012431D01*
X8799621Y-13993383D01*
X8799621Y-13821955D01*
X8990098Y-14021955D02*
X8990098Y-13917193D01*
X8980574Y-13898145D01*
X8961526Y-13888621D01*
X8923431Y-13888621D01*
X8904383Y-13898145D01*
X8990098Y-14012431D02*
X8971050Y-14021955D01*
X8923431Y-14021955D01*
X8904383Y-14012431D01*
X8894860Y-13993383D01*
X8894860Y-13974336D01*
X8904383Y-13955288D01*
X8923431Y-13945764D01*
X8971050Y-13945764D01*
X8990098Y-13936241D01*
X9056764Y-13888621D02*
X9132955Y-13888621D01*
X9085336Y-13821955D02*
X9085336Y-13993383D01*
X9094860Y-14012431D01*
X9113907Y-14021955D01*
X9132955Y-14021955D01*
X9275812Y-14012431D02*
X9256764Y-14021955D01*
X9218669Y-14021955D01*
X9199621Y-14012431D01*
X9190098Y-13993383D01*
X9190098Y-13917193D01*
X9199621Y-13898145D01*
X9218669Y-13888621D01*
X9256764Y-13888621D01*
X9275812Y-13898145D01*
X9285336Y-13917193D01*
X9285336Y-13936241D01*
X9190098Y-13955288D01*
X9456764Y-14021955D02*
X9456764Y-13821955D01*
X9456764Y-14012431D02*
X9437717Y-14021955D01*
X9399621Y-14021955D01*
X9380574Y-14012431D01*
X9371050Y-14002907D01*
X9361526Y-13983860D01*
X9361526Y-13926717D01*
X9371050Y-13907669D01*
X9380574Y-13898145D01*
X9399621Y-13888621D01*
X9437717Y-13888621D01*
X9456764Y-13898145D01*
X9532955Y-14098145D02*
X9542479Y-14088621D01*
X9561526Y-14060050D01*
X9571050Y-14041002D01*
X9580574Y-14012431D01*
X9590098Y-13964812D01*
X9590098Y-13926717D01*
X9580574Y-13879098D01*
X9571050Y-13850526D01*
X9561526Y-13831479D01*
X9542479Y-13802907D01*
X9532955Y-13793383D01*
X2489622Y-14151479D02*
X2489622Y-14351479D01*
X2389622Y-14251479D02*
X2589622Y-14251479D01*
X2942479Y-14141955D02*
X2847240Y-14141955D01*
X2837717Y-14237193D01*
X2847240Y-14227669D01*
X2866288Y-14218145D01*
X2913907Y-14218145D01*
X2932955Y-14227669D01*
X2942479Y-14237193D01*
X2952002Y-14256241D01*
X2952002Y-14303860D01*
X2942479Y-14322907D01*
X2932955Y-14332431D01*
X2913907Y-14341955D01*
X2866288Y-14341955D01*
X2847240Y-14332431D01*
X2837717Y-14322907D01*
X3037717Y-14322907D02*
X3047240Y-14332431D01*
X3037717Y-14341955D01*
X3028193Y-14332431D01*
X3037717Y-14322907D01*
X3037717Y-14341955D01*
X3237717Y-14341955D02*
X3123431Y-14341955D01*
X3180574Y-14341955D02*
X3180574Y-14141955D01*
X3161526Y-14170526D01*
X3142479Y-14189574D01*
X3123431Y-14199098D01*
X3361526Y-14141955D02*
X3380574Y-14141955D01*
X3399621Y-14151479D01*
X3409145Y-14161002D01*
X3418669Y-14180050D01*
X3428193Y-14218145D01*
X3428193Y-14265764D01*
X3418669Y-14303860D01*
X3409145Y-14322907D01*
X3399621Y-14332431D01*
X3380574Y-14341955D01*
X3361526Y-14341955D01*
X3342479Y-14332431D01*
X3332955Y-14322907D01*
X3323431Y-14303860D01*
X3313907Y-14265764D01*
X3313907Y-14218145D01*
X3323431Y-14180050D01*
X3332955Y-14161002D01*
X3342479Y-14151479D01*
X3361526Y-14141955D01*
X3552002Y-14141955D02*
X3571050Y-14141955D01*
X3590098Y-14151479D01*
X3599621Y-14161002D01*
X3609145Y-14180050D01*
X3618669Y-14218145D01*
X3618669Y-14265764D01*
X3609145Y-14303860D01*
X3599621Y-14322907D01*
X3590098Y-14332431D01*
X3571050Y-14341955D01*
X3552002Y-14341955D01*
X3532955Y-14332431D01*
X3523431Y-14322907D01*
X3513907Y-14303860D01*
X3504383Y-14265764D01*
X3504383Y-14218145D01*
X3513907Y-14180050D01*
X3523431Y-14161002D01*
X3532955Y-14151479D01*
X3552002Y-14141955D01*
X3704383Y-14341955D02*
X3704383Y-14208621D01*
X3704383Y-14227669D02*
X3713907Y-14218145D01*
X3732955Y-14208621D01*
X3761526Y-14208621D01*
X3780574Y-14218145D01*
X3790098Y-14237193D01*
X3790098Y-14341955D01*
X3790098Y-14237193D02*
X3799621Y-14218145D01*
X3818669Y-14208621D01*
X3847240Y-14208621D01*
X3866288Y-14218145D01*
X3875812Y-14237193D01*
X3875812Y-14341955D01*
X3971050Y-14341955D02*
X3971050Y-14208621D01*
X3971050Y-14227669D02*
X3980574Y-14218145D01*
X3999621Y-14208621D01*
X4028193Y-14208621D01*
X4047240Y-14218145D01*
X4056764Y-14237193D01*
X4056764Y-14341955D01*
X4056764Y-14237193D02*
X4066288Y-14218145D01*
X4085336Y-14208621D01*
X4113907Y-14208621D01*
X4132955Y-14218145D01*
X4142479Y-14237193D01*
X4142479Y-14341955D01*
X4532955Y-14132431D02*
X4361526Y-14389574D01*
X4790098Y-14141955D02*
X4809145Y-14141955D01*
X4828193Y-14151479D01*
X4837717Y-14161002D01*
X4847241Y-14180050D01*
X4856764Y-14218145D01*
X4856764Y-14265764D01*
X4847241Y-14303860D01*
X4837717Y-14322907D01*
X4828193Y-14332431D01*
X4809145Y-14341955D01*
X4790098Y-14341955D01*
X4771050Y-14332431D01*
X4761526Y-14322907D01*
X4752002Y-14303860D01*
X4742479Y-14265764D01*
X4742479Y-14218145D01*
X4752002Y-14180050D01*
X4761526Y-14161002D01*
X4771050Y-14151479D01*
X4790098Y-14141955D01*
X4942479Y-14322907D02*
X4952002Y-14332431D01*
X4942479Y-14341955D01*
X4932955Y-14332431D01*
X4942479Y-14322907D01*
X4942479Y-14341955D01*
X5028193Y-14161002D02*
X5037717Y-14151479D01*
X5056764Y-14141955D01*
X5104383Y-14141955D01*
X5123431Y-14151479D01*
X5132955Y-14161002D01*
X5142479Y-14180050D01*
X5142479Y-14199098D01*
X5132955Y-14227669D01*
X5018669Y-14341955D01*
X5142479Y-14341955D01*
X5266288Y-14141955D02*
X5285336Y-14141955D01*
X5304383Y-14151479D01*
X5313907Y-14161002D01*
X5323431Y-14180050D01*
X5332955Y-14218145D01*
X5332955Y-14265764D01*
X5323431Y-14303860D01*
X5313907Y-14322907D01*
X5304383Y-14332431D01*
X5285336Y-14341955D01*
X5266288Y-14341955D01*
X5247241Y-14332431D01*
X5237717Y-14322907D01*
X5228193Y-14303860D01*
X5218669Y-14265764D01*
X5218669Y-14218145D01*
X5228193Y-14180050D01*
X5237717Y-14161002D01*
X5247241Y-14151479D01*
X5266288Y-14141955D01*
X5456764Y-14141955D02*
X5475812Y-14141955D01*
X5494860Y-14151479D01*
X5504383Y-14161002D01*
X5513907Y-14180050D01*
X5523431Y-14218145D01*
X5523431Y-14265764D01*
X5513907Y-14303860D01*
X5504383Y-14322907D01*
X5494860Y-14332431D01*
X5475812Y-14341955D01*
X5456764Y-14341955D01*
X5437717Y-14332431D01*
X5428193Y-14322907D01*
X5418669Y-14303860D01*
X5409145Y-14265764D01*
X5409145Y-14218145D01*
X5418669Y-14180050D01*
X5428193Y-14161002D01*
X5437717Y-14151479D01*
X5456764Y-14141955D01*
X5637717Y-14227669D02*
X5618669Y-14218145D01*
X5609145Y-14208621D01*
X5599621Y-14189574D01*
X5599621Y-14180050D01*
X5609145Y-14161002D01*
X5618669Y-14151479D01*
X5637717Y-14141955D01*
X5675812Y-14141955D01*
X5694859Y-14151479D01*
X5704383Y-14161002D01*
X5713907Y-14180050D01*
X5713907Y-14189574D01*
X5704383Y-14208621D01*
X5694859Y-14218145D01*
X5675812Y-14227669D01*
X5637717Y-14227669D01*
X5618669Y-14237193D01*
X5609145Y-14246717D01*
X5599621Y-14265764D01*
X5599621Y-14303860D01*
X5609145Y-14322907D01*
X5618669Y-14332431D01*
X5637717Y-14341955D01*
X5675812Y-14341955D01*
X5694859Y-14332431D01*
X5704383Y-14322907D01*
X5713907Y-14303860D01*
X5713907Y-14265764D01*
X5704383Y-14246717D01*
X5694859Y-14237193D01*
X5675812Y-14227669D01*
X5790098Y-14141955D02*
X5790098Y-14180050D01*
X5866288Y-14141955D02*
X5866288Y-14180050D01*
X6161526Y-14418145D02*
X6152002Y-14408621D01*
X6132955Y-14380050D01*
X6123431Y-14361002D01*
X6113907Y-14332431D01*
X6104383Y-14284812D01*
X6104383Y-14246717D01*
X6113907Y-14199098D01*
X6123431Y-14170526D01*
X6132955Y-14151479D01*
X6152002Y-14122907D01*
X6161526Y-14113383D01*
X6218669Y-14141955D02*
X6342479Y-14141955D01*
X6275812Y-14218145D01*
X6304383Y-14218145D01*
X6323431Y-14227669D01*
X6332955Y-14237193D01*
X6342479Y-14256241D01*
X6342479Y-14303860D01*
X6332955Y-14322907D01*
X6323431Y-14332431D01*
X6304383Y-14341955D01*
X6247240Y-14341955D01*
X6228193Y-14332431D01*
X6218669Y-14322907D01*
X6513907Y-14141955D02*
X6475812Y-14141955D01*
X6456764Y-14151479D01*
X6447240Y-14161002D01*
X6428193Y-14189574D01*
X6418669Y-14227669D01*
X6418669Y-14303860D01*
X6428193Y-14322907D01*
X6437717Y-14332431D01*
X6456764Y-14341955D01*
X6494859Y-14341955D01*
X6513907Y-14332431D01*
X6523431Y-14322907D01*
X6532955Y-14303860D01*
X6532955Y-14256241D01*
X6523431Y-14237193D01*
X6513907Y-14227669D01*
X6494859Y-14218145D01*
X6456764Y-14218145D01*
X6437717Y-14227669D01*
X6428193Y-14237193D01*
X6418669Y-14256241D01*
X6771050Y-14341955D02*
X6771050Y-14141955D01*
X6856764Y-14341955D02*
X6856764Y-14237193D01*
X6847240Y-14218145D01*
X6828193Y-14208621D01*
X6799621Y-14208621D01*
X6780574Y-14218145D01*
X6771050Y-14227669D01*
X6980574Y-14341955D02*
X6961526Y-14332431D01*
X6952002Y-14322907D01*
X6942479Y-14303860D01*
X6942479Y-14246717D01*
X6952002Y-14227669D01*
X6961526Y-14218145D01*
X6980574Y-14208621D01*
X7009145Y-14208621D01*
X7028193Y-14218145D01*
X7037717Y-14227669D01*
X7047240Y-14246717D01*
X7047240Y-14303860D01*
X7037717Y-14322907D01*
X7028193Y-14332431D01*
X7009145Y-14341955D01*
X6980574Y-14341955D01*
X7161526Y-14341955D02*
X7142479Y-14332431D01*
X7132955Y-14313383D01*
X7132955Y-14141955D01*
X7313907Y-14332431D02*
X7294859Y-14341955D01*
X7256764Y-14341955D01*
X7237717Y-14332431D01*
X7228193Y-14313383D01*
X7228193Y-14237193D01*
X7237717Y-14218145D01*
X7256764Y-14208621D01*
X7294859Y-14208621D01*
X7313907Y-14218145D01*
X7323431Y-14237193D01*
X7323431Y-14256241D01*
X7228193Y-14275288D01*
X7399621Y-14332431D02*
X7418669Y-14341955D01*
X7456764Y-14341955D01*
X7475812Y-14332431D01*
X7485336Y-14313383D01*
X7485336Y-14303860D01*
X7475812Y-14284812D01*
X7456764Y-14275288D01*
X7428193Y-14275288D01*
X7409145Y-14265764D01*
X7399621Y-14246717D01*
X7399621Y-14237193D01*
X7409145Y-14218145D01*
X7428193Y-14208621D01*
X7456764Y-14208621D01*
X7475812Y-14218145D01*
X7552002Y-14418145D02*
X7561526Y-14408621D01*
X7580574Y-14380050D01*
X7590098Y-14361002D01*
X7599621Y-14332431D01*
X7609145Y-14284812D01*
X7609145Y-14246717D01*
X7599621Y-14199098D01*
X7590098Y-14170526D01*
X7580574Y-14151479D01*
X7561526Y-14122907D01*
X7552002Y-14113383D01*
X7913907Y-14418145D02*
X7904383Y-14408621D01*
X7885336Y-14380050D01*
X7875812Y-14361002D01*
X7866288Y-14332431D01*
X7856764Y-14284812D01*
X7856764Y-14246717D01*
X7866288Y-14199098D01*
X7875812Y-14170526D01*
X7885336Y-14151479D01*
X7904383Y-14122907D01*
X7913907Y-14113383D01*
X7990098Y-14208621D02*
X7990098Y-14341955D01*
X7990098Y-14227669D02*
X7999621Y-14218145D01*
X8018669Y-14208621D01*
X8047240Y-14208621D01*
X8066288Y-14218145D01*
X8075812Y-14237193D01*
X8075812Y-14341955D01*
X8199621Y-14341955D02*
X8180574Y-14332431D01*
X8171050Y-14322907D01*
X8161526Y-14303860D01*
X8161526Y-14246717D01*
X8171050Y-14227669D01*
X8180574Y-14218145D01*
X8199621Y-14208621D01*
X8228193Y-14208621D01*
X8247240Y-14218145D01*
X8256764Y-14227669D01*
X8266288Y-14246717D01*
X8266288Y-14303860D01*
X8256764Y-14322907D01*
X8247240Y-14332431D01*
X8228193Y-14341955D01*
X8199621Y-14341955D01*
X8323431Y-14208621D02*
X8399621Y-14208621D01*
X8352002Y-14141955D02*
X8352002Y-14313383D01*
X8361526Y-14332431D01*
X8380574Y-14341955D01*
X8399621Y-14341955D01*
X8618669Y-14208621D02*
X8618669Y-14408621D01*
X8618669Y-14218145D02*
X8637717Y-14208621D01*
X8675812Y-14208621D01*
X8694860Y-14218145D01*
X8704383Y-14227669D01*
X8713907Y-14246717D01*
X8713907Y-14303860D01*
X8704383Y-14322907D01*
X8694860Y-14332431D01*
X8675812Y-14341955D01*
X8637717Y-14341955D01*
X8618669Y-14332431D01*
X8828193Y-14341955D02*
X8809145Y-14332431D01*
X8799621Y-14313383D01*
X8799621Y-14141955D01*
X8990098Y-14341955D02*
X8990098Y-14237193D01*
X8980574Y-14218145D01*
X8961526Y-14208621D01*
X8923431Y-14208621D01*
X8904383Y-14218145D01*
X8990098Y-14332431D02*
X8971050Y-14341955D01*
X8923431Y-14341955D01*
X8904383Y-14332431D01*
X8894860Y-14313383D01*
X8894860Y-14294336D01*
X8904383Y-14275288D01*
X8923431Y-14265764D01*
X8971050Y-14265764D01*
X8990098Y-14256241D01*
X9056764Y-14208621D02*
X9132955Y-14208621D01*
X9085336Y-14141955D02*
X9085336Y-14313383D01*
X9094860Y-14332431D01*
X9113907Y-14341955D01*
X9132955Y-14341955D01*
X9275812Y-14332431D02*
X9256764Y-14341955D01*
X9218669Y-14341955D01*
X9199621Y-14332431D01*
X9190098Y-14313383D01*
X9190098Y-14237193D01*
X9199621Y-14218145D01*
X9218669Y-14208621D01*
X9256764Y-14208621D01*
X9275812Y-14218145D01*
X9285336Y-14237193D01*
X9285336Y-14256241D01*
X9190098Y-14275288D01*
X9456764Y-14341955D02*
X9456764Y-14141955D01*
X9456764Y-14332431D02*
X9437717Y-14341955D01*
X9399621Y-14341955D01*
X9380574Y-14332431D01*
X9371050Y-14322907D01*
X9361526Y-14303860D01*
X9361526Y-14246717D01*
X9371050Y-14227669D01*
X9380574Y-14218145D01*
X9399621Y-14208621D01*
X9437717Y-14208621D01*
X9456764Y-14218145D01*
X9532955Y-14418145D02*
X9542479Y-14408621D01*
X9561526Y-14380050D01*
X9571050Y-14361002D01*
X9580574Y-14332431D01*
X9590098Y-14284812D01*
X9590098Y-14246717D01*
X9580574Y-14199098D01*
X9571050Y-14170526D01*
X9561526Y-14151479D01*
X9542479Y-14122907D01*
X9532955Y-14113383D01*
M02*
