M48
; DRILL file {KiCad (6.0.11-0)} date Thursday, 16 February 2023 at 06:45:46 pm
; FORMAT={-:-/ absolute / metric / decimal}
; #@! TF.CreationDate,2023-02-16T18:45:46+08:00
; #@! TF.GenerationSoftware,Kicad,Pcbnew,(6.0.11-0)
; #@! TF.FileFunction,NonPlated,1,4,NPTH
FMAT,2
METRIC
; #@! TA.AperFunction,NonPlated,NPTH,ComponentDrill
T1C3.050
; #@! TA.AperFunction,NonPlated,NPTH,ComponentDrill
T2C5.100
%
G90
G05
T1
X99.625Y-81.739
X100.656Y-98.688
X101.706Y-91.688
X106.625Y-82.788
X108.569Y-109.388
X115.569Y-110.438
X120.475Y-71.288
X125.237Y-90.338
X127.475Y-72.338
X132.237Y-91.388
X132.963Y-119.838
X139.525Y-71.288
X139.963Y-120.888
X144.287Y-90.338
X146.525Y-72.338
X151.287Y-91.388
X152.012Y-119.838
X158.575Y-71.288
X159.012Y-120.888
X160.188Y-98.688
X161.237Y-91.688
X162.569Y-136.788
X163.619Y-129.788
X165.575Y-72.338
X174.475Y-79.638
X175.525Y-72.638
X180.162Y-119.538
X181.213Y-112.538
X190.112Y-138.888
X194.875Y-81.739
X196.831Y-100.489
X197.112Y-139.939
X197.881Y-93.489
X201.594Y-119.538
X201.875Y-82.788
X202.644Y-112.538
T2
X104.025Y-77.038
X106.406Y-96.088
X111.169Y-115.138
X123.075Y-77.038
X127.837Y-96.088
X137.362Y-115.138
X142.125Y-77.038
X146.887Y-96.088
X156.412Y-115.138
X161.175Y-77.038
X165.938Y-96.088
X168.319Y-134.189
X175.463Y-115.138
X180.225Y-77.038
X192.131Y-96.088
X194.512Y-134.189
X196.894Y-115.138
X199.275Y-77.038
T0
M30
