M48
; DRILL file {KiCad (6.0.11-0)} date Thursday, 16 February 2023 at 06:45:46 pm
; FORMAT={-:-/ absolute / metric / decimal}
; #@! TF.CreationDate,2023-02-16T18:45:46+08:00
; #@! TF.GenerationSoftware,Kicad,Pcbnew,(6.0.11-0)
; #@! TF.FileFunction,Plated,1,4,PTH
FMAT,2
METRIC
; #@! TA.AperFunction,Plated,PTH,ViaDrill
T1C0.250
; #@! TA.AperFunction,Plated,PTH,ViaDrill
T2C0.500
; #@! TA.AperFunction,Plated,PTH,ComponentDrill
T3C0.600
%
G90
G05
T1
X94.604Y-75.142
X94.604Y-77.642
X94.604Y-80.142
X94.604Y-82.642
X94.604Y-85.142
X94.604Y-87.642
X94.604Y-90.142
X94.604Y-92.642
X94.604Y-95.142
X94.604Y-97.642
X94.604Y-100.142
X94.604Y-102.642
X94.62Y-72.642
X95.04Y-70.18
X96.34Y-81.9
X96.674Y-68.293
X97.104Y-102.642
X99.09Y-67.655
X99.5Y-102.642
X100.78Y-102.0
X101.59Y-67.618
X102.39Y-122.664
X102.4Y-106.1
X102.4Y-108.6
X102.4Y-111.1
X102.4Y-113.6
X102.4Y-116.1
X102.4Y-120.35
X104.09Y-67.618
X104.203Y-101.985
X106.59Y-67.618
X107.583Y-104.15
X108.715Y-100.622
X109.09Y-67.618
X110.7Y-69.7
X111.59Y-67.618
X111.656Y-72.482
X113.2Y-69.7
X114.09Y-67.618
X114.407Y-75.315
X114.55Y-124.55
X114.9Y-114.3
X114.9Y-116.0
X115.016Y-113.167
X115.5Y-112.78
X116.59Y-67.618
X117.05Y-124.55
X117.16Y-71.38
X118.9Y-114.169
X119.22Y-119.34
X119.24Y-118.55
X119.25Y-117.66
X119.26Y-115.92
X119.4Y-111.68
X119.455Y-94.936
X119.46Y-122.64
X119.6Y-108.78
X119.604Y-113.011
X119.676Y-74.561
X119.928Y-117.86
X120.24Y-116.59
X120.473Y-114.485
X120.607Y-110.659
X120.725Y-108.019
X121.055Y-120.43
X121.43Y-112.19
X121.5Y-118.92
X121.57Y-116.47
X121.664Y-113.495
X122.025Y-108.019
X122.04Y-115.794
X122.05Y-120.32
X122.19Y-111.394
X122.336Y-87.398
X122.41Y-110.64
X122.435Y-114.03
X122.63Y-93.85
X122.63Y-111.83
X122.68Y-95.52
X122.71Y-118.37
X122.9Y-120.32
X122.98Y-112.35
X123.055Y-114.03
X123.18Y-111.32
X123.21Y-117.5
X123.23Y-94.07
X123.407Y-118.37
X123.438Y-110.64
X123.546Y-95.277
X123.674Y-114.03
X123.72Y-107.33
X123.75Y-109.32
X123.831Y-111.986
X123.86Y-104.65
X123.942Y-95.862
X124.027Y-118.37
X124.034Y-108.097
X124.04Y-93.92
X124.21Y-117.5
X124.294Y-114.03
X124.429Y-105.771
X124.612Y-112.565
X124.646Y-118.37
X124.8Y-110.7
X124.913Y-114.03
X125.03Y-100.27
X125.03Y-101.7
X125.07Y-102.6
X125.21Y-117.5
X125.266Y-118.37
X125.56Y-114.03
X125.67Y-111.36
X125.7Y-120.265
X126.119Y-109.444
X126.264Y-110.853
X126.273Y-103.555
X126.38Y-114.59
X126.38Y-116.81
X126.38Y-117.76
X126.41Y-115.56
X126.768Y-100.725
X126.9Y-110.1
X126.975Y-98.978
X127.179Y-106.33
X127.372Y-109.141
X127.375Y-105.051
X127.4Y-103.43
X127.4Y-120.27
X127.4Y-121.23
X127.503Y-100.618
X127.556Y-85.51
X127.68Y-102.26
X127.7Y-91.9
X128.0Y-90.2
X128.0Y-116.68
X128.0Y-117.3
X128.018Y-116.028
X128.028Y-108.359
X128.25Y-105.655
X128.27Y-121.4
X128.28Y-114.35
X128.29Y-113.44
X128.341Y-104.068
X128.498Y-115.636
X128.532Y-115.017
X128.784Y-106.33
X128.959Y-103.332
X129.228Y-107.033
X129.23Y-121.4
X129.4Y-91.9
X129.43Y-111.95
X129.44Y-101.94
X129.7Y-90.2
X129.926Y-88.432
X129.95Y-105.89
X130.134Y-112.879
X130.3Y-117.11
X130.816Y-112.121
X130.884Y-113.554
X131.232Y-111.241
X131.566Y-112.796
X131.7Y-124.55
X131.83Y-116.757
X131.968Y-111.859
X132.78Y-109.63
X133.26Y-109.06
X133.57Y-109.71
X133.648Y-110.82
X134.013Y-112.934
X134.2Y-124.55
X134.84Y-118.81
X136.22Y-71.41
X137.8Y-92.43
X141.01Y-90.49
X141.017Y-110.543
X141.322Y-112.97
X141.905Y-113.46
X142.6Y-80.45
X142.88Y-114.572
X143.263Y-120.788
X143.35Y-105.67
X143.45Y-86.959
X143.5Y-81.35
X143.72Y-115.928
X143.859Y-114.104
X144.093Y-115.164
X144.817Y-115.99
X145.262Y-119.263
X145.29Y-118.37
X145.5Y-76.9
X145.75Y-86.643
X146.1Y-75.55
X146.696Y-118.404
X146.87Y-99.29
X147.54Y-99.75
X148.31Y-118.11
X148.45Y-124.55
X149.455Y-88.376
X150.95Y-124.55
X152.778Y-100.124
X153.45Y-124.8
X154.054Y-96.703
X155.45Y-71.02
X155.55Y-126.2
X155.9Y-111.6
X156.45Y-128.55
X156.51Y-132.01
X156.518Y-131.049
X156.518Y-133.549
X156.518Y-136.049
X156.518Y-138.549
X156.942Y-141.012
X157.49Y-110.14
X157.65Y-103.22
X158.03Y-91.308
X158.037Y-133.525
X158.56Y-142.92
X159.09Y-86.71
X159.85Y-130.07
X160.18Y-104.14
X160.24Y-123.92
X160.76Y-114.46
X160.84Y-87.14
X160.972Y-143.571
X162.313Y-120.788
X162.56Y-81.42
X163.472Y-143.61
X163.48Y-126.55
X164.46Y-82.56
X165.64Y-143.614
X165.73Y-78.348
X165.91Y-140.95
X167.514Y-101.098
X168.77Y-75.31
X171.193Y-105.807
X171.316Y-139.621
X172.151Y-76.861
X173.002Y-108.781
X174.977Y-141.07
X175.0Y-69.7
X176.191Y-108.923
X179.57Y-72.35
X180.262Y-122.839
X183.069Y-116.725
X184.861Y-111.496
X186.573Y-73.922
X186.675Y-71.95
X186.85Y-139.0
X187.39Y-112.76
X187.625Y-69.95
X188.263Y-77.304
X188.72Y-73.55
X188.76Y-67.62
X189.162Y-69.825
X190.43Y-69.26
X190.97Y-73.62
X191.59Y-81.87
X192.08Y-116.12
X192.92Y-91.86
X193.57Y-72.1
X194.259Y-74.735
X195.74Y-84.93
X196.84Y-110.59
X196.89Y-103.83
X196.91Y-72.29
X197.77Y-134.27
X197.781Y-90.188
X197.99Y-88.2
X199.161Y-124.458
X199.45Y-89.65
X199.783Y-128.815
X200.096Y-108.427
X200.4Y-87.9
X201.03Y-100.96
X201.38Y-67.62
X201.72Y-122.88
X202.008Y-125.929
X202.02Y-102.93
X202.4Y-86.95
X202.45Y-96.363
X202.495Y-95.287
X202.603Y-93.694
X202.603Y-98.493
X202.603Y-99.293
X202.71Y-106.957
X202.8Y-141.4
X203.547Y-88.95
X203.66Y-105.957
X203.88Y-67.64
X203.9Y-87.65
X204.42Y-107.34
X205.72Y-143.01
X205.8Y-107.3
X205.8Y-109.0
X206.33Y-68.14
X206.898Y-123.018
X207.54Y-103.11
X207.55Y-141.24
X207.75Y-89.32
X207.97Y-139.05
X208.08Y-72.22
X208.13Y-69.88
X208.234Y-74.73
X208.234Y-77.23
X208.234Y-79.73
X208.234Y-82.23
X208.234Y-84.74
X208.234Y-87.24
X208.234Y-104.05
X208.234Y-106.55
X208.234Y-109.05
X208.234Y-111.55
X208.234Y-114.05
X208.234Y-116.55
X208.234Y-119.05
X208.234Y-121.55
X208.234Y-124.05
X208.234Y-126.55
X208.234Y-129.05
X208.234Y-131.55
X208.234Y-134.05
X208.234Y-136.55
X208.641Y-70.507
X208.81Y-139.84
X208.9Y-102.54
X208.934Y-73.137
X208.934Y-75.637
X208.934Y-78.137
X208.934Y-80.637
X208.934Y-83.137
X208.934Y-85.646
X208.934Y-88.146
X208.934Y-104.956
X208.934Y-107.456
X208.934Y-109.956
X208.934Y-112.456
X208.934Y-114.956
X208.934Y-117.456
X208.934Y-119.956
X208.934Y-122.456
X208.934Y-124.956
X208.934Y-127.456
X208.934Y-129.956
X208.934Y-132.456
X208.934Y-134.956
X208.934Y-137.456
T2
X111.19Y-103.08
X116.06Y-80.66
X129.54Y-80.68
X143.203Y-102.433
X148.24Y-79.55
X150.3Y-103.07
X164.25Y-85.11
X170.92Y-112.1
X175.41Y-103.58
X177.49Y-126.86
X180.61Y-139.14
X180.762Y-84.634
X194.45Y-107.92
X196.47Y-123.84
X202.744Y-138.576
X203.11Y-135.04
X203.7Y-124.2
X203.86Y-126.38
X204.6Y-135.04
X205.8Y-113.4
X207.07Y-124.21
T3
X203.903Y-90.518G85X204.703Y-90.518
G05
X203.903Y-101.669G85X204.703Y-101.669
G05
X207.503Y-90.518G85X208.703Y-90.518
G05
X207.503Y-101.669G85X208.703Y-101.669
G05
T0
M30
