G04 #@! TF.GenerationSoftware,KiCad,Pcbnew,(6.0.11-0)*
G04 #@! TF.CreationDate,2023-02-16T18:45:01+08:00*
G04 #@! TF.ProjectId,Left,4c656674-2e6b-4696-9361-645f70636258,rev?*
G04 #@! TF.SameCoordinates,Original*
G04 #@! TF.FileFunction,Profile,NP*
%FSLAX46Y46*%
G04 Gerber Fmt 4.6, Leading zero omitted, Abs format (unit mm)*
G04 Created by KiCad (PCBNEW (6.0.11-0)) date 2023-02-16 18:45:01*
%MOMM*%
%LPD*%
G01*
G04 APERTURE LIST*
G04 #@! TA.AperFunction,Profile*
%ADD10C,0.030000*%
G04 #@! TD*
G04 #@! TA.AperFunction,Profile*
%ADD11C,0.038100*%
G04 #@! TD*
G04 #@! TA.AperFunction,Profile*
%ADD12C,0.000100*%
G04 #@! TD*
G04 #@! TA.AperFunction,Profile*
%ADD13C,0.010000*%
G04 #@! TD*
G04 APERTURE END LIST*
D10*
X157415188Y-142836031D02*
X157352505Y-142773532D01*
D11*
X154722416Y-126173440D02*
X154812500Y-126263524D01*
X155625731Y-127593169D02*
X155702500Y-127843169D01*
D10*
X96609992Y-124543535D02*
X96134355Y-124276944D01*
D11*
X179925952Y-68513525D02*
X179925953Y-68763525D01*
D10*
X209204953Y-139736878D02*
X209095633Y-140335086D01*
D12*
X206949957Y-140463525D02*
G75*
G03*
X206949957Y-140463525I-1400000J0D01*
G01*
D10*
X95314990Y-123598159D02*
X95377505Y-123660846D01*
X94886582Y-123029182D02*
X95196890Y-123465877D01*
X94022162Y-119945704D02*
X94069718Y-120478701D01*
D11*
X200065951Y-67013522D02*
X200065951Y-68513522D01*
D10*
X159220537Y-143864229D02*
X159130388Y-143833749D01*
X207165599Y-67900108D02*
X207602292Y-68210411D01*
X94619998Y-69623527D02*
X94886581Y-69147876D01*
D11*
X177425952Y-67013525D02*
X177425952Y-68513525D01*
X155912500Y-129443524D02*
X155912500Y-129563524D01*
D10*
X208679956Y-141603521D02*
X208413370Y-142079174D01*
X94094991Y-120686885D02*
X94204318Y-121285094D01*
X159130388Y-143833749D02*
X159040251Y-143803262D01*
X204719208Y-67095878D02*
X204823300Y-67108518D01*
X161130331Y-144191364D02*
X160597329Y-144143817D01*
X209204955Y-71490173D02*
X209095632Y-70891964D01*
X101078001Y-125163524D02*
X101078001Y-123163524D01*
D11*
X155415803Y-127095254D02*
X155472912Y-127215681D01*
D10*
X155912509Y-138213521D02*
X155934664Y-138995702D01*
D11*
X118356002Y-123163524D02*
X130556002Y-123163524D01*
D10*
X96777879Y-124617815D02*
X96609992Y-124543535D01*
X94094995Y-71490177D02*
X94204317Y-70891965D01*
D11*
X154812500Y-126263524D02*
X154902584Y-126353608D01*
X153980770Y-125660221D02*
X154132500Y-125743524D01*
D10*
X130556002Y-125163524D02*
X130556002Y-123163524D01*
D11*
X155577876Y-127464638D02*
X155625731Y-127593169D01*
D10*
X158690377Y-143667809D02*
X158522505Y-143593526D01*
D11*
X152016059Y-125176185D02*
X152176061Y-125188866D01*
X190425951Y-68513522D02*
X192925951Y-68513522D01*
D10*
X209230235Y-71698357D02*
X209217595Y-71594265D01*
D12*
X99150000Y-70763524D02*
G75*
G03*
X99150000Y-70763524I-1400000J0D01*
G01*
D10*
X204615116Y-144143805D02*
X204719204Y-144131172D01*
X97308025Y-67362824D02*
X97217885Y-67393302D01*
D11*
X101078001Y-123163524D02*
X113278001Y-123163524D01*
D10*
X208950661Y-140905495D02*
X208920170Y-140995634D01*
X204082118Y-144191361D02*
X204615116Y-144143805D01*
X98476647Y-125068535D02*
X97878441Y-124959216D01*
X98580747Y-125081177D02*
X98476647Y-125068535D01*
D11*
X113278001Y-125163524D02*
X118356001Y-125163524D01*
X155332500Y-126943524D02*
X155252500Y-126813524D01*
D10*
X207797260Y-68391021D02*
X207859949Y-68453524D01*
X207984956Y-68578902D02*
X207922452Y-68516213D01*
D11*
X192925951Y-68513522D02*
X192925952Y-68763522D01*
D10*
X97127742Y-67423784D02*
X96777867Y-67559241D01*
X155994857Y-139632789D02*
X156007500Y-139736872D01*
D11*
X152176061Y-125188866D02*
X152488236Y-125222781D01*
X154627728Y-126087959D02*
X154452500Y-125953524D01*
D10*
X147834003Y-125163524D02*
X147834003Y-123163524D01*
D11*
X187065952Y-67013525D02*
X187065952Y-68513525D01*
X154317088Y-125859849D02*
X154452500Y-125953524D01*
D10*
X94069709Y-71698355D02*
X94082351Y-71594267D01*
X158046852Y-143326942D02*
X157610160Y-143016642D01*
X95314991Y-68578905D02*
X95377494Y-68516212D01*
X95502695Y-123786031D02*
X95440002Y-123723527D01*
X207984955Y-142648150D02*
X207922453Y-142710834D01*
D11*
X155853243Y-128587788D02*
X155832007Y-128435617D01*
X166241499Y-142213524D02*
X178441499Y-142213524D01*
D10*
X209277786Y-138995694D02*
X209230238Y-139528688D01*
X207668433Y-142957586D02*
X207734568Y-142898530D01*
X208103062Y-68711181D02*
X208044009Y-68645041D01*
X97217885Y-67393302D02*
X97127742Y-67423784D01*
D11*
X153232855Y-125373524D02*
X153482855Y-125450293D01*
D10*
X205991919Y-67362820D02*
X206082062Y-67393301D01*
X95631520Y-123907595D02*
X95565379Y-123848537D01*
X94349293Y-121855500D02*
X94379775Y-121945645D01*
X205421507Y-144009210D02*
X205991922Y-143864227D01*
X209230238Y-139528688D02*
X209217593Y-139632780D01*
X157610160Y-143016642D02*
X157544017Y-142957588D01*
X94082351Y-71594267D02*
X94094995Y-71490177D01*
X94204318Y-121285094D02*
X94349293Y-121855500D01*
X95565379Y-68328516D02*
X95502685Y-68391025D01*
D11*
X203299950Y-144213524D02*
X198970499Y-144213524D01*
X209299950Y-91516524D02*
X203802725Y-91516524D01*
D10*
X208413365Y-69147874D02*
X208103062Y-68711181D01*
D11*
X130556002Y-125163524D02*
X135634002Y-125163524D01*
X152852500Y-125283524D02*
X152640407Y-125244017D01*
D10*
X98476650Y-67108520D02*
X97878439Y-67217846D01*
X95196890Y-123465877D02*
X95255941Y-123532012D01*
D11*
X155832007Y-128435617D02*
X155792500Y-128223524D01*
D10*
X209095632Y-70891964D02*
X208950653Y-70321554D01*
X207734571Y-68328517D02*
X207797260Y-68391021D01*
X94379775Y-121945645D02*
X94410263Y-122035784D01*
X206172199Y-143803261D02*
X206522077Y-143667812D01*
X166241499Y-144213524D02*
X166241499Y-142213524D01*
X159790943Y-144009204D02*
X159220537Y-143864229D01*
X204823302Y-144118527D02*
X205421507Y-144009210D01*
X208889695Y-141085777D02*
X208754240Y-141435655D01*
D11*
X153860343Y-125603112D02*
X153980770Y-125660221D01*
D10*
X96134349Y-67900110D02*
X95697656Y-68210415D01*
D11*
X153611386Y-125498148D02*
X153860343Y-125603112D01*
D10*
X206082059Y-143833751D02*
X206172199Y-143803261D01*
X157477885Y-142898533D02*
X157415188Y-142836031D01*
X94410260Y-70141271D02*
X94545711Y-69791398D01*
D11*
X151962500Y-125173524D02*
X151632500Y-125163524D01*
D10*
X155982220Y-139528691D02*
X155994857Y-139632789D01*
D11*
X209299950Y-100660524D02*
X203802725Y-100660524D01*
D10*
X98684836Y-125093818D02*
X98580747Y-125081177D01*
X97127740Y-124753278D02*
X96777879Y-124617815D01*
D11*
X177425952Y-68513525D02*
X179925952Y-68513525D01*
D10*
X156322761Y-141085781D02*
X156458220Y-141435657D01*
X209095633Y-140335086D02*
X208950661Y-140905495D01*
D11*
X184565952Y-68513525D02*
X187065952Y-68513525D01*
D10*
X209217593Y-139632780D02*
X209204953Y-139736878D01*
X95255937Y-68645042D02*
X95314991Y-68578905D01*
D11*
X197565951Y-68513522D02*
X197565952Y-68763522D01*
X154722500Y-126173524D02*
X154627728Y-126087959D01*
X94000000Y-73013524D02*
X94000000Y-119163524D01*
D10*
X206172205Y-67423782D02*
X206522079Y-67559237D01*
X97878439Y-67217846D02*
X97308025Y-67362824D01*
X97878441Y-124959216D02*
X97308033Y-124814237D01*
D11*
X151962500Y-125173524D02*
X152016059Y-125176185D01*
X155887158Y-128899963D02*
X155899839Y-129059965D01*
D10*
X156007500Y-139736872D02*
X156116825Y-140335083D01*
D11*
X153482855Y-125450293D02*
X153611386Y-125498148D01*
D10*
X198970499Y-144213524D02*
X198970499Y-142213524D01*
X97217893Y-124783756D02*
X97127740Y-124753278D01*
X95377505Y-123660846D02*
X95440002Y-123723527D01*
X208920170Y-140995634D02*
X208889695Y-141085777D01*
D11*
X155742174Y-128002592D02*
X155792500Y-128223524D01*
X155332500Y-126943524D02*
X155415803Y-127095254D01*
D10*
X156292280Y-140995640D02*
X156322761Y-141085781D01*
X208754240Y-141435655D02*
X208679956Y-141603521D01*
X207165600Y-143326941D02*
X207602291Y-143016633D01*
X205991922Y-143864227D02*
X206082059Y-143833751D01*
X160597329Y-144143817D02*
X160493246Y-144131175D01*
X94545711Y-69791398D02*
X94619998Y-69623527D01*
X156799088Y-142079174D02*
X157109393Y-142515865D01*
X207668432Y-68269464D02*
X207734571Y-68328517D01*
X209299949Y-73013524D02*
X209277789Y-72231351D01*
D11*
X190425951Y-67013522D02*
X190425951Y-68513522D01*
X209299950Y-138213524D02*
X209299950Y-100660524D01*
D10*
X207922452Y-68516213D02*
X207859949Y-68453524D01*
D12*
X161062500Y-140463526D02*
G75*
G03*
X161062500Y-140463526I-1400000J0D01*
G01*
D10*
X98580738Y-67095880D02*
X98476650Y-67108520D01*
D11*
X155216175Y-126758936D02*
X155252500Y-126813524D01*
D10*
X209299950Y-138213524D02*
X209277786Y-138995694D01*
X94082354Y-120582786D02*
X94094991Y-120686885D01*
X157227493Y-142648141D02*
X157290003Y-142710842D01*
X94886581Y-69147876D02*
X95196884Y-68711182D01*
X206689949Y-67633524D02*
X207165599Y-67900108D01*
X209217595Y-71594265D02*
X209204955Y-71490173D01*
X178441499Y-144213524D02*
X178441499Y-142213524D01*
X155934664Y-138995702D02*
X155982220Y-139528691D01*
X94204317Y-70891965D02*
X94349295Y-70321557D01*
X157109393Y-142515865D02*
X157168442Y-142582013D01*
X135634003Y-125163524D02*
X135634003Y-123163524D01*
D11*
X155472912Y-127215681D02*
X155577876Y-127464638D01*
D10*
X156261802Y-140905503D02*
X156292280Y-140995640D01*
D11*
X184565952Y-68513525D02*
X184565953Y-68763525D01*
D10*
X97308033Y-124814237D02*
X97217893Y-124783756D01*
X157544017Y-142957588D02*
X157477885Y-142898533D01*
X160493246Y-144131175D02*
X160389156Y-144118527D01*
X206522077Y-143667812D02*
X206689953Y-143593528D01*
X207602291Y-143016633D02*
X207668433Y-142957586D01*
X95631513Y-68269464D02*
X95565379Y-68328516D01*
X99217824Y-67035686D02*
X98684832Y-67083241D01*
D11*
X203802725Y-100660524D02*
X203802725Y-91516524D01*
D10*
X94620005Y-122553533D02*
X94886582Y-123029182D01*
D11*
X155899839Y-129059965D02*
X155902500Y-129113524D01*
X209299949Y-73013524D02*
X209299950Y-91516524D01*
X154262500Y-125823524D02*
X154317088Y-125859849D01*
D10*
X94379775Y-70231412D02*
X94410260Y-70141271D01*
D11*
X100000000Y-125163524D02*
X101078000Y-125163524D01*
X177425952Y-67013525D02*
X100000000Y-67013524D01*
D10*
X94410263Y-122035784D02*
X94545715Y-122385660D01*
X208679949Y-69623524D02*
X208413365Y-69147874D01*
X96777867Y-67559241D02*
X96610001Y-67633526D01*
X113278001Y-125163524D02*
X113278001Y-123163524D01*
X204615116Y-67083238D02*
X204719208Y-67095878D01*
X205421509Y-67217841D02*
X205991919Y-67362820D01*
X157168442Y-142582013D02*
X157227493Y-142648141D01*
X95502685Y-68391025D02*
X95439996Y-68453527D01*
X204719204Y-144131172D02*
X204823302Y-144118527D01*
D11*
X155742174Y-128002592D02*
X155702500Y-127843524D01*
X151512500Y-125163524D02*
X147834003Y-125163524D01*
D10*
X96134355Y-124276944D02*
X95697655Y-123966641D01*
X118356002Y-125163524D02*
X118356002Y-123163524D01*
X203299949Y-67013524D02*
X204082122Y-67035684D01*
X203299945Y-144213526D02*
X204082118Y-144191361D01*
D11*
X155912500Y-129443524D02*
X155902500Y-129113524D01*
D10*
X208889691Y-70141268D02*
X208754236Y-69791394D01*
D11*
X186770499Y-142213524D02*
X198970499Y-142213524D01*
D10*
X204823300Y-67108518D02*
X205421509Y-67217841D01*
D11*
X197565951Y-68513522D02*
X200065951Y-68513522D01*
X166241499Y-144213524D02*
X161912500Y-144213524D01*
D10*
X156532504Y-141603519D02*
X156799088Y-142079174D01*
D11*
X155122500Y-126623524D02*
X154988065Y-126448296D01*
D10*
X156116825Y-140335083D02*
X156261802Y-140905503D01*
X160389156Y-144118527D02*
X159790943Y-144009204D01*
X206082062Y-67393301D02*
X206172205Y-67423782D01*
X207602292Y-68210411D02*
X207668432Y-68269464D01*
X208044009Y-68645041D02*
X207984956Y-68578902D01*
X206522079Y-67559237D02*
X206689949Y-67633524D01*
D11*
X151512500Y-125163524D02*
X151632500Y-125163524D01*
D10*
X208754236Y-69791394D02*
X208679949Y-69623524D01*
X161912500Y-144213524D02*
X161130331Y-144191364D01*
X159040251Y-143803262D02*
X158690377Y-143667809D01*
X95377494Y-68516212D02*
X95439996Y-68453527D01*
X158522505Y-143593526D02*
X158046852Y-143326942D01*
X95697655Y-123966641D02*
X95631520Y-123907595D01*
D11*
X152852500Y-125283524D02*
X153073432Y-125333850D01*
X135634003Y-123163524D02*
X147834003Y-123163524D01*
D10*
X203299949Y-67013524D02*
X200065951Y-67013522D01*
X190425951Y-67013522D02*
X187065952Y-67013525D01*
X208103066Y-142515868D02*
X208044004Y-142582006D01*
X209277789Y-72231351D02*
X209230235Y-71698357D01*
X95697656Y-68210415D02*
X95631513Y-68269464D01*
X95565379Y-123848537D02*
X95502695Y-123786031D01*
D11*
X154262500Y-125823524D02*
X154132500Y-125743524D01*
D10*
X204082122Y-67035684D02*
X204615116Y-67083238D01*
X207734568Y-142898530D02*
X207797258Y-142836028D01*
X186770499Y-144213524D02*
X186770499Y-142213524D01*
X208950653Y-70321554D02*
X208920172Y-70231411D01*
D11*
X155122500Y-126623524D02*
X155216175Y-126758936D01*
X155853243Y-128587788D02*
X155887158Y-128899963D01*
D10*
X94545715Y-122385660D02*
X94620005Y-122553533D01*
X94000000Y-73013524D02*
X94022159Y-72231353D01*
X100000000Y-125163524D02*
X99217835Y-125141376D01*
X94349295Y-70321557D02*
X94379775Y-70231412D01*
X98684832Y-67083241D02*
X98580738Y-67095880D01*
X157290003Y-142710842D02*
X157352505Y-142773532D01*
X94022159Y-72231353D02*
X94069709Y-71698355D01*
X156458220Y-141435657D02*
X156532504Y-141603519D01*
X208044004Y-142582006D02*
X207984955Y-142648150D01*
X207797258Y-142836028D02*
X207859952Y-142773524D01*
X206689953Y-143593528D02*
X207165600Y-143326941D01*
D11*
X153232500Y-125373524D02*
X153073432Y-125333850D01*
D10*
X207922453Y-142710834D02*
X207859952Y-142773524D01*
X95196884Y-68711182D02*
X95255937Y-68645042D01*
D11*
X152640407Y-125244017D02*
X152488236Y-125222781D01*
D10*
X94069718Y-120478701D02*
X94082354Y-120582786D01*
X100000002Y-67013527D02*
X99217824Y-67035686D01*
X96610001Y-67633526D02*
X96134349Y-67900110D01*
X208920172Y-70231411D02*
X208889691Y-70141268D01*
X99217835Y-125141376D02*
X98684836Y-125093818D01*
D12*
X206949950Y-70763514D02*
G75*
G03*
X206949950Y-70763514I-1400000J0D01*
G01*
D10*
X94000000Y-119163529D02*
X94022162Y-119945704D01*
D11*
X155912500Y-138213524D02*
X155912500Y-129563524D01*
X154988065Y-126448296D02*
X154902500Y-126353524D01*
X178441499Y-144213524D02*
X186770499Y-144213524D01*
D10*
X208413370Y-142079174D02*
X208103066Y-142515868D01*
D12*
X99150000Y-121413526D02*
G75*
G03*
X99150000Y-121413526I-1400000J0D01*
G01*
D10*
X95255941Y-123532012D02*
X95314990Y-123598159D01*
D13*
X160991046Y-85949626D02*
X170334201Y-95624746D01*
X170899801Y-95634619D02*
X177913364Y-88861700D01*
X163901027Y-87379487D02*
X161782320Y-85185502D01*
X167788807Y-79385104D02*
X169907514Y-81579092D01*
X177923236Y-88296100D02*
X168580081Y-78620980D01*
X164466626Y-87389359D02*
X169897641Y-82144691D01*
X168580081Y-78620980D02*
G75*
G03*
X167788807Y-79385104I-395637J-382062D01*
G01*
X169897640Y-82144690D02*
G75*
G03*
X169907514Y-81579092I-277860J287736D01*
G01*
X163901028Y-87379486D02*
G75*
G03*
X164466626Y-87389359I287736J277861D01*
G01*
X170334200Y-95624747D02*
G75*
G03*
X170899801Y-95634619I287737J277864D01*
G01*
X177913364Y-88861700D02*
G75*
G03*
X177923236Y-88296100I-277862J287736D01*
G01*
X161782320Y-85185502D02*
G75*
G03*
X160991046Y-85949626I-395637J-382062D01*
G01*
X180911335Y-86956676D02*
X186433055Y-81807591D01*
X177461412Y-85456505D02*
X186634290Y-95293212D01*
X184372704Y-79011620D02*
X186452798Y-81242251D01*
X194350071Y-88098130D02*
X185177193Y-78261422D01*
X180345994Y-86936934D02*
X178265901Y-84706307D01*
X187199630Y-95312954D02*
X194330329Y-88663470D01*
X180345996Y-86936933D02*
G75*
G03*
X180911335Y-86956676I292541J272797D01*
G01*
X186433054Y-81807590D02*
G75*
G03*
X186452798Y-81242251I-272796J292541D01*
G01*
X186634290Y-95293212D02*
G75*
G03*
X187199630Y-95312954I292541J272799D01*
G01*
X185177193Y-78261422D02*
G75*
G03*
X184372704Y-79011620I-402244J-375099D01*
G01*
X178265901Y-84706307D02*
G75*
G03*
X177461412Y-85456505I-402245J-375099D01*
G01*
X194330329Y-88663470D02*
G75*
G03*
X194350071Y-88098130I-272802J292541D01*
G01*
X184566000Y-71013500D02*
X179926000Y-71013500D01*
X184566000Y-71013500D02*
X184566000Y-68763500D01*
X179926000Y-71013500D02*
X179926000Y-68763500D01*
X180564803Y-105582455D02*
X190560101Y-114582262D01*
X187059221Y-97771883D02*
X180535197Y-105017545D01*
X191296144Y-113764802D02*
X189029554Y-111723953D01*
X194051885Y-105548302D02*
X188999948Y-111159042D01*
X197619429Y-106742084D02*
X187624131Y-97742277D01*
X194616795Y-105518696D02*
X196883385Y-107559543D01*
X188999950Y-111159044D02*
G75*
G03*
X189029554Y-111723953I297255J-267652D01*
G01*
X194616793Y-105518698D02*
G75*
G03*
X194051885Y-105548302I-267652J-297255D01*
G01*
X187624130Y-97742278D02*
G75*
G03*
X187059221Y-97771883I-267652J-297257D01*
G01*
X190560101Y-114582262D02*
G75*
G03*
X191296144Y-113764802I368022J408730D01*
G01*
X180535197Y-105017545D02*
G75*
G03*
X180564803Y-105582455I297261J-267652D01*
G01*
X196883385Y-107559543D02*
G75*
G03*
X197619429Y-106742084I368022J408730D01*
G01*
X182883198Y-138798685D02*
X177272458Y-133746748D01*
X190659617Y-131806021D02*
X183413955Y-125281997D01*
X182912804Y-139363595D02*
X180871957Y-141630185D01*
X181689416Y-142366229D02*
X190689223Y-132370931D01*
X182849045Y-125311603D02*
X173849238Y-135306901D01*
X174666698Y-136042944D02*
X176707547Y-133776354D01*
X183413955Y-125281997D02*
G75*
G03*
X182849045Y-125311603I-267652J-297261D01*
G01*
X190689222Y-132370930D02*
G75*
G03*
X190659617Y-131806021I-297257J267652D01*
G01*
X173849238Y-135306901D02*
G75*
G03*
X174666698Y-136042944I408730J-368022D01*
G01*
X180871957Y-141630185D02*
G75*
G03*
X181689416Y-142366229I408730J-368022D01*
G01*
X182912802Y-139363593D02*
G75*
G03*
X182883198Y-138798685I-297255J267652D01*
G01*
X177272456Y-133746750D02*
G75*
G03*
X176707547Y-133776354I-267652J-297255D01*
G01*
X112408805Y-105073644D02*
X109388490Y-104649167D01*
X110550585Y-96380428D02*
X113570902Y-96804908D01*
X109235399Y-105738462D02*
X122554505Y-107610340D01*
X112860582Y-104733207D02*
X113911340Y-97256685D01*
X123006281Y-107269902D02*
X124363219Y-97614788D01*
X124022781Y-97163012D02*
X110703675Y-95291134D01*
X124363220Y-97614788D02*
G75*
G03*
X124022781Y-97163012I-396110J55667D01*
G01*
X113911339Y-97256685D02*
G75*
G03*
X113570902Y-96804908I-396106J55671D01*
G01*
X109388490Y-104649166D02*
G75*
G03*
X109235399Y-105738462I-76546J-544648D01*
G01*
X112408805Y-105073643D02*
G75*
G03*
X112860582Y-104733207I55672J396105D01*
G01*
X122554505Y-107610340D02*
G75*
G03*
X123006281Y-107269902I55669J396107D01*
G01*
X110703675Y-95291134D02*
G75*
G03*
X110550585Y-96380428I-76545J-544647D01*
G01*
X143335458Y-100096439D02*
X145671892Y-102056940D01*
X142771925Y-100145742D02*
X137918878Y-105929374D01*
X140304615Y-108453411D02*
X137968181Y-106492907D01*
X129294251Y-100650566D02*
X139597549Y-109296060D01*
X135512128Y-92618100D02*
X129244949Y-100087034D01*
X146378958Y-101214291D02*
X136075661Y-92568798D01*
X145671892Y-102056940D02*
G75*
G03*
X146378958Y-101214291I353533J421325D01*
G01*
X139597549Y-109296060D02*
G75*
G03*
X140304615Y-108453411I353533J421325D01*
G01*
X129244948Y-100087033D02*
G75*
G03*
X129294251Y-100650566I306421J-257115D01*
G01*
X143335456Y-100096441D02*
G75*
G03*
X142771925Y-100145742I-257115J-306414D01*
G01*
X137918880Y-105929376D02*
G75*
G03*
X137968181Y-106492907I306415J-257115D01*
G01*
X136075661Y-92568798D02*
G75*
G03*
X135512128Y-92618100I-257115J-306417D01*
G01*
X185934619Y-96900199D02*
X179161700Y-89886636D01*
X177679487Y-103898973D02*
X175485502Y-106017680D01*
X178596100Y-89876764D02*
X168920980Y-99219919D01*
X176249626Y-106808954D02*
X185924746Y-97465799D01*
X169685104Y-100011193D02*
X171879092Y-97892486D01*
X177689359Y-103333374D02*
X172444691Y-97902359D01*
X185924747Y-97465800D02*
G75*
G03*
X185934619Y-96900199I-277864J287737D01*
G01*
X168920980Y-99219919D02*
G75*
G03*
X169685104Y-100011193I382062J-395637D01*
G01*
X172444690Y-97902360D02*
G75*
G03*
X171879092Y-97892486I-287736J-277860D01*
G01*
X179161700Y-89886636D02*
G75*
G03*
X178596100Y-89876764I-287736J-277862D01*
G01*
X177679486Y-103898972D02*
G75*
G03*
X177689359Y-103333374I-277861J287736D01*
G01*
X175485502Y-106017680D02*
G75*
G03*
X176249626Y-106808954I382062J-395637D01*
G01*
X118216156Y-94563538D02*
X123686764Y-82276352D01*
X113813214Y-81219002D02*
X115053760Y-78432691D01*
X114015937Y-81747115D02*
X120913203Y-84817978D01*
X122681864Y-81828942D02*
X121441316Y-84615254D01*
X108780975Y-90800579D02*
X117688044Y-94766262D01*
X114048860Y-77985280D02*
X108578252Y-90272467D01*
X115053760Y-78432691D02*
G75*
G03*
X114048860Y-77985280I-502450J223706D01*
G01*
X123686764Y-82276352D02*
G75*
G03*
X122681864Y-81828942I-502450J223705D01*
G01*
X113813216Y-81219003D02*
G75*
G03*
X114015937Y-81747115I365415J-162696D01*
G01*
X108578252Y-90272467D02*
G75*
G03*
X108780975Y-90800579I365418J-162694D01*
G01*
X120913204Y-84817977D02*
G75*
G03*
X121441316Y-84615254I162695J365416D01*
G01*
X117688044Y-94766262D02*
G75*
G03*
X118216156Y-94563538I162693J365421D01*
G01*
X151923533Y-116978515D02*
X157819625Y-104889735D01*
X142625425Y-112888566D02*
X151388667Y-117162685D01*
X156830952Y-104407527D02*
X155493918Y-107148848D01*
X148173159Y-104023314D02*
X154959052Y-107333017D01*
X148337348Y-100264920D02*
X142441256Y-112353700D01*
X147988990Y-103488448D02*
X149326021Y-100747128D01*
X151388667Y-117162685D02*
G75*
G03*
X151923533Y-116978515I175347J359521D01*
G01*
X154959053Y-107333016D02*
G75*
G03*
X155493918Y-107148848I175349J359515D01*
G01*
X147988992Y-103488449D02*
G75*
G03*
X148173159Y-104023314I359515J-175349D01*
G01*
X142441255Y-112353700D02*
G75*
G03*
X142625425Y-112888566I359518J-175348D01*
G01*
X157819624Y-104889734D02*
G75*
G03*
X156830952Y-104407527I-494336J241103D01*
G01*
X149326020Y-100747127D02*
G75*
G03*
X148337348Y-100264920I-494336J241103D01*
G01*
X199514242Y-122322695D02*
X188496647Y-114608092D01*
X196384895Y-121474355D02*
X198883307Y-123223762D01*
X194093944Y-130063682D02*
X191595532Y-128314272D01*
X182445415Y-123250146D02*
X193463010Y-130964749D01*
X187939555Y-114706322D02*
X182347185Y-122693054D01*
X195827804Y-121572585D02*
X191497301Y-127757180D01*
X196384894Y-121474357D02*
G75*
G03*
X195827804Y-121572585I-229431J-327658D01*
G01*
X182347185Y-122693054D02*
G75*
G03*
X182445415Y-123250146I327663J-229430D01*
G01*
X188496647Y-114608092D02*
G75*
G03*
X187939555Y-114706322I-229431J-327660D01*
G01*
X193463011Y-130964748D02*
G75*
G03*
X194093944Y-130063682I315466J450533D01*
G01*
X191497303Y-127757182D02*
G75*
G03*
X191595532Y-128314272I327658J-229431D01*
G01*
X198883307Y-123223762D02*
G75*
G03*
X199514242Y-122322695I315467J450534D01*
G01*
X132014558Y-74530431D02*
X134417989Y-76408200D01*
X126196557Y-81977132D02*
X136795302Y-90257779D01*
X129838685Y-82919147D02*
X134486929Y-76969669D01*
X137356770Y-90188839D02*
X143359470Y-82505734D01*
X129277216Y-82988087D02*
X126873785Y-81110320D01*
X143290530Y-81944266D02*
X132691786Y-73663619D01*
X134486926Y-76969667D02*
G75*
G03*
X134417989Y-76408200I-315200J246265D01*
G01*
X126873785Y-81110320D02*
G75*
G03*
X126196557Y-81977132I-338614J-433406D01*
G01*
X143359469Y-82505734D02*
G75*
G03*
X143290530Y-81944266I-315206J246264D01*
G01*
X132691786Y-73663619D02*
G75*
G03*
X132014558Y-74530431I-338614J-433406D01*
G01*
X136795302Y-90257779D02*
G75*
G03*
X137356770Y-90188839I246264J315204D01*
G01*
X129277217Y-82988086D02*
G75*
G03*
X129838685Y-82919147I246265J315202D01*
G01*
X180654261Y-125711467D02*
X170817554Y-116538589D01*
X174209377Y-132622759D02*
X171978749Y-130542663D01*
X177673436Y-124435862D02*
X179904063Y-126515956D01*
X163622471Y-124254370D02*
X173459178Y-133427248D01*
X170252213Y-116558331D02*
X163602729Y-123689030D01*
X177108095Y-124455604D02*
X171959007Y-129977322D01*
X163602729Y-123689030D02*
G75*
G03*
X163622471Y-124254370I292544J-272799D01*
G01*
X177673435Y-124435863D02*
G75*
G03*
X177108095Y-124455604I-272800J-292539D01*
G01*
X170817553Y-116538590D02*
G75*
G03*
X170252213Y-116558331I-272799J-292540D01*
G01*
X171959008Y-129977323D02*
G75*
G03*
X171978749Y-130542663I292539J-272800D01*
G01*
X173459177Y-133427249D02*
G75*
G03*
X174209377Y-132622759I375100J402245D01*
G01*
X179904063Y-126515956D02*
G75*
G03*
X180654261Y-125711467I375099J402245D01*
G01*
X197566000Y-71013500D02*
X197566000Y-68763500D01*
X192926000Y-71013500D02*
X192926000Y-68763500D01*
X197566000Y-71013500D02*
X192926000Y-71013500D01*
X174158954Y-111200374D02*
X164815799Y-101525254D01*
X170683374Y-109760641D02*
X165252359Y-115005309D01*
X167361193Y-117764896D02*
X165242486Y-115570908D01*
X164250199Y-101515381D02*
X157236636Y-108288300D01*
X157226764Y-108853900D02*
X166569919Y-118529020D01*
X171248973Y-109770513D02*
X173367680Y-111964498D01*
X171248972Y-109770514D02*
G75*
G03*
X170683374Y-109760641I-287736J-277861D01*
G01*
X166569919Y-118529020D02*
G75*
G03*
X167361193Y-117764896I395637J382062D01*
G01*
X157236636Y-108288300D02*
G75*
G03*
X157226764Y-108853900I277862J-287736D01*
G01*
X164815800Y-101525253D02*
G75*
G03*
X164250199Y-101515381I-287737J-277864D01*
G01*
X165252360Y-115005310D02*
G75*
G03*
X165242486Y-115570908I277860J-287736D01*
G01*
X173367680Y-111964498D02*
G75*
G03*
X174158954Y-111200374I395637J382062D01*
G01*
X161970064Y-82242200D02*
X152294943Y-72899045D01*
X151530819Y-73690319D02*
X153724804Y-75809029D01*
X147924407Y-81815513D02*
X145730422Y-79696806D01*
X144966298Y-80488080D02*
X154641418Y-89831235D01*
X148490006Y-81805640D02*
X153734677Y-76374628D01*
X155207017Y-89821363D02*
X161979936Y-82807800D01*
X154641417Y-89831236D02*
G75*
G03*
X155207017Y-89821363I277864J287737D01*
G01*
X145730422Y-79696806D02*
G75*
G03*
X144966298Y-80488080I-382062J-395637D01*
G01*
X153734675Y-76374626D02*
G75*
G03*
X153724804Y-75809029I-287733J277863D01*
G01*
X147924409Y-81815511D02*
G75*
G03*
X148490006Y-81805640I277863J287732D01*
G01*
X161979936Y-82807800D02*
G75*
G03*
X161970064Y-82242200I-287734J277864D01*
G01*
X152294943Y-72899045D02*
G75*
G03*
X151530819Y-73690319I-382062J-395637D01*
G01*
M02*
