G04 #@! TF.GenerationSoftware,KiCad,Pcbnew,(6.0.11-0)*
G04 #@! TF.CreationDate,2023-02-16T18:45:00+08:00*
G04 #@! TF.ProjectId,Left,4c656674-2e6b-4696-9361-645f70636258,rev?*
G04 #@! TF.SameCoordinates,Original*
G04 #@! TF.FileFunction,Soldermask,Bot*
G04 #@! TF.FilePolarity,Negative*
%FSLAX46Y46*%
G04 Gerber Fmt 4.6, Leading zero omitted, Abs format (unit mm)*
G04 Created by KiCad (PCBNEW (6.0.11-0)) date 2023-02-16 18:45:00*
%MOMM*%
%LPD*%
G01*
G04 APERTURE LIST*
G04 Aperture macros list*
%AMRoundRect*
0 Rectangle with rounded corners*
0 $1 Rounding radius*
0 $2 $3 $4 $5 $6 $7 $8 $9 X,Y pos of 4 corners*
0 Add a 4 corners polygon primitive as box body*
4,1,4,$2,$3,$4,$5,$6,$7,$8,$9,$2,$3,0*
0 Add four circle primitives for the rounded corners*
1,1,$1+$1,$2,$3*
1,1,$1+$1,$4,$5*
1,1,$1+$1,$6,$7*
1,1,$1+$1,$8,$9*
0 Add four rect primitives between the rounded corners*
20,1,$1+$1,$2,$3,$4,$5,0*
20,1,$1+$1,$4,$5,$6,$7,0*
20,1,$1+$1,$6,$7,$8,$9,0*
20,1,$1+$1,$8,$9,$2,$3,0*%
%AMRotRect*
0 Rectangle, with rotation*
0 The origin of the aperture is its center*
0 $1 length*
0 $2 width*
0 $3 Rotation angle, in degrees counterclockwise*
0 Add horizontal line*
21,1,$1,$2,0,0,$3*%
%AMOutline4P*
0 Free polygon, 4 corners , with rotation*
0 The origin of the aperture is its center*
0 number of corners: always 4*
0 $1 to $8 corner X, Y*
0 $9 Rotation angle, in degrees counterclockwise*
0 create outline with 4 corners*
4,1,4,$1,$2,$3,$4,$5,$6,$7,$8,$1,$2,$9*%
%AMOutline5P*
0 Free polygon, 5 corners , with rotation*
0 The origin of the aperture is its center*
0 number of corners: always 5*
0 $1 to $10 corner X, Y*
0 $11 Rotation angle, in degrees counterclockwise*
0 create outline with 5 corners*
4,1,5,$1,$2,$3,$4,$5,$6,$7,$8,$9,$10,$1,$2,$11*%
%AMOutline6P*
0 Free polygon, 6 corners , with rotation*
0 The origin of the aperture is its center*
0 number of corners: always 6*
0 $1 to $12 corner X, Y*
0 $13 Rotation angle, in degrees counterclockwise*
0 create outline with 6 corners*
4,1,6,$1,$2,$3,$4,$5,$6,$7,$8,$9,$10,$11,$12,$1,$2,$13*%
%AMOutline7P*
0 Free polygon, 7 corners , with rotation*
0 The origin of the aperture is its center*
0 number of corners: always 7*
0 $1 to $14 corner X, Y*
0 $15 Rotation angle, in degrees counterclockwise*
0 create outline with 7 corners*
4,1,7,$1,$2,$3,$4,$5,$6,$7,$8,$9,$10,$11,$12,$13,$14,$1,$2,$15*%
%AMOutline8P*
0 Free polygon, 8 corners , with rotation*
0 The origin of the aperture is its center*
0 number of corners: always 8*
0 $1 to $16 corner X, Y*
0 $17 Rotation angle, in degrees counterclockwise*
0 create outline with 8 corners*
4,1,8,$1,$2,$3,$4,$5,$6,$7,$8,$9,$10,$11,$12,$13,$14,$15,$16,$1,$2,$17*%
%AMFreePoly0*
4,1,6,0.500000,-0.850000,-0.200000,-0.850000,-0.499999,-0.550000,-0.500000,0.850000,0.500000,0.850000,0.500000,-0.850000,0.500000,-0.850000,$1*%
%AMFreePoly1*
4,1,9,1.475000,0.375000,1.050000,0.375000,1.050000,0.775000,0.300000,0.775000,0.300000,-0.250000,-0.250000,-0.250000,-0.250000,1.250000,1.475000,1.250000,1.475000,0.375000,1.475000,0.375000,$1*%
%AMFreePoly2*
4,1,9,3.862500,-0.866500,0.737500,-0.866500,0.737500,-0.450000,-0.737500,-0.450000,-0.737500,0.450000,0.737500,0.450000,0.737500,0.866500,3.862500,0.866500,3.862500,-0.866500,3.862500,-0.866500,$1*%
G04 Aperture macros list end*
%ADD10RoundRect,0.500000X-0.508653X1.246504X-1.227993X0.551846X0.508653X-1.246504X1.227993X-0.551846X0*%
%ADD11RoundRect,0.500000X0.508653X-1.246504X1.227993X-0.551846X-0.508653X1.246504X-1.227993X0.551846X0*%
%ADD12C,5.100000*%
%ADD13C,3.050000*%
%ADD14RoundRect,0.170000X-0.830000X-0.680000X0.830000X-0.680000X0.830000X0.680000X-0.830000X0.680000X0*%
%ADD15RoundRect,0.170000X0.830000X0.680000X-0.830000X0.680000X-0.830000X-0.680000X0.830000X-0.680000X0*%
%ADD16RoundRect,0.170000X0.680000X-0.830000X0.680000X0.830000X-0.680000X0.830000X-0.680000X-0.830000X0*%
%ADD17RoundRect,0.170000X-0.680000X0.830000X-0.680000X-0.830000X0.680000X-0.830000X0.680000X0.830000X0*%
%ADD18RoundRect,0.500000X-0.486821X1.255191X-1.218175X0.573193X0.486821X-1.255191X1.218175X-0.573193X0*%
%ADD19RoundRect,0.500000X0.486821X-1.255191X1.218175X-0.573193X-0.486821X1.255191X-1.218175X0.573193X0*%
%ADD20RoundRect,0.500000X0.594366X-1.207986X1.263496X-0.464841X-0.594366X1.207986X-1.263496X0.464841X0*%
%ADD21RoundRect,0.500000X-0.594366X1.207986X-1.263496X0.464841X0.594366X-1.207986X1.263496X-0.464841X0*%
%ADD22RoundRect,0.500000X-1.207986X-0.594366X-0.464841X-1.263496X1.207986X0.594366X0.464841X1.263496X0*%
%ADD23RoundRect,0.500000X1.207986X0.594366X0.464841X1.263496X-1.207986X-0.594366X-0.464841X-1.263496X0*%
%ADD24RoundRect,0.500000X-1.168249X0.669100X-1.307422X-0.321168X1.168249X-0.669100X1.307422X0.321168X0*%
%ADD25RoundRect,0.500000X1.168249X-0.669100X1.307422X0.321168X-1.168249X0.669100X-1.307422X-0.321168X0*%
%ADD26RoundRect,0.500000X0.636162X-1.186507X1.278949X-0.420462X-0.636162X1.186507X-1.278949X0.420462X0*%
%ADD27RoundRect,0.500000X-0.636162X1.186507X-1.278949X0.420462X0.636162X-1.186507X1.278949X-0.420462X0*%
%ADD28RoundRect,0.500000X-1.246504X-0.508653X-0.551846X-1.227993X1.246504X0.508653X0.551846X1.227993X0*%
%ADD29RoundRect,0.500000X1.246504X0.508653X0.551846X1.227993X-1.246504X-0.508653X-0.551846X-1.227993X0*%
%ADD30RoundRect,0.500000X0.965194X0.938564X0.051648X1.345300X-0.965194X-0.938564X-0.051648X-1.345300X0*%
%ADD31RoundRect,0.500000X-0.965194X-0.938564X-0.051648X-1.345300X0.965194X0.938564X0.051648X1.345300X0*%
%ADD32RoundRect,0.500000X0.997361X0.904307X0.098567X1.342678X-0.997361X-0.904307X-0.098567X-1.342678X0*%
%ADD33RoundRect,0.500000X-0.997361X-0.904307X-0.098567X-1.342678X0.997361X0.904307X0.098567X1.342678X0*%
%ADD34RoundRect,0.500000X0.737152X-1.126547X1.310728X-0.307395X-0.737152X1.126547X-1.310728X0.307395X0*%
%ADD35RoundRect,0.500000X-0.737152X1.126547X-1.310728X0.307395X0.737152X-1.126547X1.310728X-0.307395X0*%
%ADD36RoundRect,0.500000X-0.677183X1.163582X-1.292844X0.375571X0.677183X-1.163582X1.292844X-0.375571X0*%
%ADD37RoundRect,0.500000X0.677183X-1.163582X1.292844X-0.375571X-0.677183X1.163582X-1.292844X0.375571X0*%
%ADD38RoundRect,0.500000X0.573193X-1.218175X1.255191X-0.486821X-0.573193X1.218175X-1.255191X0.486821X0*%
%ADD39RoundRect,0.500000X-0.573193X1.218175X-1.255191X0.486821X0.573193X-1.218175X1.255191X-0.486821X0*%
%ADD40RoundRect,0.500000X-0.551846X1.227993X-1.246504X0.508653X0.551846X-1.227993X1.246504X-0.508653X0*%
%ADD41RoundRect,0.500000X0.551846X-1.227993X1.246504X-0.508653X-0.551846X1.227993X-1.246504X0.508653X0*%
%ADD42RoundRect,0.135000X-0.152889X0.170514X-0.209025X-0.093586X0.152889X-0.170514X0.209025X0.093586X0*%
%ADD43R,0.500000X0.500000*%
%ADD44RoundRect,0.150000X0.150000X-0.350000X0.150000X0.350000X-0.150000X0.350000X-0.150000X-0.350000X0*%
%ADD45RoundRect,0.140000X-0.137177X0.172286X-0.195393X-0.101596X0.137177X-0.172286X0.195393X0.101596X0*%
%ADD46C,1.000000*%
%ADD47R,0.800000X0.900000*%
%ADD48RoundRect,0.150000X0.183455X0.333683X-0.368153X-0.097280X-0.183455X-0.333683X0.368153X0.097280X0*%
%ADD49RoundRect,0.135000X0.107097X-0.202436X0.225457X0.040239X-0.107097X0.202436X-0.225457X-0.040239X0*%
%ADD50RoundRect,0.135000X0.222332X0.054942X0.015500X0.228495X-0.222332X-0.054942X-0.015500X-0.228495X0*%
%ADD51C,1.500000*%
%ADD52RoundRect,0.150000X0.368153X-0.097280X-0.183455X0.333683X-0.368153X0.097280X0.183455X-0.333683X0*%
%ADD53RoundRect,0.135000X0.146845X-0.175745X0.212164X0.086234X-0.146845X0.175745X-0.212164X-0.086234X0*%
%ADD54RoundRect,0.140000X-0.051308X-0.214167X0.200354X-0.091423X0.051308X0.214167X-0.200354X0.091423X0*%
%ADD55RoundRect,0.140000X-0.157003X-0.154435X0.121463X-0.183703X0.157003X0.154435X-0.121463X0.183703X0*%
%ADD56RoundRect,0.140000X0.193489X0.105176X-0.066123X0.210066X-0.193489X-0.105176X0.066123X-0.210066X0*%
%ADD57R,0.800000X0.540000*%
%ADD58R,0.800000X0.300000*%
%ADD59O,2.200000X1.000000*%
%ADD60O,1.800000X1.000000*%
%ADD61RoundRect,0.150000X0.086944X-0.370730X0.208498X0.318635X-0.086944X0.370730X-0.208498X-0.318635X0*%
%ADD62RoundRect,0.150000X0.371324X-0.084372X-0.194988X0.327077X-0.371324X0.084372X0.194988X-0.327077X0*%
%ADD63RotRect,0.550000X0.250000X320.000000*%
%ADD64RotRect,0.550000X0.250000X140.000000*%
%ADD65FreePoly0,320.000000*%
%ADD66RoundRect,0.150000X0.058265X0.376305X-0.312679X-0.217329X-0.058265X-0.376305X0.312679X0.217329X0*%
%ADD67RoundRect,0.135000X-0.135000X-0.185000X0.135000X-0.185000X0.135000X0.185000X-0.135000X0.185000X0*%
%ADD68RoundRect,0.150000X0.097280X0.368153X-0.333683X-0.183455X-0.097280X-0.368153X0.333683X0.183455X0*%
%ADD69RoundRect,0.150000X-0.380751X0.005326X0.258730X-0.279390X0.380751X-0.005326X-0.258730X0.279390X0*%
%ADD70RoundRect,0.135000X-0.228896X-0.007516X-0.062668X-0.220279X0.228896X0.007516X0.062668X0.220279X0*%
%ADD71RoundRect,0.135000X0.135000X0.185000X-0.135000X0.185000X-0.135000X-0.185000X0.135000X-0.185000X0*%
%ADD72RoundRect,0.147500X0.172500X-0.147500X0.172500X0.147500X-0.172500X0.147500X-0.172500X-0.147500X0*%
%ADD73RoundRect,0.150000X-0.097280X-0.368153X0.333683X0.183455X0.097280X0.368153X-0.333683X-0.183455X0*%
%ADD74RoundRect,0.140000X0.172286X0.137177X-0.101596X0.195393X-0.172286X-0.137177X0.101596X-0.195393X0*%
%ADD75RoundRect,0.135000X0.047149X-0.224114X0.227814X-0.023465X-0.047149X0.224114X-0.227814X0.023465X0*%
%ADD76RoundRect,0.140000X0.047769X-0.214984X0.220154X0.005659X-0.047769X0.214984X-0.220154X-0.005659X0*%
%ADD77RoundRect,0.135000X0.141374X0.180176X-0.128461X0.189599X-0.141374X-0.180176X0.128461X-0.189599X0*%
%ADD78RoundRect,0.150000X0.378109X-0.045096X-0.228109X0.304904X-0.378109X0.045096X0.228109X-0.304904X0*%
%ADD79RoundRect,0.140000X0.216520X0.040237X0.002028X0.220218X-0.216520X-0.040237X-0.002028X-0.220218X0*%
%ADD80RoundRect,0.135000X0.164411X-0.159433X0.201988X0.107939X-0.164411X0.159433X-0.201988X-0.107939X0*%
%ADD81RoundRect,0.150000X0.350000X0.150000X-0.350000X0.150000X-0.350000X-0.150000X0.350000X-0.150000X0*%
%ADD82RoundRect,0.135000X0.212522X0.085350X-0.016451X0.228428X-0.212522X-0.085350X0.016451X-0.228428X0*%
%ADD83RoundRect,0.140000X-0.170000X0.140000X-0.170000X-0.140000X0.170000X-0.140000X0.170000X0.140000X0*%
%ADD84RoundRect,0.135000X-0.054942X0.222332X-0.228495X0.015500X0.054942X-0.222332X0.228495X-0.015500X0*%
%ADD85R,0.900000X0.800000*%
%ADD86RoundRect,0.135000X-0.185000X0.135000X-0.185000X-0.135000X0.185000X-0.135000X0.185000X0.135000X0*%
%ADD87RoundRect,0.135000X0.185000X-0.135000X0.185000X0.135000X-0.185000X0.135000X-0.185000X-0.135000X0*%
%ADD88RoundRect,0.140000X-0.013339X-0.219823X0.213186X-0.055243X0.013339X0.219823X-0.213186X0.055243X0*%
%ADD89RoundRect,0.140000X-0.047769X0.214984X-0.220154X-0.005659X0.047769X-0.214984X0.220154X0.005659X0*%
%ADD90RoundRect,0.135000X0.175745X0.146845X-0.086234X0.212164X-0.175745X-0.146845X0.086234X-0.212164X0*%
%ADD91RoundRect,0.140000X0.170000X-0.140000X0.170000X0.140000X-0.170000X0.140000X-0.170000X-0.140000X0*%
%ADD92RoundRect,0.135000X-0.228428X0.016451X-0.085350X-0.212522X0.228428X-0.016451X0.085350X0.212522X0*%
%ADD93RoundRect,0.135000X0.215371X0.077881X-0.008469X0.228863X-0.215371X-0.077881X0.008469X-0.228863X0*%
%ADD94FreePoly1,270.000000*%
%ADD95FreePoly1,90.000000*%
%ADD96RoundRect,0.135000X0.198575X0.114096X-0.048082X0.223915X-0.198575X-0.114096X0.048082X-0.223915X0*%
%ADD97Outline4P,-0.225000X0.475000X0.225000X0.475000X0.225000X-0.475000X-0.225000X-0.475000X64.000000*%
%ADD98Outline6P,-0.225000X0.537500X-0.112500X0.650000X0.225000X0.650000X0.225000X-0.650000X-0.112500X-0.650000X-0.225000X-0.537500X334.000000*%
%ADD99Outline6P,-0.225000X1.037500X-0.112500X1.150000X0.225000X1.150000X0.225000X-1.150000X-0.112500X-1.150000X-0.225000X-1.037500X244.000000*%
%ADD100Outline6P,-0.225000X0.537500X-0.112500X0.650000X0.225000X0.650000X0.225000X-0.650000X-0.112500X-0.650000X-0.225000X-0.537500X154.000000*%
%ADD101Outline6P,-0.225000X1.037500X-0.112500X1.150000X0.225000X1.150000X0.225000X-1.150000X-0.112500X-1.150000X-0.225000X-1.037500X64.000000*%
%ADD102RoundRect,0.087500X0.025277X-0.205362X0.141158X0.151284X-0.025277X0.205362X-0.141158X-0.151284X0*%
%ADD103RoundRect,0.087500X0.151284X-0.141158X0.205362X0.025277X-0.151284X0.141158X-0.205362X-0.025277X0*%
%ADD104RoundRect,0.135000X0.140622X-0.180763X0.215044X0.078777X-0.140622X0.180763X-0.215044X-0.078777X0*%
%ADD105RoundRect,0.150000X-0.350000X-0.150000X0.350000X-0.150000X0.350000X0.150000X-0.350000X0.150000X0*%
%ADD106RoundRect,0.150000X0.380751X-0.005326X-0.258730X0.279390X-0.380751X0.005326X0.258730X-0.279390X0*%
%ADD107RotRect,0.375000X0.350000X170.000000*%
%ADD108RotRect,0.375000X0.350000X80.000000*%
%ADD109RoundRect,0.150000X-0.084372X-0.371324X0.327077X0.194988X0.084372X0.371324X-0.327077X-0.194988X0*%
%ADD110R,0.350000X0.500000*%
%ADD111C,0.310000*%
%ADD112RoundRect,0.140000X-0.140000X-0.170000X0.140000X-0.170000X0.140000X0.170000X-0.140000X0.170000X0*%
%ADD113RoundRect,0.150000X-0.150000X0.350000X-0.150000X-0.350000X0.150000X-0.350000X0.150000X0.350000X0*%
%ADD114RoundRect,0.150000X-0.351031X0.147570X0.135229X-0.355968X0.351031X-0.147570X-0.135229X0.355968X0*%
%ADD115RoundRect,0.150000X0.333683X-0.183455X-0.097280X0.368153X-0.333683X0.183455X0.097280X-0.368153X0*%
%ADD116RoundRect,0.150000X0.367470X0.099830X-0.325718X0.197251X-0.367470X-0.099830X0.325718X-0.197251X0*%
%ADD117RoundRect,0.140000X-0.202004X0.087718X-0.124825X-0.181435X0.202004X-0.087718X0.124825X0.181435X0*%
%ADD118RoundRect,0.140000X0.207631X-0.073414X0.111865X0.189700X-0.207631X0.073414X-0.111865X-0.189700X0*%
%ADD119RoundRect,0.135000X0.152889X-0.170514X0.209025X0.093586X-0.152889X0.170514X-0.209025X-0.093586X0*%
%ADD120RoundRect,0.225000X-0.250000X0.225000X-0.250000X-0.225000X0.250000X-0.225000X0.250000X0.225000X0*%
%ADD121RoundRect,0.135000X0.194472X0.120957X-0.055868X0.222101X-0.194472X-0.120957X0.055868X-0.222101X0*%
%ADD122RoundRect,0.135000X0.062668X-0.220279X0.228896X-0.007516X-0.062668X0.220279X-0.228896X0.007516X0*%
%ADD123RoundRect,0.150000X0.512500X0.150000X-0.512500X0.150000X-0.512500X-0.150000X0.512500X-0.150000X0*%
%ADD124R,1.060000X0.650000*%
%ADD125RoundRect,0.147500X0.147500X0.172500X-0.147500X0.172500X-0.147500X-0.172500X0.147500X-0.172500X0*%
%ADD126RoundRect,0.140000X-0.172286X-0.137177X0.101596X-0.195393X0.172286X0.137177X-0.101596X0.195393X0*%
%ADD127RoundRect,0.135000X0.206050X0.099967X-0.032346X0.226724X-0.206050X-0.099967X0.032346X-0.226724X0*%
%ADD128RoundRect,0.135000X-0.099967X0.206050X-0.226724X-0.032346X0.099967X-0.206050X0.226724X0.032346X0*%
%ADD129RoundRect,0.135000X0.008469X0.228863X-0.215371X0.077881X-0.008469X-0.228863X0.215371X-0.077881X0*%
%ADD130RoundRect,0.150000X-0.380705X-0.007965X0.268323X-0.270190X0.380705X0.007965X-0.268323X0.270190X0*%
%ADD131RoundRect,0.135000X-0.062668X0.220279X-0.228896X0.007516X0.062668X-0.220279X0.228896X-0.007516X0*%
%ADD132Outline5P,-0.200000X0.260000X-0.160000X0.300000X0.200000X0.300000X0.200000X-0.300000X-0.200000X-0.300000X230.000000*%
%ADD133Outline5P,-1.700000X1.810000X-1.360000X2.150000X1.700000X2.150000X1.700000X-2.150000X-1.700000X-2.150000X320.000000*%
%ADD134RoundRect,0.135000X0.031401X-0.226857X0.225623X-0.039299X-0.031401X0.226857X-0.225623X0.039299X0*%
%ADD135RoundRect,0.135000X-0.190132X-0.127670X0.063585X-0.220016X0.190132X0.127670X-0.063585X0.220016X0*%
%ADD136RoundRect,0.135000X-0.198575X-0.114096X0.048082X-0.223915X0.198575X0.114096X-0.048082X0.223915X0*%
%ADD137RoundRect,0.150000X-0.370730X-0.086944X0.318635X-0.208498X0.370730X0.086944X-0.318635X0.208498X0*%
%ADD138RoundRect,0.135000X0.070317X-0.217958X0.229019X0.000477X-0.070317X0.217958X-0.229019X-0.000477X0*%
%ADD139RoundRect,0.150000X-0.344552X-0.162123X0.355022X-0.137694X0.344552X0.162123X-0.355022X0.137694X0*%
%ADD140R,1.300000X0.900000*%
%ADD141FreePoly2,0.000000*%
%ADD142RoundRect,0.250000X-0.650000X0.325000X-0.650000X-0.325000X0.650000X-0.325000X0.650000X0.325000X0*%
%ADD143RoundRect,0.150000X-0.380195X-0.021247X0.277589X-0.260661X0.380195X0.021247X-0.277589X0.260661X0*%
%ADD144RoundRect,0.140000X-0.002028X0.220218X-0.216520X0.040237X0.002028X-0.220218X0.216520X-0.040237X0*%
%ADD145RotRect,0.500000X0.500000X354.000000*%
%ADD146RoundRect,0.135000X-0.114096X0.198575X-0.223915X-0.048082X0.114096X-0.198575X0.223915X0.048082X0*%
%ADD147RoundRect,0.140000X-0.216520X-0.040237X-0.002028X-0.220218X0.216520X0.040237X0.002028X0.220218X0*%
%ADD148RoundRect,0.135000X0.153598X0.169875X-0.114923X0.198098X-0.153598X-0.169875X0.114923X-0.198098X0*%
%ADD149RotRect,1.200000X3.700000X236.000000*%
%ADD150RoundRect,0.140000X-0.040237X0.216520X-0.220218X0.002028X0.040237X-0.216520X0.220218X-0.002028X0*%
%ADD151RoundRect,0.150000X0.060872X-0.375892X0.230217X0.303315X-0.060872X0.375892X-0.230217X-0.303315X0*%
%ADD152RoundRect,0.140000X0.181435X0.124825X-0.087718X0.202004X-0.181435X-0.124825X0.087718X-0.202004X0*%
%ADD153RoundRect,0.250000X0.443861X-0.539693X0.698071X0.031273X-0.443861X0.539693X-0.698071X-0.031273X0*%
%ADD154RoundRect,0.150000X-0.034503X0.379222X-0.250814X-0.286517X0.034503X-0.379222X0.250814X0.286517X0*%
%ADD155RoundRect,0.150000X0.380195X0.021247X-0.277589X0.260661X-0.380195X-0.021247X0.277589X-0.260661X0*%
%ADD156RoundRect,0.135000X-0.201988X0.107939X-0.164411X-0.159433X0.201988X-0.107939X0.164411X0.159433X0*%
%ADD157RoundRect,0.150000X0.373538X0.073953X-0.311165X0.219491X-0.373538X-0.073953X0.311165X-0.219491X0*%
G04 APERTURE END LIST*
D10*
X167586232Y-81874499D03*
D11*
X164277269Y-85069928D03*
D12*
X123075000Y-77038500D03*
D13*
X127475000Y-72338500D03*
X120475000Y-71288500D03*
D14*
X117174459Y-71388500D03*
D15*
X130775541Y-72238500D03*
D13*
X163618750Y-129788500D03*
X162568750Y-136788500D03*
D12*
X168318750Y-134188500D03*
D16*
X162668750Y-140089041D03*
D17*
X163518750Y-126487959D03*
D18*
X184126713Y-81497101D03*
D19*
X180762486Y-84634293D03*
D12*
X127837500Y-96088500D03*
D13*
X125237500Y-90338500D03*
X132237500Y-91388500D03*
D14*
X121936959Y-90438500D03*
D15*
X135538041Y-91288500D03*
D13*
X151287500Y-91388500D03*
X144287500Y-90338500D03*
D12*
X146887500Y-96088500D03*
D14*
X140986959Y-90438500D03*
D15*
X154588041Y-91288500D03*
D13*
X197881250Y-93488500D03*
D12*
X192131250Y-96088500D03*
D13*
X196831250Y-100488500D03*
D17*
X197781250Y-90187959D03*
D16*
X196931250Y-103789041D03*
D12*
X111168750Y-115138500D03*
D13*
X108568750Y-109388500D03*
X115568750Y-110438500D03*
D14*
X105268209Y-109488500D03*
D15*
X118869291Y-110338500D03*
D20*
X191324575Y-111267340D03*
D21*
X194402576Y-107848874D03*
D22*
X177164160Y-136071375D03*
D23*
X180582626Y-139149376D03*
D13*
X174475000Y-79638500D03*
D12*
X180225000Y-77038500D03*
D13*
X175525000Y-72638500D03*
D16*
X174575000Y-82939041D03*
D17*
X175425000Y-69337959D03*
D12*
X199275000Y-77038500D03*
D13*
X194875000Y-81738500D03*
X201875000Y-82788500D03*
D15*
X205175541Y-82688500D03*
D14*
X191574459Y-81838500D03*
D24*
X111923578Y-98466817D03*
D25*
X111283382Y-103022050D03*
D13*
X202643750Y-112538500D03*
X201593750Y-119538500D03*
D12*
X196893750Y-115138500D03*
D17*
X202543750Y-109237959D03*
D16*
X201693750Y-122839041D03*
D13*
X152012500Y-119838500D03*
X159012500Y-120888500D03*
D12*
X156412500Y-115138500D03*
D15*
X162313041Y-120788500D03*
D14*
X148711959Y-119938500D03*
D13*
X139525000Y-71288500D03*
D12*
X142125000Y-77038500D03*
D13*
X146525000Y-72338500D03*
D14*
X136224459Y-71388500D03*
D15*
X149825541Y-72238500D03*
D13*
X99625000Y-81738500D03*
D12*
X104025000Y-77038500D03*
D13*
X106625000Y-82788500D03*
D15*
X109925541Y-82688500D03*
D14*
X96324459Y-81838500D03*
D26*
X140245869Y-105956478D03*
D27*
X143202692Y-102432674D03*
D28*
X172174499Y-100213768D03*
D29*
X175369928Y-103522731D03*
D30*
X120297851Y-82573660D03*
D31*
X116095542Y-80702672D03*
D32*
X154422400Y-105068592D03*
D33*
X150287948Y-103052084D03*
D12*
X106406300Y-96088500D03*
D13*
X101706300Y-91688500D03*
X100656300Y-98688500D03*
D16*
X100756300Y-101989041D03*
D17*
X101606300Y-88387959D03*
D34*
X193817799Y-127581370D03*
D35*
X196456251Y-123813271D03*
D13*
X139962500Y-120888500D03*
D12*
X137362500Y-115138500D03*
D13*
X132962500Y-119838500D03*
D15*
X143263041Y-120788500D03*
D14*
X129661959Y-119938500D03*
D36*
X132160410Y-77023792D03*
D37*
X129328368Y-80648642D03*
D38*
X174281390Y-130126174D03*
D39*
X177418582Y-126761947D03*
D12*
X161175000Y-77038500D03*
D13*
X165575000Y-72338500D03*
X158575000Y-71288500D03*
D14*
X155274459Y-71388500D03*
D15*
X168875541Y-72238500D03*
D11*
X167563768Y-115275501D03*
D10*
X170872731Y-112080072D03*
D13*
X180162500Y-119538500D03*
X181212500Y-112538500D03*
D12*
X175462500Y-115138500D03*
D17*
X181112500Y-109237959D03*
D16*
X180262500Y-122839041D03*
D12*
X165937500Y-96088500D03*
D13*
X160187500Y-98688500D03*
X161237500Y-91688500D03*
D16*
X160287500Y-101989041D03*
D17*
X161137500Y-88387959D03*
D40*
X151415245Y-76185268D03*
D41*
X148219817Y-79494231D03*
D12*
X194512500Y-134188500D03*
D13*
X190112500Y-138888500D03*
X197112500Y-139938500D03*
D15*
X200413041Y-139838500D03*
D14*
X186811959Y-138988500D03*
D42*
X119676035Y-74561145D03*
X119463965Y-75558855D03*
D43*
X201650000Y-89650000D03*
X199450000Y-89650000D03*
D44*
X160350000Y-128787500D03*
X159400000Y-128787500D03*
X158450000Y-128787500D03*
X158450000Y-126512500D03*
X159400000Y-126512500D03*
X160350000Y-126512500D03*
D45*
X127399798Y-103430489D03*
X127200202Y-104369511D03*
D46*
X205800000Y-113400000D03*
D47*
X185725000Y-69950000D03*
X187625000Y-69950000D03*
X186675000Y-71950000D03*
D48*
X105271484Y-103581075D03*
X105856362Y-104329685D03*
X106441241Y-105078295D03*
X104648516Y-106478925D03*
X104063638Y-105730315D03*
X103478759Y-104981705D03*
D49*
X122336431Y-87398385D03*
X122783569Y-86481615D03*
D50*
X126899983Y-110100022D03*
X126118617Y-109444378D03*
D51*
X192920000Y-91860000D03*
D52*
X171131241Y-104001705D03*
X170546362Y-104750315D03*
X169961484Y-105498925D03*
X168168759Y-104098295D03*
X168753638Y-103349685D03*
X169338516Y-102601075D03*
D53*
X126026620Y-104544851D03*
X126273380Y-103555149D03*
D54*
X124018579Y-93910418D03*
X124881421Y-93489582D03*
D55*
X123652629Y-87379826D03*
X124607371Y-87480174D03*
D56*
X140795048Y-111929811D03*
X139904952Y-111570189D03*
D46*
X205250000Y-116000000D03*
D57*
X203402700Y-92893500D03*
X203402700Y-99293500D03*
X203402700Y-93693500D03*
X203402700Y-98493500D03*
D58*
X203402700Y-94843500D03*
X203402700Y-95843500D03*
X203402700Y-96343500D03*
X203402700Y-97343500D03*
X203402700Y-97843500D03*
X203402700Y-96843500D03*
X203402700Y-95343500D03*
X203402700Y-94335500D03*
D59*
X208102700Y-101668800D03*
X208102700Y-90518200D03*
D60*
X204302700Y-90517900D03*
X204302700Y-101668800D03*
D61*
X159908043Y-133855185D03*
X158972475Y-133690219D03*
X158036908Y-133525253D03*
X158431957Y-131284815D03*
X159367525Y-131449781D03*
X160303092Y-131614747D03*
D62*
X145818653Y-84500040D03*
X145260257Y-85268606D03*
X144701861Y-86037172D03*
X142861347Y-84699960D03*
X143419743Y-83931394D03*
X143978139Y-83162828D03*
D63*
X127967807Y-110119258D03*
X128289201Y-109736236D03*
X128610595Y-109353213D03*
D64*
X128931988Y-108970191D03*
D63*
X130732193Y-110480742D03*
X130410799Y-110863764D03*
X130089405Y-111246787D03*
X129768012Y-111629809D03*
D65*
X129350000Y-110300000D03*
D66*
X200397137Y-124921922D03*
X201202783Y-125425345D03*
X202008429Y-125928769D03*
X200802863Y-127858078D03*
X199997217Y-127354655D03*
X199191571Y-126851231D03*
D67*
X204990000Y-84650000D03*
X206010000Y-84650000D03*
D68*
X197761705Y-128858759D03*
X198510315Y-129443638D03*
X199258925Y-130028516D03*
X197858295Y-131821241D03*
X197109685Y-131236362D03*
X196361075Y-130651484D03*
D51*
X118800000Y-113900000D03*
D69*
X110883142Y-74217605D03*
X111269542Y-73349737D03*
X111655942Y-72481869D03*
X113734258Y-73407195D03*
X113347858Y-74275063D03*
X112961458Y-75142931D03*
D70*
X123536013Y-95368115D03*
X124163987Y-96171885D03*
D71*
X202310000Y-94600000D03*
X201290000Y-94600000D03*
D72*
X121710000Y-122085000D03*
X121710000Y-121115000D03*
D42*
X171315887Y-139621145D03*
X171103817Y-140618855D03*
D73*
X155973295Y-96356241D03*
X155224685Y-95771362D03*
X154476075Y-95186484D03*
X155876705Y-93393759D03*
X156625315Y-93978638D03*
X157373925Y-94563516D03*
D74*
X118119511Y-77719798D03*
X117180489Y-77520202D03*
D75*
X130883743Y-113554004D03*
X131566257Y-112795996D03*
D76*
X167754482Y-102528245D03*
X168345518Y-101771755D03*
D51*
X201509579Y-91923361D03*
D77*
X165729689Y-78347799D03*
X164710311Y-78312201D03*
D78*
X130876370Y-86786557D03*
X130401370Y-87609281D03*
X129926370Y-88432005D03*
X127956162Y-87294505D03*
X128431162Y-86471781D03*
X128906162Y-85649057D03*
D79*
X145517701Y-82818538D03*
X144782299Y-82201462D03*
D80*
X183069022Y-116725037D03*
X183210978Y-115714963D03*
D81*
X167650000Y-75250000D03*
X167650000Y-76200000D03*
X167650000Y-77150000D03*
X165375000Y-77150000D03*
X165375000Y-76200000D03*
X165375000Y-75250000D03*
D46*
X129400000Y-91900000D03*
D82*
X107582505Y-104150259D03*
X106717495Y-103609741D03*
D51*
X116400000Y-113900000D03*
D83*
X207301725Y-116999497D03*
X207301725Y-117959497D03*
D84*
X128027822Y-108359317D03*
X127372178Y-109140683D03*
D85*
X205700000Y-123250000D03*
X205700000Y-125150000D03*
X203700000Y-124200000D03*
D86*
X130310000Y-114270000D03*
X130310000Y-115290000D03*
D81*
X174977352Y-139170000D03*
X174977352Y-140120000D03*
X174977352Y-141070000D03*
X172702352Y-141070000D03*
X172702352Y-140120000D03*
X172702352Y-139170000D03*
D87*
X165909852Y-140950000D03*
X165909852Y-139930000D03*
D88*
X102645872Y-104124137D03*
X103422528Y-103559863D03*
D89*
X196165518Y-129311755D03*
X195574482Y-130068245D03*
D85*
X200400000Y-87900000D03*
X200400000Y-86000000D03*
X202400000Y-86950000D03*
D71*
X190990000Y-72910000D03*
X189970000Y-72910000D03*
D46*
X127700000Y-91900000D03*
D90*
X125144851Y-104373380D03*
X124155149Y-104126620D03*
D91*
X166459852Y-138580000D03*
X166459852Y-137620000D03*
D92*
X123749741Y-109317495D03*
X124290259Y-110182505D03*
D93*
X199782809Y-128815188D03*
X198937191Y-128244812D03*
D94*
X124760000Y-114650000D03*
D95*
X125760000Y-116600000D03*
D83*
X206750000Y-136920000D03*
X206750000Y-137880000D03*
D51*
X205100000Y-120900000D03*
D96*
X200095908Y-108427436D03*
X199164092Y-108012564D03*
D97*
X143720378Y-115927888D03*
X142507006Y-115336087D03*
X142879622Y-114572112D03*
X144092994Y-115163913D03*
D98*
X144816715Y-115989751D03*
D99*
X142696137Y-116374044D03*
D100*
X141783285Y-114510249D03*
D101*
X143858923Y-114104038D03*
D102*
X127372511Y-102474061D03*
X126896982Y-102319553D03*
X126421454Y-102165044D03*
X125945926Y-102010536D03*
X125470398Y-101856027D03*
D103*
X125480447Y-101096982D03*
X125634956Y-100621454D03*
X125789464Y-100145926D03*
D102*
X126227489Y-99525939D03*
X126703018Y-99680447D03*
X127178546Y-99834956D03*
X127654074Y-99989464D03*
X128129602Y-100143973D03*
D103*
X128119553Y-100903018D03*
X127965044Y-101378546D03*
X127810536Y-101854074D03*
D53*
X114406620Y-75314851D03*
X114653380Y-74325149D03*
D94*
X122660000Y-114650000D03*
D95*
X123660000Y-116600000D03*
D104*
X126399425Y-106370243D03*
X126680575Y-105389757D03*
D51*
X113200000Y-69700000D03*
D105*
X190842500Y-77850000D03*
X190842500Y-76900000D03*
X190842500Y-75950000D03*
X193117500Y-75950000D03*
X193117500Y-76900000D03*
X193117500Y-77850000D03*
D106*
X126441824Y-84905326D03*
X126055424Y-85773194D03*
X125669024Y-86641062D03*
X123590708Y-85715736D03*
X123977108Y-84847868D03*
X124363508Y-83980000D03*
D107*
X125581152Y-105393801D03*
X125494328Y-105886205D03*
X125407504Y-106378609D03*
X125320680Y-106871013D03*
D108*
X124813795Y-106794328D03*
X124321391Y-106707504D03*
D107*
X123818848Y-106606199D03*
X123905672Y-106113795D03*
X123992496Y-105621391D03*
X124079320Y-105128987D03*
D108*
X124586205Y-105205672D03*
X125078609Y-105292496D03*
D86*
X158380000Y-124220000D03*
X158380000Y-125240000D03*
D109*
X198339960Y-111748653D03*
X197571394Y-111190257D03*
X196802828Y-110631861D03*
X198140040Y-108791347D03*
X198908606Y-109349743D03*
X199677172Y-109908139D03*
D110*
X120725000Y-109619200D03*
X121375000Y-109619200D03*
X122025000Y-109619200D03*
X122675000Y-109619200D03*
X122675000Y-108019200D03*
X122025000Y-108019200D03*
X121375000Y-108019200D03*
X120725000Y-108019200D03*
D111*
X122870716Y-94428969D03*
X122499843Y-94279126D03*
X122128969Y-94129284D03*
X122720874Y-94799843D03*
X122350000Y-94650000D03*
X121979126Y-94500157D03*
X122571031Y-95170716D03*
X122200157Y-95020874D03*
X121829284Y-94871031D03*
D112*
X159400000Y-125350000D03*
X160360000Y-125350000D03*
D113*
X202710000Y-103882500D03*
X203660000Y-103882500D03*
X204610000Y-103882500D03*
X204610000Y-106157500D03*
X203660000Y-106157500D03*
X202710000Y-106157500D03*
D87*
X197770000Y-134270000D03*
X197770000Y-133250000D03*
X206897861Y-123017968D03*
X206897861Y-121997968D03*
D112*
X205920000Y-104500000D03*
X206880000Y-104500000D03*
D75*
X130133743Y-112879004D03*
X130816257Y-112120996D03*
D46*
X205800000Y-110700000D03*
D114*
X185206453Y-75241676D03*
X185889826Y-74581751D03*
X186573199Y-73921826D03*
X188153547Y-75558324D03*
X187470174Y-76218249D03*
X186786801Y-76878174D03*
D86*
X122590000Y-121120000D03*
X122590000Y-122140000D03*
D115*
X174498925Y-107611484D03*
X173750315Y-108196362D03*
X173001705Y-108781241D03*
X171601075Y-106988516D03*
X172349685Y-106403638D03*
X173098295Y-105818759D03*
D116*
X172398644Y-75007555D03*
X172266430Y-75948309D03*
X172134215Y-76889064D03*
X169881356Y-76572445D03*
X170013570Y-75631691D03*
X170145785Y-74690936D03*
D44*
X200750000Y-106787500D03*
X199800000Y-106787500D03*
X198850000Y-106787500D03*
X198850000Y-104512500D03*
X199800000Y-104512500D03*
X200750000Y-104512500D03*
D83*
X206800000Y-127020000D03*
X206800000Y-127980000D03*
D51*
X110700000Y-69700000D03*
D46*
X128000000Y-90200000D03*
D117*
X194387694Y-76888594D03*
X194652306Y-77811406D03*
D46*
X127200000Y-112500000D03*
D67*
X122410000Y-110610000D03*
X123430000Y-110610000D03*
D46*
X205800000Y-109000000D03*
D118*
X164044170Y-75011052D03*
X163715830Y-74108948D03*
D77*
X158029689Y-91307799D03*
X157010311Y-91272201D03*
D83*
X119600000Y-107820000D03*
X119600000Y-108780000D03*
D119*
X124743965Y-99698855D03*
X124956035Y-98701145D03*
D120*
X205750000Y-131675000D03*
X205750000Y-133225000D03*
D71*
X202410000Y-97700000D03*
X201390000Y-97700000D03*
D121*
X122142864Y-96091049D03*
X121197136Y-95708951D03*
D122*
X171192613Y-105806685D03*
X171820587Y-105002915D03*
D123*
X191437500Y-69825000D03*
X191437500Y-70775000D03*
X191437500Y-71725000D03*
X189162500Y-71725000D03*
X189162500Y-70775000D03*
X189162500Y-69825000D03*
D124*
X206100000Y-85750000D03*
X206100000Y-86700000D03*
X206100000Y-87650000D03*
X203900000Y-87650000D03*
X203900000Y-85750000D03*
D125*
X204517500Y-88950000D03*
X203547500Y-88950000D03*
D45*
X184169798Y-116390489D03*
X183970202Y-117329511D03*
D51*
X202743979Y-138576090D03*
D83*
X204509579Y-108277478D03*
X204509579Y-109237478D03*
D126*
X157000489Y-92370202D03*
X157939511Y-92569798D03*
D127*
X143450303Y-86959430D03*
X142549697Y-86480570D03*
D128*
X127555696Y-85510228D03*
X127076836Y-86410834D03*
D86*
X130300000Y-116090000D03*
X130300000Y-117110000D03*
D129*
X104202809Y-101984812D03*
X103357191Y-102555188D03*
D130*
X175479452Y-110684710D03*
X175835328Y-109803885D03*
X176191205Y-108923060D03*
X178300548Y-109775290D03*
X177944672Y-110656115D03*
X177588795Y-111536940D03*
D131*
X167513987Y-101098115D03*
X166886013Y-101901885D03*
D132*
X127902823Y-105998861D03*
X128719163Y-105025985D03*
X129535503Y-104053108D03*
X130336523Y-103067376D03*
X136081856Y-107888283D03*
X135280837Y-108874015D03*
X134464497Y-109846892D03*
X133648156Y-110819768D03*
D133*
X132000000Y-106950000D03*
D134*
X188263137Y-77304276D03*
X188996863Y-76595724D03*
D135*
X184860757Y-111495570D03*
X185819243Y-111844430D03*
D124*
X198700000Y-84900000D03*
X198700000Y-85850000D03*
X198700000Y-86800000D03*
X196500000Y-86800000D03*
X196500000Y-84900000D03*
D87*
X127200000Y-114890000D03*
X127200000Y-113870000D03*
D136*
X154054092Y-96702564D03*
X154985908Y-97117436D03*
D83*
X207050000Y-80600000D03*
X207050000Y-81560000D03*
D137*
X115554815Y-75918043D03*
X115719781Y-74982475D03*
X115884747Y-74046908D03*
X118125185Y-74441957D03*
X117960219Y-75377525D03*
X117795253Y-76313092D03*
D71*
X199010000Y-88200000D03*
X197990000Y-88200000D03*
D138*
X145830230Y-86732599D03*
X146429770Y-85907401D03*
D139*
X136146347Y-111589119D03*
X136113193Y-110639698D03*
X136080038Y-109690277D03*
X138353653Y-109610881D03*
X138386807Y-110560302D03*
X138419962Y-111509723D03*
D46*
X129700000Y-90200000D03*
D140*
X201550000Y-136550000D03*
D141*
X201637500Y-135050000D03*
D140*
X201550000Y-133550000D03*
D71*
X121626900Y-110659500D03*
X120606900Y-110659500D03*
D142*
X199400000Y-133625000D03*
X199400000Y-136575000D03*
D50*
X124815683Y-108752822D03*
X124034317Y-108097178D03*
D44*
X133730000Y-116757500D03*
X132780000Y-116757500D03*
X131830000Y-116757500D03*
X131830000Y-114482500D03*
X132780000Y-114482500D03*
X133730000Y-114482500D03*
D46*
X202800000Y-141400000D03*
D143*
X184106181Y-114723660D03*
X184431100Y-113830952D03*
X184756019Y-112938244D03*
X186893819Y-113716340D03*
X186568900Y-114609048D03*
X186243981Y-115501756D03*
D144*
X126492701Y-107441462D03*
X125757299Y-108058538D03*
D145*
X199906026Y-131685019D03*
X202093974Y-131914981D03*
D146*
X201017436Y-100954092D03*
X200602564Y-101885908D03*
D134*
X134013137Y-112934276D03*
X134746863Y-112225724D03*
D147*
X131232299Y-111241462D03*
X131967701Y-111858538D03*
D148*
X141017206Y-110543310D03*
X140002794Y-110436690D03*
D86*
X168770000Y-75310000D03*
X168770000Y-76330000D03*
D71*
X159850000Y-130070000D03*
X158830000Y-130070000D03*
D149*
X204482870Y-128289347D03*
X202917130Y-130610653D03*
D67*
X205890000Y-88950000D03*
X206910000Y-88950000D03*
D150*
X128958538Y-103332299D03*
X128341462Y-104067701D03*
D151*
X154621595Y-100583537D03*
X153699814Y-100353711D03*
X152778033Y-100123886D03*
X153328405Y-97916463D03*
X154250186Y-98146289D03*
X155171967Y-98376114D03*
D152*
X122981406Y-93222306D03*
X122058594Y-92957694D03*
D153*
X119430148Y-95011060D03*
X120619852Y-92338940D03*
D154*
X106908003Y-100034607D03*
X107811507Y-100328173D03*
X108715011Y-100621739D03*
X108011997Y-102785393D03*
X107108493Y-102491827D03*
X106204989Y-102198261D03*
D112*
X199720000Y-103180000D03*
X200680000Y-103180000D03*
D155*
X170063671Y-139216340D03*
X169738752Y-140109048D03*
X169413833Y-141001756D03*
X167276033Y-140223660D03*
X167600952Y-139330952D03*
X167925871Y-138438244D03*
D46*
X205300000Y-118400000D03*
D51*
X194570000Y-90290000D03*
D156*
X194259022Y-74734963D03*
X194400978Y-75745037D03*
D46*
X205800000Y-107300000D03*
D157*
X149850159Y-86517259D03*
X149652643Y-87446500D03*
X149455127Y-88375740D03*
X147229841Y-87902741D03*
X147427357Y-86973500D03*
X147624873Y-86044260D03*
M02*
