%TF.GenerationSoftware,KiCad,Pcbnew,(6.0.11-0)*%
%TF.CreationDate,2023-02-16T18:45:55+08:00*%
%TF.ProjectId,Left,4c656674-2e6b-4696-9361-645f70636258,rev?*%
%TF.SameCoordinates,Original*%
%TF.FileFunction,Drillmap*%
%TF.FilePolarity,Positive*%
%FSLAX45Y45*%
G04 Gerber Fmt 4.5, Leading zero omitted, Abs format (unit mm)*
G04 Created by KiCad (PCBNEW (6.0.11-0)) date 2023-02-16 18:45:55*
%MOMM*%
%LPD*%
G01*
G04 APERTURE LIST*
%ADD10C,0.030000*%
%ADD11C,0.038100*%
%ADD12C,0.000100*%
%ADD13C,0.200000*%
%ADD14C,0.305000*%
%ADD15C,0.510000*%
G04 APERTURE END LIST*
D10*
X15741519Y-14283603D02*
X15735250Y-14277353D01*
D11*
X15472242Y-12617344D02*
X15481250Y-12626352D01*
X15562573Y-12759317D02*
X15570250Y-12784317D01*
D10*
X9660999Y-12454353D02*
X9613436Y-12427694D01*
D11*
X17992595Y-6851352D02*
X17992595Y-6876352D01*
D10*
X20920495Y-13973688D02*
X20909563Y-14033509D01*
D12*
X20694996Y-14046352D02*
G75*
G03*
X20694996Y-14046352I-140000J0D01*
G01*
D10*
X9531499Y-12359816D02*
X9537751Y-12366085D01*
X9488658Y-12302918D02*
X9519689Y-12346588D01*
X9402216Y-11994570D02*
X9406972Y-12047870D01*
D11*
X20006595Y-6701352D02*
X20006595Y-6851352D01*
D10*
X15922054Y-14386423D02*
X15913039Y-14383375D01*
X20716560Y-6790011D02*
X20760229Y-6821041D01*
X9462000Y-6962353D02*
X9488658Y-6914788D01*
D11*
X17742595Y-6701352D02*
X17742595Y-6851352D01*
X15591250Y-12944352D02*
X15591250Y-12956352D01*
D10*
X20867996Y-14160352D02*
X20841337Y-14207917D01*
X9409499Y-12068688D02*
X9420432Y-12128509D01*
X15913039Y-14383375D02*
X15904025Y-14380326D01*
X20471921Y-6709588D02*
X20482330Y-6710852D01*
X16113033Y-14419136D02*
X16059733Y-14414382D01*
X20920496Y-7149017D02*
X20909563Y-7089196D01*
X10107800Y-12516352D02*
X10107800Y-12316352D01*
D11*
X15541580Y-12709525D02*
X15547291Y-12721568D01*
D10*
X15591251Y-13821352D02*
X15593466Y-13899570D01*
D11*
X11835600Y-12316352D02*
X13055600Y-12316352D01*
D10*
X9677788Y-12461781D02*
X9660999Y-12454353D01*
X9409500Y-7149018D02*
X9420432Y-7089196D01*
D11*
X15481250Y-12626352D02*
X15490258Y-12635361D01*
X15398077Y-12566022D02*
X15413250Y-12574352D01*
D10*
X13055600Y-12516352D02*
X13055600Y-12316352D01*
D11*
X15557788Y-12746464D02*
X15562573Y-12759317D01*
D10*
X15869038Y-14366781D02*
X15852250Y-14359353D01*
D11*
X15201606Y-12517618D02*
X15217606Y-12518887D01*
X19042595Y-6851352D02*
X19292595Y-6851352D01*
D10*
X20923024Y-7169836D02*
X20921760Y-7159426D01*
D12*
X9915000Y-7076352D02*
G75*
G03*
X9915000Y-7076352I-140000J0D01*
G01*
D10*
X20461512Y-14414380D02*
X20471920Y-14413117D01*
X9730803Y-6736282D02*
X9721789Y-6739330D01*
D11*
X10107800Y-12316352D02*
X11327800Y-12316352D01*
D10*
X20895066Y-14090549D02*
X20892017Y-14099563D01*
X20408212Y-14419136D02*
X20461512Y-14414380D01*
X9847665Y-12506853D02*
X9787844Y-12495922D01*
X9858075Y-12508118D02*
X9847665Y-12506853D01*
D11*
X11327800Y-12516352D02*
X11835600Y-12516352D01*
X15533250Y-12694352D02*
X15525250Y-12681352D01*
D10*
X20779726Y-6839102D02*
X20785995Y-6845352D01*
X20798496Y-6857890D02*
X20792245Y-6851621D01*
D11*
X19292595Y-6851352D02*
X19292595Y-6876352D01*
D10*
X9712774Y-6742378D02*
X9677787Y-6755924D01*
X15599486Y-13963279D02*
X15600750Y-13973687D01*
D11*
X15217606Y-12518887D02*
X15248824Y-12522278D01*
X15462773Y-12608796D02*
X15445250Y-12595352D01*
D10*
X14783400Y-12516352D02*
X14783400Y-12316352D01*
D11*
X18706595Y-6701352D02*
X18706595Y-6851352D01*
X15431709Y-12585985D02*
X15445250Y-12595352D01*
D10*
X9406971Y-7169835D02*
X9408235Y-7159427D01*
X15804685Y-14332694D02*
X15761016Y-14301664D01*
X9531499Y-6857890D02*
X9537749Y-6851621D01*
X9550270Y-12378603D02*
X9544000Y-12372353D01*
X20798496Y-14264815D02*
X20792245Y-14271083D01*
D11*
X15585324Y-12858779D02*
X15583201Y-12843562D01*
X16624150Y-14221352D02*
X17844150Y-14221352D01*
D10*
X20927779Y-13899569D02*
X20923024Y-13952869D01*
X20766843Y-14295759D02*
X20773457Y-14289853D01*
X20810306Y-6871118D02*
X20804401Y-6864504D01*
X9721789Y-6739330D02*
X9712774Y-6742378D01*
D11*
X15323285Y-12537352D02*
X15348285Y-12545029D01*
D10*
X20599192Y-6736282D02*
X20608206Y-6739330D01*
X9563152Y-12390759D02*
X9556538Y-12384854D01*
X9434929Y-12185550D02*
X9437978Y-12194564D01*
X20542151Y-14400921D02*
X20599192Y-14386423D01*
X20923024Y-13952869D02*
X20921759Y-13963278D01*
X15761016Y-14301664D02*
X15754402Y-14295759D01*
X9408235Y-7159427D02*
X9409500Y-7149018D01*
X9420432Y-12128509D02*
X9434929Y-12185550D01*
X9556538Y-6832852D02*
X9550269Y-6839102D01*
D11*
X20329995Y-14421352D02*
X19897050Y-14421352D01*
X20929995Y-9151652D02*
X20380273Y-9151652D01*
D10*
X20841337Y-6914787D02*
X20810306Y-6871118D01*
D11*
X13055600Y-12516352D02*
X13563400Y-12516352D01*
X15285250Y-12528352D02*
X15264041Y-12524402D01*
D10*
X9847665Y-6710852D02*
X9787844Y-6721785D01*
X9519689Y-12346588D02*
X9525594Y-12353201D01*
D11*
X15583201Y-12843562D02*
X15579250Y-12822352D01*
D10*
X20909563Y-7089196D02*
X20895065Y-7032155D01*
X20773457Y-6832852D02*
X20779726Y-6839102D01*
X9437978Y-12194564D02*
X9441026Y-12203578D01*
X20617220Y-14380326D02*
X20652208Y-14366781D01*
X16624150Y-14421352D02*
X16624150Y-14221352D01*
X15979094Y-14400920D02*
X15922054Y-14386423D01*
X20482330Y-14411853D02*
X20542151Y-14400921D01*
X20888970Y-14108578D02*
X20875424Y-14143565D01*
D11*
X15386034Y-12560311D02*
X15398077Y-12566022D01*
D10*
X9613435Y-6790011D02*
X9569766Y-6821041D01*
D11*
X15361139Y-12549815D02*
X15386034Y-12560311D01*
D10*
X20608206Y-14383375D02*
X20617220Y-14380326D01*
X15747788Y-14289853D02*
X15741519Y-14283603D01*
X9441026Y-7014127D02*
X9454571Y-6979140D01*
D11*
X15196250Y-12517352D02*
X15163250Y-12516352D01*
D10*
X15598222Y-13952869D02*
X15599486Y-13963279D01*
D11*
X20929995Y-10066052D02*
X20380273Y-10066052D01*
D10*
X9868484Y-12509382D02*
X9858075Y-12508118D01*
X9712774Y-12475328D02*
X9677788Y-12461781D01*
D11*
X17742595Y-6851352D02*
X17992595Y-6851352D01*
D10*
X15632276Y-14108578D02*
X15645822Y-14143566D01*
X20909563Y-14033509D02*
X20895066Y-14090549D01*
D11*
X18456595Y-6851352D02*
X18706595Y-6851352D01*
D10*
X20921759Y-13963278D02*
X20920495Y-13973688D01*
X9525594Y-6864504D02*
X9531499Y-6857890D01*
D11*
X19756595Y-6851352D02*
X19756595Y-6876352D01*
X15472250Y-12617352D02*
X15462773Y-12608796D01*
X9400000Y-7301352D02*
X9400000Y-11916352D01*
D10*
X20617221Y-6742378D02*
X20652208Y-6755924D01*
X9787844Y-6721785D02*
X9730803Y-6736282D01*
X9787844Y-12495922D02*
X9730803Y-12481424D01*
D11*
X15196250Y-12517352D02*
X15201606Y-12517618D01*
X15588716Y-12889996D02*
X15589984Y-12905996D01*
D10*
X15600750Y-13973687D02*
X15611682Y-14033508D01*
D11*
X15348285Y-12545029D02*
X15361139Y-12549815D01*
D10*
X19897050Y-14421352D02*
X19897050Y-14221352D01*
X9721789Y-12478376D02*
X9712774Y-12475328D01*
X9537751Y-12366085D02*
X9544000Y-12372353D01*
X20892017Y-14099563D02*
X20888970Y-14108578D01*
D11*
X15574217Y-12800259D02*
X15579250Y-12822352D01*
X15533250Y-12694352D02*
X15541580Y-12709525D01*
D10*
X15629228Y-14099564D02*
X15632276Y-14108578D01*
X20875424Y-14143565D02*
X20867996Y-14160352D01*
X20716560Y-14332694D02*
X20760229Y-14301663D01*
X20599192Y-14386423D02*
X20608206Y-14383375D01*
X16059733Y-14414382D02*
X16049325Y-14413117D01*
X9454571Y-6979140D02*
X9462000Y-6962353D01*
X15679909Y-14207917D02*
X15710939Y-14251586D01*
X20766843Y-6826946D02*
X20773457Y-6832852D01*
X20929995Y-7301352D02*
X20927779Y-7223135D01*
D11*
X19042595Y-6701352D02*
X19042595Y-6851352D01*
X20929995Y-13821352D02*
X20929995Y-10066052D01*
D10*
X20792245Y-6851621D02*
X20785995Y-6845352D01*
D12*
X16106250Y-14046353D02*
G75*
G03*
X16106250Y-14046353I-140000J0D01*
G01*
D10*
X9858074Y-6709588D02*
X9847665Y-6710852D01*
D11*
X15521617Y-12675894D02*
X15525250Y-12681352D01*
D10*
X20929995Y-13821352D02*
X20927779Y-13899569D01*
X9408235Y-12058279D02*
X9409499Y-12068688D01*
X15722749Y-14264814D02*
X15729000Y-14271084D01*
X9488658Y-6914788D02*
X9519688Y-6871118D01*
X20668995Y-6763352D02*
X20716560Y-6790011D01*
X20921760Y-7159426D02*
X20920496Y-7149017D01*
X17844150Y-14421352D02*
X17844150Y-14221352D01*
X15593466Y-13899570D02*
X15598222Y-13952869D01*
X9420432Y-7089196D02*
X9434930Y-7032156D01*
X15710939Y-14251586D02*
X15716844Y-14258201D01*
X13563400Y-12516352D02*
X13563400Y-12316352D01*
D11*
X15547291Y-12721568D02*
X15557788Y-12746464D01*
D10*
X15626180Y-14090550D02*
X15629228Y-14099564D01*
D11*
X18456595Y-6851352D02*
X18456595Y-6876352D01*
D10*
X9730803Y-12481424D02*
X9721789Y-12478376D01*
X15754402Y-14295759D02*
X15747788Y-14289853D01*
X16049325Y-14413117D02*
X16038916Y-14411853D01*
X20652208Y-14366781D02*
X20668995Y-14359353D01*
X20760229Y-14301663D02*
X20766843Y-14295759D01*
X9563151Y-6826946D02*
X9556538Y-6832852D01*
X9921782Y-6703569D02*
X9868483Y-6708324D01*
D11*
X20380273Y-10066052D02*
X20380273Y-9151652D01*
D10*
X9462001Y-12255353D02*
X9488658Y-12302918D01*
D11*
X15589984Y-12905996D02*
X15590250Y-12911352D01*
X20929995Y-7301352D02*
X20929995Y-9151652D01*
X15426250Y-12582352D02*
X15431709Y-12585985D01*
D10*
X9437978Y-7023141D02*
X9441026Y-7014127D01*
D11*
X10000000Y-12516352D02*
X10107800Y-12516352D01*
X17742595Y-6701352D02*
X10000000Y-6701352D01*
D10*
X9441026Y-12203578D02*
X9454572Y-12238566D01*
X20867995Y-6962352D02*
X20841337Y-6914787D01*
X9677787Y-6755924D02*
X9661000Y-6763353D01*
X11327800Y-12516352D02*
X11327800Y-12316352D01*
X20461512Y-6708324D02*
X20471921Y-6709588D01*
X20542151Y-6721784D02*
X20599192Y-6736282D01*
X15716844Y-14258201D02*
X15722749Y-14264814D01*
X9550269Y-6839102D02*
X9544000Y-6845353D01*
X20471920Y-14413117D02*
X20482330Y-14411853D01*
D11*
X15574217Y-12800259D02*
X15570250Y-12784352D01*
X15151250Y-12516352D02*
X14783400Y-12516352D01*
D10*
X9613436Y-12427694D02*
X9569766Y-12396664D01*
X11835600Y-12516352D02*
X11835600Y-12316352D01*
X20329995Y-6701352D02*
X20408212Y-6703568D01*
X20329995Y-14421353D02*
X20408212Y-14419136D01*
D11*
X15591250Y-12944352D02*
X15590250Y-12911352D01*
D10*
X20888969Y-7014127D02*
X20875424Y-6979139D01*
D11*
X18677050Y-14221352D02*
X19897050Y-14221352D01*
D10*
X20482330Y-6710852D02*
X20542151Y-6721784D01*
D11*
X19756595Y-6851352D02*
X20006595Y-6851352D01*
X16624150Y-14421352D02*
X16191250Y-14421352D01*
D10*
X15653250Y-14160352D02*
X15679909Y-14207917D01*
D11*
X15512250Y-12662352D02*
X15498806Y-12644830D01*
D10*
X15611682Y-14033508D02*
X15626180Y-14090550D01*
X16038916Y-14411853D02*
X15979094Y-14400920D01*
X20608206Y-6739330D02*
X20617221Y-6742378D01*
X20760229Y-6821041D02*
X20766843Y-6826946D01*
X20804401Y-6864504D02*
X20798496Y-6857890D01*
X20652208Y-6755924D02*
X20668995Y-6763352D01*
D11*
X15151250Y-12516352D02*
X15163250Y-12516352D01*
D10*
X20875424Y-6979139D02*
X20867995Y-6962352D01*
X16191250Y-14421352D02*
X16113033Y-14419136D01*
X15904025Y-14380326D02*
X15869038Y-14366781D01*
X9537749Y-6851621D02*
X9544000Y-6845353D01*
X15852250Y-14359353D02*
X15804685Y-14332694D01*
X9569766Y-12396664D02*
X9563152Y-12390759D01*
D11*
X15285250Y-12528352D02*
X15307343Y-12533385D01*
X13563400Y-12316352D02*
X14783400Y-12316352D01*
D10*
X20329995Y-6701352D02*
X20006595Y-6701352D01*
X19042595Y-6701352D02*
X18706595Y-6701352D01*
X20810307Y-14251587D02*
X20804400Y-14258201D01*
X20927779Y-7223135D02*
X20923024Y-7169836D01*
X9569766Y-6821041D02*
X9563151Y-6826946D01*
X9556538Y-12384854D02*
X9550270Y-12378603D01*
D11*
X15426250Y-12582352D02*
X15413250Y-12574352D01*
D10*
X20408212Y-6703568D02*
X20461512Y-6708324D01*
X20773457Y-14289853D02*
X20779726Y-14283603D01*
X18677050Y-14421352D02*
X18677050Y-14221352D01*
X20895065Y-7032155D02*
X20892017Y-7023141D01*
D11*
X15512250Y-12662352D02*
X15521617Y-12675894D01*
X15585324Y-12858779D02*
X15588716Y-12889996D01*
D10*
X9454572Y-12238566D02*
X9462001Y-12255353D01*
X9400000Y-7301352D02*
X9402216Y-7223135D01*
X10000000Y-12516352D02*
X9921784Y-12514138D01*
X9434930Y-7032156D02*
X9437978Y-7023141D01*
X9868483Y-6708324D02*
X9858074Y-6709588D01*
X15729000Y-14271084D02*
X15735250Y-14277353D01*
X9402216Y-7223135D02*
X9406971Y-7169835D01*
X15645822Y-14143566D02*
X15653250Y-14160352D01*
X20804400Y-14258201D02*
X20798496Y-14264815D01*
X20779726Y-14283603D02*
X20785995Y-14277352D01*
X20668995Y-14359353D02*
X20716560Y-14332694D01*
D11*
X15323250Y-12537352D02*
X15307343Y-12533385D01*
D10*
X20792245Y-14271083D02*
X20785995Y-14277352D01*
X9519688Y-6871118D02*
X9525594Y-6864504D01*
D11*
X15264041Y-12524402D02*
X15248824Y-12522278D01*
D10*
X9406972Y-12047870D02*
X9408235Y-12058279D01*
X10000000Y-6701353D02*
X9921782Y-6703569D01*
X9661000Y-6763353D02*
X9613435Y-6790011D01*
X20892017Y-7023141D02*
X20888969Y-7014127D01*
X9921784Y-12514138D02*
X9868484Y-12509382D01*
D12*
X20694995Y-7076351D02*
G75*
G03*
X20694995Y-7076351I-140000J0D01*
G01*
D10*
X9400000Y-11916353D02*
X9402216Y-11994570D01*
D11*
X15591250Y-13821352D02*
X15591250Y-12956352D01*
X15498806Y-12644830D02*
X15490250Y-12635352D01*
X17844150Y-14421352D02*
X18677050Y-14421352D01*
D10*
X20841337Y-14207917D02*
X20810307Y-14251587D01*
D12*
X9915000Y-12141353D02*
G75*
G03*
X9915000Y-12141353I-140000J0D01*
G01*
D10*
X9525594Y-12353201D02*
X9531499Y-12359816D01*
D13*
D14*
X9810000Y-8021350D02*
X10115000Y-8326350D01*
X10115000Y-8021350D02*
X9810000Y-8326350D01*
X9913130Y-9716350D02*
X10218130Y-10021350D01*
X10218130Y-9716350D02*
X9913130Y-10021350D01*
X10018130Y-9016350D02*
X10323130Y-9321350D01*
X10323130Y-9016350D02*
X10018130Y-9321350D01*
X10510000Y-8126350D02*
X10815000Y-8431350D01*
X10815000Y-8126350D02*
X10510000Y-8431350D01*
X10704375Y-10786350D02*
X11009375Y-11091350D01*
X11009375Y-10786350D02*
X10704375Y-11091350D01*
X11404375Y-10891350D02*
X11709375Y-11196350D01*
X11709375Y-10891350D02*
X11404375Y-11196350D01*
X11895000Y-6976350D02*
X12200000Y-7281350D01*
X12200000Y-6976350D02*
X11895000Y-7281350D01*
X12371250Y-8881350D02*
X12676250Y-9186350D01*
X12676250Y-8881350D02*
X12371250Y-9186350D01*
X12595000Y-7081350D02*
X12900000Y-7386350D01*
X12900000Y-7081350D02*
X12595000Y-7386350D01*
X13071250Y-8986350D02*
X13376250Y-9291350D01*
X13376250Y-8986350D02*
X13071250Y-9291350D01*
X13143750Y-11831350D02*
X13448750Y-12136350D01*
X13448750Y-11831350D02*
X13143750Y-12136350D01*
X13800000Y-6976350D02*
X14105000Y-7281350D01*
X14105000Y-6976350D02*
X13800000Y-7281350D01*
X13843750Y-11936350D02*
X14148750Y-12241350D01*
X14148750Y-11936350D02*
X13843750Y-12241350D01*
X14276250Y-8881350D02*
X14581250Y-9186350D01*
X14581250Y-8881350D02*
X14276250Y-9186350D01*
X14500000Y-7081350D02*
X14805000Y-7386350D01*
X14805000Y-7081350D02*
X14500000Y-7386350D01*
X14976250Y-8986350D02*
X15281250Y-9291350D01*
X15281250Y-8986350D02*
X14976250Y-9291350D01*
X15048750Y-11831350D02*
X15353750Y-12136350D01*
X15353750Y-11831350D02*
X15048750Y-12136350D01*
X15705000Y-6976350D02*
X16010000Y-7281350D01*
X16010000Y-6976350D02*
X15705000Y-7281350D01*
X15748750Y-11936350D02*
X16053750Y-12241350D01*
X16053750Y-11936350D02*
X15748750Y-12241350D01*
X15866250Y-9716350D02*
X16171250Y-10021350D01*
X16171250Y-9716350D02*
X15866250Y-10021350D01*
X15971250Y-9016350D02*
X16276250Y-9321350D01*
X16276250Y-9016350D02*
X15971250Y-9321350D01*
X16104375Y-13526350D02*
X16409375Y-13831350D01*
X16409375Y-13526350D02*
X16104375Y-13831350D01*
X16209375Y-12826350D02*
X16514375Y-13131350D01*
X16514375Y-12826350D02*
X16209375Y-13131350D01*
X16405000Y-7081350D02*
X16710000Y-7386350D01*
X16710000Y-7081350D02*
X16405000Y-7386350D01*
X17295000Y-7811350D02*
X17600000Y-8116350D01*
X17600000Y-7811350D02*
X17295000Y-8116350D01*
X17400000Y-7111350D02*
X17705000Y-7416350D01*
X17705000Y-7111350D02*
X17400000Y-7416350D01*
X17863750Y-11801350D02*
X18168750Y-12106350D01*
X18168750Y-11801350D02*
X17863750Y-12106350D01*
X17968750Y-11101350D02*
X18273750Y-11406350D01*
X18273750Y-11101350D02*
X17968750Y-11406350D01*
X18858750Y-13736350D02*
X19163750Y-14041350D01*
X19163750Y-13736350D02*
X18858750Y-14041350D01*
X19335000Y-8021350D02*
X19640000Y-8326350D01*
X19640000Y-8021350D02*
X19335000Y-8326350D01*
X19530625Y-9896350D02*
X19835625Y-10201350D01*
X19835625Y-9896350D02*
X19530625Y-10201350D01*
X19558750Y-13841350D02*
X19863750Y-14146350D01*
X19863750Y-13841350D02*
X19558750Y-14146350D01*
X19635625Y-9196350D02*
X19940625Y-9501350D01*
X19940625Y-9196350D02*
X19635625Y-9501350D01*
X20006875Y-11801350D02*
X20311875Y-12106350D01*
X20311875Y-11801350D02*
X20006875Y-12106350D01*
X20035000Y-8126350D02*
X20340000Y-8431350D01*
X20340000Y-8126350D02*
X20035000Y-8431350D01*
X20111875Y-11101350D02*
X20416875Y-11406350D01*
X20416875Y-11101350D02*
X20111875Y-11406350D01*
D15*
X10657500Y-7703850D02*
G75*
G03*
X10657500Y-7703850I-255000J0D01*
G01*
X10895630Y-9608850D02*
G75*
G03*
X10895630Y-9608850I-255000J0D01*
G01*
X11371875Y-11513850D02*
G75*
G03*
X11371875Y-11513850I-255000J0D01*
G01*
X12562500Y-7703850D02*
G75*
G03*
X12562500Y-7703850I-255000J0D01*
G01*
X13038750Y-9608850D02*
G75*
G03*
X13038750Y-9608850I-255000J0D01*
G01*
X13991250Y-11513850D02*
G75*
G03*
X13991250Y-11513850I-255000J0D01*
G01*
X14467500Y-7703850D02*
G75*
G03*
X14467500Y-7703850I-255000J0D01*
G01*
X14943750Y-9608850D02*
G75*
G03*
X14943750Y-9608850I-255000J0D01*
G01*
X15896250Y-11513850D02*
G75*
G03*
X15896250Y-11513850I-255000J0D01*
G01*
X16372500Y-7703850D02*
G75*
G03*
X16372500Y-7703850I-255000J0D01*
G01*
X16848750Y-9608850D02*
G75*
G03*
X16848750Y-9608850I-255000J0D01*
G01*
X17086875Y-13418850D02*
G75*
G03*
X17086875Y-13418850I-255000J0D01*
G01*
X17801250Y-11513850D02*
G75*
G03*
X17801250Y-11513850I-255000J0D01*
G01*
X18277500Y-7703850D02*
G75*
G03*
X18277500Y-7703850I-255000J0D01*
G01*
X19468125Y-9608850D02*
G75*
G03*
X19468125Y-9608850I-255000J0D01*
G01*
X19706250Y-13418850D02*
G75*
G03*
X19706250Y-13418850I-255000J0D01*
G01*
X19944375Y-11513850D02*
G75*
G03*
X19944375Y-11513850I-255000J0D01*
G01*
X20182500Y-7703850D02*
G75*
G03*
X20182500Y-7703850I-255000J0D01*
G01*
D13*
X9655714Y-14733733D02*
X9655714Y-14533733D01*
X9703333Y-14533733D01*
X9731905Y-14543257D01*
X9750952Y-14562305D01*
X9760476Y-14581353D01*
X9770000Y-14619448D01*
X9770000Y-14648019D01*
X9760476Y-14686114D01*
X9750952Y-14705162D01*
X9731905Y-14724210D01*
X9703333Y-14733733D01*
X9655714Y-14733733D01*
X9855714Y-14733733D02*
X9855714Y-14600400D01*
X9855714Y-14638495D02*
X9865238Y-14619448D01*
X9874762Y-14609924D01*
X9893809Y-14600400D01*
X9912857Y-14600400D01*
X9979524Y-14733733D02*
X9979524Y-14600400D01*
X9979524Y-14533733D02*
X9970000Y-14543257D01*
X9979524Y-14552781D01*
X9989047Y-14543257D01*
X9979524Y-14533733D01*
X9979524Y-14552781D01*
X10103333Y-14733733D02*
X10084285Y-14724210D01*
X10074762Y-14705162D01*
X10074762Y-14533733D01*
X10208095Y-14733733D02*
X10189047Y-14724210D01*
X10179524Y-14705162D01*
X10179524Y-14533733D01*
X10436666Y-14733733D02*
X10436666Y-14533733D01*
X10503333Y-14676591D01*
X10570000Y-14533733D01*
X10570000Y-14733733D01*
X10750952Y-14733733D02*
X10750952Y-14628972D01*
X10741428Y-14609924D01*
X10722381Y-14600400D01*
X10684285Y-14600400D01*
X10665238Y-14609924D01*
X10750952Y-14724210D02*
X10731905Y-14733733D01*
X10684285Y-14733733D01*
X10665238Y-14724210D01*
X10655714Y-14705162D01*
X10655714Y-14686114D01*
X10665238Y-14667067D01*
X10684285Y-14657543D01*
X10731905Y-14657543D01*
X10750952Y-14648019D01*
X10846190Y-14600400D02*
X10846190Y-14800400D01*
X10846190Y-14609924D02*
X10865238Y-14600400D01*
X10903333Y-14600400D01*
X10922381Y-14609924D01*
X10931905Y-14619448D01*
X10941428Y-14638495D01*
X10941428Y-14695638D01*
X10931905Y-14714686D01*
X10922381Y-14724210D01*
X10903333Y-14733733D01*
X10865238Y-14733733D01*
X10846190Y-14724210D01*
X11027143Y-14714686D02*
X11036666Y-14724210D01*
X11027143Y-14733733D01*
X11017619Y-14724210D01*
X11027143Y-14714686D01*
X11027143Y-14733733D01*
X11027143Y-14609924D02*
X11036666Y-14619448D01*
X11027143Y-14628972D01*
X11017619Y-14619448D01*
X11027143Y-14609924D01*
X11027143Y-14628972D01*
X9198095Y-14963257D02*
X9398095Y-15163257D01*
X9398095Y-14963257D02*
X9198095Y-15163257D01*
X9636666Y-14953733D02*
X9760476Y-14953733D01*
X9693809Y-15029924D01*
X9722381Y-15029924D01*
X9741428Y-15039448D01*
X9750952Y-15048972D01*
X9760476Y-15068019D01*
X9760476Y-15115638D01*
X9750952Y-15134686D01*
X9741428Y-15144210D01*
X9722381Y-15153733D01*
X9665238Y-15153733D01*
X9646190Y-15144210D01*
X9636666Y-15134686D01*
X9846190Y-15134686D02*
X9855714Y-15144210D01*
X9846190Y-15153733D01*
X9836666Y-15144210D01*
X9846190Y-15134686D01*
X9846190Y-15153733D01*
X9979524Y-14953733D02*
X9998571Y-14953733D01*
X10017619Y-14963257D01*
X10027143Y-14972781D01*
X10036666Y-14991829D01*
X10046190Y-15029924D01*
X10046190Y-15077543D01*
X10036666Y-15115638D01*
X10027143Y-15134686D01*
X10017619Y-15144210D01*
X9998571Y-15153733D01*
X9979524Y-15153733D01*
X9960476Y-15144210D01*
X9950952Y-15134686D01*
X9941428Y-15115638D01*
X9931905Y-15077543D01*
X9931905Y-15029924D01*
X9941428Y-14991829D01*
X9950952Y-14972781D01*
X9960476Y-14963257D01*
X9979524Y-14953733D01*
X10227143Y-14953733D02*
X10131905Y-14953733D01*
X10122381Y-15048972D01*
X10131905Y-15039448D01*
X10150952Y-15029924D01*
X10198571Y-15029924D01*
X10217619Y-15039448D01*
X10227143Y-15048972D01*
X10236666Y-15068019D01*
X10236666Y-15115638D01*
X10227143Y-15134686D01*
X10217619Y-15144210D01*
X10198571Y-15153733D01*
X10150952Y-15153733D01*
X10131905Y-15144210D01*
X10122381Y-15134686D01*
X10360476Y-14953733D02*
X10379524Y-14953733D01*
X10398571Y-14963257D01*
X10408095Y-14972781D01*
X10417619Y-14991829D01*
X10427143Y-15029924D01*
X10427143Y-15077543D01*
X10417619Y-15115638D01*
X10408095Y-15134686D01*
X10398571Y-15144210D01*
X10379524Y-15153733D01*
X10360476Y-15153733D01*
X10341428Y-15144210D01*
X10331905Y-15134686D01*
X10322381Y-15115638D01*
X10312857Y-15077543D01*
X10312857Y-15029924D01*
X10322381Y-14991829D01*
X10331905Y-14972781D01*
X10341428Y-14963257D01*
X10360476Y-14953733D01*
X10512857Y-15153733D02*
X10512857Y-15020400D01*
X10512857Y-15039448D02*
X10522381Y-15029924D01*
X10541428Y-15020400D01*
X10570000Y-15020400D01*
X10589047Y-15029924D01*
X10598571Y-15048972D01*
X10598571Y-15153733D01*
X10598571Y-15048972D02*
X10608095Y-15029924D01*
X10627143Y-15020400D01*
X10655714Y-15020400D01*
X10674762Y-15029924D01*
X10684285Y-15048972D01*
X10684285Y-15153733D01*
X10779524Y-15153733D02*
X10779524Y-15020400D01*
X10779524Y-15039448D02*
X10789047Y-15029924D01*
X10808095Y-15020400D01*
X10836666Y-15020400D01*
X10855714Y-15029924D01*
X10865238Y-15048972D01*
X10865238Y-15153733D01*
X10865238Y-15048972D02*
X10874762Y-15029924D01*
X10893809Y-15020400D01*
X10922381Y-15020400D01*
X10941428Y-15029924D01*
X10950952Y-15048972D01*
X10950952Y-15153733D01*
X11341428Y-14944210D02*
X11170000Y-15201353D01*
X11598571Y-14953733D02*
X11617619Y-14953733D01*
X11636666Y-14963257D01*
X11646190Y-14972781D01*
X11655714Y-14991829D01*
X11665238Y-15029924D01*
X11665238Y-15077543D01*
X11655714Y-15115638D01*
X11646190Y-15134686D01*
X11636666Y-15144210D01*
X11617619Y-15153733D01*
X11598571Y-15153733D01*
X11579523Y-15144210D01*
X11570000Y-15134686D01*
X11560476Y-15115638D01*
X11550952Y-15077543D01*
X11550952Y-15029924D01*
X11560476Y-14991829D01*
X11570000Y-14972781D01*
X11579523Y-14963257D01*
X11598571Y-14953733D01*
X11750952Y-15134686D02*
X11760476Y-15144210D01*
X11750952Y-15153733D01*
X11741428Y-15144210D01*
X11750952Y-15134686D01*
X11750952Y-15153733D01*
X11950952Y-15153733D02*
X11836666Y-15153733D01*
X11893809Y-15153733D02*
X11893809Y-14953733D01*
X11874762Y-14982305D01*
X11855714Y-15001353D01*
X11836666Y-15010876D01*
X12027143Y-14972781D02*
X12036666Y-14963257D01*
X12055714Y-14953733D01*
X12103333Y-14953733D01*
X12122381Y-14963257D01*
X12131904Y-14972781D01*
X12141428Y-14991829D01*
X12141428Y-15010876D01*
X12131904Y-15039448D01*
X12017619Y-15153733D01*
X12141428Y-15153733D01*
X12265238Y-14953733D02*
X12284285Y-14953733D01*
X12303333Y-14963257D01*
X12312857Y-14972781D01*
X12322381Y-14991829D01*
X12331904Y-15029924D01*
X12331904Y-15077543D01*
X12322381Y-15115638D01*
X12312857Y-15134686D01*
X12303333Y-15144210D01*
X12284285Y-15153733D01*
X12265238Y-15153733D01*
X12246190Y-15144210D01*
X12236666Y-15134686D01*
X12227143Y-15115638D01*
X12217619Y-15077543D01*
X12217619Y-15029924D01*
X12227143Y-14991829D01*
X12236666Y-14972781D01*
X12246190Y-14963257D01*
X12265238Y-14953733D01*
X12522381Y-15153733D02*
X12408095Y-15153733D01*
X12465238Y-15153733D02*
X12465238Y-14953733D01*
X12446190Y-14982305D01*
X12427143Y-15001353D01*
X12408095Y-15010876D01*
X12598571Y-14953733D02*
X12598571Y-14991829D01*
X12674762Y-14953733D02*
X12674762Y-14991829D01*
X12970000Y-15229924D02*
X12960476Y-15220400D01*
X12941428Y-15191829D01*
X12931904Y-15172781D01*
X12922381Y-15144210D01*
X12912857Y-15096591D01*
X12912857Y-15058495D01*
X12922381Y-15010876D01*
X12931904Y-14982305D01*
X12941428Y-14963257D01*
X12960476Y-14934686D01*
X12970000Y-14925162D01*
X13027143Y-14953733D02*
X13150952Y-14953733D01*
X13084285Y-15029924D01*
X13112857Y-15029924D01*
X13131904Y-15039448D01*
X13141428Y-15048972D01*
X13150952Y-15068019D01*
X13150952Y-15115638D01*
X13141428Y-15134686D01*
X13131904Y-15144210D01*
X13112857Y-15153733D01*
X13055714Y-15153733D01*
X13036666Y-15144210D01*
X13027143Y-15134686D01*
X13322381Y-14953733D02*
X13284285Y-14953733D01*
X13265238Y-14963257D01*
X13255714Y-14972781D01*
X13236666Y-15001353D01*
X13227143Y-15039448D01*
X13227143Y-15115638D01*
X13236666Y-15134686D01*
X13246190Y-15144210D01*
X13265238Y-15153733D01*
X13303333Y-15153733D01*
X13322381Y-15144210D01*
X13331904Y-15134686D01*
X13341428Y-15115638D01*
X13341428Y-15068019D01*
X13331904Y-15048972D01*
X13322381Y-15039448D01*
X13303333Y-15029924D01*
X13265238Y-15029924D01*
X13246190Y-15039448D01*
X13236666Y-15048972D01*
X13227143Y-15068019D01*
X13579523Y-15153733D02*
X13579523Y-14953733D01*
X13665238Y-15153733D02*
X13665238Y-15048972D01*
X13655714Y-15029924D01*
X13636666Y-15020400D01*
X13608095Y-15020400D01*
X13589047Y-15029924D01*
X13579523Y-15039448D01*
X13789047Y-15153733D02*
X13770000Y-15144210D01*
X13760476Y-15134686D01*
X13750952Y-15115638D01*
X13750952Y-15058495D01*
X13760476Y-15039448D01*
X13770000Y-15029924D01*
X13789047Y-15020400D01*
X13817619Y-15020400D01*
X13836666Y-15029924D01*
X13846190Y-15039448D01*
X13855714Y-15058495D01*
X13855714Y-15115638D01*
X13846190Y-15134686D01*
X13836666Y-15144210D01*
X13817619Y-15153733D01*
X13789047Y-15153733D01*
X13970000Y-15153733D02*
X13950952Y-15144210D01*
X13941428Y-15125162D01*
X13941428Y-14953733D01*
X14122381Y-15144210D02*
X14103333Y-15153733D01*
X14065238Y-15153733D01*
X14046190Y-15144210D01*
X14036666Y-15125162D01*
X14036666Y-15048972D01*
X14046190Y-15029924D01*
X14065238Y-15020400D01*
X14103333Y-15020400D01*
X14122381Y-15029924D01*
X14131904Y-15048972D01*
X14131904Y-15068019D01*
X14036666Y-15087067D01*
X14208095Y-15144210D02*
X14227143Y-15153733D01*
X14265238Y-15153733D01*
X14284285Y-15144210D01*
X14293809Y-15125162D01*
X14293809Y-15115638D01*
X14284285Y-15096591D01*
X14265238Y-15087067D01*
X14236666Y-15087067D01*
X14217619Y-15077543D01*
X14208095Y-15058495D01*
X14208095Y-15048972D01*
X14217619Y-15029924D01*
X14236666Y-15020400D01*
X14265238Y-15020400D01*
X14284285Y-15029924D01*
X14360476Y-15229924D02*
X14370000Y-15220400D01*
X14389047Y-15191829D01*
X14398571Y-15172781D01*
X14408095Y-15144210D01*
X14417619Y-15096591D01*
X14417619Y-15058495D01*
X14408095Y-15010876D01*
X14398571Y-14982305D01*
X14389047Y-14963257D01*
X14370000Y-14934686D01*
X14360476Y-14925162D01*
X14722381Y-15229924D02*
X14712857Y-15220400D01*
X14693809Y-15191829D01*
X14684285Y-15172781D01*
X14674762Y-15144210D01*
X14665238Y-15096591D01*
X14665238Y-15058495D01*
X14674762Y-15010876D01*
X14684285Y-14982305D01*
X14693809Y-14963257D01*
X14712857Y-14934686D01*
X14722381Y-14925162D01*
X14798571Y-15020400D02*
X14798571Y-15153733D01*
X14798571Y-15039448D02*
X14808095Y-15029924D01*
X14827143Y-15020400D01*
X14855714Y-15020400D01*
X14874762Y-15029924D01*
X14884285Y-15048972D01*
X14884285Y-15153733D01*
X15008095Y-15153733D02*
X14989047Y-15144210D01*
X14979523Y-15134686D01*
X14970000Y-15115638D01*
X14970000Y-15058495D01*
X14979523Y-15039448D01*
X14989047Y-15029924D01*
X15008095Y-15020400D01*
X15036666Y-15020400D01*
X15055714Y-15029924D01*
X15065238Y-15039448D01*
X15074762Y-15058495D01*
X15074762Y-15115638D01*
X15065238Y-15134686D01*
X15055714Y-15144210D01*
X15036666Y-15153733D01*
X15008095Y-15153733D01*
X15131904Y-15020400D02*
X15208095Y-15020400D01*
X15160476Y-14953733D02*
X15160476Y-15125162D01*
X15170000Y-15144210D01*
X15189047Y-15153733D01*
X15208095Y-15153733D01*
X15427143Y-15020400D02*
X15427143Y-15220400D01*
X15427143Y-15029924D02*
X15446190Y-15020400D01*
X15484285Y-15020400D01*
X15503333Y-15029924D01*
X15512857Y-15039448D01*
X15522381Y-15058495D01*
X15522381Y-15115638D01*
X15512857Y-15134686D01*
X15503333Y-15144210D01*
X15484285Y-15153733D01*
X15446190Y-15153733D01*
X15427143Y-15144210D01*
X15636666Y-15153733D02*
X15617619Y-15144210D01*
X15608095Y-15125162D01*
X15608095Y-14953733D01*
X15798571Y-15153733D02*
X15798571Y-15048972D01*
X15789047Y-15029924D01*
X15770000Y-15020400D01*
X15731904Y-15020400D01*
X15712857Y-15029924D01*
X15798571Y-15144210D02*
X15779523Y-15153733D01*
X15731904Y-15153733D01*
X15712857Y-15144210D01*
X15703333Y-15125162D01*
X15703333Y-15106114D01*
X15712857Y-15087067D01*
X15731904Y-15077543D01*
X15779523Y-15077543D01*
X15798571Y-15068019D01*
X15865238Y-15020400D02*
X15941428Y-15020400D01*
X15893809Y-14953733D02*
X15893809Y-15125162D01*
X15903333Y-15144210D01*
X15922381Y-15153733D01*
X15941428Y-15153733D01*
X16084285Y-15144210D02*
X16065238Y-15153733D01*
X16027143Y-15153733D01*
X16008095Y-15144210D01*
X15998571Y-15125162D01*
X15998571Y-15048972D01*
X16008095Y-15029924D01*
X16027143Y-15020400D01*
X16065238Y-15020400D01*
X16084285Y-15029924D01*
X16093809Y-15048972D01*
X16093809Y-15068019D01*
X15998571Y-15087067D01*
X16265238Y-15153733D02*
X16265238Y-14953733D01*
X16265238Y-15144210D02*
X16246190Y-15153733D01*
X16208095Y-15153733D01*
X16189047Y-15144210D01*
X16179523Y-15134686D01*
X16170000Y-15115638D01*
X16170000Y-15058495D01*
X16179523Y-15039448D01*
X16189047Y-15029924D01*
X16208095Y-15020400D01*
X16246190Y-15020400D01*
X16265238Y-15029924D01*
X16341428Y-15229924D02*
X16350952Y-15220400D01*
X16370000Y-15191829D01*
X16379523Y-15172781D01*
X16389047Y-15144210D01*
X16398571Y-15096591D01*
X16398571Y-15058495D01*
X16389047Y-15010876D01*
X16379523Y-14982305D01*
X16370000Y-14963257D01*
X16350952Y-14934686D01*
X16341428Y-14925162D01*
X9398095Y-15383257D02*
G75*
G03*
X9398095Y-15383257I-100000J0D01*
G01*
X9750952Y-15273733D02*
X9655714Y-15273733D01*
X9646190Y-15368972D01*
X9655714Y-15359448D01*
X9674762Y-15349924D01*
X9722381Y-15349924D01*
X9741428Y-15359448D01*
X9750952Y-15368972D01*
X9760476Y-15388019D01*
X9760476Y-15435638D01*
X9750952Y-15454686D01*
X9741428Y-15464210D01*
X9722381Y-15473733D01*
X9674762Y-15473733D01*
X9655714Y-15464210D01*
X9646190Y-15454686D01*
X9846190Y-15454686D02*
X9855714Y-15464210D01*
X9846190Y-15473733D01*
X9836666Y-15464210D01*
X9846190Y-15454686D01*
X9846190Y-15473733D01*
X10046190Y-15473733D02*
X9931905Y-15473733D01*
X9989047Y-15473733D02*
X9989047Y-15273733D01*
X9970000Y-15302305D01*
X9950952Y-15321353D01*
X9931905Y-15330876D01*
X10170000Y-15273733D02*
X10189047Y-15273733D01*
X10208095Y-15283257D01*
X10217619Y-15292781D01*
X10227143Y-15311829D01*
X10236666Y-15349924D01*
X10236666Y-15397543D01*
X10227143Y-15435638D01*
X10217619Y-15454686D01*
X10208095Y-15464210D01*
X10189047Y-15473733D01*
X10170000Y-15473733D01*
X10150952Y-15464210D01*
X10141428Y-15454686D01*
X10131905Y-15435638D01*
X10122381Y-15397543D01*
X10122381Y-15349924D01*
X10131905Y-15311829D01*
X10141428Y-15292781D01*
X10150952Y-15283257D01*
X10170000Y-15273733D01*
X10360476Y-15273733D02*
X10379524Y-15273733D01*
X10398571Y-15283257D01*
X10408095Y-15292781D01*
X10417619Y-15311829D01*
X10427143Y-15349924D01*
X10427143Y-15397543D01*
X10417619Y-15435638D01*
X10408095Y-15454686D01*
X10398571Y-15464210D01*
X10379524Y-15473733D01*
X10360476Y-15473733D01*
X10341428Y-15464210D01*
X10331905Y-15454686D01*
X10322381Y-15435638D01*
X10312857Y-15397543D01*
X10312857Y-15349924D01*
X10322381Y-15311829D01*
X10331905Y-15292781D01*
X10341428Y-15283257D01*
X10360476Y-15273733D01*
X10512857Y-15473733D02*
X10512857Y-15340400D01*
X10512857Y-15359448D02*
X10522381Y-15349924D01*
X10541428Y-15340400D01*
X10570000Y-15340400D01*
X10589047Y-15349924D01*
X10598571Y-15368972D01*
X10598571Y-15473733D01*
X10598571Y-15368972D02*
X10608095Y-15349924D01*
X10627143Y-15340400D01*
X10655714Y-15340400D01*
X10674762Y-15349924D01*
X10684285Y-15368972D01*
X10684285Y-15473733D01*
X10779524Y-15473733D02*
X10779524Y-15340400D01*
X10779524Y-15359448D02*
X10789047Y-15349924D01*
X10808095Y-15340400D01*
X10836666Y-15340400D01*
X10855714Y-15349924D01*
X10865238Y-15368972D01*
X10865238Y-15473733D01*
X10865238Y-15368972D02*
X10874762Y-15349924D01*
X10893809Y-15340400D01*
X10922381Y-15340400D01*
X10941428Y-15349924D01*
X10950952Y-15368972D01*
X10950952Y-15473733D01*
X11341428Y-15264210D02*
X11170000Y-15521353D01*
X11598571Y-15273733D02*
X11617619Y-15273733D01*
X11636666Y-15283257D01*
X11646190Y-15292781D01*
X11655714Y-15311829D01*
X11665238Y-15349924D01*
X11665238Y-15397543D01*
X11655714Y-15435638D01*
X11646190Y-15454686D01*
X11636666Y-15464210D01*
X11617619Y-15473733D01*
X11598571Y-15473733D01*
X11579523Y-15464210D01*
X11570000Y-15454686D01*
X11560476Y-15435638D01*
X11550952Y-15397543D01*
X11550952Y-15349924D01*
X11560476Y-15311829D01*
X11570000Y-15292781D01*
X11579523Y-15283257D01*
X11598571Y-15273733D01*
X11750952Y-15454686D02*
X11760476Y-15464210D01*
X11750952Y-15473733D01*
X11741428Y-15464210D01*
X11750952Y-15454686D01*
X11750952Y-15473733D01*
X11836666Y-15292781D02*
X11846190Y-15283257D01*
X11865238Y-15273733D01*
X11912857Y-15273733D01*
X11931904Y-15283257D01*
X11941428Y-15292781D01*
X11950952Y-15311829D01*
X11950952Y-15330876D01*
X11941428Y-15359448D01*
X11827143Y-15473733D01*
X11950952Y-15473733D01*
X12074762Y-15273733D02*
X12093809Y-15273733D01*
X12112857Y-15283257D01*
X12122381Y-15292781D01*
X12131904Y-15311829D01*
X12141428Y-15349924D01*
X12141428Y-15397543D01*
X12131904Y-15435638D01*
X12122381Y-15454686D01*
X12112857Y-15464210D01*
X12093809Y-15473733D01*
X12074762Y-15473733D01*
X12055714Y-15464210D01*
X12046190Y-15454686D01*
X12036666Y-15435638D01*
X12027143Y-15397543D01*
X12027143Y-15349924D01*
X12036666Y-15311829D01*
X12046190Y-15292781D01*
X12055714Y-15283257D01*
X12074762Y-15273733D01*
X12265238Y-15273733D02*
X12284285Y-15273733D01*
X12303333Y-15283257D01*
X12312857Y-15292781D01*
X12322381Y-15311829D01*
X12331904Y-15349924D01*
X12331904Y-15397543D01*
X12322381Y-15435638D01*
X12312857Y-15454686D01*
X12303333Y-15464210D01*
X12284285Y-15473733D01*
X12265238Y-15473733D01*
X12246190Y-15464210D01*
X12236666Y-15454686D01*
X12227143Y-15435638D01*
X12217619Y-15397543D01*
X12217619Y-15349924D01*
X12227143Y-15311829D01*
X12236666Y-15292781D01*
X12246190Y-15283257D01*
X12265238Y-15273733D01*
X12446190Y-15359448D02*
X12427143Y-15349924D01*
X12417619Y-15340400D01*
X12408095Y-15321353D01*
X12408095Y-15311829D01*
X12417619Y-15292781D01*
X12427143Y-15283257D01*
X12446190Y-15273733D01*
X12484285Y-15273733D01*
X12503333Y-15283257D01*
X12512857Y-15292781D01*
X12522381Y-15311829D01*
X12522381Y-15321353D01*
X12512857Y-15340400D01*
X12503333Y-15349924D01*
X12484285Y-15359448D01*
X12446190Y-15359448D01*
X12427143Y-15368972D01*
X12417619Y-15378495D01*
X12408095Y-15397543D01*
X12408095Y-15435638D01*
X12417619Y-15454686D01*
X12427143Y-15464210D01*
X12446190Y-15473733D01*
X12484285Y-15473733D01*
X12503333Y-15464210D01*
X12512857Y-15454686D01*
X12522381Y-15435638D01*
X12522381Y-15397543D01*
X12512857Y-15378495D01*
X12503333Y-15368972D01*
X12484285Y-15359448D01*
X12598571Y-15273733D02*
X12598571Y-15311829D01*
X12674762Y-15273733D02*
X12674762Y-15311829D01*
X12970000Y-15549924D02*
X12960476Y-15540400D01*
X12941428Y-15511829D01*
X12931904Y-15492781D01*
X12922381Y-15464210D01*
X12912857Y-15416591D01*
X12912857Y-15378495D01*
X12922381Y-15330876D01*
X12931904Y-15302305D01*
X12941428Y-15283257D01*
X12960476Y-15254686D01*
X12970000Y-15245162D01*
X13150952Y-15473733D02*
X13036666Y-15473733D01*
X13093809Y-15473733D02*
X13093809Y-15273733D01*
X13074762Y-15302305D01*
X13055714Y-15321353D01*
X13036666Y-15330876D01*
X13265238Y-15359448D02*
X13246190Y-15349924D01*
X13236666Y-15340400D01*
X13227143Y-15321353D01*
X13227143Y-15311829D01*
X13236666Y-15292781D01*
X13246190Y-15283257D01*
X13265238Y-15273733D01*
X13303333Y-15273733D01*
X13322381Y-15283257D01*
X13331904Y-15292781D01*
X13341428Y-15311829D01*
X13341428Y-15321353D01*
X13331904Y-15340400D01*
X13322381Y-15349924D01*
X13303333Y-15359448D01*
X13265238Y-15359448D01*
X13246190Y-15368972D01*
X13236666Y-15378495D01*
X13227143Y-15397543D01*
X13227143Y-15435638D01*
X13236666Y-15454686D01*
X13246190Y-15464210D01*
X13265238Y-15473733D01*
X13303333Y-15473733D01*
X13322381Y-15464210D01*
X13331904Y-15454686D01*
X13341428Y-15435638D01*
X13341428Y-15397543D01*
X13331904Y-15378495D01*
X13322381Y-15368972D01*
X13303333Y-15359448D01*
X13579523Y-15473733D02*
X13579523Y-15273733D01*
X13665238Y-15473733D02*
X13665238Y-15368972D01*
X13655714Y-15349924D01*
X13636666Y-15340400D01*
X13608095Y-15340400D01*
X13589047Y-15349924D01*
X13579523Y-15359448D01*
X13789047Y-15473733D02*
X13770000Y-15464210D01*
X13760476Y-15454686D01*
X13750952Y-15435638D01*
X13750952Y-15378495D01*
X13760476Y-15359448D01*
X13770000Y-15349924D01*
X13789047Y-15340400D01*
X13817619Y-15340400D01*
X13836666Y-15349924D01*
X13846190Y-15359448D01*
X13855714Y-15378495D01*
X13855714Y-15435638D01*
X13846190Y-15454686D01*
X13836666Y-15464210D01*
X13817619Y-15473733D01*
X13789047Y-15473733D01*
X13970000Y-15473733D02*
X13950952Y-15464210D01*
X13941428Y-15445162D01*
X13941428Y-15273733D01*
X14122381Y-15464210D02*
X14103333Y-15473733D01*
X14065238Y-15473733D01*
X14046190Y-15464210D01*
X14036666Y-15445162D01*
X14036666Y-15368972D01*
X14046190Y-15349924D01*
X14065238Y-15340400D01*
X14103333Y-15340400D01*
X14122381Y-15349924D01*
X14131904Y-15368972D01*
X14131904Y-15388019D01*
X14036666Y-15407067D01*
X14208095Y-15464210D02*
X14227143Y-15473733D01*
X14265238Y-15473733D01*
X14284285Y-15464210D01*
X14293809Y-15445162D01*
X14293809Y-15435638D01*
X14284285Y-15416591D01*
X14265238Y-15407067D01*
X14236666Y-15407067D01*
X14217619Y-15397543D01*
X14208095Y-15378495D01*
X14208095Y-15368972D01*
X14217619Y-15349924D01*
X14236666Y-15340400D01*
X14265238Y-15340400D01*
X14284285Y-15349924D01*
X14360476Y-15549924D02*
X14370000Y-15540400D01*
X14389047Y-15511829D01*
X14398571Y-15492781D01*
X14408095Y-15464210D01*
X14417619Y-15416591D01*
X14417619Y-15378495D01*
X14408095Y-15330876D01*
X14398571Y-15302305D01*
X14389047Y-15283257D01*
X14370000Y-15254686D01*
X14360476Y-15245162D01*
X14722381Y-15549924D02*
X14712857Y-15540400D01*
X14693809Y-15511829D01*
X14684285Y-15492781D01*
X14674762Y-15464210D01*
X14665238Y-15416591D01*
X14665238Y-15378495D01*
X14674762Y-15330876D01*
X14684285Y-15302305D01*
X14693809Y-15283257D01*
X14712857Y-15254686D01*
X14722381Y-15245162D01*
X14798571Y-15340400D02*
X14798571Y-15473733D01*
X14798571Y-15359448D02*
X14808095Y-15349924D01*
X14827143Y-15340400D01*
X14855714Y-15340400D01*
X14874762Y-15349924D01*
X14884285Y-15368972D01*
X14884285Y-15473733D01*
X15008095Y-15473733D02*
X14989047Y-15464210D01*
X14979523Y-15454686D01*
X14970000Y-15435638D01*
X14970000Y-15378495D01*
X14979523Y-15359448D01*
X14989047Y-15349924D01*
X15008095Y-15340400D01*
X15036666Y-15340400D01*
X15055714Y-15349924D01*
X15065238Y-15359448D01*
X15074762Y-15378495D01*
X15074762Y-15435638D01*
X15065238Y-15454686D01*
X15055714Y-15464210D01*
X15036666Y-15473733D01*
X15008095Y-15473733D01*
X15131904Y-15340400D02*
X15208095Y-15340400D01*
X15160476Y-15273733D02*
X15160476Y-15445162D01*
X15170000Y-15464210D01*
X15189047Y-15473733D01*
X15208095Y-15473733D01*
X15427143Y-15340400D02*
X15427143Y-15540400D01*
X15427143Y-15349924D02*
X15446190Y-15340400D01*
X15484285Y-15340400D01*
X15503333Y-15349924D01*
X15512857Y-15359448D01*
X15522381Y-15378495D01*
X15522381Y-15435638D01*
X15512857Y-15454686D01*
X15503333Y-15464210D01*
X15484285Y-15473733D01*
X15446190Y-15473733D01*
X15427143Y-15464210D01*
X15636666Y-15473733D02*
X15617619Y-15464210D01*
X15608095Y-15445162D01*
X15608095Y-15273733D01*
X15798571Y-15473733D02*
X15798571Y-15368972D01*
X15789047Y-15349924D01*
X15770000Y-15340400D01*
X15731904Y-15340400D01*
X15712857Y-15349924D01*
X15798571Y-15464210D02*
X15779523Y-15473733D01*
X15731904Y-15473733D01*
X15712857Y-15464210D01*
X15703333Y-15445162D01*
X15703333Y-15426114D01*
X15712857Y-15407067D01*
X15731904Y-15397543D01*
X15779523Y-15397543D01*
X15798571Y-15388019D01*
X15865238Y-15340400D02*
X15941428Y-15340400D01*
X15893809Y-15273733D02*
X15893809Y-15445162D01*
X15903333Y-15464210D01*
X15922381Y-15473733D01*
X15941428Y-15473733D01*
X16084285Y-15464210D02*
X16065238Y-15473733D01*
X16027143Y-15473733D01*
X16008095Y-15464210D01*
X15998571Y-15445162D01*
X15998571Y-15368972D01*
X16008095Y-15349924D01*
X16027143Y-15340400D01*
X16065238Y-15340400D01*
X16084285Y-15349924D01*
X16093809Y-15368972D01*
X16093809Y-15388019D01*
X15998571Y-15407067D01*
X16265238Y-15473733D02*
X16265238Y-15273733D01*
X16265238Y-15464210D02*
X16246190Y-15473733D01*
X16208095Y-15473733D01*
X16189047Y-15464210D01*
X16179523Y-15454686D01*
X16170000Y-15435638D01*
X16170000Y-15378495D01*
X16179523Y-15359448D01*
X16189047Y-15349924D01*
X16208095Y-15340400D01*
X16246190Y-15340400D01*
X16265238Y-15349924D01*
X16341428Y-15549924D02*
X16350952Y-15540400D01*
X16370000Y-15511829D01*
X16379523Y-15492781D01*
X16389047Y-15464210D01*
X16398571Y-15416591D01*
X16398571Y-15378495D01*
X16389047Y-15330876D01*
X16379523Y-15302305D01*
X16370000Y-15283257D01*
X16350952Y-15254686D01*
X16341428Y-15245162D01*
M02*
