G04 #@! TF.GenerationSoftware,KiCad,Pcbnew,(6.0.9-0)*
G04 #@! TF.CreationDate,2022-12-15T09:10:18+08:00*
G04 #@! TF.ProjectId,3.1HeatingElement,332e3148-6561-4746-996e-67456c656d65,rev?*
G04 #@! TF.SameCoordinates,Original*
G04 #@! TF.FileFunction,Profile,NP*
%FSLAX46Y46*%
G04 Gerber Fmt 4.6, Leading zero omitted, Abs format (unit mm)*
G04 Created by KiCad (PCBNEW (6.0.9-0)) date 2022-12-15 09:10:18*
%MOMM*%
%LPD*%
G01*
G04 APERTURE LIST*
G04 #@! TA.AperFunction,Profile*
%ADD10C,0.050000*%
G04 #@! TD*
G04 #@! TA.AperFunction,Profile*
%ADD11C,0.150000*%
G04 #@! TD*
G04 #@! TA.AperFunction,Profile*
%ADD12C,0.100000*%
G04 #@! TD*
G04 APERTURE END LIST*
D10*
X147200000Y-109800000D02*
G75*
G03*
X149000000Y-109800000I900000J0D01*
G01*
D11*
X27544400Y-69300000D02*
X29744400Y-69300000D01*
X29744400Y-69300000D02*
X29744400Y-66300000D01*
X29744400Y-66300000D02*
X27544400Y-66300000D01*
X27544400Y-66300000D02*
X27544400Y-69300000D01*
D10*
X147200000Y-66800000D02*
G75*
G03*
X149000000Y-66800000I900000J0D01*
G01*
D12*
X141200000Y-149000000D02*
G75*
G03*
X147200000Y-143000000I0J6000000D01*
G01*
D11*
X65544400Y-99700000D02*
X71744400Y-99700000D01*
X71744400Y-99700000D02*
X71744400Y-95800000D01*
X71744400Y-95800000D02*
X65544400Y-95800000D01*
X65544400Y-95800000D02*
X65544400Y-99700000D01*
D10*
X162944400Y-95400000D02*
X162944400Y-134400000D01*
X129444400Y-81400000D02*
X134444400Y-81400000D01*
X134444400Y-134400000D02*
X134444400Y-95400000D01*
D11*
X171650000Y-64400000D02*
X178550000Y-64400000D01*
X178550000Y-64400000D02*
X178550000Y-60200000D01*
X178550000Y-60200000D02*
X171650000Y-60200000D01*
X171650000Y-60200000D02*
X171650000Y-64400000D01*
D10*
X134444400Y-62400000D02*
X136444400Y-62400000D01*
X282000000Y-149000000D02*
X155000000Y-149000000D01*
D12*
X147200000Y-53000000D02*
G75*
G03*
X141200000Y-47000000I-6000000J0D01*
G01*
D10*
X149000000Y-129200000D02*
G75*
G03*
X147200000Y-129200000I-900000J0D01*
G01*
D11*
X105544400Y-64700000D02*
X112144400Y-64700000D01*
X112144400Y-64700000D02*
X112144400Y-60800000D01*
X112144400Y-60800000D02*
X105544400Y-60800000D01*
X105544400Y-60800000D02*
X105544400Y-64700000D01*
D10*
X149000000Y-85850000D02*
X149000000Y-109800000D01*
D11*
X184600000Y-64400000D02*
X191500000Y-64400000D01*
X191500000Y-64400000D02*
X191500000Y-60200000D01*
X191500000Y-60200000D02*
X184600000Y-60200000D01*
X184600000Y-60200000D02*
X184600000Y-64400000D01*
D10*
X129444400Y-95400000D02*
X129444400Y-81400000D01*
X162944400Y-134400000D02*
X160944400Y-134400000D01*
X288000000Y-53000000D02*
X288000000Y-143000000D01*
X147200000Y-129200000D02*
X147200000Y-143000000D01*
D12*
X155000000Y-47000000D02*
G75*
G03*
X149000000Y-53000000I0J-6000000D01*
G01*
D10*
X138444400Y-95400000D02*
X136444400Y-95400000D01*
X158944400Y-81400000D02*
X160944400Y-81400000D01*
X167944400Y-81400000D02*
X167944400Y-95400000D01*
X8200000Y-53000000D02*
X8200000Y-143000000D01*
D12*
X149000000Y-143000000D02*
G75*
G03*
X155000000Y-149000000I6000000J0D01*
G01*
X14200000Y-47000000D02*
G75*
G03*
X8200000Y-53000000I0J-6000000D01*
G01*
D10*
X136444400Y-62400000D02*
X136444400Y-81400000D01*
D11*
X235100000Y-100000000D02*
X242300000Y-100000000D01*
X242300000Y-100000000D02*
X242300000Y-95500000D01*
X242300000Y-95500000D02*
X235100000Y-95500000D01*
X235100000Y-95500000D02*
X235100000Y-100000000D01*
X238477490Y-116510911D02*
X251677490Y-116510911D01*
X251677490Y-116510911D02*
X251677490Y-102610911D01*
X251677490Y-102610911D02*
X238477490Y-102610911D01*
X238477490Y-102610911D02*
X238477490Y-116510911D01*
D10*
X147200000Y-66800000D02*
X147200000Y-53000000D01*
X14200000Y-47000000D02*
X141200000Y-47000000D01*
X158944400Y-95400000D02*
X158944400Y-81400000D01*
X14200000Y-149000000D02*
X141200000Y-149000000D01*
D11*
X256200000Y-113800000D02*
X262700000Y-113800000D01*
X262700000Y-113800000D02*
X262700000Y-110700000D01*
X262700000Y-110700000D02*
X256200000Y-110700000D01*
X256200000Y-110700000D02*
X256200000Y-113800000D01*
D10*
X134444400Y-95400000D02*
X129444400Y-95400000D01*
X136444400Y-81400000D02*
X138444400Y-81400000D01*
D11*
X44544400Y-59500000D02*
X56944400Y-59500000D01*
X56944400Y-59500000D02*
X56944400Y-74600000D01*
X56944400Y-74600000D02*
X44544400Y-74600000D01*
X44544400Y-74600000D02*
X44544400Y-59500000D01*
D12*
X288000000Y-53000000D02*
G75*
G03*
X282000000Y-47000000I-6000000J0D01*
G01*
D11*
X34444400Y-66600000D02*
X41144400Y-66600000D01*
X41144400Y-66600000D02*
X41144400Y-63000000D01*
X41144400Y-63000000D02*
X34444400Y-63000000D01*
X34444400Y-63000000D02*
X34444400Y-66600000D01*
D10*
X162944400Y-62400000D02*
X162944400Y-81400000D01*
X160944400Y-95400000D02*
X158944400Y-95400000D01*
X149000000Y-53000000D02*
X149000000Y-66800000D01*
X167944400Y-95400000D02*
X162944400Y-95400000D01*
X134444400Y-81400000D02*
X134444400Y-62400000D01*
X136444400Y-95400000D02*
X136444400Y-134400000D01*
D12*
X8200000Y-143000000D02*
G75*
G03*
X14200000Y-149000000I6000000J0D01*
G01*
D10*
X160944400Y-81400000D02*
X160944400Y-62400000D01*
D12*
X282000000Y-149000000D02*
G75*
G03*
X288000000Y-143000000I0J6000000D01*
G01*
D10*
X160944400Y-62400000D02*
X162944400Y-62400000D01*
X160944400Y-134400000D02*
X160944400Y-95400000D01*
X149000000Y-129200000D02*
X149000000Y-143000000D01*
D11*
X118544400Y-64700000D02*
X125144400Y-64700000D01*
X125144400Y-64700000D02*
X125144400Y-60800000D01*
X125144400Y-60800000D02*
X118544400Y-60800000D01*
X118544400Y-60800000D02*
X118544400Y-64700000D01*
D10*
X138444400Y-81400000D02*
X138444400Y-95400000D01*
X162944400Y-81400000D02*
X167944400Y-81400000D01*
X149000000Y-85850000D02*
G75*
G03*
X147200000Y-85850000I-900000J0D01*
G01*
D11*
X266100000Y-112100000D02*
X268500000Y-112100000D01*
X268500000Y-112100000D02*
X268500000Y-109300000D01*
X268500000Y-109300000D02*
X266100000Y-109300000D01*
X266100000Y-109300000D02*
X266100000Y-112100000D01*
D10*
X147200000Y-85850000D02*
X147200000Y-109800000D01*
X282000000Y-47000000D02*
X155000000Y-47000000D01*
X136444400Y-134400000D02*
X134444400Y-134400000D01*
M02*
