M48
; DRILL file {KiCad (6.0.9-0)} date Thursday, 15 December 2022 at 09:10:33 am
; FORMAT={-:-/ absolute / metric / decimal}
; #@! TF.CreationDate,2022-12-15T09:10:33+08:00
; #@! TF.GenerationSoftware,Kicad,Pcbnew,(6.0.9-0)
; #@! TF.FileFunction,NonPlated,1,2,NPTH
FMAT,2
METRIC
; #@! TA.AperFunction,NonPlated,NPTH,ComponentDrill
T1C0.500
; #@! TA.AperFunction,NonPlated,NPTH,ComponentDrill
T2C3.000
%
G90
G05
T1
X147.144Y-67.85
X147.144Y-68.65
X147.144Y-69.45
X147.144Y-70.25
X147.144Y-71.05
X147.144Y-71.85
X147.144Y-72.6
X147.144Y-73.4
X147.144Y-74.2
X147.144Y-75.0
X147.144Y-75.8
X147.144Y-76.6
X147.144Y-77.4
X147.144Y-78.2
X147.144Y-79.0
X147.144Y-79.8
X147.144Y-80.6
X147.144Y-81.4
X147.144Y-82.2
X147.144Y-83.0
X147.144Y-83.8
X147.144Y-84.6
X147.144Y-111.2
X147.144Y-112.0
X147.144Y-112.8
X147.144Y-113.6
X147.144Y-114.4
X147.144Y-115.2
X147.144Y-115.95
X147.144Y-116.75
X147.144Y-117.55
X147.144Y-118.35
X147.144Y-119.15
X147.144Y-119.95
X147.144Y-120.75
X147.144Y-121.55
X147.144Y-122.35
X147.144Y-123.15
X147.144Y-123.95
X147.144Y-124.75
X147.144Y-125.55
X147.144Y-126.35
X147.144Y-127.15
X147.144Y-127.95
X149.094Y-67.85
X149.094Y-68.65
X149.094Y-69.45
X149.094Y-70.25
X149.094Y-71.05
X149.094Y-71.85
X149.094Y-72.6
X149.094Y-73.4
X149.094Y-74.2
X149.094Y-75.0
X149.094Y-75.8
X149.094Y-76.6
X149.094Y-77.4
X149.094Y-78.2
X149.094Y-79.0
X149.094Y-79.8
X149.094Y-80.6
X149.094Y-81.4
X149.094Y-82.2
X149.094Y-83.0
X149.094Y-83.8
X149.094Y-84.6
X149.094Y-111.2
X149.094Y-112.0
X149.094Y-112.8
X149.094Y-113.6
X149.094Y-114.4
X149.094Y-115.2
X149.094Y-115.95
X149.094Y-116.75
X149.094Y-117.55
X149.094Y-118.35
X149.094Y-119.15
X149.094Y-119.95
X149.094Y-120.75
X149.094Y-121.55
X149.094Y-122.35
X149.094Y-123.15
X149.094Y-123.95
X149.094Y-124.75
X149.094Y-125.55
X149.094Y-126.35
X149.094Y-127.15
X149.094Y-127.95
T2
X14.2Y-53.0
X14.2Y-143.0
X141.2Y-53.0
X141.2Y-143.0
X155.0Y-53.0
X155.0Y-143.0
X282.0Y-53.0
X282.0Y-143.0
T0
M30
