%TF.GenerationSoftware,KiCad,Pcbnew,(6.0.9-0)*%
%TF.CreationDate,2022-12-15T09:10:32+08:00*%
%TF.ProjectId,3.1HeatingElement,332e3148-6561-4746-996e-67456c656d65,rev?*%
%TF.SameCoordinates,Original*%
%TF.FileFunction,Drillmap*%
%TF.FilePolarity,Positive*%
%FSLAX45Y45*%
G04 Gerber Fmt 4.5, Leading zero omitted, Abs format (unit mm)*
G04 Created by KiCad (PCBNEW (6.0.9-0)) date 2022-12-15 09:10:32*
%MOMM*%
%LPD*%
G01*
G04 APERTURE LIST*
%ADD10C,0.050000*%
%ADD11C,0.150000*%
%ADD12C,0.100000*%
%ADD13C,0.200000*%
%ADD14C,0.300000*%
G04 APERTURE END LIST*
D10*
X14720000Y-10980000D02*
G75*
G03*
X14900000Y-10980000I90000J0D01*
G01*
D11*
X2754440Y-6930000D02*
X2974440Y-6930000D01*
X2974440Y-6930000D02*
X2974440Y-6630000D01*
X2974440Y-6630000D02*
X2754440Y-6630000D01*
X2754440Y-6630000D02*
X2754440Y-6930000D01*
D10*
X14720000Y-6680000D02*
G75*
G03*
X14900000Y-6680000I90000J0D01*
G01*
D12*
X14120000Y-14900000D02*
G75*
G03*
X14720000Y-14300000I0J600000D01*
G01*
D11*
X6554440Y-9970000D02*
X7174440Y-9970000D01*
X7174440Y-9970000D02*
X7174440Y-9580000D01*
X7174440Y-9580000D02*
X6554440Y-9580000D01*
X6554440Y-9580000D02*
X6554440Y-9970000D01*
D10*
X16294440Y-9540000D02*
X16294440Y-13440000D01*
X12944440Y-8140000D02*
X13444440Y-8140000D01*
X13444440Y-13440000D02*
X13444440Y-9540000D01*
D11*
X17165000Y-6440000D02*
X17855000Y-6440000D01*
X17855000Y-6440000D02*
X17855000Y-6020000D01*
X17855000Y-6020000D02*
X17165000Y-6020000D01*
X17165000Y-6020000D02*
X17165000Y-6440000D01*
D10*
X13444440Y-6240000D02*
X13644440Y-6240000D01*
X28200000Y-14900000D02*
X15500000Y-14900000D01*
D12*
X14720000Y-5300000D02*
G75*
G03*
X14120000Y-4700000I-600000J0D01*
G01*
D10*
X14900000Y-12920000D02*
G75*
G03*
X14720000Y-12920000I-90000J0D01*
G01*
D11*
X10554440Y-6470000D02*
X11214440Y-6470000D01*
X11214440Y-6470000D02*
X11214440Y-6080000D01*
X11214440Y-6080000D02*
X10554440Y-6080000D01*
X10554440Y-6080000D02*
X10554440Y-6470000D01*
D10*
X14900000Y-8585000D02*
X14900000Y-10980000D01*
D11*
X18460000Y-6440000D02*
X19150000Y-6440000D01*
X19150000Y-6440000D02*
X19150000Y-6020000D01*
X19150000Y-6020000D02*
X18460000Y-6020000D01*
X18460000Y-6020000D02*
X18460000Y-6440000D01*
D10*
X12944440Y-9540000D02*
X12944440Y-8140000D01*
X16294440Y-13440000D02*
X16094440Y-13440000D01*
X28800000Y-5300000D02*
X28800000Y-14300000D01*
X14720000Y-12920000D02*
X14720000Y-14300000D01*
D12*
X15500000Y-4700000D02*
G75*
G03*
X14900000Y-5300000I0J-600000D01*
G01*
D10*
X13844440Y-9540000D02*
X13644440Y-9540000D01*
X15894440Y-8140000D02*
X16094440Y-8140000D01*
X16794440Y-8140000D02*
X16794440Y-9540000D01*
X820000Y-5300000D02*
X820000Y-14300000D01*
D12*
X14900000Y-14300000D02*
G75*
G03*
X15500000Y-14900000I600000J0D01*
G01*
X1420000Y-4700000D02*
G75*
G03*
X820000Y-5300000I0J-600000D01*
G01*
D10*
X13644440Y-6240000D02*
X13644440Y-8140000D01*
D11*
X23510000Y-10000000D02*
X24230000Y-10000000D01*
X24230000Y-10000000D02*
X24230000Y-9550000D01*
X24230000Y-9550000D02*
X23510000Y-9550000D01*
X23510000Y-9550000D02*
X23510000Y-10000000D01*
X23847749Y-11651091D02*
X25167749Y-11651091D01*
X25167749Y-11651091D02*
X25167749Y-10261091D01*
X25167749Y-10261091D02*
X23847749Y-10261091D01*
X23847749Y-10261091D02*
X23847749Y-11651091D01*
D10*
X14720000Y-6680000D02*
X14720000Y-5300000D01*
X1420000Y-4700000D02*
X14120000Y-4700000D01*
X15894440Y-9540000D02*
X15894440Y-8140000D01*
X1420000Y-14900000D02*
X14120000Y-14900000D01*
D11*
X25620000Y-11380000D02*
X26270000Y-11380000D01*
X26270000Y-11380000D02*
X26270000Y-11070000D01*
X26270000Y-11070000D02*
X25620000Y-11070000D01*
X25620000Y-11070000D02*
X25620000Y-11380000D01*
D10*
X13444440Y-9540000D02*
X12944440Y-9540000D01*
X13644440Y-8140000D02*
X13844440Y-8140000D01*
D11*
X4454440Y-5950000D02*
X5694440Y-5950000D01*
X5694440Y-5950000D02*
X5694440Y-7460000D01*
X5694440Y-7460000D02*
X4454440Y-7460000D01*
X4454440Y-7460000D02*
X4454440Y-5950000D01*
D12*
X28800000Y-5300000D02*
G75*
G03*
X28200000Y-4700000I-600000J0D01*
G01*
D11*
X3444440Y-6660000D02*
X4114440Y-6660000D01*
X4114440Y-6660000D02*
X4114440Y-6300000D01*
X4114440Y-6300000D02*
X3444440Y-6300000D01*
X3444440Y-6300000D02*
X3444440Y-6660000D01*
D10*
X16294440Y-6240000D02*
X16294440Y-8140000D01*
X16094440Y-9540000D02*
X15894440Y-9540000D01*
X14900000Y-5300000D02*
X14900000Y-6680000D01*
X16794440Y-9540000D02*
X16294440Y-9540000D01*
X13444440Y-8140000D02*
X13444440Y-6240000D01*
X13644440Y-9540000D02*
X13644440Y-13440000D01*
D12*
X820000Y-14300000D02*
G75*
G03*
X1420000Y-14900000I600000J0D01*
G01*
D10*
X16094440Y-8140000D02*
X16094440Y-6240000D01*
D12*
X28200000Y-14900000D02*
G75*
G03*
X28800000Y-14300000I0J600000D01*
G01*
D10*
X16094440Y-6240000D02*
X16294440Y-6240000D01*
X16094440Y-13440000D02*
X16094440Y-9540000D01*
X14900000Y-12920000D02*
X14900000Y-14300000D01*
D11*
X11854440Y-6470000D02*
X12514440Y-6470000D01*
X12514440Y-6470000D02*
X12514440Y-6080000D01*
X12514440Y-6080000D02*
X11854440Y-6080000D01*
X11854440Y-6080000D02*
X11854440Y-6470000D01*
D10*
X13844440Y-8140000D02*
X13844440Y-9540000D01*
X16294440Y-8140000D02*
X16794440Y-8140000D01*
X14900000Y-8585000D02*
G75*
G03*
X14720000Y-8585000I-90000J0D01*
G01*
D11*
X26610000Y-11210000D02*
X26850000Y-11210000D01*
X26850000Y-11210000D02*
X26850000Y-10930000D01*
X26850000Y-10930000D02*
X26610000Y-10930000D01*
X26610000Y-10930000D02*
X26610000Y-11210000D01*
D10*
X14720000Y-8585000D02*
X14720000Y-10980000D01*
X28200000Y-4700000D02*
X15500000Y-4700000D01*
X13644440Y-13440000D02*
X13444440Y-13440000D01*
D13*
D10*
X14689440Y-6760000D02*
X14739440Y-6810000D01*
X14739440Y-6760000D02*
X14689440Y-6810000D01*
X14689440Y-6840000D02*
X14739440Y-6890000D01*
X14739440Y-6840000D02*
X14689440Y-6890000D01*
X14689440Y-6920000D02*
X14739440Y-6970000D01*
X14739440Y-6920000D02*
X14689440Y-6970000D01*
X14689440Y-7000000D02*
X14739440Y-7050000D01*
X14739440Y-7000000D02*
X14689440Y-7050000D01*
X14689440Y-7080000D02*
X14739440Y-7130000D01*
X14739440Y-7080000D02*
X14689440Y-7130000D01*
X14689440Y-7160000D02*
X14739440Y-7210000D01*
X14739440Y-7160000D02*
X14689440Y-7210000D01*
X14689440Y-7235000D02*
X14739440Y-7285000D01*
X14739440Y-7235000D02*
X14689440Y-7285000D01*
X14689440Y-7315000D02*
X14739440Y-7365000D01*
X14739440Y-7315000D02*
X14689440Y-7365000D01*
X14689440Y-7395000D02*
X14739440Y-7445000D01*
X14739440Y-7395000D02*
X14689440Y-7445000D01*
X14689440Y-7475000D02*
X14739440Y-7525000D01*
X14739440Y-7475000D02*
X14689440Y-7525000D01*
X14689440Y-7555000D02*
X14739440Y-7605000D01*
X14739440Y-7555000D02*
X14689440Y-7605000D01*
X14689440Y-7635000D02*
X14739440Y-7685000D01*
X14739440Y-7635000D02*
X14689440Y-7685000D01*
X14689440Y-7715000D02*
X14739440Y-7765000D01*
X14739440Y-7715000D02*
X14689440Y-7765000D01*
X14689440Y-7795000D02*
X14739440Y-7845000D01*
X14739440Y-7795000D02*
X14689440Y-7845000D01*
X14689440Y-7875000D02*
X14739440Y-7925000D01*
X14739440Y-7875000D02*
X14689440Y-7925000D01*
X14689440Y-7955000D02*
X14739440Y-8005000D01*
X14739440Y-7955000D02*
X14689440Y-8005000D01*
X14689440Y-8035000D02*
X14739440Y-8085000D01*
X14739440Y-8035000D02*
X14689440Y-8085000D01*
X14689440Y-8115000D02*
X14739440Y-8165000D01*
X14739440Y-8115000D02*
X14689440Y-8165000D01*
X14689440Y-8195000D02*
X14739440Y-8245000D01*
X14739440Y-8195000D02*
X14689440Y-8245000D01*
X14689440Y-8275000D02*
X14739440Y-8325000D01*
X14739440Y-8275000D02*
X14689440Y-8325000D01*
X14689440Y-8355000D02*
X14739440Y-8405000D01*
X14739440Y-8355000D02*
X14689440Y-8405000D01*
X14689440Y-8435000D02*
X14739440Y-8485000D01*
X14739440Y-8435000D02*
X14689440Y-8485000D01*
X14689440Y-11095000D02*
X14739440Y-11145000D01*
X14739440Y-11095000D02*
X14689440Y-11145000D01*
X14689440Y-11175000D02*
X14739440Y-11225000D01*
X14739440Y-11175000D02*
X14689440Y-11225000D01*
X14689440Y-11255000D02*
X14739440Y-11305000D01*
X14739440Y-11255000D02*
X14689440Y-11305000D01*
X14689440Y-11335000D02*
X14739440Y-11385000D01*
X14739440Y-11335000D02*
X14689440Y-11385000D01*
X14689440Y-11415000D02*
X14739440Y-11465000D01*
X14739440Y-11415000D02*
X14689440Y-11465000D01*
X14689440Y-11495000D02*
X14739440Y-11545000D01*
X14739440Y-11495000D02*
X14689440Y-11545000D01*
X14689440Y-11570000D02*
X14739440Y-11620000D01*
X14739440Y-11570000D02*
X14689440Y-11620000D01*
X14689440Y-11650000D02*
X14739440Y-11700000D01*
X14739440Y-11650000D02*
X14689440Y-11700000D01*
X14689440Y-11730000D02*
X14739440Y-11780000D01*
X14739440Y-11730000D02*
X14689440Y-11780000D01*
X14689440Y-11810000D02*
X14739440Y-11860000D01*
X14739440Y-11810000D02*
X14689440Y-11860000D01*
X14689440Y-11890000D02*
X14739440Y-11940000D01*
X14739440Y-11890000D02*
X14689440Y-11940000D01*
X14689440Y-11970000D02*
X14739440Y-12020000D01*
X14739440Y-11970000D02*
X14689440Y-12020000D01*
X14689440Y-12050000D02*
X14739440Y-12100000D01*
X14739440Y-12050000D02*
X14689440Y-12100000D01*
X14689440Y-12130000D02*
X14739440Y-12180000D01*
X14739440Y-12130000D02*
X14689440Y-12180000D01*
X14689440Y-12210000D02*
X14739440Y-12260000D01*
X14739440Y-12210000D02*
X14689440Y-12260000D01*
X14689440Y-12290000D02*
X14739440Y-12340000D01*
X14739440Y-12290000D02*
X14689440Y-12340000D01*
X14689440Y-12370000D02*
X14739440Y-12420000D01*
X14739440Y-12370000D02*
X14689440Y-12420000D01*
X14689440Y-12450000D02*
X14739440Y-12500000D01*
X14739440Y-12450000D02*
X14689440Y-12500000D01*
X14689440Y-12530000D02*
X14739440Y-12580000D01*
X14739440Y-12530000D02*
X14689440Y-12580000D01*
X14689440Y-12610000D02*
X14739440Y-12660000D01*
X14739440Y-12610000D02*
X14689440Y-12660000D01*
X14689440Y-12690000D02*
X14739440Y-12740000D01*
X14739440Y-12690000D02*
X14689440Y-12740000D01*
X14689440Y-12770000D02*
X14739440Y-12820000D01*
X14739440Y-12770000D02*
X14689440Y-12820000D01*
X14884440Y-6760000D02*
X14934440Y-6810000D01*
X14934440Y-6760000D02*
X14884440Y-6810000D01*
X14884440Y-6840000D02*
X14934440Y-6890000D01*
X14934440Y-6840000D02*
X14884440Y-6890000D01*
X14884440Y-6920000D02*
X14934440Y-6970000D01*
X14934440Y-6920000D02*
X14884440Y-6970000D01*
X14884440Y-7000000D02*
X14934440Y-7050000D01*
X14934440Y-7000000D02*
X14884440Y-7050000D01*
X14884440Y-7080000D02*
X14934440Y-7130000D01*
X14934440Y-7080000D02*
X14884440Y-7130000D01*
X14884440Y-7160000D02*
X14934440Y-7210000D01*
X14934440Y-7160000D02*
X14884440Y-7210000D01*
X14884440Y-7235000D02*
X14934440Y-7285000D01*
X14934440Y-7235000D02*
X14884440Y-7285000D01*
X14884440Y-7315000D02*
X14934440Y-7365000D01*
X14934440Y-7315000D02*
X14884440Y-7365000D01*
X14884440Y-7395000D02*
X14934440Y-7445000D01*
X14934440Y-7395000D02*
X14884440Y-7445000D01*
X14884440Y-7475000D02*
X14934440Y-7525000D01*
X14934440Y-7475000D02*
X14884440Y-7525000D01*
X14884440Y-7555000D02*
X14934440Y-7605000D01*
X14934440Y-7555000D02*
X14884440Y-7605000D01*
X14884440Y-7635000D02*
X14934440Y-7685000D01*
X14934440Y-7635000D02*
X14884440Y-7685000D01*
X14884440Y-7715000D02*
X14934440Y-7765000D01*
X14934440Y-7715000D02*
X14884440Y-7765000D01*
X14884440Y-7795000D02*
X14934440Y-7845000D01*
X14934440Y-7795000D02*
X14884440Y-7845000D01*
X14884440Y-7875000D02*
X14934440Y-7925000D01*
X14934440Y-7875000D02*
X14884440Y-7925000D01*
X14884440Y-7955000D02*
X14934440Y-8005000D01*
X14934440Y-7955000D02*
X14884440Y-8005000D01*
X14884440Y-8035000D02*
X14934440Y-8085000D01*
X14934440Y-8035000D02*
X14884440Y-8085000D01*
X14884440Y-8115000D02*
X14934440Y-8165000D01*
X14934440Y-8115000D02*
X14884440Y-8165000D01*
X14884440Y-8195000D02*
X14934440Y-8245000D01*
X14934440Y-8195000D02*
X14884440Y-8245000D01*
X14884440Y-8275000D02*
X14934440Y-8325000D01*
X14934440Y-8275000D02*
X14884440Y-8325000D01*
X14884440Y-8355000D02*
X14934440Y-8405000D01*
X14934440Y-8355000D02*
X14884440Y-8405000D01*
X14884440Y-8435000D02*
X14934440Y-8485000D01*
X14934440Y-8435000D02*
X14884440Y-8485000D01*
X14884440Y-11095000D02*
X14934440Y-11145000D01*
X14934440Y-11095000D02*
X14884440Y-11145000D01*
X14884440Y-11175000D02*
X14934440Y-11225000D01*
X14934440Y-11175000D02*
X14884440Y-11225000D01*
X14884440Y-11255000D02*
X14934440Y-11305000D01*
X14934440Y-11255000D02*
X14884440Y-11305000D01*
X14884440Y-11335000D02*
X14934440Y-11385000D01*
X14934440Y-11335000D02*
X14884440Y-11385000D01*
X14884440Y-11415000D02*
X14934440Y-11465000D01*
X14934440Y-11415000D02*
X14884440Y-11465000D01*
X14884440Y-11495000D02*
X14934440Y-11545000D01*
X14934440Y-11495000D02*
X14884440Y-11545000D01*
X14884440Y-11570000D02*
X14934440Y-11620000D01*
X14934440Y-11570000D02*
X14884440Y-11620000D01*
X14884440Y-11650000D02*
X14934440Y-11700000D01*
X14934440Y-11650000D02*
X14884440Y-11700000D01*
X14884440Y-11730000D02*
X14934440Y-11780000D01*
X14934440Y-11730000D02*
X14884440Y-11780000D01*
X14884440Y-11810000D02*
X14934440Y-11860000D01*
X14934440Y-11810000D02*
X14884440Y-11860000D01*
X14884440Y-11890000D02*
X14934440Y-11940000D01*
X14934440Y-11890000D02*
X14884440Y-11940000D01*
X14884440Y-11970000D02*
X14934440Y-12020000D01*
X14934440Y-11970000D02*
X14884440Y-12020000D01*
X14884440Y-12050000D02*
X14934440Y-12100000D01*
X14934440Y-12050000D02*
X14884440Y-12100000D01*
X14884440Y-12130000D02*
X14934440Y-12180000D01*
X14934440Y-12130000D02*
X14884440Y-12180000D01*
X14884440Y-12210000D02*
X14934440Y-12260000D01*
X14934440Y-12210000D02*
X14884440Y-12260000D01*
X14884440Y-12290000D02*
X14934440Y-12340000D01*
X14934440Y-12290000D02*
X14884440Y-12340000D01*
X14884440Y-12370000D02*
X14934440Y-12420000D01*
X14934440Y-12370000D02*
X14884440Y-12420000D01*
X14884440Y-12450000D02*
X14934440Y-12500000D01*
X14934440Y-12450000D02*
X14884440Y-12500000D01*
X14884440Y-12530000D02*
X14934440Y-12580000D01*
X14934440Y-12530000D02*
X14884440Y-12580000D01*
X14884440Y-12610000D02*
X14934440Y-12660000D01*
X14934440Y-12610000D02*
X14884440Y-12660000D01*
X14884440Y-12690000D02*
X14934440Y-12740000D01*
X14934440Y-12690000D02*
X14884440Y-12740000D01*
X14884440Y-12770000D02*
X14934440Y-12820000D01*
X14934440Y-12770000D02*
X14884440Y-12820000D01*
D14*
X1570000Y-5300000D02*
G75*
G03*
X1570000Y-5300000I-150000J0D01*
G01*
X1570000Y-14300000D02*
G75*
G03*
X1570000Y-14300000I-150000J0D01*
G01*
X14270000Y-5300000D02*
G75*
G03*
X14270000Y-5300000I-150000J0D01*
G01*
X14270000Y-14300000D02*
G75*
G03*
X14270000Y-14300000I-150000J0D01*
G01*
X15650000Y-5300000D02*
G75*
G03*
X15650000Y-5300000I-150000J0D01*
G01*
X15650000Y-14300000D02*
G75*
G03*
X15650000Y-14300000I-150000J0D01*
G01*
X28350000Y-5300000D02*
G75*
G03*
X28350000Y-5300000I-150000J0D01*
G01*
X28350000Y-14300000D02*
G75*
G03*
X28350000Y-14300000I-150000J0D01*
G01*
D13*
X1072619Y-15215476D02*
X1072619Y-15015476D01*
X1120238Y-15015476D01*
X1148810Y-15025000D01*
X1167857Y-15044048D01*
X1177381Y-15063095D01*
X1186905Y-15101190D01*
X1186905Y-15129762D01*
X1177381Y-15167857D01*
X1167857Y-15186905D01*
X1148810Y-15205952D01*
X1120238Y-15215476D01*
X1072619Y-15215476D01*
X1272619Y-15215476D02*
X1272619Y-15082143D01*
X1272619Y-15120238D02*
X1282143Y-15101190D01*
X1291667Y-15091667D01*
X1310714Y-15082143D01*
X1329762Y-15082143D01*
X1396429Y-15215476D02*
X1396429Y-15082143D01*
X1396429Y-15015476D02*
X1386905Y-15025000D01*
X1396429Y-15034524D01*
X1405952Y-15025000D01*
X1396429Y-15015476D01*
X1396429Y-15034524D01*
X1520238Y-15215476D02*
X1501190Y-15205952D01*
X1491667Y-15186905D01*
X1491667Y-15015476D01*
X1625000Y-15215476D02*
X1605952Y-15205952D01*
X1596428Y-15186905D01*
X1596428Y-15015476D01*
X1853571Y-15215476D02*
X1853571Y-15015476D01*
X1920238Y-15158333D01*
X1986905Y-15015476D01*
X1986905Y-15215476D01*
X2167857Y-15215476D02*
X2167857Y-15110714D01*
X2158333Y-15091667D01*
X2139286Y-15082143D01*
X2101190Y-15082143D01*
X2082143Y-15091667D01*
X2167857Y-15205952D02*
X2148810Y-15215476D01*
X2101190Y-15215476D01*
X2082143Y-15205952D01*
X2072619Y-15186905D01*
X2072619Y-15167857D01*
X2082143Y-15148809D01*
X2101190Y-15139286D01*
X2148810Y-15139286D01*
X2167857Y-15129762D01*
X2263095Y-15082143D02*
X2263095Y-15282143D01*
X2263095Y-15091667D02*
X2282143Y-15082143D01*
X2320238Y-15082143D01*
X2339286Y-15091667D01*
X2348810Y-15101190D01*
X2358333Y-15120238D01*
X2358333Y-15177381D01*
X2348810Y-15196428D01*
X2339286Y-15205952D01*
X2320238Y-15215476D01*
X2282143Y-15215476D01*
X2263095Y-15205952D01*
X2444048Y-15196428D02*
X2453571Y-15205952D01*
X2444048Y-15215476D01*
X2434524Y-15205952D01*
X2444048Y-15196428D01*
X2444048Y-15215476D01*
X2444048Y-15091667D02*
X2453571Y-15101190D01*
X2444048Y-15110714D01*
X2434524Y-15101190D01*
X2444048Y-15091667D01*
X2444048Y-15110714D01*
D10*
X765000Y-15520000D02*
X815000Y-15570000D01*
X815000Y-15520000D02*
X765000Y-15570000D01*
D13*
X1110714Y-15435476D02*
X1129762Y-15435476D01*
X1148810Y-15445000D01*
X1158333Y-15454524D01*
X1167857Y-15473571D01*
X1177381Y-15511667D01*
X1177381Y-15559286D01*
X1167857Y-15597381D01*
X1158333Y-15616428D01*
X1148810Y-15625952D01*
X1129762Y-15635476D01*
X1110714Y-15635476D01*
X1091667Y-15625952D01*
X1082143Y-15616428D01*
X1072619Y-15597381D01*
X1063095Y-15559286D01*
X1063095Y-15511667D01*
X1072619Y-15473571D01*
X1082143Y-15454524D01*
X1091667Y-15445000D01*
X1110714Y-15435476D01*
X1263095Y-15616428D02*
X1272619Y-15625952D01*
X1263095Y-15635476D01*
X1253571Y-15625952D01*
X1263095Y-15616428D01*
X1263095Y-15635476D01*
X1453571Y-15435476D02*
X1358333Y-15435476D01*
X1348810Y-15530714D01*
X1358333Y-15521190D01*
X1377381Y-15511667D01*
X1425000Y-15511667D01*
X1444048Y-15521190D01*
X1453571Y-15530714D01*
X1463095Y-15549762D01*
X1463095Y-15597381D01*
X1453571Y-15616428D01*
X1444048Y-15625952D01*
X1425000Y-15635476D01*
X1377381Y-15635476D01*
X1358333Y-15625952D01*
X1348810Y-15616428D01*
X1586905Y-15435476D02*
X1605952Y-15435476D01*
X1625000Y-15445000D01*
X1634524Y-15454524D01*
X1644048Y-15473571D01*
X1653571Y-15511667D01*
X1653571Y-15559286D01*
X1644048Y-15597381D01*
X1634524Y-15616428D01*
X1625000Y-15625952D01*
X1605952Y-15635476D01*
X1586905Y-15635476D01*
X1567857Y-15625952D01*
X1558333Y-15616428D01*
X1548809Y-15597381D01*
X1539286Y-15559286D01*
X1539286Y-15511667D01*
X1548809Y-15473571D01*
X1558333Y-15454524D01*
X1567857Y-15445000D01*
X1586905Y-15435476D01*
X1777381Y-15435476D02*
X1796428Y-15435476D01*
X1815476Y-15445000D01*
X1825000Y-15454524D01*
X1834524Y-15473571D01*
X1844048Y-15511667D01*
X1844048Y-15559286D01*
X1834524Y-15597381D01*
X1825000Y-15616428D01*
X1815476Y-15625952D01*
X1796428Y-15635476D01*
X1777381Y-15635476D01*
X1758333Y-15625952D01*
X1748809Y-15616428D01*
X1739286Y-15597381D01*
X1729762Y-15559286D01*
X1729762Y-15511667D01*
X1739286Y-15473571D01*
X1748809Y-15454524D01*
X1758333Y-15445000D01*
X1777381Y-15435476D01*
X1929762Y-15635476D02*
X1929762Y-15502143D01*
X1929762Y-15521190D02*
X1939286Y-15511667D01*
X1958333Y-15502143D01*
X1986905Y-15502143D01*
X2005952Y-15511667D01*
X2015476Y-15530714D01*
X2015476Y-15635476D01*
X2015476Y-15530714D02*
X2025000Y-15511667D01*
X2044048Y-15502143D01*
X2072619Y-15502143D01*
X2091667Y-15511667D01*
X2101190Y-15530714D01*
X2101190Y-15635476D01*
X2196429Y-15635476D02*
X2196429Y-15502143D01*
X2196429Y-15521190D02*
X2205952Y-15511667D01*
X2225000Y-15502143D01*
X2253571Y-15502143D01*
X2272619Y-15511667D01*
X2282143Y-15530714D01*
X2282143Y-15635476D01*
X2282143Y-15530714D02*
X2291667Y-15511667D01*
X2310714Y-15502143D01*
X2339286Y-15502143D01*
X2358333Y-15511667D01*
X2367857Y-15530714D01*
X2367857Y-15635476D01*
X2758333Y-15425952D02*
X2586905Y-15683095D01*
X3015476Y-15435476D02*
X3034524Y-15435476D01*
X3053571Y-15445000D01*
X3063095Y-15454524D01*
X3072619Y-15473571D01*
X3082143Y-15511667D01*
X3082143Y-15559286D01*
X3072619Y-15597381D01*
X3063095Y-15616428D01*
X3053571Y-15625952D01*
X3034524Y-15635476D01*
X3015476Y-15635476D01*
X2996428Y-15625952D01*
X2986905Y-15616428D01*
X2977381Y-15597381D01*
X2967857Y-15559286D01*
X2967857Y-15511667D01*
X2977381Y-15473571D01*
X2986905Y-15454524D01*
X2996428Y-15445000D01*
X3015476Y-15435476D01*
X3167857Y-15616428D02*
X3177381Y-15625952D01*
X3167857Y-15635476D01*
X3158333Y-15625952D01*
X3167857Y-15616428D01*
X3167857Y-15635476D01*
X3301190Y-15435476D02*
X3320238Y-15435476D01*
X3339286Y-15445000D01*
X3348809Y-15454524D01*
X3358333Y-15473571D01*
X3367857Y-15511667D01*
X3367857Y-15559286D01*
X3358333Y-15597381D01*
X3348809Y-15616428D01*
X3339286Y-15625952D01*
X3320238Y-15635476D01*
X3301190Y-15635476D01*
X3282143Y-15625952D01*
X3272619Y-15616428D01*
X3263095Y-15597381D01*
X3253571Y-15559286D01*
X3253571Y-15511667D01*
X3263095Y-15473571D01*
X3272619Y-15454524D01*
X3282143Y-15445000D01*
X3301190Y-15435476D01*
X3558333Y-15635476D02*
X3444048Y-15635476D01*
X3501190Y-15635476D02*
X3501190Y-15435476D01*
X3482143Y-15464048D01*
X3463095Y-15483095D01*
X3444048Y-15492619D01*
X3653571Y-15635476D02*
X3691667Y-15635476D01*
X3710714Y-15625952D01*
X3720238Y-15616428D01*
X3739286Y-15587857D01*
X3748809Y-15549762D01*
X3748809Y-15473571D01*
X3739286Y-15454524D01*
X3729762Y-15445000D01*
X3710714Y-15435476D01*
X3672619Y-15435476D01*
X3653571Y-15445000D01*
X3644048Y-15454524D01*
X3634524Y-15473571D01*
X3634524Y-15521190D01*
X3644048Y-15540238D01*
X3653571Y-15549762D01*
X3672619Y-15559286D01*
X3710714Y-15559286D01*
X3729762Y-15549762D01*
X3739286Y-15540238D01*
X3748809Y-15521190D01*
X3815476Y-15435476D02*
X3948809Y-15435476D01*
X3863095Y-15635476D01*
X4015476Y-15435476D02*
X4015476Y-15473571D01*
X4091667Y-15435476D02*
X4091667Y-15473571D01*
X4386905Y-15711667D02*
X4377381Y-15702143D01*
X4358333Y-15673571D01*
X4348810Y-15654524D01*
X4339286Y-15625952D01*
X4329762Y-15578333D01*
X4329762Y-15540238D01*
X4339286Y-15492619D01*
X4348810Y-15464048D01*
X4358333Y-15445000D01*
X4377381Y-15416428D01*
X4386905Y-15406905D01*
X4491667Y-15521190D02*
X4472619Y-15511667D01*
X4463095Y-15502143D01*
X4453571Y-15483095D01*
X4453571Y-15473571D01*
X4463095Y-15454524D01*
X4472619Y-15445000D01*
X4491667Y-15435476D01*
X4529762Y-15435476D01*
X4548810Y-15445000D01*
X4558333Y-15454524D01*
X4567857Y-15473571D01*
X4567857Y-15483095D01*
X4558333Y-15502143D01*
X4548810Y-15511667D01*
X4529762Y-15521190D01*
X4491667Y-15521190D01*
X4472619Y-15530714D01*
X4463095Y-15540238D01*
X4453571Y-15559286D01*
X4453571Y-15597381D01*
X4463095Y-15616428D01*
X4472619Y-15625952D01*
X4491667Y-15635476D01*
X4529762Y-15635476D01*
X4548810Y-15625952D01*
X4558333Y-15616428D01*
X4567857Y-15597381D01*
X4567857Y-15559286D01*
X4558333Y-15540238D01*
X4548810Y-15530714D01*
X4529762Y-15521190D01*
X4682143Y-15521190D02*
X4663095Y-15511667D01*
X4653571Y-15502143D01*
X4644048Y-15483095D01*
X4644048Y-15473571D01*
X4653571Y-15454524D01*
X4663095Y-15445000D01*
X4682143Y-15435476D01*
X4720238Y-15435476D01*
X4739286Y-15445000D01*
X4748810Y-15454524D01*
X4758333Y-15473571D01*
X4758333Y-15483095D01*
X4748810Y-15502143D01*
X4739286Y-15511667D01*
X4720238Y-15521190D01*
X4682143Y-15521190D01*
X4663095Y-15530714D01*
X4653571Y-15540238D01*
X4644048Y-15559286D01*
X4644048Y-15597381D01*
X4653571Y-15616428D01*
X4663095Y-15625952D01*
X4682143Y-15635476D01*
X4720238Y-15635476D01*
X4739286Y-15625952D01*
X4748810Y-15616428D01*
X4758333Y-15597381D01*
X4758333Y-15559286D01*
X4748810Y-15540238D01*
X4739286Y-15530714D01*
X4720238Y-15521190D01*
X4996429Y-15635476D02*
X4996429Y-15435476D01*
X5082143Y-15635476D02*
X5082143Y-15530714D01*
X5072619Y-15511667D01*
X5053571Y-15502143D01*
X5025000Y-15502143D01*
X5005952Y-15511667D01*
X4996429Y-15521190D01*
X5205952Y-15635476D02*
X5186905Y-15625952D01*
X5177381Y-15616428D01*
X5167857Y-15597381D01*
X5167857Y-15540238D01*
X5177381Y-15521190D01*
X5186905Y-15511667D01*
X5205952Y-15502143D01*
X5234524Y-15502143D01*
X5253571Y-15511667D01*
X5263095Y-15521190D01*
X5272619Y-15540238D01*
X5272619Y-15597381D01*
X5263095Y-15616428D01*
X5253571Y-15625952D01*
X5234524Y-15635476D01*
X5205952Y-15635476D01*
X5386905Y-15635476D02*
X5367857Y-15625952D01*
X5358333Y-15606905D01*
X5358333Y-15435476D01*
X5539286Y-15625952D02*
X5520238Y-15635476D01*
X5482143Y-15635476D01*
X5463095Y-15625952D01*
X5453571Y-15606905D01*
X5453571Y-15530714D01*
X5463095Y-15511667D01*
X5482143Y-15502143D01*
X5520238Y-15502143D01*
X5539286Y-15511667D01*
X5548810Y-15530714D01*
X5548810Y-15549762D01*
X5453571Y-15568809D01*
X5625000Y-15625952D02*
X5644048Y-15635476D01*
X5682143Y-15635476D01*
X5701190Y-15625952D01*
X5710714Y-15606905D01*
X5710714Y-15597381D01*
X5701190Y-15578333D01*
X5682143Y-15568809D01*
X5653571Y-15568809D01*
X5634524Y-15559286D01*
X5625000Y-15540238D01*
X5625000Y-15530714D01*
X5634524Y-15511667D01*
X5653571Y-15502143D01*
X5682143Y-15502143D01*
X5701190Y-15511667D01*
X5777381Y-15711667D02*
X5786905Y-15702143D01*
X5805952Y-15673571D01*
X5815476Y-15654524D01*
X5825000Y-15625952D01*
X5834524Y-15578333D01*
X5834524Y-15540238D01*
X5825000Y-15492619D01*
X5815476Y-15464048D01*
X5805952Y-15445000D01*
X5786905Y-15416428D01*
X5777381Y-15406905D01*
X6139286Y-15711667D02*
X6129762Y-15702143D01*
X6110714Y-15673571D01*
X6101190Y-15654524D01*
X6091667Y-15625952D01*
X6082143Y-15578333D01*
X6082143Y-15540238D01*
X6091667Y-15492619D01*
X6101190Y-15464048D01*
X6110714Y-15445000D01*
X6129762Y-15416428D01*
X6139286Y-15406905D01*
X6215476Y-15502143D02*
X6215476Y-15635476D01*
X6215476Y-15521190D02*
X6225000Y-15511667D01*
X6244048Y-15502143D01*
X6272619Y-15502143D01*
X6291667Y-15511667D01*
X6301190Y-15530714D01*
X6301190Y-15635476D01*
X6425000Y-15635476D02*
X6405952Y-15625952D01*
X6396428Y-15616428D01*
X6386905Y-15597381D01*
X6386905Y-15540238D01*
X6396428Y-15521190D01*
X6405952Y-15511667D01*
X6425000Y-15502143D01*
X6453571Y-15502143D01*
X6472619Y-15511667D01*
X6482143Y-15521190D01*
X6491667Y-15540238D01*
X6491667Y-15597381D01*
X6482143Y-15616428D01*
X6472619Y-15625952D01*
X6453571Y-15635476D01*
X6425000Y-15635476D01*
X6548809Y-15502143D02*
X6625000Y-15502143D01*
X6577381Y-15435476D02*
X6577381Y-15606905D01*
X6586905Y-15625952D01*
X6605952Y-15635476D01*
X6625000Y-15635476D01*
X6844048Y-15502143D02*
X6844048Y-15702143D01*
X6844048Y-15511667D02*
X6863095Y-15502143D01*
X6901190Y-15502143D01*
X6920238Y-15511667D01*
X6929762Y-15521190D01*
X6939286Y-15540238D01*
X6939286Y-15597381D01*
X6929762Y-15616428D01*
X6920238Y-15625952D01*
X6901190Y-15635476D01*
X6863095Y-15635476D01*
X6844048Y-15625952D01*
X7053571Y-15635476D02*
X7034524Y-15625952D01*
X7025000Y-15606905D01*
X7025000Y-15435476D01*
X7215476Y-15635476D02*
X7215476Y-15530714D01*
X7205952Y-15511667D01*
X7186905Y-15502143D01*
X7148809Y-15502143D01*
X7129762Y-15511667D01*
X7215476Y-15625952D02*
X7196428Y-15635476D01*
X7148809Y-15635476D01*
X7129762Y-15625952D01*
X7120238Y-15606905D01*
X7120238Y-15587857D01*
X7129762Y-15568809D01*
X7148809Y-15559286D01*
X7196428Y-15559286D01*
X7215476Y-15549762D01*
X7282143Y-15502143D02*
X7358333Y-15502143D01*
X7310714Y-15435476D02*
X7310714Y-15606905D01*
X7320238Y-15625952D01*
X7339286Y-15635476D01*
X7358333Y-15635476D01*
X7501190Y-15625952D02*
X7482143Y-15635476D01*
X7444048Y-15635476D01*
X7425000Y-15625952D01*
X7415476Y-15606905D01*
X7415476Y-15530714D01*
X7425000Y-15511667D01*
X7444048Y-15502143D01*
X7482143Y-15502143D01*
X7501190Y-15511667D01*
X7510714Y-15530714D01*
X7510714Y-15549762D01*
X7415476Y-15568809D01*
X7682143Y-15635476D02*
X7682143Y-15435476D01*
X7682143Y-15625952D02*
X7663095Y-15635476D01*
X7625000Y-15635476D01*
X7605952Y-15625952D01*
X7596428Y-15616428D01*
X7586905Y-15597381D01*
X7586905Y-15540238D01*
X7596428Y-15521190D01*
X7605952Y-15511667D01*
X7625000Y-15502143D01*
X7663095Y-15502143D01*
X7682143Y-15511667D01*
X7758333Y-15711667D02*
X7767857Y-15702143D01*
X7786905Y-15673571D01*
X7796428Y-15654524D01*
X7805952Y-15625952D01*
X7815476Y-15578333D01*
X7815476Y-15540238D01*
X7805952Y-15492619D01*
X7796428Y-15464048D01*
X7786905Y-15445000D01*
X7767857Y-15416428D01*
X7758333Y-15406905D01*
X815000Y-15809000D02*
G75*
G03*
X815000Y-15809000I-100000J0D01*
G01*
X1053571Y-15699476D02*
X1177381Y-15699476D01*
X1110714Y-15775667D01*
X1139286Y-15775667D01*
X1158333Y-15785190D01*
X1167857Y-15794714D01*
X1177381Y-15813762D01*
X1177381Y-15861381D01*
X1167857Y-15880428D01*
X1158333Y-15889952D01*
X1139286Y-15899476D01*
X1082143Y-15899476D01*
X1063095Y-15889952D01*
X1053571Y-15880428D01*
X1263095Y-15880428D02*
X1272619Y-15889952D01*
X1263095Y-15899476D01*
X1253571Y-15889952D01*
X1263095Y-15880428D01*
X1263095Y-15899476D01*
X1396429Y-15699476D02*
X1415476Y-15699476D01*
X1434524Y-15709000D01*
X1444048Y-15718524D01*
X1453571Y-15737571D01*
X1463095Y-15775667D01*
X1463095Y-15823286D01*
X1453571Y-15861381D01*
X1444048Y-15880428D01*
X1434524Y-15889952D01*
X1415476Y-15899476D01*
X1396429Y-15899476D01*
X1377381Y-15889952D01*
X1367857Y-15880428D01*
X1358333Y-15861381D01*
X1348810Y-15823286D01*
X1348810Y-15775667D01*
X1358333Y-15737571D01*
X1367857Y-15718524D01*
X1377381Y-15709000D01*
X1396429Y-15699476D01*
X1586905Y-15699476D02*
X1605952Y-15699476D01*
X1625000Y-15709000D01*
X1634524Y-15718524D01*
X1644048Y-15737571D01*
X1653571Y-15775667D01*
X1653571Y-15823286D01*
X1644048Y-15861381D01*
X1634524Y-15880428D01*
X1625000Y-15889952D01*
X1605952Y-15899476D01*
X1586905Y-15899476D01*
X1567857Y-15889952D01*
X1558333Y-15880428D01*
X1548809Y-15861381D01*
X1539286Y-15823286D01*
X1539286Y-15775667D01*
X1548809Y-15737571D01*
X1558333Y-15718524D01*
X1567857Y-15709000D01*
X1586905Y-15699476D01*
X1777381Y-15699476D02*
X1796428Y-15699476D01*
X1815476Y-15709000D01*
X1825000Y-15718524D01*
X1834524Y-15737571D01*
X1844048Y-15775667D01*
X1844048Y-15823286D01*
X1834524Y-15861381D01*
X1825000Y-15880428D01*
X1815476Y-15889952D01*
X1796428Y-15899476D01*
X1777381Y-15899476D01*
X1758333Y-15889952D01*
X1748809Y-15880428D01*
X1739286Y-15861381D01*
X1729762Y-15823286D01*
X1729762Y-15775667D01*
X1739286Y-15737571D01*
X1748809Y-15718524D01*
X1758333Y-15709000D01*
X1777381Y-15699476D01*
X1929762Y-15899476D02*
X1929762Y-15766143D01*
X1929762Y-15785190D02*
X1939286Y-15775667D01*
X1958333Y-15766143D01*
X1986905Y-15766143D01*
X2005952Y-15775667D01*
X2015476Y-15794714D01*
X2015476Y-15899476D01*
X2015476Y-15794714D02*
X2025000Y-15775667D01*
X2044048Y-15766143D01*
X2072619Y-15766143D01*
X2091667Y-15775667D01*
X2101190Y-15794714D01*
X2101190Y-15899476D01*
X2196429Y-15899476D02*
X2196429Y-15766143D01*
X2196429Y-15785190D02*
X2205952Y-15775667D01*
X2225000Y-15766143D01*
X2253571Y-15766143D01*
X2272619Y-15775667D01*
X2282143Y-15794714D01*
X2282143Y-15899476D01*
X2282143Y-15794714D02*
X2291667Y-15775667D01*
X2310714Y-15766143D01*
X2339286Y-15766143D01*
X2358333Y-15775667D01*
X2367857Y-15794714D01*
X2367857Y-15899476D01*
X2758333Y-15689952D02*
X2586905Y-15947095D01*
X3015476Y-15699476D02*
X3034524Y-15699476D01*
X3053571Y-15709000D01*
X3063095Y-15718524D01*
X3072619Y-15737571D01*
X3082143Y-15775667D01*
X3082143Y-15823286D01*
X3072619Y-15861381D01*
X3063095Y-15880428D01*
X3053571Y-15889952D01*
X3034524Y-15899476D01*
X3015476Y-15899476D01*
X2996428Y-15889952D01*
X2986905Y-15880428D01*
X2977381Y-15861381D01*
X2967857Y-15823286D01*
X2967857Y-15775667D01*
X2977381Y-15737571D01*
X2986905Y-15718524D01*
X2996428Y-15709000D01*
X3015476Y-15699476D01*
X3167857Y-15880428D02*
X3177381Y-15889952D01*
X3167857Y-15899476D01*
X3158333Y-15889952D01*
X3167857Y-15880428D01*
X3167857Y-15899476D01*
X3367857Y-15899476D02*
X3253571Y-15899476D01*
X3310714Y-15899476D02*
X3310714Y-15699476D01*
X3291667Y-15728048D01*
X3272619Y-15747095D01*
X3253571Y-15756619D01*
X3558333Y-15899476D02*
X3444048Y-15899476D01*
X3501190Y-15899476D02*
X3501190Y-15699476D01*
X3482143Y-15728048D01*
X3463095Y-15747095D01*
X3444048Y-15756619D01*
X3672619Y-15785190D02*
X3653571Y-15775667D01*
X3644048Y-15766143D01*
X3634524Y-15747095D01*
X3634524Y-15737571D01*
X3644048Y-15718524D01*
X3653571Y-15709000D01*
X3672619Y-15699476D01*
X3710714Y-15699476D01*
X3729762Y-15709000D01*
X3739286Y-15718524D01*
X3748809Y-15737571D01*
X3748809Y-15747095D01*
X3739286Y-15766143D01*
X3729762Y-15775667D01*
X3710714Y-15785190D01*
X3672619Y-15785190D01*
X3653571Y-15794714D01*
X3644048Y-15804238D01*
X3634524Y-15823286D01*
X3634524Y-15861381D01*
X3644048Y-15880428D01*
X3653571Y-15889952D01*
X3672619Y-15899476D01*
X3710714Y-15899476D01*
X3729762Y-15889952D01*
X3739286Y-15880428D01*
X3748809Y-15861381D01*
X3748809Y-15823286D01*
X3739286Y-15804238D01*
X3729762Y-15794714D01*
X3710714Y-15785190D01*
X3939286Y-15899476D02*
X3825000Y-15899476D01*
X3882143Y-15899476D02*
X3882143Y-15699476D01*
X3863095Y-15728048D01*
X3844048Y-15747095D01*
X3825000Y-15756619D01*
X4015476Y-15699476D02*
X4015476Y-15737571D01*
X4091667Y-15699476D02*
X4091667Y-15737571D01*
X4386905Y-15975667D02*
X4377381Y-15966143D01*
X4358333Y-15937571D01*
X4348810Y-15918524D01*
X4339286Y-15889952D01*
X4329762Y-15842333D01*
X4329762Y-15804238D01*
X4339286Y-15756619D01*
X4348810Y-15728048D01*
X4358333Y-15709000D01*
X4377381Y-15680428D01*
X4386905Y-15670905D01*
X4491667Y-15785190D02*
X4472619Y-15775667D01*
X4463095Y-15766143D01*
X4453571Y-15747095D01*
X4453571Y-15737571D01*
X4463095Y-15718524D01*
X4472619Y-15709000D01*
X4491667Y-15699476D01*
X4529762Y-15699476D01*
X4548810Y-15709000D01*
X4558333Y-15718524D01*
X4567857Y-15737571D01*
X4567857Y-15747095D01*
X4558333Y-15766143D01*
X4548810Y-15775667D01*
X4529762Y-15785190D01*
X4491667Y-15785190D01*
X4472619Y-15794714D01*
X4463095Y-15804238D01*
X4453571Y-15823286D01*
X4453571Y-15861381D01*
X4463095Y-15880428D01*
X4472619Y-15889952D01*
X4491667Y-15899476D01*
X4529762Y-15899476D01*
X4548810Y-15889952D01*
X4558333Y-15880428D01*
X4567857Y-15861381D01*
X4567857Y-15823286D01*
X4558333Y-15804238D01*
X4548810Y-15794714D01*
X4529762Y-15785190D01*
X4805952Y-15899476D02*
X4805952Y-15699476D01*
X4891667Y-15899476D02*
X4891667Y-15794714D01*
X4882143Y-15775667D01*
X4863095Y-15766143D01*
X4834524Y-15766143D01*
X4815476Y-15775667D01*
X4805952Y-15785190D01*
X5015476Y-15899476D02*
X4996429Y-15889952D01*
X4986905Y-15880428D01*
X4977381Y-15861381D01*
X4977381Y-15804238D01*
X4986905Y-15785190D01*
X4996429Y-15775667D01*
X5015476Y-15766143D01*
X5044048Y-15766143D01*
X5063095Y-15775667D01*
X5072619Y-15785190D01*
X5082143Y-15804238D01*
X5082143Y-15861381D01*
X5072619Y-15880428D01*
X5063095Y-15889952D01*
X5044048Y-15899476D01*
X5015476Y-15899476D01*
X5196429Y-15899476D02*
X5177381Y-15889952D01*
X5167857Y-15870905D01*
X5167857Y-15699476D01*
X5348810Y-15889952D02*
X5329762Y-15899476D01*
X5291667Y-15899476D01*
X5272619Y-15889952D01*
X5263095Y-15870905D01*
X5263095Y-15794714D01*
X5272619Y-15775667D01*
X5291667Y-15766143D01*
X5329762Y-15766143D01*
X5348810Y-15775667D01*
X5358333Y-15794714D01*
X5358333Y-15813762D01*
X5263095Y-15832809D01*
X5434524Y-15889952D02*
X5453571Y-15899476D01*
X5491667Y-15899476D01*
X5510714Y-15889952D01*
X5520238Y-15870905D01*
X5520238Y-15861381D01*
X5510714Y-15842333D01*
X5491667Y-15832809D01*
X5463095Y-15832809D01*
X5444048Y-15823286D01*
X5434524Y-15804238D01*
X5434524Y-15794714D01*
X5444048Y-15775667D01*
X5463095Y-15766143D01*
X5491667Y-15766143D01*
X5510714Y-15775667D01*
X5586905Y-15975667D02*
X5596428Y-15966143D01*
X5615476Y-15937571D01*
X5625000Y-15918524D01*
X5634524Y-15889952D01*
X5644048Y-15842333D01*
X5644048Y-15804238D01*
X5634524Y-15756619D01*
X5625000Y-15728048D01*
X5615476Y-15709000D01*
X5596428Y-15680428D01*
X5586905Y-15670905D01*
X5948809Y-15975667D02*
X5939286Y-15966143D01*
X5920238Y-15937571D01*
X5910714Y-15918524D01*
X5901190Y-15889952D01*
X5891667Y-15842333D01*
X5891667Y-15804238D01*
X5901190Y-15756619D01*
X5910714Y-15728048D01*
X5920238Y-15709000D01*
X5939286Y-15680428D01*
X5948809Y-15670905D01*
X6025000Y-15766143D02*
X6025000Y-15899476D01*
X6025000Y-15785190D02*
X6034524Y-15775667D01*
X6053571Y-15766143D01*
X6082143Y-15766143D01*
X6101190Y-15775667D01*
X6110714Y-15794714D01*
X6110714Y-15899476D01*
X6234524Y-15899476D02*
X6215476Y-15889952D01*
X6205952Y-15880428D01*
X6196428Y-15861381D01*
X6196428Y-15804238D01*
X6205952Y-15785190D01*
X6215476Y-15775667D01*
X6234524Y-15766143D01*
X6263095Y-15766143D01*
X6282143Y-15775667D01*
X6291667Y-15785190D01*
X6301190Y-15804238D01*
X6301190Y-15861381D01*
X6291667Y-15880428D01*
X6282143Y-15889952D01*
X6263095Y-15899476D01*
X6234524Y-15899476D01*
X6358333Y-15766143D02*
X6434524Y-15766143D01*
X6386905Y-15699476D02*
X6386905Y-15870905D01*
X6396428Y-15889952D01*
X6415476Y-15899476D01*
X6434524Y-15899476D01*
X6653571Y-15766143D02*
X6653571Y-15966143D01*
X6653571Y-15775667D02*
X6672619Y-15766143D01*
X6710714Y-15766143D01*
X6729762Y-15775667D01*
X6739286Y-15785190D01*
X6748809Y-15804238D01*
X6748809Y-15861381D01*
X6739286Y-15880428D01*
X6729762Y-15889952D01*
X6710714Y-15899476D01*
X6672619Y-15899476D01*
X6653571Y-15889952D01*
X6863095Y-15899476D02*
X6844048Y-15889952D01*
X6834524Y-15870905D01*
X6834524Y-15699476D01*
X7025000Y-15899476D02*
X7025000Y-15794714D01*
X7015476Y-15775667D01*
X6996428Y-15766143D01*
X6958333Y-15766143D01*
X6939286Y-15775667D01*
X7025000Y-15889952D02*
X7005952Y-15899476D01*
X6958333Y-15899476D01*
X6939286Y-15889952D01*
X6929762Y-15870905D01*
X6929762Y-15851857D01*
X6939286Y-15832809D01*
X6958333Y-15823286D01*
X7005952Y-15823286D01*
X7025000Y-15813762D01*
X7091667Y-15766143D02*
X7167857Y-15766143D01*
X7120238Y-15699476D02*
X7120238Y-15870905D01*
X7129762Y-15889952D01*
X7148809Y-15899476D01*
X7167857Y-15899476D01*
X7310714Y-15889952D02*
X7291667Y-15899476D01*
X7253571Y-15899476D01*
X7234524Y-15889952D01*
X7225000Y-15870905D01*
X7225000Y-15794714D01*
X7234524Y-15775667D01*
X7253571Y-15766143D01*
X7291667Y-15766143D01*
X7310714Y-15775667D01*
X7320238Y-15794714D01*
X7320238Y-15813762D01*
X7225000Y-15832809D01*
X7491667Y-15899476D02*
X7491667Y-15699476D01*
X7491667Y-15889952D02*
X7472619Y-15899476D01*
X7434524Y-15899476D01*
X7415476Y-15889952D01*
X7405952Y-15880428D01*
X7396428Y-15861381D01*
X7396428Y-15804238D01*
X7405952Y-15785190D01*
X7415476Y-15775667D01*
X7434524Y-15766143D01*
X7472619Y-15766143D01*
X7491667Y-15775667D01*
X7567857Y-15975667D02*
X7577381Y-15966143D01*
X7596428Y-15937571D01*
X7605952Y-15918524D01*
X7615476Y-15889952D01*
X7625000Y-15842333D01*
X7625000Y-15804238D01*
X7615476Y-15756619D01*
X7605952Y-15728048D01*
X7596428Y-15709000D01*
X7577381Y-15680428D01*
X7567857Y-15670905D01*
M02*
