G04 #@! TF.GenerationSoftware,KiCad,Pcbnew,(6.0.9-0)*
G04 #@! TF.CreationDate,2022-12-15T09:10:18+08:00*
G04 #@! TF.ProjectId,3.1HeatingElement,332e3148-6561-4746-996e-67456c656d65,rev?*
G04 #@! TF.SameCoordinates,Original*
G04 #@! TF.FileFunction,Soldermask,Bot*
G04 #@! TF.FilePolarity,Negative*
%FSLAX46Y46*%
G04 Gerber Fmt 4.6, Leading zero omitted, Abs format (unit mm)*
G04 Created by KiCad (PCBNEW (6.0.9-0)) date 2022-12-15 09:10:18*
%MOMM*%
%LPD*%
G01*
G04 APERTURE LIST*
%ADD10C,0.500000*%
%ADD11C,3.000000*%
G04 APERTURE END LIST*
D10*
X147144400Y-79000000D03*
X149094400Y-77400000D03*
X147144400Y-112000000D03*
X147144400Y-113600000D03*
X149094400Y-80600000D03*
X149094400Y-126350000D03*
X149094400Y-114400000D03*
X147144400Y-111200000D03*
X149094400Y-127150000D03*
D11*
X14200000Y-143000000D03*
X141200000Y-53000000D03*
D10*
X147144400Y-127950000D03*
X147144400Y-127150000D03*
X149094400Y-115200000D03*
X149094400Y-74200000D03*
X147144400Y-114400000D03*
X147144400Y-73400000D03*
X149094400Y-127950000D03*
X149094400Y-68650000D03*
X149094400Y-123950000D03*
X149094400Y-78200000D03*
X147144400Y-118350000D03*
X149094400Y-115950000D03*
X147144400Y-81400000D03*
X147144400Y-78200000D03*
X149094400Y-73400000D03*
X147144400Y-83000000D03*
X147144400Y-79800000D03*
X147144400Y-70250000D03*
X147144400Y-71050000D03*
X147144400Y-122350000D03*
X147144400Y-120750000D03*
D11*
X14200000Y-53000000D03*
D10*
X147144400Y-115950000D03*
X147144400Y-119950000D03*
X147144400Y-124750000D03*
X149094400Y-75800000D03*
X147144400Y-83800000D03*
X149094400Y-119950000D03*
X149094400Y-67850000D03*
X149094400Y-112800000D03*
D11*
X155000000Y-143000000D03*
D10*
X147144400Y-75800000D03*
X149094400Y-76600000D03*
X147144400Y-71850000D03*
X149094400Y-118350000D03*
X147144400Y-80600000D03*
X147144400Y-74200000D03*
X147144400Y-68650000D03*
X147144400Y-115200000D03*
X149094400Y-75000000D03*
X147144400Y-69450000D03*
X149094400Y-84600000D03*
X147144400Y-121550000D03*
X149094400Y-111200000D03*
X149094400Y-121550000D03*
X149094400Y-117550000D03*
X149094400Y-119150000D03*
X149094400Y-116750000D03*
X149094400Y-120750000D03*
X147144400Y-117550000D03*
X149094400Y-83800000D03*
X147144400Y-116750000D03*
D11*
X141200000Y-143000000D03*
D10*
X149094400Y-113600000D03*
X147144400Y-72600000D03*
X149094400Y-124750000D03*
X147144400Y-76600000D03*
X147144400Y-67850000D03*
X147144400Y-126350000D03*
X149094400Y-122350000D03*
X149094400Y-125550000D03*
D11*
X282000000Y-143000000D03*
D10*
X149094400Y-82200000D03*
X149094400Y-72600000D03*
X147144400Y-123950000D03*
X147144400Y-84600000D03*
X149094400Y-83000000D03*
X147144400Y-112800000D03*
X147144400Y-75000000D03*
X149094400Y-69450000D03*
X147144400Y-77400000D03*
X149094400Y-79800000D03*
X149094400Y-70250000D03*
X147144400Y-119150000D03*
X147144400Y-82200000D03*
D11*
X282000000Y-53000000D03*
D10*
X147144400Y-123150000D03*
D11*
X155000000Y-53000000D03*
D10*
X147144400Y-125550000D03*
X149094400Y-81400000D03*
X149094400Y-112000000D03*
X149094400Y-79000000D03*
X149094400Y-123150000D03*
X149094400Y-71050000D03*
X149094400Y-71850000D03*
M02*
