%TF.GenerationSoftware,KiCad,Pcbnew,(6.0.11-0)*%
%TF.CreationDate,2023-02-16T18:47:32+08:00*%
%TF.ProjectId,Right,52696768-742e-46b6-9963-61645f706362,rev?*%
%TF.SameCoordinates,Original*%
%TF.FileFunction,Drillmap*%
%TF.FilePolarity,Positive*%
%FSLAX45Y45*%
G04 Gerber Fmt 4.5, Leading zero omitted, Abs format (unit mm)*
G04 Created by KiCad (PCBNEW (6.0.11-0)) date 2023-02-16 18:47:32*
%MOMM*%
%LPD*%
G01*
G04 APERTURE LIST*
%ADD10C,0.030000*%
%ADD11C,0.038100*%
%ADD12C,0.000100*%
%ADD13C,0.200000*%
%ADD14C,0.025000*%
%ADD15C,0.050000*%
%ADD16C,0.060000*%
G04 APERTURE END LIST*
D10*
X6139102Y-4587646D02*
X6085803Y-4592401D01*
X10643293Y-12264402D02*
X10678280Y-12250858D01*
X10786302Y-12185741D02*
X10792915Y-12179835D01*
D11*
X6167043Y-7492929D02*
X6167043Y-7950129D01*
D10*
X17058657Y-10186994D02*
X17027628Y-10230664D01*
D11*
X11057066Y-10519429D02*
X11048509Y-10528907D01*
D10*
X6217321Y-12305429D02*
X6139105Y-12303215D01*
D11*
X11102066Y-10479429D02*
X11084543Y-10492873D01*
D10*
X10956066Y-10840429D02*
X10956066Y-11705429D01*
X5655297Y-4907219D02*
X5658344Y-4898203D01*
X5767590Y-12167680D02*
X5761320Y-12161431D01*
X10953852Y-11783645D02*
X10949097Y-11836945D01*
D11*
X11239973Y-10417462D02*
X11224066Y-10421429D01*
D10*
X16997048Y-10262679D02*
X17003317Y-10256431D01*
X6540721Y-4585430D02*
X6217321Y-4585429D01*
X16699653Y-10390931D02*
X16759474Y-10379997D01*
D11*
X8703166Y-12105429D02*
X9923166Y-12105429D01*
D10*
X10497993Y-12297193D02*
X10508403Y-12295931D01*
X6139105Y-12303215D02*
X6085805Y-12298460D01*
X17092745Y-4863216D02*
X17085315Y-4846429D01*
X12983916Y-10400429D02*
X12983916Y-10200429D01*
D11*
X11066066Y-10510429D02*
X11075074Y-10501421D01*
D10*
X5652249Y-4916232D02*
X5655297Y-4907219D01*
X5679321Y-12044430D02*
X5705980Y-12091995D01*
X5626819Y-11857766D02*
X5637753Y-11917588D01*
X17015818Y-10243892D02*
X17009567Y-10250161D01*
X17126884Y-4973272D02*
X17112386Y-4916232D01*
D11*
X6540721Y-4585430D02*
X6540721Y-4735430D01*
D10*
X16977551Y-4705118D02*
X16984164Y-4711023D01*
X10867407Y-12091994D02*
X10836378Y-12135664D01*
X10935637Y-11917586D02*
X10921138Y-11974627D01*
X5637753Y-11917588D02*
X5652250Y-11974628D01*
X16439516Y-10400429D02*
X16547316Y-10400429D01*
X17112386Y-4916232D02*
X17109339Y-4907218D01*
X10946569Y-11857764D02*
X10935637Y-11917586D01*
X5658344Y-4898203D02*
X5671892Y-4863217D01*
X5895107Y-4640000D02*
X5878319Y-4647430D01*
X16886317Y-4647429D02*
X16933880Y-4674088D01*
X5939110Y-12267454D02*
X5930095Y-12264406D01*
X17027628Y-4755194D02*
X17021722Y-4748581D01*
X16759472Y-4605860D02*
X16816513Y-4620359D01*
D11*
X6790721Y-4735430D02*
X6790721Y-4760430D01*
D10*
X16933881Y-10311771D02*
X16977552Y-10280742D01*
X10947831Y-11847355D02*
X10946569Y-11857764D01*
X5755070Y-4735698D02*
X5761319Y-4729429D01*
X5755071Y-12155162D02*
X5761320Y-12161431D01*
D12*
X10721066Y-11930429D02*
G75*
G03*
X10721066Y-11930429I-140000J0D01*
G01*
D10*
X16689241Y-4593665D02*
X16699650Y-4594929D01*
D11*
X15219516Y-10200429D02*
X16439516Y-10200429D01*
D12*
X6132321Y-11930430D02*
G75*
G03*
X6132321Y-11930430I-140000J0D01*
G01*
D10*
X17126887Y-10012586D02*
X17112388Y-10069627D01*
X7870266Y-12305429D02*
X7870266Y-12105429D01*
X5658347Y-11992657D02*
X5671892Y-12027643D01*
X17106292Y-10087656D02*
X17092745Y-10122641D01*
X10625265Y-12270501D02*
X10634278Y-12267452D01*
X5948122Y-4620359D02*
X5939108Y-4623407D01*
D11*
X10984743Y-10643394D02*
X10989528Y-10630541D01*
X10956066Y-10840429D02*
X10956066Y-10828429D01*
D10*
X17139081Y-9942355D02*
X17137819Y-9952764D01*
X16834542Y-4626454D02*
X16869528Y-4640002D01*
D11*
X11005736Y-10593602D02*
X11014066Y-10578429D01*
D10*
X6064986Y-12295932D02*
X6005164Y-12285000D01*
X5655298Y-11983642D02*
X5658347Y-11992657D01*
X16869530Y-10345859D02*
X16886317Y-10338429D01*
D11*
X11084543Y-10492873D02*
X11075066Y-10501429D01*
X11199030Y-10429106D02*
X11224030Y-10421429D01*
D10*
X16699650Y-4594929D02*
X16759472Y-4605860D01*
D11*
X6650266Y-12105429D02*
X7870266Y-12105429D01*
D10*
X17021722Y-4748581D02*
X17015817Y-4741966D01*
D11*
X11384066Y-10400429D02*
X11396066Y-10400429D01*
D10*
X16547317Y-10400431D02*
X16625535Y-10398213D01*
X14711716Y-10400429D02*
X14711716Y-10200429D01*
X10818317Y-12155161D02*
X10812067Y-12161431D01*
X5787086Y-12185741D02*
X5780473Y-12179837D01*
X16816515Y-10365501D02*
X16825528Y-10362452D01*
X6650266Y-12305429D02*
X6217321Y-12305429D01*
D12*
X16912315Y-4960431D02*
G75*
G03*
X16912315Y-4960431I-140000J0D01*
G01*
D10*
X17145099Y-5107212D02*
X17140344Y-5053913D01*
D11*
X14711716Y-10400429D02*
X15219516Y-10400429D01*
X11115607Y-10470062D02*
X11121066Y-10466429D01*
D10*
X9923166Y-12305429D02*
X9923166Y-12105429D01*
X6217320Y-4585429D02*
X6139102Y-4587646D01*
D11*
X10957332Y-10790074D02*
X10958600Y-10774073D01*
X11022066Y-10565429D02*
X11025698Y-10559971D01*
D10*
X5773857Y-4716928D02*
X5767588Y-4723180D01*
X10894066Y-12044430D02*
X10867407Y-12091994D01*
X5767588Y-4723180D02*
X5761319Y-4729429D01*
X16678834Y-10393458D02*
X16689243Y-10392193D01*
D11*
X11384066Y-10400429D02*
X11351066Y-10401429D01*
X11048509Y-10528907D02*
X11035066Y-10546429D01*
D10*
X16678832Y-4592400D02*
X16689241Y-4593665D01*
D11*
X10977066Y-10668394D02*
X10984743Y-10643394D01*
X7254721Y-4735430D02*
X7504721Y-4735430D01*
X11298492Y-10406355D02*
X11283275Y-10408479D01*
X10964115Y-10727639D02*
X10961992Y-10742856D01*
X11283275Y-10408479D02*
X11262066Y-10412429D01*
D10*
X5617321Y-5185429D02*
X5617321Y-7035729D01*
X5773859Y-12173932D02*
X5767590Y-12167680D01*
X6650266Y-12305429D02*
X6650266Y-12105429D01*
D11*
X11134066Y-10458429D02*
X11149239Y-10450099D01*
D10*
X10956066Y-11705429D02*
X10953852Y-11783645D01*
D11*
X11000025Y-10605645D02*
X11005736Y-10593602D01*
D10*
X10568225Y-12284997D02*
X10625265Y-12270501D01*
D11*
X11298492Y-10406355D02*
X11329710Y-10402964D01*
D12*
X6132321Y-4960430D02*
G75*
G03*
X6132321Y-4960430I-140000J0D01*
G01*
D10*
X16834543Y-10359402D02*
X16869530Y-10345859D01*
X5626819Y-5033095D02*
X5637751Y-4973273D01*
X6075395Y-12297195D02*
X6064986Y-12295932D01*
X5787085Y-4705117D02*
X5780472Y-4711023D01*
X16625535Y-10398213D02*
X16678834Y-10393458D01*
X16625532Y-4587645D02*
X16678832Y-4592400D01*
D11*
X11763916Y-10400429D02*
X11396066Y-10400429D01*
D10*
X10742631Y-12216771D02*
X10786302Y-12185741D01*
D11*
X7254721Y-4735430D02*
X7254721Y-4760430D01*
D10*
X16439516Y-10400429D02*
X16439516Y-10200429D01*
D11*
X6167043Y-7035729D02*
X6167043Y-7492929D01*
X8554721Y-4735430D02*
X8554721Y-4760430D01*
D10*
X16977552Y-10280742D02*
X16984165Y-10274835D01*
X10695067Y-12243429D02*
X10742631Y-12216771D01*
X17140347Y-9931945D02*
X17139081Y-9942355D01*
X17139080Y-5043503D02*
X17137817Y-5033094D01*
X15219516Y-10400429D02*
X15219516Y-10200429D01*
X17092745Y-10122641D02*
X17085316Y-10139430D01*
X10434285Y-12303213D02*
X10487584Y-12298458D01*
X17147316Y-5185429D02*
X17145099Y-5107212D01*
X5705979Y-4798865D02*
X5737009Y-4755194D01*
D11*
X8804721Y-4585430D02*
X8804721Y-4735430D01*
D10*
X5742915Y-12142278D02*
X5748820Y-12148893D01*
X6005164Y-12285000D02*
X5948123Y-12270501D01*
X17021724Y-10237277D02*
X17015818Y-10243892D01*
X5939108Y-4623407D02*
X5930094Y-4626456D01*
X5679320Y-4846429D02*
X5705979Y-4798865D01*
X5830755Y-4674088D02*
X5787085Y-4705117D01*
X10356066Y-12305429D02*
X9923166Y-12305429D01*
D11*
X10989528Y-10630541D02*
X11000025Y-10605645D01*
D10*
X6064984Y-4594928D02*
X6005163Y-4605862D01*
X13491716Y-10400429D02*
X13491716Y-10200429D01*
X17112388Y-10069627D02*
X17109340Y-10078640D01*
X17109340Y-10078640D02*
X17106292Y-10087656D01*
X16547316Y-4585430D02*
X16625532Y-4587645D01*
D11*
X6167043Y-7950129D02*
X5617321Y-7950129D01*
D10*
X16984165Y-10274835D02*
X16990780Y-10268930D01*
X10830474Y-12142277D02*
X10824568Y-12148892D01*
X5671892Y-12027643D02*
X5679321Y-12044430D01*
X10836378Y-12135664D02*
X10830474Y-12142277D01*
X5619537Y-11783648D02*
X5624292Y-11836947D01*
X6005163Y-4605862D02*
X5948122Y-4620359D01*
X5948123Y-12270501D02*
X5939110Y-12267454D01*
D11*
X10968066Y-10706429D02*
X10973099Y-10684336D01*
D10*
X17137819Y-9952764D02*
X17126887Y-10012586D01*
X5930095Y-12264406D02*
X5895109Y-12250858D01*
D11*
X6540721Y-4735430D02*
X6790721Y-4735430D01*
D10*
X5671892Y-4863217D02*
X5679320Y-4846429D01*
D11*
X8554721Y-4735430D02*
X8804721Y-4735430D01*
D10*
X5737009Y-12135666D02*
X5742915Y-12142278D01*
X7504721Y-4585430D02*
X7840721Y-4585430D01*
X10792915Y-12179835D02*
X10799530Y-12173930D01*
X10678280Y-12250858D02*
X10695067Y-12243429D01*
X5748820Y-12148893D02*
X5755071Y-12155162D01*
D11*
X11057058Y-10519438D02*
X11066066Y-10510429D01*
X11134066Y-10458429D02*
X11121066Y-10466429D01*
X12983916Y-10400429D02*
X13491716Y-10400429D01*
D10*
X16997047Y-4723179D02*
X17003316Y-4729429D01*
X5895109Y-12250858D02*
X5878320Y-12243430D01*
X17109339Y-4907218D02*
X17106290Y-4898204D01*
X10634278Y-12267452D02*
X10643293Y-12264402D01*
X5878320Y-12243430D02*
X5830756Y-12216771D01*
X17147316Y-9800429D02*
X17145102Y-9878645D01*
X5619535Y-5107214D02*
X5624291Y-5053913D01*
D11*
X11149239Y-10450099D02*
X11161282Y-10444388D01*
X7840721Y-4585430D02*
X7840721Y-4735430D01*
X11022066Y-10565429D02*
X11014066Y-10578429D01*
X11239973Y-10417462D02*
X11262066Y-10412429D01*
D10*
X16816513Y-4620359D02*
X16825526Y-4623407D01*
X6075394Y-4593665D02*
X6064984Y-4594928D01*
X5625555Y-5043504D02*
X5626819Y-5033095D01*
X5930094Y-4626456D02*
X5895107Y-4640000D01*
X5748819Y-4741968D02*
X5755070Y-4735698D01*
X17140344Y-5053913D02*
X17139080Y-5043503D01*
X5737009Y-4755194D02*
X5742913Y-4748581D01*
X5780473Y-12179837D02*
X5773859Y-12173932D01*
X16689243Y-10392193D02*
X16699653Y-10390931D01*
D11*
X10958600Y-10774073D02*
X10961992Y-10742856D01*
X7504721Y-4585430D02*
X7504721Y-4735430D01*
D10*
X17027628Y-10230664D02*
X17021724Y-10237277D01*
X16990780Y-10268930D02*
X16997048Y-10262679D01*
X17106290Y-4898204D02*
X17092745Y-4863216D01*
D11*
X6167043Y-7035729D02*
X5617321Y-7035729D01*
D10*
X17147316Y-9800429D02*
X17147316Y-5185429D01*
X5780472Y-4711023D02*
X5773857Y-4716928D01*
X17009567Y-10250161D02*
X17003317Y-10256431D01*
X16933880Y-4674088D02*
X16977551Y-4705118D01*
X10487584Y-12298458D02*
X10497993Y-12297193D01*
X5830756Y-12216771D02*
X5787086Y-12185741D01*
X16759474Y-10379997D02*
X16816515Y-10365501D01*
D11*
X10968066Y-10706429D02*
X10964115Y-10727639D01*
D10*
X5625557Y-11847356D02*
X5626819Y-11857766D01*
D12*
X16912316Y-10025429D02*
G75*
G03*
X16912316Y-10025429I-140000J0D01*
G01*
D10*
X5617321Y-5185429D02*
X5619535Y-5107214D01*
X5624292Y-11836947D02*
X5625557Y-11847356D01*
X10508403Y-12295931D02*
X10568225Y-12284997D01*
X10799530Y-12173930D02*
X10805798Y-12167679D01*
X17009565Y-4735698D02*
X17003316Y-4729429D01*
X16825528Y-10362452D02*
X16834543Y-10359402D01*
X10824568Y-12148892D02*
X10818317Y-12155161D01*
X5878319Y-4647430D02*
X5830755Y-4674088D01*
D11*
X10957066Y-10795429D02*
X10956066Y-10828429D01*
D10*
X10918090Y-11983640D02*
X10915042Y-11992655D01*
D11*
X13491716Y-10200429D02*
X14711716Y-10200429D01*
D10*
X8703166Y-12305429D02*
X8703166Y-12105429D01*
D11*
X11186177Y-10433892D02*
X11199030Y-10429106D01*
D10*
X17145102Y-9878645D02*
X17140347Y-9931945D01*
X5652250Y-11974628D02*
X5655298Y-11983642D01*
X17058658Y-4798864D02*
X17027628Y-4755194D01*
X17085315Y-4846429D02*
X17058658Y-4798864D01*
X17015817Y-4741966D02*
X17009565Y-4735698D01*
X16869528Y-4640002D02*
X16886317Y-4647429D01*
X17137817Y-5033094D02*
X17126884Y-4973272D01*
X8804721Y-4585430D02*
X16547316Y-4585429D01*
D11*
X7840721Y-4735430D02*
X8090721Y-4735430D01*
D10*
X5742913Y-4748581D02*
X5748819Y-4741968D01*
X16984164Y-4711023D02*
X16990777Y-4716929D01*
D11*
X11763916Y-10200429D02*
X12983916Y-10200429D01*
D10*
X16825526Y-4623407D02*
X16834542Y-4626454D01*
X5617321Y-11705429D02*
X5617321Y-7950129D01*
D11*
X11329710Y-10402964D02*
X11345710Y-10401696D01*
D10*
X6085805Y-12298460D02*
X6075395Y-12297195D01*
X16886317Y-10338429D02*
X16933881Y-10311771D01*
X17085316Y-10139430D02*
X17058657Y-10186994D01*
X5637751Y-4973273D02*
X5652249Y-4916232D01*
D11*
X10977066Y-10668429D02*
X10973099Y-10684336D01*
D10*
X10949097Y-11836945D02*
X10947831Y-11847355D01*
X10901495Y-12027641D02*
X10894066Y-12044430D01*
X5705980Y-12091995D02*
X5737009Y-12135666D01*
D11*
X11102066Y-10479429D02*
X11115607Y-10470062D01*
D10*
X6085803Y-4592401D02*
X6075394Y-4593665D01*
X11763916Y-10400429D02*
X11763916Y-10200429D01*
D11*
X11161282Y-10444388D02*
X11186177Y-10433892D01*
D10*
X5617320Y-11705430D02*
X5619537Y-11783648D01*
X5624291Y-5053913D02*
X5625555Y-5043504D01*
X10805798Y-12167679D02*
X10812067Y-12161431D01*
D11*
X11345710Y-10401696D02*
X11351066Y-10401429D01*
D10*
X10356067Y-12305430D02*
X10434285Y-12303213D01*
D11*
X10957066Y-10795429D02*
X10957332Y-10790074D01*
X7870266Y-12305429D02*
X8703166Y-12305429D01*
X11025698Y-10559971D02*
X11035066Y-10546429D01*
D10*
X10915042Y-11992655D02*
X10901495Y-12027641D01*
X16990777Y-4716929D02*
X16997047Y-4723179D01*
D11*
X8090721Y-4735430D02*
X8090721Y-4760430D01*
D10*
X10921138Y-11974627D02*
X10918090Y-11983640D01*
D13*
D14*
X5641278Y-5345308D02*
X5666278Y-5370308D01*
X5666278Y-5345308D02*
X5641278Y-5370308D01*
X5641278Y-5595308D02*
X5666278Y-5620308D01*
X5666278Y-5595308D02*
X5641278Y-5620308D01*
X5641278Y-5845308D02*
X5666278Y-5870308D01*
X5666278Y-5845308D02*
X5641278Y-5870308D01*
X5641278Y-6095308D02*
X5666278Y-6120308D01*
X5666278Y-6095308D02*
X5641278Y-6120308D01*
X5641278Y-6345308D02*
X5666278Y-6370308D01*
X5666278Y-6345308D02*
X5641278Y-6370308D01*
X5641278Y-6595308D02*
X5666278Y-6620308D01*
X5666278Y-6595308D02*
X5641278Y-6620308D01*
X5641278Y-6838098D02*
X5666278Y-6863098D01*
X5666278Y-6838098D02*
X5641278Y-6863098D01*
X5641278Y-8277228D02*
X5666278Y-8302228D01*
X5666278Y-8277228D02*
X5641278Y-8302228D01*
X5641278Y-8527228D02*
X5666278Y-8552228D01*
X5666278Y-8527228D02*
X5641278Y-8552228D01*
X5641278Y-8777228D02*
X5666278Y-8802228D01*
X5666278Y-8777228D02*
X5641278Y-8802228D01*
X5641278Y-9027228D02*
X5666278Y-9052228D01*
X5666278Y-9027228D02*
X5641278Y-9052228D01*
X5641278Y-9277228D02*
X5666278Y-9302228D01*
X5666278Y-9277228D02*
X5641278Y-9302228D01*
X5641278Y-9527228D02*
X5666278Y-9552228D01*
X5666278Y-9527228D02*
X5641278Y-9552228D01*
X5641278Y-9777228D02*
X5666278Y-9802228D01*
X5666278Y-9777228D02*
X5641278Y-9802228D01*
X5641278Y-10027228D02*
X5666278Y-10052228D01*
X5666278Y-10027228D02*
X5641278Y-10052228D01*
X5641278Y-10277228D02*
X5666278Y-10302228D01*
X5666278Y-10277228D02*
X5641278Y-10302228D01*
X5641278Y-10527228D02*
X5666278Y-10552228D01*
X5666278Y-10527228D02*
X5641278Y-10552228D01*
X5641278Y-10777228D02*
X5666278Y-10802228D01*
X5666278Y-10777228D02*
X5641278Y-10802228D01*
X5641278Y-11027228D02*
X5666278Y-11052228D01*
X5666278Y-11027228D02*
X5641278Y-11052228D01*
X5641278Y-11277228D02*
X5666278Y-11302228D01*
X5666278Y-11277228D02*
X5641278Y-11302228D01*
X5641278Y-11527228D02*
X5666278Y-11552228D01*
X5666278Y-11527228D02*
X5641278Y-11552228D01*
X5641278Y-11775713D02*
X5666278Y-11800713D01*
X5666278Y-11775713D02*
X5641278Y-11800713D01*
X5646025Y-5080240D02*
X5671025Y-5105240D01*
X5671025Y-5080240D02*
X5646025Y-5105240D01*
X5707035Y-12024586D02*
X5732035Y-12049586D01*
X5732035Y-12024586D02*
X5707035Y-12049586D01*
X5711279Y-5185935D02*
X5736279Y-5210935D01*
X5736279Y-5185935D02*
X5711279Y-5210935D01*
X5711279Y-5435935D02*
X5736279Y-5460935D01*
X5736279Y-5435935D02*
X5711279Y-5460935D01*
X5711279Y-5685935D02*
X5736279Y-5710935D01*
X5736279Y-5685935D02*
X5711279Y-5710935D01*
X5711279Y-5935935D02*
X5736279Y-5960935D01*
X5736279Y-5935935D02*
X5711279Y-5960935D01*
X5711279Y-6185935D02*
X5736279Y-6210935D01*
X5736279Y-6185935D02*
X5711279Y-6210935D01*
X5711279Y-6435935D02*
X5736279Y-6460935D01*
X5736279Y-6435935D02*
X5711279Y-6460935D01*
X5711279Y-6685935D02*
X5736279Y-6710935D01*
X5736279Y-6685935D02*
X5711279Y-6710935D01*
X5711279Y-8367855D02*
X5736279Y-8392855D01*
X5736279Y-8367855D02*
X5711279Y-8392855D01*
X5711279Y-8617855D02*
X5736279Y-8642855D01*
X5736279Y-8617855D02*
X5711279Y-8642855D01*
X5711279Y-8867855D02*
X5736279Y-8892855D01*
X5736279Y-8867855D02*
X5711279Y-8892855D01*
X5711279Y-9117855D02*
X5736279Y-9142855D01*
X5736279Y-9117855D02*
X5711279Y-9142855D01*
X5711279Y-9367855D02*
X5736279Y-9392855D01*
X5736279Y-9367855D02*
X5711279Y-9392855D01*
X5711279Y-9617855D02*
X5736279Y-9642855D01*
X5736279Y-9617855D02*
X5711279Y-9642855D01*
X5711279Y-9867855D02*
X5736279Y-9892855D01*
X5736279Y-9867855D02*
X5711279Y-9892855D01*
X5711279Y-10117855D02*
X5736279Y-10142855D01*
X5736279Y-10117855D02*
X5711279Y-10142855D01*
X5711279Y-10367855D02*
X5736279Y-10392855D01*
X5736279Y-10367855D02*
X5711279Y-10392855D01*
X5711279Y-10617855D02*
X5736279Y-10642855D01*
X5736279Y-10617855D02*
X5711279Y-10642855D01*
X5711279Y-10867855D02*
X5736279Y-10892855D01*
X5736279Y-10867855D02*
X5711279Y-10892855D01*
X5711279Y-11117855D02*
X5736279Y-11142855D01*
X5736279Y-11117855D02*
X5711279Y-11142855D01*
X5711279Y-11367855D02*
X5736279Y-11392855D01*
X5736279Y-11367855D02*
X5711279Y-11392855D01*
X5711279Y-11617855D02*
X5736279Y-11642855D01*
X5736279Y-11617855D02*
X5711279Y-11642855D01*
X5729100Y-11855082D02*
X5754100Y-11880082D01*
X5754100Y-11855082D02*
X5729100Y-11880082D01*
X5730235Y-4934194D02*
X5755235Y-4959194D01*
X5755235Y-4934194D02*
X5730235Y-4959194D01*
X5773500Y-8161500D02*
X5798500Y-8186500D01*
X5798500Y-8161500D02*
X5773500Y-8186500D01*
X5822500Y-8373000D02*
X5847500Y-8398000D01*
X5847500Y-8373000D02*
X5822500Y-8398000D01*
X5826500Y-5317500D02*
X5851500Y-5342500D01*
X5851500Y-5317500D02*
X5826500Y-5342500D01*
X5828500Y-5505500D02*
X5853500Y-5530500D01*
X5853500Y-5505500D02*
X5828500Y-5530500D01*
X5844500Y-12155500D02*
X5869500Y-12180500D01*
X5869500Y-12155500D02*
X5844500Y-12180500D01*
X5855500Y-10015501D02*
X5880500Y-10040501D01*
X5880500Y-10015501D02*
X5855500Y-10040501D01*
X5866500Y-10710500D02*
X5891500Y-10735500D01*
X5891500Y-10710500D02*
X5866500Y-10735500D01*
X5900500Y-9743500D02*
X5925500Y-9768500D01*
X5925500Y-9743500D02*
X5900500Y-9768500D01*
X5906500Y-11625500D02*
X5931500Y-11650500D01*
X5931500Y-11625500D02*
X5906500Y-11650500D01*
X5975500Y-5895501D02*
X6000500Y-5920501D01*
X6000500Y-5895501D02*
X5975500Y-5920501D01*
X6031500Y-6547500D02*
X6056500Y-6572500D01*
X6056500Y-6547500D02*
X6031500Y-6572500D01*
X6037500Y-8486500D02*
X6062500Y-8511500D01*
X6062500Y-8486500D02*
X6037500Y-8511500D01*
X6061500Y-5311500D02*
X6086500Y-5336500D01*
X6086500Y-5311500D02*
X6061500Y-5336500D01*
X6064500Y-9167500D02*
X6089500Y-9192500D01*
X6089500Y-9167500D02*
X6064500Y-9192500D01*
X6071933Y-9755215D02*
X6096933Y-9780215D01*
X6096933Y-9755215D02*
X6071933Y-9780215D01*
X6072500Y-8266500D02*
X6097500Y-8291500D01*
X6097500Y-8266500D02*
X6072500Y-8291500D01*
X6082500Y-12230500D02*
X6107500Y-12255500D01*
X6107500Y-12230500D02*
X6082500Y-12255500D01*
X6097500Y-10597500D02*
X6122500Y-10622500D01*
X6122500Y-10597500D02*
X6097500Y-10622500D01*
X6101996Y-11180260D02*
X6126996Y-11205260D01*
X6126996Y-11180260D02*
X6101996Y-11205260D01*
X6123500Y-6547500D02*
X6148500Y-6572500D01*
X6148500Y-6547500D02*
X6123500Y-6572500D01*
X6173064Y-9340626D02*
X6198064Y-9365626D01*
X6198064Y-9340626D02*
X6173064Y-9365626D01*
X6213496Y-6547500D02*
X6238496Y-6572500D01*
X6238496Y-6547500D02*
X6213496Y-6572500D01*
X6218979Y-11514056D02*
X6243979Y-11539056D01*
X6243979Y-11514056D02*
X6218979Y-11539056D01*
X6254500Y-7240621D02*
X6279500Y-7265621D01*
X6279500Y-7240621D02*
X6254500Y-7265621D01*
X6265500Y-12005501D02*
X6290500Y-12030501D01*
X6290500Y-12005501D02*
X6265500Y-12030501D01*
X6274418Y-7720621D02*
X6299418Y-7745621D01*
X6299418Y-7720621D02*
X6274418Y-7745621D01*
X6290500Y-6161500D02*
X6315500Y-6186500D01*
X6315500Y-6161500D02*
X6290500Y-6186500D01*
X6310500Y-7454500D02*
X6335500Y-7479500D01*
X6335500Y-7454500D02*
X6310500Y-7479500D01*
X6310500Y-7552500D02*
X6335500Y-7577500D01*
X6335500Y-7552500D02*
X6310500Y-7577500D01*
X6326500Y-7362500D02*
X6351500Y-7387500D01*
X6351500Y-7362500D02*
X6326500Y-7387500D01*
X6332500Y-12237500D02*
X6357500Y-12262500D01*
X6357500Y-12237500D02*
X6332500Y-12262500D01*
X6375500Y-8273750D02*
X6400500Y-8298750D01*
X6400500Y-8273750D02*
X6375500Y-8298750D01*
X6375500Y-8586500D02*
X6400500Y-8611500D01*
X6400500Y-8586500D02*
X6375500Y-8611500D01*
X6464500Y-6069500D02*
X6489500Y-6094500D01*
X6489500Y-6069500D02*
X6464500Y-6094500D01*
X6470500Y-8501250D02*
X6495500Y-8526250D01*
X6495500Y-8501250D02*
X6470500Y-8526250D01*
X6536500Y-8070500D02*
X6561500Y-8095500D01*
X6561500Y-8070500D02*
X6536500Y-8095500D01*
X6561500Y-8581500D02*
X6586500Y-8606500D01*
X6586500Y-8581500D02*
X6561500Y-8606500D01*
X6565500Y-8273750D02*
X6590500Y-8298750D01*
X6590500Y-8273750D02*
X6565500Y-8298750D01*
X6582500Y-12237500D02*
X6607500Y-12262500D01*
X6607500Y-12237500D02*
X6582500Y-12262500D01*
X6634500Y-8617500D02*
X6659500Y-8642500D01*
X6659500Y-8617500D02*
X6634500Y-8642500D01*
X6782500Y-6706500D02*
X6807500Y-6731500D01*
X6807500Y-6706500D02*
X6782500Y-6731500D01*
X6814805Y-7223805D02*
X6839805Y-7248805D01*
X6839805Y-7223805D02*
X6814805Y-7248805D01*
X6826500Y-7952500D02*
X6851500Y-7977500D01*
X6851500Y-7952500D02*
X6826500Y-7977500D01*
X6860500Y-5199500D02*
X6885500Y-5224500D01*
X6885500Y-5199500D02*
X6860500Y-5224500D01*
X6862557Y-5924132D02*
X6887557Y-5949132D01*
X6887557Y-5924132D02*
X6862557Y-5949132D01*
X6896573Y-8606391D02*
X6921573Y-8631391D01*
X6921573Y-8606391D02*
X6896573Y-8631391D01*
X6904338Y-8221857D02*
X6929338Y-8246857D01*
X6929338Y-8221857D02*
X6904338Y-8246857D01*
X6979500Y-5017930D02*
X7004500Y-5042930D01*
X7004500Y-5017930D02*
X6979500Y-5042930D01*
X7083500Y-5017880D02*
X7108500Y-5042880D01*
X7108500Y-5017880D02*
X7083500Y-5042880D01*
X7109500Y-5236500D02*
X7134500Y-5261500D01*
X7134500Y-5236500D02*
X7109500Y-5261500D01*
X7196500Y-9209500D02*
X7221500Y-9234500D01*
X7221500Y-9209500D02*
X7196500Y-9234500D01*
X7358500Y-8902500D02*
X7383500Y-8927500D01*
X7383500Y-8902500D02*
X7358500Y-8927500D01*
X7366500Y-8242500D02*
X7391500Y-8267500D01*
X7391500Y-8242500D02*
X7366500Y-8267500D01*
X7664500Y-8941500D02*
X7689500Y-8966500D01*
X7689500Y-8941500D02*
X7664500Y-8966500D01*
X7676500Y-11854500D02*
X7701500Y-11879500D01*
X7701500Y-11854500D02*
X7676500Y-11879500D01*
X8243500Y-6397500D02*
X8268500Y-6422500D01*
X8268500Y-6397500D02*
X8243500Y-6422500D01*
X8288500Y-7641500D02*
X8313500Y-7666500D01*
X8313500Y-7641500D02*
X8288500Y-7666500D01*
X8512500Y-5091500D02*
X8537500Y-5116500D01*
X8537500Y-5091500D02*
X8512500Y-5116500D01*
X8562500Y-9846500D02*
X8587500Y-9871500D01*
X8587500Y-9846500D02*
X8562500Y-9871500D01*
X8625500Y-7670500D02*
X8650500Y-7695500D01*
X8650500Y-7670500D02*
X8625500Y-7695500D01*
X8701500Y-6218500D02*
X8726500Y-6243500D01*
X8726500Y-6218500D02*
X8701500Y-6243500D01*
X8707750Y-4925500D02*
X8732750Y-4950500D01*
X8732750Y-4925500D02*
X8707750Y-4950500D01*
X8763091Y-9136244D02*
X8788091Y-9161244D01*
X8788091Y-9136244D02*
X8763091Y-9161244D01*
X8835500Y-4752500D02*
X8860500Y-4777500D01*
X8860500Y-4752500D02*
X8835500Y-4777500D01*
X8850531Y-8661444D02*
X8875531Y-8686444D01*
X8875531Y-8661444D02*
X8850531Y-8686444D01*
X8931500Y-11769500D02*
X8956500Y-11794500D01*
X8956500Y-11769500D02*
X8931500Y-11794500D01*
X8973500Y-6710500D02*
X8998500Y-6735500D01*
X8998500Y-6710500D02*
X8973500Y-6735500D01*
X8993355Y-10329717D02*
X9018355Y-10354717D01*
X9018355Y-10329717D02*
X8993355Y-10354717D01*
X8998500Y-7275500D02*
X9023500Y-7300500D01*
X9023500Y-7275500D02*
X8998500Y-7300500D01*
X9035500Y-5010500D02*
X9060500Y-5035500D01*
X9060500Y-5010500D02*
X9035500Y-5035500D01*
X9037500Y-4687500D02*
X9062500Y-4712500D01*
X9062500Y-4687500D02*
X9037500Y-4712500D01*
X9060500Y-6344500D02*
X9085500Y-6369500D01*
X9085500Y-6344500D02*
X9060500Y-6369500D01*
X9063393Y-8398352D02*
X9088393Y-8423352D01*
X9088393Y-8398352D02*
X9063393Y-8423352D01*
X9075500Y-8803500D02*
X9100500Y-8828500D01*
X9100500Y-8803500D02*
X9075500Y-8828500D01*
X9078500Y-9456500D02*
X9103500Y-9481500D01*
X9103500Y-9456500D02*
X9078500Y-9481500D01*
X9104500Y-7470500D02*
X9129500Y-7495500D01*
X9129500Y-7470500D02*
X9104500Y-7495500D01*
X9130425Y-6107500D02*
X9155425Y-6132500D01*
X9155425Y-6107500D02*
X9130425Y-6132500D01*
X9165302Y-10661509D02*
X9190302Y-10686509D01*
X9190302Y-10661509D02*
X9165302Y-10686509D01*
X9207500Y-4733500D02*
X9232500Y-4758500D01*
X9232500Y-4733500D02*
X9207500Y-4758500D01*
X9242101Y-10135689D02*
X9267101Y-10160689D01*
X9267101Y-10135689D02*
X9242101Y-10160689D01*
X9254214Y-8274308D02*
X9279214Y-8299308D01*
X9279214Y-8274308D02*
X9254214Y-8299308D01*
X9558500Y-4988500D02*
X9583500Y-5013500D01*
X9583500Y-4988500D02*
X9558500Y-5013500D01*
X9576500Y-9216750D02*
X9601500Y-9241750D01*
X9601500Y-9216750D02*
X9576500Y-9241750D01*
X9596333Y-8034000D02*
X9621333Y-8059000D01*
X9621333Y-8034000D02*
X9596333Y-8059000D01*
X9633500Y-9551500D02*
X9658500Y-9576500D01*
X9658500Y-9551500D02*
X9633500Y-9576500D01*
X9740500Y-10919500D02*
X9765500Y-10944500D01*
X9765500Y-10919500D02*
X9740500Y-10944500D01*
X9962500Y-12237500D02*
X9987500Y-12262500D01*
X9987500Y-12237500D02*
X9962500Y-12262500D01*
X10051500Y-5229500D02*
X10076500Y-5254500D01*
X10076500Y-5229500D02*
X10051500Y-5254500D01*
X10056500Y-11544500D02*
X10081500Y-11569500D01*
X10081500Y-11544500D02*
X10056500Y-11569500D01*
X10099500Y-7630500D02*
X10124500Y-7655500D01*
X10124500Y-7630500D02*
X10099500Y-7655500D01*
X10105500Y-11658500D02*
X10130500Y-11683500D01*
X10130500Y-11658500D02*
X10105500Y-11683500D01*
X10115500Y-5347500D02*
X10140500Y-5372500D01*
X10140500Y-5347500D02*
X10115500Y-5372500D01*
X10212500Y-12237500D02*
X10237500Y-12262500D01*
X10237500Y-12237500D02*
X10212500Y-12262500D01*
X10462089Y-12231506D02*
X10487089Y-12256506D01*
X10487089Y-12231506D02*
X10462089Y-12256506D01*
X10471250Y-7628500D02*
X10496250Y-7653500D01*
X10496250Y-7628500D02*
X10471250Y-7653500D01*
X10700102Y-12157363D02*
X10725102Y-12182363D01*
X10725102Y-12157363D02*
X10700102Y-12182363D01*
X10706500Y-11286501D02*
X10731500Y-11311501D01*
X10731500Y-11286501D02*
X10706500Y-11311501D01*
X10795500Y-10937750D02*
X10820500Y-10962750D01*
X10820500Y-10937750D02*
X10795500Y-10962750D01*
X10803500Y-8072500D02*
X10828500Y-8097500D01*
X10828500Y-8072500D02*
X10803500Y-8097500D01*
X10823161Y-7381050D02*
X10848161Y-7406050D01*
X10848161Y-7381050D02*
X10823161Y-7406050D01*
X10851185Y-11958371D02*
X10876185Y-11983371D01*
X10876185Y-11958371D02*
X10851185Y-11983371D01*
X10887607Y-10961123D02*
X10912607Y-10986123D01*
X10912607Y-10961123D02*
X10887607Y-10986123D01*
X10887607Y-11211123D02*
X10912607Y-11236123D01*
X10912607Y-11211123D02*
X10887607Y-11236123D01*
X10887607Y-11461123D02*
X10912607Y-11486123D01*
X10912607Y-11461123D02*
X10887607Y-11486123D01*
X10887607Y-11711123D02*
X10912607Y-11736123D01*
X10912607Y-11711123D02*
X10887607Y-11736123D01*
X10895882Y-10711180D02*
X10920882Y-10736180D01*
X10920882Y-10711180D02*
X10895882Y-10736180D01*
X10984500Y-9471500D02*
X11009500Y-9496500D01*
X11009500Y-9471500D02*
X10984500Y-9496500D01*
X10986500Y-8793500D02*
X11011500Y-8818500D01*
X11011500Y-8793500D02*
X10986500Y-8818500D01*
X10993423Y-10480728D02*
X11018423Y-10505728D01*
X11018423Y-10480728D02*
X10993423Y-10505728D01*
X11056063Y-6426403D02*
X11081063Y-6451403D01*
X11081063Y-6426403D02*
X11056063Y-6451403D01*
X11133440Y-6203452D02*
X11158440Y-6228452D01*
X11158440Y-6203452D02*
X11133440Y-6228452D01*
X11207786Y-10352451D02*
X11232786Y-10377451D01*
X11232786Y-10352451D02*
X11207786Y-10377451D01*
X11456960Y-10332506D02*
X11481960Y-10357506D01*
X11481960Y-10332506D02*
X11456960Y-10357506D01*
X11467500Y-9407500D02*
X11492500Y-9432500D01*
X11492500Y-9407500D02*
X11467500Y-9432500D01*
X11592260Y-9513996D02*
X11617260Y-9538996D01*
X11617260Y-9513996D02*
X11592260Y-9538996D01*
X11673750Y-5258500D02*
X11698750Y-5283500D01*
X11698750Y-5258500D02*
X11673750Y-5283500D01*
X11699090Y-10332506D02*
X11724090Y-10357506D01*
X11724090Y-10332506D02*
X11699090Y-10357506D01*
X11805000Y-7228750D02*
X11830000Y-7253750D01*
X11830000Y-7228750D02*
X11805000Y-7253750D01*
X11805000Y-7521250D02*
X11830000Y-7546250D01*
X11830000Y-7521250D02*
X11805000Y-7546250D01*
X11859500Y-5037500D02*
X11884500Y-5062500D01*
X11884500Y-5037500D02*
X11859500Y-5062500D01*
X11937500Y-7118500D02*
X11962500Y-7143500D01*
X11962500Y-7118500D02*
X11937500Y-7143500D01*
X11950535Y-9432978D02*
X11975535Y-9457978D01*
X11975535Y-9432978D02*
X11950535Y-9457978D01*
X12055000Y-7477500D02*
X12080000Y-7502500D01*
X12080000Y-7477500D02*
X12055000Y-7502500D01*
X12057500Y-5302500D02*
X12082500Y-5327500D01*
X12082500Y-5302500D02*
X12057500Y-5327500D01*
X12092500Y-7300000D02*
X12117500Y-7325000D01*
X12117500Y-7300000D02*
X12092500Y-7325000D01*
X12177500Y-7442500D02*
X12202500Y-7467500D01*
X12202500Y-7442500D02*
X12177500Y-7467500D01*
X12249500Y-7390000D02*
X12274500Y-7415000D01*
X12274500Y-7390000D02*
X12249500Y-7415000D01*
X12352500Y-10044500D02*
X12377500Y-10069500D01*
X12377500Y-10044500D02*
X12352500Y-10069500D01*
X12371500Y-8135500D02*
X12396500Y-8160500D01*
X12396500Y-8135500D02*
X12371500Y-8160500D01*
X12429189Y-8093958D02*
X12454189Y-8118958D01*
X12454189Y-8093958D02*
X12429189Y-8118958D01*
X12444136Y-8245246D02*
X12469136Y-8270246D01*
X12469136Y-8245246D02*
X12444136Y-8270246D01*
X12462942Y-6072376D02*
X12487942Y-6097376D01*
X12487942Y-6072376D02*
X12462942Y-6097376D01*
X12485000Y-6265000D02*
X12510000Y-6290000D01*
X12510000Y-6265000D02*
X12485000Y-6290000D01*
X12514500Y-8612500D02*
X12539500Y-8637500D01*
X12539500Y-8612500D02*
X12514500Y-8637500D01*
X12526500Y-6569500D02*
X12551500Y-6594500D01*
X12551500Y-6569500D02*
X12526500Y-6594500D01*
X12530500Y-6464500D02*
X12555500Y-6489500D01*
X12555500Y-6464500D02*
X12530500Y-6489500D01*
X12637500Y-7397500D02*
X12662500Y-7422500D01*
X12662500Y-7397500D02*
X12637500Y-7422500D01*
X12640500Y-9559500D02*
X12665500Y-9584500D01*
X12665500Y-9559500D02*
X12640500Y-9584500D01*
X12654500Y-8250500D02*
X12679500Y-8275500D01*
X12679500Y-8250500D02*
X12654500Y-8275500D01*
X12663500Y-8429950D02*
X12688500Y-8454950D01*
X12688500Y-8429950D02*
X12663500Y-8454950D01*
X12779500Y-6404000D02*
X12804500Y-6429000D01*
X12804500Y-6404000D02*
X12779500Y-6429000D01*
X12837500Y-7467500D02*
X12862500Y-7492500D01*
X12862500Y-7467500D02*
X12837500Y-7492500D01*
X12865000Y-6307500D02*
X12890000Y-6332500D01*
X12890000Y-6307500D02*
X12865000Y-6332500D01*
X12866500Y-6517500D02*
X12891500Y-6542500D01*
X12891500Y-6517500D02*
X12866500Y-6542500D01*
X12917500Y-9956500D02*
X12942500Y-9981500D01*
X12942500Y-9956500D02*
X12917500Y-9981500D01*
X12970500Y-6612500D02*
X12995500Y-6637500D01*
X12995500Y-6612500D02*
X12970500Y-6637500D01*
X12971750Y-6715750D02*
X12996750Y-6740750D01*
X12996750Y-6715750D02*
X12971750Y-6740750D01*
X12991568Y-6167718D02*
X13016568Y-6192718D01*
X13016568Y-6167718D02*
X12991568Y-6192718D01*
X13006500Y-6920500D02*
X13031500Y-6945500D01*
X13031500Y-6920500D02*
X13006500Y-6945500D01*
X13022091Y-6772950D02*
X13047091Y-6797950D01*
X13047091Y-6772950D02*
X13022091Y-6797950D01*
X13053568Y-6241718D02*
X13078568Y-6266718D01*
X13078568Y-6241718D02*
X13053568Y-6266718D01*
X13063987Y-7787926D02*
X13088987Y-7812926D01*
X13088987Y-7787926D02*
X13063987Y-7812926D01*
X13099500Y-10332500D02*
X13124500Y-10357500D01*
X13124500Y-10332500D02*
X13099500Y-10357500D01*
X13131270Y-5841646D02*
X13156270Y-5866646D01*
X13156270Y-5841646D02*
X13131270Y-5866646D01*
X13149500Y-6480501D02*
X13174500Y-6505501D01*
X13174500Y-6480501D02*
X13149500Y-6505501D01*
X13158500Y-5451500D02*
X13183500Y-5476500D01*
X13183500Y-5451500D02*
X13158500Y-5476500D01*
X13227500Y-6826500D02*
X13252500Y-6851500D01*
X13252500Y-6826500D02*
X13227500Y-6851500D01*
X13239500Y-5462500D02*
X13264500Y-5487500D01*
X13264500Y-5462500D02*
X13239500Y-5487500D01*
X13278500Y-6375500D02*
X13303500Y-6400500D01*
X13303500Y-6375500D02*
X13278500Y-6400500D01*
X13280500Y-6209501D02*
X13305500Y-6234501D01*
X13305500Y-6209501D02*
X13280500Y-6234501D01*
X13303500Y-5395500D02*
X13328500Y-5420500D01*
X13328500Y-5395500D02*
X13303500Y-5420500D01*
X13348473Y-5779331D02*
X13373473Y-5804331D01*
X13373473Y-5779331D02*
X13348473Y-5804331D01*
X13349500Y-10332500D02*
X13374500Y-10357500D01*
X13374500Y-10332500D02*
X13349500Y-10357500D01*
X13388568Y-5498718D02*
X13413568Y-5523718D01*
X13413568Y-5498718D02*
X13388568Y-5523718D01*
X13400523Y-6448950D02*
X13425523Y-6473950D01*
X13425523Y-6448950D02*
X13400523Y-6473950D01*
X13403110Y-5844445D02*
X13428110Y-5869445D01*
X13428110Y-5844445D02*
X13403110Y-5869445D01*
X13405500Y-5395500D02*
X13430500Y-5420500D01*
X13430500Y-5395500D02*
X13405500Y-5420500D01*
X13419500Y-7893500D02*
X13444500Y-7918500D01*
X13444500Y-7893500D02*
X13419500Y-7918500D01*
X13471630Y-6483663D02*
X13496630Y-6508663D01*
X13496630Y-6483663D02*
X13471630Y-6508663D01*
X13506526Y-5757669D02*
X13531526Y-5782669D01*
X13531526Y-5757669D02*
X13506526Y-5782669D01*
X13638500Y-5776500D02*
X13663500Y-5801500D01*
X13663500Y-5776500D02*
X13638500Y-5801500D01*
X13638500Y-7668500D02*
X13663500Y-7693500D01*
X13663500Y-7668500D02*
X13638500Y-7693500D01*
X13695450Y-5473050D02*
X13720450Y-5498050D01*
X13720450Y-5473050D02*
X13695450Y-5498050D01*
X13700736Y-5351002D02*
X13725736Y-5376002D01*
X13725736Y-5351002D02*
X13700736Y-5376002D01*
X13704500Y-5577500D02*
X13729500Y-5602500D01*
X13729500Y-5577500D02*
X13704500Y-5602500D01*
X13704500Y-5666500D02*
X13729500Y-5691500D01*
X13729500Y-5666500D02*
X13704500Y-5691500D01*
X13723521Y-5408610D02*
X13748521Y-5433610D01*
X13748521Y-5408610D02*
X13723521Y-5433610D01*
X13737656Y-5265902D02*
X13762656Y-5290902D01*
X13762656Y-5265902D02*
X13737656Y-5290902D01*
X13740500Y-6039501D02*
X13765500Y-6064501D01*
X13765500Y-6039501D02*
X13740500Y-6064501D01*
X13744500Y-4784500D02*
X13769500Y-4809500D01*
X13769500Y-4784500D02*
X13744500Y-4809500D01*
X13766500Y-6115501D02*
X13791500Y-6140501D01*
X13791500Y-6115501D02*
X13766500Y-6140501D01*
X13772955Y-5741908D02*
X13797955Y-5766908D01*
X13797955Y-5741908D02*
X13772955Y-5766908D01*
X13791500Y-4977500D02*
X13816500Y-5002500D01*
X13816500Y-4977500D02*
X13791500Y-5002500D01*
X13832311Y-5537153D02*
X13857311Y-5562153D01*
X13857311Y-5537153D02*
X13832311Y-5562153D01*
X13857500Y-6117500D02*
X13882500Y-6142500D01*
X13882500Y-6117500D02*
X13857500Y-6142500D01*
X13879500Y-5444500D02*
X13904500Y-5469500D01*
X13904500Y-5444500D02*
X13879500Y-5469500D01*
X13881671Y-5347762D02*
X13906671Y-5372762D01*
X13906671Y-5347762D02*
X13881671Y-5372762D01*
X13885000Y-5285000D02*
X13910000Y-5310000D01*
X13910000Y-5285000D02*
X13885000Y-5310000D01*
X13908500Y-5051500D02*
X13933500Y-5076500D01*
X13933500Y-5051500D02*
X13908500Y-5076500D01*
X13970500Y-6273500D02*
X13995500Y-6298500D01*
X13995500Y-6273500D02*
X13970500Y-6298500D01*
X13981950Y-5169639D02*
X14006950Y-5194639D01*
X14006950Y-5169639D02*
X13981950Y-5194639D01*
X13999500Y-5270501D02*
X14024500Y-5295501D01*
X14024500Y-5270501D02*
X13999500Y-5295501D01*
X14009817Y-5888817D02*
X14034817Y-5913817D01*
X14034817Y-5888817D02*
X14009817Y-5913817D01*
X14044150Y-5169639D02*
X14069150Y-5194639D01*
X14069150Y-5169639D02*
X14044150Y-5194639D01*
X14098772Y-5603539D02*
X14123772Y-5628539D01*
X14123772Y-5603539D02*
X14098772Y-5628539D01*
X14103500Y-5272412D02*
X14128500Y-5297412D01*
X14128500Y-5272412D02*
X14103500Y-5297412D01*
X14106100Y-5169639D02*
X14131100Y-5194639D01*
X14131100Y-5169639D02*
X14106100Y-5194639D01*
X14115000Y-5787500D02*
X14140000Y-5812500D01*
X14140000Y-5787500D02*
X14115000Y-5812500D01*
X14160723Y-5603539D02*
X14185723Y-5628539D01*
X14185723Y-5603539D02*
X14160723Y-5628539D01*
X14168050Y-5169639D02*
X14193050Y-5194639D01*
X14193050Y-5169639D02*
X14168050Y-5194639D01*
X14189422Y-5270501D02*
X14214422Y-5295501D01*
X14214422Y-5270501D02*
X14189422Y-5295501D01*
X14192500Y-6106501D02*
X14217500Y-6131501D01*
X14217500Y-6106501D02*
X14192500Y-6131501D01*
X14198500Y-4793500D02*
X14223500Y-4818500D01*
X14223500Y-4793500D02*
X14198500Y-4818500D01*
X14222673Y-5603539D02*
X14247673Y-5628539D01*
X14247673Y-5603539D02*
X14222673Y-5628539D01*
X14252500Y-6193500D02*
X14277500Y-6218500D01*
X14277500Y-6193500D02*
X14252500Y-6218500D01*
X14257000Y-5153569D02*
X14282000Y-5178569D01*
X14282000Y-5153569D02*
X14257000Y-5178569D01*
X14264640Y-4975726D02*
X14289640Y-5000726D01*
X14289640Y-4975726D02*
X14264640Y-5000726D01*
X14283067Y-5617339D02*
X14308067Y-5642339D01*
X14308067Y-5617339D02*
X14283067Y-5642339D01*
X14312500Y-6135500D02*
X14337500Y-6160500D01*
X14337500Y-6135500D02*
X14312500Y-6160500D01*
X14314500Y-5785501D02*
X14339500Y-5810501D01*
X14339500Y-5785501D02*
X14314500Y-5810501D01*
X14332500Y-5580000D02*
X14357500Y-5605000D01*
X14357500Y-5580000D02*
X14332500Y-5605000D01*
X14338500Y-5963501D02*
X14363500Y-5988501D01*
X14363500Y-5963501D02*
X14338500Y-5988501D01*
X14365000Y-5355000D02*
X14390000Y-5380000D01*
X14390000Y-5355000D02*
X14365000Y-5380000D01*
X14367500Y-5650000D02*
X14392500Y-5675000D01*
X14392500Y-5650000D02*
X14367500Y-5675000D01*
X14376500Y-5112500D02*
X14401500Y-5137500D01*
X14401500Y-5112500D02*
X14376500Y-5137500D01*
X14389500Y-6087500D02*
X14414500Y-6112500D01*
X14414500Y-6087500D02*
X14389500Y-6112500D01*
X14390500Y-5791500D02*
X14415500Y-5816500D01*
X14415500Y-5791500D02*
X14390500Y-5816500D01*
X14489500Y-5561950D02*
X14514500Y-5586950D01*
X14514500Y-5561950D02*
X14489500Y-5586950D01*
X14492500Y-5200500D02*
X14517500Y-5225500D01*
X14517500Y-5200500D02*
X14492500Y-5225500D01*
X14502500Y-5335000D02*
X14527500Y-5360000D01*
X14527500Y-5335000D02*
X14502500Y-5360000D01*
X14572500Y-5622500D02*
X14597500Y-5647500D01*
X14597500Y-5622500D02*
X14572500Y-5647500D01*
X14573500Y-5697500D02*
X14598500Y-5722500D01*
X14598500Y-5697500D02*
X14573500Y-5722500D01*
X14744500Y-4628500D02*
X14769500Y-4653500D01*
X14769500Y-4628500D02*
X14744500Y-4653500D01*
X14816426Y-10332500D02*
X14841426Y-10357500D01*
X14841426Y-10332500D02*
X14816426Y-10357500D01*
X14819500Y-9948500D02*
X14844500Y-9973500D01*
X14844500Y-9948500D02*
X14819500Y-9973500D01*
X14906469Y-9803281D02*
X14931469Y-9828281D01*
X14931469Y-9803281D02*
X14906469Y-9828281D01*
X14907896Y-9675386D02*
X14932896Y-9700386D01*
X14932896Y-9675386D02*
X14907896Y-9700386D01*
X14944500Y-4628500D02*
X14969500Y-4653500D01*
X14969500Y-4628500D02*
X14944500Y-4653500D01*
X15045500Y-5495501D02*
X15070500Y-5520501D01*
X15070500Y-5495501D02*
X15045500Y-5520501D01*
X15045500Y-5665501D02*
X15070500Y-5690501D01*
X15070500Y-5665501D02*
X15045500Y-5690501D01*
X15066426Y-10332500D02*
X15091426Y-10357500D01*
X15091426Y-10332500D02*
X15066426Y-10357500D01*
X15144500Y-4628500D02*
X15169500Y-4653500D01*
X15169500Y-4628500D02*
X15144500Y-4653500D01*
X15153500Y-10040500D02*
X15178500Y-10065500D01*
X15178500Y-10040500D02*
X15153500Y-10065500D01*
X15197985Y-7533163D02*
X15222985Y-7558163D01*
X15222985Y-7533163D02*
X15197985Y-7558163D01*
X15261250Y-9720500D02*
X15286250Y-9745500D01*
X15286250Y-9720500D02*
X15261250Y-9745500D01*
X15340407Y-7217079D02*
X15365407Y-7242079D01*
X15365407Y-7217079D02*
X15340407Y-7242079D01*
X15344500Y-4628500D02*
X15369500Y-4653500D01*
X15369500Y-4628500D02*
X15344500Y-4653500D01*
X15544500Y-4628500D02*
X15569500Y-4653500D01*
X15569500Y-4628500D02*
X15544500Y-4653500D01*
X15644644Y-7975725D02*
X15669644Y-8000725D01*
X15669644Y-7975725D02*
X15644644Y-8000725D01*
X15677500Y-8652500D02*
X15702500Y-8677500D01*
X15702500Y-8652500D02*
X15677500Y-8677500D01*
X15744500Y-4628500D02*
X15769500Y-4653500D01*
X15769500Y-4628500D02*
X15744500Y-4653500D01*
X15906500Y-8045500D02*
X15931500Y-8070500D01*
X15931500Y-8045500D02*
X15906500Y-8070500D01*
X15944500Y-4628500D02*
X15969500Y-4653500D01*
X15969500Y-4628500D02*
X15944500Y-4653500D01*
X15984500Y-9969500D02*
X16009500Y-9994500D01*
X16009500Y-9969500D02*
X15984500Y-9994500D01*
X16144500Y-4628500D02*
X16169500Y-4653500D01*
X16169500Y-4628500D02*
X16144500Y-4653500D01*
X16245500Y-9971500D02*
X16270500Y-9996500D01*
X16270500Y-9971500D02*
X16245500Y-9996500D01*
X16304500Y-4749500D02*
X16329500Y-4774500D01*
X16329500Y-4749500D02*
X16304500Y-4774500D01*
X16304500Y-4949500D02*
X16329500Y-4974500D01*
X16329500Y-4949500D02*
X16304500Y-4974500D01*
X16304500Y-5149500D02*
X16329500Y-5174500D01*
X16329500Y-5149500D02*
X16304500Y-5174500D01*
X16304500Y-5513500D02*
X16329500Y-5538500D01*
X16329500Y-5513500D02*
X16304500Y-5538500D01*
X16304500Y-5713500D02*
X16329500Y-5738500D01*
X16329500Y-5713500D02*
X16304500Y-5738500D01*
X16304500Y-5913500D02*
X16329500Y-5938500D01*
X16329500Y-5913500D02*
X16304500Y-5938500D01*
X16304500Y-6113500D02*
X16329500Y-6138500D01*
X16329500Y-6113500D02*
X16304500Y-6138500D01*
X16304500Y-6313500D02*
X16329500Y-6338500D01*
X16329500Y-6313500D02*
X16304500Y-6338500D01*
X16304500Y-6513500D02*
X16329500Y-6538500D01*
X16329500Y-6513500D02*
X16304500Y-6538500D01*
X16304500Y-6713500D02*
X16329500Y-6738500D01*
X16329500Y-6713500D02*
X16304500Y-6738500D01*
X16479500Y-6810500D02*
X16504500Y-6835500D01*
X16504500Y-6810500D02*
X16479500Y-6835500D01*
X16482500Y-10332500D02*
X16507500Y-10357500D01*
X16507500Y-10332500D02*
X16482500Y-10357500D01*
X16679500Y-6810500D02*
X16704500Y-6835500D01*
X16704500Y-6810500D02*
X16679500Y-6835500D01*
X16679514Y-7261638D02*
X16704514Y-7286638D01*
X16704514Y-7261638D02*
X16679514Y-7286638D01*
X16731805Y-10313958D02*
X16756805Y-10338958D01*
X16756805Y-10313958D02*
X16731805Y-10338958D01*
X16780500Y-9564500D02*
X16805500Y-9589500D01*
X16805500Y-9564500D02*
X16780500Y-9589500D01*
X16845500Y-9180500D02*
X16870500Y-9205500D01*
X16870500Y-9180500D02*
X16845500Y-9205500D01*
X16879500Y-6810500D02*
X16904500Y-6835500D01*
X16904500Y-6810500D02*
X16879500Y-6835500D01*
X16954973Y-10201306D02*
X16979973Y-10226306D01*
X16979973Y-10201306D02*
X16954973Y-10226306D01*
X17062381Y-9975732D02*
X17087381Y-10000732D01*
X17087381Y-9975732D02*
X17062381Y-10000732D01*
X17079276Y-6976270D02*
X17104276Y-7001270D01*
X17104276Y-6976270D02*
X17079276Y-7001270D01*
X17079276Y-7226270D02*
X17104276Y-7251270D01*
X17104276Y-7226270D02*
X17079276Y-7251270D01*
X17079276Y-7476270D02*
X17104276Y-7501270D01*
X17104276Y-7476270D02*
X17079276Y-7501270D01*
X17079276Y-7726270D02*
X17104276Y-7751270D01*
X17104276Y-7726270D02*
X17079276Y-7751270D01*
X17079276Y-7976270D02*
X17104276Y-8001270D01*
X17104276Y-7976270D02*
X17079276Y-8001270D01*
X17079276Y-8226270D02*
X17104276Y-8251270D01*
X17104276Y-8226270D02*
X17079276Y-8251270D01*
X17079276Y-8476270D02*
X17104276Y-8501270D01*
X17104276Y-8476270D02*
X17079276Y-8501270D01*
X17079276Y-8726270D02*
X17104276Y-8751270D01*
X17104276Y-8726270D02*
X17079276Y-8751270D01*
X17079276Y-8976270D02*
X17104276Y-9001270D01*
X17104276Y-8976270D02*
X17079276Y-9001270D01*
X17079276Y-9226270D02*
X17104276Y-9251270D01*
X17104276Y-9226270D02*
X17079276Y-9251270D01*
X17079276Y-9476270D02*
X17104276Y-9501270D01*
X17104276Y-9476270D02*
X17079276Y-9501270D01*
X17079276Y-9726270D02*
X17104276Y-9751270D01*
X17104276Y-9726270D02*
X17079276Y-9751270D01*
X17079500Y-6810500D02*
X17104500Y-6835500D01*
X17104500Y-6810500D02*
X17079500Y-6835500D01*
D15*
X7135000Y-10817500D02*
G75*
G03*
X7135000Y-10817500I-25000J0D01*
G01*
X7455000Y-9517500D02*
G75*
G03*
X7455000Y-9517500I-25000J0D01*
G01*
X8355000Y-6847500D02*
G75*
G03*
X8355000Y-6847500I-25000J0D01*
G01*
X8515000Y-5535000D02*
G75*
G03*
X8515000Y-5535000I-25000J0D01*
G01*
X8715000Y-10802500D02*
G75*
G03*
X8715000Y-10802500I-25000J0D01*
G01*
X9764158Y-8975339D02*
G75*
G03*
X9764158Y-8975339I-25000J0D01*
G01*
X10232500Y-6997500D02*
G75*
G03*
X10232500Y-6997500I-25000J0D01*
G01*
X10587500Y-10515000D02*
G75*
G03*
X10587500Y-10515000I-25000J0D01*
G01*
X11672500Y-5812500D02*
G75*
G03*
X11672500Y-5812500I-25000J0D01*
G01*
X12135000Y-8890000D02*
G75*
G03*
X12135000Y-8890000I-25000J0D01*
G01*
X13356000Y-8341000D02*
G75*
G03*
X13356000Y-8341000I-25000J0D01*
G01*
X14692500Y-7405000D02*
G75*
G03*
X14692500Y-7405000I-25000J0D01*
G01*
X14847644Y-9088030D02*
G75*
G03*
X14847644Y-9088030I-25000J0D01*
G01*
X16762500Y-8805000D02*
G75*
G03*
X16762500Y-8805000I-25000J0D01*
G01*
D16*
X5736918Y-6905591D02*
X5736918Y-6965591D01*
X5706918Y-6935591D02*
X5766918Y-6935591D01*
D13*
X5796918Y-6905591D02*
X5676918Y-6905591D01*
X5796918Y-6965591D02*
X5676918Y-6965591D01*
X5676918Y-6905591D02*
G75*
G03*
X5676918Y-6965591I0J-30000D01*
G01*
X5796918Y-6965591D02*
G75*
G03*
X5796918Y-6905591I0J30000D01*
G01*
D16*
X5736918Y-8020651D02*
X5736918Y-8080651D01*
X5706918Y-8050651D02*
X5766918Y-8050651D01*
D13*
X5796918Y-8020651D02*
X5676918Y-8020651D01*
X5796918Y-8080651D02*
X5676918Y-8080651D01*
X5676918Y-8020651D02*
G75*
G03*
X5676918Y-8080651I0J-30000D01*
G01*
X5796918Y-8080651D02*
G75*
G03*
X5796918Y-8020651I0J30000D01*
G01*
D16*
X6116918Y-6905591D02*
X6116918Y-6965591D01*
X6086918Y-6935591D02*
X6146918Y-6935591D01*
D13*
X6156918Y-6905591D02*
X6076918Y-6905591D01*
X6156918Y-6965591D02*
X6076918Y-6965591D01*
X6076918Y-6905591D02*
G75*
G03*
X6076918Y-6965591I0J-30000D01*
G01*
X6156918Y-6965591D02*
G75*
G03*
X6156918Y-6905591I0J30000D01*
G01*
D16*
X6116918Y-8020681D02*
X6116918Y-8080681D01*
X6086918Y-8050681D02*
X6146918Y-8050681D01*
D13*
X6156918Y-8020681D02*
X6076918Y-8020681D01*
X6156918Y-8080681D02*
X6076918Y-8080681D01*
X6076918Y-8020681D02*
G75*
G03*
X6076918Y-8080681I0J-30000D01*
G01*
X6156918Y-8080681D02*
G75*
G03*
X6156918Y-8020681I0J30000D01*
G01*
X5873035Y-12617810D02*
X5873035Y-12417810D01*
X5920654Y-12417810D01*
X5949225Y-12427334D01*
X5968273Y-12446382D01*
X5977797Y-12465430D01*
X5987321Y-12503525D01*
X5987321Y-12532096D01*
X5977797Y-12570191D01*
X5968273Y-12589239D01*
X5949225Y-12608287D01*
X5920654Y-12617810D01*
X5873035Y-12617810D01*
X6073035Y-12617810D02*
X6073035Y-12484477D01*
X6073035Y-12522572D02*
X6082559Y-12503525D01*
X6092082Y-12494001D01*
X6111130Y-12484477D01*
X6130178Y-12484477D01*
X6196844Y-12617810D02*
X6196844Y-12484477D01*
X6196844Y-12417810D02*
X6187321Y-12427334D01*
X6196844Y-12436858D01*
X6206368Y-12427334D01*
X6196844Y-12417810D01*
X6196844Y-12436858D01*
X6320654Y-12617810D02*
X6301606Y-12608287D01*
X6292082Y-12589239D01*
X6292082Y-12417810D01*
X6425416Y-12617810D02*
X6406368Y-12608287D01*
X6396844Y-12589239D01*
X6396844Y-12417810D01*
X6653987Y-12617810D02*
X6653987Y-12417810D01*
X6720654Y-12560668D01*
X6787321Y-12417810D01*
X6787321Y-12617810D01*
X6968273Y-12617810D02*
X6968273Y-12513049D01*
X6958749Y-12494001D01*
X6939702Y-12484477D01*
X6901606Y-12484477D01*
X6882559Y-12494001D01*
X6968273Y-12608287D02*
X6949225Y-12617810D01*
X6901606Y-12617810D01*
X6882559Y-12608287D01*
X6873035Y-12589239D01*
X6873035Y-12570191D01*
X6882559Y-12551144D01*
X6901606Y-12541620D01*
X6949225Y-12541620D01*
X6968273Y-12532096D01*
X7063511Y-12484477D02*
X7063511Y-12684477D01*
X7063511Y-12494001D02*
X7082559Y-12484477D01*
X7120654Y-12484477D01*
X7139702Y-12494001D01*
X7149225Y-12503525D01*
X7158749Y-12522572D01*
X7158749Y-12579715D01*
X7149225Y-12598763D01*
X7139702Y-12608287D01*
X7120654Y-12617810D01*
X7082559Y-12617810D01*
X7063511Y-12608287D01*
X7244463Y-12598763D02*
X7253987Y-12608287D01*
X7244463Y-12617810D01*
X7234940Y-12608287D01*
X7244463Y-12598763D01*
X7244463Y-12617810D01*
X7244463Y-12494001D02*
X7253987Y-12503525D01*
X7244463Y-12513049D01*
X7234940Y-12503525D01*
X7244463Y-12494001D01*
X7244463Y-12513049D01*
D14*
X5590416Y-12934834D02*
X5615416Y-12959834D01*
X5615416Y-12934834D02*
X5590416Y-12959834D01*
D13*
X5911130Y-12837810D02*
X5930178Y-12837810D01*
X5949225Y-12847334D01*
X5958749Y-12856858D01*
X5968273Y-12875906D01*
X5977797Y-12914001D01*
X5977797Y-12961620D01*
X5968273Y-12999715D01*
X5958749Y-13018763D01*
X5949225Y-13028287D01*
X5930178Y-13037810D01*
X5911130Y-13037810D01*
X5892082Y-13028287D01*
X5882559Y-13018763D01*
X5873035Y-12999715D01*
X5863511Y-12961620D01*
X5863511Y-12914001D01*
X5873035Y-12875906D01*
X5882559Y-12856858D01*
X5892082Y-12847334D01*
X5911130Y-12837810D01*
X6063511Y-13018763D02*
X6073035Y-13028287D01*
X6063511Y-13037810D01*
X6053987Y-13028287D01*
X6063511Y-13018763D01*
X6063511Y-13037810D01*
X6149225Y-12856858D02*
X6158749Y-12847334D01*
X6177797Y-12837810D01*
X6225416Y-12837810D01*
X6244463Y-12847334D01*
X6253987Y-12856858D01*
X6263511Y-12875906D01*
X6263511Y-12894953D01*
X6253987Y-12923525D01*
X6139702Y-13037810D01*
X6263511Y-13037810D01*
X6444463Y-12837810D02*
X6349225Y-12837810D01*
X6339702Y-12933049D01*
X6349225Y-12923525D01*
X6368273Y-12914001D01*
X6415892Y-12914001D01*
X6434940Y-12923525D01*
X6444463Y-12933049D01*
X6453987Y-12952096D01*
X6453987Y-12999715D01*
X6444463Y-13018763D01*
X6434940Y-13028287D01*
X6415892Y-13037810D01*
X6368273Y-13037810D01*
X6349225Y-13028287D01*
X6339702Y-13018763D01*
X6577797Y-12837810D02*
X6596844Y-12837810D01*
X6615892Y-12847334D01*
X6625416Y-12856858D01*
X6634940Y-12875906D01*
X6644463Y-12914001D01*
X6644463Y-12961620D01*
X6634940Y-12999715D01*
X6625416Y-13018763D01*
X6615892Y-13028287D01*
X6596844Y-13037810D01*
X6577797Y-13037810D01*
X6558749Y-13028287D01*
X6549225Y-13018763D01*
X6539702Y-12999715D01*
X6530178Y-12961620D01*
X6530178Y-12914001D01*
X6539702Y-12875906D01*
X6549225Y-12856858D01*
X6558749Y-12847334D01*
X6577797Y-12837810D01*
X6730178Y-13037810D02*
X6730178Y-12904477D01*
X6730178Y-12923525D02*
X6739702Y-12914001D01*
X6758749Y-12904477D01*
X6787321Y-12904477D01*
X6806368Y-12914001D01*
X6815892Y-12933049D01*
X6815892Y-13037810D01*
X6815892Y-12933049D02*
X6825416Y-12914001D01*
X6844463Y-12904477D01*
X6873035Y-12904477D01*
X6892082Y-12914001D01*
X6901606Y-12933049D01*
X6901606Y-13037810D01*
X6996844Y-13037810D02*
X6996844Y-12904477D01*
X6996844Y-12923525D02*
X7006368Y-12914001D01*
X7025416Y-12904477D01*
X7053987Y-12904477D01*
X7073035Y-12914001D01*
X7082559Y-12933049D01*
X7082559Y-13037810D01*
X7082559Y-12933049D02*
X7092082Y-12914001D01*
X7111130Y-12904477D01*
X7139702Y-12904477D01*
X7158749Y-12914001D01*
X7168273Y-12933049D01*
X7168273Y-13037810D01*
X7558749Y-12828287D02*
X7387321Y-13085430D01*
X7815892Y-12837810D02*
X7834940Y-12837810D01*
X7853987Y-12847334D01*
X7863511Y-12856858D01*
X7873035Y-12875906D01*
X7882559Y-12914001D01*
X7882559Y-12961620D01*
X7873035Y-12999715D01*
X7863511Y-13018763D01*
X7853987Y-13028287D01*
X7834940Y-13037810D01*
X7815892Y-13037810D01*
X7796844Y-13028287D01*
X7787321Y-13018763D01*
X7777797Y-12999715D01*
X7768273Y-12961620D01*
X7768273Y-12914001D01*
X7777797Y-12875906D01*
X7787321Y-12856858D01*
X7796844Y-12847334D01*
X7815892Y-12837810D01*
X7968273Y-13018763D02*
X7977797Y-13028287D01*
X7968273Y-13037810D01*
X7958749Y-13028287D01*
X7968273Y-13018763D01*
X7968273Y-13037810D01*
X8101606Y-12837810D02*
X8120654Y-12837810D01*
X8139702Y-12847334D01*
X8149225Y-12856858D01*
X8158749Y-12875906D01*
X8168273Y-12914001D01*
X8168273Y-12961620D01*
X8158749Y-12999715D01*
X8149225Y-13018763D01*
X8139702Y-13028287D01*
X8120654Y-13037810D01*
X8101606Y-13037810D01*
X8082559Y-13028287D01*
X8073035Y-13018763D01*
X8063511Y-12999715D01*
X8053987Y-12961620D01*
X8053987Y-12914001D01*
X8063511Y-12875906D01*
X8073035Y-12856858D01*
X8082559Y-12847334D01*
X8101606Y-12837810D01*
X8292082Y-12837810D02*
X8311130Y-12837810D01*
X8330178Y-12847334D01*
X8339702Y-12856858D01*
X8349225Y-12875906D01*
X8358749Y-12914001D01*
X8358749Y-12961620D01*
X8349225Y-12999715D01*
X8339702Y-13018763D01*
X8330178Y-13028287D01*
X8311130Y-13037810D01*
X8292082Y-13037810D01*
X8273035Y-13028287D01*
X8263511Y-13018763D01*
X8253987Y-12999715D01*
X8244463Y-12961620D01*
X8244463Y-12914001D01*
X8253987Y-12875906D01*
X8263511Y-12856858D01*
X8273035Y-12847334D01*
X8292082Y-12837810D01*
X8453987Y-13037810D02*
X8492083Y-13037810D01*
X8511130Y-13028287D01*
X8520654Y-13018763D01*
X8539702Y-12990191D01*
X8549225Y-12952096D01*
X8549225Y-12875906D01*
X8539702Y-12856858D01*
X8530178Y-12847334D01*
X8511130Y-12837810D01*
X8473035Y-12837810D01*
X8453987Y-12847334D01*
X8444464Y-12856858D01*
X8434940Y-12875906D01*
X8434940Y-12923525D01*
X8444464Y-12942572D01*
X8453987Y-12952096D01*
X8473035Y-12961620D01*
X8511130Y-12961620D01*
X8530178Y-12952096D01*
X8539702Y-12942572D01*
X8549225Y-12923525D01*
X8663511Y-12923525D02*
X8644464Y-12914001D01*
X8634940Y-12904477D01*
X8625416Y-12885430D01*
X8625416Y-12875906D01*
X8634940Y-12856858D01*
X8644464Y-12847334D01*
X8663511Y-12837810D01*
X8701606Y-12837810D01*
X8720654Y-12847334D01*
X8730178Y-12856858D01*
X8739702Y-12875906D01*
X8739702Y-12885430D01*
X8730178Y-12904477D01*
X8720654Y-12914001D01*
X8701606Y-12923525D01*
X8663511Y-12923525D01*
X8644464Y-12933049D01*
X8634940Y-12942572D01*
X8625416Y-12961620D01*
X8625416Y-12999715D01*
X8634940Y-13018763D01*
X8644464Y-13028287D01*
X8663511Y-13037810D01*
X8701606Y-13037810D01*
X8720654Y-13028287D01*
X8730178Y-13018763D01*
X8739702Y-12999715D01*
X8739702Y-12961620D01*
X8730178Y-12942572D01*
X8720654Y-12933049D01*
X8701606Y-12923525D01*
X8815892Y-12837810D02*
X8815892Y-12875906D01*
X8892083Y-12837810D02*
X8892083Y-12875906D01*
X9187321Y-13114001D02*
X9177797Y-13104477D01*
X9158749Y-13075906D01*
X9149225Y-13056858D01*
X9139702Y-13028287D01*
X9130178Y-12980668D01*
X9130178Y-12942572D01*
X9139702Y-12894953D01*
X9149225Y-12866382D01*
X9158749Y-12847334D01*
X9177797Y-12818763D01*
X9187321Y-12809239D01*
X9244464Y-12837810D02*
X9368273Y-12837810D01*
X9301606Y-12914001D01*
X9330178Y-12914001D01*
X9349225Y-12923525D01*
X9358749Y-12933049D01*
X9368273Y-12952096D01*
X9368273Y-12999715D01*
X9358749Y-13018763D01*
X9349225Y-13028287D01*
X9330178Y-13037810D01*
X9273035Y-13037810D01*
X9253987Y-13028287D01*
X9244464Y-13018763D01*
X9444464Y-12856858D02*
X9453987Y-12847334D01*
X9473035Y-12837810D01*
X9520654Y-12837810D01*
X9539702Y-12847334D01*
X9549225Y-12856858D01*
X9558749Y-12875906D01*
X9558749Y-12894953D01*
X9549225Y-12923525D01*
X9434940Y-13037810D01*
X9558749Y-13037810D01*
X9730178Y-12837810D02*
X9692083Y-12837810D01*
X9673035Y-12847334D01*
X9663511Y-12856858D01*
X9644464Y-12885430D01*
X9634940Y-12923525D01*
X9634940Y-12999715D01*
X9644464Y-13018763D01*
X9653987Y-13028287D01*
X9673035Y-13037810D01*
X9711130Y-13037810D01*
X9730178Y-13028287D01*
X9739702Y-13018763D01*
X9749225Y-12999715D01*
X9749225Y-12952096D01*
X9739702Y-12933049D01*
X9730178Y-12923525D01*
X9711130Y-12914001D01*
X9673035Y-12914001D01*
X9653987Y-12923525D01*
X9644464Y-12933049D01*
X9634940Y-12952096D01*
X9987321Y-13037810D02*
X9987321Y-12837810D01*
X10073035Y-13037810D02*
X10073035Y-12933049D01*
X10063511Y-12914001D01*
X10044464Y-12904477D01*
X10015892Y-12904477D01*
X9996844Y-12914001D01*
X9987321Y-12923525D01*
X10196844Y-13037810D02*
X10177797Y-13028287D01*
X10168273Y-13018763D01*
X10158749Y-12999715D01*
X10158749Y-12942572D01*
X10168273Y-12923525D01*
X10177797Y-12914001D01*
X10196844Y-12904477D01*
X10225416Y-12904477D01*
X10244464Y-12914001D01*
X10253987Y-12923525D01*
X10263511Y-12942572D01*
X10263511Y-12999715D01*
X10253987Y-13018763D01*
X10244464Y-13028287D01*
X10225416Y-13037810D01*
X10196844Y-13037810D01*
X10377797Y-13037810D02*
X10358749Y-13028287D01*
X10349225Y-13009239D01*
X10349225Y-12837810D01*
X10530178Y-13028287D02*
X10511130Y-13037810D01*
X10473035Y-13037810D01*
X10453987Y-13028287D01*
X10444464Y-13009239D01*
X10444464Y-12933049D01*
X10453987Y-12914001D01*
X10473035Y-12904477D01*
X10511130Y-12904477D01*
X10530178Y-12914001D01*
X10539702Y-12933049D01*
X10539702Y-12952096D01*
X10444464Y-12971144D01*
X10615892Y-13028287D02*
X10634940Y-13037810D01*
X10673035Y-13037810D01*
X10692083Y-13028287D01*
X10701606Y-13009239D01*
X10701606Y-12999715D01*
X10692083Y-12980668D01*
X10673035Y-12971144D01*
X10644464Y-12971144D01*
X10625416Y-12961620D01*
X10615892Y-12942572D01*
X10615892Y-12933049D01*
X10625416Y-12914001D01*
X10644464Y-12904477D01*
X10673035Y-12904477D01*
X10692083Y-12914001D01*
X10768273Y-13114001D02*
X10777797Y-13104477D01*
X10796844Y-13075906D01*
X10806368Y-13056858D01*
X10815892Y-13028287D01*
X10825416Y-12980668D01*
X10825416Y-12942572D01*
X10815892Y-12894953D01*
X10806368Y-12866382D01*
X10796844Y-12847334D01*
X10777797Y-12818763D01*
X10768273Y-12809239D01*
D15*
X5615416Y-13211334D02*
G75*
G03*
X5615416Y-13211334I-25000J0D01*
G01*
D13*
X5911130Y-13101810D02*
X5930178Y-13101810D01*
X5949225Y-13111334D01*
X5958749Y-13120858D01*
X5968273Y-13139906D01*
X5977797Y-13178001D01*
X5977797Y-13225620D01*
X5968273Y-13263715D01*
X5958749Y-13282763D01*
X5949225Y-13292287D01*
X5930178Y-13301810D01*
X5911130Y-13301810D01*
X5892082Y-13292287D01*
X5882559Y-13282763D01*
X5873035Y-13263715D01*
X5863511Y-13225620D01*
X5863511Y-13178001D01*
X5873035Y-13139906D01*
X5882559Y-13120858D01*
X5892082Y-13111334D01*
X5911130Y-13101810D01*
X6063511Y-13282763D02*
X6073035Y-13292287D01*
X6063511Y-13301810D01*
X6053987Y-13292287D01*
X6063511Y-13282763D01*
X6063511Y-13301810D01*
X6253987Y-13101810D02*
X6158749Y-13101810D01*
X6149225Y-13197049D01*
X6158749Y-13187525D01*
X6177797Y-13178001D01*
X6225416Y-13178001D01*
X6244463Y-13187525D01*
X6253987Y-13197049D01*
X6263511Y-13216096D01*
X6263511Y-13263715D01*
X6253987Y-13282763D01*
X6244463Y-13292287D01*
X6225416Y-13301810D01*
X6177797Y-13301810D01*
X6158749Y-13292287D01*
X6149225Y-13282763D01*
X6387321Y-13101810D02*
X6406368Y-13101810D01*
X6425416Y-13111334D01*
X6434940Y-13120858D01*
X6444463Y-13139906D01*
X6453987Y-13178001D01*
X6453987Y-13225620D01*
X6444463Y-13263715D01*
X6434940Y-13282763D01*
X6425416Y-13292287D01*
X6406368Y-13301810D01*
X6387321Y-13301810D01*
X6368273Y-13292287D01*
X6358749Y-13282763D01*
X6349225Y-13263715D01*
X6339702Y-13225620D01*
X6339702Y-13178001D01*
X6349225Y-13139906D01*
X6358749Y-13120858D01*
X6368273Y-13111334D01*
X6387321Y-13101810D01*
X6577797Y-13101810D02*
X6596844Y-13101810D01*
X6615892Y-13111334D01*
X6625416Y-13120858D01*
X6634940Y-13139906D01*
X6644463Y-13178001D01*
X6644463Y-13225620D01*
X6634940Y-13263715D01*
X6625416Y-13282763D01*
X6615892Y-13292287D01*
X6596844Y-13301810D01*
X6577797Y-13301810D01*
X6558749Y-13292287D01*
X6549225Y-13282763D01*
X6539702Y-13263715D01*
X6530178Y-13225620D01*
X6530178Y-13178001D01*
X6539702Y-13139906D01*
X6549225Y-13120858D01*
X6558749Y-13111334D01*
X6577797Y-13101810D01*
X6730178Y-13301810D02*
X6730178Y-13168477D01*
X6730178Y-13187525D02*
X6739702Y-13178001D01*
X6758749Y-13168477D01*
X6787321Y-13168477D01*
X6806368Y-13178001D01*
X6815892Y-13197049D01*
X6815892Y-13301810D01*
X6815892Y-13197049D02*
X6825416Y-13178001D01*
X6844463Y-13168477D01*
X6873035Y-13168477D01*
X6892082Y-13178001D01*
X6901606Y-13197049D01*
X6901606Y-13301810D01*
X6996844Y-13301810D02*
X6996844Y-13168477D01*
X6996844Y-13187525D02*
X7006368Y-13178001D01*
X7025416Y-13168477D01*
X7053987Y-13168477D01*
X7073035Y-13178001D01*
X7082559Y-13197049D01*
X7082559Y-13301810D01*
X7082559Y-13197049D02*
X7092082Y-13178001D01*
X7111130Y-13168477D01*
X7139702Y-13168477D01*
X7158749Y-13178001D01*
X7168273Y-13197049D01*
X7168273Y-13301810D01*
X7558749Y-13092287D02*
X7387321Y-13349430D01*
X7815892Y-13101810D02*
X7834940Y-13101810D01*
X7853987Y-13111334D01*
X7863511Y-13120858D01*
X7873035Y-13139906D01*
X7882559Y-13178001D01*
X7882559Y-13225620D01*
X7873035Y-13263715D01*
X7863511Y-13282763D01*
X7853987Y-13292287D01*
X7834940Y-13301810D01*
X7815892Y-13301810D01*
X7796844Y-13292287D01*
X7787321Y-13282763D01*
X7777797Y-13263715D01*
X7768273Y-13225620D01*
X7768273Y-13178001D01*
X7777797Y-13139906D01*
X7787321Y-13120858D01*
X7796844Y-13111334D01*
X7815892Y-13101810D01*
X7968273Y-13282763D02*
X7977797Y-13292287D01*
X7968273Y-13301810D01*
X7958749Y-13292287D01*
X7968273Y-13282763D01*
X7968273Y-13301810D01*
X8101606Y-13101810D02*
X8120654Y-13101810D01*
X8139702Y-13111334D01*
X8149225Y-13120858D01*
X8158749Y-13139906D01*
X8168273Y-13178001D01*
X8168273Y-13225620D01*
X8158749Y-13263715D01*
X8149225Y-13282763D01*
X8139702Y-13292287D01*
X8120654Y-13301810D01*
X8101606Y-13301810D01*
X8082559Y-13292287D01*
X8073035Y-13282763D01*
X8063511Y-13263715D01*
X8053987Y-13225620D01*
X8053987Y-13178001D01*
X8063511Y-13139906D01*
X8073035Y-13120858D01*
X8082559Y-13111334D01*
X8101606Y-13101810D01*
X8358749Y-13301810D02*
X8244463Y-13301810D01*
X8301606Y-13301810D02*
X8301606Y-13101810D01*
X8282559Y-13130382D01*
X8263511Y-13149430D01*
X8244463Y-13158953D01*
X8453987Y-13301810D02*
X8492083Y-13301810D01*
X8511130Y-13292287D01*
X8520654Y-13282763D01*
X8539702Y-13254191D01*
X8549225Y-13216096D01*
X8549225Y-13139906D01*
X8539702Y-13120858D01*
X8530178Y-13111334D01*
X8511130Y-13101810D01*
X8473035Y-13101810D01*
X8453987Y-13111334D01*
X8444464Y-13120858D01*
X8434940Y-13139906D01*
X8434940Y-13187525D01*
X8444464Y-13206572D01*
X8453987Y-13216096D01*
X8473035Y-13225620D01*
X8511130Y-13225620D01*
X8530178Y-13216096D01*
X8539702Y-13206572D01*
X8549225Y-13187525D01*
X8615892Y-13101810D02*
X8749225Y-13101810D01*
X8663511Y-13301810D01*
X8815892Y-13101810D02*
X8815892Y-13139906D01*
X8892083Y-13101810D02*
X8892083Y-13139906D01*
X9187321Y-13378001D02*
X9177797Y-13368477D01*
X9158749Y-13339906D01*
X9149225Y-13320858D01*
X9139702Y-13292287D01*
X9130178Y-13244668D01*
X9130178Y-13206572D01*
X9139702Y-13158953D01*
X9149225Y-13130382D01*
X9158749Y-13111334D01*
X9177797Y-13082763D01*
X9187321Y-13073239D01*
X9368273Y-13301810D02*
X9253987Y-13301810D01*
X9311130Y-13301810D02*
X9311130Y-13101810D01*
X9292083Y-13130382D01*
X9273035Y-13149430D01*
X9253987Y-13158953D01*
X9539702Y-13168477D02*
X9539702Y-13301810D01*
X9492083Y-13092287D02*
X9444464Y-13235144D01*
X9568273Y-13235144D01*
X9796844Y-13301810D02*
X9796844Y-13101810D01*
X9882559Y-13301810D02*
X9882559Y-13197049D01*
X9873035Y-13178001D01*
X9853987Y-13168477D01*
X9825416Y-13168477D01*
X9806368Y-13178001D01*
X9796844Y-13187525D01*
X10006368Y-13301810D02*
X9987321Y-13292287D01*
X9977797Y-13282763D01*
X9968273Y-13263715D01*
X9968273Y-13206572D01*
X9977797Y-13187525D01*
X9987321Y-13178001D01*
X10006368Y-13168477D01*
X10034940Y-13168477D01*
X10053987Y-13178001D01*
X10063511Y-13187525D01*
X10073035Y-13206572D01*
X10073035Y-13263715D01*
X10063511Y-13282763D01*
X10053987Y-13292287D01*
X10034940Y-13301810D01*
X10006368Y-13301810D01*
X10187321Y-13301810D02*
X10168273Y-13292287D01*
X10158749Y-13273239D01*
X10158749Y-13101810D01*
X10339702Y-13292287D02*
X10320654Y-13301810D01*
X10282559Y-13301810D01*
X10263511Y-13292287D01*
X10253987Y-13273239D01*
X10253987Y-13197049D01*
X10263511Y-13178001D01*
X10282559Y-13168477D01*
X10320654Y-13168477D01*
X10339702Y-13178001D01*
X10349225Y-13197049D01*
X10349225Y-13216096D01*
X10253987Y-13235144D01*
X10425416Y-13292287D02*
X10444464Y-13301810D01*
X10482559Y-13301810D01*
X10501606Y-13292287D01*
X10511130Y-13273239D01*
X10511130Y-13263715D01*
X10501606Y-13244668D01*
X10482559Y-13235144D01*
X10453987Y-13235144D01*
X10434940Y-13225620D01*
X10425416Y-13206572D01*
X10425416Y-13197049D01*
X10434940Y-13178001D01*
X10453987Y-13168477D01*
X10482559Y-13168477D01*
X10501606Y-13178001D01*
X10577797Y-13378001D02*
X10587321Y-13368477D01*
X10606368Y-13339906D01*
X10615892Y-13320858D01*
X10625416Y-13292287D01*
X10634940Y-13244668D01*
X10634940Y-13206572D01*
X10625416Y-13158953D01*
X10615892Y-13130382D01*
X10606368Y-13111334D01*
X10587321Y-13082763D01*
X10577797Y-13073239D01*
D16*
X5585416Y-13445334D02*
X5585416Y-13505334D01*
X5555416Y-13475334D02*
X5615416Y-13475334D01*
D13*
X5911130Y-13365810D02*
X5930178Y-13365810D01*
X5949225Y-13375334D01*
X5958749Y-13384858D01*
X5968273Y-13403906D01*
X5977797Y-13442001D01*
X5977797Y-13489620D01*
X5968273Y-13527715D01*
X5958749Y-13546763D01*
X5949225Y-13556287D01*
X5930178Y-13565810D01*
X5911130Y-13565810D01*
X5892082Y-13556287D01*
X5882559Y-13546763D01*
X5873035Y-13527715D01*
X5863511Y-13489620D01*
X5863511Y-13442001D01*
X5873035Y-13403906D01*
X5882559Y-13384858D01*
X5892082Y-13375334D01*
X5911130Y-13365810D01*
X6063511Y-13546763D02*
X6073035Y-13556287D01*
X6063511Y-13565810D01*
X6053987Y-13556287D01*
X6063511Y-13546763D01*
X6063511Y-13565810D01*
X6244463Y-13365810D02*
X6206368Y-13365810D01*
X6187321Y-13375334D01*
X6177797Y-13384858D01*
X6158749Y-13413430D01*
X6149225Y-13451525D01*
X6149225Y-13527715D01*
X6158749Y-13546763D01*
X6168273Y-13556287D01*
X6187321Y-13565810D01*
X6225416Y-13565810D01*
X6244463Y-13556287D01*
X6253987Y-13546763D01*
X6263511Y-13527715D01*
X6263511Y-13480096D01*
X6253987Y-13461049D01*
X6244463Y-13451525D01*
X6225416Y-13442001D01*
X6187321Y-13442001D01*
X6168273Y-13451525D01*
X6158749Y-13461049D01*
X6149225Y-13480096D01*
X6387321Y-13365810D02*
X6406368Y-13365810D01*
X6425416Y-13375334D01*
X6434940Y-13384858D01*
X6444463Y-13403906D01*
X6453987Y-13442001D01*
X6453987Y-13489620D01*
X6444463Y-13527715D01*
X6434940Y-13546763D01*
X6425416Y-13556287D01*
X6406368Y-13565810D01*
X6387321Y-13565810D01*
X6368273Y-13556287D01*
X6358749Y-13546763D01*
X6349225Y-13527715D01*
X6339702Y-13489620D01*
X6339702Y-13442001D01*
X6349225Y-13403906D01*
X6358749Y-13384858D01*
X6368273Y-13375334D01*
X6387321Y-13365810D01*
X6577797Y-13365810D02*
X6596844Y-13365810D01*
X6615892Y-13375334D01*
X6625416Y-13384858D01*
X6634940Y-13403906D01*
X6644463Y-13442001D01*
X6644463Y-13489620D01*
X6634940Y-13527715D01*
X6625416Y-13546763D01*
X6615892Y-13556287D01*
X6596844Y-13565810D01*
X6577797Y-13565810D01*
X6558749Y-13556287D01*
X6549225Y-13546763D01*
X6539702Y-13527715D01*
X6530178Y-13489620D01*
X6530178Y-13442001D01*
X6539702Y-13403906D01*
X6549225Y-13384858D01*
X6558749Y-13375334D01*
X6577797Y-13365810D01*
X6730178Y-13565810D02*
X6730178Y-13432477D01*
X6730178Y-13451525D02*
X6739702Y-13442001D01*
X6758749Y-13432477D01*
X6787321Y-13432477D01*
X6806368Y-13442001D01*
X6815892Y-13461049D01*
X6815892Y-13565810D01*
X6815892Y-13461049D02*
X6825416Y-13442001D01*
X6844463Y-13432477D01*
X6873035Y-13432477D01*
X6892082Y-13442001D01*
X6901606Y-13461049D01*
X6901606Y-13565810D01*
X6996844Y-13565810D02*
X6996844Y-13432477D01*
X6996844Y-13451525D02*
X7006368Y-13442001D01*
X7025416Y-13432477D01*
X7053987Y-13432477D01*
X7073035Y-13442001D01*
X7082559Y-13461049D01*
X7082559Y-13565810D01*
X7082559Y-13461049D02*
X7092082Y-13442001D01*
X7111130Y-13432477D01*
X7139702Y-13432477D01*
X7158749Y-13442001D01*
X7168273Y-13461049D01*
X7168273Y-13565810D01*
X7558749Y-13356287D02*
X7387321Y-13613430D01*
X7815892Y-13365810D02*
X7834940Y-13365810D01*
X7853987Y-13375334D01*
X7863511Y-13384858D01*
X7873035Y-13403906D01*
X7882559Y-13442001D01*
X7882559Y-13489620D01*
X7873035Y-13527715D01*
X7863511Y-13546763D01*
X7853987Y-13556287D01*
X7834940Y-13565810D01*
X7815892Y-13565810D01*
X7796844Y-13556287D01*
X7787321Y-13546763D01*
X7777797Y-13527715D01*
X7768273Y-13489620D01*
X7768273Y-13442001D01*
X7777797Y-13403906D01*
X7787321Y-13384858D01*
X7796844Y-13375334D01*
X7815892Y-13365810D01*
X7968273Y-13546763D02*
X7977797Y-13556287D01*
X7968273Y-13565810D01*
X7958749Y-13556287D01*
X7968273Y-13546763D01*
X7968273Y-13565810D01*
X8101606Y-13365810D02*
X8120654Y-13365810D01*
X8139702Y-13375334D01*
X8149225Y-13384858D01*
X8158749Y-13403906D01*
X8168273Y-13442001D01*
X8168273Y-13489620D01*
X8158749Y-13527715D01*
X8149225Y-13546763D01*
X8139702Y-13556287D01*
X8120654Y-13565810D01*
X8101606Y-13565810D01*
X8082559Y-13556287D01*
X8073035Y-13546763D01*
X8063511Y-13527715D01*
X8053987Y-13489620D01*
X8053987Y-13442001D01*
X8063511Y-13403906D01*
X8073035Y-13384858D01*
X8082559Y-13375334D01*
X8101606Y-13365810D01*
X8244463Y-13384858D02*
X8253987Y-13375334D01*
X8273035Y-13365810D01*
X8320654Y-13365810D01*
X8339702Y-13375334D01*
X8349225Y-13384858D01*
X8358749Y-13403906D01*
X8358749Y-13422953D01*
X8349225Y-13451525D01*
X8234940Y-13565810D01*
X8358749Y-13565810D01*
X8425416Y-13365810D02*
X8549225Y-13365810D01*
X8482559Y-13442001D01*
X8511130Y-13442001D01*
X8530178Y-13451525D01*
X8539702Y-13461049D01*
X8549225Y-13480096D01*
X8549225Y-13527715D01*
X8539702Y-13546763D01*
X8530178Y-13556287D01*
X8511130Y-13565810D01*
X8453987Y-13565810D01*
X8434940Y-13556287D01*
X8425416Y-13546763D01*
X8720654Y-13365810D02*
X8682559Y-13365810D01*
X8663511Y-13375334D01*
X8653987Y-13384858D01*
X8634940Y-13413430D01*
X8625416Y-13451525D01*
X8625416Y-13527715D01*
X8634940Y-13546763D01*
X8644464Y-13556287D01*
X8663511Y-13565810D01*
X8701606Y-13565810D01*
X8720654Y-13556287D01*
X8730178Y-13546763D01*
X8739702Y-13527715D01*
X8739702Y-13480096D01*
X8730178Y-13461049D01*
X8720654Y-13451525D01*
X8701606Y-13442001D01*
X8663511Y-13442001D01*
X8644464Y-13451525D01*
X8634940Y-13461049D01*
X8625416Y-13480096D01*
X8815892Y-13365810D02*
X8815892Y-13403906D01*
X8892083Y-13365810D02*
X8892083Y-13403906D01*
X9187321Y-13642001D02*
X9177797Y-13632477D01*
X9158749Y-13603906D01*
X9149225Y-13584858D01*
X9139702Y-13556287D01*
X9130178Y-13508668D01*
X9130178Y-13470572D01*
X9139702Y-13422953D01*
X9149225Y-13394382D01*
X9158749Y-13375334D01*
X9177797Y-13346763D01*
X9187321Y-13337239D01*
X9301606Y-13365810D02*
X9320654Y-13365810D01*
X9339702Y-13375334D01*
X9349225Y-13384858D01*
X9358749Y-13403906D01*
X9368273Y-13442001D01*
X9368273Y-13489620D01*
X9358749Y-13527715D01*
X9349225Y-13546763D01*
X9339702Y-13556287D01*
X9320654Y-13565810D01*
X9301606Y-13565810D01*
X9282559Y-13556287D01*
X9273035Y-13546763D01*
X9263511Y-13527715D01*
X9253987Y-13489620D01*
X9253987Y-13442001D01*
X9263511Y-13403906D01*
X9273035Y-13384858D01*
X9282559Y-13375334D01*
X9301606Y-13365810D01*
X9606368Y-13565810D02*
X9606368Y-13365810D01*
X9692083Y-13565810D02*
X9692083Y-13461049D01*
X9682559Y-13442001D01*
X9663511Y-13432477D01*
X9634940Y-13432477D01*
X9615892Y-13442001D01*
X9606368Y-13451525D01*
X9815892Y-13565810D02*
X9796844Y-13556287D01*
X9787321Y-13546763D01*
X9777797Y-13527715D01*
X9777797Y-13470572D01*
X9787321Y-13451525D01*
X9796844Y-13442001D01*
X9815892Y-13432477D01*
X9844464Y-13432477D01*
X9863511Y-13442001D01*
X9873035Y-13451525D01*
X9882559Y-13470572D01*
X9882559Y-13527715D01*
X9873035Y-13546763D01*
X9863511Y-13556287D01*
X9844464Y-13565810D01*
X9815892Y-13565810D01*
X9996844Y-13565810D02*
X9977797Y-13556287D01*
X9968273Y-13537239D01*
X9968273Y-13365810D01*
X10149225Y-13556287D02*
X10130178Y-13565810D01*
X10092083Y-13565810D01*
X10073035Y-13556287D01*
X10063511Y-13537239D01*
X10063511Y-13461049D01*
X10073035Y-13442001D01*
X10092083Y-13432477D01*
X10130178Y-13432477D01*
X10149225Y-13442001D01*
X10158749Y-13461049D01*
X10158749Y-13480096D01*
X10063511Y-13499144D01*
X10234940Y-13556287D02*
X10253987Y-13565810D01*
X10292083Y-13565810D01*
X10311130Y-13556287D01*
X10320654Y-13537239D01*
X10320654Y-13527715D01*
X10311130Y-13508668D01*
X10292083Y-13499144D01*
X10263511Y-13499144D01*
X10244464Y-13489620D01*
X10234940Y-13470572D01*
X10234940Y-13461049D01*
X10244464Y-13442001D01*
X10263511Y-13432477D01*
X10292083Y-13432477D01*
X10311130Y-13442001D01*
X10558749Y-13489620D02*
X10711130Y-13489620D01*
X10634940Y-13565810D02*
X10634940Y-13413430D01*
X11044464Y-13432477D02*
X11044464Y-13565810D01*
X10996844Y-13356287D02*
X10949225Y-13499144D01*
X11073035Y-13499144D01*
X11292082Y-13556287D02*
X11311130Y-13565810D01*
X11349225Y-13565810D01*
X11368273Y-13556287D01*
X11377797Y-13537239D01*
X11377797Y-13527715D01*
X11368273Y-13508668D01*
X11349225Y-13499144D01*
X11320654Y-13499144D01*
X11301606Y-13489620D01*
X11292082Y-13470572D01*
X11292082Y-13461049D01*
X11301606Y-13442001D01*
X11320654Y-13432477D01*
X11349225Y-13432477D01*
X11368273Y-13442001D01*
X11492082Y-13565810D02*
X11473035Y-13556287D01*
X11463511Y-13537239D01*
X11463511Y-13365810D01*
X11596844Y-13565810D02*
X11577797Y-13556287D01*
X11568273Y-13546763D01*
X11558749Y-13527715D01*
X11558749Y-13470572D01*
X11568273Y-13451525D01*
X11577797Y-13442001D01*
X11596844Y-13432477D01*
X11625416Y-13432477D01*
X11644463Y-13442001D01*
X11653987Y-13451525D01*
X11663511Y-13470572D01*
X11663511Y-13527715D01*
X11653987Y-13546763D01*
X11644463Y-13556287D01*
X11625416Y-13565810D01*
X11596844Y-13565810D01*
X11720654Y-13432477D02*
X11796844Y-13432477D01*
X11749225Y-13365810D02*
X11749225Y-13537239D01*
X11758749Y-13556287D01*
X11777797Y-13565810D01*
X11796844Y-13565810D01*
X11853987Y-13556287D02*
X11873035Y-13565810D01*
X11911130Y-13565810D01*
X11930178Y-13556287D01*
X11939702Y-13537239D01*
X11939702Y-13527715D01*
X11930178Y-13508668D01*
X11911130Y-13499144D01*
X11882559Y-13499144D01*
X11863511Y-13489620D01*
X11853987Y-13470572D01*
X11853987Y-13461049D01*
X11863511Y-13442001D01*
X11882559Y-13432477D01*
X11911130Y-13432477D01*
X11930178Y-13442001D01*
X12006368Y-13642001D02*
X12015892Y-13632477D01*
X12034940Y-13603906D01*
X12044463Y-13584858D01*
X12053987Y-13556287D01*
X12063511Y-13508668D01*
X12063511Y-13470572D01*
X12053987Y-13422953D01*
X12044463Y-13394382D01*
X12034940Y-13375334D01*
X12015892Y-13346763D01*
X12006368Y-13337239D01*
M02*
