G04 #@! TF.GenerationSoftware,KiCad,Pcbnew,(6.0.11-0)*
G04 #@! TF.CreationDate,2023-02-16T18:47:18+08:00*
G04 #@! TF.ProjectId,Right,52696768-742e-46b6-9963-61645f706362,rev?*
G04 #@! TF.SameCoordinates,Original*
G04 #@! TF.FileFunction,Paste,Top*
G04 #@! TF.FilePolarity,Positive*
%FSLAX46Y46*%
G04 Gerber Fmt 4.6, Leading zero omitted, Abs format (unit mm)*
G04 Created by KiCad (PCBNEW (6.0.11-0)) date 2023-02-16 18:47:18*
%MOMM*%
%LPD*%
G01*
G04 APERTURE LIST*
G04 Aperture macros list*
%AMRoundRect*
0 Rectangle with rounded corners*
0 $1 Rounding radius*
0 $2 $3 $4 $5 $6 $7 $8 $9 X,Y pos of 4 corners*
0 Add a 4 corners polygon primitive as box body*
4,1,4,$2,$3,$4,$5,$6,$7,$8,$9,$2,$3,0*
0 Add four circle primitives for the rounded corners*
1,1,$1+$1,$2,$3*
1,1,$1+$1,$4,$5*
1,1,$1+$1,$6,$7*
1,1,$1+$1,$8,$9*
0 Add four rect primitives between the rounded corners*
20,1,$1+$1,$2,$3,$4,$5,0*
20,1,$1+$1,$4,$5,$6,$7,0*
20,1,$1+$1,$6,$7,$8,$9,0*
20,1,$1+$1,$8,$9,$2,$3,0*%
%AMFreePoly0*
4,1,13,-0.250000,0.375000,-0.240485,0.422835,-0.213388,0.463388,-0.172835,0.490485,-0.125000,0.500000,0.250000,0.500000,0.250000,-0.500000,-0.125000,-0.500000,-0.172835,-0.490485,-0.213388,-0.463388,-0.240485,-0.422835,-0.250000,-0.375000,-0.250000,0.375000,-0.250000,0.375000,$1*%
%AMFreePoly1*
4,1,13,-0.300000,0.150000,-0.288582,0.207403,-0.256066,0.256066,-0.207403,0.288582,-0.150000,0.300000,0.300000,0.300000,0.300000,-0.300000,-0.150000,-0.300000,-0.207403,-0.288582,-0.256066,-0.256066,-0.288582,-0.207403,-0.300000,-0.150000,-0.300000,0.150000,-0.300000,0.150000,$1*%
G04 Aperture macros list end*
%ADD10RoundRect,0.087500X-0.087500X-0.087500X0.087500X-0.087500X0.087500X0.087500X-0.087500X0.087500X0*%
%ADD11RoundRect,0.140000X-0.170000X0.140000X-0.170000X-0.140000X0.170000X-0.140000X0.170000X0.140000X0*%
%ADD12FreePoly0,180.000000*%
%ADD13FreePoly1,90.000000*%
%ADD14FreePoly0,0.000000*%
%ADD15RoundRect,0.135000X-0.194472X-0.120957X0.055868X-0.222101X0.194472X0.120957X-0.055868X0.222101X0*%
%ADD16RoundRect,0.147500X-0.147500X-0.172500X0.147500X-0.172500X0.147500X0.172500X-0.147500X0.172500X0*%
%ADD17RoundRect,0.140000X-0.140000X-0.170000X0.140000X-0.170000X0.140000X0.170000X-0.140000X0.170000X0*%
%ADD18RoundRect,0.090000X-0.270000X0.210000X-0.270000X-0.210000X0.270000X-0.210000X0.270000X0.210000X0*%
%ADD19RoundRect,0.087500X-0.101365X-0.070976X0.070976X-0.101365X0.101365X0.070976X-0.070976X0.101365X0*%
%ADD20RoundRect,0.140000X0.170000X-0.140000X0.170000X0.140000X-0.170000X0.140000X-0.170000X-0.140000X0*%
%ADD21RoundRect,0.086250X0.201250X0.201250X-0.201250X0.201250X-0.201250X-0.201250X0.201250X-0.201250X0*%
%ADD22C,0.250000*%
%ADD23RoundRect,0.140000X0.140000X0.170000X-0.140000X0.170000X-0.140000X-0.170000X0.140000X-0.170000X0*%
%ADD24RoundRect,0.087500X-0.056178X-0.110256X0.110256X-0.056178X0.056178X0.110256X-0.110256X0.056178X0*%
%ADD25RoundRect,0.147500X-0.172500X0.147500X-0.172500X-0.147500X0.172500X-0.147500X0.172500X0.147500X0*%
%ADD26RoundRect,0.150000X0.350000X0.300000X-0.350000X0.300000X-0.350000X-0.300000X0.350000X-0.300000X0*%
%ADD27RoundRect,0.147500X-0.072140X-0.215194X0.201379X-0.104685X0.072140X0.215194X-0.201379X0.104685X0*%
%ADD28R,1.100000X0.600000*%
G04 APERTURE END LIST*
D10*
X56537784Y-116750411D03*
X57237784Y-116750411D03*
X56537784Y-117450411D03*
X57237784Y-117450411D03*
D11*
X138040000Y-48940000D03*
X138040000Y-49900000D03*
D12*
X72797208Y-48104296D03*
D13*
X68552208Y-50154296D03*
X71902208Y-50154296D03*
D14*
X67657208Y-48104296D03*
D10*
X56537784Y-84250411D03*
X57237784Y-84250411D03*
X56537784Y-84950411D03*
X57237784Y-84950411D03*
D11*
X162480002Y-53170000D03*
X162480002Y-54130000D03*
D15*
X154436261Y-51556692D03*
X155381989Y-51938790D03*
D11*
X136260000Y-47870000D03*
X136260000Y-48830000D03*
D16*
X137995000Y-48070000D03*
X138965000Y-48070000D03*
D11*
X136400000Y-53800000D03*
X136400000Y-54760000D03*
X137130000Y-47870000D03*
X137130000Y-48830000D03*
D10*
X56537784Y-52431211D03*
X57237784Y-52431211D03*
X56537784Y-53131211D03*
X57237784Y-53131211D03*
X56537784Y-54931211D03*
X57237784Y-54931211D03*
X56537784Y-55631211D03*
X57237784Y-55631211D03*
X56537784Y-64931211D03*
X57237784Y-64931211D03*
X56537784Y-65631211D03*
X57237784Y-65631211D03*
X56537784Y-106750411D03*
X57237784Y-106750411D03*
X56537784Y-107450411D03*
X57237784Y-107450411D03*
D17*
X136210000Y-56790000D03*
X137170000Y-56790000D03*
D10*
X56537784Y-99250411D03*
X57237784Y-99250411D03*
X56537784Y-99950411D03*
X57237784Y-99950411D03*
X56537784Y-114250411D03*
X57237784Y-114250411D03*
X56537784Y-114950411D03*
X57237784Y-114950411D03*
D18*
X127503756Y-85155002D03*
X126533756Y-85155002D03*
X125563756Y-85155002D03*
X124593756Y-85155002D03*
X124593756Y-83755002D03*
X125563756Y-83755002D03*
X126533756Y-83755002D03*
X127503756Y-83755002D03*
D17*
X136210000Y-57680000D03*
X137170000Y-57680000D03*
D10*
X56537784Y-89250411D03*
X57237784Y-89250411D03*
X56537784Y-89950411D03*
X57237784Y-89950411D03*
D19*
X56737978Y-49792251D03*
X57427344Y-49913805D03*
X56616424Y-50481617D03*
X57305790Y-50603171D03*
D20*
X136260000Y-50610000D03*
X136260000Y-49650000D03*
D11*
X142771402Y-48922257D03*
X142771402Y-49882257D03*
D17*
X145371402Y-47082257D03*
X146331402Y-47082257D03*
D10*
X56537784Y-62431211D03*
X57237784Y-62431211D03*
X56537784Y-63131211D03*
X57237784Y-63131211D03*
D12*
X85797208Y-48104296D03*
D13*
X81552208Y-50154296D03*
X84902208Y-50154296D03*
D14*
X80657208Y-48104296D03*
D17*
X145360000Y-51300000D03*
X146320000Y-51300000D03*
X143571402Y-47082257D03*
X144531402Y-47082257D03*
D21*
X142710000Y-55490888D03*
X140710000Y-55490888D03*
X139710000Y-52490888D03*
X141710000Y-53490888D03*
X139710000Y-54490888D03*
X141710000Y-55490888D03*
X140710000Y-53490888D03*
X141710000Y-54490888D03*
X142710000Y-54490888D03*
X140710000Y-52490888D03*
X139710000Y-53490888D03*
X140710000Y-54490888D03*
X139710000Y-55490888D03*
X142710000Y-53490888D03*
X141710000Y-52490888D03*
X142710000Y-52490888D03*
D22*
X139960000Y-50740888D03*
X140460000Y-50740888D03*
X140960000Y-50740888D03*
X141460000Y-50740888D03*
X141960000Y-50740888D03*
X142460000Y-50740888D03*
X142960000Y-50740888D03*
X143460000Y-50740888D03*
X143960000Y-50740888D03*
X144460000Y-56240888D03*
X138460000Y-56490888D03*
X139210000Y-56740888D03*
X140210000Y-56740888D03*
X140710000Y-56740888D03*
X141210000Y-56740888D03*
X141710000Y-56740888D03*
X142210000Y-56740888D03*
X142710000Y-56740888D03*
X143210000Y-56740888D03*
X144460000Y-56740888D03*
X138460000Y-57240888D03*
X138960000Y-57240888D03*
X139460000Y-57240888D03*
X139960000Y-57240888D03*
X140460000Y-57240888D03*
X140960000Y-57240888D03*
X141460000Y-57240888D03*
X141960000Y-57240888D03*
X142460000Y-57240888D03*
X142960000Y-57240888D03*
X143460000Y-57240888D03*
X143960000Y-57240888D03*
X137960000Y-51240888D03*
X138710000Y-51240888D03*
X139210000Y-51240888D03*
X139710000Y-51240888D03*
X140210000Y-51240888D03*
X140710000Y-51240888D03*
X141210000Y-51240888D03*
X141710000Y-51240888D03*
X142210000Y-51240888D03*
X142710000Y-51240888D03*
X144460000Y-51240888D03*
X137960000Y-51740888D03*
X138460000Y-51990888D03*
X143960000Y-51990888D03*
X144460000Y-52240888D03*
X138460000Y-52490888D03*
X143960000Y-52490888D03*
X137960000Y-52740888D03*
X138460000Y-52990888D03*
X143960000Y-52990888D03*
X137960000Y-53240888D03*
X144460000Y-53240888D03*
X138460000Y-53490888D03*
X137960000Y-53740888D03*
X144460000Y-53740888D03*
X138460000Y-53990888D03*
X137960000Y-54240888D03*
X144460000Y-54240888D03*
X138460000Y-54490888D03*
X143960000Y-54490888D03*
X137960000Y-54740888D03*
X144460000Y-54740888D03*
X138460000Y-54990888D03*
X143960000Y-54990888D03*
X137960000Y-55240888D03*
X144460000Y-55240888D03*
X143960000Y-55490888D03*
X137960000Y-55740888D03*
X144460000Y-55740888D03*
X138460000Y-55990888D03*
X143960000Y-55990888D03*
D23*
X146200000Y-54260000D03*
X145240000Y-54260000D03*
D10*
X56537784Y-94250411D03*
X57237784Y-94250411D03*
X56537784Y-94950411D03*
X57237784Y-94950411D03*
D11*
X146300000Y-52170000D03*
X146300000Y-53130000D03*
D17*
X136210000Y-55900000D03*
X137170000Y-55900000D03*
D20*
X141275000Y-58955000D03*
X141275000Y-57995000D03*
D10*
X56537784Y-101750411D03*
X57237784Y-101750411D03*
X56537784Y-102450411D03*
X57237784Y-102450411D03*
D11*
X137130000Y-49650000D03*
X137130000Y-50610000D03*
D10*
X56537784Y-86750411D03*
X57237784Y-86750411D03*
X56537784Y-87450411D03*
X57237784Y-87450411D03*
D24*
X56750258Y-119338997D03*
X57415998Y-119122685D03*
X56966570Y-120004737D03*
X57632310Y-119788425D03*
D10*
X56537784Y-96750411D03*
X57237784Y-96750411D03*
X56537784Y-97450411D03*
X57237784Y-97450411D03*
D25*
X138920000Y-48930000D03*
X138920000Y-49900000D03*
D10*
X56537784Y-111750411D03*
X57237784Y-111750411D03*
X56537784Y-112450411D03*
X57237784Y-112450411D03*
D23*
X144990000Y-58040000D03*
X144030000Y-58040000D03*
D26*
X146030000Y-48140000D03*
X143830000Y-48140000D03*
X143830000Y-49740000D03*
X146030000Y-49740000D03*
D10*
X56537784Y-59931211D03*
X57237784Y-59931211D03*
X56537784Y-60631211D03*
X57237784Y-60631211D03*
X56537784Y-104250411D03*
X57237784Y-104250411D03*
X56537784Y-104950411D03*
X57237784Y-104950411D03*
X56537784Y-81750411D03*
X57237784Y-81750411D03*
X56537784Y-82450411D03*
X57237784Y-82450411D03*
X56537784Y-57431211D03*
X57237784Y-57431211D03*
X56537784Y-58131211D03*
X57237784Y-58131211D03*
X56537784Y-91750411D03*
X57237784Y-91750411D03*
X56537784Y-92450411D03*
X57237784Y-92450411D03*
D27*
X151589441Y-51919425D03*
X152488809Y-51556057D03*
D28*
X136525000Y-51570000D03*
X136525000Y-52970000D03*
D11*
X153459125Y-50387741D03*
X153459125Y-51347741D03*
D10*
X56537784Y-109250411D03*
X57237784Y-109250411D03*
X56537784Y-109950411D03*
X57237784Y-109950411D03*
X56537784Y-67431211D03*
X57237784Y-67431211D03*
X56537784Y-68131211D03*
X57237784Y-68131211D03*
M02*
