M48
; DRILL file {KiCad (6.0.11-0)} date Thursday, 16 February 2023 at 06:47:31 pm
; FORMAT={-:-/ absolute / metric / decimal}
; #@! TF.CreationDate,2023-02-16T18:47:31+08:00
; #@! TF.GenerationSoftware,Kicad,Pcbnew,(6.0.11-0)
; #@! TF.FileFunction,NonPlated,1,4,NPTH
FMAT,2
METRIC
; #@! TA.AperFunction,NonPlated,NPTH,ComponentDrill
T1C3.050
; #@! TA.AperFunction,NonPlated,NPTH,ComponentDrill
T2C5.100
%
G90
G05
T1
X62.83Y-58.48
X63.599Y-88.23
X63.88Y-51.48
X65.211Y-77.53
X66.261Y-70.53
X66.561Y-117.73
X70.599Y-89.28
X73.561Y-118.78
X89.024Y-77.53
X89.949Y-98.38
X90.074Y-70.53
X90.999Y-91.38
X92.755Y-117.73
X94.711Y-60.28
X95.761Y-53.28
X99.755Y-118.78
X106.461Y-50.13
X108.074Y-77.53
X108.999Y-98.38
X109.124Y-70.53
X110.049Y-91.38
X113.461Y-51.18
X118.949Y-98.68
X125.511Y-50.13
X125.949Y-99.73
X127.124Y-77.53
X128.174Y-70.53
X132.511Y-51.18
X137.999Y-98.68
X144.999Y-99.73
X149.905Y-60.58
X154.086Y-69.18
X155.699Y-96.58
X156.749Y-89.58
X156.905Y-61.63
X161.086Y-70.23
T2
X66.199Y-93.98
X68.58Y-55.88
X70.961Y-113.03
X70.961Y-74.93
X85.249Y-93.98
X90.011Y-55.88
X94.774Y-74.93
X97.155Y-113.03
X104.299Y-93.98
X109.061Y-55.88
X113.824Y-74.93
X123.349Y-93.98
X128.111Y-55.88
X132.874Y-74.93
X142.399Y-93.98
X154.305Y-55.88
X156.686Y-74.93
X161.449Y-93.98
T0
M30
