%TF.GenerationSoftware,KiCad,Pcbnew,(6.0.11-0)*%
%TF.CreationDate,2023-02-16T18:47:32+08:00*%
%TF.ProjectId,Right,52696768-742e-46b6-9963-61645f706362,rev?*%
%TF.SameCoordinates,Original*%
%TF.FileFunction,Drillmap*%
%TF.FilePolarity,Positive*%
%FSLAX45Y45*%
G04 Gerber Fmt 4.5, Leading zero omitted, Abs format (unit mm)*
G04 Created by KiCad (PCBNEW (6.0.11-0)) date 2023-02-16 18:47:32*
%MOMM*%
%LPD*%
G01*
G04 APERTURE LIST*
%ADD10C,0.030000*%
%ADD11C,0.038100*%
%ADD12C,0.000100*%
%ADD13C,0.200000*%
%ADD14C,0.305000*%
%ADD15C,0.510000*%
G04 APERTURE END LIST*
D10*
X6139102Y-4587646D02*
X6085803Y-4592401D01*
X10643293Y-12264402D02*
X10678280Y-12250858D01*
X10786302Y-12185741D02*
X10792915Y-12179835D01*
D11*
X6167043Y-7492929D02*
X6167043Y-7950129D01*
D10*
X17058657Y-10186994D02*
X17027628Y-10230664D01*
D11*
X11057066Y-10519429D02*
X11048509Y-10528907D01*
D10*
X6217321Y-12305429D02*
X6139105Y-12303215D01*
D11*
X11102066Y-10479429D02*
X11084543Y-10492873D01*
D10*
X10956066Y-10840429D02*
X10956066Y-11705429D01*
X5655297Y-4907219D02*
X5658344Y-4898203D01*
X5767590Y-12167680D02*
X5761320Y-12161431D01*
X10953852Y-11783645D02*
X10949097Y-11836945D01*
D11*
X11239973Y-10417462D02*
X11224066Y-10421429D01*
D10*
X16997048Y-10262679D02*
X17003317Y-10256431D01*
X6540721Y-4585430D02*
X6217321Y-4585429D01*
X16699653Y-10390931D02*
X16759474Y-10379997D01*
D11*
X8703166Y-12105429D02*
X9923166Y-12105429D01*
D10*
X10497993Y-12297193D02*
X10508403Y-12295931D01*
X6139105Y-12303215D02*
X6085805Y-12298460D01*
X17092745Y-4863216D02*
X17085315Y-4846429D01*
X12983916Y-10400429D02*
X12983916Y-10200429D01*
D11*
X11066066Y-10510429D02*
X11075074Y-10501421D01*
D10*
X5652249Y-4916232D02*
X5655297Y-4907219D01*
X5679321Y-12044430D02*
X5705980Y-12091995D01*
X5626819Y-11857766D02*
X5637753Y-11917588D01*
X17015818Y-10243892D02*
X17009567Y-10250161D01*
X17126884Y-4973272D02*
X17112386Y-4916232D01*
D11*
X6540721Y-4585430D02*
X6540721Y-4735430D01*
D10*
X16977551Y-4705118D02*
X16984164Y-4711023D01*
X10867407Y-12091994D02*
X10836378Y-12135664D01*
X10935637Y-11917586D02*
X10921138Y-11974627D01*
X5637753Y-11917588D02*
X5652250Y-11974628D01*
X16439516Y-10400429D02*
X16547316Y-10400429D01*
X17112386Y-4916232D02*
X17109339Y-4907218D01*
X10946569Y-11857764D02*
X10935637Y-11917586D01*
X5658344Y-4898203D02*
X5671892Y-4863217D01*
X5895107Y-4640000D02*
X5878319Y-4647430D01*
X16886317Y-4647429D02*
X16933880Y-4674088D01*
X5939110Y-12267454D02*
X5930095Y-12264406D01*
X17027628Y-4755194D02*
X17021722Y-4748581D01*
X16759472Y-4605860D02*
X16816513Y-4620359D01*
D11*
X6790721Y-4735430D02*
X6790721Y-4760430D01*
D10*
X16933881Y-10311771D02*
X16977552Y-10280742D01*
X10947831Y-11847355D02*
X10946569Y-11857764D01*
X5755070Y-4735698D02*
X5761319Y-4729429D01*
X5755071Y-12155162D02*
X5761320Y-12161431D01*
D12*
X10721066Y-11930429D02*
G75*
G03*
X10721066Y-11930429I-140000J0D01*
G01*
D10*
X16689241Y-4593665D02*
X16699650Y-4594929D01*
D11*
X15219516Y-10200429D02*
X16439516Y-10200429D01*
D12*
X6132321Y-11930430D02*
G75*
G03*
X6132321Y-11930430I-140000J0D01*
G01*
D10*
X17126887Y-10012586D02*
X17112388Y-10069627D01*
X7870266Y-12305429D02*
X7870266Y-12105429D01*
X5658347Y-11992657D02*
X5671892Y-12027643D01*
X17106292Y-10087656D02*
X17092745Y-10122641D01*
X10625265Y-12270501D02*
X10634278Y-12267452D01*
X5948122Y-4620359D02*
X5939108Y-4623407D01*
D11*
X10984743Y-10643394D02*
X10989528Y-10630541D01*
X10956066Y-10840429D02*
X10956066Y-10828429D01*
D10*
X17139081Y-9942355D02*
X17137819Y-9952764D01*
X16834542Y-4626454D02*
X16869528Y-4640002D01*
D11*
X11005736Y-10593602D02*
X11014066Y-10578429D01*
D10*
X6064986Y-12295932D02*
X6005164Y-12285000D01*
X5655298Y-11983642D02*
X5658347Y-11992657D01*
X16869530Y-10345859D02*
X16886317Y-10338429D01*
D11*
X11084543Y-10492873D02*
X11075066Y-10501429D01*
X11199030Y-10429106D02*
X11224030Y-10421429D01*
D10*
X16699650Y-4594929D02*
X16759472Y-4605860D01*
D11*
X6650266Y-12105429D02*
X7870266Y-12105429D01*
D10*
X17021722Y-4748581D02*
X17015817Y-4741966D01*
D11*
X11384066Y-10400429D02*
X11396066Y-10400429D01*
D10*
X16547317Y-10400431D02*
X16625535Y-10398213D01*
X14711716Y-10400429D02*
X14711716Y-10200429D01*
X10818317Y-12155161D02*
X10812067Y-12161431D01*
X5787086Y-12185741D02*
X5780473Y-12179837D01*
X16816515Y-10365501D02*
X16825528Y-10362452D01*
X6650266Y-12305429D02*
X6217321Y-12305429D01*
D12*
X16912315Y-4960431D02*
G75*
G03*
X16912315Y-4960431I-140000J0D01*
G01*
D10*
X17145099Y-5107212D02*
X17140344Y-5053913D01*
D11*
X14711716Y-10400429D02*
X15219516Y-10400429D01*
X11115607Y-10470062D02*
X11121066Y-10466429D01*
D10*
X9923166Y-12305429D02*
X9923166Y-12105429D01*
X6217320Y-4585429D02*
X6139102Y-4587646D01*
D11*
X10957332Y-10790074D02*
X10958600Y-10774073D01*
X11022066Y-10565429D02*
X11025698Y-10559971D01*
D10*
X5773857Y-4716928D02*
X5767588Y-4723180D01*
X10894066Y-12044430D02*
X10867407Y-12091994D01*
X5767588Y-4723180D02*
X5761319Y-4729429D01*
X16678834Y-10393458D02*
X16689243Y-10392193D01*
D11*
X11384066Y-10400429D02*
X11351066Y-10401429D01*
X11048509Y-10528907D02*
X11035066Y-10546429D01*
D10*
X16678832Y-4592400D02*
X16689241Y-4593665D01*
D11*
X10977066Y-10668394D02*
X10984743Y-10643394D01*
X7254721Y-4735430D02*
X7504721Y-4735430D01*
X11298492Y-10406355D02*
X11283275Y-10408479D01*
X10964115Y-10727639D02*
X10961992Y-10742856D01*
X11283275Y-10408479D02*
X11262066Y-10412429D01*
D10*
X5617321Y-5185429D02*
X5617321Y-7035729D01*
X5773859Y-12173932D02*
X5767590Y-12167680D01*
X6650266Y-12305429D02*
X6650266Y-12105429D01*
D11*
X11134066Y-10458429D02*
X11149239Y-10450099D01*
D10*
X10956066Y-11705429D02*
X10953852Y-11783645D01*
D11*
X11000025Y-10605645D02*
X11005736Y-10593602D01*
D10*
X10568225Y-12284997D02*
X10625265Y-12270501D01*
D11*
X11298492Y-10406355D02*
X11329710Y-10402964D01*
D12*
X6132321Y-4960430D02*
G75*
G03*
X6132321Y-4960430I-140000J0D01*
G01*
D10*
X16834543Y-10359402D02*
X16869530Y-10345859D01*
X5626819Y-5033095D02*
X5637751Y-4973273D01*
X6075395Y-12297195D02*
X6064986Y-12295932D01*
X5787085Y-4705117D02*
X5780472Y-4711023D01*
X16625535Y-10398213D02*
X16678834Y-10393458D01*
X16625532Y-4587645D02*
X16678832Y-4592400D01*
D11*
X11763916Y-10400429D02*
X11396066Y-10400429D01*
D10*
X10742631Y-12216771D02*
X10786302Y-12185741D01*
D11*
X7254721Y-4735430D02*
X7254721Y-4760430D01*
D10*
X16439516Y-10400429D02*
X16439516Y-10200429D01*
D11*
X6167043Y-7035729D02*
X6167043Y-7492929D01*
X8554721Y-4735430D02*
X8554721Y-4760430D01*
D10*
X16977552Y-10280742D02*
X16984165Y-10274835D01*
X10695067Y-12243429D02*
X10742631Y-12216771D01*
X17140347Y-9931945D02*
X17139081Y-9942355D01*
X17139080Y-5043503D02*
X17137817Y-5033094D01*
X15219516Y-10400429D02*
X15219516Y-10200429D01*
X17092745Y-10122641D02*
X17085316Y-10139430D01*
X10434285Y-12303213D02*
X10487584Y-12298458D01*
X17147316Y-5185429D02*
X17145099Y-5107212D01*
X5705979Y-4798865D02*
X5737009Y-4755194D01*
D11*
X8804721Y-4585430D02*
X8804721Y-4735430D01*
D10*
X5742915Y-12142278D02*
X5748820Y-12148893D01*
X6005164Y-12285000D02*
X5948123Y-12270501D01*
X17021724Y-10237277D02*
X17015818Y-10243892D01*
X5939108Y-4623407D02*
X5930094Y-4626456D01*
X5679320Y-4846429D02*
X5705979Y-4798865D01*
X5830755Y-4674088D02*
X5787085Y-4705117D01*
X10356066Y-12305429D02*
X9923166Y-12305429D01*
D11*
X10989528Y-10630541D02*
X11000025Y-10605645D01*
D10*
X6064984Y-4594928D02*
X6005163Y-4605862D01*
X13491716Y-10400429D02*
X13491716Y-10200429D01*
X17112388Y-10069627D02*
X17109340Y-10078640D01*
X17109340Y-10078640D02*
X17106292Y-10087656D01*
X16547316Y-4585430D02*
X16625532Y-4587645D01*
D11*
X6167043Y-7950129D02*
X5617321Y-7950129D01*
D10*
X16984165Y-10274835D02*
X16990780Y-10268930D01*
X10830474Y-12142277D02*
X10824568Y-12148892D01*
X5671892Y-12027643D02*
X5679321Y-12044430D01*
X10836378Y-12135664D02*
X10830474Y-12142277D01*
X5619537Y-11783648D02*
X5624292Y-11836947D01*
X6005163Y-4605862D02*
X5948122Y-4620359D01*
X5948123Y-12270501D02*
X5939110Y-12267454D01*
D11*
X10968066Y-10706429D02*
X10973099Y-10684336D01*
D10*
X17137819Y-9952764D02*
X17126887Y-10012586D01*
X5930095Y-12264406D02*
X5895109Y-12250858D01*
D11*
X6540721Y-4735430D02*
X6790721Y-4735430D01*
D10*
X5671892Y-4863217D02*
X5679320Y-4846429D01*
D11*
X8554721Y-4735430D02*
X8804721Y-4735430D01*
D10*
X5737009Y-12135666D02*
X5742915Y-12142278D01*
X7504721Y-4585430D02*
X7840721Y-4585430D01*
X10792915Y-12179835D02*
X10799530Y-12173930D01*
X10678280Y-12250858D02*
X10695067Y-12243429D01*
X5748820Y-12148893D02*
X5755071Y-12155162D01*
D11*
X11057058Y-10519438D02*
X11066066Y-10510429D01*
X11134066Y-10458429D02*
X11121066Y-10466429D01*
X12983916Y-10400429D02*
X13491716Y-10400429D01*
D10*
X16997047Y-4723179D02*
X17003316Y-4729429D01*
X5895109Y-12250858D02*
X5878320Y-12243430D01*
X17109339Y-4907218D02*
X17106290Y-4898204D01*
X10634278Y-12267452D02*
X10643293Y-12264402D01*
X5878320Y-12243430D02*
X5830756Y-12216771D01*
X17147316Y-9800429D02*
X17145102Y-9878645D01*
X5619535Y-5107214D02*
X5624291Y-5053913D01*
D11*
X11149239Y-10450099D02*
X11161282Y-10444388D01*
X7840721Y-4585430D02*
X7840721Y-4735430D01*
X11022066Y-10565429D02*
X11014066Y-10578429D01*
X11239973Y-10417462D02*
X11262066Y-10412429D01*
D10*
X16816513Y-4620359D02*
X16825526Y-4623407D01*
X6075394Y-4593665D02*
X6064984Y-4594928D01*
X5625555Y-5043504D02*
X5626819Y-5033095D01*
X5930094Y-4626456D02*
X5895107Y-4640000D01*
X5748819Y-4741968D02*
X5755070Y-4735698D01*
X17140344Y-5053913D02*
X17139080Y-5043503D01*
X5737009Y-4755194D02*
X5742913Y-4748581D01*
X5780473Y-12179837D02*
X5773859Y-12173932D01*
X16689243Y-10392193D02*
X16699653Y-10390931D01*
D11*
X10958600Y-10774073D02*
X10961992Y-10742856D01*
X7504721Y-4585430D02*
X7504721Y-4735430D01*
D10*
X17027628Y-10230664D02*
X17021724Y-10237277D01*
X16990780Y-10268930D02*
X16997048Y-10262679D01*
X17106290Y-4898204D02*
X17092745Y-4863216D01*
D11*
X6167043Y-7035729D02*
X5617321Y-7035729D01*
D10*
X17147316Y-9800429D02*
X17147316Y-5185429D01*
X5780472Y-4711023D02*
X5773857Y-4716928D01*
X17009567Y-10250161D02*
X17003317Y-10256431D01*
X16933880Y-4674088D02*
X16977551Y-4705118D01*
X10487584Y-12298458D02*
X10497993Y-12297193D01*
X5830756Y-12216771D02*
X5787086Y-12185741D01*
X16759474Y-10379997D02*
X16816515Y-10365501D01*
D11*
X10968066Y-10706429D02*
X10964115Y-10727639D01*
D10*
X5625557Y-11847356D02*
X5626819Y-11857766D01*
D12*
X16912316Y-10025429D02*
G75*
G03*
X16912316Y-10025429I-140000J0D01*
G01*
D10*
X5617321Y-5185429D02*
X5619535Y-5107214D01*
X5624292Y-11836947D02*
X5625557Y-11847356D01*
X10508403Y-12295931D02*
X10568225Y-12284997D01*
X10799530Y-12173930D02*
X10805798Y-12167679D01*
X17009565Y-4735698D02*
X17003316Y-4729429D01*
X16825528Y-10362452D02*
X16834543Y-10359402D01*
X10824568Y-12148892D02*
X10818317Y-12155161D01*
X5878319Y-4647430D02*
X5830755Y-4674088D01*
D11*
X10957066Y-10795429D02*
X10956066Y-10828429D01*
D10*
X10918090Y-11983640D02*
X10915042Y-11992655D01*
D11*
X13491716Y-10200429D02*
X14711716Y-10200429D01*
D10*
X8703166Y-12305429D02*
X8703166Y-12105429D01*
D11*
X11186177Y-10433892D02*
X11199030Y-10429106D01*
D10*
X17145102Y-9878645D02*
X17140347Y-9931945D01*
X5652250Y-11974628D02*
X5655298Y-11983642D01*
X17058658Y-4798864D02*
X17027628Y-4755194D01*
X17085315Y-4846429D02*
X17058658Y-4798864D01*
X17015817Y-4741966D02*
X17009565Y-4735698D01*
X16869528Y-4640002D02*
X16886317Y-4647429D01*
X17137817Y-5033094D02*
X17126884Y-4973272D01*
X8804721Y-4585430D02*
X16547316Y-4585429D01*
D11*
X7840721Y-4735430D02*
X8090721Y-4735430D01*
D10*
X5742913Y-4748581D02*
X5748819Y-4741968D01*
X16984164Y-4711023D02*
X16990777Y-4716929D01*
D11*
X11763916Y-10200429D02*
X12983916Y-10200429D01*
D10*
X16825526Y-4623407D02*
X16834542Y-4626454D01*
X5617321Y-11705429D02*
X5617321Y-7950129D01*
D11*
X11329710Y-10402964D02*
X11345710Y-10401696D01*
D10*
X6085805Y-12298460D02*
X6075395Y-12297195D01*
X16886317Y-10338429D02*
X16933881Y-10311771D01*
X17085316Y-10139430D02*
X17058657Y-10186994D01*
X5637751Y-4973273D02*
X5652249Y-4916232D01*
D11*
X10977066Y-10668429D02*
X10973099Y-10684336D01*
D10*
X10949097Y-11836945D02*
X10947831Y-11847355D01*
X10901495Y-12027641D02*
X10894066Y-12044430D01*
X5705980Y-12091995D02*
X5737009Y-12135666D01*
D11*
X11102066Y-10479429D02*
X11115607Y-10470062D01*
D10*
X6085803Y-4592401D02*
X6075394Y-4593665D01*
X11763916Y-10400429D02*
X11763916Y-10200429D01*
D11*
X11161282Y-10444388D02*
X11186177Y-10433892D01*
D10*
X5617320Y-11705430D02*
X5619537Y-11783648D01*
X5624291Y-5053913D02*
X5625555Y-5043504D01*
X10805798Y-12167679D02*
X10812067Y-12161431D01*
D11*
X11345710Y-10401696D02*
X11351066Y-10401429D01*
D10*
X10356067Y-12305430D02*
X10434285Y-12303213D01*
D11*
X10957066Y-10795429D02*
X10957332Y-10790074D01*
X7870266Y-12305429D02*
X8703166Y-12305429D01*
X11025698Y-10559971D02*
X11035066Y-10546429D01*
D10*
X10915042Y-11992655D02*
X10901495Y-12027641D01*
X16990777Y-4716929D02*
X16997047Y-4723179D01*
D11*
X8090721Y-4735430D02*
X8090721Y-4760430D01*
D10*
X10921138Y-11974627D02*
X10918090Y-11983640D01*
D13*
D14*
X6130500Y-5695500D02*
X6435500Y-6000500D01*
X6435500Y-5695500D02*
X6130500Y-6000500D01*
X6207375Y-8670501D02*
X6512375Y-8975501D01*
X6512375Y-8670501D02*
X6207375Y-8975501D01*
X6235500Y-4995500D02*
X6540500Y-5300500D01*
X6540500Y-4995500D02*
X6235500Y-5300500D01*
X6368625Y-7600501D02*
X6673625Y-7905501D01*
X6673625Y-7600501D02*
X6368625Y-7905501D01*
X6473625Y-6900501D02*
X6778625Y-7205501D01*
X6778625Y-6900501D02*
X6473625Y-7205501D01*
X6503625Y-11620500D02*
X6808625Y-11925500D01*
X6808625Y-11620500D02*
X6503625Y-11925500D01*
X6907375Y-8775501D02*
X7212375Y-9080501D01*
X7212375Y-8775501D02*
X6907375Y-9080501D01*
X7203625Y-11725500D02*
X7508625Y-12030500D01*
X7508625Y-11725500D02*
X7203625Y-12030500D01*
X8749875Y-7600501D02*
X9054875Y-7905501D01*
X9054875Y-7600501D02*
X8749875Y-7905501D01*
X8842375Y-9685501D02*
X9147375Y-9990501D01*
X9147375Y-9685501D02*
X8842375Y-9990501D01*
X8854875Y-6900501D02*
X9159875Y-7205501D01*
X9159875Y-6900501D02*
X8854875Y-7205501D01*
X8947375Y-8985501D02*
X9252375Y-9290501D01*
X9252375Y-8985501D02*
X8947375Y-9290501D01*
X9123000Y-11620500D02*
X9428000Y-11925500D01*
X9428000Y-11620500D02*
X9123000Y-11925500D01*
X9318625Y-5875501D02*
X9623625Y-6180501D01*
X9623625Y-5875501D02*
X9318625Y-6180501D01*
X9423625Y-5175501D02*
X9728625Y-5480501D01*
X9728625Y-5175501D02*
X9423625Y-5480501D01*
X9823000Y-11725500D02*
X10128000Y-12030500D01*
X10128000Y-11725500D02*
X9823000Y-12030500D01*
X10493625Y-4860501D02*
X10798625Y-5165501D01*
X10798625Y-4860501D02*
X10493625Y-5165501D01*
X10654875Y-7600500D02*
X10959875Y-7905500D01*
X10959875Y-7600500D02*
X10654875Y-7905500D01*
X10747375Y-9685501D02*
X11052375Y-9990501D01*
X11052375Y-9685501D02*
X10747375Y-9990501D01*
X10759875Y-6900500D02*
X11064875Y-7205500D01*
X11064875Y-6900500D02*
X10759875Y-7205500D01*
X10852375Y-8985501D02*
X11157375Y-9290501D01*
X11157375Y-8985501D02*
X10852375Y-9290501D01*
X11193625Y-4965501D02*
X11498625Y-5270501D01*
X11498625Y-4965501D02*
X11193625Y-5270501D01*
X11742375Y-9715501D02*
X12047375Y-10020501D01*
X12047375Y-9715501D02*
X11742375Y-10020501D01*
X12398625Y-4860501D02*
X12703625Y-5165501D01*
X12703625Y-4860501D02*
X12398625Y-5165501D01*
X12442375Y-9820501D02*
X12747375Y-10125501D01*
X12747375Y-9820501D02*
X12442375Y-10125501D01*
X12559875Y-7600501D02*
X12864875Y-7905501D01*
X12864875Y-7600501D02*
X12559875Y-7905501D01*
X12664875Y-6900501D02*
X12969875Y-7205501D01*
X12969875Y-6900501D02*
X12664875Y-7205501D01*
X13098625Y-4965501D02*
X13403625Y-5270501D01*
X13403625Y-4965501D02*
X13098625Y-5270501D01*
X13647375Y-9715501D02*
X13952375Y-10020501D01*
X13952375Y-9715501D02*
X13647375Y-10020501D01*
X14347375Y-9820501D02*
X14652375Y-10125501D01*
X14652375Y-9820501D02*
X14347375Y-10125501D01*
X14838000Y-5905501D02*
X15143000Y-6210501D01*
X15143000Y-5905501D02*
X14838000Y-6210501D01*
X15256125Y-6765500D02*
X15561125Y-7070500D01*
X15561125Y-6765500D02*
X15256125Y-7070500D01*
X15417375Y-9505501D02*
X15722375Y-9810501D01*
X15722375Y-9505501D02*
X15417375Y-9810501D01*
X15522375Y-8805501D02*
X15827375Y-9110501D01*
X15827375Y-8805501D02*
X15522375Y-9110501D01*
X15538000Y-6010501D02*
X15843000Y-6315501D01*
X15843000Y-6010501D02*
X15538000Y-6315501D01*
X15956125Y-6870500D02*
X16261125Y-7175500D01*
X16261125Y-6870500D02*
X15956125Y-7175500D01*
D15*
X6874875Y-9398001D02*
G75*
G03*
X6874875Y-9398001I-255000J0D01*
G01*
X7113000Y-5588000D02*
G75*
G03*
X7113000Y-5588000I-255000J0D01*
G01*
X7351125Y-11303000D02*
G75*
G03*
X7351125Y-11303000I-255000J0D01*
G01*
X7351125Y-7493001D02*
G75*
G03*
X7351125Y-7493001I-255000J0D01*
G01*
X8779875Y-9398001D02*
G75*
G03*
X8779875Y-9398001I-255000J0D01*
G01*
X9256125Y-5588001D02*
G75*
G03*
X9256125Y-5588001I-255000J0D01*
G01*
X9732375Y-7493001D02*
G75*
G03*
X9732375Y-7493001I-255000J0D01*
G01*
X9970500Y-11303000D02*
G75*
G03*
X9970500Y-11303000I-255000J0D01*
G01*
X10684875Y-9398001D02*
G75*
G03*
X10684875Y-9398001I-255000J0D01*
G01*
X11161125Y-5588001D02*
G75*
G03*
X11161125Y-5588001I-255000J0D01*
G01*
X11637375Y-7493000D02*
G75*
G03*
X11637375Y-7493000I-255000J0D01*
G01*
X12589875Y-9398001D02*
G75*
G03*
X12589875Y-9398001I-255000J0D01*
G01*
X13066125Y-5588001D02*
G75*
G03*
X13066125Y-5588001I-255000J0D01*
G01*
X13542375Y-7493001D02*
G75*
G03*
X13542375Y-7493001I-255000J0D01*
G01*
X14494875Y-9398001D02*
G75*
G03*
X14494875Y-9398001I-255000J0D01*
G01*
X15685500Y-5588001D02*
G75*
G03*
X15685500Y-5588001I-255000J0D01*
G01*
X15923625Y-7493000D02*
G75*
G03*
X15923625Y-7493000I-255000J0D01*
G01*
X16399875Y-9398001D02*
G75*
G03*
X16399875Y-9398001I-255000J0D01*
G01*
D13*
X5873035Y-12617810D02*
X5873035Y-12417810D01*
X5920654Y-12417810D01*
X5949225Y-12427334D01*
X5968273Y-12446382D01*
X5977797Y-12465430D01*
X5987321Y-12503525D01*
X5987321Y-12532096D01*
X5977797Y-12570191D01*
X5968273Y-12589239D01*
X5949225Y-12608287D01*
X5920654Y-12617810D01*
X5873035Y-12617810D01*
X6073035Y-12617810D02*
X6073035Y-12484477D01*
X6073035Y-12522572D02*
X6082559Y-12503525D01*
X6092082Y-12494001D01*
X6111130Y-12484477D01*
X6130178Y-12484477D01*
X6196844Y-12617810D02*
X6196844Y-12484477D01*
X6196844Y-12417810D02*
X6187321Y-12427334D01*
X6196844Y-12436858D01*
X6206368Y-12427334D01*
X6196844Y-12417810D01*
X6196844Y-12436858D01*
X6320654Y-12617810D02*
X6301606Y-12608287D01*
X6292082Y-12589239D01*
X6292082Y-12417810D01*
X6425416Y-12617810D02*
X6406368Y-12608287D01*
X6396844Y-12589239D01*
X6396844Y-12417810D01*
X6653987Y-12617810D02*
X6653987Y-12417810D01*
X6720654Y-12560668D01*
X6787321Y-12417810D01*
X6787321Y-12617810D01*
X6968273Y-12617810D02*
X6968273Y-12513049D01*
X6958749Y-12494001D01*
X6939702Y-12484477D01*
X6901606Y-12484477D01*
X6882559Y-12494001D01*
X6968273Y-12608287D02*
X6949225Y-12617810D01*
X6901606Y-12617810D01*
X6882559Y-12608287D01*
X6873035Y-12589239D01*
X6873035Y-12570191D01*
X6882559Y-12551144D01*
X6901606Y-12541620D01*
X6949225Y-12541620D01*
X6968273Y-12532096D01*
X7063511Y-12484477D02*
X7063511Y-12684477D01*
X7063511Y-12494001D02*
X7082559Y-12484477D01*
X7120654Y-12484477D01*
X7139702Y-12494001D01*
X7149225Y-12503525D01*
X7158749Y-12522572D01*
X7158749Y-12579715D01*
X7149225Y-12598763D01*
X7139702Y-12608287D01*
X7120654Y-12617810D01*
X7082559Y-12617810D01*
X7063511Y-12608287D01*
X7244463Y-12598763D02*
X7253987Y-12608287D01*
X7244463Y-12617810D01*
X7234940Y-12608287D01*
X7244463Y-12598763D01*
X7244463Y-12617810D01*
X7244463Y-12494001D02*
X7253987Y-12503525D01*
X7244463Y-12513049D01*
X7234940Y-12503525D01*
X7244463Y-12494001D01*
X7244463Y-12513049D01*
X5415416Y-12847334D02*
X5615416Y-13047334D01*
X5615416Y-12847334D02*
X5415416Y-13047334D01*
X5853987Y-12837810D02*
X5977797Y-12837810D01*
X5911130Y-12914001D01*
X5939702Y-12914001D01*
X5958749Y-12923525D01*
X5968273Y-12933049D01*
X5977797Y-12952096D01*
X5977797Y-12999715D01*
X5968273Y-13018763D01*
X5958749Y-13028287D01*
X5939702Y-13037810D01*
X5882559Y-13037810D01*
X5863511Y-13028287D01*
X5853987Y-13018763D01*
X6063511Y-13018763D02*
X6073035Y-13028287D01*
X6063511Y-13037810D01*
X6053987Y-13028287D01*
X6063511Y-13018763D01*
X6063511Y-13037810D01*
X6196844Y-12837810D02*
X6215892Y-12837810D01*
X6234940Y-12847334D01*
X6244463Y-12856858D01*
X6253987Y-12875906D01*
X6263511Y-12914001D01*
X6263511Y-12961620D01*
X6253987Y-12999715D01*
X6244463Y-13018763D01*
X6234940Y-13028287D01*
X6215892Y-13037810D01*
X6196844Y-13037810D01*
X6177797Y-13028287D01*
X6168273Y-13018763D01*
X6158749Y-12999715D01*
X6149225Y-12961620D01*
X6149225Y-12914001D01*
X6158749Y-12875906D01*
X6168273Y-12856858D01*
X6177797Y-12847334D01*
X6196844Y-12837810D01*
X6444463Y-12837810D02*
X6349225Y-12837810D01*
X6339702Y-12933049D01*
X6349225Y-12923525D01*
X6368273Y-12914001D01*
X6415892Y-12914001D01*
X6434940Y-12923525D01*
X6444463Y-12933049D01*
X6453987Y-12952096D01*
X6453987Y-12999715D01*
X6444463Y-13018763D01*
X6434940Y-13028287D01*
X6415892Y-13037810D01*
X6368273Y-13037810D01*
X6349225Y-13028287D01*
X6339702Y-13018763D01*
X6577797Y-12837810D02*
X6596844Y-12837810D01*
X6615892Y-12847334D01*
X6625416Y-12856858D01*
X6634940Y-12875906D01*
X6644463Y-12914001D01*
X6644463Y-12961620D01*
X6634940Y-12999715D01*
X6625416Y-13018763D01*
X6615892Y-13028287D01*
X6596844Y-13037810D01*
X6577797Y-13037810D01*
X6558749Y-13028287D01*
X6549225Y-13018763D01*
X6539702Y-12999715D01*
X6530178Y-12961620D01*
X6530178Y-12914001D01*
X6539702Y-12875906D01*
X6549225Y-12856858D01*
X6558749Y-12847334D01*
X6577797Y-12837810D01*
X6730178Y-13037810D02*
X6730178Y-12904477D01*
X6730178Y-12923525D02*
X6739702Y-12914001D01*
X6758749Y-12904477D01*
X6787321Y-12904477D01*
X6806368Y-12914001D01*
X6815892Y-12933049D01*
X6815892Y-13037810D01*
X6815892Y-12933049D02*
X6825416Y-12914001D01*
X6844463Y-12904477D01*
X6873035Y-12904477D01*
X6892082Y-12914001D01*
X6901606Y-12933049D01*
X6901606Y-13037810D01*
X6996844Y-13037810D02*
X6996844Y-12904477D01*
X6996844Y-12923525D02*
X7006368Y-12914001D01*
X7025416Y-12904477D01*
X7053987Y-12904477D01*
X7073035Y-12914001D01*
X7082559Y-12933049D01*
X7082559Y-13037810D01*
X7082559Y-12933049D02*
X7092082Y-12914001D01*
X7111130Y-12904477D01*
X7139702Y-12904477D01*
X7158749Y-12914001D01*
X7168273Y-12933049D01*
X7168273Y-13037810D01*
X7558749Y-12828287D02*
X7387321Y-13085430D01*
X7815892Y-12837810D02*
X7834940Y-12837810D01*
X7853987Y-12847334D01*
X7863511Y-12856858D01*
X7873035Y-12875906D01*
X7882559Y-12914001D01*
X7882559Y-12961620D01*
X7873035Y-12999715D01*
X7863511Y-13018763D01*
X7853987Y-13028287D01*
X7834940Y-13037810D01*
X7815892Y-13037810D01*
X7796844Y-13028287D01*
X7787321Y-13018763D01*
X7777797Y-12999715D01*
X7768273Y-12961620D01*
X7768273Y-12914001D01*
X7777797Y-12875906D01*
X7787321Y-12856858D01*
X7796844Y-12847334D01*
X7815892Y-12837810D01*
X7968273Y-13018763D02*
X7977797Y-13028287D01*
X7968273Y-13037810D01*
X7958749Y-13028287D01*
X7968273Y-13018763D01*
X7968273Y-13037810D01*
X8168273Y-13037810D02*
X8053987Y-13037810D01*
X8111130Y-13037810D02*
X8111130Y-12837810D01*
X8092082Y-12866382D01*
X8073035Y-12885430D01*
X8053987Y-12894953D01*
X8244463Y-12856858D02*
X8253987Y-12847334D01*
X8273035Y-12837810D01*
X8320654Y-12837810D01*
X8339702Y-12847334D01*
X8349225Y-12856858D01*
X8358749Y-12875906D01*
X8358749Y-12894953D01*
X8349225Y-12923525D01*
X8234940Y-13037810D01*
X8358749Y-13037810D01*
X8482559Y-12837810D02*
X8501606Y-12837810D01*
X8520654Y-12847334D01*
X8530178Y-12856858D01*
X8539702Y-12875906D01*
X8549225Y-12914001D01*
X8549225Y-12961620D01*
X8539702Y-12999715D01*
X8530178Y-13018763D01*
X8520654Y-13028287D01*
X8501606Y-13037810D01*
X8482559Y-13037810D01*
X8463511Y-13028287D01*
X8453987Y-13018763D01*
X8444464Y-12999715D01*
X8434940Y-12961620D01*
X8434940Y-12914001D01*
X8444464Y-12875906D01*
X8453987Y-12856858D01*
X8463511Y-12847334D01*
X8482559Y-12837810D01*
X8739702Y-13037810D02*
X8625416Y-13037810D01*
X8682559Y-13037810D02*
X8682559Y-12837810D01*
X8663511Y-12866382D01*
X8644464Y-12885430D01*
X8625416Y-12894953D01*
X8815892Y-12837810D02*
X8815892Y-12875906D01*
X8892083Y-12837810D02*
X8892083Y-12875906D01*
X9187321Y-13114001D02*
X9177797Y-13104477D01*
X9158749Y-13075906D01*
X9149225Y-13056858D01*
X9139702Y-13028287D01*
X9130178Y-12980668D01*
X9130178Y-12942572D01*
X9139702Y-12894953D01*
X9149225Y-12866382D01*
X9158749Y-12847334D01*
X9177797Y-12818763D01*
X9187321Y-12809239D01*
X9244464Y-12837810D02*
X9368273Y-12837810D01*
X9301606Y-12914001D01*
X9330178Y-12914001D01*
X9349225Y-12923525D01*
X9358749Y-12933049D01*
X9368273Y-12952096D01*
X9368273Y-12999715D01*
X9358749Y-13018763D01*
X9349225Y-13028287D01*
X9330178Y-13037810D01*
X9273035Y-13037810D01*
X9253987Y-13028287D01*
X9244464Y-13018763D01*
X9539702Y-12837810D02*
X9501606Y-12837810D01*
X9482559Y-12847334D01*
X9473035Y-12856858D01*
X9453987Y-12885430D01*
X9444464Y-12923525D01*
X9444464Y-12999715D01*
X9453987Y-13018763D01*
X9463511Y-13028287D01*
X9482559Y-13037810D01*
X9520654Y-13037810D01*
X9539702Y-13028287D01*
X9549225Y-13018763D01*
X9558749Y-12999715D01*
X9558749Y-12952096D01*
X9549225Y-12933049D01*
X9539702Y-12923525D01*
X9520654Y-12914001D01*
X9482559Y-12914001D01*
X9463511Y-12923525D01*
X9453987Y-12933049D01*
X9444464Y-12952096D01*
X9796844Y-13037810D02*
X9796844Y-12837810D01*
X9882559Y-13037810D02*
X9882559Y-12933049D01*
X9873035Y-12914001D01*
X9853987Y-12904477D01*
X9825416Y-12904477D01*
X9806368Y-12914001D01*
X9796844Y-12923525D01*
X10006368Y-13037810D02*
X9987321Y-13028287D01*
X9977797Y-13018763D01*
X9968273Y-12999715D01*
X9968273Y-12942572D01*
X9977797Y-12923525D01*
X9987321Y-12914001D01*
X10006368Y-12904477D01*
X10034940Y-12904477D01*
X10053987Y-12914001D01*
X10063511Y-12923525D01*
X10073035Y-12942572D01*
X10073035Y-12999715D01*
X10063511Y-13018763D01*
X10053987Y-13028287D01*
X10034940Y-13037810D01*
X10006368Y-13037810D01*
X10187321Y-13037810D02*
X10168273Y-13028287D01*
X10158749Y-13009239D01*
X10158749Y-12837810D01*
X10339702Y-13028287D02*
X10320654Y-13037810D01*
X10282559Y-13037810D01*
X10263511Y-13028287D01*
X10253987Y-13009239D01*
X10253987Y-12933049D01*
X10263511Y-12914001D01*
X10282559Y-12904477D01*
X10320654Y-12904477D01*
X10339702Y-12914001D01*
X10349225Y-12933049D01*
X10349225Y-12952096D01*
X10253987Y-12971144D01*
X10425416Y-13028287D02*
X10444464Y-13037810D01*
X10482559Y-13037810D01*
X10501606Y-13028287D01*
X10511130Y-13009239D01*
X10511130Y-12999715D01*
X10501606Y-12980668D01*
X10482559Y-12971144D01*
X10453987Y-12971144D01*
X10434940Y-12961620D01*
X10425416Y-12942572D01*
X10425416Y-12933049D01*
X10434940Y-12914001D01*
X10453987Y-12904477D01*
X10482559Y-12904477D01*
X10501606Y-12914001D01*
X10577797Y-13114001D02*
X10587321Y-13104477D01*
X10606368Y-13075906D01*
X10615892Y-13056858D01*
X10625416Y-13028287D01*
X10634940Y-12980668D01*
X10634940Y-12942572D01*
X10625416Y-12894953D01*
X10615892Y-12866382D01*
X10606368Y-12847334D01*
X10587321Y-12818763D01*
X10577797Y-12809239D01*
X10939702Y-13114001D02*
X10930178Y-13104477D01*
X10911130Y-13075906D01*
X10901606Y-13056858D01*
X10892083Y-13028287D01*
X10882559Y-12980668D01*
X10882559Y-12942572D01*
X10892083Y-12894953D01*
X10901606Y-12866382D01*
X10911130Y-12847334D01*
X10930178Y-12818763D01*
X10939702Y-12809239D01*
X11015892Y-12904477D02*
X11015892Y-13037810D01*
X11015892Y-12923525D02*
X11025416Y-12914001D01*
X11044464Y-12904477D01*
X11073035Y-12904477D01*
X11092083Y-12914001D01*
X11101606Y-12933049D01*
X11101606Y-13037810D01*
X11225416Y-13037810D02*
X11206368Y-13028287D01*
X11196844Y-13018763D01*
X11187321Y-12999715D01*
X11187321Y-12942572D01*
X11196844Y-12923525D01*
X11206368Y-12914001D01*
X11225416Y-12904477D01*
X11253987Y-12904477D01*
X11273035Y-12914001D01*
X11282559Y-12923525D01*
X11292082Y-12942572D01*
X11292082Y-12999715D01*
X11282559Y-13018763D01*
X11273035Y-13028287D01*
X11253987Y-13037810D01*
X11225416Y-13037810D01*
X11349225Y-12904477D02*
X11425416Y-12904477D01*
X11377797Y-12837810D02*
X11377797Y-13009239D01*
X11387321Y-13028287D01*
X11406368Y-13037810D01*
X11425416Y-13037810D01*
X11644463Y-12904477D02*
X11644463Y-13104477D01*
X11644463Y-12914001D02*
X11663511Y-12904477D01*
X11701606Y-12904477D01*
X11720654Y-12914001D01*
X11730178Y-12923525D01*
X11739702Y-12942572D01*
X11739702Y-12999715D01*
X11730178Y-13018763D01*
X11720654Y-13028287D01*
X11701606Y-13037810D01*
X11663511Y-13037810D01*
X11644463Y-13028287D01*
X11853987Y-13037810D02*
X11834940Y-13028287D01*
X11825416Y-13009239D01*
X11825416Y-12837810D01*
X12015892Y-13037810D02*
X12015892Y-12933049D01*
X12006368Y-12914001D01*
X11987321Y-12904477D01*
X11949225Y-12904477D01*
X11930178Y-12914001D01*
X12015892Y-13028287D02*
X11996844Y-13037810D01*
X11949225Y-13037810D01*
X11930178Y-13028287D01*
X11920654Y-13009239D01*
X11920654Y-12990191D01*
X11930178Y-12971144D01*
X11949225Y-12961620D01*
X11996844Y-12961620D01*
X12015892Y-12952096D01*
X12082559Y-12904477D02*
X12158749Y-12904477D01*
X12111130Y-12837810D02*
X12111130Y-13009239D01*
X12120654Y-13028287D01*
X12139702Y-13037810D01*
X12158749Y-13037810D01*
X12301606Y-13028287D02*
X12282559Y-13037810D01*
X12244463Y-13037810D01*
X12225416Y-13028287D01*
X12215892Y-13009239D01*
X12215892Y-12933049D01*
X12225416Y-12914001D01*
X12244463Y-12904477D01*
X12282559Y-12904477D01*
X12301606Y-12914001D01*
X12311130Y-12933049D01*
X12311130Y-12952096D01*
X12215892Y-12971144D01*
X12482559Y-13037810D02*
X12482559Y-12837810D01*
X12482559Y-13028287D02*
X12463511Y-13037810D01*
X12425416Y-13037810D01*
X12406368Y-13028287D01*
X12396844Y-13018763D01*
X12387321Y-12999715D01*
X12387321Y-12942572D01*
X12396844Y-12923525D01*
X12406368Y-12914001D01*
X12425416Y-12904477D01*
X12463511Y-12904477D01*
X12482559Y-12914001D01*
X12558749Y-13114001D02*
X12568273Y-13104477D01*
X12587321Y-13075906D01*
X12596844Y-13056858D01*
X12606368Y-13028287D01*
X12615892Y-12980668D01*
X12615892Y-12942572D01*
X12606368Y-12894953D01*
X12596844Y-12866382D01*
X12587321Y-12847334D01*
X12568273Y-12818763D01*
X12558749Y-12809239D01*
X5615416Y-13267334D02*
G75*
G03*
X5615416Y-13267334I-100000J0D01*
G01*
X5968273Y-13157810D02*
X5873035Y-13157810D01*
X5863511Y-13253049D01*
X5873035Y-13243525D01*
X5892082Y-13234001D01*
X5939702Y-13234001D01*
X5958749Y-13243525D01*
X5968273Y-13253049D01*
X5977797Y-13272096D01*
X5977797Y-13319715D01*
X5968273Y-13338763D01*
X5958749Y-13348287D01*
X5939702Y-13357810D01*
X5892082Y-13357810D01*
X5873035Y-13348287D01*
X5863511Y-13338763D01*
X6063511Y-13338763D02*
X6073035Y-13348287D01*
X6063511Y-13357810D01*
X6053987Y-13348287D01*
X6063511Y-13338763D01*
X6063511Y-13357810D01*
X6263511Y-13357810D02*
X6149225Y-13357810D01*
X6206368Y-13357810D02*
X6206368Y-13157810D01*
X6187321Y-13186382D01*
X6168273Y-13205430D01*
X6149225Y-13214953D01*
X6387321Y-13157810D02*
X6406368Y-13157810D01*
X6425416Y-13167334D01*
X6434940Y-13176858D01*
X6444463Y-13195906D01*
X6453987Y-13234001D01*
X6453987Y-13281620D01*
X6444463Y-13319715D01*
X6434940Y-13338763D01*
X6425416Y-13348287D01*
X6406368Y-13357810D01*
X6387321Y-13357810D01*
X6368273Y-13348287D01*
X6358749Y-13338763D01*
X6349225Y-13319715D01*
X6339702Y-13281620D01*
X6339702Y-13234001D01*
X6349225Y-13195906D01*
X6358749Y-13176858D01*
X6368273Y-13167334D01*
X6387321Y-13157810D01*
X6577797Y-13157810D02*
X6596844Y-13157810D01*
X6615892Y-13167334D01*
X6625416Y-13176858D01*
X6634940Y-13195906D01*
X6644463Y-13234001D01*
X6644463Y-13281620D01*
X6634940Y-13319715D01*
X6625416Y-13338763D01*
X6615892Y-13348287D01*
X6596844Y-13357810D01*
X6577797Y-13357810D01*
X6558749Y-13348287D01*
X6549225Y-13338763D01*
X6539702Y-13319715D01*
X6530178Y-13281620D01*
X6530178Y-13234001D01*
X6539702Y-13195906D01*
X6549225Y-13176858D01*
X6558749Y-13167334D01*
X6577797Y-13157810D01*
X6730178Y-13357810D02*
X6730178Y-13224477D01*
X6730178Y-13243525D02*
X6739702Y-13234001D01*
X6758749Y-13224477D01*
X6787321Y-13224477D01*
X6806368Y-13234001D01*
X6815892Y-13253049D01*
X6815892Y-13357810D01*
X6815892Y-13253049D02*
X6825416Y-13234001D01*
X6844463Y-13224477D01*
X6873035Y-13224477D01*
X6892082Y-13234001D01*
X6901606Y-13253049D01*
X6901606Y-13357810D01*
X6996844Y-13357810D02*
X6996844Y-13224477D01*
X6996844Y-13243525D02*
X7006368Y-13234001D01*
X7025416Y-13224477D01*
X7053987Y-13224477D01*
X7073035Y-13234001D01*
X7082559Y-13253049D01*
X7082559Y-13357810D01*
X7082559Y-13253049D02*
X7092082Y-13234001D01*
X7111130Y-13224477D01*
X7139702Y-13224477D01*
X7158749Y-13234001D01*
X7168273Y-13253049D01*
X7168273Y-13357810D01*
X7558749Y-13148287D02*
X7387321Y-13405430D01*
X7815892Y-13157810D02*
X7834940Y-13157810D01*
X7853987Y-13167334D01*
X7863511Y-13176858D01*
X7873035Y-13195906D01*
X7882559Y-13234001D01*
X7882559Y-13281620D01*
X7873035Y-13319715D01*
X7863511Y-13338763D01*
X7853987Y-13348287D01*
X7834940Y-13357810D01*
X7815892Y-13357810D01*
X7796844Y-13348287D01*
X7787321Y-13338763D01*
X7777797Y-13319715D01*
X7768273Y-13281620D01*
X7768273Y-13234001D01*
X7777797Y-13195906D01*
X7787321Y-13176858D01*
X7796844Y-13167334D01*
X7815892Y-13157810D01*
X7968273Y-13338763D02*
X7977797Y-13348287D01*
X7968273Y-13357810D01*
X7958749Y-13348287D01*
X7968273Y-13338763D01*
X7968273Y-13357810D01*
X8053987Y-13176858D02*
X8063511Y-13167334D01*
X8082559Y-13157810D01*
X8130178Y-13157810D01*
X8149225Y-13167334D01*
X8158749Y-13176858D01*
X8168273Y-13195906D01*
X8168273Y-13214953D01*
X8158749Y-13243525D01*
X8044463Y-13357810D01*
X8168273Y-13357810D01*
X8292082Y-13157810D02*
X8311130Y-13157810D01*
X8330178Y-13167334D01*
X8339702Y-13176858D01*
X8349225Y-13195906D01*
X8358749Y-13234001D01*
X8358749Y-13281620D01*
X8349225Y-13319715D01*
X8339702Y-13338763D01*
X8330178Y-13348287D01*
X8311130Y-13357810D01*
X8292082Y-13357810D01*
X8273035Y-13348287D01*
X8263511Y-13338763D01*
X8253987Y-13319715D01*
X8244463Y-13281620D01*
X8244463Y-13234001D01*
X8253987Y-13195906D01*
X8263511Y-13176858D01*
X8273035Y-13167334D01*
X8292082Y-13157810D01*
X8482559Y-13157810D02*
X8501606Y-13157810D01*
X8520654Y-13167334D01*
X8530178Y-13176858D01*
X8539702Y-13195906D01*
X8549225Y-13234001D01*
X8549225Y-13281620D01*
X8539702Y-13319715D01*
X8530178Y-13338763D01*
X8520654Y-13348287D01*
X8501606Y-13357810D01*
X8482559Y-13357810D01*
X8463511Y-13348287D01*
X8453987Y-13338763D01*
X8444464Y-13319715D01*
X8434940Y-13281620D01*
X8434940Y-13234001D01*
X8444464Y-13195906D01*
X8453987Y-13176858D01*
X8463511Y-13167334D01*
X8482559Y-13157810D01*
X8663511Y-13243525D02*
X8644464Y-13234001D01*
X8634940Y-13224477D01*
X8625416Y-13205430D01*
X8625416Y-13195906D01*
X8634940Y-13176858D01*
X8644464Y-13167334D01*
X8663511Y-13157810D01*
X8701606Y-13157810D01*
X8720654Y-13167334D01*
X8730178Y-13176858D01*
X8739702Y-13195906D01*
X8739702Y-13205430D01*
X8730178Y-13224477D01*
X8720654Y-13234001D01*
X8701606Y-13243525D01*
X8663511Y-13243525D01*
X8644464Y-13253049D01*
X8634940Y-13262572D01*
X8625416Y-13281620D01*
X8625416Y-13319715D01*
X8634940Y-13338763D01*
X8644464Y-13348287D01*
X8663511Y-13357810D01*
X8701606Y-13357810D01*
X8720654Y-13348287D01*
X8730178Y-13338763D01*
X8739702Y-13319715D01*
X8739702Y-13281620D01*
X8730178Y-13262572D01*
X8720654Y-13253049D01*
X8701606Y-13243525D01*
X8815892Y-13157810D02*
X8815892Y-13195906D01*
X8892083Y-13157810D02*
X8892083Y-13195906D01*
X9187321Y-13434001D02*
X9177797Y-13424477D01*
X9158749Y-13395906D01*
X9149225Y-13376858D01*
X9139702Y-13348287D01*
X9130178Y-13300668D01*
X9130178Y-13262572D01*
X9139702Y-13214953D01*
X9149225Y-13186382D01*
X9158749Y-13167334D01*
X9177797Y-13138763D01*
X9187321Y-13129239D01*
X9368273Y-13357810D02*
X9253987Y-13357810D01*
X9311130Y-13357810D02*
X9311130Y-13157810D01*
X9292083Y-13186382D01*
X9273035Y-13205430D01*
X9253987Y-13214953D01*
X9482559Y-13243525D02*
X9463511Y-13234001D01*
X9453987Y-13224477D01*
X9444464Y-13205430D01*
X9444464Y-13195906D01*
X9453987Y-13176858D01*
X9463511Y-13167334D01*
X9482559Y-13157810D01*
X9520654Y-13157810D01*
X9539702Y-13167334D01*
X9549225Y-13176858D01*
X9558749Y-13195906D01*
X9558749Y-13205430D01*
X9549225Y-13224477D01*
X9539702Y-13234001D01*
X9520654Y-13243525D01*
X9482559Y-13243525D01*
X9463511Y-13253049D01*
X9453987Y-13262572D01*
X9444464Y-13281620D01*
X9444464Y-13319715D01*
X9453987Y-13338763D01*
X9463511Y-13348287D01*
X9482559Y-13357810D01*
X9520654Y-13357810D01*
X9539702Y-13348287D01*
X9549225Y-13338763D01*
X9558749Y-13319715D01*
X9558749Y-13281620D01*
X9549225Y-13262572D01*
X9539702Y-13253049D01*
X9520654Y-13243525D01*
X9796844Y-13357810D02*
X9796844Y-13157810D01*
X9882559Y-13357810D02*
X9882559Y-13253049D01*
X9873035Y-13234001D01*
X9853987Y-13224477D01*
X9825416Y-13224477D01*
X9806368Y-13234001D01*
X9796844Y-13243525D01*
X10006368Y-13357810D02*
X9987321Y-13348287D01*
X9977797Y-13338763D01*
X9968273Y-13319715D01*
X9968273Y-13262572D01*
X9977797Y-13243525D01*
X9987321Y-13234001D01*
X10006368Y-13224477D01*
X10034940Y-13224477D01*
X10053987Y-13234001D01*
X10063511Y-13243525D01*
X10073035Y-13262572D01*
X10073035Y-13319715D01*
X10063511Y-13338763D01*
X10053987Y-13348287D01*
X10034940Y-13357810D01*
X10006368Y-13357810D01*
X10187321Y-13357810D02*
X10168273Y-13348287D01*
X10158749Y-13329239D01*
X10158749Y-13157810D01*
X10339702Y-13348287D02*
X10320654Y-13357810D01*
X10282559Y-13357810D01*
X10263511Y-13348287D01*
X10253987Y-13329239D01*
X10253987Y-13253049D01*
X10263511Y-13234001D01*
X10282559Y-13224477D01*
X10320654Y-13224477D01*
X10339702Y-13234001D01*
X10349225Y-13253049D01*
X10349225Y-13272096D01*
X10253987Y-13291144D01*
X10425416Y-13348287D02*
X10444464Y-13357810D01*
X10482559Y-13357810D01*
X10501606Y-13348287D01*
X10511130Y-13329239D01*
X10511130Y-13319715D01*
X10501606Y-13300668D01*
X10482559Y-13291144D01*
X10453987Y-13291144D01*
X10434940Y-13281620D01*
X10425416Y-13262572D01*
X10425416Y-13253049D01*
X10434940Y-13234001D01*
X10453987Y-13224477D01*
X10482559Y-13224477D01*
X10501606Y-13234001D01*
X10577797Y-13434001D02*
X10587321Y-13424477D01*
X10606368Y-13395906D01*
X10615892Y-13376858D01*
X10625416Y-13348287D01*
X10634940Y-13300668D01*
X10634940Y-13262572D01*
X10625416Y-13214953D01*
X10615892Y-13186382D01*
X10606368Y-13167334D01*
X10587321Y-13138763D01*
X10577797Y-13129239D01*
X10939702Y-13434001D02*
X10930178Y-13424477D01*
X10911130Y-13395906D01*
X10901606Y-13376858D01*
X10892083Y-13348287D01*
X10882559Y-13300668D01*
X10882559Y-13262572D01*
X10892083Y-13214953D01*
X10901606Y-13186382D01*
X10911130Y-13167334D01*
X10930178Y-13138763D01*
X10939702Y-13129239D01*
X11015892Y-13224477D02*
X11015892Y-13357810D01*
X11015892Y-13243525D02*
X11025416Y-13234001D01*
X11044464Y-13224477D01*
X11073035Y-13224477D01*
X11092083Y-13234001D01*
X11101606Y-13253049D01*
X11101606Y-13357810D01*
X11225416Y-13357810D02*
X11206368Y-13348287D01*
X11196844Y-13338763D01*
X11187321Y-13319715D01*
X11187321Y-13262572D01*
X11196844Y-13243525D01*
X11206368Y-13234001D01*
X11225416Y-13224477D01*
X11253987Y-13224477D01*
X11273035Y-13234001D01*
X11282559Y-13243525D01*
X11292082Y-13262572D01*
X11292082Y-13319715D01*
X11282559Y-13338763D01*
X11273035Y-13348287D01*
X11253987Y-13357810D01*
X11225416Y-13357810D01*
X11349225Y-13224477D02*
X11425416Y-13224477D01*
X11377797Y-13157810D02*
X11377797Y-13329239D01*
X11387321Y-13348287D01*
X11406368Y-13357810D01*
X11425416Y-13357810D01*
X11644463Y-13224477D02*
X11644463Y-13424477D01*
X11644463Y-13234001D02*
X11663511Y-13224477D01*
X11701606Y-13224477D01*
X11720654Y-13234001D01*
X11730178Y-13243525D01*
X11739702Y-13262572D01*
X11739702Y-13319715D01*
X11730178Y-13338763D01*
X11720654Y-13348287D01*
X11701606Y-13357810D01*
X11663511Y-13357810D01*
X11644463Y-13348287D01*
X11853987Y-13357810D02*
X11834940Y-13348287D01*
X11825416Y-13329239D01*
X11825416Y-13157810D01*
X12015892Y-13357810D02*
X12015892Y-13253049D01*
X12006368Y-13234001D01*
X11987321Y-13224477D01*
X11949225Y-13224477D01*
X11930178Y-13234001D01*
X12015892Y-13348287D02*
X11996844Y-13357810D01*
X11949225Y-13357810D01*
X11930178Y-13348287D01*
X11920654Y-13329239D01*
X11920654Y-13310191D01*
X11930178Y-13291144D01*
X11949225Y-13281620D01*
X11996844Y-13281620D01*
X12015892Y-13272096D01*
X12082559Y-13224477D02*
X12158749Y-13224477D01*
X12111130Y-13157810D02*
X12111130Y-13329239D01*
X12120654Y-13348287D01*
X12139702Y-13357810D01*
X12158749Y-13357810D01*
X12301606Y-13348287D02*
X12282559Y-13357810D01*
X12244463Y-13357810D01*
X12225416Y-13348287D01*
X12215892Y-13329239D01*
X12215892Y-13253049D01*
X12225416Y-13234001D01*
X12244463Y-13224477D01*
X12282559Y-13224477D01*
X12301606Y-13234001D01*
X12311130Y-13253049D01*
X12311130Y-13272096D01*
X12215892Y-13291144D01*
X12482559Y-13357810D02*
X12482559Y-13157810D01*
X12482559Y-13348287D02*
X12463511Y-13357810D01*
X12425416Y-13357810D01*
X12406368Y-13348287D01*
X12396844Y-13338763D01*
X12387321Y-13319715D01*
X12387321Y-13262572D01*
X12396844Y-13243525D01*
X12406368Y-13234001D01*
X12425416Y-13224477D01*
X12463511Y-13224477D01*
X12482559Y-13234001D01*
X12558749Y-13434001D02*
X12568273Y-13424477D01*
X12587321Y-13395906D01*
X12596844Y-13376858D01*
X12606368Y-13348287D01*
X12615892Y-13300668D01*
X12615892Y-13262572D01*
X12606368Y-13214953D01*
X12596844Y-13186382D01*
X12587321Y-13167334D01*
X12568273Y-13138763D01*
X12558749Y-13129239D01*
M02*
