M48
; DRILL file {KiCad (6.0.11-0)} date Thursday, 16 February 2023 at 06:47:31 pm
; FORMAT={-:-/ absolute / metric / decimal}
; #@! TF.CreationDate,2023-02-16T18:47:31+08:00
; #@! TF.GenerationSoftware,Kicad,Pcbnew,(6.0.11-0)
; #@! TF.FileFunction,Plated,1,4,PTH
FMAT,2
METRIC
; #@! TA.AperFunction,Plated,PTH,ViaDrill
T1C0.250
; #@! TA.AperFunction,Plated,PTH,ViaDrill
T2C0.500
; #@! TA.AperFunction,Plated,PTH,ComponentDrill
T3C0.600
%
G90
G05
T1
X56.538Y-53.578
X56.538Y-56.078
X56.538Y-58.578
X56.538Y-61.078
X56.538Y-63.578
X56.538Y-66.078
X56.538Y-68.506
X56.538Y-82.897
X56.538Y-85.397
X56.538Y-87.897
X56.538Y-90.397
X56.538Y-92.897
X56.538Y-95.397
X56.538Y-97.897
X56.538Y-100.397
X56.538Y-102.897
X56.538Y-105.397
X56.538Y-107.897
X56.538Y-110.397
X56.538Y-112.897
X56.538Y-115.397
X56.538Y-117.882
X56.585Y-50.927
X57.195Y-120.371
X57.238Y-51.984
X57.238Y-54.484
X57.238Y-56.984
X57.238Y-59.484
X57.238Y-61.984
X57.238Y-64.484
X57.238Y-66.984
X57.238Y-83.804
X57.238Y-86.304
X57.238Y-88.804
X57.238Y-91.304
X57.238Y-93.804
X57.238Y-96.304
X57.238Y-98.804
X57.238Y-101.304
X57.238Y-103.804
X57.238Y-106.304
X57.238Y-108.804
X57.238Y-111.304
X57.238Y-113.804
X57.238Y-116.304
X57.416Y-118.676
X57.427Y-49.467
X57.86Y-81.74
X58.35Y-83.855
X58.39Y-53.3
X58.41Y-55.18
X58.57Y-121.68
X58.68Y-100.28
X58.79Y-107.23
X59.13Y-97.56
X59.19Y-116.38
X59.88Y-59.08
X60.44Y-65.6
X60.5Y-84.99
X60.74Y-53.24
X60.77Y-91.8
X60.844Y-97.677
X60.85Y-82.79
X60.95Y-122.43
X61.1Y-106.1
X61.145Y-111.928
X61.36Y-65.6
X61.856Y-93.531
X62.26Y-65.6
X62.315Y-115.266
X62.67Y-72.531
X62.78Y-120.18
X62.869Y-77.331
X63.03Y-61.74
X63.23Y-74.67
X63.23Y-75.65
X63.39Y-73.75
X63.45Y-122.5
X63.88Y-82.862
X63.88Y-85.99
X64.77Y-60.82
X64.83Y-85.138
X65.49Y-80.83
X65.74Y-85.94
X65.78Y-82.862
X65.95Y-122.5
X66.47Y-86.3
X67.95Y-67.19
X68.273Y-72.363
X68.39Y-79.65
X68.73Y-52.12
X68.751Y-59.366
X69.091Y-86.189
X69.168Y-82.344
X69.92Y-50.304
X70.96Y-50.304
X71.22Y-52.49
X72.09Y-92.22
X73.71Y-89.15
X73.79Y-82.55
X76.77Y-89.54
X76.89Y-118.67
X82.56Y-64.1
X83.01Y-76.54
X85.25Y-51.04
X85.75Y-98.59
X86.38Y-76.83
X87.14Y-62.31
X87.202Y-49.38
X87.756Y-91.487
X88.48Y-47.65
X88.63Y-86.739
X89.44Y-117.82
X89.86Y-67.23
X90.059Y-103.422
X90.11Y-72.88
X90.48Y-50.23
X90.5Y-47.0
X90.73Y-63.57
X90.759Y-84.109
X90.88Y-88.16
X90.91Y-94.69
X91.17Y-74.83
X91.429Y-61.2
X91.778Y-106.74
X92.2Y-47.46
X92.546Y-101.482
X92.667Y-82.868
X95.71Y-50.01
X95.89Y-92.292
X96.088Y-80.465
X96.46Y-95.64
X97.53Y-109.32
X99.75Y-122.5
X100.64Y-52.42
X100.69Y-115.57
X101.12Y-76.43
X101.18Y-116.71
X101.28Y-53.6
X102.25Y-122.5
X104.746Y-122.44
X104.837Y-76.41
X107.126Y-121.699
X107.19Y-112.99
X108.08Y-109.502
X108.16Y-80.85
X108.357Y-73.935
X108.637Y-119.709
X109.001Y-109.736
X109.001Y-112.236
X109.001Y-114.736
X109.001Y-117.236
X109.084Y-107.237
X109.97Y-94.84
X109.99Y-88.06
X110.059Y-104.932
X110.686Y-64.389
X111.459Y-62.16
X112.203Y-103.65
X114.695Y-103.45
X114.8Y-94.2
X116.048Y-95.265
X116.862Y-52.71
X117.116Y-103.45
X118.175Y-72.412
X118.175Y-75.337
X118.72Y-50.5
X119.5Y-71.31
X119.63Y-94.455
X120.675Y-74.9
X120.7Y-53.15
X121.05Y-73.125
X121.9Y-74.55
X122.62Y-74.025
X123.65Y-100.57
X123.84Y-81.48
X124.417Y-81.065
X124.566Y-82.577
X124.754Y-60.849
X124.975Y-62.775
X125.27Y-86.25
X125.39Y-65.82
X125.43Y-64.77
X126.5Y-74.1
X126.53Y-95.72
X126.67Y-82.63
X126.76Y-84.425
X127.92Y-64.165
X128.5Y-74.8
X128.775Y-63.2
X128.79Y-65.3
X129.3Y-99.69
X129.83Y-66.25
X129.843Y-67.282
X130.041Y-61.802
X130.19Y-69.33
X130.346Y-67.855
X130.661Y-62.542
X130.765Y-78.004
X131.12Y-103.45
X131.438Y-58.541
X131.62Y-64.93
X131.71Y-54.64
X132.4Y-68.39
X132.52Y-54.75
X132.91Y-63.88
X132.93Y-62.22
X133.16Y-54.08
X133.61Y-57.918
X133.62Y-103.45
X134.011Y-55.112
X134.13Y-64.614
X134.156Y-58.569
X134.18Y-54.08
X134.32Y-79.06
X134.841Y-64.962
X135.19Y-57.702
X136.51Y-57.89
X136.51Y-76.81
X137.079Y-54.855
X137.132Y-53.635
X137.17Y-55.9
X137.17Y-56.79
X137.36Y-54.211
X137.502Y-52.784
X137.53Y-60.52
X137.57Y-47.97
X137.79Y-61.28
X137.855Y-57.544
X138.04Y-49.9
X138.448Y-55.497
X138.7Y-61.3
X138.92Y-54.57
X138.942Y-53.603
X138.975Y-52.975
X139.21Y-50.64
X139.83Y-62.86
X139.945Y-51.821
X140.12Y-52.83
X140.223Y-59.013
X140.566Y-51.821
X141.113Y-56.16
X141.16Y-52.849
X141.186Y-51.821
X141.275Y-58.0
X141.732Y-56.16
X141.805Y-51.821
X142.019Y-52.83
X142.05Y-61.19
X142.11Y-48.06
X142.352Y-56.16
X142.65Y-62.06
X142.695Y-51.661
X142.771Y-49.882
X142.956Y-56.298
X143.25Y-61.48
X143.27Y-57.98
X143.45Y-55.925
X143.51Y-59.76
X143.775Y-53.675
X143.8Y-56.625
X143.89Y-51.25
X144.02Y-61.0
X144.03Y-58.04
X145.02Y-55.744
X145.05Y-52.13
X145.15Y-53.475
X145.85Y-56.35
X145.86Y-57.1
X147.57Y-46.41
X148.289Y-103.45
X148.32Y-99.61
X149.19Y-98.158
X149.204Y-96.879
X149.57Y-46.41
X150.58Y-55.08
X150.58Y-56.78
X150.789Y-103.45
X151.57Y-46.41
X151.66Y-100.53
X152.105Y-75.457
X152.737Y-97.33
X153.529Y-72.296
X153.57Y-46.41
X155.57Y-46.41
X156.571Y-79.882
X156.9Y-86.65
X157.57Y-46.41
X159.19Y-80.58
X159.57Y-46.41
X159.97Y-99.82
X161.57Y-46.41
X162.58Y-99.84
X163.17Y-47.62
X163.17Y-49.62
X163.17Y-51.62
X163.17Y-55.26
X163.17Y-57.26
X163.17Y-59.26
X163.17Y-61.26
X163.17Y-63.26
X163.17Y-65.26
X163.17Y-67.26
X164.92Y-68.23
X164.95Y-103.45
X166.92Y-68.23
X166.92Y-72.741
X167.443Y-103.265
X167.93Y-95.77
X168.58Y-91.93
X168.92Y-68.23
X169.675Y-102.138
X170.749Y-99.882
X170.918Y-69.888
X170.918Y-72.388
X170.918Y-74.888
X170.918Y-77.388
X170.918Y-79.888
X170.918Y-82.388
X170.918Y-84.888
X170.918Y-87.388
X170.918Y-89.888
X170.918Y-92.388
X170.918Y-94.888
X170.918Y-97.388
X170.92Y-68.23
T2
X71.1Y-108.175
X74.3Y-95.175
X83.3Y-68.475
X84.9Y-55.35
X86.9Y-108.025
X97.392Y-89.753
X102.075Y-69.975
X105.625Y-105.15
X116.475Y-58.125
X121.1Y-88.9
X133.31Y-83.41
X146.675Y-74.05
X148.226Y-90.88
X167.375Y-88.05
T3
X57.969Y-69.356G85X56.769Y-69.356
G05
X57.969Y-80.507G85X56.769Y-80.507
G05
X61.569Y-69.356G85X60.769Y-69.356
G05
X61.569Y-80.507G85X60.769Y-80.507
G05
T0
M30
