G04 #@! TF.GenerationSoftware,KiCad,Pcbnew,(6.0.11-0)*
G04 #@! TF.CreationDate,2023-02-16T18:47:18+08:00*
G04 #@! TF.ProjectId,Right,52696768-742e-46b6-9963-61645f706362,rev?*
G04 #@! TF.SameCoordinates,Original*
G04 #@! TF.FileFunction,Soldermask,Top*
G04 #@! TF.FilePolarity,Negative*
%FSLAX46Y46*%
G04 Gerber Fmt 4.6, Leading zero omitted, Abs format (unit mm)*
G04 Created by KiCad (PCBNEW (6.0.11-0)) date 2023-02-16 18:47:18*
%MOMM*%
%LPD*%
G01*
G04 APERTURE LIST*
G04 Aperture macros list*
%AMRoundRect*
0 Rectangle with rounded corners*
0 $1 Rounding radius*
0 $2 $3 $4 $5 $6 $7 $8 $9 X,Y pos of 4 corners*
0 Add a 4 corners polygon primitive as box body*
4,1,4,$2,$3,$4,$5,$6,$7,$8,$9,$2,$3,0*
0 Add four circle primitives for the rounded corners*
1,1,$1+$1,$2,$3*
1,1,$1+$1,$4,$5*
1,1,$1+$1,$6,$7*
1,1,$1+$1,$8,$9*
0 Add four rect primitives between the rounded corners*
20,1,$1+$1,$2,$3,$4,$5,0*
20,1,$1+$1,$4,$5,$6,$7,0*
20,1,$1+$1,$6,$7,$8,$9,0*
20,1,$1+$1,$8,$9,$2,$3,0*%
%AMFreePoly0*
4,1,13,-0.250000,0.375000,-0.240485,0.422835,-0.213388,0.463388,-0.172835,0.490485,-0.125000,0.500000,0.250000,0.500000,0.250000,-0.500000,-0.125000,-0.500000,-0.172835,-0.490485,-0.213388,-0.463388,-0.240485,-0.422835,-0.250000,-0.375000,-0.250000,0.375000,-0.250000,0.375000,$1*%
%AMFreePoly1*
4,1,13,-0.300000,0.150000,-0.288582,0.207403,-0.256066,0.256066,-0.207403,0.288582,-0.150000,0.300000,0.300000,0.300000,0.300000,-0.300000,-0.150000,-0.300000,-0.207403,-0.288582,-0.256066,-0.256066,-0.288582,-0.207403,-0.300000,-0.150000,-0.300000,0.150000,-0.300000,0.150000,$1*%
G04 Aperture macros list end*
%ADD10C,0.100000*%
%ADD11C,0.350000*%
%ADD12RoundRect,0.087500X-0.087500X-0.087500X0.087500X-0.087500X0.087500X0.087500X-0.087500X0.087500X0*%
%ADD13C,1.000000*%
%ADD14RoundRect,0.140000X-0.170000X0.140000X-0.170000X-0.140000X0.170000X-0.140000X0.170000X0.140000X0*%
%ADD15FreePoly0,180.000000*%
%ADD16FreePoly1,90.000000*%
%ADD17FreePoly0,0.000000*%
%ADD18RoundRect,0.135000X-0.194472X-0.120957X0.055868X-0.222101X0.194472X0.120957X-0.055868X0.222101X0*%
%ADD19C,3.050000*%
%ADD20C,5.100000*%
%ADD21RoundRect,0.147500X-0.147500X-0.172500X0.147500X-0.172500X0.147500X0.172500X-0.147500X0.172500X0*%
%ADD22RoundRect,0.140000X-0.140000X-0.170000X0.140000X-0.170000X0.140000X0.170000X-0.140000X0.170000X0*%
%ADD23RoundRect,0.090000X-0.270000X0.210000X-0.270000X-0.210000X0.270000X-0.210000X0.270000X0.210000X0*%
%ADD24RoundRect,0.087500X-0.101365X-0.070976X0.070976X-0.101365X0.101365X0.070976X-0.070976X0.101365X0*%
%ADD25RoundRect,0.140000X0.170000X-0.140000X0.170000X0.140000X-0.170000X0.140000X-0.170000X-0.140000X0*%
%ADD26C,0.290000*%
%ADD27RoundRect,0.020000X1.800000X1.800000X-1.800000X1.800000X-1.800000X-1.800000X1.800000X-1.800000X0*%
%ADD28RoundRect,0.140000X0.140000X0.170000X-0.140000X0.170000X-0.140000X-0.170000X0.140000X-0.170000X0*%
%ADD29RoundRect,0.087500X-0.056178X-0.110256X0.110256X-0.056178X0.056178X0.110256X-0.110256X0.056178X0*%
%ADD30RoundRect,0.147500X-0.172500X0.147500X-0.172500X-0.147500X0.172500X-0.147500X0.172500X0.147500X0*%
%ADD31RoundRect,0.150000X0.350000X0.300000X-0.350000X0.300000X-0.350000X-0.300000X0.350000X-0.300000X0*%
%ADD32RoundRect,0.147500X-0.072140X-0.215194X0.201379X-0.104685X0.072140X0.215194X-0.201379X0.104685X0*%
%ADD33R,1.100000X0.600000*%
%ADD34O,2.200000X1.000000*%
%ADD35O,1.800000X1.000000*%
G04 APERTURE END LIST*
D10*
G36*
X156277056Y-70206842D02*
G01*
X156345485Y-70216659D01*
X156411164Y-70230299D01*
X156474131Y-70247476D01*
X156534422Y-70267941D01*
X156592076Y-70291398D01*
X156647136Y-70317598D01*
X156699622Y-70346271D01*
X156749592Y-70377125D01*
X156797075Y-70409907D01*
X156842111Y-70444347D01*
X156884743Y-70480156D01*
X156924999Y-70517087D01*
X156998542Y-70593174D01*
X157063068Y-70670468D01*
X157118864Y-70746773D01*
X157166230Y-70819941D01*
X157205480Y-70887793D01*
X157236909Y-70948175D01*
X157277538Y-71037818D01*
X157290538Y-71071563D01*
X157309365Y-71043692D01*
X157332537Y-71011962D01*
X157364586Y-70971130D01*
X157405262Y-70923264D01*
X157454358Y-70870432D01*
X157511613Y-70814715D01*
X157576811Y-70758184D01*
X157612306Y-70730252D01*
X157649705Y-70702900D01*
X157688973Y-70676376D01*
X157730081Y-70650929D01*
X157772997Y-70626839D01*
X157817699Y-70604358D01*
X157864139Y-70583743D01*
X157912308Y-70565253D01*
X157962174Y-70549132D01*
X158013707Y-70535664D01*
X158066869Y-70525104D01*
X158121645Y-70517697D01*
X158177991Y-70513716D01*
X158235894Y-70513394D01*
X158295300Y-70517019D01*
X158356218Y-70524849D01*
X158430002Y-70540006D01*
X158503184Y-70561189D01*
X158575753Y-70587949D01*
X158647720Y-70619923D01*
X158719061Y-70656688D01*
X158789799Y-70697836D01*
X158859919Y-70742975D01*
X158929420Y-70791694D01*
X159066545Y-70898247D01*
X159201156Y-71014249D01*
X159333227Y-71136466D01*
X159462757Y-71261680D01*
X159714036Y-71508086D01*
X159835749Y-71622806D01*
X159954826Y-71727557D01*
X160071219Y-71819102D01*
X160128417Y-71858908D01*
X160184948Y-71894202D01*
X160240794Y-71924564D01*
X160295967Y-71949596D01*
X160350442Y-71968911D01*
X160404239Y-71982080D01*
X160539480Y-72002631D01*
X160668256Y-72013406D01*
X160790252Y-72015608D01*
X160905165Y-72010364D01*
X161012671Y-71998866D01*
X161112463Y-71982257D01*
X161204240Y-71961713D01*
X161287674Y-71938391D01*
X161362466Y-71913462D01*
X161428292Y-71888071D01*
X161531820Y-71840614D01*
X161617639Y-71791477D01*
X161599841Y-71822678D01*
X161545538Y-71907976D01*
X161504276Y-71966991D01*
X161453366Y-72034844D01*
X161392638Y-72109964D01*
X161321925Y-72190785D01*
X161241058Y-72275756D01*
X161149856Y-72363302D01*
X161100331Y-72407547D01*
X161048150Y-72451852D01*
X160993314Y-72496026D01*
X160935775Y-72539870D01*
X160875539Y-72583179D01*
X160812556Y-72625768D01*
X160746836Y-72667438D01*
X160678332Y-72708002D01*
X160607027Y-72747253D01*
X160532907Y-72785000D01*
X160455948Y-72821039D01*
X160376115Y-72855195D01*
X160274096Y-72894339D01*
X160173077Y-72928258D01*
X160073095Y-72957039D01*
X159974113Y-72980810D01*
X159876157Y-72999654D01*
X159779211Y-73013699D01*
X159683287Y-73023036D01*
X159588387Y-73027796D01*
X159494502Y-73028074D01*
X159401636Y-73023968D01*
X159309791Y-73015601D01*
X159218971Y-73003083D01*
X159129172Y-72986505D01*
X159040386Y-72965993D01*
X158865910Y-72913579D01*
X158695523Y-72846695D01*
X158529235Y-72766218D01*
X158367046Y-72673001D01*
X158208981Y-72567923D01*
X158055016Y-72451834D01*
X157905188Y-72325608D01*
X157759475Y-72190115D01*
X157617887Y-72046205D01*
X157577157Y-72004051D01*
X157537829Y-71965336D01*
X157499824Y-71929970D01*
X157463086Y-71897832D01*
X157427531Y-71868814D01*
X157393089Y-71842813D01*
X157359691Y-71819717D01*
X157327263Y-71799409D01*
X157295741Y-71781794D01*
X157265043Y-71766758D01*
X157235104Y-71754192D01*
X157205845Y-71743979D01*
X157177202Y-71736025D01*
X157149094Y-71730213D01*
X157121471Y-71726430D01*
X157094232Y-71724583D01*
X157067330Y-71724542D01*
X157040673Y-71726205D01*
X157014208Y-71729470D01*
X156987846Y-71734225D01*
X156935174Y-71747764D01*
X156882086Y-71765954D01*
X156828011Y-71787925D01*
X156772380Y-71812797D01*
X156654124Y-71867773D01*
X156622704Y-71885718D01*
X156578732Y-71915314D01*
X156455268Y-72001099D01*
X156376808Y-72053120D01*
X156287919Y-72108428D01*
X156189089Y-72164952D01*
X156080858Y-72220597D01*
X156023378Y-72247431D01*
X155963743Y-72273273D01*
X155902028Y-72297842D01*
X155838283Y-72320880D01*
X155772576Y-72342150D01*
X155704998Y-72361359D01*
X155635568Y-72378256D01*
X155564388Y-72392600D01*
X155491502Y-72404102D01*
X155416991Y-72412514D01*
X155340914Y-72417572D01*
X155263335Y-72419021D01*
X155184323Y-72416588D01*
X155103935Y-72410030D01*
X155022244Y-72399069D01*
X154939327Y-72383442D01*
X154801035Y-72349385D01*
X154669318Y-72308675D01*
X154544006Y-72261835D01*
X154424960Y-72209372D01*
X154312045Y-72151788D01*
X154205128Y-72089589D01*
X154104041Y-72023280D01*
X154008666Y-71953375D01*
X153918847Y-71880370D01*
X153834451Y-71804780D01*
X153755333Y-71727101D01*
X153681349Y-71647855D01*
X153548212Y-71486644D01*
X153433911Y-71325205D01*
X153337316Y-71167592D01*
X153257288Y-71017857D01*
X153192685Y-70880037D01*
X153142375Y-70758194D01*
X153080090Y-70578632D01*
X153061351Y-70511589D01*
X153061342Y-70511576D01*
X153061348Y-70511578D01*
X153061351Y-70511589D01*
X153082212Y-70541087D01*
X153107854Y-70574687D01*
X153143261Y-70617947D01*
X153188149Y-70668688D01*
X153242238Y-70724727D01*
X153305240Y-70783882D01*
X153339979Y-70813949D01*
X153376849Y-70843971D01*
X153415794Y-70873680D01*
X153456800Y-70902815D01*
X153499811Y-70931093D01*
X153544800Y-70958238D01*
X153591741Y-70983972D01*
X153640569Y-71008039D01*
X153691284Y-71030159D01*
X153743821Y-71050054D01*
X153798162Y-71067462D01*
X153854273Y-71082101D01*
X153912101Y-71093695D01*
X153971626Y-71101990D01*
X154032806Y-71106695D01*
X154095604Y-71107547D01*
X154159996Y-71104260D01*
X154225927Y-71096577D01*
X154278668Y-71086489D01*
X154332699Y-71072025D01*
X154387971Y-71053497D01*
X154444401Y-71031236D01*
X154560585Y-70976808D01*
X154680810Y-70911319D01*
X154804607Y-70837380D01*
X154931578Y-70757565D01*
X155193188Y-70590709D01*
X155326955Y-70508840D01*
X155462088Y-70431476D01*
X155598160Y-70361197D01*
X155666410Y-70329526D01*
X155734730Y-70300601D01*
X155803059Y-70274740D01*
X155871342Y-70252269D01*
X155939532Y-70233526D01*
X156007566Y-70218810D01*
X156075391Y-70208457D01*
X156142948Y-70202801D01*
X156210189Y-70202160D01*
X156277056Y-70206842D01*
G37*
X156277056Y-70206842D02*
X156345485Y-70216659D01*
X156411164Y-70230299D01*
X156474131Y-70247476D01*
X156534422Y-70267941D01*
X156592076Y-70291398D01*
X156647136Y-70317598D01*
X156699622Y-70346271D01*
X156749592Y-70377125D01*
X156797075Y-70409907D01*
X156842111Y-70444347D01*
X156884743Y-70480156D01*
X156924999Y-70517087D01*
X156998542Y-70593174D01*
X157063068Y-70670468D01*
X157118864Y-70746773D01*
X157166230Y-70819941D01*
X157205480Y-70887793D01*
X157236909Y-70948175D01*
X157277538Y-71037818D01*
X157290538Y-71071563D01*
X157309365Y-71043692D01*
X157332537Y-71011962D01*
X157364586Y-70971130D01*
X157405262Y-70923264D01*
X157454358Y-70870432D01*
X157511613Y-70814715D01*
X157576811Y-70758184D01*
X157612306Y-70730252D01*
X157649705Y-70702900D01*
X157688973Y-70676376D01*
X157730081Y-70650929D01*
X157772997Y-70626839D01*
X157817699Y-70604358D01*
X157864139Y-70583743D01*
X157912308Y-70565253D01*
X157962174Y-70549132D01*
X158013707Y-70535664D01*
X158066869Y-70525104D01*
X158121645Y-70517697D01*
X158177991Y-70513716D01*
X158235894Y-70513394D01*
X158295300Y-70517019D01*
X158356218Y-70524849D01*
X158430002Y-70540006D01*
X158503184Y-70561189D01*
X158575753Y-70587949D01*
X158647720Y-70619923D01*
X158719061Y-70656688D01*
X158789799Y-70697836D01*
X158859919Y-70742975D01*
X158929420Y-70791694D01*
X159066545Y-70898247D01*
X159201156Y-71014249D01*
X159333227Y-71136466D01*
X159462757Y-71261680D01*
X159714036Y-71508086D01*
X159835749Y-71622806D01*
X159954826Y-71727557D01*
X160071219Y-71819102D01*
X160128417Y-71858908D01*
X160184948Y-71894202D01*
X160240794Y-71924564D01*
X160295967Y-71949596D01*
X160350442Y-71968911D01*
X160404239Y-71982080D01*
X160539480Y-72002631D01*
X160668256Y-72013406D01*
X160790252Y-72015608D01*
X160905165Y-72010364D01*
X161012671Y-71998866D01*
X161112463Y-71982257D01*
X161204240Y-71961713D01*
X161287674Y-71938391D01*
X161362466Y-71913462D01*
X161428292Y-71888071D01*
X161531820Y-71840614D01*
X161617639Y-71791477D01*
X161599841Y-71822678D01*
X161545538Y-71907976D01*
X161504276Y-71966991D01*
X161453366Y-72034844D01*
X161392638Y-72109964D01*
X161321925Y-72190785D01*
X161241058Y-72275756D01*
X161149856Y-72363302D01*
X161100331Y-72407547D01*
X161048150Y-72451852D01*
X160993314Y-72496026D01*
X160935775Y-72539870D01*
X160875539Y-72583179D01*
X160812556Y-72625768D01*
X160746836Y-72667438D01*
X160678332Y-72708002D01*
X160607027Y-72747253D01*
X160532907Y-72785000D01*
X160455948Y-72821039D01*
X160376115Y-72855195D01*
X160274096Y-72894339D01*
X160173077Y-72928258D01*
X160073095Y-72957039D01*
X159974113Y-72980810D01*
X159876157Y-72999654D01*
X159779211Y-73013699D01*
X159683287Y-73023036D01*
X159588387Y-73027796D01*
X159494502Y-73028074D01*
X159401636Y-73023968D01*
X159309791Y-73015601D01*
X159218971Y-73003083D01*
X159129172Y-72986505D01*
X159040386Y-72965993D01*
X158865910Y-72913579D01*
X158695523Y-72846695D01*
X158529235Y-72766218D01*
X158367046Y-72673001D01*
X158208981Y-72567923D01*
X158055016Y-72451834D01*
X157905188Y-72325608D01*
X157759475Y-72190115D01*
X157617887Y-72046205D01*
X157577157Y-72004051D01*
X157537829Y-71965336D01*
X157499824Y-71929970D01*
X157463086Y-71897832D01*
X157427531Y-71868814D01*
X157393089Y-71842813D01*
X157359691Y-71819717D01*
X157327263Y-71799409D01*
X157295741Y-71781794D01*
X157265043Y-71766758D01*
X157235104Y-71754192D01*
X157205845Y-71743979D01*
X157177202Y-71736025D01*
X157149094Y-71730213D01*
X157121471Y-71726430D01*
X157094232Y-71724583D01*
X157067330Y-71724542D01*
X157040673Y-71726205D01*
X157014208Y-71729470D01*
X156987846Y-71734225D01*
X156935174Y-71747764D01*
X156882086Y-71765954D01*
X156828011Y-71787925D01*
X156772380Y-71812797D01*
X156654124Y-71867773D01*
X156622704Y-71885718D01*
X156578732Y-71915314D01*
X156455268Y-72001099D01*
X156376808Y-72053120D01*
X156287919Y-72108428D01*
X156189089Y-72164952D01*
X156080858Y-72220597D01*
X156023378Y-72247431D01*
X155963743Y-72273273D01*
X155902028Y-72297842D01*
X155838283Y-72320880D01*
X155772576Y-72342150D01*
X155704998Y-72361359D01*
X155635568Y-72378256D01*
X155564388Y-72392600D01*
X155491502Y-72404102D01*
X155416991Y-72412514D01*
X155340914Y-72417572D01*
X155263335Y-72419021D01*
X155184323Y-72416588D01*
X155103935Y-72410030D01*
X155022244Y-72399069D01*
X154939327Y-72383442D01*
X154801035Y-72349385D01*
X154669318Y-72308675D01*
X154544006Y-72261835D01*
X154424960Y-72209372D01*
X154312045Y-72151788D01*
X154205128Y-72089589D01*
X154104041Y-72023280D01*
X154008666Y-71953375D01*
X153918847Y-71880370D01*
X153834451Y-71804780D01*
X153755333Y-71727101D01*
X153681349Y-71647855D01*
X153548212Y-71486644D01*
X153433911Y-71325205D01*
X153337316Y-71167592D01*
X153257288Y-71017857D01*
X153192685Y-70880037D01*
X153142375Y-70758194D01*
X153080090Y-70578632D01*
X153061351Y-70511589D01*
X153061342Y-70511576D01*
X153061348Y-70511578D01*
X153061351Y-70511589D01*
X153082212Y-70541087D01*
X153107854Y-70574687D01*
X153143261Y-70617947D01*
X153188149Y-70668688D01*
X153242238Y-70724727D01*
X153305240Y-70783882D01*
X153339979Y-70813949D01*
X153376849Y-70843971D01*
X153415794Y-70873680D01*
X153456800Y-70902815D01*
X153499811Y-70931093D01*
X153544800Y-70958238D01*
X153591741Y-70983972D01*
X153640569Y-71008039D01*
X153691284Y-71030159D01*
X153743821Y-71050054D01*
X153798162Y-71067462D01*
X153854273Y-71082101D01*
X153912101Y-71093695D01*
X153971626Y-71101990D01*
X154032806Y-71106695D01*
X154095604Y-71107547D01*
X154159996Y-71104260D01*
X154225927Y-71096577D01*
X154278668Y-71086489D01*
X154332699Y-71072025D01*
X154387971Y-71053497D01*
X154444401Y-71031236D01*
X154560585Y-70976808D01*
X154680810Y-70911319D01*
X154804607Y-70837380D01*
X154931578Y-70757565D01*
X155193188Y-70590709D01*
X155326955Y-70508840D01*
X155462088Y-70431476D01*
X155598160Y-70361197D01*
X155666410Y-70329526D01*
X155734730Y-70300601D01*
X155803059Y-70274740D01*
X155871342Y-70252269D01*
X155939532Y-70233526D01*
X156007566Y-70218810D01*
X156075391Y-70208457D01*
X156142948Y-70202801D01*
X156210189Y-70202160D01*
X156277056Y-70206842D01*
D11*
X163340575Y-69886706D02*
G75*
G03*
X161773387Y-68216455I-1570575J96706D01*
G01*
D12*
X56537784Y-116750411D03*
X57237784Y-116750411D03*
X56537784Y-117450411D03*
X57237784Y-117450411D03*
D13*
X150580002Y-56780006D03*
D14*
X138040000Y-48940000D03*
X138040000Y-49900000D03*
D15*
X72797208Y-48104296D03*
D16*
X68552208Y-50154296D03*
X71902208Y-50154296D03*
D17*
X67657208Y-48104296D03*
D13*
X150580002Y-55080006D03*
D12*
X56537784Y-84250411D03*
X57237784Y-84250411D03*
X56537784Y-84950411D03*
X57237784Y-84950411D03*
D14*
X162480002Y-53170000D03*
X162480002Y-54130000D03*
D18*
X154436261Y-51556692D03*
X155381989Y-51938790D03*
D14*
X136260000Y-47870000D03*
X136260000Y-48830000D03*
D19*
X90073752Y-70530006D03*
X89023752Y-77530006D03*
D20*
X94773752Y-74930006D03*
D21*
X137995000Y-48070000D03*
X138965000Y-48070000D03*
D14*
X136400000Y-53800000D03*
X136400000Y-54760000D03*
D20*
X132873752Y-74930006D03*
D19*
X127123752Y-77530006D03*
X128173752Y-70530006D03*
D14*
X137130000Y-47870000D03*
X137130000Y-48830000D03*
D12*
X56537784Y-52431211D03*
X57237784Y-52431211D03*
X56537784Y-53131211D03*
X57237784Y-53131211D03*
X56537784Y-54931211D03*
X57237784Y-54931211D03*
X56537784Y-55631211D03*
X57237784Y-55631211D03*
X56537784Y-64931211D03*
X57237784Y-64931211D03*
X56537784Y-65631211D03*
X57237784Y-65631211D03*
X56537784Y-106750411D03*
X57237784Y-106750411D03*
X56537784Y-107450411D03*
X57237784Y-107450411D03*
D22*
X136210000Y-56790000D03*
X137170000Y-56790000D03*
D12*
X56537784Y-99250411D03*
X57237784Y-99250411D03*
X56537784Y-99950411D03*
X57237784Y-99950411D03*
X56537784Y-114250411D03*
X57237784Y-114250411D03*
X56537784Y-114950411D03*
X57237784Y-114950411D03*
D23*
X127503756Y-85155002D03*
X126533756Y-85155002D03*
X125563756Y-85155002D03*
X124593756Y-85155002D03*
X124593756Y-83755002D03*
X125563756Y-83755002D03*
X126533756Y-83755002D03*
X127503756Y-83755002D03*
D22*
X136210000Y-57680000D03*
X137170000Y-57680000D03*
D12*
X56537784Y-89250411D03*
X57237784Y-89250411D03*
X56537784Y-89950411D03*
X57237784Y-89950411D03*
D24*
X56737978Y-49792251D03*
X57427344Y-49913805D03*
X56616424Y-50481617D03*
X57305790Y-50603171D03*
D19*
X137998752Y-98680006D03*
D20*
X142398752Y-93980006D03*
D19*
X144998752Y-99730006D03*
D25*
X136260000Y-50610000D03*
X136260000Y-49650000D03*
D14*
X142771402Y-48922257D03*
X142771402Y-49882257D03*
D22*
X145371402Y-47082257D03*
X146331402Y-47082257D03*
D19*
X161086252Y-70230000D03*
X154086252Y-69180000D03*
D20*
X156686252Y-74930000D03*
D19*
X113461252Y-51180006D03*
X106461252Y-50130006D03*
D20*
X109061252Y-55880006D03*
D12*
X56537784Y-62431211D03*
X57237784Y-62431211D03*
X56537784Y-63131211D03*
X57237784Y-63131211D03*
D15*
X85797208Y-48104296D03*
D16*
X81552208Y-50154296D03*
X84902208Y-50154296D03*
D17*
X80657208Y-48104296D03*
D22*
X145360000Y-51300000D03*
X146320000Y-51300000D03*
D19*
X118948752Y-98680006D03*
X125948752Y-99730006D03*
D20*
X123348752Y-93980006D03*
D22*
X143571402Y-47082257D03*
X144531402Y-47082257D03*
D26*
X139960000Y-50740888D03*
X140460000Y-50740888D03*
X140960000Y-50740888D03*
X141460000Y-50740888D03*
X141960000Y-50740888D03*
X142460000Y-50740888D03*
X142960000Y-50740888D03*
X143460000Y-50740888D03*
X143960000Y-50740888D03*
X144460000Y-56240888D03*
X138460000Y-56490888D03*
X139210000Y-56740888D03*
X140210000Y-56740888D03*
X140710000Y-56740888D03*
X141210000Y-56740888D03*
X141710000Y-56740888D03*
X142210000Y-56740888D03*
X142710000Y-56740888D03*
X143210000Y-56740888D03*
X144460000Y-56740888D03*
X138460000Y-57240888D03*
X138960000Y-57240888D03*
X139460000Y-57240888D03*
X139960000Y-57240888D03*
X140460000Y-57240888D03*
X140960000Y-57240888D03*
X141460000Y-57240888D03*
X141960000Y-57240888D03*
X142460000Y-57240888D03*
X142960000Y-57240888D03*
X143460000Y-57240888D03*
X143960000Y-57240888D03*
X137960000Y-51240888D03*
X138710000Y-51240888D03*
X139210000Y-51240888D03*
X139710000Y-51240888D03*
X140210000Y-51240888D03*
X140710000Y-51240888D03*
X141210000Y-51240888D03*
X141710000Y-51240888D03*
X142210000Y-51240888D03*
X142710000Y-51240888D03*
X144460000Y-51240888D03*
X137960000Y-51740888D03*
X138460000Y-51990888D03*
X143960000Y-51990888D03*
X144460000Y-52240888D03*
D27*
X141210000Y-53990888D03*
D26*
X138460000Y-52490888D03*
X143960000Y-52490888D03*
X137960000Y-52740888D03*
X138460000Y-52990888D03*
X143960000Y-52990888D03*
X137960000Y-53240888D03*
X144460000Y-53240888D03*
X138460000Y-53490888D03*
X137960000Y-53740888D03*
X144460000Y-53740888D03*
X138460000Y-53990888D03*
X137960000Y-54240888D03*
X144460000Y-54240888D03*
X138460000Y-54490888D03*
X143960000Y-54490888D03*
X137960000Y-54740888D03*
X144460000Y-54740888D03*
X138460000Y-54990888D03*
X143960000Y-54990888D03*
X137960000Y-55240888D03*
X144460000Y-55240888D03*
X143960000Y-55490888D03*
X137960000Y-55740888D03*
X144460000Y-55740888D03*
X138460000Y-55990888D03*
X143960000Y-55990888D03*
D19*
X73561250Y-118780000D03*
X66561250Y-117730000D03*
D20*
X70961250Y-113030000D03*
D28*
X146200000Y-54260000D03*
X145240000Y-54260000D03*
D12*
X56537784Y-94250411D03*
X57237784Y-94250411D03*
X56537784Y-94950411D03*
X57237784Y-94950411D03*
D14*
X146300000Y-52170000D03*
X146300000Y-53130000D03*
D22*
X136210000Y-55900000D03*
X137170000Y-55900000D03*
D19*
X132511252Y-51180006D03*
X125511252Y-50130006D03*
D20*
X128111252Y-55880006D03*
X154305002Y-55880006D03*
D19*
X156905002Y-61630006D03*
X149905002Y-60580006D03*
D25*
X141275000Y-58955000D03*
X141275000Y-57995000D03*
D19*
X99755000Y-118780000D03*
D20*
X97155000Y-113030000D03*
D19*
X92755000Y-117730000D03*
D12*
X56537784Y-101750411D03*
X57237784Y-101750411D03*
X56537784Y-102450411D03*
X57237784Y-102450411D03*
D14*
X137130000Y-49650000D03*
X137130000Y-50610000D03*
D12*
X56537784Y-86750411D03*
X57237784Y-86750411D03*
X56537784Y-87450411D03*
X57237784Y-87450411D03*
D19*
X155698752Y-96580006D03*
X156748752Y-89580006D03*
D20*
X161448752Y-93980006D03*
D29*
X56750258Y-119338997D03*
X57415998Y-119122685D03*
X56966570Y-120004737D03*
X57632310Y-119788425D03*
D12*
X56537784Y-96750411D03*
X57237784Y-96750411D03*
X56537784Y-97450411D03*
X57237784Y-97450411D03*
D19*
X108073750Y-77530000D03*
X109123750Y-70530000D03*
D20*
X113823750Y-74930000D03*
D30*
X138920000Y-48930000D03*
X138920000Y-49900000D03*
D12*
X56537784Y-111750411D03*
X57237784Y-111750411D03*
X56537784Y-112450411D03*
X57237784Y-112450411D03*
D28*
X144990000Y-58040000D03*
X144030000Y-58040000D03*
D19*
X62830002Y-58480000D03*
D20*
X68580002Y-55880000D03*
D19*
X63880002Y-51480000D03*
X95761252Y-53280006D03*
D20*
X90011252Y-55880006D03*
D19*
X94711252Y-60280006D03*
X90998752Y-91380006D03*
D20*
X85248752Y-93980006D03*
D19*
X89948752Y-98380006D03*
D20*
X104298752Y-93980006D03*
D19*
X108998752Y-98380006D03*
X110048752Y-91380006D03*
D31*
X146030000Y-48140000D03*
X143830000Y-48140000D03*
X143830000Y-49740000D03*
X146030000Y-49740000D03*
D12*
X56537784Y-59931211D03*
X57237784Y-59931211D03*
X56537784Y-60631211D03*
X57237784Y-60631211D03*
D20*
X66198752Y-93980006D03*
D19*
X63598752Y-88230006D03*
X70598752Y-89280006D03*
D12*
X56537784Y-104250411D03*
X57237784Y-104250411D03*
X56537784Y-104950411D03*
X57237784Y-104950411D03*
X56537784Y-81750411D03*
X57237784Y-81750411D03*
X56537784Y-82450411D03*
X57237784Y-82450411D03*
X56537784Y-57431211D03*
X57237784Y-57431211D03*
X56537784Y-58131211D03*
X57237784Y-58131211D03*
X56537784Y-91750411D03*
X57237784Y-91750411D03*
X56537784Y-92450411D03*
X57237784Y-92450411D03*
D32*
X151589441Y-51919425D03*
X152488809Y-51556057D03*
D33*
X136525000Y-51570000D03*
X136525000Y-52970000D03*
D14*
X153459125Y-50387741D03*
X153459125Y-51347741D03*
D12*
X56537784Y-109250411D03*
X57237784Y-109250411D03*
X56537784Y-109950411D03*
X57237784Y-109950411D03*
X56537784Y-67431211D03*
X57237784Y-67431211D03*
X56537784Y-68131211D03*
X57237784Y-68131211D03*
D19*
X65211252Y-77530006D03*
D20*
X70961252Y-74930006D03*
D19*
X66261252Y-70530006D03*
D34*
X57369184Y-69355911D03*
X57369184Y-80506511D03*
D35*
X61169184Y-80506811D03*
X61169184Y-69355911D03*
M02*
