G04 #@! TF.GenerationSoftware,KiCad,Pcbnew,(6.0.11-0)*
G04 #@! TF.CreationDate,2023-02-16T18:47:18+08:00*
G04 #@! TF.ProjectId,Right,52696768-742e-46b6-9963-61645f706362,rev?*
G04 #@! TF.SameCoordinates,Original*
G04 #@! TF.FileFunction,Legend,Bot*
G04 #@! TF.FilePolarity,Positive*
%FSLAX46Y46*%
G04 Gerber Fmt 4.6, Leading zero omitted, Abs format (unit mm)*
G04 Created by KiCad (PCBNEW (6.0.11-0)) date 2023-02-16 18:47:18*
%MOMM*%
%LPD*%
G01*
G04 APERTURE LIST*
G04 Aperture macros list*
%AMRoundRect*
0 Rectangle with rounded corners*
0 $1 Rounding radius*
0 $2 $3 $4 $5 $6 $7 $8 $9 X,Y pos of 4 corners*
0 Add a 4 corners polygon primitive as box body*
4,1,4,$2,$3,$4,$5,$6,$7,$8,$9,$2,$3,0*
0 Add four circle primitives for the rounded corners*
1,1,$1+$1,$2,$3*
1,1,$1+$1,$4,$5*
1,1,$1+$1,$6,$7*
1,1,$1+$1,$8,$9*
0 Add four rect primitives between the rounded corners*
20,1,$1+$1,$2,$3,$4,$5,0*
20,1,$1+$1,$4,$5,$6,$7,0*
20,1,$1+$1,$6,$7,$8,$9,0*
20,1,$1+$1,$8,$9,$2,$3,0*%
%AMRotRect*
0 Rectangle, with rotation*
0 The origin of the aperture is its center*
0 $1 length*
0 $2 width*
0 $3 Rotation angle, in degrees counterclockwise*
0 Add horizontal line*
21,1,$1,$2,0,0,$3*%
%AMOutline4P*
0 Free polygon, 4 corners , with rotation*
0 The origin of the aperture is its center*
0 number of corners: always 4*
0 $1 to $8 corner X, Y*
0 $9 Rotation angle, in degrees counterclockwise*
0 create outline with 4 corners*
4,1,4,$1,$2,$3,$4,$5,$6,$7,$8,$1,$2,$9*%
%AMOutline5P*
0 Free polygon, 5 corners , with rotation*
0 The origin of the aperture is its center*
0 number of corners: always 5*
0 $1 to $10 corner X, Y*
0 $11 Rotation angle, in degrees counterclockwise*
0 create outline with 5 corners*
4,1,5,$1,$2,$3,$4,$5,$6,$7,$8,$9,$10,$1,$2,$11*%
%AMOutline6P*
0 Free polygon, 6 corners , with rotation*
0 The origin of the aperture is its center*
0 number of corners: always 6*
0 $1 to $12 corner X, Y*
0 $13 Rotation angle, in degrees counterclockwise*
0 create outline with 6 corners*
4,1,6,$1,$2,$3,$4,$5,$6,$7,$8,$9,$10,$11,$12,$1,$2,$13*%
%AMOutline7P*
0 Free polygon, 7 corners , with rotation*
0 The origin of the aperture is its center*
0 number of corners: always 7*
0 $1 to $14 corner X, Y*
0 $15 Rotation angle, in degrees counterclockwise*
0 create outline with 7 corners*
4,1,7,$1,$2,$3,$4,$5,$6,$7,$8,$9,$10,$11,$12,$13,$14,$1,$2,$15*%
%AMOutline8P*
0 Free polygon, 8 corners , with rotation*
0 The origin of the aperture is its center*
0 number of corners: always 8*
0 $1 to $16 corner X, Y*
0 $17 Rotation angle, in degrees counterclockwise*
0 create outline with 8 corners*
4,1,8,$1,$2,$3,$4,$5,$6,$7,$8,$9,$10,$11,$12,$13,$14,$15,$16,$1,$2,$17*%
%AMFreePoly0*
4,1,6,0.500000,-0.850000,-0.199999,-0.850000,-0.500000,-0.550000,-0.500000,0.850000,0.500000,0.850000,0.500000,-0.850000,0.500000,-0.850000,$1*%
%AMFreePoly1*
4,1,9,1.475000,0.375000,1.050000,0.375000,1.050000,0.775000,0.300000,0.775000,0.300000,-0.250000,-0.250000,-0.250000,-0.250000,1.250000,1.475000,1.250000,1.475000,0.375000,1.475000,0.375000,$1*%
%AMFreePoly2*
4,1,9,3.862500,-0.866500,0.737500,-0.866500,0.737500,-0.450000,-0.737500,-0.450000,-0.737500,0.450000,0.737500,0.450000,0.737500,0.866500,3.862500,0.866500,3.862500,-0.866500,3.862500,-0.866500,$1*%
G04 Aperture macros list end*
%ADD10C,1.200000*%
%ADD11C,0.500000*%
%ADD12C,0.150000*%
%ADD13C,0.120000*%
%ADD14C,0.100000*%
%ADD15C,0.080000*%
%ADD16C,0.189307*%
%ADD17RoundRect,0.500000X-0.042321X-1.345626X0.897371X-1.003606X0.042321X1.345626X-0.897371X1.003606X0*%
%ADD18RoundRect,0.500000X0.042321X1.345626X-0.897371X1.003606X-0.042321X-1.345626X0.897371X-1.003606X0*%
%ADD19RoundRect,0.500000X-0.500000X-1.250000X0.500000X-1.250000X0.500000X1.250000X-0.500000X1.250000X0*%
%ADD20RoundRect,0.500000X0.500000X1.250000X-0.500000X1.250000X-0.500000X-1.250000X0.500000X-1.250000X0*%
%ADD21C,3.050000*%
%ADD22C,5.100000*%
%ADD23RoundRect,0.170000X0.680000X-0.830000X0.680000X0.830000X-0.680000X0.830000X-0.680000X-0.830000X0*%
%ADD24RoundRect,0.170000X-0.680000X0.830000X-0.680000X-0.830000X0.680000X-0.830000X0.680000X0.830000X0*%
%ADD25RoundRect,0.500000X-0.136084X-1.339396X0.825178X-1.063758X0.136084X1.339396X-0.825178X1.063758X0*%
%ADD26RoundRect,0.500000X0.136084X1.339396X-0.825178X1.063758X-0.136084X-1.339396X0.825178X-1.063758X0*%
%ADD27RoundRect,0.500000X1.292844X0.375571X0.677183X1.163582X-1.292844X-0.375571X-0.677183X-1.163582X0*%
%ADD28RoundRect,0.500000X-1.292844X-0.375571X-0.677183X-1.163582X1.292844X0.375571X0.677183X1.163582X0*%
%ADD29RoundRect,0.170000X0.830000X0.680000X-0.830000X0.680000X-0.830000X-0.680000X0.830000X-0.680000X0*%
%ADD30RoundRect,0.170000X-0.830000X-0.680000X0.830000X-0.680000X0.830000X0.680000X-0.830000X0.680000X0*%
%ADD31RoundRect,0.500000X0.669100X1.168249X-0.321168X1.307422X-0.669100X-1.168249X0.321168X-1.307422X0*%
%ADD32RoundRect,0.500000X-0.669100X-1.168249X0.321168X-1.307422X0.669100X1.168249X-0.321168X1.307422X0*%
%ADD33RoundRect,0.500000X-0.904307X0.997361X-1.342678X0.098567X0.904307X-0.997361X1.342678X-0.098567X0*%
%ADD34RoundRect,0.500000X0.904307X-0.997361X1.342678X-0.098567X-0.904307X0.997361X-1.342678X0.098567X0*%
%ADD35RoundRect,0.500000X-1.028313X-0.868949X-0.145366X-1.338420X1.028313X0.868949X0.145366X1.338420X0*%
%ADD36RoundRect,0.500000X1.028313X0.868949X0.145366X1.338420X-1.028313X-0.868949X-0.145366X-1.338420X0*%
%ADD37RoundRect,0.500000X0.585978X1.212077X-0.411586X1.281833X-0.585978X-1.212077X0.411586X-1.281833X0*%
%ADD38RoundRect,0.500000X-0.585978X-1.212077X0.411586X-1.281833X0.585978X1.212077X-0.411586X1.281833X0*%
%ADD39RoundRect,0.500000X0.420462X-1.278949X1.186507X-0.636162X-0.420462X1.278949X-1.186507X0.636162X0*%
%ADD40RoundRect,0.500000X-0.420462X1.278949X-1.186507X0.636162X0.420462X-1.278949X1.186507X-0.636162X0*%
%ADD41RoundRect,0.500000X0.677183X-1.163582X1.292844X-0.375571X-0.677183X1.163582X-1.292844X0.375571X0*%
%ADD42RoundRect,0.500000X-0.677183X1.163582X-1.292844X0.375571X0.677183X-1.163582X1.292844X-0.375571X0*%
%ADD43RoundRect,0.500000X-1.325020X-0.238375X-0.795100X-1.086423X1.325020X0.238375X0.795100X1.086423X0*%
%ADD44RoundRect,0.500000X1.325020X0.238375X0.795100X1.086423X-1.325020X-0.238375X-0.795100X-1.086423X0*%
%ADD45RoundRect,0.500000X0.971677X-0.931850X1.346283X-0.004666X-0.971677X0.931850X-1.346283X0.004666X0*%
%ADD46RoundRect,0.500000X-0.971677X0.931850X-1.346283X0.004666X0.971677X-0.931850X1.346283X-0.004666X0*%
%ADD47RoundRect,0.500000X-0.004666X1.346283X-0.931850X0.971677X0.004666X-1.346283X0.931850X-0.971677X0*%
%ADD48RoundRect,0.500000X0.004666X-1.346283X0.931850X-0.971677X-0.004666X1.346283X-0.931850X0.971677X0*%
%ADD49RoundRect,0.500000X1.077998X-0.806487X1.336817X0.159439X-1.077998X0.806487X-1.336817X-0.159439X0*%
%ADD50RoundRect,0.500000X-1.077998X0.806487X-1.336817X-0.159439X1.077998X-0.806487X1.336817X0.159439X0*%
%ADD51RoundRect,0.140000X0.213186X0.055243X-0.013339X0.219823X-0.213186X-0.055243X0.013339X-0.219823X0*%
%ADD52RoundRect,0.150000X-0.150000X0.350000X-0.150000X-0.350000X0.150000X-0.350000X0.150000X0.350000X0*%
%ADD53R,0.500000X0.350000*%
%ADD54C,1.500000*%
%ADD55RoundRect,0.135000X0.007516X-0.228896X0.220279X-0.062668X-0.007516X0.228896X-0.220279X0.062668X0*%
%ADD56RoundRect,0.140000X-0.170000X0.140000X-0.170000X-0.140000X0.170000X-0.140000X0.170000X0.140000X0*%
%ADD57RoundRect,0.135000X-0.185000X0.135000X-0.185000X-0.135000X0.185000X-0.135000X0.185000X0.135000X0*%
%ADD58RoundRect,0.135000X0.215044X-0.078777X0.140622X0.180763X-0.215044X0.078777X-0.140622X-0.180763X0*%
%ADD59C,1.000000*%
%ADD60RoundRect,0.135000X0.135000X0.185000X-0.135000X0.185000X-0.135000X-0.185000X0.135000X-0.185000X0*%
%ADD61RoundRect,0.150000X-0.332403X-0.185763X0.363762X-0.112593X0.332403X0.185763X-0.363762X0.112593X0*%
%ADD62RoundRect,0.147500X0.172500X-0.147500X0.172500X0.147500X-0.172500X0.147500X-0.172500X-0.147500X0*%
%ADD63RoundRect,0.135000X0.159433X0.164411X-0.107939X0.201988X-0.159433X-0.164411X0.107939X-0.201988X0*%
%ADD64RoundRect,0.135000X-0.015500X0.228495X-0.222332X0.054942X0.015500X-0.228495X0.222332X-0.054942X0*%
%ADD65RoundRect,0.135000X0.185000X-0.135000X0.185000X0.135000X-0.185000X0.135000X-0.185000X-0.135000X0*%
%ADD66RoundRect,0.150000X0.312679X-0.217329X-0.058265X0.376305X-0.312679X0.217329X0.058265X-0.376305X0*%
%ADD67RoundRect,0.140000X0.062649X-0.211128X0.219223X0.021002X-0.062649X0.211128X-0.219223X-0.021002X0*%
%ADD68RoundRect,0.150000X0.097280X0.368153X-0.333683X-0.183455X-0.097280X-0.368153X0.333683X0.183455X0*%
%ADD69R,0.650000X1.060000*%
%ADD70RoundRect,0.135000X-0.135000X-0.185000X0.135000X-0.185000X0.135000X0.185000X-0.135000X0.185000X0*%
%ADD71R,0.800000X0.540000*%
%ADD72R,0.800000X0.300000*%
%ADD73O,2.200000X1.000000*%
%ADD74O,1.800000X1.000000*%
%ADD75RoundRect,0.135000X-0.190132X-0.127670X0.063585X-0.220016X0.190132X0.127670X-0.063585X0.220016X0*%
%ADD76R,0.800000X0.900000*%
%ADD77RoundRect,0.150000X0.350000X0.150000X-0.350000X0.150000X-0.350000X-0.150000X0.350000X-0.150000X0*%
%ADD78RoundRect,0.150000X0.228109X0.304904X-0.378109X-0.045096X-0.228109X-0.304904X0.378109X0.045096X0*%
%ADD79RotRect,1.060000X0.650000X284.000000*%
%ADD80RotRect,0.500000X0.500000X106.000000*%
%ADD81RoundRect,0.087500X0.074208X-0.193147X0.100366X0.180940X-0.074208X0.193147X-0.100366X-0.180940X0*%
%ADD82RoundRect,0.087500X0.180940X-0.100366X0.193147X0.074208X-0.180940X0.100366X-0.193147X-0.074208X0*%
%ADD83RotRect,0.500000X0.500000X332.000000*%
%ADD84RoundRect,0.140000X-0.148861X0.162297X-0.187830X-0.114978X0.148861X-0.162297X0.187830X0.114978X0*%
%ADD85RoundRect,0.150000X-0.364534X0.110069X0.171697X-0.339882X0.364534X-0.110069X-0.171697X0.339882X0*%
%ADD86RoundRect,0.150000X-0.373538X-0.073953X0.311165X-0.219491X0.373538X0.073953X-0.311165X0.219491X0*%
%ADD87RoundRect,0.135000X-0.007516X0.228896X-0.220279X0.062668X0.007516X-0.228896X0.220279X-0.062668X0*%
%ADD88RoundRect,0.140000X-0.140000X-0.170000X0.140000X-0.170000X0.140000X0.170000X-0.140000X0.170000X0*%
%ADD89RoundRect,0.135000X-0.114096X0.198575X-0.223915X-0.048082X0.114096X-0.198575X0.223915X0.048082X0*%
%ADD90RoundRect,0.250000X0.625000X-0.312500X0.625000X0.312500X-0.625000X0.312500X-0.625000X-0.312500X0*%
%ADD91RoundRect,0.150000X0.217329X0.312679X-0.376305X-0.058265X-0.217329X-0.312679X0.376305X0.058265X0*%
%ADD92RoundRect,0.135000X0.220279X0.062668X0.007516X0.228896X-0.220279X-0.062668X-0.007516X-0.228896X0*%
%ADD93RotRect,1.200000X3.700000X242.000000*%
%ADD94RoundRect,0.135000X-0.107097X0.202436X-0.225457X-0.040239X0.107097X-0.202436X0.225457X0.040239X0*%
%ADD95RoundRect,0.150000X-0.360470X0.122724X0.159731X-0.345667X0.360470X-0.122724X-0.159731X0.345667X0*%
%ADD96RoundRect,0.135000X0.202436X0.107097X-0.040239X0.225457X-0.202436X-0.107097X0.040239X-0.225457X0*%
%ADD97RoundRect,0.150000X-0.350000X-0.150000X0.350000X-0.150000X0.350000X0.150000X-0.350000X0.150000X0*%
%ADD98RoundRect,0.150000X-0.021247X0.380195X-0.260661X-0.277589X0.021247X-0.380195X0.260661X0.277589X0*%
%ADD99Outline4P,-0.225000X0.475000X0.225000X0.475000X0.225000X-0.475000X-0.225000X-0.475000X310.000000*%
%ADD100Outline6P,-0.225000X0.537500X-0.112500X0.650000X0.225000X0.650000X0.225000X-0.650000X-0.112500X-0.650000X-0.225000X-0.537500X220.000000*%
%ADD101Outline6P,-0.225000X1.037500X-0.112500X1.150000X0.225000X1.150000X0.225000X-1.150000X-0.112500X-1.150000X-0.225000X-1.037500X130.000000*%
%ADD102Outline6P,-0.225000X0.537500X-0.112500X0.650000X0.225000X0.650000X0.225000X-0.650000X-0.112500X-0.650000X-0.225000X-0.537500X40.000000*%
%ADD103Outline6P,-0.225000X1.037500X-0.112500X1.150000X0.225000X1.150000X0.225000X-1.150000X-0.112500X-1.150000X-0.225000X-1.037500X310.000000*%
%ADD104RoundRect,0.140000X0.140000X0.170000X-0.140000X0.170000X-0.140000X-0.170000X0.140000X-0.170000X0*%
%ADD105RoundRect,0.150000X0.073953X-0.373538X0.219491X0.311165X-0.073953X0.373538X-0.219491X-0.311165X0*%
%ADD106RoundRect,0.135000X0.086234X0.212164X-0.175745X0.146845X-0.086234X-0.212164X0.175745X-0.146845X0*%
%ADD107RoundRect,0.135000X-0.055868X-0.222101X0.194472X-0.120957X0.055868X0.222101X-0.194472X0.120957X0*%
%ADD108RoundRect,0.135000X-0.217958X-0.070317X0.000477X-0.229019X0.217958X0.070317X-0.000477X0.229019X0*%
%ADD109RoundRect,0.150000X-0.099830X0.367470X-0.197251X-0.325718X0.099830X-0.367470X0.197251X0.325718X0*%
%ADD110RoundRect,0.135000X0.198575X0.114096X-0.048082X0.223915X-0.198575X-0.114096X0.048082X-0.223915X0*%
%ADD111R,0.375000X0.350000*%
%ADD112R,0.350000X0.375000*%
%ADD113RoundRect,0.140000X0.170000X-0.140000X0.170000X0.140000X-0.170000X0.140000X-0.170000X-0.140000X0*%
%ADD114RoundRect,0.225000X0.311821X0.126065X-0.092636X0.323332X-0.311821X-0.126065X0.092636X-0.323332X0*%
%ADD115RoundRect,0.150000X0.279390X-0.258730X-0.005326X0.380751X-0.279390X0.258730X0.005326X-0.380751X0*%
%ADD116RoundRect,0.140000X0.207631X-0.073414X0.111865X0.189700X-0.207631X0.073414X-0.111865X-0.189700X0*%
%ADD117RoundRect,0.135000X0.194472X0.120957X-0.055868X0.222101X-0.194472X-0.120957X0.055868X-0.222101X0*%
%ADD118RoundRect,0.150000X0.364534X-0.110069X-0.171697X0.339882X-0.364534X0.110069X0.171697X-0.339882X0*%
%ADD119RoundRect,0.140000X0.118417X-0.185681X0.204942X0.080615X-0.118417X0.185681X-0.204942X-0.080615X0*%
%ADD120R,0.900000X0.800000*%
%ADD121RoundRect,0.135000X0.164411X-0.159433X0.201988X0.107939X-0.164411X0.159433X-0.201988X-0.107939X0*%
%ADD122RoundRect,0.135000X0.175132X-0.147576X0.193966X0.121766X-0.175132X0.147576X-0.193966X-0.121766X0*%
%ADD123RoundRect,0.150000X0.250814X-0.286517X0.034503X0.379222X-0.250814X0.286517X-0.034503X-0.379222X0*%
%ADD124RoundRect,0.135000X0.141374X0.180176X-0.128461X0.189599X-0.141374X-0.180176X0.128461X-0.189599X0*%
%ADD125C,0.310000*%
%ADD126RoundRect,0.140000X-0.091423X0.200354X-0.214167X-0.051308X0.091423X-0.200354X0.214167X0.051308X0*%
%ADD127RoundRect,0.135000X-0.071224X-0.217663X0.185561X-0.134228X0.071224X0.217663X-0.185561X0.134228X0*%
%ADD128RotRect,0.550000X0.250000X40.000000*%
%ADD129RotRect,0.550000X0.250000X220.000000*%
%ADD130FreePoly0,40.000000*%
%ADD131RoundRect,0.150000X0.378109X-0.045096X-0.228109X0.304904X-0.378109X0.045096X0.228109X-0.304904X0*%
%ADD132RoundRect,0.135000X0.062668X-0.220279X0.228896X-0.007516X-0.062668X0.220279X-0.228896X0.007516X0*%
%ADD133RotRect,0.900000X0.800000X286.000000*%
%ADD134FreePoly1,90.000000*%
%ADD135FreePoly1,270.000000*%
%ADD136RoundRect,0.150000X0.238611X0.296757X-0.379452X-0.031873X-0.238611X-0.296757X0.379452X0.031873X0*%
%ADD137RoundRect,0.140000X-0.101596X-0.195393X0.172286X-0.137177X0.101596X0.195393X-0.172286X0.137177X0*%
%ADD138RoundRect,0.140000X0.157003X0.154435X-0.121463X0.183703X-0.157003X-0.154435X0.121463X-0.183703X0*%
%ADD139RoundRect,0.140000X-0.002028X0.220218X-0.216520X0.040237X0.002028X-0.220218X0.216520X-0.040237X0*%
%ADD140RoundRect,0.140000X0.165011X-0.145848X0.174782X0.133982X-0.165011X0.145848X-0.174782X-0.133982X0*%
%ADD141RoundRect,0.147500X-0.172500X0.147500X-0.172500X-0.147500X0.172500X-0.147500X0.172500X0.147500X0*%
%ADD142RoundRect,0.135000X-0.134228X0.185561X-0.217663X-0.071224X0.134228X-0.185561X0.217663X0.071224X0*%
%ADD143RoundRect,0.135000X0.158747X-0.165074X0.205632X0.100824X-0.158747X0.165074X-0.205632X-0.100824X0*%
%ADD144RoundRect,0.140000X-0.025036X0.218799X-0.219540X0.017384X0.025036X-0.218799X0.219540X-0.017384X0*%
%ADD145RoundRect,0.135000X0.047149X-0.224114X0.227814X-0.023465X-0.047149X0.224114X-0.227814X0.023465X0*%
%ADD146R,1.300000X0.900000*%
%ADD147FreePoly2,180.000000*%
%ADD148RoundRect,0.150000X0.099830X-0.367470X0.197251X0.325718X-0.099830X0.367470X-0.197251X-0.325718X0*%
%ADD149RoundRect,0.140000X-0.145848X-0.165011X0.133982X-0.174782X0.145848X0.165011X-0.133982X0.174782X0*%
%ADD150RoundRect,0.140000X-0.217224X0.036244X-0.077224X-0.206244X0.217224X-0.036244X0.077224X0.206244X0*%
%ADD151RoundRect,0.140000X0.217224X-0.036244X0.077224X0.206244X-0.217224X0.036244X-0.077224X-0.206244X0*%
%ADD152RoundRect,0.150000X0.277589X0.260661X-0.380195X0.021247X-0.277589X-0.260661X0.380195X-0.021247X0*%
%ADD153RoundRect,0.135000X-0.078777X-0.215044X0.180763X-0.140622X0.078777X0.215044X-0.180763X0.140622X0*%
%ADD154Outline5P,-0.200000X0.260000X-0.160000X0.300000X0.200000X0.300000X0.200000X-0.300000X-0.200000X-0.300000X310.000000*%
%ADD155Outline5P,-1.700000X1.810000X-1.360000X2.150000X1.700000X2.150000X1.700000X-2.150000X-1.700000X-2.150000X40.000000*%
%ADD156RoundRect,0.135000X0.206050X0.099967X-0.032346X0.226724X-0.206050X-0.099967X0.032346X-0.226724X0*%
%ADD157RoundRect,0.135000X-0.024413X-0.227715X0.209413X-0.092715X0.024413X0.227715X-0.209413X0.092715X0*%
%ADD158RoundRect,0.150000X-0.512500X-0.150000X0.512500X-0.150000X0.512500X0.150000X-0.512500X0.150000X0*%
%ADD159RoundRect,0.250000X0.421338X-0.592114X0.726494X-0.018199X-0.421338X0.592114X-0.726494X0.018199X0*%
G04 APERTURE END LIST*
D10*
X60826275Y-122376317D02*
X60920864Y-122387797D01*
G36*
X165373160Y-104004294D02*
G01*
X164395159Y-104004294D01*
X164395159Y-102804294D01*
X165373160Y-102804294D01*
X165373160Y-104004294D01*
G37*
G36*
X134917158Y-104004294D02*
G01*
X129839157Y-104004294D01*
X129839157Y-102804294D01*
X134917158Y-102804294D01*
X134917158Y-104004294D01*
G37*
X108974497Y-107862138D02*
X108988566Y-107684617D01*
X57273335Y-48862006D02*
X57147689Y-49186543D01*
X112911039Y-103468047D02*
X113240981Y-103432202D01*
X165464665Y-103404294D02*
X166220137Y-103382902D01*
X59505458Y-46828774D02*
X59180921Y-46954420D01*
X56773208Y-79501294D02*
X56773208Y-117045795D01*
X106681989Y-121897062D02*
X107104946Y-121660012D01*
X166820078Y-103326323D02*
X166906333Y-103315848D01*
X57330439Y-48732965D02*
X57273335Y-48862006D01*
X109092991Y-106942679D02*
X109147298Y-106704270D01*
X109621869Y-105482501D02*
X109715245Y-105330765D01*
X108872203Y-118487453D02*
X108882676Y-118401231D01*
X170315923Y-101125633D02*
X170373030Y-100996588D01*
X57147692Y-119722060D02*
X57273332Y-120046585D01*
X59180910Y-121954164D02*
X59505487Y-122079818D01*
X169721607Y-47831607D02*
X169670768Y-47780614D01*
X108166371Y-120598583D02*
X108403424Y-120175618D01*
X57121368Y-119644195D02*
X57147692Y-119722060D01*
X57975597Y-121127969D02*
X58037469Y-121190028D01*
X109522847Y-105662861D02*
X109621869Y-105482501D01*
X110887129Y-104158881D02*
X111038865Y-104065505D01*
X61426231Y-122432887D02*
X62181707Y-122454294D01*
X170851755Y-51107309D02*
X170806673Y-50601969D01*
X57876714Y-47885418D02*
X57839874Y-47926679D01*
X168465448Y-102904168D02*
X168594508Y-102847067D01*
X59505487Y-122079818D02*
X59583313Y-122106143D01*
X56964074Y-119047880D02*
X57098295Y-119575985D01*
X107488274Y-121387631D02*
X107529520Y-121350806D01*
X170525006Y-100594196D02*
X170548060Y-100526020D01*
X57121371Y-49264375D02*
X57098310Y-49332575D01*
X169495837Y-47605837D02*
X169442042Y-47557802D01*
X170795185Y-50507388D02*
X170784708Y-50421135D01*
X169495825Y-102252767D02*
X169546821Y-102201916D01*
D11*
X166662573Y-48228245D02*
G75*
G03*
X166097230Y-50244266I1064727J-1385855D01*
G01*
D10*
X168465448Y-46954423D02*
X168140907Y-46828775D01*
X58150523Y-47605844D02*
X58099531Y-47656685D01*
X58150532Y-121302750D02*
X58204332Y-121350791D01*
X169670786Y-102077956D02*
X169721612Y-102026990D01*
X109192332Y-106523309D02*
X109279012Y-106241033D01*
X169400787Y-47520972D02*
X169017447Y-47248579D01*
X108960658Y-117045795D02*
X108960658Y-108404294D01*
X166220144Y-46475700D02*
X165464660Y-46454294D01*
X170873158Y-51862791D02*
X170851755Y-51107309D01*
X170851752Y-98751284D02*
X170873158Y-97995796D01*
X58204332Y-121350791D02*
X58245581Y-121387616D01*
X60179630Y-46645160D02*
X59651490Y-46779395D01*
X104307643Y-122432890D02*
X104812985Y-122387811D01*
X109279012Y-106241033D02*
X109337449Y-106084082D01*
X109865625Y-105110796D02*
X110023654Y-104904814D01*
X108960658Y-108275205D02*
X108971109Y-107930318D01*
X110819170Y-104204103D02*
X110887129Y-104158881D01*
X109337449Y-106084082D02*
X109452483Y-105811240D01*
X57273332Y-120046585D02*
X57330433Y-120175621D01*
X108612491Y-119644222D02*
X108635550Y-119576027D01*
D11*
X166489596Y-101493058D02*
G75*
G03*
X167331854Y-98550413I1233304J1238858D01*
G01*
X61621808Y-118894324D02*
G75*
G03*
X60010104Y-117557852I-1699108J-408976D01*
G01*
D10*
X107696382Y-121190044D02*
X107758249Y-121127991D01*
G36*
X117639156Y-104004294D02*
G01*
X114010157Y-104004294D01*
X114010157Y-102804294D01*
X117639156Y-102804294D01*
X117639156Y-104004294D01*
G37*
X58628920Y-47248577D02*
X58245594Y-47520959D01*
X170784708Y-99437487D02*
X170795177Y-99351246D01*
X107634349Y-121251895D02*
X107696382Y-121190044D01*
X167466738Y-103213437D02*
X167994871Y-103079203D01*
X57839874Y-47926679D02*
X57567492Y-48310005D01*
X106552947Y-121954163D02*
X106681989Y-121897062D01*
X169806496Y-47926680D02*
X169769663Y-47885426D01*
X170682292Y-49860715D02*
X170548057Y-49332573D01*
G36*
X165473159Y-47054294D02*
G01*
X88047207Y-47054294D01*
X88047207Y-45854294D01*
X165473159Y-45854294D01*
X165473159Y-47054294D01*
G37*
X166220137Y-103382902D02*
X166725476Y-103337812D01*
X56839696Y-118306607D02*
X56851188Y-118401211D01*
X110667160Y-104309261D02*
X110819170Y-104204103D01*
X56851188Y-118401211D02*
X56861663Y-118487475D01*
X166820100Y-46532276D02*
X166725489Y-46520788D01*
X169670768Y-47780614D02*
X169608904Y-47718568D01*
X60920882Y-46520785D02*
X60826277Y-46532273D01*
X113486682Y-103414745D02*
X113831569Y-103404294D01*
X57147689Y-49186543D02*
X57121371Y-49264375D01*
G36*
X78407207Y-47054294D02*
G01*
X75047207Y-47054294D01*
X75047207Y-45854296D01*
X78407207Y-45854296D01*
X78407207Y-47054294D01*
G37*
X109147298Y-106704270D02*
X109192332Y-106523309D01*
X56839700Y-50601967D02*
X56794613Y-51107310D01*
X170525001Y-49264384D02*
X170498680Y-49186556D01*
X169769639Y-101973189D02*
X169806495Y-101931913D01*
X169721612Y-102026990D02*
X169769639Y-101973189D01*
X170315929Y-48732967D02*
X170078877Y-48310006D01*
X59651490Y-46779395D02*
X59583290Y-46802456D01*
X167466738Y-46645164D02*
X166906329Y-46542747D01*
D11*
X166494483Y-50853049D02*
G75*
G03*
X167336728Y-47910416I1233317J1238849D01*
G01*
D10*
X59583313Y-122106143D02*
X59651479Y-122129190D01*
X169017438Y-102610018D02*
X169400782Y-102337628D01*
X169769663Y-47885426D02*
X169721607Y-47831607D01*
X57098310Y-49332575D02*
X56964075Y-49860715D01*
X170682292Y-99997883D02*
X170784708Y-99437487D01*
X57098295Y-119575985D02*
X57121368Y-119644195D01*
X59651479Y-122129190D02*
X60179631Y-122263431D01*
X108971109Y-107930318D02*
X108974497Y-107862138D01*
X58204337Y-47557796D02*
X58150523Y-47605844D01*
X169608904Y-47718568D02*
X169546836Y-47656685D01*
X168063086Y-103056136D02*
X168140922Y-103029822D01*
D11*
X166657686Y-98868226D02*
G75*
G03*
X166092356Y-100884263I1064814J-1385874D01*
G01*
D10*
X170078876Y-101548592D02*
X170315923Y-101125633D01*
X109715245Y-105330765D02*
X109760467Y-105262806D01*
X57330433Y-120175621D02*
X57567487Y-120598583D01*
X169546836Y-47656685D02*
X169495837Y-47605837D01*
X167994889Y-46779401D02*
X167466738Y-46645164D01*
X108635550Y-119576027D02*
X108769784Y-119047874D01*
X107809113Y-121076972D02*
X107857147Y-121023180D01*
X170373030Y-100996588D02*
X170498681Y-100672028D01*
X57975597Y-47780620D02*
X57924759Y-47831608D01*
X57567492Y-48310005D02*
X57330439Y-48732965D01*
D11*
X60548322Y-51231797D02*
G75*
G03*
X58202638Y-49265424I-630122J1630597D01*
G01*
G36*
X87031660Y-123054294D02*
G01*
X78702661Y-123054294D01*
X78702661Y-121854294D01*
X87031660Y-121854294D01*
X87031660Y-123054294D01*
G37*
D10*
X106150562Y-122106139D02*
X106228381Y-122079818D01*
X113418502Y-103418133D02*
X113486682Y-103414745D01*
X108939250Y-117801281D02*
X108960658Y-117045795D01*
X57924770Y-121076994D02*
X57975597Y-121127969D01*
X57839854Y-120981888D02*
X57876713Y-121023163D01*
X60740042Y-122365842D02*
X60826275Y-122376317D01*
X112079994Y-103635985D02*
X112260481Y-103590969D01*
D11*
X59292374Y-117673139D02*
G75*
G03*
X61638035Y-119639447I630126J-1630561D01*
G01*
D10*
X60920864Y-122387797D02*
X61426231Y-122432887D01*
X109048797Y-107179936D02*
X109092991Y-106942679D01*
X110135477Y-104780947D02*
X110236394Y-104680030D01*
X59583290Y-46802456D02*
X59505458Y-46828774D01*
X58099526Y-121251897D02*
X58150532Y-121302750D01*
X113240981Y-103432202D02*
X113418502Y-103418133D01*
X108769784Y-119047874D02*
X108872203Y-118487453D01*
G36*
X103560659Y-123054294D02*
G01*
X99231660Y-123054294D01*
X99231660Y-121854294D01*
X103560659Y-121854294D01*
X103560659Y-123054294D01*
G37*
D11*
X58218816Y-50010558D02*
G75*
G03*
X59830567Y-51347024I1699084J408958D01*
G01*
D10*
X104993803Y-122365844D02*
X105554236Y-122263425D01*
X56773208Y-117045795D02*
X56794616Y-117801277D01*
X112260481Y-103590969D02*
X112499043Y-103536627D01*
X107857147Y-121023180D02*
X107893972Y-120981929D01*
X168063082Y-46802458D02*
X167994889Y-46779401D01*
X168594508Y-102847067D02*
X169017438Y-102610018D01*
X58245594Y-47520959D02*
X58204337Y-47557796D01*
X58037469Y-121190028D02*
X58099526Y-121251897D01*
X61426225Y-46475698D02*
X60920882Y-46520785D01*
X166906333Y-103315848D02*
X167466738Y-103213437D01*
X59051871Y-121897065D02*
X59180910Y-121954164D01*
X107529520Y-121350806D02*
X107583340Y-121302745D01*
X170078877Y-48310006D02*
X169806496Y-47926680D01*
X106082381Y-122129191D02*
X106150562Y-122106139D01*
X106228381Y-122079818D02*
X106552947Y-121954163D01*
X108894160Y-118306630D02*
X108939250Y-117801281D01*
X58037474Y-47718559D02*
X57975597Y-47780620D01*
X169442028Y-102300803D02*
X169495825Y-102252767D01*
X109024411Y-107354675D02*
X109048797Y-107179936D01*
X110461167Y-104467299D02*
X110667160Y-104309261D01*
X112499043Y-103536627D02*
X112736300Y-103492433D01*
X169608900Y-102140024D02*
X169670786Y-102077956D01*
X60826277Y-46532273D02*
X60740035Y-46542745D01*
X56794616Y-117801277D02*
X56839696Y-118306607D01*
X170873158Y-97995796D02*
X170873158Y-51862791D01*
X108586176Y-119722042D02*
X108612491Y-119644222D01*
X168594487Y-47011526D02*
X168465448Y-46954423D01*
X170498681Y-100672028D02*
X170525006Y-100594196D01*
X56964075Y-49860715D02*
X56861660Y-50421120D01*
X167994871Y-103079203D02*
X168063086Y-103056136D01*
X57876713Y-121023163D02*
X57924770Y-121076994D01*
X111640446Y-103781085D02*
X111797509Y-103722607D01*
X166725476Y-103337812D02*
X166820078Y-103326323D01*
X112736300Y-103492433D02*
X112911039Y-103468047D01*
X108988566Y-107684617D02*
X109024411Y-107354675D01*
X105554236Y-122263425D02*
X106082381Y-122129191D01*
X166906329Y-46542747D02*
X166820100Y-46532276D01*
X108403424Y-120175618D02*
X108460527Y-120046582D01*
X103552160Y-122454294D02*
X104307643Y-122432890D01*
X56794613Y-51107310D02*
X56773209Y-51862792D01*
G36*
X152195158Y-104004294D02*
G01*
X147117157Y-104004294D01*
X147117157Y-102804294D01*
X152195158Y-102804294D01*
X152195158Y-104004294D01*
G37*
X107758249Y-121127991D02*
X107809113Y-121076972D01*
X169806495Y-101931913D02*
X170078876Y-101548592D01*
X166725489Y-46520788D02*
X166220144Y-46475700D01*
X109452483Y-105811240D02*
X109522847Y-105662861D01*
X111219225Y-103966483D02*
X111367604Y-103896119D01*
X169546821Y-102201916D02*
X169608900Y-102140024D01*
X56773209Y-51862792D02*
X56773208Y-70357294D01*
X111367604Y-103896119D02*
X111640446Y-103781085D01*
X168140907Y-46828775D02*
X168063082Y-46802458D01*
X170784708Y-50421135D02*
X170682292Y-49860715D01*
X170795177Y-99351246D02*
X170806663Y-99256639D01*
X56861663Y-118487475D02*
X56964074Y-119047880D01*
X59051880Y-47011524D02*
X58628920Y-47248577D01*
X104907553Y-122376324D02*
X104993803Y-122365844D01*
X58245581Y-121387616D02*
X58628924Y-121660015D01*
X110337217Y-104579207D02*
X110461167Y-104467299D01*
X56773208Y-70357294D02*
X56773208Y-79501294D01*
X169442042Y-47557802D02*
X169400787Y-47520972D01*
X60740035Y-46542745D02*
X60179630Y-46645160D01*
D11*
X104577531Y-120553071D02*
G75*
G03*
X105419858Y-117610355I1233369J1238871D01*
G01*
D10*
X104812985Y-122387811D02*
X104907553Y-122376324D01*
X58628924Y-121660015D02*
X59051871Y-121897065D01*
X109760467Y-105262806D02*
X109865625Y-105110796D01*
X56851188Y-50507362D02*
X56839700Y-50601967D01*
X110023654Y-104904814D02*
X110135477Y-104780947D01*
X170548057Y-49332573D02*
X170525001Y-49264384D01*
G36*
X66502660Y-123054294D02*
G01*
X62173661Y-123054294D01*
X62173661Y-121854294D01*
X66502660Y-121854294D01*
X66502660Y-123054294D01*
G37*
X170806673Y-50601969D02*
X170795185Y-50507388D01*
X169400782Y-102337628D02*
X169442028Y-102300803D01*
X108882676Y-118401231D02*
X108894160Y-118306630D01*
X111797509Y-103722607D02*
X112079994Y-103635985D01*
X58099531Y-47656685D02*
X58037474Y-47718559D01*
X57924759Y-47831608D02*
X57876714Y-47885418D01*
X169017447Y-47248579D02*
X168594487Y-47011526D01*
X56861660Y-50421120D02*
X56851188Y-50507362D01*
G36*
X65407207Y-47054294D02*
G01*
X62173209Y-47054294D01*
X62173209Y-45854296D01*
X65407207Y-45854296D01*
X65407207Y-47054294D01*
G37*
X168140922Y-103029822D02*
X168465448Y-102904168D01*
X111038865Y-104065505D02*
X111219225Y-103966483D01*
X170498680Y-49186556D02*
X170373033Y-48862007D01*
X170373033Y-48862007D02*
X170315929Y-48732967D01*
X108460527Y-120046582D02*
X108586176Y-119722042D01*
X59180921Y-46954420D02*
X59051880Y-47011524D01*
X107893972Y-120981929D02*
X108166371Y-120598583D01*
X170806663Y-99256639D02*
X170851752Y-98751284D01*
D11*
X104745732Y-117928222D02*
G75*
G03*
X104180360Y-119944205I1064768J-1385878D01*
G01*
D10*
X113831569Y-103404294D02*
X113960658Y-103404294D01*
X62181707Y-46454294D02*
X61426225Y-46475698D01*
X107104946Y-121660012D02*
X107488274Y-121387631D01*
X60179631Y-122263431D02*
X60740042Y-122365842D01*
X108960658Y-108404294D02*
X108960658Y-108275205D01*
X107583340Y-121302745D02*
X107634349Y-121251895D01*
X170548060Y-100526020D02*
X170682292Y-99997883D01*
X57567487Y-120598583D02*
X57839854Y-120981888D01*
X110236394Y-104680030D02*
X110337217Y-104579207D01*
D12*
X138489525Y-48441910D02*
X137994287Y-48441910D01*
X138260954Y-48746672D01*
X138146668Y-48746672D01*
X138070478Y-48784767D01*
X138032382Y-48822863D01*
X137994287Y-48899053D01*
X137994287Y-49089529D01*
X138032382Y-49165720D01*
X138070478Y-49203815D01*
X138146668Y-49241910D01*
X138375240Y-49241910D01*
X138451430Y-49203815D01*
X138489525Y-49165720D01*
X137765716Y-48441910D02*
X137499049Y-49241910D01*
X137232382Y-48441910D01*
X141749961Y-51331536D02*
X142016628Y-50950584D01*
X142207104Y-51331536D02*
X142207104Y-50531536D01*
X141902342Y-50531536D01*
X141826151Y-50569632D01*
X141788056Y-50607727D01*
X141749961Y-50683917D01*
X141749961Y-50798203D01*
X141788056Y-50874393D01*
X141826151Y-50912489D01*
X141902342Y-50950584D01*
X142207104Y-50950584D01*
X141216628Y-51598203D02*
X141216628Y-50455346D01*
X140226151Y-50569632D02*
X140302342Y-50531536D01*
X140416628Y-50531536D01*
X140530913Y-50569632D01*
X140607104Y-50645822D01*
X140645199Y-50722012D01*
X140683294Y-50874393D01*
X140683294Y-50988679D01*
X140645199Y-51141060D01*
X140607104Y-51217251D01*
X140530913Y-51293441D01*
X140416628Y-51331536D01*
X140340437Y-51331536D01*
X140226151Y-51293441D01*
X140188056Y-51255346D01*
X140188056Y-50988679D01*
X140340437Y-50988679D01*
X65699049Y-121541910D02*
X65699049Y-120741910D01*
X65508573Y-120741910D01*
X65394287Y-120780006D01*
X65318097Y-120856196D01*
X65280002Y-120932386D01*
X65241906Y-121084767D01*
X65241906Y-121199053D01*
X65280002Y-121351434D01*
X65318097Y-121427625D01*
X65394287Y-121503815D01*
X65508573Y-121541910D01*
X65699049Y-121541910D01*
X64899049Y-121541910D02*
X64899049Y-120741910D01*
X64518097Y-121541910D02*
X64518097Y-120741910D01*
X64060954Y-121541910D01*
X64060954Y-120741910D01*
X59632382Y-57041910D02*
X60013335Y-57041910D01*
X60013335Y-56241910D01*
X58946668Y-56280006D02*
X59022859Y-56241910D01*
X59137144Y-56241910D01*
X59251430Y-56280006D01*
X59327621Y-56356196D01*
X59365716Y-56432386D01*
X59403811Y-56584767D01*
X59403811Y-56699053D01*
X59365716Y-56851434D01*
X59327621Y-56927625D01*
X59251430Y-57003815D01*
X59137144Y-57041910D01*
X59060954Y-57041910D01*
X58946668Y-57003815D01*
X58908573Y-56965720D01*
X58908573Y-56699053D01*
X59060954Y-56699053D01*
X140303189Y-57993666D02*
X140379380Y-57955570D01*
X140493666Y-57955570D01*
X140607951Y-57993666D01*
X140684142Y-58069856D01*
X140722237Y-58146046D01*
X140760332Y-58298427D01*
X140760332Y-58412713D01*
X140722237Y-58565094D01*
X140684142Y-58641285D01*
X140607951Y-58717475D01*
X140493666Y-58755570D01*
X140417475Y-58755570D01*
X140303189Y-58717475D01*
X140265094Y-58679380D01*
X140265094Y-58412713D01*
X140417475Y-58412713D01*
X139922237Y-58755570D02*
X139922237Y-57955570D01*
X139465094Y-58755570D01*
X139465094Y-57955570D01*
X139084142Y-58755570D02*
X139084142Y-57955570D01*
X138893666Y-57955570D01*
X138779380Y-57993666D01*
X138703189Y-58069856D01*
X138665094Y-58146046D01*
X138626999Y-58298427D01*
X138626999Y-58412713D01*
X138665094Y-58565094D01*
X138703189Y-58641285D01*
X138779380Y-58717475D01*
X138893666Y-58755570D01*
X139084142Y-58755570D01*
X111818097Y-66022863D02*
X111703811Y-66060958D01*
X111665716Y-66099053D01*
X111627621Y-66175244D01*
X111627621Y-66289529D01*
X111665716Y-66365720D01*
X111703811Y-66403815D01*
X111780002Y-66441910D01*
X112084763Y-66441910D01*
X112084763Y-65641910D01*
X111818097Y-65641910D01*
X111741906Y-65680006D01*
X111703811Y-65718101D01*
X111665716Y-65794291D01*
X111665716Y-65870482D01*
X111703811Y-65946672D01*
X111741906Y-65984767D01*
X111818097Y-66022863D01*
X112084763Y-66022863D01*
X111284763Y-66137148D02*
X110675240Y-66137148D01*
X110980002Y-66441910D02*
X110980002Y-65832386D01*
X63970478Y-55280006D02*
X64046668Y-55241910D01*
X64160954Y-55241910D01*
X64275240Y-55280006D01*
X64351430Y-55356196D01*
X64389525Y-55432386D01*
X64427621Y-55584767D01*
X64427621Y-55699053D01*
X64389525Y-55851434D01*
X64351430Y-55927625D01*
X64275240Y-56003815D01*
X64160954Y-56041910D01*
X64084763Y-56041910D01*
X63970478Y-56003815D01*
X63932382Y-55965720D01*
X63932382Y-55699053D01*
X64084763Y-55699053D01*
X58732382Y-64541910D02*
X59113335Y-64541910D01*
X59151430Y-64922863D01*
X59113335Y-64884767D01*
X59037144Y-64846672D01*
X58846668Y-64846672D01*
X58770478Y-64884767D01*
X58732382Y-64922863D01*
X58694287Y-64999053D01*
X58694287Y-65189529D01*
X58732382Y-65265720D01*
X58770478Y-65303815D01*
X58846668Y-65341910D01*
X59037144Y-65341910D01*
X59113335Y-65303815D01*
X59151430Y-65265720D01*
X58465716Y-64541910D02*
X58199049Y-65341910D01*
X57932382Y-64541910D01*
X65170478Y-53922863D02*
X64903811Y-53922863D01*
X64789525Y-54341910D02*
X65170478Y-54341910D01*
X65170478Y-53541910D01*
X64789525Y-53541910D01*
X64446668Y-54341910D02*
X64446668Y-53541910D01*
X63989525Y-54341910D01*
X63989525Y-53541910D01*
X150318097Y-54037148D02*
X149708573Y-54037148D01*
X149365716Y-54303815D02*
X149251430Y-54341910D01*
X149060954Y-54341910D01*
X148984763Y-54303815D01*
X148946668Y-54265720D01*
X148908573Y-54189529D01*
X148908573Y-54113339D01*
X148946668Y-54037148D01*
X148984763Y-53999053D01*
X149060954Y-53960958D01*
X149213335Y-53922863D01*
X149289525Y-53884767D01*
X149327621Y-53846672D01*
X149365716Y-53770482D01*
X149365716Y-53694291D01*
X149327621Y-53618101D01*
X149289525Y-53580006D01*
X149213335Y-53541910D01*
X149022859Y-53541910D01*
X148908573Y-53580006D01*
X148641906Y-53541910D02*
X148451430Y-54341910D01*
X148299049Y-53770482D01*
X148146668Y-54341910D01*
X147956192Y-53541910D01*
X147651430Y-54341910D02*
X147651430Y-53541910D01*
X147460954Y-53541910D01*
X147346668Y-53580006D01*
X147270478Y-53656196D01*
X147232382Y-53732386D01*
X147194287Y-53884767D01*
X147194287Y-53999053D01*
X147232382Y-54151434D01*
X147270478Y-54227625D01*
X147346668Y-54303815D01*
X147460954Y-54341910D01*
X147651430Y-54341910D01*
X146851430Y-54037148D02*
X146241906Y-54037148D01*
X60310680Y-98192187D02*
X60044014Y-98992187D01*
X59777347Y-98192187D01*
X59244014Y-98573140D02*
X59129728Y-98611235D01*
X59091633Y-98649330D01*
X59053537Y-98725521D01*
X59053537Y-98839806D01*
X59091633Y-98915997D01*
X59129728Y-98954092D01*
X59205918Y-98992187D01*
X59510680Y-98992187D01*
X59510680Y-98192187D01*
X59244014Y-98192187D01*
X59167823Y-98230283D01*
X59129728Y-98268378D01*
X59091633Y-98344568D01*
X59091633Y-98420759D01*
X59129728Y-98496949D01*
X59167823Y-98535044D01*
X59244014Y-98573140D01*
X59510680Y-98573140D01*
X58748775Y-98763616D02*
X58367823Y-98763616D01*
X58824966Y-98992187D02*
X58558299Y-98192187D01*
X58291633Y-98992187D01*
X58139252Y-98192187D02*
X57682109Y-98192187D01*
X57910680Y-98992187D02*
X57910680Y-98192187D01*
X68696668Y-90541910D02*
X68696668Y-89741910D01*
X68530002Y-89741910D01*
X68430002Y-89780006D01*
X68363335Y-89856196D01*
X68330002Y-89932386D01*
X68296668Y-90084767D01*
X68296668Y-90199053D01*
X68330002Y-90351434D01*
X68363335Y-90427625D01*
X68430002Y-90503815D01*
X68530002Y-90541910D01*
X68696668Y-90541910D01*
X67996668Y-90237148D02*
X67463335Y-90237148D01*
X59489525Y-101527002D02*
X59565716Y-101488906D01*
X59680002Y-101488906D01*
X59794287Y-101527002D01*
X59870478Y-101603192D01*
X59908573Y-101679382D01*
X59946668Y-101831763D01*
X59946668Y-101946049D01*
X59908573Y-102098430D01*
X59870478Y-102174621D01*
X59794287Y-102250811D01*
X59680002Y-102288906D01*
X59603811Y-102288906D01*
X59489525Y-102250811D01*
X59451430Y-102212716D01*
X59451430Y-101946049D01*
X59603811Y-101946049D01*
X59108573Y-102288906D02*
X59108573Y-101488906D01*
X58651430Y-102288906D01*
X58651430Y-101488906D01*
X58270478Y-102288906D02*
X58270478Y-101488906D01*
X58080002Y-101488906D01*
X57965716Y-101527002D01*
X57889525Y-101603192D01*
X57851430Y-101679382D01*
X57813335Y-101831763D01*
X57813335Y-101946049D01*
X57851430Y-102098430D01*
X57889525Y-102174621D01*
X57965716Y-102250811D01*
X58080002Y-102288906D01*
X58270478Y-102288906D01*
X61289525Y-61680006D02*
X61365716Y-61641910D01*
X61480002Y-61641910D01*
X61594287Y-61680006D01*
X61670478Y-61756196D01*
X61708573Y-61832386D01*
X61746668Y-61984767D01*
X61746668Y-62099053D01*
X61708573Y-62251434D01*
X61670478Y-62327625D01*
X61594287Y-62403815D01*
X61480002Y-62441910D01*
X61403811Y-62441910D01*
X61289525Y-62403815D01*
X61251430Y-62365720D01*
X61251430Y-62099053D01*
X61403811Y-62099053D01*
X60908573Y-62441910D02*
X60908573Y-61641910D01*
X60451430Y-62441910D01*
X60451430Y-61641910D01*
X60070478Y-62441910D02*
X60070478Y-61641910D01*
X59880002Y-61641910D01*
X59765716Y-61680006D01*
X59689525Y-61756196D01*
X59651430Y-61832386D01*
X59613335Y-61984767D01*
X59613335Y-62099053D01*
X59651430Y-62251434D01*
X59689525Y-62327625D01*
X59765716Y-62403815D01*
X59880002Y-62441910D01*
X60070478Y-62441910D01*
X148813335Y-55665720D02*
X148851430Y-55703815D01*
X148965716Y-55741910D01*
X149041906Y-55741910D01*
X149156192Y-55703815D01*
X149232382Y-55627625D01*
X149270478Y-55551434D01*
X149308573Y-55399053D01*
X149308573Y-55284767D01*
X149270478Y-55132386D01*
X149232382Y-55056196D01*
X149156192Y-54980006D01*
X149041906Y-54941910D01*
X148965716Y-54941910D01*
X148851430Y-54980006D01*
X148813335Y-55018101D01*
X148280002Y-56008577D02*
X148280002Y-54865720D01*
X147708573Y-55741910D02*
X147708573Y-54941910D01*
X147518097Y-54941910D01*
X147403811Y-54980006D01*
X147327621Y-55056196D01*
X147289525Y-55132386D01*
X147251430Y-55284767D01*
X147251430Y-55399053D01*
X147289525Y-55551434D01*
X147327621Y-55627625D01*
X147403811Y-55703815D01*
X147518097Y-55741910D01*
X147708573Y-55741910D01*
X111930663Y-60039263D02*
X111816378Y-60077358D01*
X111778282Y-60115453D01*
X111740187Y-60191644D01*
X111740187Y-60305929D01*
X111778282Y-60382120D01*
X111816378Y-60420215D01*
X111892568Y-60458310D01*
X112197330Y-60458310D01*
X112197330Y-59658310D01*
X111930663Y-59658310D01*
X111854473Y-59696406D01*
X111816378Y-59734501D01*
X111778282Y-59810691D01*
X111778282Y-59886882D01*
X111816378Y-59963072D01*
X111854473Y-60001167D01*
X111930663Y-60039263D01*
X112197330Y-60039263D01*
X111054473Y-59924977D02*
X111054473Y-60572596D01*
X111092568Y-60648786D01*
X111130663Y-60686882D01*
X111206854Y-60724977D01*
X111321140Y-60724977D01*
X111397330Y-60686882D01*
X111054473Y-60420215D02*
X111130663Y-60458310D01*
X111283044Y-60458310D01*
X111359235Y-60420215D01*
X111397330Y-60382120D01*
X111435425Y-60305929D01*
X111435425Y-60077358D01*
X111397330Y-60001167D01*
X111359235Y-59963072D01*
X111283044Y-59924977D01*
X111130663Y-59924977D01*
X111054473Y-59963072D01*
X68746668Y-88437148D02*
X68213335Y-88437148D01*
X68480002Y-88741910D02*
X68480002Y-88132386D01*
D13*
X91073752Y-68030006D02*
X92273752Y-68030006D01*
X92273752Y-68030006D02*
X91073752Y-68030006D01*
X92273752Y-68030006D02*
X92273752Y-74580006D01*
X87823752Y-68030006D02*
X88873752Y-68030006D01*
X86773752Y-76280006D02*
X87823752Y-74480006D01*
X87823752Y-74480006D02*
X87823752Y-68030006D01*
X91273752Y-76330006D02*
X91273752Y-80030006D01*
X86773752Y-80030006D02*
X86773752Y-76280006D01*
X92273752Y-74580006D02*
X91273752Y-76330006D01*
X87973752Y-80030006D02*
X86773752Y-80030006D01*
X91223752Y-80030006D02*
X90173752Y-80030006D01*
D11*
X93398048Y-77529470D02*
G75*
G03*
X96910257Y-72908837I1375704J2599464D01*
G01*
X96149458Y-72330548D02*
G75*
G03*
X92637249Y-76951181I-1375704J-2599464D01*
G01*
D13*
X124873752Y-80030006D02*
X124873752Y-76280006D01*
X129373752Y-76330006D02*
X129373752Y-80030006D01*
X130373752Y-74580006D02*
X129373752Y-76330006D01*
X129323752Y-80030006D02*
X128273752Y-80030006D01*
X125923752Y-68030006D02*
X126973752Y-68030006D01*
X125923752Y-74480006D02*
X125923752Y-68030006D01*
X130373752Y-68030006D02*
X129173752Y-68030006D01*
X126073752Y-80030006D02*
X124873752Y-80030006D01*
X130373752Y-68030006D02*
X130373752Y-74580006D01*
X124873752Y-76280006D02*
X125923752Y-74480006D01*
X129173752Y-68030006D02*
X130373752Y-68030006D01*
D11*
X131498048Y-77529470D02*
G75*
G03*
X135010257Y-72908837I1375704J2599464D01*
G01*
X134249458Y-72330548D02*
G75*
G03*
X130737249Y-76951181I-1375704J-2599464D01*
G01*
D13*
X143748752Y-101980006D02*
X141948752Y-100930006D01*
X141948752Y-100930006D02*
X135498752Y-100930006D01*
X147498752Y-97530006D02*
X147498752Y-98580006D01*
X143798752Y-97480006D02*
X147498752Y-97480006D01*
X135498752Y-96480006D02*
X142048752Y-96480006D01*
X142048752Y-96480006D02*
X143798752Y-97480006D01*
X135498752Y-96480006D02*
X135498752Y-97680006D01*
X147498752Y-101980006D02*
X143748752Y-101980006D01*
X135498752Y-100930006D02*
X135498752Y-99880006D01*
X147498752Y-100780006D02*
X147498752Y-101980006D01*
X135498752Y-97680006D02*
X135498752Y-96480006D01*
D11*
X139799294Y-92604300D02*
G75*
G03*
X144419927Y-96116509I2599464J-1375704D01*
G01*
X144998216Y-95355710D02*
G75*
G03*
X140377583Y-91843501I-2599464J1375704D01*
G01*
D13*
X163586252Y-71230000D02*
X163586252Y-72430000D01*
X151586252Y-66930000D02*
X155336252Y-66930000D01*
X151586252Y-71380000D02*
X151586252Y-70330000D01*
X157136252Y-67980000D02*
X163586252Y-67980000D01*
X151586252Y-68130000D02*
X151586252Y-66930000D01*
X163586252Y-72430000D02*
X157036252Y-72430000D01*
X163586252Y-67980000D02*
X163586252Y-69030000D01*
X163586252Y-72430000D02*
X163586252Y-71230000D01*
X157036252Y-72430000D02*
X155286252Y-71430000D01*
X155286252Y-71430000D02*
X151586252Y-71430000D01*
X155336252Y-66930000D02*
X157136252Y-67980000D01*
D11*
X159285710Y-76305706D02*
G75*
G03*
X154665077Y-72793497I-2599464J1375704D01*
G01*
X154086788Y-73554296D02*
G75*
G03*
X158707421Y-77066505I2599464J-1375704D01*
G01*
D13*
X115961252Y-52180006D02*
X115961252Y-53380006D01*
X109511252Y-48930006D02*
X115961252Y-48930006D01*
X103961252Y-52330006D02*
X103961252Y-51280006D01*
X109411252Y-53380006D02*
X107661252Y-52380006D01*
X107661252Y-52380006D02*
X103961252Y-52380006D01*
X107711252Y-47880006D02*
X109511252Y-48930006D01*
X103961252Y-47880006D02*
X107711252Y-47880006D01*
X115961252Y-53380006D02*
X115961252Y-52180006D01*
X115961252Y-53380006D02*
X109411252Y-53380006D01*
X115961252Y-48930006D02*
X115961252Y-49980006D01*
X103961252Y-49080006D02*
X103961252Y-47880006D01*
D11*
X106461788Y-54504302D02*
G75*
G03*
X111082421Y-58016511I2599464J-1375704D01*
G01*
X111660710Y-57255712D02*
G75*
G03*
X107040077Y-53743503I-2599464J1375704D01*
G01*
D13*
X122898752Y-100930006D02*
X116448752Y-100930006D01*
X122998752Y-96480006D02*
X124748752Y-97480006D01*
X124698752Y-101980006D02*
X122898752Y-100930006D01*
X116448752Y-97680006D02*
X116448752Y-96480006D01*
X116448752Y-96480006D02*
X116448752Y-97680006D01*
X116448752Y-100930006D02*
X116448752Y-99880006D01*
X128448752Y-100780006D02*
X128448752Y-101980006D01*
X124748752Y-97480006D02*
X128448752Y-97480006D01*
X116448752Y-96480006D02*
X122998752Y-96480006D01*
X128448752Y-97530006D02*
X128448752Y-98580006D01*
X128448752Y-101980006D02*
X124698752Y-101980006D01*
D11*
X120749294Y-92604300D02*
G75*
G03*
X125369927Y-96116509I2599464J-1375704D01*
G01*
X125948216Y-95355710D02*
G75*
G03*
X121327583Y-91843501I-2599464J1375704D01*
G01*
D13*
X70511250Y-119980000D02*
X64061250Y-119980000D01*
X64061250Y-115530000D02*
X70611250Y-115530000D01*
X72361250Y-116530000D02*
X76061250Y-116530000D01*
X64061250Y-116730000D02*
X64061250Y-115530000D01*
X64061250Y-119980000D02*
X64061250Y-118930000D01*
X76061250Y-116580000D02*
X76061250Y-117630000D01*
X76061250Y-121030000D02*
X72311250Y-121030000D01*
X70611250Y-115530000D02*
X72361250Y-116530000D01*
X72311250Y-121030000D02*
X70511250Y-119980000D01*
X64061250Y-115530000D02*
X64061250Y-116730000D01*
X76061250Y-119830000D02*
X76061250Y-121030000D01*
D11*
X73560714Y-114405704D02*
G75*
G03*
X68940081Y-110893495I-2599464J1375704D01*
G01*
X68361792Y-111654294D02*
G75*
G03*
X72982425Y-115166503I2599464J-1375704D01*
G01*
D13*
X128561252Y-48930006D02*
X135011252Y-48930006D01*
X126761252Y-47880006D02*
X128561252Y-48930006D01*
X128461252Y-53380006D02*
X126711252Y-52380006D01*
X126711252Y-52380006D02*
X123011252Y-52380006D01*
X135011252Y-53380006D02*
X128461252Y-53380006D01*
X123011252Y-52330006D02*
X123011252Y-51280006D01*
X135011252Y-53380006D02*
X135011252Y-52180006D01*
X123011252Y-49080006D02*
X123011252Y-47880006D01*
X135011252Y-48930006D02*
X135011252Y-49980006D01*
X135011252Y-52180006D02*
X135011252Y-53380006D01*
X123011252Y-47880006D02*
X126761252Y-47880006D01*
D11*
X130710710Y-57255712D02*
G75*
G03*
X126090077Y-53743503I-2599464J1375704D01*
G01*
X125511788Y-54504302D02*
G75*
G03*
X130132421Y-58016511I2599464J-1375704D01*
G01*
D13*
X155655002Y-63880006D02*
X153855002Y-62830006D01*
X147405002Y-59580006D02*
X147405002Y-58380006D01*
X147405002Y-58380006D02*
X147405002Y-59580006D01*
X153855002Y-62830006D02*
X147405002Y-62830006D01*
X159405002Y-63880006D02*
X155655002Y-63880006D01*
X159405002Y-59430006D02*
X159405002Y-60480006D01*
X147405002Y-58380006D02*
X153955002Y-58380006D01*
X155705002Y-59380006D02*
X159405002Y-59380006D01*
X147405002Y-62830006D02*
X147405002Y-61780006D01*
X159405002Y-62680006D02*
X159405002Y-63880006D01*
X153955002Y-58380006D02*
X155705002Y-59380006D01*
D11*
X156904466Y-57255710D02*
G75*
G03*
X152283833Y-53743501I-2599464J1375704D01*
G01*
X151705544Y-54504300D02*
G75*
G03*
X156326177Y-58016509I2599464J-1375704D01*
G01*
D13*
X98505000Y-121030000D02*
X96705000Y-119980000D01*
X102255000Y-116580000D02*
X102255000Y-117630000D01*
X90255000Y-119980000D02*
X90255000Y-118930000D01*
X90255000Y-116730000D02*
X90255000Y-115530000D01*
X90255000Y-115530000D02*
X90255000Y-116730000D01*
X96705000Y-119980000D02*
X90255000Y-119980000D01*
X102255000Y-121030000D02*
X98505000Y-121030000D01*
X98555000Y-116530000D02*
X102255000Y-116530000D01*
X96805000Y-115530000D02*
X98555000Y-116530000D01*
X90255000Y-115530000D02*
X96805000Y-115530000D01*
X102255000Y-119830000D02*
X102255000Y-121030000D01*
D11*
X99754464Y-114405704D02*
G75*
G03*
X95133831Y-110893495I-2599464J1375704D01*
G01*
X94555542Y-111654294D02*
G75*
G03*
X99176175Y-115166503I2599464J-1375704D01*
G01*
D13*
X154498752Y-87080006D02*
X155548752Y-87080006D01*
X153448752Y-95330006D02*
X154498752Y-93530006D01*
X158948752Y-87080006D02*
X157748752Y-87080006D01*
X157748752Y-87080006D02*
X158948752Y-87080006D01*
X157948752Y-95380006D02*
X157948752Y-99080006D01*
X154498752Y-93530006D02*
X154498752Y-87080006D01*
X154648752Y-99080006D02*
X153448752Y-99080006D01*
X157898752Y-99080006D02*
X156848752Y-99080006D01*
X158948752Y-93630006D02*
X157948752Y-95380006D01*
X158948752Y-87080006D02*
X158948752Y-93630006D01*
X153448752Y-99080006D02*
X153448752Y-95330006D01*
D11*
X160073048Y-96579470D02*
G75*
G03*
X163585257Y-91958837I1375704J2599464D01*
G01*
X162824458Y-91380548D02*
G75*
G03*
X159312249Y-96001181I-1375704J-2599464D01*
G01*
D13*
X105823750Y-80030000D02*
X105823750Y-76280000D01*
X111323750Y-68030000D02*
X110123750Y-68030000D01*
X106873750Y-74480000D02*
X106873750Y-68030000D01*
X107023750Y-80030000D02*
X105823750Y-80030000D01*
X106873750Y-68030000D02*
X107923750Y-68030000D01*
X110123750Y-68030000D02*
X111323750Y-68030000D01*
X110273750Y-80030000D02*
X109223750Y-80030000D01*
X105823750Y-76280000D02*
X106873750Y-74480000D01*
X111323750Y-68030000D02*
X111323750Y-74580000D01*
X110323750Y-76330000D02*
X110323750Y-80030000D01*
X111323750Y-74580000D02*
X110323750Y-76330000D01*
D11*
X115199456Y-72330542D02*
G75*
G03*
X111687247Y-76951175I-1375704J-2599464D01*
G01*
X112448046Y-77529464D02*
G75*
G03*
X115960255Y-72908831I1375704J2599464D01*
G01*
D13*
X61630002Y-48980000D02*
X62680002Y-48980000D01*
X61630002Y-55430000D02*
X61630002Y-48980000D01*
X65030002Y-60980000D02*
X63980002Y-60980000D01*
X66080002Y-48980000D02*
X64880002Y-48980000D01*
X60580002Y-60980000D02*
X60580002Y-57230000D01*
X65080002Y-57280000D02*
X65080002Y-60980000D01*
X66080002Y-48980000D02*
X66080002Y-55530000D01*
X61780002Y-60980000D02*
X60580002Y-60980000D01*
X66080002Y-55530000D02*
X65080002Y-57280000D01*
X60580002Y-57230000D02*
X61630002Y-55430000D01*
X64880002Y-48980000D02*
X66080002Y-48980000D01*
D11*
X67204298Y-58479464D02*
G75*
G03*
X70716507Y-53858831I1375704J2599464D01*
G01*
X69955708Y-53280542D02*
G75*
G03*
X66443499Y-57901175I-1375704J-2599464D01*
G01*
D13*
X93711252Y-62780006D02*
X92511252Y-62780006D01*
X96961252Y-56330006D02*
X96961252Y-62780006D01*
X92511252Y-62780006D02*
X93711252Y-62780006D01*
X98011252Y-54530006D02*
X96961252Y-56330006D01*
X93561252Y-50780006D02*
X94611252Y-50780006D01*
X93511252Y-54480006D02*
X93511252Y-50780006D01*
X92511252Y-62780006D02*
X92511252Y-56230006D01*
X98011252Y-50780006D02*
X98011252Y-54530006D01*
X96961252Y-62780006D02*
X95911252Y-62780006D01*
X96811252Y-50780006D02*
X98011252Y-50780006D01*
X92511252Y-56230006D02*
X93511252Y-54480006D01*
D11*
X88635546Y-58479464D02*
G75*
G03*
X92147755Y-53858831I1375704J2599464D01*
G01*
X91386956Y-53280542D02*
G75*
G03*
X87874747Y-57901175I-1375704J-2599464D01*
G01*
D13*
X93248752Y-92630006D02*
X92198752Y-94430006D01*
X87748752Y-100880006D02*
X87748752Y-94330006D01*
X92048752Y-88880006D02*
X93248752Y-88880006D01*
X93248752Y-88880006D02*
X93248752Y-92630006D01*
X92198752Y-94430006D02*
X92198752Y-100880006D01*
X88748752Y-92580006D02*
X88748752Y-88880006D01*
X92198752Y-100880006D02*
X91148752Y-100880006D01*
X88948752Y-100880006D02*
X87748752Y-100880006D01*
X87748752Y-100880006D02*
X88948752Y-100880006D01*
X87748752Y-94330006D02*
X88748752Y-92580006D01*
X88798752Y-88880006D02*
X89848752Y-88880006D01*
D11*
X83873046Y-96579464D02*
G75*
G03*
X87385255Y-91958831I1375704J2599464D01*
G01*
X86624456Y-91380542D02*
G75*
G03*
X83112247Y-96001175I-1375704J-2599464D01*
G01*
D13*
X107998752Y-100880006D02*
X106798752Y-100880006D01*
X106798752Y-100880006D02*
X106798752Y-94330006D01*
X107798752Y-92580006D02*
X107798752Y-88880006D01*
X111248752Y-100880006D02*
X110198752Y-100880006D01*
X112298752Y-88880006D02*
X112298752Y-92630006D01*
X106798752Y-100880006D02*
X107998752Y-100880006D01*
X106798752Y-94330006D02*
X107798752Y-92580006D01*
X111098752Y-88880006D02*
X112298752Y-88880006D01*
X107848752Y-88880006D02*
X108898752Y-88880006D01*
X111248752Y-94430006D02*
X111248752Y-100880006D01*
X112298752Y-92630006D02*
X111248752Y-94430006D01*
D11*
X105674456Y-91380542D02*
G75*
G03*
X102162247Y-96001175I-1375704J-2599464D01*
G01*
X102923046Y-96579464D02*
G75*
G03*
X106435255Y-91958831I1375704J2599464D01*
G01*
D13*
X61098752Y-87180006D02*
X61098752Y-85980006D01*
X61098752Y-90430006D02*
X61098752Y-89380006D01*
X73098752Y-90280006D02*
X73098752Y-91480006D01*
X73098752Y-87030006D02*
X73098752Y-88080006D01*
X64848752Y-85980006D02*
X66648752Y-87030006D01*
X64798752Y-90480006D02*
X61098752Y-90480006D01*
X73098752Y-91480006D02*
X66548752Y-91480006D01*
X66548752Y-91480006D02*
X64798752Y-90480006D01*
X66648752Y-87030006D02*
X73098752Y-87030006D01*
X73098752Y-91480006D02*
X73098752Y-90280006D01*
X61098752Y-85980006D02*
X64848752Y-85980006D01*
D11*
X68798210Y-95355712D02*
G75*
G03*
X64177577Y-91843503I-2599464J1375704D01*
G01*
X63599288Y-92604302D02*
G75*
G03*
X68219921Y-96116511I2599464J-1375704D01*
G01*
D13*
X64161252Y-80030006D02*
X62961252Y-80030006D01*
X67411252Y-80030006D02*
X66361252Y-80030006D01*
X67461252Y-76330006D02*
X67461252Y-80030006D01*
X62961252Y-80030006D02*
X62961252Y-76280006D01*
X68461252Y-74580006D02*
X67461252Y-76330006D01*
X62961252Y-76280006D02*
X64011252Y-74480006D01*
X68461252Y-68030006D02*
X67261252Y-68030006D01*
X64011252Y-74480006D02*
X64011252Y-68030006D01*
X64011252Y-68030006D02*
X65061252Y-68030006D01*
X68461252Y-68030006D02*
X68461252Y-74580006D01*
X67261252Y-68030006D02*
X68461252Y-68030006D01*
D11*
X69585548Y-77529470D02*
G75*
G03*
X73097757Y-72908837I1375704J2599464D01*
G01*
X72336958Y-72330548D02*
G75*
G03*
X68824749Y-76951181I-1375704J-2599464D01*
G01*
D13*
X93478844Y-99382138D02*
X93304362Y-99255369D01*
X93055638Y-99964631D02*
X92881156Y-99837862D01*
X166060000Y-93070000D02*
X166060000Y-91270000D01*
X166060000Y-93070000D02*
X166060000Y-93870000D01*
X169180000Y-93070000D02*
X169180000Y-92270000D01*
X169180000Y-93070000D02*
X169180000Y-93870000D01*
D14*
X126020000Y-65360000D02*
X126020000Y-65840000D01*
X128220000Y-63140000D02*
X128220000Y-63620000D01*
X128220000Y-63140000D02*
X127580000Y-63140000D01*
X126660000Y-63140000D02*
X126020000Y-63140000D01*
X128220000Y-65840000D02*
X127580000Y-65840000D01*
X126660000Y-65840000D02*
X126020000Y-65840000D01*
X128220000Y-65360000D02*
X128220000Y-65840000D01*
D13*
X148230000Y-57130000D02*
G75*
G03*
X148230000Y-57130000I-950000J0D01*
G01*
X132352881Y-55714035D02*
X132595022Y-55524853D01*
X131884978Y-55115147D02*
X132127119Y-54925965D01*
X57990000Y-83267164D02*
X57990000Y-83482836D01*
X58710000Y-83267164D02*
X58710000Y-83482836D01*
X59760000Y-84866359D02*
X59760000Y-85173641D01*
X59000000Y-84866359D02*
X59000000Y-85173641D01*
X84427629Y-77382947D02*
X84342930Y-77087569D01*
X83697070Y-77592431D02*
X83612371Y-77297053D01*
X63480002Y-120180006D02*
G75*
G03*
X63480002Y-120180006I-700000J0D01*
G01*
X60753641Y-106480000D02*
X60446359Y-106480000D01*
X60753641Y-105720000D02*
X60446359Y-105720000D01*
X136877953Y-80982686D02*
X137673571Y-80899063D01*
X136551825Y-77879778D02*
X137347442Y-77796155D01*
X136551825Y-77879778D02*
X135756207Y-77963401D01*
X136877953Y-80982686D02*
X135087814Y-81170837D01*
D14*
X59430000Y-83970000D02*
G75*
G03*
X59430000Y-83970000I-50000J0D01*
G01*
D13*
X86615032Y-75435081D02*
X86310740Y-75392315D01*
X86509260Y-76187685D02*
X86204968Y-76144919D01*
X133981955Y-55632338D02*
X133746563Y-55829855D01*
X133493437Y-55050145D02*
X133258045Y-55247662D01*
X63820000Y-72473641D02*
X63820000Y-72166359D01*
X63060000Y-72473641D02*
X63060000Y-72166359D01*
X91547045Y-82226674D02*
X91123110Y-81548236D01*
X91547045Y-82226674D02*
X91970980Y-82905113D01*
X94192955Y-80573326D02*
X93769020Y-79894887D01*
X94192955Y-80573326D02*
X95146810Y-82099813D01*
X112918152Y-93880710D02*
X113038755Y-93701909D01*
X112321245Y-93478091D02*
X112441848Y-93299290D01*
X66390000Y-84000000D02*
X66390000Y-83200000D01*
X66390000Y-84000000D02*
X66390000Y-84800000D01*
X63270000Y-84000000D02*
X63270000Y-82200000D01*
X63270000Y-84000000D02*
X63270000Y-84800000D01*
X88080703Y-83459568D02*
X87588174Y-84089977D01*
X88080703Y-83459568D02*
X89188894Y-82041149D01*
X90539297Y-85380432D02*
X90046768Y-86010841D01*
X90539297Y-85380432D02*
X91031826Y-84750023D01*
D15*
X59840000Y-84790000D02*
X59840000Y-82990000D01*
D13*
X96103641Y-95260000D02*
X95796359Y-95260000D01*
X96103641Y-96020000D02*
X95796359Y-96020000D01*
X128000000Y-73200000D02*
G75*
G03*
X128000000Y-73200000I-700000J0D01*
G01*
X136866359Y-76430000D02*
X137173641Y-76430000D01*
X136866359Y-77190000D02*
X137173641Y-77190000D01*
X82865657Y-64154535D02*
X83154408Y-64259632D01*
X83125592Y-63440368D02*
X83414343Y-63545465D01*
D15*
X93724000Y-47700000D02*
X93724000Y-49860000D01*
X90676000Y-47700000D02*
X90676000Y-49160000D01*
X93724000Y-47698000D02*
X92794000Y-47698000D01*
X90676000Y-47700000D02*
X91606000Y-47700000D01*
D13*
X103700000Y-77020000D02*
X104500000Y-77020000D01*
X103700000Y-73900000D02*
X105500000Y-73900000D01*
X103700000Y-73900000D02*
X102900000Y-73900000D01*
X103700000Y-77020000D02*
X102900000Y-77020000D01*
X130143437Y-62480145D02*
X129908045Y-62677662D01*
X130631955Y-63062338D02*
X130396563Y-63259855D01*
X166130000Y-98551000D02*
X165437180Y-98951000D01*
X166130000Y-98551000D02*
X166822820Y-98151000D01*
X164570000Y-95849000D02*
X166128846Y-94949000D01*
X164570000Y-95849000D02*
X163877180Y-96249000D01*
D15*
X62844446Y-95117240D02*
X63279906Y-96863772D01*
D13*
X60269692Y-94387447D02*
X59566817Y-91936229D01*
X60269692Y-94387447D02*
X58635548Y-94856030D01*
X58635548Y-94856030D02*
X57932672Y-92404813D01*
X58430000Y-106642164D02*
X58430000Y-106857836D01*
X59150000Y-106642164D02*
X59150000Y-106857836D01*
X128761300Y-60269586D02*
X128808386Y-59596230D01*
X125549144Y-60044970D02*
X125596230Y-59371614D01*
X128808386Y-59596230D02*
X128633812Y-59584022D01*
X125418700Y-61910414D02*
X125371614Y-62583770D01*
X128630856Y-62135030D02*
X128583770Y-62808386D01*
X125371614Y-62583770D02*
X125546188Y-62595978D01*
X125596230Y-59371614D02*
X125770804Y-59383821D01*
X121080000Y-53506359D02*
X121080000Y-53813641D01*
X120320000Y-53506359D02*
X120320000Y-53813641D01*
X101046359Y-115920000D02*
X101353641Y-115920000D01*
X101046359Y-115160000D02*
X101353641Y-115160000D01*
X66854629Y-63425287D02*
X69106146Y-64622440D01*
X66056528Y-64926298D02*
X66854629Y-63425287D01*
X66056528Y-64926298D02*
X68308044Y-66123451D01*
X71368511Y-78763111D02*
X71338496Y-78976684D01*
X72081504Y-78863316D02*
X72051489Y-79076889D01*
X94982022Y-106566058D02*
X94369186Y-106051828D01*
X92976524Y-108956116D02*
X91597644Y-107799099D01*
X92976524Y-108956116D02*
X93589360Y-109470346D01*
X94982022Y-106566058D02*
X95594857Y-107080288D01*
X59630002Y-100280006D02*
G75*
G03*
X59630002Y-100280006I-950000J0D01*
G01*
X131355658Y-80695910D02*
X132138176Y-80862240D01*
X132004342Y-77644090D02*
X131221824Y-77477760D01*
X131355658Y-80695910D02*
X129594992Y-80321669D01*
X132004342Y-77644090D02*
X132786860Y-77810419D01*
X132087119Y-56215965D02*
X131844978Y-56405147D01*
X132555022Y-56814853D02*
X132312881Y-57004035D01*
X122992164Y-73665000D02*
X123207836Y-73665000D01*
X122992164Y-74385000D02*
X123207836Y-74385000D01*
X133827910Y-79230989D02*
X133702927Y-79511705D01*
X134522205Y-79540109D02*
X134397222Y-79820825D01*
X117265000Y-74602064D02*
X117265000Y-73147936D01*
X119085000Y-74602064D02*
X119085000Y-73147936D01*
X98123326Y-76267045D02*
X97444887Y-76690980D01*
X98123326Y-76267045D02*
X99649813Y-75313190D01*
X99776674Y-78912955D02*
X99098236Y-79336890D01*
X99776674Y-78912955D02*
X100455113Y-78489020D01*
X130011955Y-62322338D02*
X129776563Y-62519855D01*
X129523437Y-61740145D02*
X129288045Y-61937662D01*
X96500000Y-93430000D02*
X96500000Y-92630000D01*
X93380000Y-93430000D02*
X93380000Y-94230000D01*
X93380000Y-93430000D02*
X93380000Y-91630000D01*
X96500000Y-93430000D02*
X96500000Y-94230000D01*
X96997119Y-109414035D02*
X96754978Y-109224853D01*
X97465022Y-108815147D02*
X97222881Y-108625965D01*
X72603133Y-61069995D02*
X70725247Y-64601785D01*
X68894753Y-59098215D02*
X67016867Y-62630005D01*
X112409402Y-62159524D02*
G75*
G03*
X112409402Y-62159524I-950000J0D01*
G01*
X107378896Y-113478495D02*
X107244192Y-113754679D01*
X106695812Y-113145333D02*
X106561108Y-113421517D01*
X152206158Y-78629312D02*
X150868498Y-77424877D01*
X154293846Y-76310700D02*
X154888362Y-76846005D01*
X154293846Y-76310700D02*
X153699330Y-75775396D01*
X152206158Y-78629312D02*
X152800674Y-79164616D01*
X125053641Y-64390000D02*
X124746359Y-64390000D01*
X125053641Y-65150000D02*
X124746359Y-65150000D01*
X140700015Y-57305139D02*
G75*
G03*
X140700015Y-57305139I-700000J0D01*
G01*
X129453641Y-64920000D02*
X129146359Y-64920000D01*
X129453641Y-65680000D02*
X129146359Y-65680000D01*
X66842164Y-85940000D02*
X67057836Y-85940000D01*
X66842164Y-86660000D02*
X67057836Y-86660000D01*
X69014673Y-81845810D02*
X68738489Y-81711106D01*
X68681511Y-82528894D02*
X68405327Y-82394190D01*
X60353641Y-51760000D02*
X60046359Y-51760000D01*
X60353641Y-52520000D02*
X60046359Y-52520000D01*
X62976359Y-81690000D02*
X63283641Y-81690000D01*
X62976359Y-80930000D02*
X63283641Y-80930000D01*
X118000000Y-55220000D02*
X118800000Y-55220000D01*
X118000000Y-55220000D02*
X116200000Y-55220000D01*
X118000000Y-52100000D02*
X118800000Y-52100000D01*
X118000000Y-52100000D02*
X117200000Y-52100000D01*
X85484080Y-87966449D02*
X85210463Y-88718203D01*
X85484080Y-87966449D02*
X86099716Y-86275002D01*
X88415920Y-89033551D02*
X88142304Y-89785306D01*
X88415920Y-89033551D02*
X88689537Y-88281797D01*
X136896270Y-57673491D02*
X134967908Y-55375359D01*
X134967908Y-55375359D02*
X131903730Y-57946509D01*
X131903730Y-57946509D02*
X133832092Y-60244641D01*
X133832092Y-60244641D02*
X136896270Y-57673491D01*
X125157836Y-82215000D02*
X124942164Y-82215000D01*
X125157836Y-82935000D02*
X124942164Y-82935000D01*
X67824090Y-79525658D02*
X67657760Y-80308176D01*
X67824090Y-79525658D02*
X67990419Y-78743140D01*
X70875910Y-80174342D02*
X70501669Y-81935008D01*
X70875910Y-80174342D02*
X71042240Y-79391824D01*
X151667149Y-75174125D02*
X151368994Y-75248463D01*
X151851010Y-75911549D02*
X151552855Y-75985887D01*
X123253641Y-75430000D02*
X122946359Y-75430000D01*
X123253641Y-74670000D02*
X122946359Y-74670000D01*
X163049897Y-100059885D02*
X163334804Y-99944775D01*
X162765196Y-99355225D02*
X163050103Y-99240115D01*
X68152343Y-77397119D02*
X68400940Y-77577734D01*
X68599060Y-76782266D02*
X68847657Y-76962881D01*
X153974820Y-73507116D02*
X154086159Y-72714902D01*
X150885184Y-73072896D02*
X151135695Y-71290413D01*
X153974820Y-73507116D02*
X153863482Y-74299330D01*
X150885184Y-73072896D02*
X150773845Y-73865110D01*
X90373641Y-63190000D02*
X90066359Y-63190000D01*
X90373641Y-63950000D02*
X90066359Y-63950000D01*
X87275798Y-91689639D02*
X86995082Y-91564656D01*
X87584918Y-90995344D02*
X87304202Y-90870361D01*
X127017164Y-82290000D02*
X127232836Y-82290000D01*
X127017164Y-83010000D02*
X127232836Y-83010000D01*
X130520000Y-67760000D02*
X130520000Y-67760000D01*
X132720000Y-67760000D02*
X132720000Y-67260000D01*
X132720000Y-66060000D02*
X132720000Y-65560000D01*
X132720000Y-67260000D02*
X132720000Y-67260000D01*
X132720000Y-65560000D02*
X132220000Y-65560000D01*
X132220000Y-67760000D02*
X132720000Y-67760000D01*
X130520000Y-65560000D02*
X130520000Y-66060000D01*
X132220000Y-65560000D02*
X132220000Y-65560000D01*
X130520000Y-66060000D02*
X130520000Y-66060000D01*
X131020000Y-65560000D02*
X130520000Y-65560000D01*
X131020000Y-67760000D02*
X130520000Y-67760000D01*
X86800000Y-70387836D02*
X86800000Y-70172164D01*
X87520000Y-70387836D02*
X87520000Y-70172164D01*
X67132783Y-59550011D02*
X66880078Y-59426759D01*
X67579922Y-58633241D02*
X67327217Y-58509989D01*
X61294869Y-114474509D02*
X61620258Y-115205346D01*
X64145131Y-113205491D02*
X64877257Y-114849873D01*
X64145131Y-113205491D02*
X63819742Y-112474654D01*
X61294869Y-114474509D02*
X60969480Y-113743673D01*
X162688593Y-98284460D02*
X162614829Y-98081795D01*
X163365171Y-98038205D02*
X163291407Y-97835540D01*
X63508824Y-53942304D02*
G75*
G03*
X63508824Y-53942304I-700000J0D01*
G01*
X87390000Y-65770000D02*
X88190000Y-65770000D01*
X87390000Y-62650000D02*
X86590000Y-62650000D01*
X87390000Y-62650000D02*
X89190000Y-62650000D01*
X87390000Y-65770000D02*
X86590000Y-65770000D01*
X167734804Y-95295225D02*
X167449897Y-95180115D01*
X167450103Y-95999885D02*
X167165196Y-95884775D01*
X67900000Y-88300000D02*
G75*
G03*
X67900000Y-88300000I-700000J0D01*
G01*
X69832749Y-83534971D02*
X69219913Y-83020741D01*
X67827251Y-85925029D02*
X67214416Y-85410799D01*
X69832749Y-83534971D02*
X71211629Y-84691988D01*
X67827251Y-85925029D02*
X68440087Y-86439259D01*
X91322022Y-103686058D02*
X91934857Y-104200288D01*
X89316524Y-106076116D02*
X89929360Y-106590346D01*
X91322022Y-103686058D02*
X90709186Y-103171828D01*
X89316524Y-106076116D02*
X87937644Y-104919099D01*
X67198613Y-89738072D02*
G75*
G03*
X67198613Y-89738072I-700000J0D01*
G01*
X101699057Y-114053804D02*
X101765704Y-113848688D01*
X101014296Y-113831312D02*
X101080943Y-113626196D01*
D15*
X59000000Y-52696000D02*
X61160000Y-52696000D01*
X58998000Y-52696000D02*
X58998000Y-53626000D01*
X59000000Y-55744000D02*
X60460000Y-55744000D01*
X59000000Y-55744000D02*
X59000000Y-54814000D01*
D13*
X60005002Y-63400736D02*
G75*
G03*
X60005002Y-63400736I-950000J0D01*
G01*
X108690000Y-110640000D02*
X108690000Y-109840000D01*
X105570000Y-110640000D02*
X105570000Y-108840000D01*
X105570000Y-110640000D02*
X105570000Y-111440000D01*
X108690000Y-110640000D02*
X108690000Y-111440000D01*
X148922317Y-96379266D02*
X148965083Y-96074974D01*
X149674921Y-96485038D02*
X149717687Y-96180746D01*
X124890000Y-86606359D02*
X124890000Y-86913641D01*
X125650000Y-86606359D02*
X125650000Y-86913641D01*
X125158357Y-60519774D02*
X125179792Y-60213241D01*
X124400208Y-60466759D02*
X124421643Y-60160226D01*
X119337836Y-51250000D02*
X119122164Y-51250000D01*
X119337836Y-51970000D02*
X119122164Y-51970000D01*
X150330000Y-57130000D02*
G75*
G03*
X150330000Y-57130000I-950000J0D01*
G01*
X62523648Y-109087933D02*
X62276435Y-108327088D01*
X59556352Y-110052067D02*
X59309138Y-109291221D01*
X59556352Y-110052067D02*
X59803565Y-110812912D01*
X62523648Y-109087933D02*
X63079879Y-110799835D01*
X148820286Y-98525137D02*
X148513191Y-98514413D01*
X148846809Y-97765599D02*
X148539714Y-97754875D01*
X120231000Y-74859000D02*
X121919000Y-74859000D01*
X121557000Y-73191000D02*
X120231000Y-73191000D01*
X120231000Y-73191000D02*
X120231000Y-74859000D01*
X121919000Y-74859000D02*
X121919000Y-73553000D01*
X140967502Y-48736256D02*
G75*
G03*
X140967502Y-48736256I-950000J0D01*
G01*
X155730840Y-79230897D02*
X155636296Y-79424742D01*
X155083708Y-78915270D02*
X154989164Y-79109115D01*
X61366452Y-111456076D02*
X61658695Y-111361121D01*
X61601305Y-112178879D02*
X61893548Y-112083924D01*
X130315741Y-59967689D02*
X131311598Y-59132065D01*
X131791342Y-62410761D02*
X133124259Y-61292311D01*
X148000000Y-93769000D02*
X147307180Y-93369000D01*
X146440000Y-96471000D02*
X145747180Y-96071000D01*
X146440000Y-96471000D02*
X147132820Y-96871000D01*
X148000000Y-93769000D02*
X149558846Y-94669000D01*
X63080000Y-70563641D02*
X63080000Y-70256359D01*
X63840000Y-70563641D02*
X63840000Y-70256359D01*
X119076359Y-50120000D02*
X119383641Y-50120000D01*
X119076359Y-50880000D02*
X119383641Y-50880000D01*
X59520002Y-58492170D02*
X59520002Y-58707842D01*
X60240002Y-58492170D02*
X60240002Y-58707842D01*
X92465965Y-100967119D02*
X92655147Y-100724978D01*
X93064853Y-101435022D02*
X93254035Y-101192881D01*
D15*
X63254447Y-92880488D02*
X62852017Y-91477045D01*
X60325073Y-93722553D02*
X61219046Y-93466210D01*
X60324522Y-93720630D02*
X59729145Y-91644305D01*
X63254447Y-92880488D02*
X62360474Y-93136830D01*
D13*
X141170000Y-53160000D02*
X139170000Y-53160000D01*
X139170000Y-55960000D02*
X141170000Y-55960000D01*
X139170000Y-53160000D02*
X139170000Y-55960000D01*
X141170000Y-55960000D02*
X141170000Y-53160000D01*
X123290000Y-52600000D02*
X124090000Y-52600000D01*
X123290000Y-55720000D02*
X124090000Y-55720000D01*
X123290000Y-52600000D02*
X122490000Y-52600000D01*
X123290000Y-55720000D02*
X121490000Y-55720000D01*
X151600000Y-94820000D02*
X153400000Y-94820000D01*
X151600000Y-97940000D02*
X152400000Y-97940000D01*
X151600000Y-94820000D02*
X150800000Y-94820000D01*
X151600000Y-97940000D02*
X150800000Y-97940000D01*
X113310000Y-94720000D02*
X115110000Y-94720000D01*
X113310000Y-94720000D02*
X112510000Y-94720000D01*
X113310000Y-97840000D02*
X114110000Y-97840000D01*
X113310000Y-97840000D02*
X112510000Y-97840000D01*
X118912376Y-95527398D02*
X119618734Y-95151821D01*
X117447624Y-92772602D02*
X119036930Y-91927553D01*
X118912376Y-95527398D02*
X118206018Y-95902975D01*
X117447624Y-92772602D02*
X116741266Y-93148179D01*
X131170000Y-64657836D02*
X131170000Y-64442164D01*
X130450000Y-64657836D02*
X130450000Y-64442164D01*
X60629672Y-106860287D02*
X60840631Y-106815446D01*
X60779369Y-107564554D02*
X60990328Y-107519713D01*
X85424876Y-90033244D02*
X85210385Y-90010700D01*
X85349615Y-90749300D02*
X85135124Y-90726756D01*
X133823641Y-54460000D02*
X133516359Y-54460000D01*
X133823641Y-53700000D02*
X133516359Y-53700000D01*
X130210000Y-66913641D02*
X130210000Y-66606359D01*
X129450000Y-66913641D02*
X129450000Y-66606359D01*
X130921204Y-58504908D02*
X130755989Y-58643540D01*
X131384011Y-59056460D02*
X131218796Y-59195092D01*
X84506456Y-64475206D02*
X84513983Y-64259666D01*
X85226017Y-64500334D02*
X85233544Y-64284794D01*
D14*
X143780000Y-48250000D02*
G75*
G03*
X143780000Y-48250000I-50000J0D01*
G01*
D13*
X129200000Y-74800000D02*
G75*
G03*
X129200000Y-74800000I-700000J0D01*
G01*
X115576076Y-95486452D02*
X115481121Y-95778695D01*
X116298879Y-95721305D02*
X116203924Y-96013548D01*
X157007547Y-79597293D02*
X157060906Y-79294679D01*
X156259094Y-79465321D02*
X156312453Y-79162707D01*
X95395947Y-109292352D02*
X95246128Y-109447494D01*
X95913872Y-109792506D02*
X95764053Y-109947648D01*
X91734072Y-106220995D02*
X91939684Y-105992640D01*
X92298862Y-106729534D02*
X92504474Y-106501179D01*
X129467836Y-63940000D02*
X129252164Y-63940000D01*
X129467836Y-64660000D02*
X129252164Y-64660000D01*
X60390000Y-67960000D02*
X63110000Y-67960000D01*
X60390000Y-66650000D02*
X60390000Y-67960000D01*
X60390000Y-63240000D02*
X60390000Y-64550000D01*
X63110000Y-63240000D02*
X63110000Y-63470000D01*
X64250000Y-63470000D02*
X63110000Y-63470000D01*
X63110000Y-67960000D02*
X63110000Y-67730000D01*
X63110000Y-63240000D02*
X60390000Y-63240000D01*
X142360000Y-48543641D02*
X142360000Y-48236359D01*
X143120000Y-48543641D02*
X143120000Y-48236359D01*
X89516359Y-46530000D02*
X89823641Y-46530000D01*
X89516359Y-47290000D02*
X89823641Y-47290000D01*
X84495182Y-72882890D02*
X84383843Y-73675104D01*
X87584818Y-73317110D02*
X87696157Y-72524896D01*
X84495182Y-72882890D02*
X84606520Y-72090676D01*
X87584818Y-73317110D02*
X87334307Y-75099593D01*
X145299666Y-97096017D02*
X145515206Y-97103544D01*
X145324794Y-96376456D02*
X145540334Y-96383983D01*
X114443641Y-93790000D02*
X114136359Y-93790000D01*
X114443641Y-94550000D02*
X114136359Y-94550000D01*
X60005002Y-60642506D02*
G75*
G03*
X60005002Y-60642506I-950000J0D01*
G01*
X139857851Y-79276611D02*
X139965687Y-79463389D01*
X139234313Y-79636611D02*
X139342149Y-79823389D01*
X96605687Y-78623389D02*
X96497851Y-78436611D01*
X95982149Y-78983389D02*
X95874313Y-78796611D01*
X129600000Y-73199992D02*
G75*
G03*
X129600000Y-73199992I-700000J0D01*
G01*
X120757836Y-76010000D02*
X120542164Y-76010000D01*
X120757836Y-75290000D02*
X120542164Y-75290000D01*
X131736359Y-68770000D02*
X132043641Y-68770000D01*
X131736359Y-68010000D02*
X132043641Y-68010000D01*
X89180000Y-61255000D02*
X89180000Y-59455000D01*
X89180000Y-61255000D02*
X89180000Y-62055000D01*
X92300000Y-61255000D02*
X92300000Y-60455000D01*
X92300000Y-61255000D02*
X92300000Y-62055000D01*
X59490000Y-96972164D02*
X59490000Y-97187836D01*
X58770000Y-96972164D02*
X58770000Y-97187836D01*
X103996449Y-113334080D02*
X105687895Y-112718443D01*
X103996449Y-113334080D02*
X103244694Y-113607696D01*
X105063551Y-116265920D02*
X104311797Y-116539537D01*
X105063551Y-116265920D02*
X105815306Y-115992304D01*
X63473851Y-55708421D02*
G75*
G03*
X63473851Y-55708421I-700000J0D01*
G01*
X59407569Y-90347070D02*
X59702947Y-90262371D01*
X59617053Y-91077629D02*
X59912431Y-90992930D01*
X137125815Y-57908618D02*
X140982541Y-62504885D01*
X130997459Y-63050919D02*
X137125815Y-57908618D01*
X130997459Y-63050919D02*
X134211397Y-66881141D01*
X135620229Y-67004398D02*
X140982541Y-62504885D01*
X137125815Y-57908618D02*
X130997459Y-63050919D01*
D16*
X134972032Y-67382076D02*
G75*
G03*
X134972032Y-67382076I-94653J0D01*
G01*
D13*
X125033641Y-65440000D02*
X124726359Y-65440000D01*
X125033641Y-66200000D02*
X124726359Y-66200000D01*
X88137260Y-86907656D02*
X87865946Y-86763396D01*
X88494058Y-86236616D02*
X88222744Y-86092356D01*
X59630002Y-103480006D02*
G75*
G03*
X59630002Y-103480006I-950000J0D01*
G01*
X96206943Y-79957731D02*
X96473057Y-79804090D01*
X96586943Y-80615910D02*
X96853057Y-80462269D01*
X121028641Y-72605000D02*
X120721359Y-72605000D01*
X121028641Y-71845000D02*
X120721359Y-71845000D01*
X58830000Y-115792164D02*
X58830000Y-116007836D01*
X59550000Y-115792164D02*
X59550000Y-116007836D01*
X101500000Y-76073641D02*
X101500000Y-75766359D01*
X100740000Y-76073641D02*
X100740000Y-75766359D01*
X59230002Y-58280006D02*
G75*
G03*
X59230002Y-58280006I-950000J0D01*
G01*
X88339995Y-50940000D02*
X89139995Y-50940000D01*
X88339995Y-50940000D02*
X86539995Y-50940000D01*
X88339995Y-47820000D02*
X87539995Y-47820000D01*
X88339995Y-47820000D02*
X89139995Y-47820000D01*
X93110703Y-96669568D02*
X92618174Y-97299977D01*
X93110703Y-96669568D02*
X94218894Y-95251149D01*
X95569297Y-98590432D02*
X96061826Y-97960023D01*
X95569297Y-98590432D02*
X95076768Y-99220841D01*
X141250000Y-55960000D02*
X143250000Y-55960000D01*
X143250000Y-55960000D02*
X143250000Y-53160000D01*
X143250000Y-53160000D02*
X141250000Y-53160000D01*
X141250000Y-53160000D02*
X141250000Y-55960000D01*
X125013641Y-64170000D02*
X124706359Y-64170000D01*
X125013641Y-63410000D02*
X124706359Y-63410000D01*
X127600000Y-74800000D02*
G75*
G03*
X127600000Y-74800000I-700000J0D01*
G01*
X111635633Y-64389028D02*
G75*
G03*
X111635633Y-64389028I-950000J0D01*
G01*
X138573641Y-56790000D02*
X138266359Y-56790000D01*
X138573641Y-56030000D02*
X138266359Y-56030000D01*
X64952605Y-61950779D02*
X65620430Y-60694783D01*
X66559570Y-62805217D02*
X67227395Y-61549221D01*
X66899572Y-73867713D02*
G75*
G03*
X66899572Y-73867713I-950000J0D01*
G01*
%LPC*%
D17*
X66816538Y-109941288D03*
D18*
X71139124Y-108367995D03*
D19*
X162841859Y-87981942D03*
D20*
X167441859Y-87981942D03*
D21*
X90073752Y-70530006D03*
X89023752Y-77530006D03*
D22*
X94773752Y-74930006D03*
D23*
X89123752Y-80830547D03*
D24*
X89973752Y-67229465D03*
D22*
X132873752Y-74930006D03*
D21*
X127123752Y-77530006D03*
X128173752Y-70530006D03*
D23*
X127223752Y-80830547D03*
D24*
X128073752Y-67229465D03*
D25*
X116623184Y-90260354D03*
D26*
X121044988Y-88992422D03*
D27*
X89655214Y-111656978D03*
D28*
X86823172Y-108032129D03*
D21*
X137998752Y-98680006D03*
D22*
X142398752Y-93980006D03*
D21*
X144998752Y-99730006D03*
D29*
X148299293Y-99630006D03*
D30*
X134698211Y-98780006D03*
D31*
X136663190Y-84003607D03*
D32*
X132107957Y-83363411D03*
D21*
X161086252Y-70230000D03*
X154086252Y-69180000D03*
D22*
X156686252Y-74930000D03*
D30*
X150785711Y-69280000D03*
D29*
X164386793Y-70130000D03*
D21*
X113461252Y-51180006D03*
X106461252Y-50130006D03*
D22*
X109061252Y-55880006D03*
D30*
X103160711Y-50230006D03*
D29*
X116761793Y-51080006D03*
D33*
X75942780Y-78385630D03*
D34*
X73926272Y-82520082D03*
D35*
X144164886Y-88720732D03*
D36*
X148226445Y-90880301D03*
D37*
X121003042Y-58544235D03*
D38*
X116414248Y-58223355D03*
D21*
X118948752Y-98680006D03*
X125948752Y-99730006D03*
D22*
X123348752Y-93980006D03*
D29*
X129249293Y-99630006D03*
D30*
X115648211Y-98780006D03*
D21*
X73561250Y-118780000D03*
X66561250Y-117730000D03*
D22*
X70961250Y-113030000D03*
D29*
X76861791Y-118680000D03*
D30*
X63260709Y-117830000D03*
D39*
X143107109Y-76965428D03*
D40*
X146630913Y-74008605D03*
D21*
X132511252Y-51180006D03*
X125511252Y-50130006D03*
D22*
X128111252Y-55880006D03*
D30*
X122210711Y-50230006D03*
D29*
X135811793Y-51080006D03*
D41*
X102977176Y-109041008D03*
D42*
X105809218Y-105416158D03*
D22*
X154305002Y-55880006D03*
D21*
X156905002Y-61630006D03*
X149905002Y-60580006D03*
D29*
X160205543Y-61530006D03*
D30*
X146604461Y-60680006D03*
D43*
X94953949Y-85852365D03*
D44*
X97391577Y-89753386D03*
D21*
X99755000Y-118780000D03*
D22*
X97155000Y-113030000D03*
D21*
X92755000Y-117730000D03*
D29*
X103055541Y-118680000D03*
D30*
X89454459Y-117830000D03*
D21*
X155698752Y-96580006D03*
X156748752Y-89580006D03*
D22*
X161448752Y-93980006D03*
D23*
X155798752Y-99880547D03*
D24*
X156648752Y-86279465D03*
D45*
X81715740Y-72592344D03*
D46*
X83438930Y-68327298D03*
D21*
X108073750Y-77530000D03*
X109123750Y-70530000D03*
D22*
X113823750Y-74930000D03*
D23*
X108173750Y-80830541D03*
D24*
X109023750Y-67229459D03*
D47*
X78358776Y-93555336D03*
D48*
X74093730Y-95278526D03*
D21*
X62830002Y-58480000D03*
D22*
X68580002Y-55880000D03*
D21*
X63880002Y-51480000D03*
D23*
X62930002Y-61780541D03*
D24*
X63780002Y-48179459D03*
D21*
X95761252Y-53280006D03*
D22*
X90011252Y-55880006D03*
D21*
X94711252Y-60280006D03*
D24*
X95661252Y-49979465D03*
D23*
X94811252Y-63580547D03*
D21*
X90998752Y-91380006D03*
D22*
X85248752Y-93980006D03*
D21*
X89948752Y-98380006D03*
D24*
X90898752Y-88079465D03*
D23*
X90048752Y-101680547D03*
D22*
X104298752Y-93980006D03*
D21*
X108998752Y-98380006D03*
X110048752Y-91380006D03*
D24*
X109948752Y-88079465D03*
D23*
X109098752Y-101680547D03*
D22*
X66198752Y-93980006D03*
D21*
X63598752Y-88230006D03*
X70598752Y-89280006D03*
D30*
X60298211Y-88330006D03*
D29*
X73899293Y-89180006D03*
D35*
X97942359Y-67877943D03*
D36*
X102003918Y-70037512D03*
D21*
X65211252Y-77530006D03*
D22*
X70961252Y-74930006D03*
D21*
X66261252Y-70530006D03*
D23*
X65311252Y-80830547D03*
D24*
X66161252Y-67229465D03*
D49*
X83616176Y-59752580D03*
D50*
X84806743Y-55309322D03*
D51*
X93568328Y-99892137D03*
X92791672Y-99327863D03*
D52*
X166670000Y-91932500D03*
X167620000Y-91932500D03*
X168570000Y-91932500D03*
X168570000Y-94207500D03*
X167620000Y-94207500D03*
X166670000Y-94207500D03*
D53*
X126320000Y-63515000D03*
X126320000Y-64165000D03*
X126320000Y-64815000D03*
X126320000Y-65465000D03*
X127920000Y-65465000D03*
X127920000Y-64815000D03*
X127920000Y-64165000D03*
X127920000Y-63515000D03*
D54*
X147280000Y-57130000D03*
D55*
X131838115Y-55633987D03*
X132641885Y-55006013D03*
D56*
X58350000Y-82895000D03*
X58350000Y-83855000D03*
D57*
X59380000Y-84510000D03*
X59380000Y-85530000D03*
D58*
X84160575Y-77830243D03*
X83879425Y-76849757D03*
D59*
X62780002Y-120180006D03*
D60*
X61110000Y-106100000D03*
X60090000Y-106100000D03*
D61*
X135682922Y-80494929D03*
X135583620Y-79550133D03*
X135484318Y-78605337D03*
X137746856Y-78367535D03*
X137846158Y-79312331D03*
X137945460Y-80257127D03*
D62*
X59380000Y-83365000D03*
X59380000Y-82395000D03*
D63*
X86915037Y-75860978D03*
X85904963Y-75719022D03*
D64*
X134010683Y-55112178D03*
X133229317Y-55767822D03*
D65*
X63440000Y-72830000D03*
X63440000Y-71810000D03*
D66*
X94278429Y-81861231D03*
X93472783Y-82364655D03*
X92667137Y-82868078D03*
X91461571Y-80938769D03*
X92267217Y-80435345D03*
X93072863Y-79931922D03*
D67*
X112411587Y-93987938D03*
X112948413Y-93192062D03*
D52*
X63880000Y-82862500D03*
X64830000Y-82862500D03*
X65780000Y-82862500D03*
X65780000Y-85137500D03*
X64830000Y-85137500D03*
X63880000Y-85137500D03*
D68*
X89261705Y-82938759D03*
X90010315Y-83523638D03*
X90758925Y-84108516D03*
X89358295Y-85901241D03*
X88609685Y-85316362D03*
X87861075Y-84731484D03*
D69*
X62400000Y-84990000D03*
X61450000Y-84990000D03*
X60500000Y-84990000D03*
X60500000Y-82790000D03*
X62400000Y-82790000D03*
D60*
X96460000Y-95640000D03*
X95440000Y-95640000D03*
D59*
X127300000Y-73200000D03*
D70*
X136510000Y-76810000D03*
X137530000Y-76810000D03*
D71*
X62069184Y-71731211D03*
X62069184Y-78131211D03*
X62069184Y-72531211D03*
X62069184Y-77331211D03*
D72*
X62069184Y-76181211D03*
X62069184Y-75181211D03*
X62069184Y-74681211D03*
X62069184Y-73681211D03*
X62069184Y-73181211D03*
X62069184Y-74181211D03*
X62069184Y-75681211D03*
X62069184Y-76689211D03*
D73*
X57369184Y-69355911D03*
X57369184Y-80506511D03*
D74*
X61169184Y-80506811D03*
X61169184Y-69355911D03*
D75*
X82660757Y-63675570D03*
X83619243Y-64024430D03*
D76*
X93150000Y-49460000D03*
X91250000Y-49460000D03*
X92200000Y-47460000D03*
D77*
X104837500Y-74510000D03*
X104837500Y-75460000D03*
X104837500Y-76410000D03*
X102562500Y-76410000D03*
X102562500Y-75460000D03*
X102562500Y-74510000D03*
D64*
X130660683Y-62542178D03*
X129879317Y-63197822D03*
D78*
X165860104Y-95808526D03*
X166335104Y-96631250D03*
X166810104Y-97453974D03*
X164839896Y-98591474D03*
X164364896Y-97768750D03*
X163889896Y-96946026D03*
D79*
X60312105Y-95542501D03*
X61233886Y-95312675D03*
X62155667Y-95082849D03*
X62687895Y-97217499D03*
X60844333Y-97677151D03*
D80*
X59342365Y-94237234D03*
X58735963Y-92122458D03*
D56*
X58790000Y-106270000D03*
X58790000Y-107230000D03*
D81*
X128002112Y-62381772D03*
X127503330Y-62346894D03*
X127004548Y-62312016D03*
X126505766Y-62277138D03*
X126006984Y-62242259D03*
D82*
X125833106Y-61503330D03*
X125867984Y-61004548D03*
X125902862Y-60505766D03*
D81*
X126177888Y-59798228D03*
X126676670Y-59833106D03*
X127175452Y-59867984D03*
X127674234Y-59902862D03*
X128173016Y-59937741D03*
D82*
X128346894Y-60676670D03*
X128312016Y-61175452D03*
X128277138Y-61674234D03*
D57*
X120700000Y-53150000D03*
X120700000Y-54170000D03*
D70*
X100690000Y-115540000D03*
X101710000Y-115540000D03*
D83*
X66808758Y-64363581D03*
X68751242Y-65396419D03*
D84*
X71776803Y-78444671D03*
X71643197Y-79395329D03*
D85*
X92497249Y-107757658D03*
X93107897Y-107029916D03*
X93718546Y-106302174D03*
X95461297Y-107764516D03*
X94850649Y-108492258D03*
X94240000Y-109220000D03*
D54*
X58680002Y-100280006D03*
D86*
X130369841Y-79862741D03*
X130567357Y-78933500D03*
X130764873Y-78004260D03*
X132990159Y-78477259D03*
X132792643Y-79406500D03*
X132595127Y-80335740D03*
D87*
X132601885Y-56296013D03*
X131798115Y-56923987D03*
D88*
X122620000Y-74025000D03*
X123580000Y-74025000D03*
D89*
X134320002Y-79059999D03*
X133905130Y-79991815D03*
D90*
X118175000Y-75337500D03*
X118175000Y-72412500D03*
D91*
X99411231Y-76181571D03*
X99914655Y-76987217D03*
X100418078Y-77792863D03*
X98488769Y-78998429D03*
X97985345Y-78192783D03*
X97481922Y-77387137D03*
D64*
X130040683Y-61802178D03*
X129259317Y-62457822D03*
D52*
X93990000Y-92292500D03*
X94940000Y-92292500D03*
X95890000Y-92292500D03*
X95890000Y-94567500D03*
X94940000Y-94567500D03*
X93990000Y-94567500D03*
D92*
X97511885Y-109333987D03*
X96708115Y-108706013D03*
D93*
X70467260Y-60613873D03*
X69152740Y-63086127D03*
D54*
X111459402Y-62159524D03*
D94*
X107193571Y-112991621D03*
X106746433Y-113908391D03*
D95*
X151769001Y-77414858D03*
X152404675Y-76708870D03*
X153040349Y-76002882D03*
X154731003Y-77525154D03*
X154095329Y-78231142D03*
X153459655Y-78937130D03*
D60*
X125410000Y-64770000D03*
X124390000Y-64770000D03*
D59*
X140000015Y-57305139D03*
D60*
X129810000Y-65300000D03*
X128790000Y-65300000D03*
D88*
X66470000Y-86300000D03*
X67430000Y-86300000D03*
D96*
X69168385Y-82343569D03*
X68251615Y-81896431D03*
D60*
X60710000Y-52140000D03*
X59690000Y-52140000D03*
D70*
X62620000Y-81310000D03*
X63640000Y-81310000D03*
D97*
X116862500Y-54610000D03*
X116862500Y-53660000D03*
X116862500Y-52710000D03*
X119137500Y-52710000D03*
X119137500Y-53660000D03*
X119137500Y-54610000D03*
D98*
X86446340Y-87106181D03*
X87339048Y-87431100D03*
X88231756Y-87756019D03*
X87453660Y-89893819D03*
X86560952Y-89568900D03*
X85668244Y-89243981D03*
D99*
X133609735Y-57918313D03*
X134643895Y-57050549D03*
X135190265Y-57701687D03*
X134156105Y-58569451D03*
D100*
X133107300Y-58894704D03*
D101*
X133618748Y-56801154D03*
D102*
X135692700Y-56725296D03*
D103*
X135219554Y-58786707D03*
D104*
X125530000Y-82575000D03*
X124570000Y-82575000D03*
D105*
X70042741Y-81160159D03*
X69113500Y-80962643D03*
X68184260Y-80765127D03*
X68657259Y-78539841D03*
X69586500Y-78737357D03*
X70515740Y-78934873D03*
D106*
X152104853Y-75456626D03*
X151115151Y-75703386D03*
D60*
X123610000Y-75050000D03*
X122590000Y-75050000D03*
D107*
X162577136Y-99841049D03*
X163522864Y-99458951D03*
D108*
X68087401Y-76880230D03*
X68912599Y-77479770D03*
D109*
X151647557Y-72031362D03*
X152588311Y-72163576D03*
X153529066Y-72295791D03*
X153212447Y-74548650D03*
X152271693Y-74416436D03*
X151330938Y-74284221D03*
D60*
X90730000Y-63570000D03*
X89710000Y-63570000D03*
D110*
X87755908Y-91487436D03*
X86824092Y-91072564D03*
D88*
X126645000Y-82650000D03*
X127605000Y-82650000D03*
D111*
X130857500Y-67410000D03*
X130857500Y-66910000D03*
X130857500Y-66410000D03*
X130857500Y-65910000D03*
D112*
X131370000Y-65897500D03*
X131870000Y-65897500D03*
D111*
X132382500Y-65910000D03*
X132382500Y-66410000D03*
X132382500Y-66910000D03*
X132382500Y-67410000D03*
D112*
X131870000Y-67422500D03*
X131370000Y-67422500D03*
D113*
X87160000Y-70760000D03*
X87160000Y-69800000D03*
D114*
X67926565Y-59369738D03*
X66533435Y-58690262D03*
D115*
X64050531Y-114492758D03*
X63182663Y-114879158D03*
X62314795Y-115265558D03*
X61389469Y-113187242D03*
X62257337Y-112800842D03*
X63125205Y-112414442D03*
D116*
X163154170Y-98511052D03*
X162825830Y-97608948D03*
D59*
X62808824Y-53942304D03*
D77*
X88527500Y-63260000D03*
X88527500Y-64210000D03*
X88527500Y-65160000D03*
X86252500Y-65160000D03*
X86252500Y-64210000D03*
X86252500Y-63260000D03*
D117*
X167922864Y-95781049D03*
X166977136Y-95398951D03*
D59*
X67200000Y-88300000D03*
D118*
X70312024Y-84733429D03*
X69701376Y-85461171D03*
X69090727Y-86188913D03*
X67347976Y-84726571D03*
X67958624Y-83998829D03*
X68569273Y-83271087D03*
D85*
X88837249Y-104877658D03*
X89447897Y-104149916D03*
X90058546Y-103422174D03*
X91801297Y-104884516D03*
X91190649Y-105612258D03*
X90580000Y-106340000D03*
D59*
X66498613Y-89738072D03*
D119*
X101241672Y-114296507D03*
X101538328Y-113383493D03*
D120*
X60760000Y-53270000D03*
X60760000Y-55170000D03*
X58760000Y-54220000D03*
D54*
X59055002Y-63400736D03*
D52*
X106180000Y-109502500D03*
X107130000Y-109502500D03*
X108080000Y-109502500D03*
X108080000Y-111777500D03*
X107130000Y-111777500D03*
X106180000Y-111777500D03*
D121*
X149249024Y-96785043D03*
X149390980Y-95774969D03*
D57*
X125270000Y-86250000D03*
X125270000Y-87270000D03*
D122*
X124754424Y-60848758D03*
X124825576Y-59831242D03*
D104*
X119710000Y-51610000D03*
X118750000Y-51610000D03*
D54*
X149380000Y-57130000D03*
D123*
X62295011Y-110358261D03*
X61391507Y-110651827D03*
X60488003Y-110945393D03*
X59784989Y-108781739D03*
X60688493Y-108488173D03*
X61591997Y-108194607D03*
D124*
X149189689Y-98157805D03*
X148170311Y-98122207D03*
D125*
X121475000Y-73625000D03*
X121075000Y-73625000D03*
X120675000Y-73625000D03*
X121475000Y-74025000D03*
X121075000Y-74025000D03*
X120675000Y-74025000D03*
X121475000Y-74425000D03*
X121075000Y-74425000D03*
X120675000Y-74425000D03*
D54*
X140017502Y-48736256D03*
D126*
X155570420Y-78738585D03*
X155149584Y-79601427D03*
D127*
X61144961Y-111927599D03*
X62115039Y-111612401D03*
D128*
X131301988Y-61959809D03*
X130980595Y-61576787D03*
X130659201Y-61193764D03*
D129*
X130337807Y-60810742D03*
D128*
X132138012Y-59300191D03*
X132459405Y-59683213D03*
X132780799Y-60066236D03*
X133102193Y-60449258D03*
D130*
X131720000Y-60630000D03*
D131*
X148680104Y-94866026D03*
X148205104Y-95688750D03*
X147730104Y-96511474D03*
X145759896Y-95373974D03*
X146234896Y-94551250D03*
X146709896Y-93728526D03*
D65*
X63460000Y-70920000D03*
X63460000Y-69900000D03*
D70*
X118720000Y-50500000D03*
X119740000Y-50500000D03*
D56*
X59880002Y-58120006D03*
X59880002Y-59080006D03*
D132*
X92546013Y-101481885D03*
X93173987Y-100678115D03*
D133*
X60391164Y-91870594D03*
X62217561Y-91346883D03*
X61855637Y-93531262D03*
D134*
X140670000Y-55535000D03*
D135*
X139670000Y-53585000D03*
D97*
X122152500Y-55110000D03*
X122152500Y-54160000D03*
X122152500Y-53210000D03*
X124427500Y-53210000D03*
X124427500Y-54160000D03*
X124427500Y-55110000D03*
D77*
X152737500Y-95430000D03*
X152737500Y-96380000D03*
X152737500Y-97330000D03*
X150462500Y-97330000D03*
X150462500Y-96380000D03*
X150462500Y-95430000D03*
X114447500Y-95330000D03*
X114447500Y-96280000D03*
X114447500Y-97230000D03*
X112172500Y-97230000D03*
X112172500Y-96280000D03*
X112172500Y-95330000D03*
D136*
X118738355Y-92777176D03*
X119184353Y-93615976D03*
X119630351Y-94454776D03*
X117621645Y-95522824D03*
X117175647Y-94684024D03*
X116729649Y-93845224D03*
D113*
X130810000Y-65030000D03*
X130810000Y-64070000D03*
D137*
X60340489Y-107289798D03*
X61279511Y-107090202D03*
D138*
X85757371Y-90430174D03*
X84802629Y-90329826D03*
D60*
X134180000Y-54080000D03*
X133160000Y-54080000D03*
D65*
X129830000Y-67270000D03*
X129830000Y-66250000D03*
D139*
X131437701Y-58541462D03*
X130702299Y-59158538D03*
D140*
X84853248Y-64859708D03*
X84886752Y-63900292D03*
D141*
X143730000Y-48855000D03*
X143730000Y-49825000D03*
D59*
X128500000Y-74800000D03*
D142*
X116047599Y-95264961D03*
X115732401Y-96235039D03*
D143*
X156571439Y-79882252D03*
X156748561Y-78877748D03*
D144*
X95913436Y-109274717D03*
X95246564Y-109965283D03*
D145*
X91778016Y-106740091D03*
X92460530Y-105982083D03*
D104*
X129840000Y-64300000D03*
X128880000Y-64300000D03*
D146*
X63700000Y-64100000D03*
D147*
X63612500Y-65600000D03*
D146*
X63700000Y-67100000D03*
D65*
X142740000Y-48900000D03*
X142740000Y-47880000D03*
D70*
X89160000Y-46910000D03*
X90180000Y-46910000D03*
D148*
X86822445Y-74358644D03*
X85881691Y-74226430D03*
X84940936Y-74094215D03*
X85257555Y-71841356D03*
X86198309Y-71973570D03*
X87139064Y-72105785D03*
D149*
X144940292Y-96723248D03*
X145899708Y-96756752D03*
D60*
X114800000Y-94170000D03*
X113780000Y-94170000D03*
D54*
X59055002Y-60642506D03*
D150*
X139360000Y-79134308D03*
X139840000Y-79965692D03*
D151*
X96480000Y-79125692D03*
X96000000Y-78294308D03*
D59*
X128900000Y-73199992D03*
D104*
X121130000Y-75650000D03*
X120170000Y-75650000D03*
D70*
X131380000Y-68390000D03*
X132400000Y-68390000D03*
D52*
X89790000Y-60117500D03*
X90740000Y-60117500D03*
X91690000Y-60117500D03*
X91690000Y-62392500D03*
X90740000Y-62392500D03*
X89790000Y-62392500D03*
D56*
X59130000Y-96600000D03*
X59130000Y-97560000D03*
D152*
X105273981Y-113518244D03*
X105598900Y-114410952D03*
X105923819Y-115303660D03*
X103786019Y-116081756D03*
X103461100Y-115189048D03*
X103136181Y-114296340D03*
D59*
X62773851Y-55708421D03*
D153*
X59169757Y-90810575D03*
X60150243Y-90529425D03*
D154*
X134341844Y-66647670D03*
X133525503Y-65674794D03*
X132709163Y-64701917D03*
X131877502Y-63741897D03*
X137622835Y-58920990D03*
X138454497Y-59881010D03*
X139270837Y-60853887D03*
X140087177Y-61826763D03*
D155*
X135990000Y-62777902D03*
D60*
X125390000Y-65820000D03*
X124370000Y-65820000D03*
D156*
X88630305Y-86739436D03*
X87729699Y-86260576D03*
D54*
X58680002Y-103480006D03*
D157*
X96088327Y-80465000D03*
X96971673Y-79955000D03*
D60*
X121385000Y-72225000D03*
X120365000Y-72225000D03*
D56*
X59190000Y-115420000D03*
X59190000Y-116380000D03*
D65*
X101120000Y-76430000D03*
X101120000Y-75410000D03*
D54*
X58280002Y-58280006D03*
D158*
X87202495Y-50330000D03*
X87202495Y-49380000D03*
X87202495Y-48430000D03*
X89477495Y-48430000D03*
X89477495Y-49380000D03*
X89477495Y-50330000D03*
D68*
X94291705Y-96148759D03*
X95040315Y-96733638D03*
X95788925Y-97318516D03*
X94388295Y-99111241D03*
X93639685Y-98526362D03*
X92891075Y-97941484D03*
D134*
X142750000Y-55535000D03*
D135*
X141750000Y-53585000D03*
D60*
X125370000Y-63790000D03*
X124350000Y-63790000D03*
D59*
X126900000Y-74800000D03*
D54*
X110685633Y-64389028D03*
D60*
X138930000Y-56410000D03*
X137910000Y-56410000D03*
D159*
X65397529Y-63052348D03*
X66782471Y-60447652D03*
D54*
X65949572Y-73867713D03*
M02*
