G04 #@! TF.GenerationSoftware,KiCad,Pcbnew,(6.0.11-0)*
G04 #@! TF.CreationDate,2023-02-16T18:47:19+08:00*
G04 #@! TF.ProjectId,Right,52696768-742e-46b6-9963-61645f706362,rev?*
G04 #@! TF.SameCoordinates,Original*
G04 #@! TF.FileFunction,Profile,NP*
%FSLAX46Y46*%
G04 Gerber Fmt 4.6, Leading zero omitted, Abs format (unit mm)*
G04 Created by KiCad (PCBNEW (6.0.11-0)) date 2023-02-16 18:47:19*
%MOMM*%
%LPD*%
G01*
G04 APERTURE LIST*
G04 #@! TA.AperFunction,Profile*
%ADD10C,0.030000*%
G04 #@! TD*
G04 #@! TA.AperFunction,Profile*
%ADD11C,0.038100*%
G04 #@! TD*
G04 #@! TA.AperFunction,Profile*
%ADD12C,0.000100*%
G04 #@! TD*
G04 #@! TA.AperFunction,Profile*
%ADD13C,0.010000*%
G04 #@! TD*
G04 APERTURE END LIST*
D10*
X61391020Y-45876456D02*
X60858031Y-45924008D01*
X106432932Y-122644024D02*
X106782796Y-122508585D01*
X107863024Y-121857415D02*
X107929145Y-121798352D01*
D11*
X61670434Y-74929294D02*
X61670434Y-79501294D01*
D10*
X170586573Y-101869936D02*
X170276275Y-102306643D01*
D11*
X110570659Y-105194294D02*
X110485094Y-105289066D01*
D10*
X62173209Y-123054294D02*
X61391055Y-123032153D01*
D11*
X111020659Y-104794294D02*
X110845431Y-104928729D01*
D10*
X109560659Y-108404294D02*
X109560659Y-117054294D01*
X56552971Y-49072187D02*
X56583444Y-48982033D01*
X57675897Y-121676805D02*
X57613199Y-121614306D01*
X109538517Y-117836447D02*
X109490968Y-118369452D01*
D11*
X112399727Y-104174620D02*
X112240659Y-104214294D01*
D10*
X169970482Y-102626792D02*
X170033170Y-102564310D01*
X65407207Y-45854296D02*
X62173209Y-45854294D01*
X166996532Y-103909307D02*
X167594745Y-103799966D01*
D11*
X87031660Y-121054294D02*
X99231660Y-121054294D01*
D10*
X104979928Y-122971933D02*
X105084032Y-122959307D01*
X61391055Y-123032153D02*
X60858051Y-122984599D01*
X170927448Y-48632159D02*
X170853154Y-48464290D01*
X129839157Y-104004294D02*
X129839157Y-102004294D01*
D11*
X110660659Y-105104294D02*
X110750743Y-105014210D01*
D10*
X56522492Y-49162323D02*
X56552971Y-49072187D01*
X56793213Y-120444305D02*
X57059796Y-120919951D01*
X56268195Y-118577665D02*
X56377531Y-119175877D01*
X170158181Y-102438917D02*
X170095669Y-102501609D01*
X171268838Y-49732723D02*
X171123862Y-49162315D01*
D11*
X65407207Y-45854296D02*
X65407207Y-47354296D01*
D10*
X169775508Y-47051181D02*
X169841639Y-47110225D01*
X108674073Y-120919936D02*
X108363775Y-121356643D01*
X109356367Y-119175859D02*
X109211379Y-119746273D01*
X56377531Y-119175877D02*
X56522499Y-119746281D01*
X164395159Y-104004294D02*
X165473159Y-104004294D01*
X171123862Y-49162315D02*
X171093387Y-49072176D01*
X109465685Y-118577642D02*
X109356367Y-119175859D01*
X56583444Y-48982033D02*
X56718920Y-48632171D01*
X58951067Y-46400002D02*
X58783195Y-46474298D01*
X168863166Y-46474289D02*
X169338803Y-46740880D01*
X59391102Y-122674536D02*
X59300948Y-122644059D01*
X170276275Y-47551943D02*
X170217221Y-47485810D01*
X167594721Y-46058604D02*
X168165125Y-46203591D01*
D11*
X67907207Y-47354296D02*
X67907208Y-47604296D01*
D10*
X169338813Y-103117706D02*
X169775524Y-102807415D01*
X109478314Y-118473551D02*
X109465685Y-118577642D01*
X57550698Y-47356984D02*
X57613195Y-47294289D01*
X57550712Y-121551618D02*
X57613199Y-121614306D01*
D12*
X107210655Y-119304289D02*
G75*
G03*
X107210655Y-119304289I-1400003J0D01*
G01*
D10*
X166892412Y-45936649D02*
X166996504Y-45949287D01*
D11*
X152195159Y-102004294D02*
X164395159Y-102004294D01*
D12*
X61323210Y-119304296D02*
G75*
G03*
X61323210Y-119304296I-1400001J0D01*
G01*
D10*
X171268867Y-100125859D02*
X171123879Y-100696273D01*
X78702660Y-123054294D02*
X78702660Y-121054294D01*
X56583475Y-119926567D02*
X56718916Y-120276432D01*
X171062924Y-100876555D02*
X170927449Y-101226413D01*
X106252647Y-122705006D02*
X106342780Y-122674520D01*
X59481222Y-46203586D02*
X59391082Y-46234067D01*
D11*
X109847428Y-106433939D02*
X109895283Y-106305408D01*
X109560659Y-108404294D02*
X109560659Y-108284294D01*
D10*
X171390814Y-99423551D02*
X171378185Y-99527642D01*
X168345417Y-46264538D02*
X168695280Y-46400015D01*
D11*
X110057356Y-105936024D02*
X110140659Y-105784294D01*
D10*
X60649861Y-122959318D02*
X60051643Y-122849999D01*
X56552983Y-119836419D02*
X56583475Y-119926567D01*
X168695296Y-103458585D02*
X168863167Y-103384289D01*
D11*
X110845431Y-104928729D02*
X110750659Y-105014294D01*
X111990304Y-104291063D02*
X112240304Y-104214294D01*
D10*
X166996504Y-45949287D02*
X167594721Y-46058604D01*
D11*
X66502660Y-121054294D02*
X78702660Y-121054294D01*
D10*
X170217221Y-47485810D02*
X170158171Y-47419661D01*
D11*
X113840659Y-104004294D02*
X113960659Y-104004294D01*
D10*
X165473169Y-104004305D02*
X166255347Y-103982134D01*
X147117158Y-104004294D02*
X147117158Y-102004294D01*
X108183169Y-121551609D02*
X108120670Y-121614310D01*
X57870860Y-121857411D02*
X57804730Y-121798372D01*
X168165147Y-103655006D02*
X168255280Y-103624520D01*
X66502659Y-123054294D02*
X62173209Y-123054294D01*
D12*
X169123150Y-49604305D02*
G75*
G03*
X169123150Y-49604305I-1399998J0D01*
G01*
D10*
X171450991Y-51072115D02*
X171403444Y-50539125D01*
D11*
X147117158Y-104004294D02*
X152195158Y-104004294D01*
X111156071Y-104700619D02*
X111210659Y-104664294D01*
D10*
X99231660Y-123054294D02*
X99231660Y-121054294D01*
X62173200Y-45854289D02*
X61391020Y-45876456D01*
D11*
X109573320Y-107900735D02*
X109586001Y-107740733D01*
X110220659Y-105654294D02*
X110256984Y-105599706D01*
D10*
X57738569Y-47169280D02*
X57675883Y-47231798D01*
X108940663Y-120444303D02*
X108674073Y-120919936D01*
X57675883Y-47231798D02*
X57613195Y-47294289D01*
X166788337Y-103934578D02*
X166892428Y-103921933D01*
D11*
X113840659Y-104004294D02*
X113510659Y-104014294D01*
X110485094Y-105289066D02*
X110350659Y-105464294D01*
D10*
X166788322Y-45924003D02*
X166892412Y-45936649D01*
D11*
X109770659Y-106683939D02*
X109847428Y-106433939D01*
X72547207Y-47354296D02*
X75047207Y-47354296D01*
X112984923Y-104063551D02*
X112832752Y-104084787D01*
X109641152Y-107276387D02*
X109619916Y-107428558D01*
X112832752Y-104084787D02*
X112620659Y-104124294D01*
D10*
X56173209Y-51854294D02*
X56173209Y-70357294D01*
X57738589Y-121739316D02*
X57675897Y-121676805D01*
X66502660Y-123054294D02*
X66502660Y-121054294D01*
D11*
X111340659Y-104584294D02*
X111492389Y-104500991D01*
D10*
X109560659Y-117054294D02*
X109538517Y-117836447D01*
D11*
X110000247Y-106056451D02*
X110057356Y-105936024D01*
D10*
X105682245Y-122849966D02*
X106252647Y-122705006D01*
D11*
X112984923Y-104063551D02*
X113297098Y-104029636D01*
D12*
X61323212Y-49604298D02*
G75*
G03*
X61323212Y-49604298I-1400000J0D01*
G01*
D10*
X168345432Y-103594024D02*
X168695296Y-103458585D01*
X56268189Y-50330945D02*
X56377507Y-49732727D01*
X60753953Y-122971950D02*
X60649861Y-122959318D01*
X57870848Y-47051173D02*
X57804720Y-47110230D01*
X166255347Y-103982134D02*
X166788337Y-103934578D01*
X166255318Y-45876445D02*
X166788322Y-45924003D01*
D11*
X117639156Y-104004294D02*
X113960659Y-104004294D01*
D10*
X107426313Y-122167706D02*
X107863024Y-121857415D01*
D11*
X72547207Y-47354296D02*
X72547208Y-47604296D01*
D10*
X164395159Y-104004294D02*
X164395159Y-102004294D01*
D11*
X61670434Y-70357294D02*
X61670434Y-74929294D01*
X85547207Y-47354296D02*
X85547208Y-47604296D01*
D10*
X169775524Y-102807415D02*
X169841645Y-102748352D01*
X106950667Y-122434289D02*
X107426313Y-122167706D01*
X171403468Y-99319452D02*
X171390814Y-99423551D01*
X171390802Y-50435033D02*
X171378171Y-50330935D01*
X152195159Y-104004294D02*
X152195159Y-102004294D01*
X170927449Y-101226413D02*
X170853163Y-101394303D01*
X104342847Y-123032134D02*
X104875837Y-122984578D01*
X171473159Y-51854294D02*
X171450991Y-51072115D01*
X57059789Y-47988648D02*
X57370090Y-47551944D01*
D11*
X88047207Y-45854296D02*
X88047207Y-47354296D01*
D10*
X57429149Y-121422782D02*
X57488197Y-121488933D01*
X60051643Y-122849999D02*
X59481233Y-122705014D01*
X170217238Y-102372771D02*
X170158181Y-102438917D01*
X59391082Y-46234067D02*
X59300943Y-46264559D01*
X56793198Y-48464285D02*
X57059789Y-47988648D01*
X58307549Y-46740877D02*
X57870848Y-47051173D01*
X103560659Y-123054294D02*
X99231660Y-123054294D01*
D11*
X109895283Y-106305408D02*
X110000247Y-106056451D01*
D10*
X60649839Y-45949280D02*
X60051628Y-46058615D01*
X134917158Y-104004294D02*
X134917158Y-102004294D01*
X171123879Y-100696273D02*
X171093402Y-100786402D01*
X171093402Y-100786402D02*
X171062924Y-100876555D01*
X165473156Y-45854303D02*
X166255318Y-45876445D01*
D11*
X61670434Y-79501294D02*
X56173209Y-79501294D01*
D10*
X169841645Y-102748352D02*
X169907797Y-102689303D01*
X108304738Y-121422771D02*
X108245681Y-121488917D01*
X56718916Y-120276432D02*
X56793213Y-120444305D01*
X108363775Y-121356643D02*
X108304738Y-121422771D01*
X56195370Y-117836483D02*
X56242924Y-118369472D01*
X60051628Y-46058615D02*
X59481222Y-46203586D01*
X59481233Y-122705014D02*
X59391102Y-122674536D01*
D11*
X109680659Y-107064294D02*
X109730985Y-106843362D01*
D10*
X171378185Y-99527642D02*
X171268867Y-100125859D01*
X59300948Y-122644059D02*
X58951088Y-122508582D01*
D11*
X65407207Y-47354296D02*
X67907207Y-47354296D01*
D10*
X56718920Y-48632171D02*
X56793198Y-48464285D01*
D11*
X85547207Y-47354296D02*
X88047207Y-47354296D01*
D10*
X57370088Y-121356657D02*
X57429149Y-121422782D01*
X75047207Y-45854296D02*
X78407207Y-45854296D01*
X107929145Y-121798352D02*
X107995297Y-121739303D01*
X106782796Y-122508585D02*
X106950667Y-122434289D01*
X57488197Y-121488933D02*
X57550712Y-121551618D01*
D11*
X110570575Y-105194378D02*
X110660659Y-105104294D01*
X111340659Y-104584294D02*
X111210659Y-104664294D01*
X129839157Y-104004294D02*
X134917157Y-104004294D01*
D10*
X169970465Y-47231794D02*
X170033157Y-47294288D01*
X58951088Y-122508582D02*
X58783199Y-122434303D01*
X171093387Y-49072176D02*
X171062895Y-48982040D01*
X106342780Y-122674520D02*
X106432932Y-122644024D01*
X58783199Y-122434303D02*
X58307565Y-122167711D01*
X171473159Y-98004294D02*
X171451017Y-98786447D01*
X56195350Y-51072136D02*
X56242909Y-50539133D01*
D11*
X111492389Y-104500991D02*
X111612816Y-104443882D01*
X78407207Y-45854296D02*
X78407207Y-47354296D01*
X110220659Y-105654294D02*
X110140659Y-105784294D01*
X112399727Y-104174620D02*
X112620659Y-104124294D01*
D10*
X168165125Y-46203591D02*
X168255264Y-46234068D01*
X60753938Y-45936651D02*
X60649839Y-45949280D01*
X56255554Y-50435039D02*
X56268189Y-50330945D01*
X59300943Y-46264559D02*
X58951067Y-46400002D01*
X57488189Y-47419676D02*
X57550698Y-47356984D01*
X171403444Y-50539125D02*
X171390802Y-50435033D01*
X57370090Y-47551944D02*
X57429131Y-47485813D01*
X57804730Y-121798372D02*
X57738589Y-121739316D01*
X166892428Y-103921933D02*
X166996532Y-103909307D01*
D11*
X109586001Y-107740733D02*
X109619916Y-107428558D01*
X75047207Y-45854296D02*
X75047207Y-47354296D01*
D10*
X170276275Y-102306643D02*
X170217238Y-102372771D01*
X169907797Y-102689303D02*
X169970482Y-102626792D01*
X171062895Y-48982040D02*
X170927448Y-48632159D01*
D11*
X61670434Y-70357294D02*
X56173209Y-70357294D01*
D10*
X171473159Y-98004294D02*
X171473159Y-51854294D01*
X57804720Y-47110230D02*
X57738569Y-47169280D01*
X170095669Y-102501609D02*
X170033170Y-102564310D01*
X169338803Y-46740880D02*
X169775508Y-47051181D01*
X104875837Y-122984578D02*
X104979928Y-122971933D01*
X58307565Y-122167711D02*
X57870860Y-121857411D01*
X167594745Y-103799966D02*
X168165147Y-103655006D01*
D11*
X109680659Y-107064294D02*
X109641152Y-107276387D01*
D10*
X56255568Y-118473564D02*
X56268195Y-118577665D01*
D12*
X169123155Y-100254289D02*
G75*
G03*
X169123155Y-100254289I-1400003J0D01*
G01*
D10*
X56173209Y-51854294D02*
X56195350Y-51072136D01*
X56242924Y-118369472D02*
X56255568Y-118473564D01*
X105084032Y-122959307D02*
X105682245Y-122849966D01*
X107995297Y-121739303D02*
X108057982Y-121676792D01*
X170095650Y-47356977D02*
X170033157Y-47294288D01*
X168255280Y-103624520D02*
X168345432Y-103594024D01*
X108245681Y-121488917D02*
X108183169Y-121551609D01*
X58783195Y-46474298D02*
X58307549Y-46740877D01*
D11*
X109570659Y-107954294D02*
X109560659Y-108284294D01*
D10*
X109180902Y-119836402D02*
X109150424Y-119926555D01*
D11*
X134917158Y-102004294D02*
X147117158Y-102004294D01*
D10*
X87031660Y-123054294D02*
X87031660Y-121054294D01*
D11*
X111861773Y-104338918D02*
X111990304Y-104291063D01*
D10*
X171451017Y-98786447D02*
X171403468Y-99319452D01*
X56522499Y-119746281D02*
X56552983Y-119836419D01*
X170586578Y-47988639D02*
X170276275Y-47551943D01*
X170853154Y-48464290D02*
X170586578Y-47988639D01*
X170158171Y-47419661D02*
X170095650Y-47356977D01*
X168695280Y-46400015D02*
X168863166Y-46474289D01*
X171378171Y-50330935D02*
X171268838Y-49732723D01*
X88047207Y-45854296D02*
X165473159Y-45854294D01*
D11*
X78407207Y-47354296D02*
X80907207Y-47354296D01*
D10*
X57429131Y-47485813D02*
X57488189Y-47419676D01*
X169841639Y-47110225D02*
X169907773Y-47169285D01*
D11*
X117639157Y-102004294D02*
X129839157Y-102004294D01*
D10*
X168255264Y-46234068D02*
X168345417Y-46264538D01*
X56173209Y-117054294D02*
X56173209Y-79501294D01*
D11*
X113297098Y-104029636D02*
X113457100Y-104016955D01*
D10*
X60858051Y-122984599D02*
X60753953Y-122971950D01*
X168863167Y-103384289D02*
X169338813Y-103117706D01*
X170853163Y-101394303D02*
X170586573Y-101869936D01*
X56377507Y-49732727D02*
X56522492Y-49162323D01*
D11*
X109770659Y-106684294D02*
X109730985Y-106843362D01*
D10*
X109490968Y-118369452D02*
X109478314Y-118473551D01*
X109014949Y-120276413D02*
X108940663Y-120444303D01*
X57059796Y-120919951D02*
X57370088Y-121356657D01*
D11*
X111020659Y-104794294D02*
X111156071Y-104700619D01*
D10*
X60858031Y-45924008D02*
X60753938Y-45936651D01*
X117639157Y-104004294D02*
X117639157Y-102004294D01*
D11*
X111612816Y-104443882D02*
X111861773Y-104338918D01*
D10*
X56173200Y-117054304D02*
X56195370Y-117836483D01*
X56242909Y-50539133D02*
X56255554Y-50435039D01*
X108057982Y-121676792D02*
X108120670Y-121614310D01*
D11*
X113457100Y-104016955D02*
X113510659Y-104014294D01*
D10*
X103560669Y-123054305D02*
X104342847Y-123032134D01*
D11*
X109570659Y-107954294D02*
X109573320Y-107900735D01*
X78702660Y-123054294D02*
X87031660Y-123054294D01*
X110256984Y-105599706D02*
X110350659Y-105464294D01*
D10*
X109150424Y-119926555D02*
X109014949Y-120276413D01*
X169907773Y-47169285D02*
X169970465Y-47231794D01*
D11*
X80907207Y-47354296D02*
X80907208Y-47604296D01*
D10*
X109211379Y-119746273D02*
X109180902Y-119836402D01*
D13*
X72547208Y-49854296D02*
X72547208Y-47604296D01*
X67907208Y-49854296D02*
X67907208Y-47604296D01*
X72547208Y-49854296D02*
X67907208Y-49854296D01*
X59985115Y-99870425D02*
X64585285Y-112509290D01*
X72422220Y-106411139D02*
X73465381Y-109277200D01*
X74499043Y-108900978D02*
X69898872Y-96262112D01*
X69386187Y-96023043D02*
X60224183Y-99357739D01*
X65618947Y-112133068D02*
X64575788Y-109267005D01*
X71909535Y-106172070D02*
X64814857Y-108754320D01*
X60224184Y-99357741D02*
G75*
G03*
X59985115Y-99870425I136810J-375877D01*
G01*
X69898872Y-96262112D02*
G75*
G03*
X69386187Y-96023043I-375877J-136808D01*
G01*
X64814858Y-108754322D02*
G75*
G03*
X64575788Y-109267005I136805J-375876D01*
G01*
X72422219Y-106411140D02*
G75*
G03*
X71909535Y-106172070I-375877J-136806D01*
G01*
X64585285Y-112509290D02*
G75*
G03*
X65618947Y-112133068I516831J188111D01*
G01*
X73465381Y-109277200D02*
G75*
G03*
X74499043Y-108900978I516831J188111D01*
G01*
X170416859Y-89631942D02*
X170416859Y-76181942D01*
X170016859Y-75781942D02*
X160266859Y-75781942D01*
X160966859Y-89631942D02*
X160966861Y-86581942D01*
X168916859Y-86181944D02*
X161366861Y-86181942D01*
X159866859Y-76181942D02*
X159866859Y-89631942D01*
X169316859Y-86581944D02*
X169316859Y-89631942D01*
X161366861Y-86181944D02*
G75*
G03*
X160966861Y-86581942I-2J-399998D01*
G01*
X159866859Y-89631942D02*
G75*
G03*
X160966859Y-89631942I550000J0D01*
G01*
X169316857Y-86581944D02*
G75*
G03*
X168916859Y-86181944I-399998J2D01*
G01*
X170416859Y-76181942D02*
G75*
G03*
X170016859Y-75781942I-400000J0D01*
G01*
X169316859Y-89631942D02*
G75*
G03*
X170416859Y-89631942I550000J0D01*
G01*
X160266859Y-75781942D02*
G75*
G03*
X159866859Y-76181942I2J-400002D01*
G01*
X122461462Y-87129837D02*
X123302156Y-90061684D01*
X121966703Y-86855588D02*
X114709178Y-88936647D01*
X120157461Y-76555263D02*
X110785160Y-79242727D01*
X110510910Y-79737487D02*
X114218233Y-92666457D01*
X124359543Y-89758483D02*
X120652221Y-76829513D01*
X115275620Y-92363256D02*
X114434928Y-89431407D01*
X114709178Y-88936649D02*
G75*
G03*
X114434928Y-89431407I110253J-384503D01*
G01*
X122461459Y-87129838D02*
G75*
G03*
X121966703Y-86855588I-384502J-110252D01*
G01*
X123302157Y-90061684D02*
G75*
G03*
X124359543Y-89758483I528693J151601D01*
G01*
X110785160Y-79242727D02*
G75*
G03*
X110510910Y-79737487I110257J-384506D01*
G01*
X114218234Y-92666457D02*
G75*
G03*
X115275620Y-92363256I528693J151601D01*
G01*
X120652221Y-76829513D02*
G75*
G03*
X120157461Y-76555263I-384505J-110255D01*
G01*
X82188280Y-121266116D02*
X92787025Y-112985469D01*
X86291797Y-104671956D02*
X75693052Y-112952602D01*
X84496653Y-107978003D02*
X89144895Y-113927483D01*
X92109797Y-112118657D02*
X89706363Y-113996423D01*
X84565593Y-107416534D02*
X86969024Y-105538767D01*
X75624112Y-113514071D02*
X81626812Y-121197176D01*
X89144896Y-113927482D02*
G75*
G03*
X89706363Y-113996423I315204J246262D01*
G01*
X75693053Y-112952603D02*
G75*
G03*
X75624112Y-113514071I246263J-315204D01*
G01*
X81626811Y-121197176D02*
G75*
G03*
X82188280Y-121266116I315205J246267D01*
G01*
X84565593Y-107416534D02*
G75*
G03*
X84496653Y-107978003I246263J-315205D01*
G01*
X92787025Y-112985469D02*
G75*
G03*
X92109797Y-112118657I-338614J433406D01*
G01*
X86969023Y-105538766D02*
G75*
G03*
X86291797Y-104671956I-338613J433405D01*
G01*
X130396800Y-84940611D02*
X137873322Y-85991369D01*
X130056363Y-84488834D02*
X130480840Y-81468519D01*
X138749579Y-82630614D02*
X138325099Y-85650931D01*
X137966995Y-96102810D02*
X139838873Y-82783704D01*
X127860105Y-95086310D02*
X137515219Y-96443248D01*
X129391545Y-81315428D02*
X127519667Y-94634534D01*
X130480841Y-81468519D02*
G75*
G03*
X129391545Y-81315428I-544648J76546D01*
G01*
X139838873Y-82783704D02*
G75*
G03*
X138749579Y-82630614I-544647J76545D01*
G01*
X130056364Y-84488834D02*
G75*
G03*
X130396800Y-84940611I396105J-55672D01*
G01*
X127519667Y-94634534D02*
G75*
G03*
X127860105Y-95086310I396107J-55669D01*
G01*
X137515219Y-96443249D02*
G75*
G03*
X137966995Y-96102810I55667J396110D01*
G01*
X137873322Y-85991368D02*
G75*
G03*
X138325099Y-85650931I55671J396106D01*
G01*
X74362636Y-84819040D02*
X71621316Y-83482009D01*
X87852703Y-80884497D02*
X75763923Y-74988405D01*
X75281715Y-75977078D02*
X78023036Y-77314112D01*
X74897502Y-84634871D02*
X78207205Y-77848978D01*
X71139108Y-84470682D02*
X83227888Y-90366774D01*
X83762754Y-90182605D02*
X88036873Y-81419363D01*
X83227888Y-90366775D02*
G75*
G03*
X83762754Y-90182605I175348J359518D01*
G01*
X71621315Y-83482010D02*
G75*
G03*
X71139108Y-84470682I-241103J-494336D01*
G01*
X88036873Y-81419363D02*
G75*
G03*
X87852703Y-80884497I-359521J175347D01*
G01*
X74362637Y-84819038D02*
G75*
G03*
X74897502Y-84634871I175349J359515D01*
G01*
X75763922Y-74988406D02*
G75*
G03*
X75281715Y-75977078I-241103J-494336D01*
G01*
X78207204Y-77848977D02*
G75*
G03*
X78023036Y-77314112I-359515J175349D01*
G01*
X150539231Y-90524435D02*
X149107343Y-93217424D01*
X150078586Y-93733842D02*
X156392978Y-81858197D01*
X150373840Y-89983468D02*
X143707589Y-86438956D01*
X147077881Y-76905272D02*
X140763489Y-88780917D01*
X141734731Y-89297336D02*
X143166621Y-86604347D01*
X156227588Y-81317230D02*
X147618849Y-76739882D01*
X156392978Y-81858197D02*
G75*
G03*
X156227588Y-81317230I-353179J187788D01*
G01*
X143707588Y-86438959D02*
G75*
G03*
X143166621Y-86604347I-187790J-353176D01*
G01*
X149107343Y-93217424D02*
G75*
G03*
X150078586Y-93733842I485622J-258209D01*
G01*
X140763489Y-88780917D02*
G75*
G03*
X141734731Y-89297336I485621J-258210D01*
G01*
X147618849Y-76739882D02*
G75*
G03*
X147077881Y-76905272I-187788J-353182D01*
G01*
X150539229Y-90524434D02*
G75*
G03*
X150373840Y-89983468I-353176J187789D01*
G01*
X123147669Y-70523016D02*
X124085894Y-57105780D01*
X114817279Y-59916078D02*
X122348886Y-60442741D01*
X113561593Y-56369849D02*
X112623368Y-69787086D01*
X122988573Y-57029048D02*
X122775814Y-60071618D01*
X114446156Y-59489150D02*
X114658913Y-56446581D01*
X112994491Y-70214014D02*
X122720741Y-70894140D01*
X122720741Y-70894139D02*
G75*
G03*
X123147669Y-70523016I27901J399027D01*
G01*
X122348886Y-60442740D02*
G75*
G03*
X122775814Y-60071618I27904J399024D01*
G01*
X112623368Y-69787086D02*
G75*
G03*
X112994491Y-70214014I399026J-27902D01*
G01*
X124085893Y-57105780D02*
G75*
G03*
X122988573Y-57029048I-548660J38366D01*
G01*
X114446158Y-59489150D02*
G75*
G03*
X114817279Y-59916078I399024J-27904D01*
G01*
X114658913Y-56446581D02*
G75*
G03*
X113561593Y-56369849I-548660J38366D01*
G01*
X80907208Y-49854296D02*
X80907208Y-47604296D01*
X85547208Y-49854296D02*
X80907208Y-49854296D01*
X85547208Y-49854296D02*
X85547208Y-47604296D01*
X133243233Y-69838396D02*
X141888726Y-80141694D01*
X146603812Y-71681615D02*
X140820177Y-76534658D01*
X149970495Y-73360285D02*
X141325002Y-63056987D01*
X147167345Y-71730917D02*
X149127846Y-74067351D01*
X142731375Y-79434628D02*
X140770874Y-77098191D01*
X140761469Y-63007684D02*
X133292535Y-69274864D01*
X140820178Y-76534659D02*
G75*
G03*
X140770874Y-77098191I257112J-306418D01*
G01*
X141888726Y-80141694D02*
G75*
G03*
X142731375Y-79434628I421324J353533D01*
G01*
X133292536Y-69274865D02*
G75*
G03*
X133243233Y-69838396I257117J-306417D01*
G01*
X141325002Y-63056987D02*
G75*
G03*
X140761469Y-63007684I-306418J-257115D01*
G01*
X147167343Y-71730918D02*
G75*
G03*
X146603812Y-71681615I-306417J-257113D01*
G01*
X149127846Y-74067351D02*
G75*
G03*
X149970495Y-73360285I421324J353533D01*
G01*
X97780816Y-95875961D02*
X91778116Y-103559066D01*
X108941029Y-104087668D02*
X98342284Y-95807021D01*
X91847056Y-104120534D02*
X102445800Y-112401181D01*
X105298901Y-103145653D02*
X100650657Y-109095131D01*
X103123028Y-111534369D02*
X100719597Y-109656600D01*
X105860370Y-103076713D02*
X108263801Y-104954480D01*
X91778117Y-103559066D02*
G75*
G03*
X91847056Y-104120534I315206J-246264D01*
G01*
X102445800Y-112401181D02*
G75*
G03*
X103123028Y-111534369I338614J433406D01*
G01*
X105860369Y-103076714D02*
G75*
G03*
X105298901Y-103145653I-246265J-315202D01*
G01*
X100650660Y-109095133D02*
G75*
G03*
X100719597Y-109656600I315200J-246265D01*
G01*
X108263801Y-104954480D02*
G75*
G03*
X108941029Y-104087668I338614J433406D01*
G01*
X98342284Y-95807021D02*
G75*
G03*
X97780816Y-95875961I-246264J-315204D01*
G01*
X97568808Y-93150696D02*
X108975055Y-86023282D01*
X99699693Y-90050403D02*
X95698806Y-83647641D01*
X103384407Y-77076374D02*
X91978160Y-84203788D01*
X109102306Y-85472095D02*
X103935593Y-77203626D01*
X92561071Y-85136641D02*
X95147619Y-83520389D01*
X99572442Y-90601590D02*
X96985897Y-92217843D01*
X95698804Y-83647642D02*
G75*
G03*
X95147619Y-83520389I-339219J-211965D01*
G01*
X99572441Y-90601589D02*
G75*
G03*
X99699693Y-90050403I-211965J339219D01*
G01*
X96985896Y-92217842D02*
G75*
G03*
X97568808Y-93150696I291456J-466427D01*
G01*
X108975054Y-86023280D02*
G75*
G03*
X109102306Y-85472095I-211967J339218D01*
G01*
X91978160Y-84203788D02*
G75*
G03*
X92561071Y-85136641I291455J-466427D01*
G01*
X103935594Y-77203625D02*
G75*
G03*
X103384407Y-77076374I-339220J-211971D01*
G01*
X82843262Y-66064380D02*
X85671171Y-67206929D01*
X82322546Y-66285411D02*
X79494265Y-73285646D01*
X69660515Y-70930358D02*
X82131138Y-75968817D01*
X86083238Y-66187027D02*
X73612615Y-61148568D01*
X82543206Y-74948915D02*
X79715296Y-73806363D01*
X73091899Y-61369599D02*
X69439485Y-70409642D01*
X79494266Y-73285647D02*
G75*
G03*
X79715296Y-73806363I370871J-149844D01*
G01*
X69439484Y-70409642D02*
G75*
G03*
X69660515Y-70930358I370877J-149841D01*
G01*
X73612615Y-61148569D02*
G75*
G03*
X73091899Y-61369599I-149843J-370873D01*
G01*
X82843261Y-66064383D02*
G75*
G03*
X82322546Y-66285411I-149844J-370870D01*
G01*
X85671171Y-67206929D02*
G75*
G03*
X86083238Y-66187027I206033J509951D01*
G01*
X82131138Y-75968817D02*
G75*
G03*
X82543206Y-74948915I206034J509951D01*
G01*
X70717257Y-94863128D02*
X75755716Y-107333750D01*
X79479145Y-91323095D02*
X80621693Y-94151007D01*
X73400425Y-97500000D02*
X80400662Y-94671723D01*
X76276432Y-107554781D02*
X85316475Y-103902367D01*
X72879709Y-97278969D02*
X71737159Y-94451060D01*
X85537505Y-103381651D02*
X80499047Y-90911028D01*
X85316475Y-103902366D02*
G75*
G03*
X85537505Y-103381651I-149846J370874D01*
G01*
X80499047Y-90911028D02*
G75*
G03*
X79479145Y-91323095I-509951J-206034D01*
G01*
X71737159Y-94451060D02*
G75*
G03*
X70717257Y-94863128I-509951J-206034D01*
G01*
X75755715Y-107333750D02*
G75*
G03*
X76276432Y-107554781I370874J149842D01*
G01*
X80400661Y-94671721D02*
G75*
G03*
X80621693Y-94151007I-149840J370872D01*
G01*
X72879711Y-97278968D02*
G75*
G03*
X73400425Y-97500000I370872J149840D01*
G01*
X104151313Y-69140679D02*
X97485062Y-65596167D01*
X104316704Y-69681646D02*
X102884816Y-72374635D01*
X100855354Y-56062483D02*
X94540962Y-67938128D01*
X110005061Y-60474441D02*
X101396322Y-55897093D01*
X103856059Y-72891053D02*
X110170451Y-61015408D01*
X95512204Y-68454547D02*
X96944094Y-65761558D01*
X104316702Y-69681645D02*
G75*
G03*
X104151313Y-69140679I-353176J187789D01*
G01*
X101396322Y-55897093D02*
G75*
G03*
X100855354Y-56062483I-187788J-353182D01*
G01*
X102884816Y-72374635D02*
G75*
G03*
X103856059Y-72891053I485622J-258209D01*
G01*
X110170451Y-61015408D02*
G75*
G03*
X110005061Y-60474441I-353179J187788D01*
G01*
X97485061Y-65596170D02*
G75*
G03*
X96944094Y-65761558I-187790J-353176D01*
G01*
X94540962Y-67938128D02*
G75*
G03*
X95512204Y-68454547I485621J-258210D01*
G01*
X71448264Y-59572145D02*
X84439967Y-63053261D01*
X83939735Y-53135865D02*
X86885807Y-53925262D01*
X83449837Y-53418707D02*
X81495752Y-60711445D01*
X73688907Y-49664470D02*
X71165422Y-59082247D01*
X87170508Y-52862744D02*
X74178805Y-49381628D01*
X84724668Y-61990743D02*
X81778594Y-61201343D01*
X84439967Y-63053261D02*
G75*
G03*
X84724668Y-61990743I142350J531259D01*
G01*
X81495753Y-60711445D02*
G75*
G03*
X81778594Y-61201343I386369J-103529D01*
G01*
X74178805Y-49381627D02*
G75*
G03*
X73688907Y-49664470I-103527J-386371D01*
G01*
X71165421Y-59082247D02*
G75*
G03*
X71448264Y-59572145I386373J-103526D01*
G01*
X83939735Y-53135866D02*
G75*
G03*
X83449837Y-53418707I-103530J-386368D01*
G01*
X86885807Y-53925262D02*
G75*
G03*
X87170508Y-52862744I142350J531259D01*
G01*
M02*
