G04 #@! TF.GenerationSoftware,KiCad,Pcbnew,(6.0.11-0)*
G04 #@! TF.CreationDate,2023-02-16T18:47:19+08:00*
G04 #@! TF.ProjectId,Right,52696768-742e-46b6-9963-61645f706362,rev?*
G04 #@! TF.SameCoordinates,Original*
G04 #@! TF.FileFunction,Soldermask,Bot*
G04 #@! TF.FilePolarity,Negative*
%FSLAX46Y46*%
G04 Gerber Fmt 4.6, Leading zero omitted, Abs format (unit mm)*
G04 Created by KiCad (PCBNEW (6.0.11-0)) date 2023-02-16 18:47:19*
%MOMM*%
%LPD*%
G01*
G04 APERTURE LIST*
G04 Aperture macros list*
%AMRoundRect*
0 Rectangle with rounded corners*
0 $1 Rounding radius*
0 $2 $3 $4 $5 $6 $7 $8 $9 X,Y pos of 4 corners*
0 Add a 4 corners polygon primitive as box body*
4,1,4,$2,$3,$4,$5,$6,$7,$8,$9,$2,$3,0*
0 Add four circle primitives for the rounded corners*
1,1,$1+$1,$2,$3*
1,1,$1+$1,$4,$5*
1,1,$1+$1,$6,$7*
1,1,$1+$1,$8,$9*
0 Add four rect primitives between the rounded corners*
20,1,$1+$1,$2,$3,$4,$5,0*
20,1,$1+$1,$4,$5,$6,$7,0*
20,1,$1+$1,$6,$7,$8,$9,0*
20,1,$1+$1,$8,$9,$2,$3,0*%
%AMRotRect*
0 Rectangle, with rotation*
0 The origin of the aperture is its center*
0 $1 length*
0 $2 width*
0 $3 Rotation angle, in degrees counterclockwise*
0 Add horizontal line*
21,1,$1,$2,0,0,$3*%
%AMOutline4P*
0 Free polygon, 4 corners , with rotation*
0 The origin of the aperture is its center*
0 number of corners: always 4*
0 $1 to $8 corner X, Y*
0 $9 Rotation angle, in degrees counterclockwise*
0 create outline with 4 corners*
4,1,4,$1,$2,$3,$4,$5,$6,$7,$8,$1,$2,$9*%
%AMOutline5P*
0 Free polygon, 5 corners , with rotation*
0 The origin of the aperture is its center*
0 number of corners: always 5*
0 $1 to $10 corner X, Y*
0 $11 Rotation angle, in degrees counterclockwise*
0 create outline with 5 corners*
4,1,5,$1,$2,$3,$4,$5,$6,$7,$8,$9,$10,$1,$2,$11*%
%AMOutline6P*
0 Free polygon, 6 corners , with rotation*
0 The origin of the aperture is its center*
0 number of corners: always 6*
0 $1 to $12 corner X, Y*
0 $13 Rotation angle, in degrees counterclockwise*
0 create outline with 6 corners*
4,1,6,$1,$2,$3,$4,$5,$6,$7,$8,$9,$10,$11,$12,$1,$2,$13*%
%AMOutline7P*
0 Free polygon, 7 corners , with rotation*
0 The origin of the aperture is its center*
0 number of corners: always 7*
0 $1 to $14 corner X, Y*
0 $15 Rotation angle, in degrees counterclockwise*
0 create outline with 7 corners*
4,1,7,$1,$2,$3,$4,$5,$6,$7,$8,$9,$10,$11,$12,$13,$14,$1,$2,$15*%
%AMOutline8P*
0 Free polygon, 8 corners , with rotation*
0 The origin of the aperture is its center*
0 number of corners: always 8*
0 $1 to $16 corner X, Y*
0 $17 Rotation angle, in degrees counterclockwise*
0 create outline with 8 corners*
4,1,8,$1,$2,$3,$4,$5,$6,$7,$8,$9,$10,$11,$12,$13,$14,$15,$16,$1,$2,$17*%
%AMFreePoly0*
4,1,6,0.500000,-0.850000,-0.199999,-0.850000,-0.500000,-0.550000,-0.500000,0.850000,0.500000,0.850000,0.500000,-0.850000,0.500000,-0.850000,$1*%
%AMFreePoly1*
4,1,9,1.475000,0.375000,1.050000,0.375000,1.050000,0.775000,0.300000,0.775000,0.300000,-0.250000,-0.250000,-0.250000,-0.250000,1.250000,1.475000,1.250000,1.475000,0.375000,1.475000,0.375000,$1*%
%AMFreePoly2*
4,1,9,3.862500,-0.866500,0.737500,-0.866500,0.737500,-0.450000,-0.737500,-0.450000,-0.737500,0.450000,0.737500,0.450000,0.737500,0.866500,3.862500,0.866500,3.862500,-0.866500,3.862500,-0.866500,$1*%
G04 Aperture macros list end*
%ADD10RoundRect,0.500000X-0.042321X-1.345626X0.897371X-1.003606X0.042321X1.345626X-0.897371X1.003606X0*%
%ADD11RoundRect,0.500000X0.042321X1.345626X-0.897371X1.003606X-0.042321X-1.345626X0.897371X-1.003606X0*%
%ADD12RoundRect,0.500000X-0.500000X-1.250000X0.500000X-1.250000X0.500000X1.250000X-0.500000X1.250000X0*%
%ADD13RoundRect,0.500000X0.500000X1.250000X-0.500000X1.250000X-0.500000X-1.250000X0.500000X-1.250000X0*%
%ADD14C,3.050000*%
%ADD15C,5.100000*%
%ADD16RoundRect,0.170000X0.680000X-0.830000X0.680000X0.830000X-0.680000X0.830000X-0.680000X-0.830000X0*%
%ADD17RoundRect,0.170000X-0.680000X0.830000X-0.680000X-0.830000X0.680000X-0.830000X0.680000X0.830000X0*%
%ADD18RoundRect,0.500000X-0.136084X-1.339396X0.825178X-1.063758X0.136084X1.339396X-0.825178X1.063758X0*%
%ADD19RoundRect,0.500000X0.136084X1.339396X-0.825178X1.063758X-0.136084X-1.339396X0.825178X-1.063758X0*%
%ADD20RoundRect,0.500000X1.292844X0.375571X0.677183X1.163582X-1.292844X-0.375571X-0.677183X-1.163582X0*%
%ADD21RoundRect,0.500000X-1.292844X-0.375571X-0.677183X-1.163582X1.292844X0.375571X0.677183X1.163582X0*%
%ADD22RoundRect,0.170000X0.830000X0.680000X-0.830000X0.680000X-0.830000X-0.680000X0.830000X-0.680000X0*%
%ADD23RoundRect,0.170000X-0.830000X-0.680000X0.830000X-0.680000X0.830000X0.680000X-0.830000X0.680000X0*%
%ADD24RoundRect,0.500000X0.669100X1.168249X-0.321168X1.307422X-0.669100X-1.168249X0.321168X-1.307422X0*%
%ADD25RoundRect,0.500000X-0.669100X-1.168249X0.321168X-1.307422X0.669100X1.168249X-0.321168X1.307422X0*%
%ADD26RoundRect,0.500000X-0.904307X0.997361X-1.342678X0.098567X0.904307X-0.997361X1.342678X-0.098567X0*%
%ADD27RoundRect,0.500000X0.904307X-0.997361X1.342678X-0.098567X-0.904307X0.997361X-1.342678X0.098567X0*%
%ADD28RoundRect,0.500000X-1.028313X-0.868949X-0.145366X-1.338420X1.028313X0.868949X0.145366X1.338420X0*%
%ADD29RoundRect,0.500000X1.028313X0.868949X0.145366X1.338420X-1.028313X-0.868949X-0.145366X-1.338420X0*%
%ADD30RoundRect,0.500000X0.585978X1.212077X-0.411586X1.281833X-0.585978X-1.212077X0.411586X-1.281833X0*%
%ADD31RoundRect,0.500000X-0.585978X-1.212077X0.411586X-1.281833X0.585978X1.212077X-0.411586X1.281833X0*%
%ADD32RoundRect,0.500000X0.420462X-1.278949X1.186507X-0.636162X-0.420462X1.278949X-1.186507X0.636162X0*%
%ADD33RoundRect,0.500000X-0.420462X1.278949X-1.186507X0.636162X0.420462X-1.278949X1.186507X-0.636162X0*%
%ADD34RoundRect,0.500000X0.677183X-1.163582X1.292844X-0.375571X-0.677183X1.163582X-1.292844X0.375571X0*%
%ADD35RoundRect,0.500000X-0.677183X1.163582X-1.292844X0.375571X0.677183X-1.163582X1.292844X-0.375571X0*%
%ADD36RoundRect,0.500000X-1.325020X-0.238375X-0.795100X-1.086423X1.325020X0.238375X0.795100X1.086423X0*%
%ADD37RoundRect,0.500000X1.325020X0.238375X0.795100X1.086423X-1.325020X-0.238375X-0.795100X-1.086423X0*%
%ADD38RoundRect,0.500000X0.971677X-0.931850X1.346283X-0.004666X-0.971677X0.931850X-1.346283X0.004666X0*%
%ADD39RoundRect,0.500000X-0.971677X0.931850X-1.346283X0.004666X0.971677X-0.931850X1.346283X-0.004666X0*%
%ADD40RoundRect,0.500000X-0.004666X1.346283X-0.931850X0.971677X0.004666X-1.346283X0.931850X-0.971677X0*%
%ADD41RoundRect,0.500000X0.004666X-1.346283X0.931850X-0.971677X-0.004666X1.346283X-0.931850X0.971677X0*%
%ADD42RoundRect,0.500000X1.077998X-0.806487X1.336817X0.159439X-1.077998X0.806487X-1.336817X-0.159439X0*%
%ADD43RoundRect,0.500000X-1.077998X0.806487X-1.336817X-0.159439X1.077998X-0.806487X1.336817X0.159439X0*%
%ADD44RoundRect,0.140000X0.213186X0.055243X-0.013339X0.219823X-0.213186X-0.055243X0.013339X-0.219823X0*%
%ADD45RoundRect,0.150000X-0.150000X0.350000X-0.150000X-0.350000X0.150000X-0.350000X0.150000X0.350000X0*%
%ADD46R,0.500000X0.350000*%
%ADD47C,1.500000*%
%ADD48RoundRect,0.135000X0.007516X-0.228896X0.220279X-0.062668X-0.007516X0.228896X-0.220279X0.062668X0*%
%ADD49RoundRect,0.140000X-0.170000X0.140000X-0.170000X-0.140000X0.170000X-0.140000X0.170000X0.140000X0*%
%ADD50RoundRect,0.135000X-0.185000X0.135000X-0.185000X-0.135000X0.185000X-0.135000X0.185000X0.135000X0*%
%ADD51RoundRect,0.135000X0.215044X-0.078777X0.140622X0.180763X-0.215044X0.078777X-0.140622X-0.180763X0*%
%ADD52C,1.000000*%
%ADD53RoundRect,0.135000X0.135000X0.185000X-0.135000X0.185000X-0.135000X-0.185000X0.135000X-0.185000X0*%
%ADD54RoundRect,0.150000X-0.332403X-0.185763X0.363762X-0.112593X0.332403X0.185763X-0.363762X0.112593X0*%
%ADD55RoundRect,0.147500X0.172500X-0.147500X0.172500X0.147500X-0.172500X0.147500X-0.172500X-0.147500X0*%
%ADD56RoundRect,0.135000X0.159433X0.164411X-0.107939X0.201988X-0.159433X-0.164411X0.107939X-0.201988X0*%
%ADD57RoundRect,0.135000X-0.015500X0.228495X-0.222332X0.054942X0.015500X-0.228495X0.222332X-0.054942X0*%
%ADD58RoundRect,0.135000X0.185000X-0.135000X0.185000X0.135000X-0.185000X0.135000X-0.185000X-0.135000X0*%
%ADD59RoundRect,0.150000X0.312679X-0.217329X-0.058265X0.376305X-0.312679X0.217329X0.058265X-0.376305X0*%
%ADD60RoundRect,0.140000X0.062649X-0.211128X0.219223X0.021002X-0.062649X0.211128X-0.219223X-0.021002X0*%
%ADD61RoundRect,0.150000X0.097280X0.368153X-0.333683X-0.183455X-0.097280X-0.368153X0.333683X0.183455X0*%
%ADD62R,0.650000X1.060000*%
%ADD63RoundRect,0.135000X-0.135000X-0.185000X0.135000X-0.185000X0.135000X0.185000X-0.135000X0.185000X0*%
%ADD64R,0.800000X0.540000*%
%ADD65R,0.800000X0.300000*%
%ADD66O,2.200000X1.000000*%
%ADD67O,1.800000X1.000000*%
%ADD68RoundRect,0.135000X-0.190132X-0.127670X0.063585X-0.220016X0.190132X0.127670X-0.063585X0.220016X0*%
%ADD69R,0.800000X0.900000*%
%ADD70RoundRect,0.150000X0.350000X0.150000X-0.350000X0.150000X-0.350000X-0.150000X0.350000X-0.150000X0*%
%ADD71RoundRect,0.150000X0.228109X0.304904X-0.378109X-0.045096X-0.228109X-0.304904X0.378109X0.045096X0*%
%ADD72RotRect,1.060000X0.650000X284.000000*%
%ADD73RotRect,0.500000X0.500000X106.000000*%
%ADD74RoundRect,0.087500X0.074208X-0.193147X0.100366X0.180940X-0.074208X0.193147X-0.100366X-0.180940X0*%
%ADD75RoundRect,0.087500X0.180940X-0.100366X0.193147X0.074208X-0.180940X0.100366X-0.193147X-0.074208X0*%
%ADD76RotRect,0.500000X0.500000X332.000000*%
%ADD77RoundRect,0.140000X-0.148861X0.162297X-0.187830X-0.114978X0.148861X-0.162297X0.187830X0.114978X0*%
%ADD78RoundRect,0.150000X-0.364534X0.110069X0.171697X-0.339882X0.364534X-0.110069X-0.171697X0.339882X0*%
%ADD79RoundRect,0.150000X-0.373538X-0.073953X0.311165X-0.219491X0.373538X0.073953X-0.311165X0.219491X0*%
%ADD80RoundRect,0.135000X-0.007516X0.228896X-0.220279X0.062668X0.007516X-0.228896X0.220279X-0.062668X0*%
%ADD81RoundRect,0.140000X-0.140000X-0.170000X0.140000X-0.170000X0.140000X0.170000X-0.140000X0.170000X0*%
%ADD82RoundRect,0.135000X-0.114096X0.198575X-0.223915X-0.048082X0.114096X-0.198575X0.223915X0.048082X0*%
%ADD83RoundRect,0.250000X0.625000X-0.312500X0.625000X0.312500X-0.625000X0.312500X-0.625000X-0.312500X0*%
%ADD84RoundRect,0.150000X0.217329X0.312679X-0.376305X-0.058265X-0.217329X-0.312679X0.376305X0.058265X0*%
%ADD85RoundRect,0.135000X0.220279X0.062668X0.007516X0.228896X-0.220279X-0.062668X-0.007516X-0.228896X0*%
%ADD86RotRect,1.200000X3.700000X242.000000*%
%ADD87RoundRect,0.135000X-0.107097X0.202436X-0.225457X-0.040239X0.107097X-0.202436X0.225457X0.040239X0*%
%ADD88RoundRect,0.150000X-0.360470X0.122724X0.159731X-0.345667X0.360470X-0.122724X-0.159731X0.345667X0*%
%ADD89RoundRect,0.135000X0.202436X0.107097X-0.040239X0.225457X-0.202436X-0.107097X0.040239X-0.225457X0*%
%ADD90RoundRect,0.150000X-0.350000X-0.150000X0.350000X-0.150000X0.350000X0.150000X-0.350000X0.150000X0*%
%ADD91RoundRect,0.150000X-0.021247X0.380195X-0.260661X-0.277589X0.021247X-0.380195X0.260661X0.277589X0*%
%ADD92Outline4P,-0.225000X0.475000X0.225000X0.475000X0.225000X-0.475000X-0.225000X-0.475000X310.000000*%
%ADD93Outline6P,-0.225000X0.537500X-0.112500X0.650000X0.225000X0.650000X0.225000X-0.650000X-0.112500X-0.650000X-0.225000X-0.537500X220.000000*%
%ADD94Outline6P,-0.225000X1.037500X-0.112500X1.150000X0.225000X1.150000X0.225000X-1.150000X-0.112500X-1.150000X-0.225000X-1.037500X130.000000*%
%ADD95Outline6P,-0.225000X0.537500X-0.112500X0.650000X0.225000X0.650000X0.225000X-0.650000X-0.112500X-0.650000X-0.225000X-0.537500X40.000000*%
%ADD96Outline6P,-0.225000X1.037500X-0.112500X1.150000X0.225000X1.150000X0.225000X-1.150000X-0.112500X-1.150000X-0.225000X-1.037500X310.000000*%
%ADD97RoundRect,0.140000X0.140000X0.170000X-0.140000X0.170000X-0.140000X-0.170000X0.140000X-0.170000X0*%
%ADD98RoundRect,0.150000X0.073953X-0.373538X0.219491X0.311165X-0.073953X0.373538X-0.219491X-0.311165X0*%
%ADD99RoundRect,0.135000X0.086234X0.212164X-0.175745X0.146845X-0.086234X-0.212164X0.175745X-0.146845X0*%
%ADD100RoundRect,0.135000X-0.055868X-0.222101X0.194472X-0.120957X0.055868X0.222101X-0.194472X0.120957X0*%
%ADD101RoundRect,0.135000X-0.217958X-0.070317X0.000477X-0.229019X0.217958X0.070317X-0.000477X0.229019X0*%
%ADD102RoundRect,0.150000X-0.099830X0.367470X-0.197251X-0.325718X0.099830X-0.367470X0.197251X0.325718X0*%
%ADD103RoundRect,0.135000X0.198575X0.114096X-0.048082X0.223915X-0.198575X-0.114096X0.048082X-0.223915X0*%
%ADD104R,0.375000X0.350000*%
%ADD105R,0.350000X0.375000*%
%ADD106RoundRect,0.140000X0.170000X-0.140000X0.170000X0.140000X-0.170000X0.140000X-0.170000X-0.140000X0*%
%ADD107RoundRect,0.225000X0.311821X0.126065X-0.092636X0.323332X-0.311821X-0.126065X0.092636X-0.323332X0*%
%ADD108RoundRect,0.150000X0.279390X-0.258730X-0.005326X0.380751X-0.279390X0.258730X0.005326X-0.380751X0*%
%ADD109RoundRect,0.140000X0.207631X-0.073414X0.111865X0.189700X-0.207631X0.073414X-0.111865X-0.189700X0*%
%ADD110RoundRect,0.135000X0.194472X0.120957X-0.055868X0.222101X-0.194472X-0.120957X0.055868X-0.222101X0*%
%ADD111RoundRect,0.150000X0.364534X-0.110069X-0.171697X0.339882X-0.364534X0.110069X0.171697X-0.339882X0*%
%ADD112RoundRect,0.140000X0.118417X-0.185681X0.204942X0.080615X-0.118417X0.185681X-0.204942X-0.080615X0*%
%ADD113R,0.900000X0.800000*%
%ADD114RoundRect,0.135000X0.164411X-0.159433X0.201988X0.107939X-0.164411X0.159433X-0.201988X-0.107939X0*%
%ADD115RoundRect,0.135000X0.175132X-0.147576X0.193966X0.121766X-0.175132X0.147576X-0.193966X-0.121766X0*%
%ADD116RoundRect,0.150000X0.250814X-0.286517X0.034503X0.379222X-0.250814X0.286517X-0.034503X-0.379222X0*%
%ADD117RoundRect,0.135000X0.141374X0.180176X-0.128461X0.189599X-0.141374X-0.180176X0.128461X-0.189599X0*%
%ADD118C,0.310000*%
%ADD119RoundRect,0.140000X-0.091423X0.200354X-0.214167X-0.051308X0.091423X-0.200354X0.214167X0.051308X0*%
%ADD120RoundRect,0.135000X-0.071224X-0.217663X0.185561X-0.134228X0.071224X0.217663X-0.185561X0.134228X0*%
%ADD121RotRect,0.550000X0.250000X40.000000*%
%ADD122RotRect,0.550000X0.250000X220.000000*%
%ADD123FreePoly0,40.000000*%
%ADD124RoundRect,0.150000X0.378109X-0.045096X-0.228109X0.304904X-0.378109X0.045096X0.228109X-0.304904X0*%
%ADD125RoundRect,0.135000X0.062668X-0.220279X0.228896X-0.007516X-0.062668X0.220279X-0.228896X0.007516X0*%
%ADD126RotRect,0.900000X0.800000X286.000000*%
%ADD127FreePoly1,90.000000*%
%ADD128FreePoly1,270.000000*%
%ADD129RoundRect,0.150000X0.238611X0.296757X-0.379452X-0.031873X-0.238611X-0.296757X0.379452X0.031873X0*%
%ADD130RoundRect,0.140000X-0.101596X-0.195393X0.172286X-0.137177X0.101596X0.195393X-0.172286X0.137177X0*%
%ADD131RoundRect,0.140000X0.157003X0.154435X-0.121463X0.183703X-0.157003X-0.154435X0.121463X-0.183703X0*%
%ADD132RoundRect,0.140000X-0.002028X0.220218X-0.216520X0.040237X0.002028X-0.220218X0.216520X-0.040237X0*%
%ADD133RoundRect,0.140000X0.165011X-0.145848X0.174782X0.133982X-0.165011X0.145848X-0.174782X-0.133982X0*%
%ADD134RoundRect,0.147500X-0.172500X0.147500X-0.172500X-0.147500X0.172500X-0.147500X0.172500X0.147500X0*%
%ADD135RoundRect,0.135000X-0.134228X0.185561X-0.217663X-0.071224X0.134228X-0.185561X0.217663X0.071224X0*%
%ADD136RoundRect,0.135000X0.158747X-0.165074X0.205632X0.100824X-0.158747X0.165074X-0.205632X-0.100824X0*%
%ADD137RoundRect,0.140000X-0.025036X0.218799X-0.219540X0.017384X0.025036X-0.218799X0.219540X-0.017384X0*%
%ADD138RoundRect,0.135000X0.047149X-0.224114X0.227814X-0.023465X-0.047149X0.224114X-0.227814X0.023465X0*%
%ADD139R,1.300000X0.900000*%
%ADD140FreePoly2,180.000000*%
%ADD141RoundRect,0.150000X0.099830X-0.367470X0.197251X0.325718X-0.099830X0.367470X-0.197251X-0.325718X0*%
%ADD142RoundRect,0.140000X-0.145848X-0.165011X0.133982X-0.174782X0.145848X0.165011X-0.133982X0.174782X0*%
%ADD143RoundRect,0.140000X-0.217224X0.036244X-0.077224X-0.206244X0.217224X-0.036244X0.077224X0.206244X0*%
%ADD144RoundRect,0.140000X0.217224X-0.036244X0.077224X0.206244X-0.217224X0.036244X-0.077224X-0.206244X0*%
%ADD145RoundRect,0.150000X0.277589X0.260661X-0.380195X0.021247X-0.277589X-0.260661X0.380195X-0.021247X0*%
%ADD146RoundRect,0.135000X-0.078777X-0.215044X0.180763X-0.140622X0.078777X0.215044X-0.180763X0.140622X0*%
%ADD147Outline5P,-0.200000X0.260000X-0.160000X0.300000X0.200000X0.300000X0.200000X-0.300000X-0.200000X-0.300000X310.000000*%
%ADD148Outline5P,-1.700000X1.810000X-1.360000X2.150000X1.700000X2.150000X1.700000X-2.150000X-1.700000X-2.150000X40.000000*%
%ADD149RoundRect,0.135000X0.206050X0.099967X-0.032346X0.226724X-0.206050X-0.099967X0.032346X-0.226724X0*%
%ADD150RoundRect,0.135000X-0.024413X-0.227715X0.209413X-0.092715X0.024413X0.227715X-0.209413X0.092715X0*%
%ADD151RoundRect,0.150000X-0.512500X-0.150000X0.512500X-0.150000X0.512500X0.150000X-0.512500X0.150000X0*%
%ADD152RoundRect,0.250000X0.421338X-0.592114X0.726494X-0.018199X-0.421338X0.592114X-0.726494X0.018199X0*%
G04 APERTURE END LIST*
D10*
X66816538Y-109941288D03*
D11*
X71139124Y-108367995D03*
D12*
X162841859Y-87981942D03*
D13*
X167441859Y-87981942D03*
D14*
X90073752Y-70530006D03*
X89023752Y-77530006D03*
D15*
X94773752Y-74930006D03*
D16*
X89123752Y-80830547D03*
D17*
X89973752Y-67229465D03*
D15*
X132873752Y-74930006D03*
D14*
X127123752Y-77530006D03*
X128173752Y-70530006D03*
D16*
X127223752Y-80830547D03*
D17*
X128073752Y-67229465D03*
D18*
X116623184Y-90260354D03*
D19*
X121044988Y-88992422D03*
D20*
X89655214Y-111656978D03*
D21*
X86823172Y-108032129D03*
D14*
X137998752Y-98680006D03*
D15*
X142398752Y-93980006D03*
D14*
X144998752Y-99730006D03*
D22*
X148299293Y-99630006D03*
D23*
X134698211Y-98780006D03*
D24*
X136663190Y-84003607D03*
D25*
X132107957Y-83363411D03*
D14*
X161086252Y-70230000D03*
X154086252Y-69180000D03*
D15*
X156686252Y-74930000D03*
D23*
X150785711Y-69280000D03*
D22*
X164386793Y-70130000D03*
D14*
X113461252Y-51180006D03*
X106461252Y-50130006D03*
D15*
X109061252Y-55880006D03*
D23*
X103160711Y-50230006D03*
D22*
X116761793Y-51080006D03*
D26*
X75942780Y-78385630D03*
D27*
X73926272Y-82520082D03*
D28*
X144164886Y-88720732D03*
D29*
X148226445Y-90880301D03*
D30*
X121003042Y-58544235D03*
D31*
X116414248Y-58223355D03*
D14*
X118948752Y-98680006D03*
X125948752Y-99730006D03*
D15*
X123348752Y-93980006D03*
D22*
X129249293Y-99630006D03*
D23*
X115648211Y-98780006D03*
D14*
X73561250Y-118780000D03*
X66561250Y-117730000D03*
D15*
X70961250Y-113030000D03*
D22*
X76861791Y-118680000D03*
D23*
X63260709Y-117830000D03*
D32*
X143107109Y-76965428D03*
D33*
X146630913Y-74008605D03*
D14*
X132511252Y-51180006D03*
X125511252Y-50130006D03*
D15*
X128111252Y-55880006D03*
D23*
X122210711Y-50230006D03*
D22*
X135811793Y-51080006D03*
D34*
X102977176Y-109041008D03*
D35*
X105809218Y-105416158D03*
D15*
X154305002Y-55880006D03*
D14*
X156905002Y-61630006D03*
X149905002Y-60580006D03*
D22*
X160205543Y-61530006D03*
D23*
X146604461Y-60680006D03*
D36*
X94953949Y-85852365D03*
D37*
X97391577Y-89753386D03*
D14*
X99755000Y-118780000D03*
D15*
X97155000Y-113030000D03*
D14*
X92755000Y-117730000D03*
D22*
X103055541Y-118680000D03*
D23*
X89454459Y-117830000D03*
D14*
X155698752Y-96580006D03*
X156748752Y-89580006D03*
D15*
X161448752Y-93980006D03*
D16*
X155798752Y-99880547D03*
D17*
X156648752Y-86279465D03*
D38*
X81715740Y-72592344D03*
D39*
X83438930Y-68327298D03*
D14*
X108073750Y-77530000D03*
X109123750Y-70530000D03*
D15*
X113823750Y-74930000D03*
D16*
X108173750Y-80830541D03*
D17*
X109023750Y-67229459D03*
D40*
X78358776Y-93555336D03*
D41*
X74093730Y-95278526D03*
D14*
X62830002Y-58480000D03*
D15*
X68580002Y-55880000D03*
D14*
X63880002Y-51480000D03*
D16*
X62930002Y-61780541D03*
D17*
X63780002Y-48179459D03*
D14*
X95761252Y-53280006D03*
D15*
X90011252Y-55880006D03*
D14*
X94711252Y-60280006D03*
D17*
X95661252Y-49979465D03*
D16*
X94811252Y-63580547D03*
D14*
X90998752Y-91380006D03*
D15*
X85248752Y-93980006D03*
D14*
X89948752Y-98380006D03*
D17*
X90898752Y-88079465D03*
D16*
X90048752Y-101680547D03*
D15*
X104298752Y-93980006D03*
D14*
X108998752Y-98380006D03*
X110048752Y-91380006D03*
D17*
X109948752Y-88079465D03*
D16*
X109098752Y-101680547D03*
D15*
X66198752Y-93980006D03*
D14*
X63598752Y-88230006D03*
X70598752Y-89280006D03*
D23*
X60298211Y-88330006D03*
D22*
X73899293Y-89180006D03*
D28*
X97942359Y-67877943D03*
D29*
X102003918Y-70037512D03*
D14*
X65211252Y-77530006D03*
D15*
X70961252Y-74930006D03*
D14*
X66261252Y-70530006D03*
D16*
X65311252Y-80830547D03*
D17*
X66161252Y-67229465D03*
D42*
X83616176Y-59752580D03*
D43*
X84806743Y-55309322D03*
D44*
X93568328Y-99892137D03*
X92791672Y-99327863D03*
D45*
X166670000Y-91932500D03*
X167620000Y-91932500D03*
X168570000Y-91932500D03*
X168570000Y-94207500D03*
X167620000Y-94207500D03*
X166670000Y-94207500D03*
D46*
X126320000Y-63515000D03*
X126320000Y-64165000D03*
X126320000Y-64815000D03*
X126320000Y-65465000D03*
X127920000Y-65465000D03*
X127920000Y-64815000D03*
X127920000Y-64165000D03*
X127920000Y-63515000D03*
D47*
X147280000Y-57130000D03*
D48*
X131838115Y-55633987D03*
X132641885Y-55006013D03*
D49*
X58350000Y-82895000D03*
X58350000Y-83855000D03*
D50*
X59380000Y-84510000D03*
X59380000Y-85530000D03*
D51*
X84160575Y-77830243D03*
X83879425Y-76849757D03*
D52*
X62780002Y-120180006D03*
D53*
X61110000Y-106100000D03*
X60090000Y-106100000D03*
D54*
X135682922Y-80494929D03*
X135583620Y-79550133D03*
X135484318Y-78605337D03*
X137746856Y-78367535D03*
X137846158Y-79312331D03*
X137945460Y-80257127D03*
D55*
X59380000Y-83365000D03*
X59380000Y-82395000D03*
D56*
X86915037Y-75860978D03*
X85904963Y-75719022D03*
D57*
X134010683Y-55112178D03*
X133229317Y-55767822D03*
D58*
X63440000Y-72830000D03*
X63440000Y-71810000D03*
D59*
X94278429Y-81861231D03*
X93472783Y-82364655D03*
X92667137Y-82868078D03*
X91461571Y-80938769D03*
X92267217Y-80435345D03*
X93072863Y-79931922D03*
D60*
X112411587Y-93987938D03*
X112948413Y-93192062D03*
D45*
X63880000Y-82862500D03*
X64830000Y-82862500D03*
X65780000Y-82862500D03*
X65780000Y-85137500D03*
X64830000Y-85137500D03*
X63880000Y-85137500D03*
D61*
X89261705Y-82938759D03*
X90010315Y-83523638D03*
X90758925Y-84108516D03*
X89358295Y-85901241D03*
X88609685Y-85316362D03*
X87861075Y-84731484D03*
D62*
X62400000Y-84990000D03*
X61450000Y-84990000D03*
X60500000Y-84990000D03*
X60500000Y-82790000D03*
X62400000Y-82790000D03*
D53*
X96460000Y-95640000D03*
X95440000Y-95640000D03*
D52*
X127300000Y-73200000D03*
D63*
X136510000Y-76810000D03*
X137530000Y-76810000D03*
D64*
X62069184Y-71731211D03*
X62069184Y-78131211D03*
X62069184Y-72531211D03*
X62069184Y-77331211D03*
D65*
X62069184Y-76181211D03*
X62069184Y-75181211D03*
X62069184Y-74681211D03*
X62069184Y-73681211D03*
X62069184Y-73181211D03*
X62069184Y-74181211D03*
X62069184Y-75681211D03*
X62069184Y-76689211D03*
D66*
X57369184Y-69355911D03*
X57369184Y-80506511D03*
D67*
X61169184Y-80506811D03*
X61169184Y-69355911D03*
D68*
X82660757Y-63675570D03*
X83619243Y-64024430D03*
D69*
X93150000Y-49460000D03*
X91250000Y-49460000D03*
X92200000Y-47460000D03*
D70*
X104837500Y-74510000D03*
X104837500Y-75460000D03*
X104837500Y-76410000D03*
X102562500Y-76410000D03*
X102562500Y-75460000D03*
X102562500Y-74510000D03*
D57*
X130660683Y-62542178D03*
X129879317Y-63197822D03*
D71*
X165860104Y-95808526D03*
X166335104Y-96631250D03*
X166810104Y-97453974D03*
X164839896Y-98591474D03*
X164364896Y-97768750D03*
X163889896Y-96946026D03*
D72*
X60312105Y-95542501D03*
X61233886Y-95312675D03*
X62155667Y-95082849D03*
X62687895Y-97217499D03*
X60844333Y-97677151D03*
D73*
X59342365Y-94237234D03*
X58735963Y-92122458D03*
D49*
X58790000Y-106270000D03*
X58790000Y-107230000D03*
D74*
X128002112Y-62381772D03*
X127503330Y-62346894D03*
X127004548Y-62312016D03*
X126505766Y-62277138D03*
X126006984Y-62242259D03*
D75*
X125833106Y-61503330D03*
X125867984Y-61004548D03*
X125902862Y-60505766D03*
D74*
X126177888Y-59798228D03*
X126676670Y-59833106D03*
X127175452Y-59867984D03*
X127674234Y-59902862D03*
X128173016Y-59937741D03*
D75*
X128346894Y-60676670D03*
X128312016Y-61175452D03*
X128277138Y-61674234D03*
D50*
X120700000Y-53150000D03*
X120700000Y-54170000D03*
D63*
X100690000Y-115540000D03*
X101710000Y-115540000D03*
D76*
X66808758Y-64363581D03*
X68751242Y-65396419D03*
D77*
X71776803Y-78444671D03*
X71643197Y-79395329D03*
D78*
X92497249Y-107757658D03*
X93107897Y-107029916D03*
X93718546Y-106302174D03*
X95461297Y-107764516D03*
X94850649Y-108492258D03*
X94240000Y-109220000D03*
D47*
X58680002Y-100280006D03*
D79*
X130369841Y-79862741D03*
X130567357Y-78933500D03*
X130764873Y-78004260D03*
X132990159Y-78477259D03*
X132792643Y-79406500D03*
X132595127Y-80335740D03*
D80*
X132601885Y-56296013D03*
X131798115Y-56923987D03*
D81*
X122620000Y-74025000D03*
X123580000Y-74025000D03*
D82*
X134320002Y-79059999D03*
X133905130Y-79991815D03*
D83*
X118175000Y-75337500D03*
X118175000Y-72412500D03*
D84*
X99411231Y-76181571D03*
X99914655Y-76987217D03*
X100418078Y-77792863D03*
X98488769Y-78998429D03*
X97985345Y-78192783D03*
X97481922Y-77387137D03*
D57*
X130040683Y-61802178D03*
X129259317Y-62457822D03*
D45*
X93990000Y-92292500D03*
X94940000Y-92292500D03*
X95890000Y-92292500D03*
X95890000Y-94567500D03*
X94940000Y-94567500D03*
X93990000Y-94567500D03*
D85*
X97511885Y-109333987D03*
X96708115Y-108706013D03*
D86*
X70467260Y-60613873D03*
X69152740Y-63086127D03*
D47*
X111459402Y-62159524D03*
D87*
X107193571Y-112991621D03*
X106746433Y-113908391D03*
D88*
X151769001Y-77414858D03*
X152404675Y-76708870D03*
X153040349Y-76002882D03*
X154731003Y-77525154D03*
X154095329Y-78231142D03*
X153459655Y-78937130D03*
D53*
X125410000Y-64770000D03*
X124390000Y-64770000D03*
D52*
X140000015Y-57305139D03*
D53*
X129810000Y-65300000D03*
X128790000Y-65300000D03*
D81*
X66470000Y-86300000D03*
X67430000Y-86300000D03*
D89*
X69168385Y-82343569D03*
X68251615Y-81896431D03*
D53*
X60710000Y-52140000D03*
X59690000Y-52140000D03*
D63*
X62620000Y-81310000D03*
X63640000Y-81310000D03*
D90*
X116862500Y-54610000D03*
X116862500Y-53660000D03*
X116862500Y-52710000D03*
X119137500Y-52710000D03*
X119137500Y-53660000D03*
X119137500Y-54610000D03*
D91*
X86446340Y-87106181D03*
X87339048Y-87431100D03*
X88231756Y-87756019D03*
X87453660Y-89893819D03*
X86560952Y-89568900D03*
X85668244Y-89243981D03*
D92*
X133609735Y-57918313D03*
X134643895Y-57050549D03*
X135190265Y-57701687D03*
X134156105Y-58569451D03*
D93*
X133107300Y-58894704D03*
D94*
X133618748Y-56801154D03*
D95*
X135692700Y-56725296D03*
D96*
X135219554Y-58786707D03*
D97*
X125530000Y-82575000D03*
X124570000Y-82575000D03*
D98*
X70042741Y-81160159D03*
X69113500Y-80962643D03*
X68184260Y-80765127D03*
X68657259Y-78539841D03*
X69586500Y-78737357D03*
X70515740Y-78934873D03*
D99*
X152104853Y-75456626D03*
X151115151Y-75703386D03*
D53*
X123610000Y-75050000D03*
X122590000Y-75050000D03*
D100*
X162577136Y-99841049D03*
X163522864Y-99458951D03*
D101*
X68087401Y-76880230D03*
X68912599Y-77479770D03*
D102*
X151647557Y-72031362D03*
X152588311Y-72163576D03*
X153529066Y-72295791D03*
X153212447Y-74548650D03*
X152271693Y-74416436D03*
X151330938Y-74284221D03*
D53*
X90730000Y-63570000D03*
X89710000Y-63570000D03*
D103*
X87755908Y-91487436D03*
X86824092Y-91072564D03*
D81*
X126645000Y-82650000D03*
X127605000Y-82650000D03*
D104*
X130857500Y-67410000D03*
X130857500Y-66910000D03*
X130857500Y-66410000D03*
X130857500Y-65910000D03*
D105*
X131370000Y-65897500D03*
X131870000Y-65897500D03*
D104*
X132382500Y-65910000D03*
X132382500Y-66410000D03*
X132382500Y-66910000D03*
X132382500Y-67410000D03*
D105*
X131870000Y-67422500D03*
X131370000Y-67422500D03*
D106*
X87160000Y-70760000D03*
X87160000Y-69800000D03*
D107*
X67926565Y-59369738D03*
X66533435Y-58690262D03*
D108*
X64050531Y-114492758D03*
X63182663Y-114879158D03*
X62314795Y-115265558D03*
X61389469Y-113187242D03*
X62257337Y-112800842D03*
X63125205Y-112414442D03*
D109*
X163154170Y-98511052D03*
X162825830Y-97608948D03*
D52*
X62808824Y-53942304D03*
D70*
X88527500Y-63260000D03*
X88527500Y-64210000D03*
X88527500Y-65160000D03*
X86252500Y-65160000D03*
X86252500Y-64210000D03*
X86252500Y-63260000D03*
D110*
X167922864Y-95781049D03*
X166977136Y-95398951D03*
D52*
X67200000Y-88300000D03*
D111*
X70312024Y-84733429D03*
X69701376Y-85461171D03*
X69090727Y-86188913D03*
X67347976Y-84726571D03*
X67958624Y-83998829D03*
X68569273Y-83271087D03*
D78*
X88837249Y-104877658D03*
X89447897Y-104149916D03*
X90058546Y-103422174D03*
X91801297Y-104884516D03*
X91190649Y-105612258D03*
X90580000Y-106340000D03*
D52*
X66498613Y-89738072D03*
D112*
X101241672Y-114296507D03*
X101538328Y-113383493D03*
D113*
X60760000Y-53270000D03*
X60760000Y-55170000D03*
X58760000Y-54220000D03*
D47*
X59055002Y-63400736D03*
D45*
X106180000Y-109502500D03*
X107130000Y-109502500D03*
X108080000Y-109502500D03*
X108080000Y-111777500D03*
X107130000Y-111777500D03*
X106180000Y-111777500D03*
D114*
X149249024Y-96785043D03*
X149390980Y-95774969D03*
D50*
X125270000Y-86250000D03*
X125270000Y-87270000D03*
D115*
X124754424Y-60848758D03*
X124825576Y-59831242D03*
D97*
X119710000Y-51610000D03*
X118750000Y-51610000D03*
D47*
X149380000Y-57130000D03*
D116*
X62295011Y-110358261D03*
X61391507Y-110651827D03*
X60488003Y-110945393D03*
X59784989Y-108781739D03*
X60688493Y-108488173D03*
X61591997Y-108194607D03*
D117*
X149189689Y-98157805D03*
X148170311Y-98122207D03*
D118*
X121475000Y-73625000D03*
X121075000Y-73625000D03*
X120675000Y-73625000D03*
X121475000Y-74025000D03*
X121075000Y-74025000D03*
X120675000Y-74025000D03*
X121475000Y-74425000D03*
X121075000Y-74425000D03*
X120675000Y-74425000D03*
D47*
X140017502Y-48736256D03*
D119*
X155570420Y-78738585D03*
X155149584Y-79601427D03*
D120*
X61144961Y-111927599D03*
X62115039Y-111612401D03*
D121*
X131301988Y-61959809D03*
X130980595Y-61576787D03*
X130659201Y-61193764D03*
D122*
X130337807Y-60810742D03*
D121*
X132138012Y-59300191D03*
X132459405Y-59683213D03*
X132780799Y-60066236D03*
X133102193Y-60449258D03*
D123*
X131720000Y-60630000D03*
D124*
X148680104Y-94866026D03*
X148205104Y-95688750D03*
X147730104Y-96511474D03*
X145759896Y-95373974D03*
X146234896Y-94551250D03*
X146709896Y-93728526D03*
D58*
X63460000Y-70920000D03*
X63460000Y-69900000D03*
D63*
X118720000Y-50500000D03*
X119740000Y-50500000D03*
D49*
X59880002Y-58120006D03*
X59880002Y-59080006D03*
D125*
X92546013Y-101481885D03*
X93173987Y-100678115D03*
D126*
X60391164Y-91870594D03*
X62217561Y-91346883D03*
X61855637Y-93531262D03*
D127*
X140670000Y-55535000D03*
D128*
X139670000Y-53585000D03*
D90*
X122152500Y-55110000D03*
X122152500Y-54160000D03*
X122152500Y-53210000D03*
X124427500Y-53210000D03*
X124427500Y-54160000D03*
X124427500Y-55110000D03*
D70*
X152737500Y-95430000D03*
X152737500Y-96380000D03*
X152737500Y-97330000D03*
X150462500Y-97330000D03*
X150462500Y-96380000D03*
X150462500Y-95430000D03*
X114447500Y-95330000D03*
X114447500Y-96280000D03*
X114447500Y-97230000D03*
X112172500Y-97230000D03*
X112172500Y-96280000D03*
X112172500Y-95330000D03*
D129*
X118738355Y-92777176D03*
X119184353Y-93615976D03*
X119630351Y-94454776D03*
X117621645Y-95522824D03*
X117175647Y-94684024D03*
X116729649Y-93845224D03*
D106*
X130810000Y-65030000D03*
X130810000Y-64070000D03*
D130*
X60340489Y-107289798D03*
X61279511Y-107090202D03*
D131*
X85757371Y-90430174D03*
X84802629Y-90329826D03*
D53*
X134180000Y-54080000D03*
X133160000Y-54080000D03*
D58*
X129830000Y-67270000D03*
X129830000Y-66250000D03*
D132*
X131437701Y-58541462D03*
X130702299Y-59158538D03*
D133*
X84853248Y-64859708D03*
X84886752Y-63900292D03*
D134*
X143730000Y-48855000D03*
X143730000Y-49825000D03*
D52*
X128500000Y-74800000D03*
D135*
X116047599Y-95264961D03*
X115732401Y-96235039D03*
D136*
X156571439Y-79882252D03*
X156748561Y-78877748D03*
D137*
X95913436Y-109274717D03*
X95246564Y-109965283D03*
D138*
X91778016Y-106740091D03*
X92460530Y-105982083D03*
D97*
X129840000Y-64300000D03*
X128880000Y-64300000D03*
D139*
X63700000Y-64100000D03*
D140*
X63612500Y-65600000D03*
D139*
X63700000Y-67100000D03*
D58*
X142740000Y-48900000D03*
X142740000Y-47880000D03*
D63*
X89160000Y-46910000D03*
X90180000Y-46910000D03*
D141*
X86822445Y-74358644D03*
X85881691Y-74226430D03*
X84940936Y-74094215D03*
X85257555Y-71841356D03*
X86198309Y-71973570D03*
X87139064Y-72105785D03*
D142*
X144940292Y-96723248D03*
X145899708Y-96756752D03*
D53*
X114800000Y-94170000D03*
X113780000Y-94170000D03*
D47*
X59055002Y-60642506D03*
D143*
X139360000Y-79134308D03*
X139840000Y-79965692D03*
D144*
X96480000Y-79125692D03*
X96000000Y-78294308D03*
D52*
X128900000Y-73199992D03*
D97*
X121130000Y-75650000D03*
X120170000Y-75650000D03*
D63*
X131380000Y-68390000D03*
X132400000Y-68390000D03*
D45*
X89790000Y-60117500D03*
X90740000Y-60117500D03*
X91690000Y-60117500D03*
X91690000Y-62392500D03*
X90740000Y-62392500D03*
X89790000Y-62392500D03*
D49*
X59130000Y-96600000D03*
X59130000Y-97560000D03*
D145*
X105273981Y-113518244D03*
X105598900Y-114410952D03*
X105923819Y-115303660D03*
X103786019Y-116081756D03*
X103461100Y-115189048D03*
X103136181Y-114296340D03*
D52*
X62773851Y-55708421D03*
D146*
X59169757Y-90810575D03*
X60150243Y-90529425D03*
D147*
X134341844Y-66647670D03*
X133525503Y-65674794D03*
X132709163Y-64701917D03*
X131877502Y-63741897D03*
X137622835Y-58920990D03*
X138454497Y-59881010D03*
X139270837Y-60853887D03*
X140087177Y-61826763D03*
D148*
X135990000Y-62777902D03*
D53*
X125390000Y-65820000D03*
X124370000Y-65820000D03*
D149*
X88630305Y-86739436D03*
X87729699Y-86260576D03*
D47*
X58680002Y-103480006D03*
D150*
X96088327Y-80465000D03*
X96971673Y-79955000D03*
D53*
X121385000Y-72225000D03*
X120365000Y-72225000D03*
D49*
X59190000Y-115420000D03*
X59190000Y-116380000D03*
D58*
X101120000Y-76430000D03*
X101120000Y-75410000D03*
D47*
X58280002Y-58280006D03*
D151*
X87202495Y-50330000D03*
X87202495Y-49380000D03*
X87202495Y-48430000D03*
X89477495Y-48430000D03*
X89477495Y-49380000D03*
X89477495Y-50330000D03*
D61*
X94291705Y-96148759D03*
X95040315Y-96733638D03*
X95788925Y-97318516D03*
X94388295Y-99111241D03*
X93639685Y-98526362D03*
X92891075Y-97941484D03*
D127*
X142750000Y-55535000D03*
D128*
X141750000Y-53585000D03*
D53*
X125370000Y-63790000D03*
X124350000Y-63790000D03*
D52*
X126900000Y-74800000D03*
D47*
X110685633Y-64389028D03*
D53*
X138930000Y-56410000D03*
X137910000Y-56410000D03*
D152*
X65397529Y-63052348D03*
X66782471Y-60447652D03*
D47*
X65949572Y-73867713D03*
M02*
